<svg width="300" height="300" viewBox="0 0 300 300" fill="none" xmlns="http://www.w3.org/2000/svg">
<g clip-path="url(#clip0_860_306)">
<rect width="300" height="300" fill="white"/>
<rect x="-50" y="-50" width="400" height="400" fill="url(#paint0_radial_860_306)" fill-opacity="0.75"/>
<path d="M200.852 64.8665L41.2657 187.986C39.6212 188.168 37.1773 187.758 33.9339 186.757C29.8683 185.482 26.0083 183.593 22.3538 181.089C11.9386 173.987 5.63466 163.79 3.44198 150.497C1.29498 137.75 3.25926 124.07 9.33481 109.457C11.3448 104.632 13.8115 99.6468 16.7351 94.5026L22.0797 85.5571C26.4194 77.8636 30.0054 70.2611 32.8376 62.7496C37.5427 50.185 38.8218 40.8981 36.6748 34.8889L38.8674 35.1621C40.512 35.4807 41.8367 36.0725 42.8417 36.9375C42.7046 35.4807 42.3163 33.7736 41.6768 31.816C40.3521 27.8099 38.4563 24.4412 35.9896 21.7097L43.3898 20.6854C49.6481 20.731 55.9977 22.5064 62.4387 26.0117L61.9591 22.256C61.7764 19.7067 62.0276 18.2954 62.7128 18.0223C63.7635 17.6126 65.271 18.6141 67.2352 21.0269C67.2809 19.0238 67.7149 16.7476 68.5371 14.1983C70.136 9.19063 72.8311 5.41214 76.6226 2.86279L80.3913 9.75968C83.9087 14.7218 88.2027 18.1589 93.2733 20.0709C97.7043 21.8008 107.754 23.121 123.423 24.0314C138.589 24.9419 149.278 26.8084 155.491 29.6309L162.069 30.1772C167.413 30.86 172.347 32.112 176.869 33.9329C191.441 39.8055 199.435 50.1167 200.852 64.8665Z" fill="#68AE28"/>
<path d="M8.16991 163.881C-2.15395 144.488 0.312813 122.204 15.5702 97.0293C7.85014 117.379 10.4539 133.653 23.3816 145.854C29.0004 151.135 36.0809 155.004 44.6232 157.462C52.9828 159.83 61.8448 160.604 71.2094 159.784L39.2785 188.533C34.6191 188.123 29.4343 185.869 23.7242 181.772C17.1919 176.992 12.0071 171.029 8.16991 163.881Z" fill="#56931F"/>
<path d="M263.48 55.853C267.546 57.6284 271.086 63.6604 274.101 73.9488C276.796 83.2812 277.71 89.8822 276.842 93.7517C282.232 99.9885 287.485 112.166 292.602 130.285C298.403 150.588 299.385 165.361 295.548 174.602C294.315 177.561 290.706 181.59 284.722 186.689C278.509 192.061 272.365 196.203 266.289 199.117L269.373 204.102C271.84 208.472 274.055 213.184 276.019 218.237C282.278 234.535 284.881 251.424 283.831 268.905C283.511 274.459 278.897 279.012 269.99 282.562C261.265 285.977 251.968 287.115 242.101 285.977C238.767 285.521 234.359 281.629 228.877 274.3C222.619 265.787 218.896 256.955 217.708 247.805C209.348 252.63 202.291 255.885 196.535 257.57L194.753 260.574C193.2 263.033 191.373 265.309 189.272 267.403C182.648 274.141 174.814 277.896 165.769 278.67C156.77 279.444 149.78 278.738 144.801 276.553C143.248 275.87 141.969 275.074 140.964 274.163L140.005 273.002L85.2563 274.846L79.6376 279.763C74.6127 283.086 68.8113 284.839 62.2332 285.021C53.2341 285.294 46.1536 284.474 40.9916 282.562C34.505 280.104 29.8912 275.62 27.1504 269.11C23.1761 259.732 21.0748 248.988 20.8464 236.879C20.5266 221.128 24.0669 208.245 31.4672 198.229C38.5934 188.578 47.8894 178.745 59.3553 168.73C62.553 165.953 71.2552 158.897 85.4619 147.561C92.7252 141.825 99.189 136.271 104.853 130.899C110.609 125.436 114.104 121.521 115.337 119.154C116.662 110.095 118.398 100.899 120.545 91.5666C124.884 72.9017 129.087 62.932 133.153 61.6573C137.218 60.4282 143.202 61.7256 151.105 65.5496C155.034 67.5071 158.551 69.5557 161.658 71.6953L166.317 70.0565C170.428 68.8273 174.928 67.7803 179.816 66.9153C195.438 64.2294 212.021 64.0701 229.562 66.4373C232.212 63.6148 238.059 60.8834 247.103 58.243C255.828 55.6937 261.287 54.897 263.48 55.853Z" fill="#7CBEB3"/>
<path d="M275.882 83.0304L277.253 93.7513L270.195 83.3036C270.926 80.2535 271.246 76.1336 271.154 70.9438L270.743 64.1152C272.845 68.6221 274.558 74.9272 275.882 83.0304Z" fill="#68A198"/>
<path d="M118.969 95.1174C122.669 78.1824 126.301 68.3948 129.864 65.7544C128.996 75.5876 128.699 85.3069 128.973 94.9125C129.156 100.557 129.749 109.162 130.754 120.725C131.348 127.599 130.64 133.699 128.63 139.025C126.849 143.669 124.519 146.833 121.641 148.517C118.809 150.156 116.479 149.792 114.652 147.424C112.688 144.83 112.025 140.368 112.665 134.04C113.944 121.43 116.045 108.456 118.969 95.1174Z" fill="#68A198"/>
<path d="M242.65 268.7C246.167 275.256 250.37 279.353 255.257 280.992L252.654 286.181C245.756 287.547 239.657 285.749 234.359 280.787C228.009 274.732 222.39 263.738 217.502 247.805C209.6 252.585 200.829 256.158 191.19 258.526C181.689 260.893 170.268 262.327 156.93 262.828C154.828 263.51 153.298 264.967 152.339 267.198C151.379 269.337 151.356 271.272 152.27 273.002L148.433 277.509L140.21 272.524C140.439 270.976 141.718 266.356 144.048 258.662C146.332 251.287 147.771 244.891 148.364 239.474C150.1 223.267 145.578 208.608 134.797 195.498C144.39 205.103 161.201 211.135 185.229 213.593C210.901 216.188 232.714 213.866 250.667 206.628C244.911 210.316 240.799 216.052 238.333 223.836C236.14 230.847 235.478 238.609 236.346 247.122C237.214 255.316 239.315 262.509 242.65 268.7Z" fill="#68A198"/>
<path d="M20.1612 229.504C22.1254 245.483 30.8962 255.749 46.4733 260.301C52.4575 262.031 58.7615 262.668 65.3852 262.213C71.415 261.803 76.3714 260.62 80.2543 258.662L85.2563 275.461C81.6932 278.92 76.8967 281.629 70.8669 283.587C58.8071 287.502 46.6789 285.795 34.4821 278.465C28.5893 274.914 24.3638 265.901 21.8057 251.424C20.9834 246.553 20.4353 241.614 20.1612 236.606C19.9328 232.418 19.9328 230.05 20.1612 229.504Z" fill="#68A198"/>
<path d="M166.865 118.198C168.647 117.879 170.542 118.175 172.552 119.086C165.655 124.367 162.046 132.47 161.726 143.396C161.406 153.365 163.69 162.721 168.578 171.461C158.985 170.414 152.224 168.229 148.296 164.906C147.154 163.904 146.674 161.105 146.857 156.507C147.04 151.727 147.885 146.719 149.392 141.484C153.321 127.553 159.145 119.791 166.865 118.198Z" fill="white"/>
<path d="M190.573 144.215C192.72 149.951 194.045 155.118 194.548 159.716C195.096 164.632 194.548 167.91 192.903 169.549C191.807 170.641 188.86 171.393 184.064 171.802C179.176 172.166 174.014 172.053 168.578 171.461C163.69 162.72 161.406 153.365 161.726 143.395C162.046 132.47 165.655 124.366 172.552 119.085C179.359 122.227 185.366 130.603 190.573 144.215Z" fill="#D60040"/>
<path d="M270.812 114.784C276.522 119.427 279.925 126.37 281.021 135.611C281.707 141.392 281.433 149.518 280.199 159.989C278.189 160.763 276.248 161.286 274.375 161.56C272.456 161.878 271.017 161.878 270.058 161.56C267.363 160.695 266.015 153.821 266.015 140.937C265.97 127.781 267.568 119.063 270.812 114.784Z" fill="#D60040"/>
<path d="M270.812 114.784C271.634 113.645 272.502 112.985 273.416 112.803C277.847 111.847 282.141 117.242 286.298 128.987C290.363 140.641 291.163 148.972 288.696 153.98C287.554 156.347 284.722 158.35 280.199 159.989C281.433 149.518 281.707 141.392 281.021 135.611C279.925 126.369 276.522 119.427 270.812 114.784Z" fill="white"/>
<path d="M230.59 107.818C229.265 108.319 225.816 106.931 220.243 103.653C214.396 100.284 211.587 97.5299 211.815 95.3903C212.135 92.5678 216.863 88.6755 225.999 83.7134C235.272 78.7057 241.439 76.862 244.5 78.1822C246.464 79.0016 245.436 83.8272 241.416 92.6588C237.351 101.536 233.742 106.589 230.59 107.818Z" fill="#006359"/>
<path d="M200.098 113.691C199.961 113.099 200.646 111.984 202.154 110.345C203.707 108.661 205.1 107.659 206.333 107.34L207.841 109.457C209.12 111.597 210.399 114.601 211.678 118.471L210.787 120.588C209.919 122.136 208.846 123.205 207.567 123.797L204.278 120.656C201.994 118.152 200.6 115.831 200.098 113.691Z" fill="#006359"/>
<path d="M253.065 128.577C254.481 136.635 254.595 141.142 253.407 142.098C252.357 142.963 249.159 142.621 243.814 141.074C238.424 139.526 235.363 138.023 234.633 136.567C234.861 133.198 236.597 128.987 239.84 123.934C243.175 118.881 245.87 116.354 247.926 116.354C249.936 116.354 251.649 120.428 253.065 128.577Z" fill="#006359"/>
<path d="M257.176 247.327C256.993 244.732 258.592 241.022 261.973 236.196C265.262 231.462 267.637 229.185 269.099 229.368C271.291 229.595 272.799 234.17 273.621 243.093C274.398 252.061 273.69 256.91 271.497 257.638C269.076 258.457 266.175 258.002 262.795 256.272C258.912 254.224 257.039 251.242 257.176 247.327Z" fill="#006359"/>
<path d="M39.9638 208.95L51.2698 209.428C56.3404 210.43 59.2639 211.545 60.0405 212.774C61.3196 214.823 60.4745 219.148 57.5052 225.749C54.5817 232.304 52.1149 235.673 50.1049 235.855C48.3691 235.991 44.8517 234.262 39.5527 230.665C34.208 227.069 31.5585 224.565 31.6042 223.154C31.6499 221.333 32.5407 218.738 34.2765 215.369C36.1951 211.591 38.0909 209.451 39.9638 208.95Z" fill="#006359"/>
<path d="M105.127 150.429C106.315 152.478 104.397 158.168 99.3717 167.5C94.3468 176.833 90.4868 181.795 87.7916 182.387C85.3249 182.979 81.3049 181.909 75.7319 179.177C70.4786 176.674 66.984 174.375 65.2481 172.281C64.7 171.598 65.0654 169.595 66.3445 166.271L68.4001 161.423L77.582 154.185C83.7945 149.314 87.2663 146.787 87.9972 146.605L96.5623 147.356C101.587 148.221 104.442 149.245 105.127 150.429Z" fill="#006359"/>
<path d="M174.677 125.982C176.138 125.982 177.417 127.416 178.514 130.284C179.61 133.335 180.135 137.136 180.09 141.688C179.998 146.013 179.404 149.427 178.308 151.931C177.303 154.207 176.07 155.345 174.608 155.345C173.238 155.345 172.05 154.116 171.045 151.658C169.949 149.063 169.355 145.785 169.263 141.825C169.081 137.045 169.583 133.152 170.771 130.148C171.821 127.371 173.123 125.982 174.677 125.982Z" fill="white"/>
<path d="M267.591 127.485L268.962 121.339C269.51 120.61 270.035 120.269 270.538 120.315C271.36 120.36 272.137 121.248 272.867 122.978C273.918 125.299 274.489 128.577 274.58 132.811C274.626 136.817 274.261 139.935 273.484 142.166C272.753 144.169 271.84 145.171 270.743 145.171C270.058 145.171 269.373 144.67 268.688 143.668C267.957 142.576 267.454 141.142 267.18 139.366C266.632 136.225 266.769 132.265 267.591 127.485Z" fill="white"/>
<path d="M238.401 69.5782C225.885 67.1654 213.208 66.2322 200.372 66.7785C186.576 67.3248 173.9 69.5555 162.343 73.4705C161.932 73.6071 161.361 73.1518 160.63 72.1048C159.853 71.0577 159.67 70.4432 160.081 70.2611C173.192 65.8452 187.399 63.478 202.702 63.1593C216.132 62.8407 228.397 64.0926 239.498 66.9151C245.162 68.3718 247.857 69.4416 247.583 70.1245L238.401 69.5782Z" fill="#0D131A"/>
<path d="M275.403 88.6301C284.676 102.014 291.437 117.538 295.685 135.201C299.385 150.588 300.299 162.493 298.426 170.915C296.37 180.247 286.138 189.807 267.728 199.595C249.456 209.337 231.8 214.732 214.761 215.779C196.535 216.871 179.382 215.369 163.302 211.272C147.222 207.175 136.853 201.643 132.193 194.678C130.686 192.402 130.206 191.014 130.754 190.513C131.348 190.012 132.696 190.9 134.797 193.176C140.964 199.914 151.95 205.058 167.756 208.609C182.785 211.977 198.476 213.161 214.83 212.159C231.915 211.112 249.159 205.763 266.563 196.112C283.283 186.825 292.556 178.039 294.383 169.754C296.302 161.15 295.502 149.541 291.985 134.928C288.056 118.585 281.775 103.881 273.141 90.8153C269.578 85.3979 268.185 82.3934 268.962 81.8016C269.693 81.2097 271.84 83.4859 275.403 88.6301Z" fill="#0D131A"/>
<path d="M116.639 119.905C113.624 125.55 107.526 132.265 98.3438 140.049C92.8621 144.647 83.6346 151.931 70.6613 161.901C58.83 171.279 49.6938 179.541 43.2528 186.689C34.3907 196.522 28.4979 206.196 25.5743 215.71C22.0569 227.137 21.8742 239.975 25.0262 254.224C27.9497 267.653 32.1067 275.938 37.497 279.08C43.2985 282.448 51.1099 283.928 60.9313 283.518C71.0724 283.108 78.0844 280.741 81.9673 276.416C87.9515 269.724 90.2812 258.89 88.9564 243.912C87.586 228.616 82.9266 216.416 74.9781 207.311C71.8718 203.715 70.5471 201.53 71.0039 200.756C71.4607 199.982 73.4021 201.416 76.8282 205.058C86.8323 215.756 92.4053 228.844 93.5474 244.322C94.598 259.026 91.5146 270.407 84.297 278.465C79.9573 283.336 72.1459 286.068 60.8627 286.659C49.945 287.251 41.2885 285.681 34.8932 281.948C28.4065 278.169 23.6557 269.246 20.6408 255.18C17.5802 240.703 17.8771 227.319 21.5316 215.027C24.3181 205.741 29.8226 196.431 38.0452 187.098C44.0294 180.27 52.6859 172.28 64.0147 163.13L92.1084 140.459C102.25 131.764 109.81 123.775 114.789 116.491C115.017 116.172 115.428 116.559 116.022 117.652C116.662 118.79 116.867 119.541 116.639 119.905Z" fill="#0D131A"/>
<path d="M133.427 59.6085C136.259 58.698 141.033 59.6085 147.748 62.34C154.508 65.1169 160.059 68.5085 164.398 72.5146C167.824 75.7012 169.149 77.4994 168.373 77.9092C167.642 78.3644 165.54 77.2491 162.069 74.5631C157.592 71.1944 152.407 68.3491 146.514 66.0274C140.758 63.7057 136.898 62.8862 134.934 63.5691C131.737 64.6162 128.036 72.6967 123.834 87.8106C119.403 103.79 116.525 120.542 115.2 138.069C114.835 143.122 114.195 145.444 113.281 145.034C112.322 144.625 111.934 142.235 112.117 137.864C112.71 122.705 114.994 106.84 118.969 90.2689C123.491 71.513 128.31 61.2929 133.427 59.6085Z" fill="#0D131A"/>
<path d="M227.369 65.481C231.344 62.4764 237.442 59.6084 245.664 56.8769C254.938 53.7813 261.379 53.0529 264.987 54.6918C268.551 56.2851 271.794 61.6342 274.717 70.739C277.413 79.2064 278.92 87.7194 279.24 96.2779C279.24 96.6876 278.669 96.2552 277.527 94.9805C276.339 93.7058 275.745 92.8409 275.745 92.3856C275.471 85.466 273.872 78.1821 270.949 70.5341C268.162 63.2503 265.581 59.0621 263.206 57.9695C260.968 56.968 255.851 57.6053 247.857 59.8815C239.772 62.1577 234.016 64.5932 230.59 67.1881C230.27 67.4612 229.562 67.3247 228.466 66.7784C227.415 66.1866 227.05 65.7541 227.369 65.481Z" fill="#0D131A"/>
<path d="M229.905 105.906C232.143 105.861 235.272 101.604 239.292 93.1368C243.266 84.8059 244.751 80.3901 243.746 79.8893C241.507 78.7512 235.957 80.4129 227.095 84.8742C218.187 89.3356 213.711 92.7726 213.665 95.1854C213.619 96.6877 215.584 98.8046 219.558 101.536C223.623 104.267 227.072 105.724 229.905 105.906ZM224.423 83.0305C234.153 77.7952 241.096 75.5646 245.253 76.3385C246.669 76.6116 247.081 78.4781 246.487 81.9379C245.939 85.1246 244.705 88.8576 242.787 93.1368C237.99 103.789 233.696 109.025 229.905 108.843C226.89 108.66 222.87 106.931 217.845 103.653C212.592 100.239 209.965 97.3478 209.965 94.9805C209.965 92.2036 214.784 88.2202 224.423 83.0305Z" fill="#0D131A"/>
<path d="M210.307 118.881C210.445 118.517 209.942 116.832 208.8 113.828C207.658 110.778 206.836 109.23 206.333 109.184C205.922 109.139 205.009 109.753 203.592 111.028C202.176 112.303 201.468 113.259 201.468 113.896C201.514 114.488 202.473 116.036 204.346 118.54C206.219 120.952 207.315 122.159 207.635 122.159C207.909 122.159 208.389 121.703 209.074 120.793L210.307 118.881ZM210.445 111.711C211.861 115.08 212.592 117.379 212.637 118.608C212.683 119.609 211.952 120.975 210.445 122.705C208.891 124.48 207.727 125.186 206.95 124.822C206.036 124.412 204.46 122.728 202.222 119.769C199.801 116.628 198.682 114.465 198.864 113.282C199.047 112.052 200.121 110.505 202.085 108.638C204.049 106.863 205.534 105.998 206.539 106.043C207.589 106.134 208.891 108.024 210.445 111.711Z" fill="#0D131A"/>
<path d="M247.446 118.335C246.03 118.244 243.7 120.907 240.457 126.324C237.305 131.696 235.912 134.905 236.277 135.952C236.642 136.908 239.223 138.069 244.02 139.435C248.862 140.801 251.626 141.165 252.311 140.528C253.362 139.526 253.156 135.588 251.694 128.714C250.233 121.886 248.816 118.426 247.446 118.335ZM238.127 124.071C242.101 117.242 245.23 113.942 247.515 114.169C250.392 114.442 252.699 119.177 254.435 128.373C256.125 137.523 255.988 142.576 254.024 143.532C252.334 144.397 248.611 143.874 242.855 141.962C237.191 140.095 234.084 138.502 233.536 137.182C232.668 135.224 234.199 130.854 238.127 124.071Z" fill="#0D131A"/>
<path d="M151.037 131.924C156.381 121.134 162.114 116.081 168.236 116.764C176.869 117.766 184.292 125.027 190.505 138.547C193.109 144.283 194.822 149.951 195.644 155.551C196.512 161.378 196.215 166.021 194.753 169.481C193.977 171.393 191.053 172.668 185.983 173.305C181.323 173.851 175.91 173.806 169.743 173.168C163.53 172.531 158.231 171.416 153.846 169.822C149.004 168.138 146.377 166.203 145.966 164.018C143.91 153.639 145.601 142.94 151.037 131.924ZM183.242 132.88C178.445 124.776 173.329 120.429 167.893 119.837C165.746 119.609 163.416 120.793 160.904 123.388C157.112 127.303 154.052 132.948 151.722 140.323C149.255 148.335 148.524 156.006 149.529 163.335C149.895 166.158 156.724 168.297 170.017 169.754C183.31 171.256 190.528 170.687 191.67 168.047C192.857 165.179 192.652 160.171 191.053 153.024C189.363 145.558 186.759 138.843 183.242 132.88Z" fill="#0D131A"/>
<path d="M284.173 127.417C280.747 118.949 277.298 114.715 273.827 114.715C270.766 114.715 268.893 121.931 268.208 136.362C267.523 150.702 268.391 158.578 270.812 159.989C272.411 160.899 275.425 160.399 279.857 158.487C284.288 156.575 286.686 154.776 287.051 153.092C288.833 145.034 287.873 136.476 284.173 127.417ZM264.987 135.201C265.764 119.45 268.71 111.574 273.827 111.574C278.258 111.574 282.552 116.286 286.709 125.709C291.048 135.634 292.259 144.898 290.34 153.502C289.655 156.415 286.275 159.01 280.199 161.286C274.306 163.517 270.56 163.95 268.962 162.584C267.454 161.355 266.335 157.986 265.604 152.478C264.873 147.197 264.668 141.438 264.987 135.201Z" fill="#0D131A"/>
<path d="M87.2434 145.308L99.2347 146.059C103.894 146.878 106.566 147.948 107.252 149.268C108.485 151.772 106.247 158.191 100.537 168.525C94.8265 178.95 90.4639 184.162 87.449 184.162C84.5711 184.162 79.866 182.728 73.3336 179.86C66.4358 176.856 62.9869 174.397 62.9869 172.485C62.9869 171.393 63.4894 169.754 64.4944 167.569L67.7834 161.15C68.0118 160.786 68.6285 160.558 69.6335 160.467C70.6842 160.422 71.0953 160.581 70.8669 160.945C69.6335 163.221 68.6514 165.429 67.9205 167.569C67.2809 169.435 66.9612 170.778 66.9612 171.598C67.1439 172.827 70.0903 174.716 75.8004 177.265C81.3735 179.769 85.2335 181.044 87.3805 181.089C89.3904 180.452 92.6795 175.809 97.2476 167.159C101.816 158.51 103.78 153.229 103.14 151.317C102.775 150.543 100.811 149.814 97.2476 149.132L86.6268 148.38C86.1699 148.426 86.0557 147.925 86.2842 146.878C86.5126 145.877 86.8323 145.353 87.2434 145.308Z" fill="#0D131A"/>
<path d="M40.5805 210.179C39.1644 210.862 37.5428 212.751 35.7155 215.847C33.8883 218.897 33.0432 221.014 33.1802 222.197C33.363 223.426 35.784 225.68 40.4435 228.958C45.1029 232.235 48.1179 233.783 49.4883 233.601C50.8587 233.419 52.9829 230.278 55.8608 224.178C58.7386 218.077 59.8121 214.64 59.0813 213.866C58.259 213.047 55.2669 212.091 50.105 210.998C44.8517 209.906 41.6769 209.633 40.5805 210.179ZM32.9747 214.071C35.1217 210.52 37.1545 208.244 39.0731 207.243L50.9272 207.789C57.5053 209.018 61.3425 210.498 62.4388 212.228C63.4438 213.821 62.3018 218.282 59.0127 225.612C55.7237 232.895 53.0285 236.924 50.9272 237.698C49.3284 238.336 45.5597 236.583 39.6212 232.44C33.5914 228.252 30.4166 224.974 30.0968 222.607C29.8684 220.558 30.8277 217.713 32.9747 214.071Z" fill="#0D131A"/>
<path d="M258.683 247.19V247.258C258.775 251.037 260.625 253.791 264.234 255.521C267.477 257.069 269.67 257.319 270.812 256.272C271.999 255.18 272.411 251.037 272.045 243.844C271.68 236.515 270.606 232.44 268.825 231.621C267.865 231.211 265.924 233.26 263 237.767C260.122 242.274 258.683 245.415 258.683 247.19ZM260.671 235.445C264.188 229.846 266.906 227.069 268.825 227.114C271.931 227.16 273.872 232.099 274.649 241.932C275.425 251.583 274.786 257.16 272.73 258.662C271.04 259.937 267.957 259.709 263.48 257.979C258.364 255.976 255.737 252.63 255.6 247.941C255.554 245.119 257.245 240.953 260.671 235.445Z" fill="#0D131A"/>
<path d="M290.751 167.705C290.706 169.48 290.455 170.937 289.998 172.075L288.627 174.329C286.389 176.969 281.044 180.292 272.593 184.299C263.868 188.441 256.308 191.15 249.913 192.425C238.264 194.792 220.38 194.997 196.261 193.039C172.141 191.127 156.907 188.259 150.557 184.435C149.506 183.752 148.547 182.637 147.679 181.089C146.903 179.769 146.332 178.312 145.966 176.719C145.281 173.851 145.235 172.235 145.829 171.87C146.423 171.506 147.359 172.827 148.638 175.831C149.415 177.607 150.237 178.972 151.105 179.928L153.846 181.977C158.962 184.754 172.644 187.212 194.89 189.352C218.964 191.673 237.099 191.605 249.296 189.147C254.778 188.009 261.287 185.801 268.825 182.523C275.814 179.473 281.044 176.696 284.516 174.192C285.795 173.236 286.732 172.257 287.325 171.256C287.965 170.209 288.376 168.934 288.559 167.432C288.879 164.7 289.335 163.426 289.929 163.608C290.523 163.836 290.797 165.201 290.751 167.705Z" fill="#0D131A"/>
<path d="M186.873 111.642C188.472 113.099 190.025 114.875 191.533 116.969C193.132 119.154 194.274 121.134 194.959 122.91C195.964 125.459 196.009 126.893 195.096 127.212C194.137 127.485 193.063 126.483 191.875 124.207C189.911 120.337 187.513 116.832 184.681 113.691C182.031 110.641 180.98 108.865 181.529 108.365C182.123 107.864 183.904 108.956 186.873 111.642Z" fill="#0D131A"/>
<path d="M264.097 112.121C263.229 114.624 262.681 117.31 262.452 120.178C262.269 122.682 261.698 123.911 260.739 123.866C259.78 123.866 259.369 122.637 259.506 120.178C259.643 117.174 260.419 114.215 261.835 111.301C263.115 108.706 264.051 107.477 264.645 107.614C265.193 107.796 265.01 109.298 264.097 112.121Z" fill="#0D131A"/>
<path d="M234.016 183.684C233.011 183.183 232.212 182.546 231.618 181.772C231.024 181.044 230.818 180.52 231.001 180.202L233.125 180.27C234.45 180.543 235.432 180.976 236.072 181.567C236.894 182.387 237.054 183.092 236.551 183.684C236.049 184.276 235.204 184.276 234.016 183.684Z" fill="#0D131A"/>
<path d="M257.382 180.27C256.422 181.453 255.554 181.863 254.778 181.499C254.001 181.135 253.956 180.384 254.641 179.246C255.143 178.426 255.943 177.698 257.039 177.06C258.044 176.423 258.683 176.218 258.958 176.446C259.14 176.628 259.095 177.106 258.821 177.88L257.382 180.27Z" fill="#0D131A"/>
<path d="M175.019 119.427C175.43 119.564 175.613 120.224 175.567 121.407C175.522 122.591 175.316 123.069 174.951 122.841C172.621 121.385 170.428 122.5 168.373 126.187C166.454 129.556 165.129 134.222 164.398 140.186C163.622 146.332 163.713 152.068 164.672 157.394C165.814 163.449 167.939 167.773 171.045 170.368C171.41 170.641 171.182 171.051 170.36 171.597C169.537 172.098 168.944 172.212 168.578 171.939C164.832 169.162 162.251 164.564 160.835 158.145C159.602 152.364 159.465 146.172 160.424 139.571C161.383 133.061 163.142 127.872 165.7 124.002C168.487 119.859 171.593 118.334 175.019 119.427Z" fill="#0D131A"/>
<path d="M269.647 115.33C271.246 114.101 273.096 114.624 275.197 116.901C277.298 119.131 279.103 122.455 280.61 126.87C284.356 137.933 284.516 148.813 281.09 159.511C280.953 159.921 280.428 160.217 279.514 160.399C278.6 160.535 278.189 160.399 278.281 159.989C281.067 151.34 281.158 141.529 278.555 130.558C277.504 126.142 276.202 122.659 274.649 120.11C273.096 117.515 271.68 116.559 270.401 117.242C270.035 117.47 269.738 117.265 269.51 116.628C269.281 116.036 269.327 115.603 269.647 115.33Z" fill="#0D131A"/>
<path d="M264.576 200.141C264.348 199.777 264.828 199.231 266.015 198.502C267.157 197.728 267.82 197.524 268.002 197.888C280.976 218.783 286.754 243.161 285.338 271.022C285.201 273.617 283.214 276.303 279.377 279.08C275.722 281.72 271.2 283.928 265.81 285.703C252.745 289.983 242.924 289.823 236.346 285.225C232.006 282.175 227.506 276.348 222.847 267.744C218.37 259.504 216.086 253.245 215.995 248.966C215.995 248.556 216.634 248.101 217.913 247.6L219.763 247.395C219.855 251.629 221.979 257.615 226.136 265.354C230.567 273.594 235.021 279.285 239.498 282.426C245.208 286.386 253.818 286.5 265.33 282.767C269.989 281.265 273.918 279.398 277.116 277.168C280.45 274.892 282.163 272.797 282.255 270.885C283.58 244.846 277.687 221.264 264.576 200.141Z" fill="#0D131A"/>
<path d="M226.273 243.435C214.442 252.676 200.326 258.935 183.927 262.213C168.715 265.218 155.125 265.058 143.157 261.735C142.746 261.599 142.677 260.893 142.951 259.618C143.18 258.389 143.499 257.82 143.91 257.911C155.65 261.189 168.784 261.394 183.31 258.526C198.065 255.612 211.45 250.081 223.464 241.932C228.032 238.837 230.567 237.607 231.069 238.245C231.526 238.837 229.927 240.566 226.273 243.435Z" fill="#0D131A"/>
<path d="M194.274 257.228C194.502 256.864 195.553 256.545 197.426 256.272L199.892 256.477C196.329 262.304 191.921 267.38 186.668 271.705C180.638 276.667 174.722 279.512 168.921 280.241L148.364 279.626C142.974 278.306 139.799 276.303 138.84 273.617C138.703 273.207 139.045 272.524 139.868 271.568C140.644 270.567 141.101 270.271 141.238 270.681C142.152 273.23 144.961 275.142 149.666 276.417C154.783 277.828 161.064 278.078 168.51 277.168C172.849 276.621 177.44 274.459 182.282 270.681C187.079 266.948 191.076 262.463 194.274 257.228Z" fill="#0D131A"/>
<path d="M34.8247 33.5916C35.1902 33.3184 36.0809 33.3184 37.497 33.5916C39.6897 34.0013 41.6083 34.9801 43.2528 36.5279C43.6183 36.801 43.6411 37.2335 43.3213 37.8253C43.0473 38.3716 42.7275 38.5082 42.3621 38.235C41.4028 37.4156 40.4663 36.8693 39.5527 36.5962L38.2508 36.5279L38.5249 38.713L38.936 42.8102C39.073 49.0014 37.0402 57.1047 32.8376 67.12C29.5486 75.0867 25.3231 83.3265 20.1612 91.8395C3.89881 118.744 0.312869 141.961 9.40335 161.491C12.8294 168.866 17.7401 174.898 24.1354 179.587C29.7998 183.684 35.2358 185.915 40.4435 186.279C40.8546 186.325 40.7861 186.848 40.2379 187.85C39.7354 188.897 39.2558 189.397 38.7989 189.352C32.7234 188.942 26.6479 186.552 20.5723 182.182C13.8115 177.265 8.67246 170.892 5.15503 163.062C-3.98113 142.758 -0.0297364 118.562 17.0092 90.4738C25.049 77.1808 30.5079 66.255 33.3858 57.6965C36.4464 48.6373 36.9489 41.2851 34.8932 35.6402C34.4821 34.5931 34.4593 33.9102 34.8247 33.5916Z" fill="#0D131A"/>
<path d="M70.3187 31.2017C70.6385 31.5204 70.6385 32.0211 70.3187 32.704C69.999 33.4324 69.6792 33.6372 69.3594 33.3185C65.9334 29.7677 61.4795 26.9224 55.9978 24.7828C50.8359 22.8253 46.1993 21.9603 42.088 22.1879C40.1694 22.3245 39.1416 22.5749 39.0045 22.9391C38.8675 23.2577 39.3243 24.2365 40.375 25.8754C45.3542 33.7055 45.4912 45.2686 40.7861 60.5647C38.228 68.759 34.2309 78.9563 28.7949 91.1568C20.7551 112.234 20.1155 131.036 26.8763 147.561C29.6628 154.39 33.5228 160.171 38.4564 164.906C43.0245 169.321 47.958 172.303 53.257 173.851C53.6224 173.942 53.3483 174.397 52.4347 175.217C51.5211 175.991 50.8587 176.332 50.4476 176.241C36.4236 172.144 26.8078 161.719 21.6002 144.966C16.1641 127.621 17.4889 109.139 25.5744 89.5179L31.6043 75.929C34.4821 69.2825 36.652 63.4782 38.1138 58.5161C42.5905 43.5842 42.0652 32.5902 36.5378 25.5339C34.6649 23.1212 33.7969 21.5734 33.934 20.8905C34.071 20.1166 35.4414 19.5703 38.0452 19.2516C42.9331 18.6143 48.4148 19.3654 54.4903 21.5051C60.9313 23.7813 66.2075 27.0135 70.3187 31.2017Z" fill="#0D131A"/>
<path d="M65.5223 18.0223L68.0575 20.0709C68.3316 20.3896 68.2631 21.0497 67.852 22.0512C67.4409 23.0072 67.0982 23.3259 66.8242 23.0072L65.3852 21.3001C64.563 20.4806 63.9463 20.162 63.5351 20.3441C63.1697 20.5262 63.0327 21.118 63.124 22.1195L63.7407 26.0118C63.8321 26.376 63.4666 26.5581 62.6444 26.5581C61.8221 26.5126 61.3881 26.2849 61.3425 25.8752L60.6573 21.6415C60.4745 19.3198 60.84 17.7947 61.7536 17.0663C62.5302 16.4745 63.7864 16.7932 65.5223 18.0223Z" fill="#0D131A"/>
<path d="M170.634 37.2791C180.455 45.1547 185.617 54.6692 186.12 65.8226C186.165 66.2778 185.571 66.6193 184.338 66.8469C183.105 67.12 182.488 67.029 182.488 66.5737C182.031 56.3764 177.417 47.5675 168.647 40.1471C158.094 31.2244 143.339 26.4216 124.382 25.7387C108.165 25.1469 96.5623 23.3487 89.5732 20.3441C83.9088 17.9314 79.8203 13.857 77.3079 8.12095C76.7597 6.8918 76.3029 6.2317 75.9375 6.14065C75.5263 6.00408 74.864 6.45932 73.9503 7.50637C70.8897 10.8751 69.0853 14.9951 68.5372 19.8661C67.989 24.8738 69.0397 28.7661 71.6891 31.543C77.0338 37.0059 81.2593 43.4476 84.3656 50.868C86.2842 55.4659 88.6139 63.1367 91.3547 73.8803C94.6894 86.9457 98.3667 96.6651 102.387 103.038C105.63 108.183 110.381 112.826 116.639 116.969C116.913 117.105 116.73 117.765 116.091 118.949C115.497 120.087 115.017 120.542 114.652 120.315C106.612 115.034 100.833 109.435 97.3161 103.516C94.0727 98.0536 90.9436 89.1764 87.9287 76.8849C84.6853 63.5464 82.2642 54.8741 80.6654 50.868C78.1987 44.5401 74.4757 38.8041 69.4965 33.6599C65.9334 29.9725 64.7913 24.5323 66.0704 17.3396C67.3038 10.5565 69.7934 5.70818 73.5392 2.79464C75.2294 1.47445 76.4171 0.882633 77.1023 1.01921C77.7875 1.15578 78.4499 2.11178 79.0894 3.88722C81.8303 10.989 85.7588 15.6779 90.8751 17.9541C96.6309 20.4579 107.823 22.0285 124.45 22.6659C144.002 23.3487 159.396 28.2198 170.634 37.2791Z" fill="#0D131A"/>
<path d="M190.642 40.6935C199.367 48.1594 203.136 56.2399 201.948 64.935C201.902 65.3447 201.217 65.5268 199.892 65.4813C198.568 65.4358 197.928 65.2082 197.974 64.7984C198.979 57.3325 196.009 50.3218 189.066 43.7664C181.072 36.2549 169.949 31.9757 155.696 30.9286C155.239 30.8831 153.915 30.3368 151.722 29.2897C149.484 28.1972 148.57 27.6509 148.981 27.6509C166.614 27.6509 180.501 31.9984 190.642 40.6935Z" fill="#0D131A"/>
<path d="M82.447 216.666C84.9138 207.061 88.3627 199.868 92.7937 195.088L143.568 209.838C147.999 226.682 148.433 242.729 144.87 257.979C142.723 267.039 139.365 275.119 134.797 282.221C132.33 286.09 127.306 288.64 119.723 289.869C111.728 291.189 104.031 290.392 96.6309 287.479C91.2405 285.385 87.0151 280.263 83.9545 272.114C81.1223 264.694 79.5919 255.794 79.3635 245.415C79.1351 235.263 80.163 225.68 82.447 216.666Z" fill="#7CBEB3"/>
<path d="M93.3418 235.445C93.6159 232.668 96.9735 228.912 103.414 224.178C109.855 219.443 113.944 217.736 115.68 219.056C117.461 220.377 117.804 227.569 116.708 240.635C115.611 253.7 113.944 260.324 111.706 260.506C110.381 260.597 106.955 256.955 101.427 249.58C95.8543 242.114 93.1591 237.402 93.3418 235.445Z" fill="#006359"/>
<path d="M81.145 219.534C81.3734 239.064 85.7816 255.339 94.3696 268.359C102.592 280.969 112.87 287.911 125.204 289.186C120.179 290.461 114.743 290.87 108.896 290.415C97.2019 289.505 89.3219 284.679 85.2563 275.938C81.1907 267.243 79.295 255.225 79.5691 239.883L81.145 219.534Z" fill="#68A198"/>
<path d="M89.8473 202.599C83.9088 212.751 81.2136 227.296 81.7618 246.234C82.3556 265.946 86.5126 278.625 94.2326 284.27C99.4859 288.094 106.521 289.619 115.337 288.845C123.834 288.071 129.453 285.749 132.193 281.88C138.406 273.093 142.472 262.486 144.39 250.058C146.126 238.859 145.898 228.207 143.705 218.1C142.609 213.047 142.472 210.339 143.294 209.974C144.116 209.61 145.212 211.886 146.583 216.803C149.415 227.046 149.986 238.131 148.296 250.058C146.469 263.033 142.289 274.163 135.756 283.45C132.376 288.23 125.387 291.03 114.789 291.849C104.419 292.623 96.608 291.098 91.3547 287.274C87.5632 284.497 84.4341 279.581 81.9673 272.524C79.5919 265.787 78.153 258.048 77.6505 249.307C76.4171 229.459 79.5691 213.411 87.1064 201.165C89.7559 196.841 91.5831 194.769 92.5881 194.951C93.6388 195.088 92.7252 197.637 89.8473 202.599Z" fill="#0D131A"/>
<path d="M94.9863 234.762C94.895 236.356 97.2475 240.817 102.044 248.146C106.932 255.612 110.061 259.254 111.431 259.072C112.939 258.844 114.172 252.676 115.132 240.567C116.091 228.412 115.862 221.833 114.446 220.832C113.122 219.921 109.559 221.629 103.757 225.953C98.0013 230.278 95.0777 233.214 94.9863 234.762ZM91.8344 234.079C91.9714 230.756 95.7858 226.568 103.277 221.515C110.632 216.598 115.04 214.823 116.502 216.189C118.923 218.51 119.608 226.409 118.558 239.884C117.461 253.359 115.52 260.893 112.733 262.486C110.815 263.624 106.818 260.028 100.742 251.697C94.6666 243.412 91.6973 237.539 91.8344 234.079Z" fill="#0D131A"/>
<path d="M40.1694 282.357C39.941 281.675 40.8089 280.514 42.7732 278.875C44.7831 277.236 46.2906 276.485 47.2956 276.621C49.1228 276.849 50.379 278.829 51.0642 282.562C51.7038 286.022 51.7494 288.002 51.2013 288.503C50.5617 289.095 48.7802 288.731 45.8566 287.411C42.7046 285.999 40.8089 284.315 40.1694 282.357Z" fill="white"/>
<path d="M60.5887 287.479C57.3911 286.022 55.7922 284.565 55.7922 283.109C55.7922 281.834 56.7287 280.286 58.6016 278.465C60.4288 276.644 61.8221 275.961 62.7814 276.417C64.2889 277.145 65.5222 279.285 66.4815 282.835C67.3952 286.25 67.4408 288.23 66.6186 288.776C65.7507 289.368 63.7407 288.936 60.5887 287.479Z" fill="white"/>
<path d="M71.3466 283.313C71.0268 280.946 71.8947 278.761 73.9504 276.758L77.1709 274.436C78.861 275.165 80.1858 277.35 81.1451 280.992C82.013 284.269 82.2186 286.181 81.7618 286.728L76.3486 286.591C73.1509 285.817 71.4836 284.725 71.3466 283.313Z" fill="white"/>
<path d="M98.2753 289.049C98.184 287.866 98.5951 286.591 99.5087 285.225C100.605 283.586 101.998 282.79 103.689 282.835C105.379 282.881 106.681 283.518 107.594 284.747C108.325 285.885 108.645 287.274 108.554 288.913C108.462 290.415 107.937 292.099 106.978 293.966C106.064 295.832 105.333 296.766 104.785 296.766C104.191 296.766 103.003 295.787 101.222 293.829C99.3488 291.781 98.3667 290.187 98.2753 289.049Z" fill="white"/>
<path d="M111.911 290.552C111.774 288.321 112.391 286.477 113.761 285.02C114.857 283.791 115.954 283.177 117.05 283.177C117.872 283.177 118.832 283.791 119.928 285.02C121.024 286.295 121.71 287.57 121.984 288.845C122.166 289.664 121.961 291.075 121.367 293.078C120.773 295.218 120.065 296.493 119.243 296.902C118.421 297.357 117.05 296.857 115.132 295.4C113.076 293.898 112.002 292.282 111.911 290.552Z" fill="white"/>
<path d="M125.41 290.142C124.131 288.776 124.245 286.705 125.752 283.928C127.26 281.151 128.744 279.967 130.206 280.377C131.577 280.832 132.901 282.744 134.18 286.113C135.368 289.345 135.665 291.417 135.071 292.327C134.523 293.147 133.107 293.329 130.823 292.873C128.493 292.373 126.689 291.462 125.41 290.142Z" fill="white"/>
<path d="M148.707 277.714C148.524 276.758 149.415 275.574 151.379 274.163C153.298 272.797 154.691 272.297 155.559 272.661C157.067 273.344 158.049 275.256 158.506 278.397C158.962 281.447 158.78 283.154 157.957 283.518C157.135 283.883 155.513 283.45 153.092 282.221C150.489 280.855 149.027 279.353 148.707 277.714Z" fill="white"/>
<path d="M167.276 282.357C164.49 281.401 162.868 280.309 162.411 279.08C162 278.033 162.708 276.53 164.535 274.573C166.363 272.661 167.687 271.887 168.51 272.251C170.108 272.934 171.228 274.687 171.867 277.509C172.415 279.967 172.461 281.652 172.004 282.562L167.276 282.357Z" fill="white"/>
<path d="M174.745 276.69C174.197 275.597 174.973 274.026 177.075 271.978C179.13 269.975 180.615 269.155 181.529 269.52C182.579 269.975 183.607 271.636 184.612 274.504C185.571 277.327 185.823 279.057 185.366 279.694L180.158 279.558C177.143 278.829 175.339 277.873 174.745 276.69Z" fill="white"/>
<path d="M252.448 287.206C251.809 286.568 252.311 284.929 253.956 282.289C255.6 279.603 256.993 278.283 258.135 278.329C259.643 278.42 261.333 280.058 263.206 283.245C264.987 286.25 265.673 288.025 265.262 288.571C264.759 289.209 262.818 289.414 259.437 289.186C255.92 288.958 253.59 288.298 252.448 287.206Z" fill="white"/>
<path d="M267.386 283.45C266.746 282.767 267.157 281.06 268.619 278.329C270.035 275.597 271.269 274.277 272.319 274.368C273.324 274.459 274.74 276.052 276.568 279.148C278.303 282.198 279.011 284.065 278.692 284.747C278.281 285.43 276.613 285.681 273.69 285.499C270.583 285.316 268.482 284.634 267.386 283.45Z" fill="white"/>
<path d="M278.829 277.168C278.098 276.257 278.326 274.527 279.514 271.978C280.656 269.52 281.57 268.336 282.255 268.427C283.442 268.564 284.904 270.066 286.64 272.934C288.33 275.756 288.97 277.532 288.559 278.26C288.239 279.034 286.8 279.33 284.242 279.148C281.547 278.966 279.742 278.306 278.829 277.168Z" fill="white"/>
<path d="M43.1158 278.465L46.1307 282.221C48.1407 284.998 49.2599 287.16 49.4883 288.708L44.6918 286.25C41.5398 284.474 40.0552 283.2 40.2379 282.426C40.4206 281.652 40.9688 280.764 41.8824 279.763L43.1158 278.465Z" fill="#DBDCDC"/>
<path d="M58.533 278.738L61.1368 281.948C62.9641 284.497 64.1746 286.796 64.7685 288.845C59.1497 286.887 56.2718 284.952 56.1348 283.04C56.0434 281.857 56.4089 280.787 57.2311 279.831L58.533 278.738Z" fill="#DBDCDC"/>
<path d="M80.0487 287.206C77.1251 286.568 75.0238 285.931 73.7448 285.294C72.283 284.611 71.4607 283.769 71.278 282.767C71.0953 281.902 71.278 280.901 71.8262 279.763L72.7169 278.329C73.9503 278.92 75.4578 280.377 77.2393 282.699C78.7468 284.702 79.6833 286.204 80.0487 287.206Z" fill="#DBDCDC"/>
<path d="M101.016 284.269L101.701 288.435C102.295 291.576 103.026 294.034 103.894 295.81L101.29 293.556C99.6001 291.69 98.8007 289.778 98.892 287.82C98.9834 286.455 99.326 285.453 99.9199 284.816C100.377 284.315 100.742 284.133 101.016 284.269Z" fill="#DBDCDC"/>
<path d="M113.35 286.455L115.954 290.688L119.38 296.971C118.101 296.561 116.822 295.969 115.543 295.195C112.985 293.647 111.797 291.986 111.98 290.21C112.162 288.48 112.436 287.342 112.802 286.796L113.35 286.455Z" fill="#DBDCDC"/>
<path d="M125.752 283.996L128.973 287.069C131.257 289.391 132.65 291.326 133.153 292.874L128.904 291.508C126.072 290.415 124.702 289.345 124.793 288.298L125.341 285.225L125.752 283.996Z" fill="#DBDCDC"/>
<path d="M150.968 274.641C151.379 274.914 152.247 275.939 153.572 277.714C155.216 279.945 156.13 281.743 156.313 283.109L151.379 280.787C150.1 280.013 149.438 279.034 149.392 277.851C149.346 276.986 149.598 276.189 150.146 275.461L150.968 274.641Z" fill="#DBDCDC"/>
<path d="M163.782 275.051L166.043 276.621C167.779 278.215 169.286 280.309 170.565 282.904L166.865 281.879C164.353 280.969 162.959 279.922 162.685 278.738C162.411 277.555 162.503 276.599 162.959 275.87L163.782 275.051Z" fill="#DBDCDC"/>
<path d="M176.664 272.319L179.473 274.368C181.483 276.143 182.853 277.987 183.584 279.899L179.679 279.353C176.938 278.67 175.316 277.646 174.814 276.28C174.539 275.643 174.654 274.846 175.156 273.89C175.613 272.979 176.115 272.456 176.664 272.319Z" fill="#DBDCDC"/>
<path d="M254.23 281.948C258.067 283.769 261.15 286.045 263.48 288.776L258.341 288.845C254.915 288.663 253.133 287.98 252.996 286.796C252.859 285.612 253.019 284.452 253.476 283.313L254.23 281.948Z" fill="#DBDCDC"/>
<path d="M268.551 279.011C269.327 279.239 270.629 279.922 272.456 281.06C274.923 282.562 276.453 283.996 277.047 285.362L272.251 285.157C269.007 284.793 267.363 284.087 267.317 283.04C267.226 282.039 267.409 281.06 267.865 280.104L268.551 279.011Z" fill="#DBDCDC"/>
<path d="M279.377 272.319L282.392 274.163C284.63 275.711 286.183 277.35 287.051 279.08L283.488 278.807C281.021 278.442 279.491 277.828 278.897 276.963C278.303 276.098 278.212 275.051 278.623 273.822L279.377 272.319Z" fill="#DBDCDC"/>
<path d="M251.146 287.615C250.781 286.295 251.512 284.178 253.339 281.265C255.166 278.306 256.742 276.803 258.067 276.758C259.392 276.712 261.242 278.442 263.617 281.948C265.947 285.362 266.952 287.684 266.632 288.913C266.358 290.005 263.8 290.347 258.958 289.937C254.115 289.527 251.512 288.754 251.146 287.615ZM255.6 282.289C254.458 284.11 254.001 285.43 254.23 286.25C254.686 286.887 256.308 287.411 259.095 287.82C261.79 288.23 263.252 288.207 263.48 287.752C263.708 287.251 263.092 285.794 261.63 283.382C260.077 280.923 258.866 279.671 257.998 279.626C257.496 279.58 256.696 280.468 255.6 282.289Z" fill="#0D131A"/>
<path d="M277.253 284.201C277.527 283.791 276.933 282.335 275.471 279.831C274.055 277.327 272.982 276.007 272.251 275.87C271.703 275.825 270.926 276.781 269.921 278.738C268.87 280.696 268.436 282.061 268.619 282.835C268.756 283.518 270.195 284.019 272.936 284.338L277.253 284.201ZM272.593 272.797C274.055 272.979 275.791 275.005 277.801 278.875C279.72 282.562 280.473 284.838 280.062 285.703C279.651 286.614 277.481 286.887 273.553 286.523C269.533 286.113 267.112 285.339 266.289 284.201C265.558 283.2 266.038 281.037 267.728 277.714C269.418 274.254 271.04 272.615 272.593 272.797Z" fill="#0D131A"/>
<path d="M280.405 272.729C279.72 274.277 279.583 275.552 279.994 276.553C280.176 277.099 281.387 277.532 283.625 277.851L287.257 277.646C287.531 277.19 287.051 275.87 285.818 273.685C284.585 271.363 283.511 270.225 282.597 270.271C281.821 270.362 281.09 271.181 280.405 272.729ZM278.897 271.022C280.313 268.427 281.524 267.13 282.529 267.13C284.219 267.13 286.001 269.019 287.874 272.797C289.701 276.439 290.34 278.716 289.792 279.626L283.694 279.831C279.948 279.376 277.915 278.738 277.595 277.919C276.91 276.143 277.344 273.844 278.897 271.022Z" fill="#0D131A"/>
<path d="M119.243 285.977C118.466 285.066 117.713 284.656 116.982 284.748C115.931 284.793 114.995 285.453 114.172 286.728C113.35 287.957 113.007 289.141 113.144 290.279C113.281 291.326 114.172 292.509 115.817 293.83C117.416 295.059 118.489 295.559 119.037 295.332C119.403 295.195 119.791 294.535 120.202 293.352C120.75 291.986 120.933 290.711 120.75 289.528C120.613 288.116 120.111 286.933 119.243 285.977ZM112.117 285.089C113.67 282.813 115.36 281.743 117.187 281.88C118.512 281.971 119.7 282.653 120.75 283.928C121.801 285.203 122.463 286.773 122.737 288.64C123.057 290.461 122.92 292.441 122.326 294.581C121.732 296.675 121.002 297.881 120.134 298.2C119.037 298.61 117.279 298.018 114.857 296.424C112.254 294.649 110.769 292.714 110.404 290.62C110.129 289.027 110.701 287.183 112.117 285.089Z" fill="#0D131A"/>
<path d="M106.155 285.84C105.561 285.021 104.899 284.565 104.168 284.474C103.3 284.383 102.387 284.747 101.427 285.567C100.422 286.386 99.9199 287.274 99.9199 288.23C99.9656 289.414 100.628 290.825 101.907 292.464C103.049 294.012 103.894 294.785 104.442 294.785C104.945 294.74 105.493 294.08 106.087 292.805C106.726 291.53 107.069 290.256 107.115 288.981C107.16 287.798 106.841 286.75 106.155 285.84ZM99.0976 283.587C100.788 282.084 102.547 281.447 104.374 281.675C105.881 281.857 107.183 282.676 108.279 284.133C109.33 285.59 109.81 287.206 109.718 288.981C109.673 290.438 109.102 292.304 108.005 294.581C106.818 296.948 105.79 298.177 104.922 298.268C103.917 298.405 102.341 297.244 100.194 294.785C97.9099 292.236 96.7222 290.074 96.6309 288.298C96.5395 286.614 97.3618 285.043 99.0976 283.587Z" fill="#0D131A"/>
<path d="M132.536 284.474C131.485 283.018 130.526 282.289 129.658 282.289C128.79 282.198 127.922 282.835 127.054 284.201C126.141 285.612 125.798 286.933 126.026 288.162C126.255 289.254 127.534 290.21 129.864 291.03C132.102 291.758 133.404 291.963 133.769 291.644C134.089 291.371 134.158 290.415 133.975 288.776C133.792 287.001 133.313 285.567 132.536 284.474ZM130.138 279.285C132.376 279.603 134.135 281.948 135.414 286.318C136.602 290.415 136.83 292.874 136.099 293.693L129.658 293.283C125.821 292.236 123.742 290.87 123.423 289.186C123.057 287.32 123.583 285.18 124.999 282.767C126.552 280.172 128.265 279.011 130.138 279.285Z" fill="#0D131A"/>
<path d="M82.3784 280.446C83.5205 284.816 83.6347 287.274 82.721 287.82C81.5333 288.503 79.2036 288.367 75.7319 287.411C72.1231 286.409 70.1131 285.203 69.702 283.792C69.1538 282.107 69.7934 279.945 71.6206 277.304C73.4935 274.573 75.3664 273.276 77.2394 273.412C79.432 273.549 81.1451 275.893 82.3784 280.446ZM72.5799 282.699C72.717 283.655 73.9732 284.52 76.3486 285.294C78.6326 286.022 80.0259 286.159 80.5284 285.704C80.8938 285.385 80.6883 283.86 79.9117 281.128C79.0894 278.215 78.1301 276.667 77.0338 276.485C76.1202 276.348 75.1152 276.963 74.0189 278.329C72.7855 279.785 72.3058 281.242 72.5799 282.699Z" fill="#0D131A"/>
<path d="M57.4367 283.109C57.4367 284.156 58.6929 285.248 61.2053 286.386C63.6721 287.479 65.0882 287.775 65.4536 287.274C65.8648 286.773 65.7506 285.294 65.111 282.835C64.4258 280.195 63.5351 278.761 62.4387 278.533C61.3881 278.306 60.2917 278.784 59.1497 279.967C58.099 281.06 57.528 282.062 57.4367 282.972V283.109ZM57.3681 277.714C59.3324 275.893 61.0683 275.119 62.5758 275.392C64.8598 275.802 66.5043 278.192 67.5093 282.562C68.4686 286.705 68.4914 289.163 67.5778 289.937C66.7099 290.757 64.2888 290.301 60.3146 288.572C56.1576 286.842 54.1705 284.884 54.3532 282.699C54.4903 281.151 55.4952 279.489 57.3681 277.714Z" fill="#0D131A"/>
<path d="M176.115 275.734C176.252 276.644 177.577 277.509 180.09 278.329C182.511 279.102 183.881 279.285 184.201 278.875C184.521 278.465 184.315 277.054 183.584 274.641C182.808 272.092 181.963 270.772 181.049 270.68C180.272 270.589 179.222 271.181 177.897 272.456C176.572 273.776 175.978 274.869 176.115 275.734ZM176.184 271.158C178.559 268.882 180.432 267.972 181.803 268.427C183.539 269.064 184.955 271.227 186.051 274.914C187.102 278.42 187.284 280.491 186.599 281.128C185.914 281.72 183.676 281.515 179.884 280.514C176.001 279.467 173.831 278.306 173.375 277.031C172.826 275.438 173.763 273.48 176.184 271.158Z" fill="#0D131A"/>
<path d="M167.413 281.196C169.423 281.879 170.588 282.061 170.908 281.743C171.228 281.424 171.159 280.127 170.702 277.85C170.2 275.438 169.492 274.117 168.578 273.89C167.664 273.662 166.591 274.163 165.358 275.392C164.124 276.667 163.622 277.782 163.85 278.738C164.124 279.694 165.312 280.514 167.413 281.196ZM169.126 271.363C170.634 271.727 171.89 273.708 172.895 277.304C173.809 280.809 173.9 283.108 173.169 284.201C172.712 284.884 170.679 284.588 167.071 283.313C163.325 281.993 161.315 280.605 161.041 279.148C160.721 277.691 161.589 275.938 163.645 273.89C165.746 271.796 167.573 270.954 169.126 271.363Z" fill="#0D131A"/>
<path d="M153.572 281.06C155.582 282.153 156.792 282.562 157.204 282.289C157.569 282.062 157.615 280.741 157.341 278.329C157.021 275.779 156.381 274.345 155.422 274.027C154.508 273.708 153.412 274.027 152.133 274.983C150.9 275.893 150.306 276.804 150.351 277.714C150.397 278.807 151.471 279.922 153.572 281.06ZM156.176 271.5C158.094 271.91 159.236 274.163 159.602 278.26C159.922 282.13 159.693 284.338 158.917 284.884C158.049 285.43 155.902 284.793 152.476 282.972C149.004 281.06 147.199 279.398 147.062 277.987C146.925 276.667 147.908 275.165 150.009 273.48C152.247 271.75 154.303 271.09 156.176 271.5Z" fill="#0D131A"/>
<path d="M45.5826 285.362C48.0037 286.591 49.3969 286.978 49.7624 286.523C50.1735 286.068 50.105 284.634 49.5568 282.221C48.963 279.717 48.2549 278.351 47.4327 278.124C46.4734 277.805 45.3085 278.169 43.9381 279.216C42.5677 280.263 41.8824 281.288 41.8824 282.289C41.9281 283.063 43.1615 284.087 45.5826 285.362ZM48.0494 275.051C50.0136 275.46 51.4069 277.85 52.2291 282.221C53.0057 286.409 52.9829 288.753 52.1606 289.254C50.7445 290.21 48.1864 289.709 44.4862 287.752C40.8318 285.84 38.936 284.133 38.799 282.631C38.6163 280.901 39.6898 279.102 42.0195 277.236C44.3035 275.415 46.3135 274.687 48.0494 275.051Z" fill="#0D131A"/>
</g>
<defs>
<radialGradient id="paint0_radial_860_306" cx="0" cy="0" r="1" gradientUnits="userSpaceOnUse" gradientTransform="translate(150 150) rotate(90) scale(200)">
<stop stop-color="#00FFE5"/>
<stop offset="0.56" stop-color="#00A897"/>
<stop offset="1" stop-color="#006359"/>
</radialGradient>
<clipPath id="clip0_860_306">
<rect width="300" height="300" fill="white"/>
</clipPath>
</defs>
</svg>
