<svg xmlns="http://www.w3.org/2000/svg" fill="none" viewBox="0 0 300 300"><g clip-path="url(#a)"><path fill="#fff" d="M0 0h300v300H0z"/><path fill="url(#b)" fill-opacity=".75" d="M-50-50h400v400H-50z"/><path fill="#68AE28" d="M200.852 64.867 41.266 187.986c-1.645.182-4.089-.228-7.332-1.229-4.066-1.275-7.926-3.164-11.58-5.668-10.415-7.102-16.72-17.299-18.912-30.592-2.147-12.747-.183-26.427 5.893-41.04 2.01-4.825 4.476-9.81 7.4-14.954l5.345-8.946c4.34-7.693 7.925-15.296 10.758-22.807 4.705-12.565 5.984-21.852 3.837-27.861l2.192.273c1.645.319 2.97.91 3.975 1.776-.137-1.457-.526-3.164-1.165-5.122-1.325-4.006-3.22-7.375-5.687-10.106l7.4-1.025c6.258.046 12.608 1.821 19.049 5.327l-.48-3.756c-.183-2.55.069-3.96.754-4.234 1.05-.41 2.558.592 4.522 3.005.046-2.003.48-4.28 1.302-6.829 1.599-5.007 4.294-8.786 8.086-11.335L80.39 9.76c3.518 4.962 7.812 8.399 12.882 10.31 4.431 1.73 14.481 3.051 30.15 3.961 15.166.91 25.855 2.777 32.068 5.6l6.578.546c5.344.683 10.278 1.935 14.8 3.756 14.572 5.873 22.566 16.184 23.983 30.934Z"/><path fill="#56931F" d="M8.17 163.881c-10.324-19.393-7.857-41.677 7.4-66.852-7.72 20.35-5.116 36.624 7.812 48.825 5.618 5.281 12.699 9.15 21.241 11.608 8.36 2.368 17.222 3.142 26.586 2.322l-31.93 28.749c-4.66-.41-9.845-2.664-15.555-6.761-6.532-4.78-11.717-10.743-15.554-17.891Z"/><path fill="#7CBEB3" d="M263.48 55.853c4.066 1.775 7.606 7.807 10.621 18.096 2.695 9.332 3.609 15.933 2.741 19.803 5.39 6.237 10.643 18.414 15.76 36.533 5.801 20.303 6.783 35.076 2.946 44.317-1.233 2.959-4.842 6.988-10.826 12.087-6.213 5.372-12.357 9.514-18.433 12.428l3.084 4.985c2.467 4.37 4.682 9.082 6.646 14.135 6.259 16.298 8.862 33.187 7.812 50.668-.32 5.554-4.934 10.107-13.841 13.657-8.725 3.415-18.022 4.553-27.889 3.415-3.334-.456-7.742-4.348-13.224-11.677-6.258-8.513-9.981-17.345-11.169-26.495-8.36 4.825-15.417 8.08-21.173 9.765l-1.782 3.004a39.093 39.093 0 0 1-5.481 6.829c-6.624 6.738-14.458 10.493-23.503 11.267-8.999.774-15.989.068-20.968-2.117-1.553-.683-2.832-1.479-3.837-2.39l-.959-1.161-54.749 1.844-5.618 4.917c-5.025 3.323-10.827 5.076-17.405 5.258-8.999.273-16.08-.547-21.241-2.459-6.487-2.458-11.1-6.942-13.842-13.452-3.974-9.378-6.075-20.122-6.304-32.231-.32-15.751 3.22-28.634 10.621-38.65 7.126-9.651 16.422-19.484 27.888-29.499 3.198-2.777 11.9-9.833 26.107-21.169 7.263-5.736 13.727-11.29 19.391-16.662 5.756-5.463 9.251-9.378 10.484-11.745a347.157 347.157 0 0 1 5.208-27.587c4.339-18.665 8.542-28.635 12.608-29.91 4.065-1.229 10.049.069 17.952 3.893 3.929 1.957 7.446 4.006 10.553 6.145l4.659-1.638c4.111-1.23 8.611-2.277 13.499-3.142 15.622-2.686 32.205-2.845 49.746-.478 2.65-2.822 8.497-5.554 17.541-8.194 8.725-2.55 14.184-3.346 16.377-2.39Z"/><path fill="#68A198" d="m275.882 83.03 1.371 10.721-7.058-10.447c.731-3.05 1.051-7.17.959-12.36l-.411-6.829c2.102 4.507 3.815 10.812 5.139 18.915ZM118.969 95.117c3.7-16.935 7.332-26.722 10.895-29.363a250.231 250.231 0 0 0-.891 29.158c.183 5.645.776 14.25 1.781 25.813.594 6.874-.114 12.974-2.124 18.3-1.781 4.644-4.111 7.808-6.989 9.492-2.832 1.639-5.162 1.275-6.989-1.093-1.964-2.594-2.627-7.056-1.987-13.384 1.279-12.61 3.38-25.584 6.304-38.923ZM242.65 268.7c3.517 6.556 7.72 10.653 12.607 12.292l-2.603 5.189c-6.898 1.366-12.997-.432-18.295-5.394-6.35-6.055-11.969-17.049-16.857-32.982-7.902 4.78-16.673 8.353-26.312 10.721-9.501 2.367-20.922 3.801-34.26 4.302-2.102.682-3.632 2.139-4.591 4.37-.96 2.139-.983 4.074-.069 5.804l-3.837 4.507-8.223-4.985c.229-1.548 1.508-6.168 3.838-13.862 2.284-7.375 3.723-13.771 4.316-19.188 1.736-16.207-2.786-30.866-13.567-43.976 9.593 9.605 26.404 15.637 50.432 18.095 25.672 2.595 47.485.273 65.438-6.965-5.756 3.688-9.868 9.424-12.334 17.208-2.193 7.011-2.855 14.773-1.987 23.286.868 8.194 2.969 15.387 6.304 21.578ZM20.161 229.504c1.964 15.979 10.735 26.245 26.312 30.797 5.985 1.73 12.288 2.367 18.912 1.912 6.03-.41 10.986-1.593 14.87-3.551l5.001 16.799c-3.563 3.459-8.36 6.168-14.39 8.126-12.059 3.915-24.187 2.208-36.384-5.122-5.893-3.551-10.118-12.564-12.676-27.041a132.42 132.42 0 0 1-1.645-14.818c-.228-4.188-.228-6.556 0-7.102Z"/><path fill="#fff" d="M166.865 118.198c1.782-.319 3.677-.023 5.687.888-6.897 5.281-10.506 13.384-10.826 24.31-.32 9.969 1.964 19.325 6.852 28.065-9.593-1.047-16.354-3.232-20.282-6.555-1.142-1.002-1.622-3.801-1.439-8.399.183-4.78 1.028-9.788 2.535-15.023 3.929-13.931 9.753-21.693 17.473-23.286Z"/><path fill="#D60040" d="M190.573 144.215c2.147 5.736 3.472 10.903 3.975 15.501.548 4.916 0 8.194-1.645 9.833-1.096 1.092-4.043 1.844-8.839 2.253-4.888.364-10.05.251-15.486-.341-4.888-8.741-7.172-18.096-6.852-28.066.32-10.925 3.929-19.029 10.826-24.31 6.807 3.142 12.814 11.518 18.021 25.13ZM270.812 114.784c5.71 4.643 9.113 11.586 10.209 20.827.686 5.781.412 13.907-.822 24.378-2.01.774-3.951 1.297-5.824 1.571-1.919.318-3.358.318-4.317 0-2.695-.865-4.043-7.739-4.043-20.623-.045-13.156 1.553-21.874 4.797-26.153Z"/><path fill="#fff" d="M270.812 114.784c.822-1.139 1.69-1.799 2.604-1.981 4.431-.956 8.725 4.439 12.882 16.184 4.065 11.654 4.865 19.985 2.398 24.993-1.142 2.367-3.974 4.37-8.497 6.009 1.234-10.471 1.508-18.597.822-24.378-1.096-9.242-4.499-16.184-10.209-20.827Z"/><path fill="#006359" d="M230.59 107.818c-1.325.501-4.774-.887-10.347-4.165-5.847-3.369-8.656-6.123-8.428-8.263.32-2.822 5.048-6.715 14.184-11.677 9.273-5.007 15.44-6.851 18.501-5.53 1.964.819.936 5.644-3.084 14.476-4.065 8.877-7.674 13.93-10.826 15.159ZM200.098 113.691c-.137-.592.548-1.707 2.056-3.346 1.553-1.684 2.946-2.686 4.179-3.005l1.508 2.117c1.279 2.14 2.558 5.144 3.837 9.014l-.891 2.117c-.868 1.548-1.941 2.617-3.22 3.209l-3.289-3.141c-2.284-2.504-3.678-4.825-4.18-6.965ZM253.065 128.577c1.416 8.058 1.53 12.565.342 13.521-1.05.865-4.248.523-9.593-1.024-5.39-1.548-8.451-3.051-9.181-4.507.228-3.369 1.964-7.58 5.207-12.633 3.335-5.053 6.03-7.58 8.086-7.58 2.01 0 3.723 4.074 5.139 12.223ZM257.176 247.327c-.183-2.595 1.416-6.305 4.797-11.131 3.289-4.734 5.664-7.011 7.126-6.828 2.192.227 3.7 4.802 4.522 13.725.777 8.968.069 13.817-2.124 14.545-2.421.819-5.322.364-8.702-1.366-3.883-2.048-5.756-5.03-5.619-8.945ZM39.964 208.95l11.306.478c5.07 1.002 7.994 2.117 8.77 3.346 1.28 2.049.434 6.374-2.535 12.975-2.923 6.555-5.39 9.924-7.4 10.106-1.736.136-5.253-1.593-10.552-5.19-5.345-3.596-7.994-6.1-7.949-7.511.046-1.821.937-4.416 2.672-7.785 1.92-3.778 3.815-5.918 5.688-6.419ZM105.127 150.429c1.188 2.049-.73 7.739-5.755 17.071-5.025 9.333-8.885 14.295-11.58 14.887-2.467.592-6.487-.478-12.06-3.21-5.253-2.503-8.748-4.802-10.484-6.896-.548-.683-.183-2.686 1.096-6.01l2.056-4.848 9.182-7.238c6.213-4.871 9.684-7.398 10.415-7.58l8.565.751c5.025.865 7.88 1.889 8.565 3.073Z"/><path fill="#fff" d="M174.677 125.982c1.461 0 2.74 1.434 3.837 4.302 1.096 3.051 1.621 6.852 1.576 11.404-.092 4.325-.686 7.739-1.782 10.243-1.005 2.276-2.238 3.414-3.7 3.414-1.37 0-2.558-1.229-3.563-3.687-1.096-2.595-1.69-5.873-1.782-9.833-.182-4.78.32-8.673 1.508-11.677 1.05-2.777 2.352-4.166 3.906-4.166ZM267.591 127.485l1.371-6.146c.548-.729 1.073-1.07 1.576-1.024.822.045 1.599.933 2.329 2.663 1.051 2.321 1.622 5.599 1.713 9.833.046 4.006-.319 7.124-1.096 9.355-.731 2.003-1.644 3.005-2.741 3.005-.685 0-1.37-.501-2.055-1.503-.731-1.092-1.234-2.526-1.508-4.302-.548-3.141-.411-7.101.411-11.881Z"/><path fill="#0D131A" d="M238.401 69.578a163.497 163.497 0 0 0-38.029-2.8c-13.796.547-26.472 2.777-38.029 6.692-.411.137-.982-.318-1.713-1.365-.777-1.047-.96-1.662-.549-1.844 13.111-4.416 27.318-6.783 42.621-7.102 13.43-.318 25.695.934 36.796 3.756 5.664 1.457 8.359 2.527 8.085 3.21l-9.182-.547ZM275.403 88.63c9.273 13.384 16.034 28.908 20.282 46.571 3.7 15.387 4.614 27.292 2.741 35.714-2.056 9.332-12.288 18.892-30.698 28.68-18.272 9.742-35.928 15.137-52.967 16.184-18.226 1.092-35.379-.41-51.459-4.507-16.08-4.097-26.449-9.629-31.109-16.594-1.507-2.276-1.987-3.664-1.439-4.165.594-.501 1.942.387 4.043 2.663 6.167 6.738 17.153 11.882 32.959 15.433 15.029 3.368 30.72 4.552 47.074 3.55 17.085-1.047 34.329-6.396 51.733-16.047 16.72-9.287 25.993-18.073 27.82-26.358 1.919-8.604 1.119-20.213-2.398-34.826-3.929-16.343-10.21-31.047-18.844-44.113-3.563-5.417-4.956-8.422-4.179-9.013.731-.592 2.878 1.684 6.441 6.828ZM116.639 119.905c-3.015 5.645-9.113 12.36-18.295 20.144-5.482 4.598-14.71 11.882-27.683 21.852-11.831 9.378-20.967 17.64-27.408 24.788-8.862 9.833-14.755 19.507-17.679 29.021-3.517 11.427-3.7 24.265-.548 38.514 2.924 13.429 7.08 21.714 12.471 24.856 5.801 3.368 13.613 4.848 23.434 4.438 10.141-.41 17.153-2.777 21.036-7.102 5.984-6.692 8.314-17.526 6.99-32.504-1.371-15.296-6.03-27.496-13.979-36.601-3.106-3.596-4.43-5.781-3.974-6.555.457-.774 2.398.66 5.824 4.302 10.004 10.698 15.577 23.786 16.72 39.264 1.05 14.704-2.033 26.085-9.251 34.143-4.34 4.871-12.151 7.603-23.434 8.194-10.918.592-19.575-.978-25.97-4.711-6.486-3.779-11.237-12.702-14.252-26.768-3.06-14.477-2.764-27.861.89-40.153 2.787-9.286 8.292-18.596 16.514-27.929 5.984-6.828 14.64-14.818 25.97-23.968l28.093-22.671c10.142-8.695 17.702-16.684 22.681-23.968.228-.319.639.068 1.233 1.161.64 1.138.845 1.889.617 2.253Z"/><path fill="#0D131A" d="M133.427 59.608c2.832-.91 7.606 0 14.321 2.732 6.76 2.777 12.311 6.168 16.65 10.175 3.426 3.186 4.751 4.984 3.975 5.394-.731.455-2.833-.66-6.304-3.346-4.477-3.369-9.662-6.214-15.555-8.536-5.756-2.321-9.616-3.14-11.58-2.458-3.197 1.047-6.898 9.128-11.1 24.242-4.431 15.979-7.309 32.731-8.634 50.258-.365 5.053-1.005 7.375-1.919 6.965-.959-.409-1.347-2.799-1.164-7.17.593-15.159 2.877-31.024 6.852-47.595 4.522-18.756 9.341-28.976 14.458-30.66ZM227.369 65.481c3.975-3.005 10.073-5.873 18.295-8.604 9.274-3.096 15.715-3.824 19.323-2.185 3.564 1.593 6.807 6.942 9.73 16.047 2.696 8.467 4.203 16.98 4.523 25.539 0 .41-.571-.023-1.713-1.297-1.188-1.275-1.782-2.14-1.782-2.595-.274-6.92-1.873-14.204-4.796-21.852-2.787-7.284-5.368-11.472-7.743-12.565-2.238-1.001-7.355-.364-15.349 1.913-8.085 2.276-13.841 4.711-17.267 7.306-.32.273-1.028.137-2.124-.41-1.051-.591-1.416-1.024-1.097-1.297Z"/><path fill="#0D131A" d="M229.905 105.906c2.238-.045 5.367-4.302 9.387-12.77 3.974-8.33 5.459-12.746 4.454-13.247-2.239-1.138-7.789.524-16.651 4.985-8.908 4.462-13.384 7.899-13.43 10.311-.046 1.503 1.919 3.62 5.893 6.351 4.065 2.731 7.514 4.188 10.347 4.37Zm-5.482-22.876c9.73-5.235 16.673-7.465 20.83-6.692 1.416.274 1.828 2.14 1.234 5.6-.548 3.187-1.782 6.92-3.7 11.199-4.797 10.652-9.091 15.888-12.882 15.706-3.015-.183-7.035-1.912-12.06-5.19-5.253-3.414-7.88-6.305-7.88-8.672 0-2.777 4.819-6.76 14.458-11.95ZM210.307 118.881c.138-.364-.365-2.049-1.507-5.053-1.142-3.05-1.964-4.598-2.467-4.644-.411-.045-1.324.569-2.741 1.844-1.416 1.275-2.124 2.231-2.124 2.868.046.592 1.005 2.14 2.878 4.644 1.873 2.412 2.969 3.619 3.289 3.619.274 0 .754-.456 1.439-1.366l1.233-1.912Zm.138-7.17c1.416 3.369 2.147 5.668 2.192 6.897.046 1.001-.685 2.367-2.192 4.097-1.554 1.775-2.718 2.481-3.495 2.117-.914-.41-2.49-2.094-4.728-5.053-2.421-3.141-3.54-5.304-3.358-6.487.183-1.23 1.257-2.777 3.221-4.644 1.964-1.775 3.449-2.64 4.454-2.595 1.05.091 2.352 1.981 3.906 5.668ZM247.446 118.335c-1.416-.091-3.746 2.572-6.989 7.989-3.152 5.372-4.545 8.581-4.18 9.628.365.956 2.946 2.117 7.743 3.483 4.842 1.366 7.606 1.73 8.291 1.093 1.051-1.002.845-4.94-.617-11.814-1.461-6.828-2.878-10.288-4.248-10.379Zm-9.319 5.736c3.974-6.829 7.103-10.129 9.388-9.902 2.877.273 5.184 5.008 6.92 14.204 1.69 9.15 1.553 14.203-.411 15.159-1.69.865-5.413.342-11.169-1.57-5.664-1.867-8.771-3.46-9.319-4.78-.868-1.958.663-6.328 4.591-13.111ZM151.037 131.924c5.344-10.79 11.077-15.843 17.199-15.16 8.633 1.002 16.056 8.263 22.269 21.783 2.604 5.736 4.317 11.404 5.139 17.004.868 5.827.571 10.47-.891 13.93-.776 1.912-3.7 3.187-8.77 3.824-4.66.546-10.073.501-16.24-.137-6.213-.637-11.512-1.752-15.897-3.346-4.842-1.684-7.469-3.619-7.88-5.804-2.056-10.379-.365-21.078 5.071-32.094Zm32.205.956c-4.797-8.104-9.913-12.451-15.349-13.043-2.147-.228-4.477.956-6.989 3.551-3.792 3.915-6.852 9.56-9.182 16.935-2.467 8.012-3.198 15.683-2.193 23.012.366 2.823 7.195 4.962 20.488 6.419 13.293 1.502 20.511.933 21.653-1.707 1.187-2.868.982-7.876-.617-15.023-1.69-7.466-4.294-14.181-7.811-20.144ZM284.173 127.417c-3.426-8.468-6.875-12.702-10.346-12.702-3.061 0-4.934 7.216-5.619 21.647-.685 14.34.183 22.216 2.604 23.627 1.599.91 4.613.41 9.045-1.502 4.431-1.912 6.829-3.711 7.194-5.395 1.782-8.058.822-16.616-2.878-25.675Zm-19.186 7.784c.777-15.751 3.723-23.627 8.84-23.627 4.431 0 8.725 4.712 12.882 14.135 4.339 9.925 5.55 19.189 3.631 27.793-.685 2.913-4.065 5.508-10.141 7.784-5.893 2.231-9.639 2.664-11.237 1.298-1.508-1.229-2.627-4.598-3.358-10.106-.731-5.281-.936-11.04-.617-17.277ZM87.243 145.308l11.992.751c4.659.819 7.331 1.889 8.017 3.209 1.233 2.504-1.005 8.923-6.715 19.257-5.71 10.425-10.073 15.637-13.088 15.637-2.878 0-7.583-1.434-14.115-4.302-6.898-3.004-10.347-5.463-10.347-7.375 0-1.092.502-2.731 1.507-4.916l3.29-6.419c.228-.364.844-.592 1.85-.683 1.05-.045 1.461.114 1.233.478-1.234 2.276-2.216 4.484-2.947 6.624-.64 1.866-.959 3.209-.959 4.029.183 1.229 3.13 3.118 8.84 5.667 5.573 2.504 9.433 3.779 11.58 3.824 2.01-.637 5.299-5.28 9.867-13.93 4.568-8.649 6.532-13.93 5.892-15.842-.365-.774-2.329-1.503-5.892-2.185l-10.621-.752c-.457.046-.571-.455-.343-1.502.229-1.001.548-1.525.96-1.57ZM40.58 210.179c-1.416.683-3.037 2.572-4.864 5.668-1.828 3.05-2.673 5.167-2.536 6.35.183 1.229 2.604 3.483 7.264 6.761 4.659 3.277 7.674 4.825 9.044 4.643 1.37-.182 3.495-3.323 6.373-9.423 2.878-6.101 3.951-9.538 3.22-10.312-.822-.819-3.814-1.775-8.976-2.868-5.253-1.092-8.428-1.365-9.524-.819Zm-7.605 3.892c2.147-3.551 4.18-5.827 6.098-6.828l11.854.546c6.578 1.229 10.416 2.709 11.512 4.439 1.005 1.593-.137 6.054-3.426 13.384-3.29 7.283-5.984 11.312-8.086 12.086-1.599.638-5.367-1.115-11.306-5.258-6.03-4.188-9.204-7.466-9.524-9.833-.229-2.049.73-4.894 2.878-8.536ZM258.683 247.19v.068c.092 3.779 1.942 6.533 5.551 8.263 3.243 1.548 5.436 1.798 6.578.751 1.187-1.092 1.599-5.235 1.233-12.428-.365-7.329-1.439-11.404-3.22-12.223-.96-.41-2.901 1.639-5.825 6.146-2.878 4.507-4.317 7.648-4.317 9.423Zm1.988-11.745c3.517-5.599 6.235-8.376 8.154-8.331 3.106.046 5.047 4.985 5.824 14.818.776 9.651.137 15.228-1.919 16.73-1.69 1.275-4.773 1.047-9.25-.683-5.116-2.003-7.743-5.349-7.88-10.038-.046-2.822 1.645-6.988 5.071-12.496Z"/><path fill="#0D131A" d="M290.751 167.705c-.045 1.775-.296 3.232-.753 4.37l-1.371 2.254c-2.238 2.64-7.583 5.963-16.034 9.97-8.725 4.142-16.285 6.851-22.68 8.126-11.649 2.367-29.533 2.572-53.652.614-24.12-1.912-39.354-4.78-45.704-8.604-1.051-.683-2.01-1.798-2.878-3.346a15.343 15.343 0 0 1-1.713-4.37c-.685-2.868-.731-4.484-.137-4.849.594-.364 1.53.957 2.809 3.961.777 1.776 1.599 3.141 2.467 4.097l2.741 2.049c5.116 2.777 18.798 5.235 41.044 7.375 24.074 2.321 42.209 2.253 54.406-.205 5.482-1.138 11.991-3.346 19.529-6.624 6.989-3.05 12.219-5.827 15.691-8.331 1.279-.956 2.216-1.935 2.809-2.936.64-1.047 1.051-2.322 1.234-3.824.32-2.732.776-4.006 1.37-3.824.594.228.868 1.593.822 4.097ZM186.873 111.642c1.599 1.457 3.152 3.233 4.66 5.327 1.599 2.185 2.741 4.165 3.426 5.941 1.005 2.549 1.05 3.983.137 4.302-.959.273-2.033-.729-3.221-3.005a48.182 48.182 0 0 0-7.194-10.516c-2.65-3.05-3.701-4.826-3.152-5.326.594-.501 2.375.591 5.344 3.277ZM264.097 112.121c-.868 2.503-1.416 5.189-1.645 8.057-.183 2.504-.754 3.733-1.713 3.688-.959 0-1.37-1.229-1.233-3.688.137-3.004.913-5.963 2.329-8.877 1.28-2.595 2.216-3.824 2.81-3.687.548.182.365 1.684-.548 4.507Z"/><path fill="#0D131A" d="M234.016 183.684c-1.005-.501-1.804-1.138-2.398-1.912-.594-.728-.8-1.252-.617-1.57l2.124.068c1.325.273 2.307.706 2.947 1.297.822.82.982 1.525.479 2.117-.502.592-1.347.592-2.535 0ZM257.382 180.27c-.96 1.183-1.828 1.593-2.604 1.229-.777-.364-.822-1.115-.137-2.253.502-.82 1.302-1.548 2.398-2.186 1.005-.637 1.644-.842 1.919-.614.182.182.137.66-.137 1.434l-1.439 2.39ZM175.019 119.427c.411.137.594.797.548 1.98-.045 1.184-.251 1.662-.616 1.434-2.33-1.456-4.523-.341-6.578 3.346-1.919 3.369-3.244 8.035-3.975 13.999-.776 6.146-.685 11.882.274 17.208 1.142 6.055 3.267 10.379 6.373 12.974.365.273.137.683-.685 1.229-.823.501-1.416.615-1.782.342-3.746-2.777-6.327-7.375-7.743-13.794-1.233-5.781-1.37-11.973-.411-18.574.959-6.51 2.718-11.699 5.276-15.569 2.787-4.143 5.893-5.668 9.319-4.575ZM269.647 115.33c1.599-1.229 3.449-.706 5.55 1.571 2.101 2.23 3.906 5.554 5.413 9.969 3.746 11.063 3.906 21.943.48 32.641-.137.41-.662.706-1.576.888-.914.136-1.325 0-1.233-.41 2.786-8.649 2.877-18.46.274-29.431-1.051-4.416-2.353-7.899-3.906-10.448-1.553-2.595-2.969-3.551-4.248-2.868-.366.228-.663.023-.891-.614-.229-.592-.183-1.025.137-1.298ZM264.576 200.141c-.228-.364.252-.91 1.439-1.639 1.142-.774 1.805-.978 1.987-.614 12.974 20.895 18.752 45.273 17.336 73.134-.137 2.595-2.124 5.281-5.961 8.058-3.655 2.64-8.177 4.848-13.567 6.623-13.065 4.28-22.886 4.12-29.464-.478-4.34-3.05-8.84-8.877-13.499-17.481-4.477-8.24-6.761-14.499-6.852-18.778 0-.41.639-.865 1.918-1.366l1.85-.205c.092 4.234 2.216 10.22 6.373 17.959 4.431 8.24 8.885 13.931 13.362 17.072 5.71 3.96 14.32 4.074 25.832.341 4.659-1.502 8.588-3.369 11.786-5.599 3.334-2.276 5.047-4.371 5.139-6.283 1.325-26.039-4.568-49.621-17.679-70.744Z"/><path fill="#0D131A" d="M226.273 243.435c-11.831 9.241-25.947 15.5-42.346 18.778-15.212 3.005-28.802 2.845-40.77-.478-.411-.136-.48-.842-.206-2.117.229-1.229.548-1.798.959-1.707 11.74 3.278 24.874 3.483 39.4.615 14.755-2.914 28.14-8.445 40.154-16.594 4.568-3.095 7.103-4.325 7.605-3.687.457.592-1.142 2.321-4.796 5.19Z"/><path fill="#0D131A" d="M194.274 257.228c.228-.364 1.279-.683 3.152-.956l2.466.205a60.396 60.396 0 0 1-13.224 15.228c-6.03 4.962-11.946 7.807-17.747 8.536l-20.557-.615c-5.39-1.32-8.565-3.323-9.524-6.009-.137-.41.205-1.093 1.028-2.049.776-1.001 1.233-1.297 1.37-.887.914 2.549 3.723 4.461 8.428 5.736 5.117 1.411 11.398 1.661 18.844.751 4.339-.547 8.93-2.709 13.772-6.487 4.797-3.733 8.794-8.218 11.992-13.453ZM34.825 33.592c.365-.274 1.256-.274 2.672 0 2.193.41 4.111 1.388 5.756 2.936.365.273.388.706.068 1.297-.274.547-.593.683-.959.41-.96-.82-1.896-1.366-2.81-1.639l-1.301-.068.274 2.185.411 4.097c.137 6.191-1.896 14.295-6.098 24.31-3.29 7.967-7.515 16.206-12.677 24.72C3.9 118.743.313 141.96 9.403 161.49c3.426 7.375 8.337 13.407 14.732 18.096 5.665 4.097 11.1 6.328 16.308 6.692.412.046.343.569-.205 1.571-.503 1.047-.982 1.547-1.44 1.502-6.075-.41-12.15-2.8-18.226-7.17-6.76-4.917-11.9-11.29-15.417-19.12-9.136-20.304-5.185-44.5 11.854-72.588 8.04-13.293 13.499-24.219 16.377-32.778 3.06-9.059 3.563-16.41 1.507-22.056-.41-1.047-.434-1.73-.068-2.048Z"/><path fill="#0D131A" d="M70.319 31.202c.32.318.32.82 0 1.502-.32.728-.64.933-.96.614-3.426-3.55-7.88-6.396-13.361-8.535-5.162-1.958-9.799-2.823-13.91-2.595-1.919.137-2.946.387-3.084.751-.136.319.32 1.297 1.371 2.936 4.98 7.83 5.116 19.394.411 34.69-2.558 8.194-6.555 18.391-11.991 30.592-8.04 21.077-8.68 39.879-1.919 56.404 2.787 6.829 6.647 12.61 11.58 17.345 4.569 4.415 9.502 7.397 14.801 8.945.365.091.091.546-.822 1.366-.914.774-1.576 1.115-1.987 1.024-14.024-4.097-23.64-14.522-28.848-31.275-5.436-17.345-4.111-35.827 3.974-55.448l6.03-13.589c2.878-6.647 5.048-12.45 6.51-17.413 4.477-14.932 3.951-25.926-1.576-32.982-1.873-2.413-2.741-3.96-2.604-4.643.137-.774 1.507-1.32 4.111-1.64 4.888-.637 10.37.114 16.445 2.254 6.441 2.276 11.717 5.509 15.829 9.697Z"/><path fill="#0D131A" d="m65.522 18.022 2.535 2.049c.275.319.206.979-.205 1.98-.411.956-.754 1.275-1.028.956L65.385 21.3c-.822-.82-1.439-1.138-1.85-.956-.365.182-.502.774-.411 1.775l.617 3.893c.091.364-.274.546-1.097.546-.822-.045-1.256-.273-1.301-.683l-.686-4.233c-.182-2.322.183-3.847 1.097-4.576.776-.591 2.032-.273 3.768.956Z"/><path fill="#0D131A" d="M170.634 37.28c9.821 7.875 14.983 17.39 15.486 28.543.045.455-.549.796-1.782 1.024-1.233.273-1.85.182-1.85-.273-.457-10.198-5.071-19.006-13.841-26.427-10.553-8.923-25.308-13.725-44.265-14.408-16.217-.592-27.82-2.39-34.809-5.395-5.664-2.413-9.753-6.487-12.265-12.223-.548-1.23-1.005-1.89-1.37-1.98-.412-.137-1.074.318-1.988 1.365-3.06 3.37-4.865 7.49-5.413 12.36-.548 5.008.503 8.9 3.152 11.677 5.345 5.463 9.57 11.905 12.677 19.325 1.918 4.598 4.248 12.269 6.989 23.012 3.334 13.066 7.012 22.785 11.032 29.158 3.243 5.145 7.994 9.788 14.252 13.931.274.136.091.796-.548 1.98-.594 1.138-1.074 1.593-1.439 1.366-8.04-5.281-13.819-10.88-17.336-16.799-3.243-5.462-6.372-14.34-9.387-26.631-3.244-13.339-5.665-22.01-7.264-26.017-2.466-6.328-6.19-12.064-11.169-17.208-3.563-3.687-4.705-9.128-3.426-16.32 1.234-6.784 3.723-11.632 7.47-14.545 1.69-1.32 2.877-1.912 3.562-1.776.685.137 1.348 1.093 1.987 2.868 2.741 7.102 6.67 11.79 11.786 14.067 5.756 2.504 16.948 4.075 33.575 4.712 19.552.683 34.946 5.554 46.184 14.613Z"/><path fill="#0D131A" d="M190.642 40.694c8.725 7.465 12.494 15.546 11.306 24.241-.046.41-.731.592-2.056.546-1.324-.045-1.964-.273-1.918-.683 1.005-7.465-1.965-14.476-8.908-21.032-7.994-7.511-19.117-11.79-33.37-12.837-.457-.046-1.781-.592-3.974-1.64-2.238-1.092-3.152-1.638-2.741-1.638 17.633 0 31.52 4.347 41.661 13.043Z"/><path fill="#7CBEB3" d="M82.447 216.666c2.467-9.605 5.916-16.798 10.347-21.578l50.774 14.75c4.431 16.844 4.865 32.891 1.302 48.141-2.147 9.06-5.505 17.14-10.073 24.242-2.467 3.869-7.491 6.419-15.074 7.648-7.995 1.32-15.692.523-23.092-2.39-5.39-2.094-9.616-7.216-12.677-15.365-2.832-7.42-4.362-16.32-4.59-26.699-.229-10.152.799-19.735 3.083-28.749Z"/><path fill="#006359" d="M93.342 235.445c.274-2.777 3.632-6.533 10.072-11.267 6.441-4.735 10.53-6.442 12.266-5.122 1.781 1.321 2.124 8.513 1.028 21.579-1.097 13.065-2.764 19.689-5.002 19.871-1.325.091-4.751-3.551-10.279-10.926-5.573-7.466-8.268-12.178-8.085-14.135Z"/><path fill="#68A198" d="M81.145 219.534c.228 19.53 4.637 35.805 13.225 48.825 8.222 12.61 18.5 19.552 30.834 20.827-5.025 1.275-10.461 1.684-16.308 1.229-11.694-.91-19.574-5.736-23.64-14.477-4.065-8.695-5.961-20.713-5.687-36.055l1.576-20.349Z"/><path fill="#0D131A" d="M89.847 202.599c-5.938 10.152-8.633 24.697-8.085 43.635.594 19.712 4.75 32.391 12.47 38.036 5.254 3.824 12.289 5.349 21.105 4.575 8.497-.774 14.116-3.096 16.856-6.965 6.213-8.787 10.279-19.394 12.197-31.822 1.736-11.199 1.508-21.851-.685-31.958-1.096-5.053-1.233-7.761-.411-8.126.822-.364 1.918 1.912 3.289 6.829 2.832 10.243 3.403 21.328 1.713 33.255-1.827 12.975-6.007 24.105-12.54 33.392-3.38 4.78-10.369 7.58-20.967 8.399-10.37.774-18.181-.751-23.434-4.575-3.792-2.777-6.92-7.693-9.388-14.75-2.375-6.737-3.814-14.476-4.317-23.217-1.233-19.848 1.92-35.896 9.456-48.142 2.65-4.324 4.477-6.396 5.482-6.214 1.05.137.137 2.686-2.74 7.648Z"/><path fill="#0D131A" d="M94.986 234.762c-.091 1.594 2.261 6.055 7.058 13.384 4.888 7.466 8.017 11.108 9.387 10.926 1.508-.228 2.741-6.396 3.701-18.505.959-12.155.73-18.734-.686-19.735-1.324-.911-4.887.797-10.689 5.121-5.756 4.325-8.68 7.261-8.77 8.809Zm-3.152-.683c.137-3.323 3.952-7.511 11.443-12.564 7.355-4.917 11.763-6.692 13.225-5.326 2.421 2.321 3.106 10.22 2.056 23.695-1.097 13.475-3.038 21.009-5.825 22.602-1.918 1.138-5.915-2.458-11.991-10.789-6.075-8.285-9.045-14.158-8.908-17.618Z"/><path fill="#fff" d="M40.17 282.357c-.229-.682.639-1.843 2.603-3.482 2.01-1.639 3.518-2.39 4.523-2.254 1.827.228 3.083 2.208 3.768 5.941.64 3.46.685 5.44.137 5.941-.64.592-2.42.228-5.344-1.092-3.152-1.412-5.048-3.096-5.688-5.054ZM60.589 287.479c-3.198-1.457-4.797-2.914-4.797-4.37 0-1.275.937-2.823 2.81-4.644 1.827-1.821 3.22-2.504 4.18-2.048 1.507.728 2.74 2.868 3.7 6.418.913 3.415.959 5.395.137 5.941-.868.592-2.878.16-6.03-1.297ZM71.347 283.313c-.32-2.367.548-4.552 2.603-6.555l3.22-2.322c1.691.729 3.016 2.914 3.975 6.556.868 3.277 1.074 5.189.617 5.736l-5.413-.137c-3.198-.774-4.865-1.866-5.002-3.278ZM98.275 289.049c-.091-1.183.32-2.458 1.234-3.824 1.096-1.639 2.489-2.435 4.18-2.39 1.69.046 2.992.683 3.905 1.912.731 1.138 1.051 2.527.96 4.166-.092 1.502-.617 3.186-1.576 5.053-.914 1.866-1.645 2.8-2.193 2.8-.594 0-1.782-.979-3.563-2.937-1.873-2.048-2.855-3.642-2.947-4.78ZM111.911 290.552c-.137-2.231.48-4.075 1.85-5.532 1.096-1.229 2.193-1.843 3.289-1.843.822 0 1.782.614 2.878 1.843 1.096 1.275 1.782 2.55 2.056 3.825.182.819-.023 2.23-.617 4.233-.594 2.14-1.302 3.415-2.124 3.824-.822.455-2.193-.045-4.111-1.502-2.056-1.502-3.13-3.118-3.221-4.848ZM125.41 290.142c-1.279-1.366-1.165-3.437.342-6.214 1.508-2.777 2.992-3.961 4.454-3.551 1.371.455 2.695 2.367 3.974 5.736 1.188 3.232 1.485 5.304.891 6.214-.548.82-1.964 1.002-4.248.546-2.33-.5-4.134-1.411-5.413-2.731ZM148.707 277.714c-.183-.956.708-2.14 2.672-3.551 1.919-1.366 3.312-1.866 4.18-1.502 1.508.683 2.49 2.595 2.947 5.736.456 3.05.274 4.757-.549 5.121-.822.365-2.444-.068-4.865-1.297-2.603-1.366-4.065-2.868-4.385-4.507ZM167.276 282.357c-2.786-.956-4.408-2.048-4.865-3.277-.411-1.047.297-2.55 2.124-4.507 1.828-1.912 3.152-2.686 3.975-2.322 1.598.683 2.718 2.436 3.357 5.258.548 2.458.594 4.143.137 5.053l-4.728-.205ZM174.745 276.69c-.548-1.093.228-2.664 2.33-4.712 2.055-2.003 3.54-2.823 4.454-2.458 1.05.455 2.078 2.116 3.083 4.984.959 2.823 1.211 4.553.754 5.19l-5.208-.136c-3.015-.729-4.819-1.685-5.413-2.868ZM252.448 287.206c-.639-.638-.137-2.277 1.508-4.917 1.644-2.686 3.037-4.006 4.179-3.96 1.508.091 3.198 1.729 5.071 4.916 1.781 3.005 2.467 4.78 2.056 5.326-.503.638-2.444.843-5.825.615-3.517-.228-5.847-.888-6.989-1.98ZM267.386 283.45c-.64-.683-.229-2.39 1.233-5.121 1.416-2.732 2.65-4.052 3.7-3.961 1.005.091 2.421 1.684 4.249 4.78 1.735 3.05 2.443 4.917 2.124 5.599-.411.683-2.079.934-5.002.752-3.107-.183-5.208-.865-6.304-2.049ZM278.829 277.168c-.731-.911-.503-2.641.685-5.19 1.142-2.458 2.056-3.642 2.741-3.551 1.187.137 2.649 1.639 4.385 4.507 1.69 2.822 2.33 4.598 1.919 5.326-.32.774-1.759 1.07-4.317.888-2.695-.182-4.5-.842-5.413-1.98Z"/><path fill="#DBDCDC" d="m43.116 278.465 3.015 3.756c2.01 2.777 3.129 4.939 3.357 6.487l-4.796-2.458c-3.152-1.776-4.637-3.05-4.454-3.824.183-.774.73-1.662 1.644-2.663l1.234-1.298ZM58.533 278.738l2.604 3.21c1.827 2.549 3.038 4.848 3.632 6.897-5.62-1.958-8.497-3.893-8.634-5.805-.092-1.183.274-2.253 1.096-3.209l1.302-1.093ZM80.049 287.206c-2.924-.638-5.025-1.275-6.304-1.912-1.462-.683-2.284-1.525-2.467-2.527-.183-.865 0-1.866.548-3.004l.89-1.434c1.234.591 2.742 2.048 4.523 4.37 1.508 2.003 2.444 3.505 2.81 4.507ZM101.016 284.269l.685 4.166c.594 3.141 1.325 5.599 2.193 7.375l-2.604-2.254c-1.69-1.866-2.49-3.778-2.398-5.736.091-1.365.434-2.367 1.028-3.004.457-.501.822-.683 1.096-.547ZM113.35 286.455l2.604 4.233 3.426 6.283c-1.279-.41-2.558-1.002-3.837-1.776-2.558-1.548-3.746-3.209-3.563-4.985.182-1.73.456-2.868.822-3.414l.548-.341ZM125.752 283.996l3.221 3.073c2.284 2.322 3.677 4.257 4.18 5.805l-4.249-1.366c-2.832-1.093-4.202-2.163-4.111-3.21l.548-3.073.411-1.229ZM150.968 274.641c.411.273 1.279 1.298 2.604 3.073 1.644 2.231 2.558 4.029 2.741 5.395l-4.934-2.322c-1.279-.774-1.941-1.753-1.987-2.936-.046-.865.206-1.662.754-2.39l.822-.82ZM163.782 275.051l2.261 1.57c1.736 1.594 3.243 3.688 4.522 6.283l-3.7-1.025c-2.512-.91-3.906-1.957-4.18-3.141-.274-1.183-.182-2.139.274-2.868l.823-.819ZM176.664 272.319l2.809 2.049c2.01 1.775 3.38 3.619 4.111 5.531l-3.905-.546c-2.741-.683-4.363-1.707-4.865-3.073-.275-.637-.16-1.434.342-2.39.457-.911.959-1.434 1.508-1.571ZM254.23 281.948c3.837 1.821 6.92 4.097 9.25 6.828l-5.139.069c-3.426-.182-5.208-.865-5.345-2.049a7.041 7.041 0 0 1 .48-3.483l.754-1.365ZM268.551 279.011c.776.228 2.078.911 3.905 2.049 2.467 1.502 3.997 2.936 4.591 4.302l-4.796-.205c-3.244-.364-4.888-1.07-4.934-2.117-.091-1.001.092-1.98.548-2.936l.686-1.093ZM279.377 272.319l3.015 1.844c2.238 1.548 3.791 3.187 4.659 4.917l-3.563-.273c-2.467-.365-3.997-.979-4.591-1.844-.594-.865-.685-1.912-.274-3.141l.754-1.503Z"/><path fill="#0D131A" d="M251.146 287.615c-.365-1.32.366-3.437 2.193-6.35 1.827-2.959 3.403-4.462 4.728-4.507 1.325-.046 3.175 1.684 5.55 5.19 2.33 3.414 3.335 5.736 3.015 6.965-.274 1.092-2.832 1.434-7.674 1.024-4.843-.41-7.446-1.183-7.812-2.322Zm4.454-5.326c-1.142 1.821-1.599 3.141-1.37 3.961.456.637 2.078 1.161 4.865 1.57 2.695.41 4.157.387 4.385-.068.228-.501-.388-1.958-1.85-4.37-1.553-2.459-2.764-3.711-3.632-3.756-.502-.046-1.302.842-2.398 2.663ZM277.253 284.201c.274-.41-.32-1.866-1.782-4.37-1.416-2.504-2.489-3.824-3.22-3.961-.548-.045-1.325.911-2.33 2.868-1.051 1.958-1.485 3.323-1.302 4.097.137.683 1.576 1.184 4.317 1.503l4.317-.137Zm-4.66-11.404c1.462.182 3.198 2.208 5.208 6.078 1.919 3.687 2.672 5.963 2.261 6.828-.411.911-2.581 1.184-6.509.82-4.02-.41-6.441-1.184-7.264-2.322-.731-1.001-.251-3.164 1.439-6.487 1.69-3.46 3.312-5.099 4.865-4.917ZM280.405 272.729c-.685 1.548-.822 2.823-.411 3.824.182.546 1.393.979 3.631 1.298l3.632-.205c.274-.456-.206-1.776-1.439-3.961-1.233-2.322-2.307-3.46-3.221-3.414-.776.091-1.507.91-2.192 2.458Zm-1.508-1.707c1.416-2.595 2.627-3.892 3.632-3.892 1.69 0 3.472 1.889 5.345 5.667 1.827 3.642 2.466 5.919 1.918 6.829l-6.098.205c-3.746-.455-5.779-1.093-6.099-1.912-.685-1.776-.251-4.075 1.302-6.897ZM119.243 285.977c-.777-.911-1.53-1.321-2.261-1.229-1.051.045-1.987.705-2.81 1.98-.822 1.229-1.165 2.413-1.028 3.551.137 1.047 1.028 2.23 2.673 3.551 1.599 1.229 2.672 1.729 3.22 1.502.366-.137.754-.797 1.165-1.98.548-1.366.731-2.641.548-3.824-.137-1.412-.639-2.595-1.507-3.551Zm-7.126-.888c1.553-2.276 3.243-3.346 5.07-3.209 1.325.091 2.513.773 3.563 2.048 1.051 1.275 1.713 2.845 1.987 4.712.32 1.821.183 3.801-.411 5.941-.594 2.094-1.324 3.3-2.192 3.619-1.097.41-2.855-.182-5.277-1.776-2.603-1.775-4.088-3.71-4.453-5.804-.275-1.593.297-3.437 1.713-5.531ZM106.155 285.84c-.594-.819-1.256-1.275-1.987-1.366-.868-.091-1.781.273-2.741 1.093-1.005.819-1.507 1.707-1.507 2.663.046 1.184.708 2.595 1.987 4.234 1.142 1.548 1.987 2.321 2.535 2.321.503-.045 1.051-.705 1.645-1.98.639-1.275.982-2.549 1.028-3.824.045-1.183-.274-2.231-.96-3.141Zm-7.057-2.253c1.69-1.503 3.449-2.14 5.276-1.912 1.507.182 2.809 1.001 3.905 2.458 1.051 1.457 1.531 3.073 1.439 4.848-.045 1.457-.616 3.323-1.713 5.6-1.187 2.367-2.215 3.596-3.083 3.687-1.005.137-2.581-1.024-4.728-3.483-2.284-2.549-3.472-4.711-3.563-6.487-.091-1.684.73-3.255 2.467-4.711ZM132.536 284.474c-1.051-1.456-2.01-2.185-2.878-2.185-.868-.091-1.736.546-2.604 1.912-.913 1.411-1.256 2.732-1.028 3.961.229 1.092 1.508 2.048 3.838 2.868 2.238.728 3.54.933 3.905.614.32-.273.389-1.229.206-2.868-.183-1.775-.662-3.209-1.439-4.302Zm-2.398-5.189c2.238.318 3.997 2.663 5.276 7.033 1.188 4.097 1.416 6.556.685 7.375l-6.441-.41c-3.837-1.047-5.916-2.413-6.235-4.097-.366-1.866.16-4.006 1.576-6.419 1.553-2.595 3.266-3.756 5.139-3.482ZM82.378 280.446c1.142 4.37 1.257 6.828.343 7.374-1.188.683-3.517.547-6.99-.409-3.608-1.002-5.618-2.208-6.029-3.619-.548-1.685.091-3.847 1.919-6.488 1.873-2.731 3.745-4.028 5.618-3.892 2.193.137 3.906 2.481 5.14 7.034Zm-9.798 2.253c.137.956 1.393 1.821 3.769 2.595 2.284.728 3.677.865 4.18.41.365-.319.16-1.844-.617-4.576-.823-2.913-1.782-4.461-2.878-4.643-.914-.137-1.919.478-3.015 1.844-1.234 1.456-1.713 2.913-1.44 4.37ZM57.437 283.109c0 1.047 1.256 2.139 3.768 3.277 2.467 1.093 3.883 1.389 4.249.888.41-.501.297-1.98-.343-4.439-.685-2.64-1.576-4.074-2.672-4.302-1.05-.227-2.147.251-3.29 1.434-1.05 1.093-1.621 2.095-1.712 3.005v.137Zm-.069-5.395c1.964-1.821 3.7-2.595 5.208-2.322 2.284.41 3.928 2.8 4.933 7.17.96 4.143.982 6.601.069 7.375-.868.82-3.29.364-7.263-1.365-4.157-1.73-6.145-3.688-5.962-5.873.137-1.548 1.142-3.21 3.015-4.985ZM176.115 275.734c.137.91 1.462 1.775 3.975 2.595 2.421.773 3.791.956 4.111.546.32-.41.114-1.821-.617-4.234-.776-2.549-1.621-3.869-2.535-3.961-.777-.091-1.827.501-3.152 1.776-1.325 1.32-1.919 2.413-1.782 3.278Zm.069-4.576c2.375-2.276 4.248-3.186 5.619-2.731 1.736.637 3.152 2.8 4.248 6.487 1.051 3.506 1.233 5.577.548 6.214-.685.592-2.923.387-6.715-.614-3.883-1.047-6.053-2.208-6.509-3.483-.549-1.593.388-3.551 2.809-5.873ZM167.413 281.196c2.01.683 3.175.865 3.495.547.32-.319.251-1.616-.206-3.893-.502-2.412-1.21-3.733-2.124-3.96-.914-.228-1.987.273-3.22 1.502-1.234 1.275-1.736 2.39-1.508 3.346.274.956 1.462 1.776 3.563 2.458Zm1.713-9.833c1.508.364 2.764 2.345 3.769 5.941.914 3.505 1.005 5.804.274 6.897-.457.683-2.49.387-6.098-.888-3.746-1.32-5.756-2.708-6.03-4.165-.32-1.457.548-3.21 2.604-5.258 2.101-2.094 3.928-2.936 5.481-2.527ZM153.572 281.06c2.01 1.093 3.22 1.502 3.632 1.229.365-.227.411-1.548.137-3.96-.32-2.55-.96-3.984-1.919-4.302-.914-.319-2.01 0-3.289.956-1.233.91-1.827 1.821-1.782 2.731.046 1.093 1.12 2.208 3.221 3.346Zm2.604-9.56c1.918.41 3.06 2.663 3.426 6.76.32 3.87.091 6.078-.685 6.624-.868.546-3.015-.091-6.441-1.912-3.472-1.912-5.277-3.574-5.414-4.985-.137-1.32.846-2.822 2.947-4.507 2.238-1.73 4.294-2.39 6.167-1.98ZM45.583 285.362c2.42 1.229 3.814 1.616 4.18 1.161.41-.455.342-1.889-.206-4.302-.594-2.504-1.302-3.87-2.124-4.097-.96-.319-2.124.045-3.495 1.092-1.37 1.047-2.056 2.072-2.056 3.073.046.774 1.28 1.798 3.7 3.073Zm2.466-10.311c1.965.409 3.358 2.799 4.18 7.17.777 4.188.754 6.532-.068 7.033-1.416.956-3.975.455-7.675-1.502-3.654-1.912-5.55-3.619-5.687-5.121-.183-1.73.89-3.529 3.22-5.395 2.285-1.821 4.294-2.549 6.03-2.185Z"/></g><defs><radialGradient id="b" cx="0" cy="0" r="1" gradientTransform="rotate(90 0 150) scale(200)" gradientUnits="userSpaceOnUse"><stop stop-color="#00FFE5"/><stop offset=".56" stop-color="#00A897"/><stop offset="1" stop-color="#006359"/></radialGradient><clipPath id="a"><path fill="#fff" d="M0 0h300v300H0z"/></clipPath></defs></svg>