<svg width="300" height="300" viewBox="0 0 300 300" fill="none" xmlns="http://www.w3.org/2000/svg">
<g clip-path="url(#clip0_864_444)">
<rect width="300" height="300" fill="white"/>
<rect x="-50" y="-50" width="400" height="400" fill="url(#paint0_radial_864_444)"/>
<path d="M167.999 67.1094C168.935 69.5341 169.402 71.855 169.402 74.0719L169.35 75.0591C169.177 76.4793 168.744 77.3453 168.051 77.657C167.428 77.8995 166.735 77.7263 165.973 77.1375C164.241 75.7172 162.907 72.8768 161.972 68.6162C161.072 64.5634 161.002 62.0174 161.764 60.9782L162.856 60.9263L164.051 61.4459C165.644 62.4504 166.96 64.3382 167.999 67.1094Z" fill="#0D131A"/>
<path d="M166.857 76.0982C165.748 75.1629 164.882 73.4309 164.259 70.9023C163.739 68.8586 163.479 66.8148 163.479 64.7711L163.687 62.8486C164.969 63.8878 166.043 65.5851 166.909 67.9406C167.671 70.1229 168.052 72.1666 168.052 74.0718L168 74.9031C167.93 75.8037 167.775 76.306 167.532 76.4099L166.857 76.0982Z" fill="#3D62AC"/>
<path d="M166.389 70.2788L166.545 72.2013C166.476 72.7901 166.337 73.1192 166.129 73.1885C165.887 73.2578 165.644 73.0499 165.402 72.565C165.159 72.08 164.969 71.4738 164.83 70.7464L164.674 68.8239C164.744 68.2351 164.882 67.906 165.09 67.8367C165.332 67.8021 165.575 68.0099 165.817 68.4602L166.389 70.2788Z" fill="#0D131A"/>
<path d="M289.116 209.165L290.675 208.542C291.229 208.368 291.645 208.524 291.922 209.009H292.493C294.225 212.231 294.191 217.149 292.389 223.765C290.796 229.654 288.891 233.828 286.674 236.288C286.12 236.911 285.583 237.119 285.063 236.911C284.474 236.703 284.076 235.785 283.868 234.157C283.764 233.361 283.643 231.178 283.504 227.61L283.193 221.791C283.019 219.574 283.591 217.028 284.907 214.153C286.258 211.243 287.661 209.581 289.116 209.165Z" fill="#0D131A"/>
<path d="M289.48 210.464C289.895 210.36 290.224 210.568 290.467 211.087C291.194 212.404 291.558 214.136 291.558 216.283C291.558 219.505 290.813 223.246 289.324 227.506C288.042 231.213 286.864 233.655 285.79 234.833L285.635 234.989C285.288 234.434 285.028 231.958 284.855 227.558L284.543 221.012C284.543 219.037 285.115 216.855 286.258 214.465C287.401 212.075 288.475 210.741 289.48 210.464Z" fill="#FFF3C2"/>
<path d="M290.467 211.087L291.246 213.166L289.48 215.192C287.817 217.79 286.674 224.233 286.05 234.521L285.635 234.989C285.288 234.434 285.028 231.958 284.855 227.558L284.543 221.012C284.543 219.037 285.115 216.855 286.258 214.465C287.401 212.075 288.475 210.741 289.48 210.464C289.895 210.36 290.224 210.568 290.467 211.087Z" fill="#DBD2A9"/>
<path d="M220.01 137.202C221.396 139.973 223.717 142.398 226.973 144.476C229.398 146.07 233.225 147.923 238.456 150.036L248.952 154.193C251.688 155.405 253.888 156.825 255.55 158.453C260.504 163.372 266.947 170.213 274.879 178.977C282.985 187.914 288.007 193.768 289.947 196.539C291.922 199.345 293.186 202.272 293.74 205.32C294.26 208.334 294 211.036 292.961 213.426C291.645 216.474 288.215 218.345 282.673 219.037L263.24 219.609C259.153 218.639 256.174 215.781 254.303 211.036C250.632 201.579 246.891 192.746 243.08 184.537C237.295 172.101 233.069 165.069 230.402 163.441C226.765 161.259 222.504 159.25 217.62 157.414L202.656 152.426C199.92 151.525 198.222 149.049 197.564 144.996C197.045 141.705 197.235 138.137 198.136 134.292C198.725 131.764 199.66 129.841 200.942 128.525C202.189 127.278 203.678 126.689 205.41 126.758C211.784 127.001 216.65 130.482 220.01 137.202Z" fill="#0D131A"/>
<path d="M237.78 151.75C241.902 153.447 244.864 154.712 246.665 155.543C249.679 156.998 251.757 158.314 252.9 159.492C258.339 164.896 264.834 171.65 272.385 179.756C280.733 188.693 285.825 194.443 287.661 197.006C289.462 199.535 290.623 202.116 291.142 204.748C291.627 207.346 291.419 209.684 290.519 211.763C289.133 214.88 286.449 216.716 282.465 217.27C273.563 218.379 267.293 218.258 263.656 216.907C260.435 215.694 257.958 212.871 256.226 208.437C253.385 201.336 250.251 194.114 246.821 186.77C239.928 172.118 234.749 163.822 231.286 161.882C224.427 157.933 215.507 154.192 204.527 150.659C202.379 149.931 200.855 147.87 199.954 144.476C199.158 141.289 199.14 138.016 199.902 134.656C200.249 133.166 200.734 131.902 201.357 130.863C202.431 129.131 203.695 128.369 205.15 128.576C208.129 128.992 210.658 130.152 212.736 132.058C214.018 133.235 215.888 135.608 218.348 139.176L220.322 141.982C221.465 143.61 223.734 145.29 227.129 147.022C229.103 148.061 232.654 149.637 237.78 151.75Z" fill="#E73820"/>
<path d="M276.178 216.075C283.141 215.001 288.146 212.889 291.194 209.736L290.519 211.763C289.133 214.88 286.449 216.716 282.465 217.27L267.397 217.79C264.002 217.34 261.405 216.162 259.603 214.257C266.6 216.093 272.125 216.699 276.178 216.075Z" fill="#C82E19"/>
<path d="M205.15 128.576C207.402 128.888 209.342 129.598 210.97 130.707C212.355 131.607 213.775 132.976 215.23 134.811C215.438 142.016 217.083 149.204 220.166 156.374C215.733 154.504 210.519 152.599 204.527 150.659C202.379 149.931 200.855 147.87 199.954 144.476C199.158 141.289 199.14 138.016 199.902 134.656C200.249 133.166 200.734 131.902 201.357 130.863C202.431 129.131 203.695 128.369 205.15 128.576Z" fill="#C82E19"/>
<path d="M284.803 205.736C285.981 207.779 286.535 211.209 286.466 216.024C286.397 221.6 285.41 226.9 283.504 231.923L281.842 235.144C281.045 236.357 280.422 236.946 279.971 236.911C279.521 236.876 278.915 235.993 278.153 234.261L275.139 225.532C273.58 220.648 272.766 217.548 272.697 216.231C272.662 214.846 273.875 212.785 276.334 210.048C278.759 207.346 280.785 205.753 282.413 205.268C283.626 204.922 284.422 205.078 284.803 205.736Z" fill="#0D131A"/>
<path d="M283.4 207.086C284.37 208.784 284.699 212.733 284.387 218.933C284.11 225.411 283.227 229.896 281.738 232.39L280.594 233.845L280.179 234.053L279.607 233.326L276.801 224.648C275.347 219.834 274.602 216.785 274.567 215.504C274.498 214.568 275.451 213.027 277.425 210.879C279.434 208.697 281.149 207.398 282.569 206.982L283.4 207.086Z" fill="#FFF3C2"/>
<path d="M274.567 215.504C274.533 214.846 275.173 213.668 276.49 211.971C276.801 214.742 277.46 218.448 278.464 223.09C279.399 227.489 280.248 230.936 281.01 233.43L280.387 234.001L280.179 234.053L279.607 233.326L276.801 224.649C275.347 219.834 274.602 216.786 274.567 215.504Z" fill="#DBD2A9"/>
<path d="M265.007 201.995C266.635 201.718 267.726 202.099 268.281 203.138C269.354 205.078 269.649 208.715 269.164 214.049C268.54 220.631 266.635 226.415 263.448 231.403C263.171 231.854 262.773 231.94 262.253 231.663C261.179 231.178 259.811 227.749 258.149 221.375C256.59 215.417 255.88 211.867 256.018 210.724C256.157 209.685 257.265 208.091 259.344 205.944C261.56 203.623 263.448 202.306 265.007 201.995Z" fill="#0D131A"/>
<path d="M266.877 204.853C267.224 205.476 267.397 206.983 267.397 209.373C267.397 212.698 267.033 215.989 266.306 219.245C265.405 223.333 264.089 226.468 262.357 228.65C261.664 227.645 260.712 224.701 259.499 219.817C258.287 215.071 257.681 211.971 257.681 210.516L257.733 210.204C257.837 209.512 258.685 208.403 260.279 206.879C262.045 205.182 263.587 204.212 264.903 203.969C265.838 203.831 266.496 204.125 266.877 204.853Z" fill="#FFF3C2"/>
<path d="M257.733 210.204C257.802 209.65 258.529 208.645 259.915 207.19C260.4 210.828 260.971 214.413 261.63 217.946C262.426 222.345 263.119 225.203 263.708 226.519L262.357 228.649C261.664 227.645 260.712 224.701 259.499 219.816C258.287 215.071 257.681 211.971 257.681 210.516L257.733 210.204Z" fill="#DBD2A9"/>
<path d="M204.423 274.269C204.631 273.057 205.93 271.568 208.32 269.801C210.571 268.104 212.078 267.307 212.84 267.411C213.637 267.549 215.958 268.675 219.803 270.788C223.994 273.109 226.28 274.772 226.661 275.776C226.834 276.157 226.8 276.486 226.557 276.763C225.899 277.56 222.764 277.82 217.153 277.543L206.033 276.296C205.271 276.123 204.769 275.776 204.527 275.257C204.353 274.91 204.319 274.581 204.423 274.269Z" fill="#0D131A"/>
<path d="M205.722 274.581C205.756 273.819 206.795 272.676 208.839 271.152C210.744 269.697 212.043 268.918 212.736 268.814C213.498 268.987 215.594 270.026 219.023 271.931C222.522 273.871 224.271 275.014 224.271 275.361L216.997 275.828L206.345 274.945C205.93 274.876 205.722 274.754 205.722 274.581Z" fill="#FFF3C2"/>
<path d="M206.345 274.945C205.93 274.876 205.722 274.754 205.722 274.581C205.756 273.75 206.882 272.537 209.099 270.944C213.775 272.503 218.815 273.958 224.219 275.309L224.271 275.361L216.997 275.828L206.345 274.945Z" fill="#DBD2A9"/>
<path d="M188.471 198.098L191.329 197.734C191.987 197.699 192.386 197.872 192.524 198.253L197.149 211.087C198.846 215.036 201.132 218.656 204.007 221.947C209.896 228.597 213.36 233.828 214.399 237.638C216.166 243.943 214.589 251.754 209.671 261.072C209.497 261.418 209.619 261.886 210.034 262.475L211.801 264.449C214.503 267.151 216.114 269.056 216.633 270.165C217.153 271.308 217.222 272.399 216.841 273.438L214.867 276.348C212.754 278.98 208.718 280.868 202.76 282.011L190.082 282.427L175.586 279.777C165.887 277.803 160.621 276.226 159.79 275.049C158.889 273.767 158.993 271.533 160.102 268.346C160.933 265.956 161.938 263.826 163.115 261.955C163.912 260.708 164.397 259.617 164.57 258.682C164.744 257.642 164.605 256.586 164.155 255.512C163.358 253.78 160.881 251.962 156.725 250.056C154.161 248.913 149.208 247.06 141.864 244.497L142.28 243.562L142.955 241.795C143.336 238.296 149.658 230.399 161.92 218.102C174.598 205.389 183.449 198.721 188.471 198.098Z" fill="#0D131A"/>
<path d="M190.446 200.748C192.386 206.255 194.204 210.689 195.902 214.049C197.911 218.033 200.231 221.583 202.864 224.701C207.956 230.693 210.952 235.629 211.853 239.509C213.1 244.913 211.836 251.858 208.06 260.345C207.679 261.211 207.783 262.146 208.372 263.15C208.683 263.705 209.394 264.553 210.502 265.696C212.026 267.22 212.979 268.415 213.36 269.281C214.26 271.221 214.053 272.988 212.736 274.581C210.866 276.902 207.281 278.669 201.981 279.881C197.166 280.99 193.321 281.249 190.446 280.66L172.936 277.023C166.527 275.569 163.063 274.408 162.544 273.542C162.059 272.745 162.544 270.044 163.999 265.436L166.389 257.643C166.389 256.707 166.198 255.755 165.817 254.785C163.843 250.351 156.828 246.056 144.774 241.899C144.878 239.197 150.732 231.975 162.336 220.232C174.391 208.039 182.964 201.302 188.056 200.02C189.303 199.708 190.099 199.951 190.446 200.748Z" fill="#E73820"/>
<path d="M188.056 200.02C189.303 199.708 190.099 199.951 190.446 200.748C192.005 205.181 193.459 208.853 194.81 211.763C196.369 215.123 198.049 218.137 199.85 220.804C193.719 224.476 188.454 229.065 184.055 234.573C178.617 241.431 176.729 247.476 178.391 252.707C179.223 255.27 179.275 257.521 178.547 259.461C178.028 260.881 176.919 262.458 175.222 264.189C173.282 266.164 172.381 267.896 172.52 269.385C172.624 270.84 173.732 272.018 175.845 272.919L182.444 275.153L187.276 276.244L191.329 277.075C192.23 277.352 193.304 277.924 194.551 278.79L195.953 280.816L190.446 280.66L178.963 278.27L168.259 275.88L167.272 275.569H167.22C164.449 274.772 162.89 274.096 162.544 273.542C162.059 272.745 162.544 270.044 163.999 265.436L166.389 257.643C166.389 256.707 166.198 255.755 165.817 254.785C163.843 250.351 156.828 246.056 144.774 241.899C144.878 239.197 150.732 231.975 162.336 220.232C174.391 208.039 182.964 201.302 188.056 200.02Z" fill="#C82E19"/>
<path d="M203.591 276.036C204.388 274.581 205.843 272.953 207.956 271.152C210.242 269.247 211.818 268.502 212.684 268.918C213.412 269.264 215.3 270.806 218.348 273.542C221.881 276.729 223.873 279.033 224.323 280.453C224.496 281.007 224.41 281.388 224.063 281.596C223.128 282.185 220.166 282.237 215.178 281.752C209.913 281.232 206.345 280.401 204.475 279.258L203.695 278.894C203.314 278.686 203.124 278.444 203.124 278.167C203.124 277.335 203.28 276.625 203.591 276.036Z" fill="#0D131A"/>
<path d="M205.202 277.959C205.202 277.612 205.445 277.006 205.93 276.14C206.796 274.789 207.939 273.438 209.359 272.087C210.71 270.806 211.628 270.165 212.113 270.165C212.84 270.546 214.676 272.157 217.62 274.997C220.669 277.907 222.141 279.535 222.037 279.881L214.867 280.089C210.052 279.743 206.83 279.084 205.202 278.115V277.959Z" fill="#FFF3C2"/>
<path d="M214.295 280.089C209.792 279.708 206.761 279.05 205.202 278.114V277.959C205.202 277.612 205.445 277.006 205.93 276.14L206.657 275.153C211.507 277.023 216.581 278.634 221.881 279.985C221.015 280.366 218.486 280.401 214.295 280.089Z" fill="#DBD2A9"/>
<path d="M200.422 271.412C202.777 272.382 204.96 274.062 206.969 276.452C208.597 278.391 209.792 280.366 210.554 282.375L211.022 284.142C211.022 284.453 210.883 284.661 210.606 284.765C209.428 285.285 205.86 285.025 199.902 283.986C194.533 283.05 191.277 282.34 190.134 281.855C189.337 281.474 188.939 281.093 188.939 280.712C188.974 279.742 190.342 278.045 193.044 275.62C195.503 273.403 197.235 272.07 198.24 271.619L199.694 271.152L200.422 271.412Z" fill="#0D131A"/>
<path d="M205.306 277.387L208.112 281.128C208.77 282.236 208.961 282.877 208.684 283.05L200.37 282.375C195.694 281.578 192.628 280.92 191.173 280.401C191.416 279.708 192.542 278.34 194.551 276.296C196.56 274.287 197.928 273.161 198.655 272.918C199.244 272.711 200.18 273.04 201.461 273.906C202.674 274.737 203.955 275.897 205.306 277.387Z" fill="#FFF3C2"/>
<path d="M191.173 280.401C191.277 280.054 191.71 279.431 192.472 278.53C200.543 280.504 205.878 281.613 208.476 281.855C208.787 282.514 208.857 282.912 208.684 283.05L200.37 282.375C195.694 281.578 192.628 280.92 191.173 280.401Z" fill="#DBD2A9"/>
<path d="M232.429 0.965431C232.948 0.134088 234.49 -0.160346 237.053 0.0821287C239.582 0.289964 241.695 0.878833 243.392 1.84873C246.302 3.44214 247.757 5.55514 247.757 8.18772C247.757 9.2269 247.272 10.6471 246.302 12.4484L238.352 26.4773L232.533 36.3495C236.759 41.8571 240.309 48.0056 243.184 54.7949C246.406 62.3809 248.016 69.1529 248.016 75.1109C248.016 79.3368 246.596 83.5455 243.756 87.7369C241.123 91.6165 236.412 96.6911 229.623 102.961C214.312 117.128 206.657 129.46 206.657 139.956V140.423C206.276 142.848 206.103 145.723 206.138 149.048L206.034 157.102C205.618 163.268 204.388 170.767 202.345 179.6C200.474 187.671 198.378 194.928 196.058 201.371C191.208 214.742 184.54 225.012 176.053 232.183C164.588 241.847 149.087 246.801 129.55 247.043L91.2044 245.848C81.5054 244.255 70.0571 239.907 56.8595 232.806C26.5848 216.526 10.7546 194.859 9.36904 167.806C8.81482 157.241 9.88863 146.399 12.5905 135.279C14.9113 125.58 18.7043 114.773 23.9695 102.857L24.2813 102.181L25.0087 102.337C27.5374 102.892 29.1827 103.706 29.9448 104.779L33.478 102.857L32.8025 104.987C31.4516 109.49 31.0532 115.743 31.6075 123.744C32.3695 135.418 35.539 145.238 41.116 153.205C45.6191 159.613 51.1267 164.446 57.6389 167.702C64.3936 171.096 72.6897 173.036 82.5272 173.521C84.1206 173.625 86.6493 172.499 90.1132 170.144C92.6419 168.446 96.0712 165.762 100.401 162.09C108.264 155.474 119.349 148.096 133.655 139.956C135.872 138.639 139.769 136.942 145.346 134.864C153.243 131.885 158.907 129.131 162.336 126.602C168.052 122.307 172.052 116.366 174.339 108.78C173.854 109.196 173.144 109.352 172.208 109.248C171.204 109.179 170.199 108.85 169.195 108.261C165.142 105.905 161.886 103.169 159.426 100.051C156.725 96.6219 155.374 93.1233 155.374 89.5554C155.374 86.4033 156.447 83.355 158.595 80.4107C160.639 77.6395 163.566 75.0762 167.376 72.7207C163.878 67.698 161.47 63.2815 160.154 59.4712C159.08 56.3537 158.803 53.9636 159.323 52.3009C160.223 49.3565 162.475 47.1396 166.077 45.6501C167.186 45.1652 167.965 44.6802 168.415 44.1953L169.247 42.4806C170.563 38.7049 172.693 35.726 175.638 33.5437C179.24 30.8765 186.67 27.1181 197.928 22.2686C205.064 19.1857 212.719 14.9597 220.894 9.59062C227.856 5.01823 231.701 2.14317 232.429 0.965431Z" fill="#0D131A"/>
<path d="M243.028 4.86222C244.241 5.93604 244.847 7.16574 244.847 8.55131C244.847 9.52121 244.57 10.5084 244.015 11.513L235.702 26.3213L230.87 34.4269L227.804 31.4132L226.609 31.4652C226.54 32.1233 226.782 32.7988 227.337 33.4916C228.549 34.9465 230.818 38.4623 234.143 44.0393C238.404 51.2096 241.313 57.081 242.872 61.6533C244.535 66.5375 245.366 70.5903 245.366 73.8117C245.366 77.9685 244.067 82.0905 241.469 86.178C238.871 90.3347 234.403 95.3401 228.064 101.194C222.037 106.771 217.083 112.365 213.204 117.977C207.627 125.979 204.838 133.305 204.838 139.955L204.89 140.215C204.163 144.753 203.557 150.694 203.072 158.037C202.518 166.385 201.807 172.811 200.941 177.314C199.487 184.692 196.958 192.07 193.355 199.448L191.745 202.878C186.445 214.482 180.764 223.124 174.702 228.805C163.825 238.989 149.26 244.185 131.005 244.393C97.8895 244.809 73.0358 239.682 56.4436 229.013L55.5603 228.442C43.679 220.821 34.794 213.616 28.9054 206.827C18.3057 194.668 12.5902 180.518 11.7589 164.376L11.603 158.661C11.603 149.724 12.85 140.648 15.3441 131.434C17.4224 123.675 20.8171 114.461 25.528 103.792C27.3293 105.489 29.2344 105.888 31.2435 104.987C29.9619 111.084 29.321 116.158 29.321 120.211C29.321 126.377 29.9619 132.248 31.2435 137.825C32.8716 144.892 35.4522 150.936 38.9854 155.959C43.4885 162.367 50.2951 167.563 59.4053 171.547C68.3076 175.426 76.4824 176.933 83.9299 176.067C85.9736 175.859 88.3464 174.889 91.0483 173.157C93.4384 171.668 96.6252 169.243 100.609 165.883C106.151 161.207 110.827 157.431 114.638 154.556C121.081 149.776 127.714 145.428 134.538 141.514C136.789 140.198 140.617 138.535 146.021 136.526C153.884 133.616 159.634 130.828 163.271 128.161C169.298 123.692 173.524 117.544 175.949 109.715C176.053 109.473 176.018 109.057 175.845 108.468L175.689 107.169L177.196 105.299L175.222 106.546C174.079 107.273 172.537 107.273 170.597 106.546C167.411 105.333 164.518 103.047 161.92 99.6873C159.218 96.2234 157.867 92.9153 157.867 89.7631C157.867 86.7842 158.681 84.013 160.31 81.4497C162.18 78.4707 164.986 75.994 168.727 74.0196C170.424 73.0843 171.359 72.3742 171.533 71.8893C171.671 71.4043 171.411 71.3004 170.753 71.5775L168.935 72.0451L166.752 68.6678C164.743 65.481 163.34 62.9177 162.544 60.9779C161.193 57.7218 160.864 55.0026 161.557 52.8203C162.388 50.257 164.137 48.4211 166.804 47.3127C168.225 46.7238 169.246 46.0483 169.87 45.2863C170.286 44.8013 170.649 44.0739 170.961 43.104C171.723 40.9217 173.334 38.8261 175.793 36.817C180.123 33.2838 187.761 28.9885 198.707 23.9312C205.947 20.5711 213.671 16.3105 221.881 11.1493C229.432 6.40367 233.572 3.39005 234.299 2.1084L234.247 2.21232L237.832 2.36819C240.015 2.88778 241.746 3.71913 243.028 4.86222Z" fill="#E73820"/>
<path d="M244.847 8.55125C244.847 9.52115 244.57 10.5084 244.015 11.5129L235.702 26.3212L230.87 34.4268L227.804 31.4132L226.609 31.4651C226.54 32.1233 226.782 32.7988 227.337 33.4915C228.549 34.9464 230.818 38.4623 234.143 44.0392C238.404 51.2095 241.314 57.0809 242.872 61.6533C244.535 66.5374 245.366 70.5902 245.366 73.8117C245.366 77.9684 244.067 82.0905 241.469 86.1779C238.871 90.3346 234.403 95.34 228.064 101.194C222.037 106.771 217.083 112.365 213.204 117.977C207.627 125.978 204.838 133.305 204.838 139.955L204.89 140.215L204.682 141.566C203.193 139.626 201.669 137.011 200.11 133.72L196.317 125.771C193.061 119.674 188.523 115.673 182.704 113.768C183.189 113.456 184.574 113.145 186.861 112.833C189.32 112.521 191.139 112.088 192.316 111.534L197.096 108.728C199.833 106.961 201.981 105.957 203.539 105.714L213.36 105.091C218.59 104.364 223.197 102.285 227.181 98.8559C231.476 95.2188 234.282 89.6938 235.598 82.281C236.568 76.8773 236.724 70.6595 236.066 63.6277C235.754 60.1984 233.104 53.4957 228.116 43.5196C223.855 34.9983 222.366 30.0622 223.647 28.7113L232.325 18.3195C236.551 12.6387 239.443 7.70259 241.002 3.51123C241.799 3.9269 242.474 4.37721 243.028 4.86216C244.241 5.93598 244.847 7.16568 244.847 8.55125Z" fill="#C82E19"/>
<path d="M182.548 146.087C187.432 143.766 191.571 142.952 194.966 143.645C197.529 144.164 199.642 145.533 201.305 147.75C203.383 150.521 204.405 154.279 204.371 159.025C204.301 163.701 203.141 170.56 200.889 179.6C199.054 186.875 197.027 193.716 194.81 200.124L193.979 201.995C188.991 213.945 183.345 222.969 177.04 229.065C165.713 240.115 150.368 245.761 131.005 246.004C97.5777 246.42 72.4296 241.206 55.5602 230.364L54.6769 229.793C42.6225 222.034 33.5989 214.707 27.6063 207.814C16.8335 195.413 11.0141 180.969 10.1481 164.48C9.90565 159.873 10.356 153.482 11.4991 145.307C12.1918 140.458 12.9712 135.886 13.8372 131.59L15.1881 131.85C13.4215 141.965 14.6166 152.772 18.7733 164.273C22.93 175.738 29.1824 185.489 37.5305 193.525C45.4282 201.146 53.6551 206.394 62.211 209.269C71.3211 212.386 80.9682 212.854 91.1521 210.672C106.116 207.485 120.63 200.505 134.694 189.732C144.012 182.597 153.33 173.539 162.648 162.558C169.298 154.729 175.932 149.239 182.548 146.087Z" fill="#0D131A"/>
<path d="M201.461 151.438C202.881 154.14 203.488 156.998 203.28 160.012C203.037 163.372 202.067 168.827 200.37 176.379C198.292 185.489 196.023 193.231 193.563 199.604L192.732 201.475C187.813 213.218 182.288 222.068 176.157 228.026C165.038 238.868 149.987 244.41 131.005 244.653C97.8204 244.999 72.9147 239.855 56.2878 229.221L55.4045 228.649C43.5233 221.029 34.621 213.806 28.6976 206.983C18.0634 194.79 12.3306 180.587 11.4992 164.376L11.4473 161.986C11.4473 157.379 12.0361 151.092 13.2139 143.125C13.0753 152.443 15.0844 161.83 19.2411 171.287C23.3285 180.535 28.9055 188.572 35.9719 195.396C43.9043 203.016 52.72 208.351 62.419 211.399C72.4297 214.482 82.7349 214.915 93.3346 212.698C108.229 209.511 122.83 202.202 137.136 190.771C144.514 184.848 153.988 175.582 165.557 162.973C170.823 157.223 174.304 153.707 176.001 152.426C182.652 147.403 188.645 145.255 193.979 145.983C197.235 146.398 199.729 148.217 201.461 151.438Z" fill="#FFF3C2"/>
<path d="M56.2878 229.221L55.4045 228.65L45.5323 221.999C41.3756 219.02 37.6692 215.989 34.4131 212.906C40.475 217.409 48.1303 221.653 57.3789 225.636C69.0177 230.694 80.9856 234.244 93.2826 236.288C126.64 241.934 156.915 235.941 184.107 218.31C172.676 235.595 154.975 244.376 131.005 244.653C97.8203 245 72.9147 239.856 56.2878 229.221Z" fill="#DBD2A9"/>
<path d="M215.022 99.7394L201.617 99.1679L189.147 98.4924C187.692 98.8042 185.735 99.8087 183.275 101.506C180.885 103.134 178.72 104.918 176.781 106.858C176.157 107.481 176.209 108.399 176.936 109.612C177.595 110.72 178.409 111.482 179.379 111.898C181.007 112.625 183.258 112.816 186.133 112.469C188.731 112.158 191.208 111.499 193.563 110.495C194.984 109.871 195.694 109.75 195.694 110.131C195.694 110.478 195.139 110.911 194.031 111.43C191.156 112.781 188.177 113.664 185.094 114.08L178.599 113.768C177.075 113.041 175.897 111.932 175.066 110.443L174.287 108.313L172 107.481C170.719 106.962 170.632 106.823 171.741 107.066C173.23 107.377 174.633 106.962 175.949 105.819L180.937 101.09C183.743 98.7349 186.41 97.3493 188.939 96.9337L202.552 97.6611L214.555 98.3885C216.876 97.6611 218.763 96.6739 220.218 95.4269C221.223 94.5955 221.846 94.3011 222.089 94.5436C222.297 94.7514 221.985 95.3229 221.154 96.2582C219.456 98.1287 217.413 99.2891 215.022 99.7394Z" fill="#0D131A"/>
<path d="M188.887 112.573L189.667 112.313L190.602 112.209L193.771 114.496C194.499 114.981 194.828 115.31 194.759 115.483L193.615 115.379C193.027 115.171 192.213 114.755 191.173 114.132L188.887 112.573Z" fill="#0D131A"/>
<path d="M168.208 59.7306C167.93 59.1764 167.913 58.7434 168.156 58.4317C168.398 58.0853 168.762 58.2238 169.247 58.8473C170.667 60.51 171.394 62.5537 171.429 64.9785C171.464 66.1909 171.29 66.7451 170.909 66.6412C170.528 66.5373 170.251 66.035 170.078 65.1344C169.87 63.6795 169.247 61.8783 168.208 59.7306Z" fill="#0D131A"/>
<path d="M186.081 63.5756C185.735 62.6403 185.614 61.4279 185.718 59.9385C185.822 58.0679 186.272 56.4918 187.069 55.2102C188.385 53.2358 188.766 53.5129 188.212 56.0415C187.831 57.4964 187.571 59.9558 187.432 63.4197C187.363 64.5628 187.172 65.0824 186.861 64.9785C186.618 64.8746 186.358 64.4069 186.081 63.5756Z" fill="#0D131A"/>
<path d="M173.403 95.063C173.75 94.0585 174.165 93.3484 174.65 92.9327C175.101 92.517 175.568 92.4477 176.053 92.7249C176.573 93.002 176.555 93.4176 176.001 93.9719C175.551 94.4222 175.205 95.0803 174.962 95.9463L174.39 97.7649L173.663 98.5962C173.421 98.6309 173.213 98.3191 173.04 97.661C172.866 97.0028 172.988 96.1368 173.403 95.063Z" fill="#0D131A"/>
<path d="M203.332 78.8001C199.071 78.523 195.555 77.605 192.784 76.0463L191.329 76.2021C191.121 76.0636 191.104 75.7692 191.277 75.3188L191.641 74.7473C193.512 71.2141 197.287 67.3345 202.968 63.1085C208.233 59.1943 212.91 56.5443 216.997 55.1588C218.937 54.466 219.959 54.2582 220.063 54.5353L219.075 55.7303L217.517 56.9773L216.737 57.445C218.331 58.9691 219.716 61.238 220.894 64.2516C221.656 66.2953 222.02 68.3563 221.985 70.4347C221.916 72.4784 221.5 74.1584 220.738 75.4747L221.465 76.0463C221.673 76.4966 221.154 76.8603 219.907 77.1374C213.706 78.5923 208.181 79.1465 203.332 78.8001Z" fill="#0D131A"/>
<path d="M215.023 58.2764C215.577 58.5188 216.2 59.1424 216.893 60.1469C217.69 61.29 218.383 62.6582 218.971 64.2516C219.907 66.6418 220.374 68.8933 220.374 71.0063C220.374 72.7729 220.028 74.297 219.335 75.5787C213.827 77.1721 208.476 77.761 203.28 77.3453C199.296 76.9989 195.954 76.1676 193.252 74.8513C195.192 72.0455 198.95 68.5989 204.527 64.5114C209.757 60.6665 213.256 58.5881 215.023 58.2764Z" fill="white"/>
<path d="M208.423 60.6146L208.787 60.4067C210.658 62.1387 211.957 64.6674 212.684 67.9927C213.515 71.5952 213.308 74.8513 212.061 77.761L211.749 78.2806H211.489L198.551 77.761H198.499L198.447 77.7091L195.07 76.3062C193.892 75.8212 193.078 75.0765 192.628 74.0719L194.862 71.1103L195.018 70.9544C197.131 68.7375 201.218 65.568 207.28 61.4459L208.423 60.6146Z" fill="#0D131A"/>
<path d="M208.528 61.6533C210.779 64.8055 211.905 68.3214 211.905 72.201C211.905 73.8983 211.628 75.6303 211.074 77.3969C208.025 77.7433 205.081 77.8125 202.241 77.6047C199.435 77.3969 197.408 76.9985 196.161 76.4097L194.291 75.5783C193.667 75.1973 193.459 74.8682 193.667 74.5911C194.776 72.8938 197.149 70.521 200.786 67.4727C204.042 64.7016 206.622 62.7618 208.528 61.6533Z" fill="#3D62AC"/>
<path d="M203.176 64.2515C205.22 66.3645 205.93 69.0663 205.306 72.3571C204.717 75.5785 203.453 77.1892 201.513 77.1892C198.811 77.1892 197.027 74.8511 196.161 70.1748L200.682 66.2779L203.176 64.2515Z" fill="#0D131A"/>
<path d="M68.4462 20.0345C61.8301 27.0316 59.8557 31.5001 62.5229 33.4399L63.3542 33.336L64.0816 32.5046C64.9476 30.738 65.7963 29.6296 66.6276 29.1792L70.8883 28.9714L71.4598 29.2832L71.0441 29.8027C69.8318 30.5995 68.5501 31.985 67.1992 33.9595L63.7699 39.7789L62.8346 41.3896C60.4792 45.6502 59.6478 48.3521 60.3406 49.4952C60.8256 50.3958 61.5876 50.4478 62.6268 49.6511C63.4928 48.9929 64.1336 48.1443 64.5493 47.1051C64.9996 45.8581 65.3633 45.2692 65.6404 45.3385C65.8829 45.3731 66.0041 45.9966 66.0041 47.209C66.0041 50.8808 65.3806 53.7212 64.1336 55.7303C62.9905 57.6008 60.8256 59.4193 57.6387 61.186C56.3224 61.8787 55.3872 63.6107 54.833 66.3818C54.6944 67.1439 54.7464 67.5769 54.9888 67.6808C55.2659 67.854 55.7509 67.5596 56.4437 66.7975C57.7253 65.4466 58.7992 64.494 59.6651 63.9398C61.2585 62.9352 63.2503 62.3117 65.6404 62.0693C66.16 62.0693 66.3678 62.1732 66.2639 62.381L64.7052 64.4074C62.9039 66.5204 61.3971 68.9105 60.1847 71.5777C58.7299 74.7299 57.8985 77.8994 57.6907 81.0862C57.0326 90.4735 54.3653 96.7432 49.689 99.8954C47.5067 101.385 43.783 102.32 38.5178 102.701C36.2663 102.874 34.6036 103.342 33.5298 104.104C31.7978 105.351 29.9793 105.801 28.0741 105.455C26.6539 105.143 25.5281 104.433 24.6968 103.325C24.2465 102.389 23.4151 101.229 22.2027 99.8434C20.644 98.0075 17.8728 96.0677 13.8893 94.024C11.2914 92.6731 9.213 90.5254 7.65424 87.5811C6.26866 84.9831 5.42 82.0734 5.10825 78.852C4.76185 75.1802 5.24681 71.7683 6.5631 68.6161C7.84475 65.4985 9.78455 62.9006 12.3825 60.8222C17.0934 57.0812 20.3669 53.5999 22.2027 50.3785C23.5883 47.9537 24.3504 45.1999 24.4889 42.117C24.5582 41.1125 24.6795 40.5582 24.8526 40.4543L25.3722 40.922C26.7924 43.0003 27.5026 45.8061 27.5026 49.3393C28.1261 47.0878 29.1999 44.5937 30.724 41.8572C33.7723 36.4189 37.5479 32.6951 42.0511 30.686C42.7092 30.3397 43.0902 30.2184 43.1942 30.3223C43.3327 30.3916 43.1422 30.738 42.6226 31.3615C41.4102 32.7817 40.3537 34.7042 39.4531 37.129C38.5871 39.4498 38.362 40.7834 38.7776 41.1298L39.2453 41.4935C39.5917 41.5628 40.042 41.303 40.5962 40.7141C42.536 38.7743 44.0948 36.211 45.2725 33.0242C46.6927 29.2485 48.1995 26.4254 49.7929 24.5549C51.5942 22.4073 53.7245 21.2295 56.1839 21.0217L57.0152 21.1256L56.4956 21.8011C55.4565 22.771 54.781 24.0007 54.4692 25.4902C54.2268 26.7718 54.2787 27.8976 54.6251 28.8675C54.7983 29.3524 55.1274 29.543 55.6123 29.439C56.1319 29.3698 56.5303 28.9714 56.8074 28.244C58.2622 24.5376 60.1328 21.5413 62.419 19.2551C64.6359 17.0382 68.7926 13.938 74.8891 9.95443C76.1015 9.15773 76.8116 8.79402 77.0194 8.86329C77.2273 8.96721 76.9675 9.67732 76.24 10.9936C75.4087 12.4831 73.6075 14.6481 70.8363 17.4885L68.4462 20.0345Z" fill="#0D131A"/>
<path d="M75.4606 10.4741C74.6639 11.929 72.9146 14.0593 70.2127 16.8651L67.7707 19.3591C65.7962 21.5067 64.3414 23.256 63.4061 24.607C61.6395 27.1356 60.7562 29.2833 60.7562 31.0499C60.7562 32.193 61.1199 33.1802 61.8474 34.0115C62.2977 34.4965 62.7133 34.7216 63.0944 34.687C63.51 34.6524 64.0989 34.0981 64.861 33.0243C65.5538 31.9505 66.1599 31.2057 66.6795 30.7901C67.5455 30.0626 68.5674 29.7163 69.7451 29.7509C68.602 30.6862 67.407 32.089 66.1599 33.9596L62.9385 39.3113L62.0552 40.974C59.8383 45.0961 58.7298 48.0578 58.7298 49.859C58.7298 50.344 58.8164 50.7596 58.9896 51.106C59.2667 51.5563 59.6651 51.7815 60.1847 51.7815C61.2238 51.7815 62.263 51.2792 63.3022 50.2747C64.0643 49.5126 64.6705 48.5947 65.1208 47.5209C65.0515 49.7031 64.5319 51.7815 63.562 53.7559C62.2111 56.4924 60.0807 58.7093 57.171 60.4067C56.0626 61.0302 55.11 62.1906 54.3133 63.8879C53.5859 65.4121 53.2222 66.7803 53.2222 67.9927V68.0966C53.2914 68.824 53.4993 69.2917 53.8457 69.4995L55.1446 69.2916L57.1191 67.4211C58.1583 66.2434 59.0589 65.3947 59.821 64.8751C61.1372 64.0092 62.7307 63.4376 64.6012 63.1605L64.0296 63.836C61.7781 66.3993 60.1673 68.5123 59.1974 70.175C57.5694 73.0154 56.6341 76.0117 56.3917 79.1638C55.7682 88.274 53.2741 94.5437 48.9096 97.973C46.4848 99.8782 42.8997 101.004 38.1541 101.35C35.6254 101.489 34.084 101.801 33.5297 102.286C32.1095 103.463 30.6547 103.931 29.1652 103.688C27.8835 103.515 26.879 102.944 26.1516 101.974L22.1507 97.2456C20.3495 95.2711 17.4917 93.2101 13.5775 91.0625C12.1226 90.2657 10.841 88.7589 9.73253 86.542C8.58943 84.2558 7.87932 81.7098 7.60221 78.9041L7.49829 76.5659C7.49829 73.5176 8.08716 70.7119 9.2649 68.1486C10.408 65.5506 12.0707 63.3857 14.253 61.6537C18.7907 58.0512 21.8736 54.5699 23.5016 51.2099C24.5755 48.993 25.199 46.2046 25.3722 42.8445C26.1689 44.6111 26.5672 46.7761 26.5672 49.3394C26.5672 51.106 26.4287 52.6994 26.1516 54.1196L26.0476 55.7304C26.0823 56.4924 26.4113 56.0248 27.0349 54.3275C27.5891 51.7988 28.559 49.0103 29.9446 45.9621C32.7503 39.9348 36.3182 35.4837 40.6481 32.6086C39.6782 34.0981 38.8988 35.6223 38.3099 37.181C37.7211 38.7398 37.4266 40.0388 37.4266 41.0779C37.4266 41.84 37.5998 42.3769 37.9462 42.6887C38.6737 43.3468 39.7821 42.8965 41.2716 41.3377L43.7656 37.8565L46.0518 33.44C47.7145 30.1492 49.0308 27.8111 50.0007 26.4255C51.5941 24.174 53.2568 22.7711 54.9888 22.2168C53.9496 23.6371 53.43 25.2305 53.43 26.9971C53.43 27.9323 53.5512 28.6598 53.7937 29.1793C54.1401 30.2185 54.677 30.7381 55.4044 30.7381C56.2011 30.7728 56.9459 30.0626 57.6387 28.6078C59.4053 24.6243 61.4663 21.4548 63.8218 19.0993C65.3806 17.5405 68.3422 15.289 72.7068 12.3446L75.4606 10.4741Z" fill="#E50020"/>
<path d="M49.4292 38.012C50.4683 37.1806 51.1784 36.8516 51.5595 37.0248C51.8019 37.0941 51.6114 37.527 50.9879 38.3237C49.3252 40.7831 48.39 42.671 48.1821 43.9873C48.1129 44.5069 48.2168 46.3427 48.4939 49.4949C48.7364 52.4739 48.1648 55.2624 46.7792 57.8603C45.7401 59.7308 44.1293 61.6879 41.9471 63.7317C39.7648 65.8447 38.4485 67.8018 37.9982 69.603C37.4786 71.6121 37.5998 72.9284 38.3619 73.5519C39.0893 74.1754 39.5916 73.9849 39.8687 72.9804C40.4922 70.8327 41.2716 69.1008 42.2069 67.7845C43.0036 66.6067 44.0947 65.5329 45.4803 64.563C46.0691 64.182 46.4155 63.9915 46.5195 63.9915C46.6927 63.9915 46.6753 64.2686 46.4675 64.8228C44.5623 69.9148 44.0947 72.7898 45.0646 73.448C45.3764 73.5865 45.8786 73.3441 46.5714 72.7206C47.3681 72.0278 48.0782 71.1445 48.7017 70.0707C50.4337 67.2649 51.2997 64.8228 51.2997 62.7444C51.2997 61.151 51.5941 60.9952 52.183 62.2768C52.4601 62.8657 52.6333 63.749 52.7026 64.9267C52.7718 66.3816 52.6506 67.7498 52.3389 69.0315C51.5422 72.0797 49.0308 75.8901 44.8048 80.4624C41.7219 83.7878 40.319 86.5243 40.5961 88.672C40.804 90.1961 41.4275 90.9928 42.4667 91.0621C43.3326 91.0621 44.2852 90.6118 45.3244 89.7111C46.5714 88.6027 47.576 87.0266 48.338 84.9829C48.5459 84.394 48.7364 84.0823 48.9096 84.0476C49.0828 83.9783 49.2733 84.2381 49.4811 84.827C50.4857 87.5981 50.3991 90.2307 49.2213 92.7248C47.905 95.3573 45.8613 96.8122 43.0902 97.0893C42.0163 97.1932 40.8732 97.5569 39.6609 98.1804C38.4485 98.7693 37.392 99.4794 36.4914 100.311L32.6464 103.013C31.9536 103.601 31.1396 103.965 30.2043 104.104L27.7623 103.948C26.9656 103.74 26.013 102.787 24.9045 101.09L23.5536 99.4275L21.8909 97.2452L20.4361 94.2835C17.2492 85.8315 17.3705 78.869 20.7998 73.396C21.9082 71.6987 22.3932 71.5255 22.2546 72.8764C22.1853 74.1581 22.3759 75.2492 22.8262 76.1499C23.3111 77.0851 23.9 77.4835 24.5928 77.3449C25.1124 77.241 25.5627 76.5655 25.9437 75.3185C26.3247 74.0022 26.5153 72.4434 26.5153 70.6422C26.5499 66.3123 28.1953 62.2941 31.4514 58.5877C34.0147 55.678 36.0757 54.1019 37.6345 53.8595C38.2233 53.8248 38.2926 54.0846 37.8423 54.6389C35.66 57.2368 34.3091 59.4537 33.7895 61.2896C33.3392 62.8137 33.4951 63.6451 34.2571 63.7836C35.331 63.9222 36.5087 63.1601 37.7903 61.4974C39.1413 59.7308 40.7347 56.8038 42.5706 52.7164L44.2333 48.8714C44.6489 47.659 44.8914 46.412 44.9607 45.1304C45.0992 42.4978 46.5887 40.125 49.4292 38.012Z" fill="#EFE908"/>
<path d="M72.4989 195.5C73.6767 191.343 77.5736 189.577 84.1897 190.2C89.8013 190.72 96.7291 192.867 104.973 196.643C112.421 200.072 119.071 203.935 124.926 208.23C130.918 212.594 134.036 215.937 134.278 218.258C134.694 222.519 131.316 230.936 124.146 243.51C117.495 255.218 112.646 262.284 109.598 264.709C115.521 271.741 118.171 276.85 117.547 280.037C117.305 281.319 116.474 282.548 115.053 283.726L110.533 286.948C107.45 289.061 100.262 290.204 88.9699 290.377C78.1278 290.516 71.7022 289.875 69.6932 288.454C66.16 285.926 64.2028 284.367 63.8218 283.778C62.0206 281.215 62.2457 277.751 64.4973 273.386C67.8919 266.736 69.7624 261.384 70.1088 257.331C70.3859 253.59 69.3987 249.849 67.1472 246.108C65.5538 243.441 64.2894 240.496 63.3542 237.275C61.7261 231.594 61.7781 226.589 63.51 222.259L67.2511 212.75L72.4989 195.5Z" fill="#E73820"/>
<path d="M116.3 241.639C124.302 231.074 128.39 220.873 128.563 211.036C132.165 214.084 134.07 216.491 134.278 218.258C134.694 222.519 131.317 230.936 124.146 243.51C117.495 255.218 112.646 262.284 109.598 264.709C114.274 270.252 116.907 274.529 117.495 277.543C117.98 279.933 117.149 282.012 115.001 283.778C110.914 279.136 107.173 275.534 103.778 272.971C101.596 271.308 98.2533 269.212 93.7502 266.684C90.5288 264.848 89.8533 263.116 91.7238 261.488C92.382 260.934 95.0838 259.565 99.8294 257.383C104.506 255.201 109.996 249.953 116.3 241.639Z" fill="#C82E19"/>
<path d="M71.6158 195.292C72.4818 193.283 73.1226 192.4 73.5383 192.642C73.9539 192.885 73.902 193.907 73.3824 195.708L69.4335 208.178L64.3415 222.571C62.6442 226.797 62.6442 231.733 64.3415 237.379C65.2422 240.427 66.4372 243.181 67.9267 245.64C70.3514 249.658 71.3733 253.694 70.9923 257.747C70.6112 261.8 68.7234 267.151 65.3287 273.802C63.4582 277.405 63.0252 280.28 64.0298 282.427C64.6186 283.674 66.1601 285.094 68.6541 286.688L70.2129 287.727C72.0141 289.009 78.1972 289.598 88.7622 289.494C99.8814 289.39 106.965 288.281 110.013 286.168L111.468 285.181C113.2 284.038 114.378 283.172 115.001 282.583C115.971 281.648 116.526 280.661 116.664 279.621C116.907 278.132 116.456 276.296 115.313 274.114C114.136 271.862 112.126 269.056 109.286 265.696C106.827 267.013 105.389 267.411 104.973 266.892C104.662 266.511 104.662 266.181 104.973 265.904L107.364 263.982C111.728 260.449 117.045 253.815 123.315 244.082C130.728 232.581 134.07 224.008 133.343 218.362L135.162 218.154L135.265 219.817C135.265 226.156 132.546 233.95 127.108 243.198C122.362 251.235 116.941 258.266 110.845 264.294C113.789 267.896 115.902 270.719 117.184 272.763C118.812 275.292 119.626 277.335 119.626 278.894L119.158 280.817C118.95 282.133 118.154 283.259 116.768 284.194L112.507 286.688L111.053 287.675C107.797 289.927 100.47 291.139 89.074 291.312C78.0587 291.52 71.4253 290.81 69.1737 289.182L66.4718 288.299C63.8046 286.636 62.1419 285.112 61.4838 283.726C60.2368 281.198 60.6871 277.82 62.8347 273.594C66.1601 267.117 67.7881 261.315 67.7189 256.188C67.6842 252.101 66.5411 248.204 64.2896 244.497C62.4883 241.553 61.224 238.868 60.4966 236.444C58.9724 231.386 59.111 226.606 60.9122 222.103L71.6158 195.292Z" fill="#0D131A"/>
<path d="M75.8244 276.036C77.591 274.72 78.8726 274.408 79.6693 275.101C80.7778 275.967 81.9035 277.439 83.0466 279.517C84.4669 282.011 85.2636 284.384 85.4368 286.636C85.61 288.61 85.3502 290.706 84.6574 292.923C83.9299 295.347 82.8561 297.339 81.4359 298.898C81.1242 299.279 80.6565 299.4 80.033 299.262C78.7514 299.019 76.725 297.235 73.9538 293.91C71.4944 290.931 69.9876 288.766 69.4334 287.415C69.0524 286.411 69.6239 284.557 71.148 281.855C72.6722 279.154 74.2309 277.214 75.8244 276.036Z" fill="#0D131A"/>
<path d="M78.9938 277.231C80.0676 278.097 81.0722 279.275 82.0074 280.764C83.2198 282.739 83.9126 284.731 84.0858 286.74V287.623C84.0858 290.637 82.8734 293.477 80.4487 296.144C79.7905 296.283 78.1279 295.088 75.4606 292.559C72.7934 289.996 71.2173 288.125 70.7324 286.948C70.4899 286.393 71.0268 285.077 72.3431 282.999C73.7287 280.747 75.2008 279.05 76.7596 277.907C77.7988 277.145 78.5435 276.919 78.9938 277.231Z" fill="#FFF3C2"/>
<path d="M79.6174 293.027C80.0331 293.027 80.6566 292.697 81.4879 292.039C82.4232 291.312 83.2372 290.446 83.93 289.441C83.5143 291.797 82.3539 294.031 80.4488 296.144C79.7906 296.283 78.1279 295.088 75.4607 292.559C72.7935 289.996 71.2174 288.125 70.7324 286.947C70.5246 286.497 70.9576 285.354 72.0314 283.518C73.2784 286.462 74.8199 288.904 76.6558 290.844C78.0413 292.299 79.0286 293.027 79.6174 293.027Z" fill="#DBD2A9"/>
<path d="M98.0108 275.88C98.8768 275.361 100.193 275.811 101.96 277.231C103.553 278.513 104.939 280.071 106.116 281.907C107.433 284.02 108.403 287.242 109.026 291.572C109.615 295.694 109.598 297.997 108.974 298.482C108.42 298.967 107.467 299.071 106.116 298.794L103.103 297.911C100.643 297.045 98.0454 295.607 95.3089 293.598C92.8149 291.797 91.3947 290.446 91.0483 289.545C90.6326 288.575 91.2561 286.324 92.9188 282.791C94.6508 279.119 96.3481 276.815 98.0108 275.88Z" fill="#0D131A"/>
<path d="M101.596 279.465C103.051 280.574 104.125 281.682 104.817 282.791C106.168 284.938 107.086 287.38 107.571 290.117C108.022 292.715 107.918 294.603 107.259 295.78C107.121 296.057 106.774 296.213 106.22 296.248C104.454 296.283 101.925 295.33 98.6343 293.39C95.586 291.658 93.7501 290.29 93.1266 289.285C92.607 288.489 93.1093 286.584 94.6334 283.57C96.1229 280.66 97.3699 278.876 98.3745 278.218C98.998 277.872 100.072 278.287 101.596 279.465Z" fill="#FFF3C2"/>
<path d="M94.3217 284.194C96.9197 287.346 99.3964 289.771 101.752 291.468C104.281 293.269 106.29 293.962 107.779 293.546C107.71 294.516 107.537 295.261 107.26 295.78C107.121 296.058 106.775 296.213 106.22 296.248C104.454 296.283 101.925 295.33 98.6343 293.39C95.5861 291.658 93.7502 290.29 93.1267 289.286C92.6417 288.558 93.0401 286.861 94.3217 284.194Z" fill="#DBD2A9"/>
<path d="M115.469 273.542C117.236 273.438 119.782 275.395 123.107 279.414C126.502 283.536 128.32 286.982 128.563 289.753C128.598 290.134 128.338 290.342 127.783 290.377L126.692 290.325C125.03 290.498 121.999 290.117 117.6 289.182C113.235 288.281 110.828 287.537 110.377 286.948C110.065 286.532 109.944 285.597 110.014 284.142C110.083 282.756 110.308 281.44 110.689 280.193C111.139 278.6 111.694 277.231 112.352 276.088C113.322 274.46 114.361 273.612 115.469 273.542Z" fill="#0D131A"/>
<path d="M115.833 275.361C116.456 275.465 117.738 276.608 119.678 278.79C121.791 281.111 123.436 283.345 124.614 285.493C125.306 286.809 125.653 287.744 125.653 288.298L125.601 288.61C124.977 288.991 122.691 288.731 118.742 287.831C114.863 286.93 112.576 286.203 111.884 285.648L111.78 284.713C111.78 282.877 112.161 280.989 112.923 279.05C113.685 277.11 114.655 275.88 115.833 275.361Z" fill="#FFF3C2"/>
<path d="M112.3 280.972L112.923 279.05C113.685 277.11 114.655 275.88 115.833 275.361C116.456 275.465 117.738 276.608 119.678 278.79C121.791 281.111 123.436 283.345 124.614 285.493C125.307 286.809 125.653 287.744 125.653 288.298L125.601 288.61C124.839 289.026 122.293 288.697 117.963 287.623C117.721 286.93 117.08 285.995 116.041 284.817L112.3 280.972Z" fill="#DBD2A9"/>
<path d="M107.987 230.364C108.091 229.048 110.117 228.511 114.066 228.754C116.352 228.858 118.24 229.602 119.73 230.988C121.496 232.616 122.397 234.937 122.432 237.95C122.466 240.583 122.743 245.155 123.263 251.667L124.198 260.085C124.406 262.475 124.233 263.809 123.679 264.086C123.367 264.259 122.865 263.999 122.172 263.306L120.769 261.851C118.171 259.427 115.383 255.183 112.404 249.122C108.905 241.951 107.381 236.132 107.831 231.663L107.987 230.364Z" fill="#0D131A"/>
<path d="M113.962 230.104C115.521 230.139 116.907 230.589 118.119 231.455C120.059 232.806 121.046 234.971 121.081 237.95C121.115 241.691 121.392 246.298 121.912 251.771L122.38 258.474L122.12 260.24L121.392 259.721C119.141 257.608 116.699 253.849 114.066 248.446C111.087 242.315 109.598 237.136 109.598 232.91L109.702 231.351C109.736 231.074 110.135 230.797 110.897 230.52L113.962 230.104Z" fill="#FFF3C2"/>
<path d="M110.897 230.52L113.962 230.104C115.521 230.139 116.907 230.589 118.119 231.455C120.059 232.806 121.046 234.971 121.081 237.95C121.115 241.691 121.392 246.298 121.912 251.771L122.38 258.474L122.224 260.033C121.739 256.499 121.098 252.966 120.301 249.433C119.401 245.449 118.604 242.852 117.911 241.639C117.391 240.773 116.387 239.855 114.897 238.885C113.443 237.915 111.78 237.067 109.909 236.339C109.702 235.162 109.598 234.018 109.598 232.91L109.702 231.351C109.736 231.074 110.135 230.797 110.897 230.52Z" fill="#DBD2A9"/>
<path d="M164.622 146.087C158.837 149.585 153.866 152.651 149.71 155.284C141.777 160.341 136.945 163.874 135.213 165.883C134.451 169.07 136.045 177.332 139.993 190.668C144.185 204.766 146.28 212.196 146.28 212.958C146.28 218.189 144.566 223.54 141.137 229.013C136.148 236.911 129.186 239.717 120.249 237.431L114.274 235.56C111.78 234.694 109.805 233.43 108.35 231.767C104.194 227.091 102.704 217.409 103.882 202.722C104.644 193.404 105.475 186.009 106.376 180.536C107.554 173.4 109.113 167.702 111.052 163.441C112.854 159.423 116.179 155.873 121.028 152.79C123.211 151.404 127.021 149.499 132.459 147.074C135.196 145.896 138.573 143.125 142.591 138.761C145.64 135.47 148.047 132.474 149.814 129.772C150.991 127.971 153.884 126.55 158.491 125.511L169.246 125.147C171.706 125.875 172.173 129.183 170.649 135.072C169.16 140.822 167.151 144.494 164.622 146.087Z" fill="#E73820"/>
<path d="M138.383 200.592L138.747 186.303L143.735 202.93C145.397 208.507 146.246 211.85 146.281 212.958C146.281 217.115 144.999 221.705 142.436 226.727C138.799 233.863 133.707 237.656 127.16 238.106C132.529 233.049 135.924 225.272 137.344 214.777C137.863 211.07 138.21 206.342 138.383 200.592Z" fill="#C82E19"/>
<path d="M156.361 124.368C160.171 123.364 164.501 123.329 169.35 124.264C170.667 124.507 171.255 124.87 171.117 125.355C170.944 125.84 170.008 125.996 168.311 125.823C164.639 125.442 161.123 125.736 157.763 126.706C154.265 127.711 151.754 129.2 150.229 131.175C146.8 135.609 144.064 138.882 142.02 140.995C138.833 144.32 135.767 146.624 132.823 147.906L131.576 148.477C126.761 150.625 123.159 152.478 120.769 154.037C116.508 156.912 113.546 160.168 111.884 163.805C108.35 171.564 105.995 184.554 104.817 202.774C104.609 205.753 104.506 208.438 104.506 210.828C104.506 219.938 105.891 226.398 108.662 230.209C110.29 232.425 113.2 234.192 117.391 235.508L120.457 236.548C126.38 238.037 131.42 237.171 135.577 233.95C138.833 231.421 141.396 227.628 143.267 222.571C144.652 218.76 145.345 215.556 145.345 212.958C145.345 211.988 144.081 207.295 141.552 198.877C136.252 181.558 133.845 170.49 134.33 165.676C134.607 163.182 135.04 162.125 135.629 162.506C135.941 162.714 136.218 163.164 136.46 163.857C138.296 161.779 142.938 158.384 150.385 153.673C156.516 149.759 160.829 147.178 163.323 145.931C164.847 145.169 165.73 144.909 165.973 145.152C166.215 145.394 165.644 146.174 164.258 147.49L151.113 156.115C143.25 161.069 138.469 164.463 136.772 166.299C136.737 169.001 137.482 173.833 139.006 180.796C140.426 187.135 142.003 193.127 143.735 198.773L146.644 208.542C147.545 211.625 147.995 213.582 147.995 214.413C147.995 217.011 147.146 220.25 145.449 224.129C143.267 229.014 140.409 232.841 136.876 235.612C132.338 239.146 126.709 240.046 119.989 238.314L114.897 237.275C110.082 235.786 106.861 233.621 105.233 230.78C102.462 225.861 101.509 216.838 102.375 203.71C103.068 193.352 103.882 185.212 104.817 179.289C105.891 172.43 107.311 167.061 109.078 163.182C110.845 159.302 114.153 155.821 119.002 152.738C121.358 151.214 125.306 149.239 130.849 146.814L132.096 146.295C135.837 144.424 139.266 141.463 142.384 137.41L147.943 129.46C150.056 127.001 152.862 125.303 156.361 124.368Z" fill="#0D131A"/>
<path d="M142.124 216.335C144.029 213.252 145.536 211.953 146.644 212.438C147.961 212.992 149.138 214.257 150.178 216.231C151.044 217.894 151.702 219.834 152.152 222.051C154.057 231.819 154.178 239.041 152.516 243.718L150.957 247.043C150.299 248.047 149.779 248.515 149.398 248.446C148.948 248.377 148.428 247.597 147.839 246.108L146.385 242.315C144.341 237.396 141.708 233.204 138.487 229.741L138.019 229.481C137.153 228.753 137.344 226.744 138.591 223.454C139.561 220.856 140.738 218.483 142.124 216.335Z" fill="#0D131A"/>
<path d="M139.318 227.714C139.318 226.536 139.786 224.718 140.721 222.259C141.726 219.591 142.834 217.444 144.046 215.816C144.982 214.603 145.64 214.101 146.021 214.309C146.887 214.69 147.701 215.66 148.463 217.219C149.225 218.847 149.848 220.908 150.333 223.402C151.13 227.454 151.459 231.611 151.321 235.872C151.182 239.994 150.714 242.453 149.918 243.25L149.398 243.614C149.121 243.579 148.619 242.644 147.891 240.808L145.086 234.988C143.561 232.46 141.691 230.243 139.474 228.338C139.37 228.234 139.318 228.026 139.318 227.714Z" fill="#FFF3C2"/>
<path d="M146.073 218.933L147.839 224.857C148.359 227.351 148.705 230.26 148.879 233.586C149.086 236.946 149.069 240.029 148.827 242.834L147.891 240.808L145.086 234.989C143.561 232.46 141.691 230.243 139.474 228.338C139.37 228.234 139.318 228.026 139.318 227.714C139.318 226.537 139.786 224.718 140.721 222.259C141.726 219.591 142.834 217.444 144.046 215.816L144.826 214.984C144.93 215.573 145.345 216.89 146.073 218.933Z" fill="#DBD2A9"/>
<path d="M132.044 226.415C134.677 228.147 136.27 230.953 136.824 234.833L138.799 246.887L141.033 258.37C141.449 261.176 141.293 262.7 140.565 262.943C139.249 263.393 135.733 260.068 130.018 252.967C124.545 246.177 121.375 241.605 120.509 239.249C117.842 232.114 117.513 227.368 119.522 225.013C119.938 224.493 120.63 224.164 121.6 224.025L124.25 224.077L125.393 224.233C128.234 224.614 130.451 225.342 132.044 226.415Z" fill="#0D131A"/>
<path d="M137.448 247.147C138.625 253.278 139.214 256.967 139.214 258.214L139.058 259.149C137.811 258.664 134.902 255.581 130.329 249.901C125.688 244.116 122.934 240.046 122.068 237.69C121.029 234.642 120.509 231.957 120.509 229.637C120.509 228.008 120.803 226.831 121.392 226.103C121.947 225.445 122.813 225.22 123.99 225.428L125.237 225.584C127.974 225.965 130 226.623 131.316 227.558C133.533 229.152 134.919 231.94 135.473 235.924L137.448 247.147Z" fill="#FFF3C2"/>
<path d="M133.915 240.86C133.153 237.812 133.083 234.278 133.707 230.26C134.538 231.784 135.127 233.672 135.473 235.924L137.448 247.147C138.626 253.278 139.214 256.967 139.214 258.214L139.059 259.149L138.695 258.942L136.045 248.914L133.915 240.86Z" fill="#DBD2A9"/>
<path d="M206.137 63.3164C206.761 63.4896 207.263 64.0265 207.644 64.9271C207.99 65.7585 208.164 66.7457 208.164 67.8888C208.164 69.1012 207.886 70.1403 207.332 71.0063C206.813 71.8723 206.172 72.3053 205.41 72.3053C204.648 72.3053 203.99 71.8723 203.435 71.0063C202.881 70.1403 202.604 69.1012 202.604 67.8888C202.604 67.0921 202.743 66.33 203.02 65.6026L206.137 63.3164Z" fill="white"/>
</g>
<defs>
<radialGradient id="paint0_radial_864_444" cx="0" cy="0" r="1" gradientUnits="userSpaceOnUse" gradientTransform="translate(150 150) rotate(90) scale(200)">
<stop stop-color="#FFF3C2"/>
<stop offset="1" stop-color="#E73820"/>
</radialGradient>
<clipPath id="clip0_864_444">
<rect width="300" height="300" fill="white"/>
</clipPath>
</defs>
</svg>
