<svg xmlns="http://www.w3.org/2000/svg" fill="none" viewBox="0 0 300 300"><g clip-path="url(#a)"><path fill="#fff" d="M0 0h300v300H0z"/><path fill="url(#b)" d="M-50-50h400v400H-50z"/><path fill="#0D131A" d="M167.999 67.11c.936 2.424 1.403 4.745 1.403 6.962l-.052.987c-.173 1.42-.606 2.286-1.299 2.598-.623.243-1.316.07-2.078-.52-1.732-1.42-3.066-4.26-4.001-8.52-.9-4.054-.97-6.6-.208-7.639l1.092-.052 1.195.52c1.593 1.004 2.909 2.892 3.948 5.663Z"/><path fill="#3D62AC" d="M166.857 76.098c-1.109-.935-1.975-2.667-2.598-5.196a24.78 24.78 0 0 1-.78-6.13l.208-1.923c1.282 1.039 2.356 2.736 3.222 5.092.762 2.182 1.143 4.226 1.143 6.13l-.052.832c-.07.9-.225 1.403-.468 1.507l-.675-.312Z"/><path fill="#0D131A" d="m166.389 70.279.156 1.922c-.069.59-.208.918-.416.988-.242.069-.485-.14-.727-.624-.243-.485-.433-1.091-.572-1.819l-.156-1.922c.07-.589.208-.918.416-.987.242-.035.485.173.727.623l.572 1.819ZM289.116 209.165l1.559-.623c.554-.174.97-.018 1.247.467h.571c1.732 3.222 1.698 8.14-.104 14.756-1.593 5.889-3.498 10.063-5.715 12.523-.554.623-1.091.831-1.611.623-.589-.208-.987-1.126-1.195-2.754-.104-.796-.225-2.979-.364-6.547l-.311-5.819c-.174-2.217.398-4.763 1.714-7.638 1.351-2.91 2.754-4.572 4.209-4.988Z"/><path fill="#FFF3C2" d="M289.48 210.464c.415-.104.744.104.987.623.727 1.317 1.091 3.049 1.091 5.196 0 3.222-.745 6.963-2.234 11.223-1.282 3.707-2.46 6.149-3.534 7.327l-.155.156c-.347-.555-.607-3.031-.78-7.431l-.312-6.546c0-1.975.572-4.157 1.715-6.547 1.143-2.39 2.217-3.724 3.222-4.001Z"/><path fill="#DBD2A9" d="m290.467 211.087.779 2.079-1.766 2.026c-1.663 2.598-2.806 9.041-3.43 19.329l-.415.468c-.347-.555-.607-3.031-.78-7.431l-.312-6.546c0-1.975.572-4.157 1.715-6.547 1.143-2.39 2.217-3.724 3.222-4.001.415-.104.744.104.987.623Z"/><path fill="#0D131A" d="M220.01 137.202c1.386 2.771 3.707 5.196 6.963 7.274 2.425 1.594 6.252 3.447 11.483 5.56l10.496 4.157c2.736 1.212 4.936 2.632 6.598 4.26 4.954 4.919 11.397 11.76 19.329 20.524 8.106 8.937 13.128 14.791 15.068 17.562 1.975 2.806 3.239 5.733 3.793 8.781.52 3.014.26 5.716-.779 8.106-1.316 3.048-4.746 4.919-10.288 5.611l-19.433.572c-4.087-.97-7.066-3.828-8.937-8.573-3.671-9.457-7.412-18.29-11.223-26.499-5.785-12.436-10.011-19.468-12.678-21.096-3.637-2.182-7.898-4.191-12.782-6.027l-14.964-4.988c-2.736-.901-4.434-3.377-5.092-7.43-.519-3.291-.329-6.859.572-10.704.589-2.528 1.524-4.451 2.806-5.767 1.247-1.247 2.736-1.836 4.468-1.767 6.374.243 11.24 3.724 14.6 10.444Z"/><path fill="#E73820" d="M237.78 151.75c4.122 1.697 7.084 2.962 8.885 3.793 3.014 1.455 5.092 2.771 6.235 3.949 5.439 5.404 11.934 12.158 19.485 20.264 8.348 8.937 13.44 14.687 15.276 17.25 1.801 2.529 2.962 5.11 3.481 7.742.485 2.598.277 4.936-.623 7.015-1.386 3.117-4.07 4.953-8.054 5.507-8.902 1.109-15.172.988-18.809-.363-3.221-1.213-5.698-4.036-7.43-8.47a419.285 419.285 0 0 0-9.405-21.667c-6.893-14.652-12.072-22.948-15.535-24.888-6.859-3.949-15.779-7.69-26.759-11.223-2.148-.728-3.672-2.789-4.573-6.183-.796-3.187-.814-6.46-.052-9.82.347-1.49.832-2.754 1.455-3.793 1.074-1.732 2.338-2.494 3.793-2.287 2.979.416 5.508 1.576 7.586 3.482 1.282 1.177 3.152 3.55 5.612 7.118l1.974 2.806c1.143 1.628 3.412 3.308 6.807 5.04 1.974 1.039 5.525 2.615 10.651 4.728Z"/><path fill="#C82E19" d="M276.178 216.075c6.963-1.074 11.968-3.186 15.016-6.339l-.675 2.027c-1.386 3.117-4.07 4.953-8.054 5.507l-15.068.52c-3.395-.45-5.992-1.628-7.794-3.533 6.997 1.836 12.522 2.442 16.575 1.818ZM205.15 128.576c2.252.312 4.192 1.022 5.82 2.131 1.385.9 2.805 2.269 4.26 4.104.208 7.205 1.853 14.393 4.936 21.563-4.433-1.87-9.647-3.775-15.639-5.715-2.148-.728-3.672-2.789-4.573-6.183-.796-3.187-.814-6.46-.052-9.82.347-1.49.832-2.754 1.455-3.793 1.074-1.732 2.338-2.494 3.793-2.287Z"/><path fill="#0D131A" d="M284.803 205.736c1.178 2.043 1.732 5.473 1.663 10.288-.069 5.576-1.056 10.876-2.962 15.899l-1.662 3.221c-.797 1.213-1.42 1.802-1.871 1.767-.45-.035-1.056-.918-1.818-2.65l-3.014-8.729c-1.559-4.884-2.373-7.984-2.442-9.301-.035-1.385 1.178-3.446 3.637-6.183 2.425-2.702 4.451-4.295 6.079-4.78 1.213-.346 2.009-.19 2.39.468Z"/><path fill="#FFF3C2" d="M283.4 207.086c.97 1.698 1.299 5.647.987 11.847-.277 6.478-1.16 10.963-2.649 13.457l-1.144 1.455-.415.208-.572-.727-2.806-8.678c-1.454-4.814-2.199-7.863-2.234-9.144-.069-.936.884-2.477 2.858-4.625 2.009-2.182 3.724-3.481 5.144-3.897l.831.104Z"/><path fill="#DBD2A9" d="M274.567 215.504c-.034-.658.606-1.836 1.923-3.533.311 2.771.97 6.477 1.974 11.119.935 4.399 1.784 7.846 2.546 10.34l-.623.571-.208.052-.572-.727-2.806-8.677c-1.454-4.815-2.199-7.863-2.234-9.145Z"/><path fill="#0D131A" d="M265.007 201.995c1.628-.277 2.719.104 3.274 1.143 1.073 1.94 1.368 5.577.883 10.911-.624 6.582-2.529 12.366-5.716 17.354-.277.451-.675.537-1.195.26-1.074-.485-2.442-3.914-4.104-10.288-1.559-5.958-2.269-9.508-2.131-10.651.139-1.039 1.247-2.633 3.326-4.78 2.216-2.321 4.104-3.638 5.663-3.949Z"/><path fill="#FFF3C2" d="M266.877 204.853c.347.623.52 2.13.52 4.52a45.17 45.17 0 0 1-1.091 9.872c-.901 4.088-2.217 7.223-3.949 9.405-.693-1.005-1.645-3.949-2.858-8.833-1.212-4.746-1.818-7.846-1.818-9.301l.052-.312c.104-.692.952-1.801 2.546-3.325 1.766-1.697 3.308-2.667 4.624-2.91.935-.138 1.593.156 1.974.884Z"/><path fill="#DBD2A9" d="M257.733 210.204c.069-.554.796-1.559 2.182-3.014a209.967 209.967 0 0 0 1.715 10.756c.796 4.399 1.489 7.257 2.078 8.573l-1.351 2.13c-.693-1.004-1.645-3.948-2.858-8.833-1.212-4.745-1.818-7.845-1.818-9.3l.052-.312Z"/><path fill="#0D131A" d="M204.423 274.269c.208-1.212 1.507-2.701 3.897-4.468 2.251-1.697 3.758-2.494 4.52-2.39.797.138 3.118 1.264 6.963 3.377 4.191 2.321 6.477 3.984 6.858 4.988.173.381.139.71-.104.987-.658.797-3.793 1.057-9.404.78l-11.12-1.247c-.762-.173-1.264-.52-1.506-1.039-.174-.347-.208-.676-.104-.988Z"/><path fill="#FFF3C2" d="M205.722 274.581c.034-.762 1.073-1.905 3.117-3.429 1.905-1.455 3.204-2.234 3.897-2.338.762.173 2.858 1.212 6.287 3.117 3.499 1.94 5.248 3.083 5.248 3.43l-7.274.467-10.652-.883c-.415-.069-.623-.191-.623-.364Z"/><path fill="#DBD2A9" d="M206.345 274.945c-.415-.069-.623-.191-.623-.364.034-.831 1.16-2.044 3.377-3.637 4.676 1.559 9.716 3.014 15.12 4.365l.052.052-7.274.467-10.652-.883Z"/><path fill="#0D131A" d="m188.471 198.098 2.858-.364c.658-.035 1.057.138 1.195.519l4.625 12.834a41.066 41.066 0 0 0 6.858 10.86c5.889 6.65 9.353 11.881 10.392 15.691 1.767 6.305.19 14.116-4.728 23.434-.174.346-.052.814.363 1.403l1.767 1.974c2.702 2.702 4.313 4.607 4.832 5.716.52 1.143.589 2.234.208 3.273l-1.974 2.91c-2.113 2.632-6.149 4.52-12.107 5.663l-12.678.416-14.496-2.65c-9.699-1.974-14.965-3.551-15.796-4.728-.901-1.282-.797-3.516.312-6.703.831-2.39 1.836-4.52 3.013-6.391.797-1.247 1.282-2.338 1.455-3.273.174-1.04.035-2.096-.415-3.17-.797-1.732-3.274-3.55-7.43-5.456-2.564-1.143-7.517-2.996-14.861-5.559l.416-.935.675-1.767c.381-3.499 6.703-11.396 18.965-23.693 12.678-12.713 21.529-19.381 26.551-20.004Z"/><path fill="#E73820" d="M190.446 200.748c1.94 5.507 3.758 9.941 5.456 13.301 2.009 3.984 4.329 7.534 6.962 10.652 5.092 5.992 8.088 10.928 8.989 14.808 1.247 5.404-.017 12.349-3.793 20.836-.381.866-.277 1.801.312 2.805.311.555 1.022 1.403 2.13 2.546 1.524 1.524 2.477 2.719 2.858 3.585.9 1.94.693 3.707-.624 5.3-1.87 2.321-5.455 4.088-10.755 5.3-4.815 1.109-8.66 1.368-11.535.779l-17.51-3.637c-6.409-1.454-9.873-2.615-10.392-3.481-.485-.797 0-3.498 1.455-8.106l2.39-7.793c0-.936-.191-1.888-.572-2.858-1.974-4.434-8.989-8.729-21.043-12.886.104-2.702 5.958-9.924 17.562-21.667 12.055-12.193 20.628-18.93 25.72-20.212 1.247-.312 2.043-.069 2.39.728Z"/><path fill="#C82E19" d="M188.056 200.02c1.247-.312 2.043-.069 2.39.728 1.559 4.433 3.013 8.105 4.364 11.015 1.559 3.36 3.239 6.374 5.04 9.041-6.131 3.672-11.396 8.261-15.795 13.769-5.438 6.858-7.326 12.903-5.664 18.134.832 2.563.884 4.814.156 6.754-.519 1.42-1.628 2.997-3.325 4.728-1.94 1.975-2.841 3.707-2.702 5.196.104 1.455 1.212 2.633 3.325 3.534l6.599 2.234 4.832 1.091 4.053.831c.901.277 1.975.849 3.222 1.715l1.402 2.026-5.507-.156-11.483-2.39-10.704-2.39-.987-.311h-.052c-2.771-.797-4.33-1.473-4.676-2.027-.485-.797 0-3.498 1.455-8.106l2.39-7.793c0-.936-.191-1.888-.572-2.858-1.974-4.434-8.989-8.729-21.043-12.886.104-2.702 5.958-9.924 17.562-21.667 12.055-12.193 20.628-18.93 25.72-20.212Z"/><path fill="#0D131A" d="M203.591 276.036c.797-1.455 2.252-3.083 4.365-4.884 2.286-1.905 3.862-2.65 4.728-2.234.728.346 2.616 1.888 5.664 4.624 3.533 3.187 5.525 5.491 5.975 6.911.173.554.087.935-.26 1.143-.935.589-3.897.641-8.885.156-5.265-.52-8.833-1.351-10.703-2.494l-.78-.364c-.381-.208-.571-.45-.571-.727 0-.832.156-1.542.467-2.131Z"/><path fill="#FFF3C2" d="M205.202 277.959c0-.347.243-.953.728-1.819.866-1.351 2.009-2.702 3.429-4.053 1.351-1.281 2.269-1.922 2.754-1.922.727.381 2.563 1.992 5.507 4.832 3.049 2.91 4.521 4.538 4.417 4.884l-7.17.208c-4.815-.346-8.037-1.005-9.665-1.974v-.156Z"/><path fill="#DBD2A9" d="M214.295 280.089c-4.503-.381-7.534-1.039-9.093-1.975v-.155c0-.347.243-.953.728-1.819l.727-.987c4.85 1.87 9.924 3.481 15.224 4.832-.866.381-3.395.416-7.586.104Z"/><path fill="#0D131A" d="M200.422 271.412c2.355.97 4.538 2.65 6.547 5.04 1.628 1.939 2.823 3.914 3.585 5.923l.468 1.767c0 .311-.139.519-.416.623-1.178.52-4.746.26-10.704-.779-5.369-.936-8.625-1.646-9.768-2.131-.797-.381-1.195-.762-1.195-1.143.035-.97 1.403-2.667 4.105-5.092 2.459-2.217 4.191-3.55 5.196-4.001l1.454-.467.728.26Z"/><path fill="#FFF3C2" d="m205.306 277.387 2.806 3.741c.658 1.108.849 1.749.572 1.922l-8.314-.675c-4.676-.797-7.742-1.455-9.197-1.974.243-.693 1.369-2.061 3.378-4.105 2.009-2.009 3.377-3.135 4.104-3.378.589-.207 1.525.122 2.806.988 1.213.831 2.494 1.991 3.845 3.481Z"/><path fill="#DBD2A9" d="M191.173 280.401c.104-.347.537-.97 1.299-1.871 8.071 1.974 13.406 3.083 16.004 3.325.311.659.381 1.057.208 1.195l-8.314-.675c-4.676-.797-7.742-1.455-9.197-1.974Z"/><path fill="#0D131A" d="M232.429.965c.519-.83 2.061-1.125 4.624-.883 2.529.208 4.642.797 6.339 1.767 2.91 1.593 4.365 3.706 4.365 6.339 0 1.039-.485 2.46-1.455 4.26l-7.95 14.03-5.819 9.871c4.226 5.508 7.776 11.657 10.651 18.446 3.222 7.586 4.832 14.358 4.832 20.316 0 4.226-1.42 8.434-4.26 12.626-2.633 3.88-7.344 8.954-14.133 15.224-15.311 14.167-22.966 26.499-22.966 36.995v.467c-.381 2.425-.554 5.3-.519 8.625l-.104 8.054c-.416 6.166-1.646 13.665-3.689 22.498-1.871 8.071-3.967 15.328-6.287 21.771-4.85 13.371-11.518 23.641-20.005 30.812-11.465 9.664-26.966 14.618-46.503 14.86l-38.346-1.195c-9.699-1.593-21.147-5.941-34.344-13.042-30.275-16.28-46.105-37.947-47.491-65-.554-10.565.52-21.407 3.222-32.527 2.32-9.699 6.113-20.506 11.379-32.422l.311-.676.728.156c2.528.555 4.174 1.369 4.936 2.442l3.533-1.922-.675 2.13c-1.351 4.503-1.75 10.756-1.195 18.757.762 11.674 3.931 21.494 9.508 29.461 4.503 6.408 10.01 11.241 16.523 14.497 6.755 3.394 15.05 5.334 24.888 5.819 1.594.104 4.122-1.022 7.586-3.377 2.529-1.698 5.958-4.382 10.288-8.054 7.863-6.616 18.948-13.994 33.254-22.134 2.217-1.317 6.114-3.014 11.691-5.092 7.897-2.979 13.561-5.733 16.99-8.262 5.716-4.295 9.716-10.236 12.003-17.822-.485.416-1.195.572-2.131.468-1.004-.069-2.009-.398-3.013-.987-4.053-2.356-7.309-5.092-9.769-8.21-2.701-3.43-4.052-6.928-4.052-10.496 0-3.152 1.073-6.2 3.221-9.144 2.044-2.772 4.971-5.335 8.781-7.69-3.498-5.023-5.906-9.44-7.222-13.25-1.074-3.117-1.351-5.507-.831-7.17.9-2.945 3.152-5.161 6.754-6.65 1.109-.486 1.888-.97 2.338-1.456l.832-1.714c1.316-3.776 3.446-6.755 6.391-8.937 3.602-2.667 11.032-6.426 22.29-11.275 7.136-3.083 14.791-7.31 22.966-12.678 6.962-4.573 10.807-7.448 11.535-8.626Z"/><path fill="#E73820" d="M243.028 4.862c1.213 1.074 1.819 2.304 1.819 3.69 0 .97-.277 1.956-.832 2.961l-8.313 14.808-4.832 8.106-3.066-3.014-1.195.052c-.069.658.173 1.334.728 2.027 1.212 1.455 3.481 4.97 6.806 10.547 4.261 7.17 7.17 13.042 8.729 17.614 1.663 4.884 2.494 8.937 2.494 12.159 0 4.157-1.299 8.279-3.897 12.366-2.598 4.157-7.066 9.162-13.405 15.016-6.027 5.577-10.981 11.171-14.86 16.783-5.577 8.002-8.366 15.328-8.366 21.978l.052.26c-.727 4.538-1.333 10.479-1.818 17.822-.554 8.348-1.265 14.774-2.131 19.277-1.454 7.378-3.983 14.756-7.586 22.134l-1.61 3.43c-5.3 11.604-10.981 20.246-17.043 25.927-10.877 10.184-25.442 15.38-43.697 15.588-33.115.416-57.97-4.711-74.561-15.38l-.884-.571c-11.881-7.621-20.766-14.826-26.655-21.615-10.6-12.159-16.315-26.309-17.146-42.451l-.156-5.715c0-8.937 1.247-18.013 3.741-27.227 2.078-7.759 5.473-16.973 10.184-27.642 1.801 1.697 3.706 2.096 5.716 1.195-1.282 6.097-1.923 11.171-1.923 15.224 0 6.166.64 12.037 1.922 17.614 1.629 7.067 4.21 13.111 7.742 18.134 4.504 6.408 11.31 11.604 20.42 15.588 8.903 3.879 17.077 5.386 24.525 4.52 2.044-.208 4.416-1.178 7.118-2.91 2.39-1.489 5.577-3.914 9.561-7.274 5.542-4.676 10.218-8.452 14.029-11.327a202.39 202.39 0 0 1 19.9-13.042c2.251-1.316 6.079-2.979 11.483-4.988 7.863-2.91 13.613-5.698 17.25-8.365 6.027-4.469 10.253-10.617 12.678-18.446.104-.242.069-.658-.104-1.247l-.156-1.299 1.507-1.87-1.974 1.247c-1.143.727-2.685.727-4.625 0-3.186-1.213-6.079-3.499-8.677-6.859-2.702-3.464-4.053-6.772-4.053-9.924 0-2.979.814-5.75 2.443-8.313 1.87-2.98 4.676-5.456 8.417-7.43 1.697-.936 2.632-1.646 2.806-2.13.138-.486-.122-.59-.78-.313l-1.818.468-2.183-3.377c-2.009-3.187-3.412-5.75-4.208-7.69-1.351-3.256-1.68-5.975-.987-8.158.831-2.563 2.58-4.399 5.247-5.507 1.421-.59 2.442-1.265 3.066-2.027.416-.485.779-1.212 1.091-2.182.762-2.182 2.373-4.278 4.832-6.287 4.33-3.533 11.968-7.829 22.914-12.886 7.24-3.36 14.964-7.62 23.174-12.782 7.551-4.745 11.691-7.759 12.418-9.04l-.052.103 3.585.156c2.183.52 3.914 1.351 5.196 2.494Z"/><path fill="#C82E19" d="M244.847 8.551c0 .97-.277 1.957-.832 2.962l-8.313 14.808-4.832 8.106-3.066-3.014-1.195.052c-.069.658.173 1.334.728 2.027 1.212 1.454 3.481 4.97 6.806 10.547 4.261 7.17 7.171 13.042 8.729 17.614 1.663 4.884 2.494 8.937 2.494 12.159 0 4.156-1.299 8.279-3.897 12.366-2.598 4.157-7.066 9.162-13.405 15.016-6.027 5.577-10.981 11.171-14.86 16.783-5.577 8.001-8.366 15.328-8.366 21.978l.052.26-.208 1.351c-1.489-1.94-3.013-4.555-4.572-7.846l-3.793-7.949c-3.256-6.097-7.794-10.098-13.613-12.003.485-.312 1.87-.623 4.157-.935 2.459-.312 4.278-.745 5.455-1.299l4.78-2.806c2.737-1.767 4.885-2.771 6.443-3.014l9.821-.623c5.23-.727 9.837-2.806 13.821-6.235 4.295-3.637 7.101-9.162 8.417-16.575.97-5.404 1.126-11.622.468-18.653-.312-3.43-2.962-10.132-7.95-20.108-4.261-8.522-5.75-13.458-4.469-14.809l8.678-10.391c4.226-5.681 7.118-10.617 8.677-14.809.797.416 1.472.866 2.026 1.351 1.213 1.074 1.819 2.304 1.819 3.69Z"/><path fill="#0D131A" d="M182.548 146.087c4.884-2.321 9.023-3.135 12.418-2.442 2.563.519 4.676 1.888 6.339 4.105 2.078 2.771 3.1 6.529 3.066 11.275-.07 4.676-1.23 11.535-3.482 20.575-1.835 7.275-3.862 14.116-6.079 20.524l-.831 1.871c-4.988 11.95-10.634 20.974-16.939 27.07-11.327 11.05-26.672 16.696-46.035 16.939-33.427.416-58.575-4.798-75.445-15.64l-.883-.571c-12.054-7.759-21.078-15.086-27.07-21.979-10.773-12.401-16.593-26.845-17.459-43.334-.242-4.607.208-10.998 1.351-19.173a244.56 244.56 0 0 1 2.338-13.717l1.351.26c-1.767 10.115-.571 20.922 3.585 32.423 4.157 11.465 10.41 21.216 18.758 29.252 7.897 7.621 16.124 12.869 24.68 15.744 9.11 3.117 18.757 3.585 28.941 1.403 14.964-3.187 29.478-10.167 43.542-20.94 9.318-7.135 18.636-16.193 27.954-27.174 6.65-7.829 13.284-13.319 19.9-16.471Z"/><path fill="#FFF3C2" d="M201.461 151.438c1.42 2.702 2.027 5.56 1.819 8.574-.243 3.36-1.213 8.815-2.91 16.367-2.078 9.11-4.347 16.852-6.807 23.225l-.831 1.871c-4.919 11.743-10.444 20.593-16.575 26.551-11.119 10.842-26.17 16.384-45.152 16.627-33.185.346-58.09-4.798-74.717-15.432l-.883-.572c-11.882-7.62-20.784-14.843-26.707-21.666-10.635-12.193-16.367-26.396-17.199-42.607l-.052-2.39c0-4.607.59-10.894 1.767-18.861-.139 9.318 1.87 18.705 6.027 28.162 4.087 9.248 9.665 17.285 16.73 24.109 7.933 7.62 16.749 12.955 26.448 16.003 10.01 3.083 20.316 3.516 30.916 1.299 14.894-3.187 29.495-10.496 43.801-21.927 7.378-5.923 16.852-15.189 28.421-27.798 5.266-5.75 8.747-9.266 10.444-10.547 6.651-5.023 12.644-7.171 17.978-6.443 3.256.415 5.75 2.234 7.482 5.455Z"/><path fill="#DBD2A9" d="m56.288 229.221-.883-.571-9.873-6.651c-4.156-2.979-7.863-6.01-11.119-9.093 6.062 4.503 13.717 8.747 22.966 12.73 11.639 5.058 23.607 8.608 35.904 10.652 33.357 5.646 63.632-.347 90.824-17.978-11.431 17.285-29.132 26.066-53.102 26.343-33.185.347-58.09-4.797-74.717-15.432Z"/><path fill="#0D131A" d="m215.022 99.74-13.405-.572-12.47-.676c-1.455.312-3.412 1.317-5.872 3.014a44.832 44.832 0 0 0-6.494 5.352c-.624.623-.572 1.541.155 2.754.659 1.108 1.473 1.87 2.443 2.286 1.628.727 3.879.918 6.754.571a27.044 27.044 0 0 0 7.43-1.974c1.421-.624 2.131-.745 2.131-.364 0 .347-.555.78-1.663 1.299a30.49 30.49 0 0 1-8.937 2.65l-6.495-.312c-1.524-.727-2.702-1.836-3.533-3.325l-.779-2.13-2.287-.832c-1.281-.519-1.368-.658-.259-.415 1.489.311 2.892-.104 4.208-1.247l4.988-4.729c2.806-2.355 5.473-3.74 8.002-4.156l13.613.727 12.003.727c2.321-.727 4.208-1.714 5.663-2.961 1.005-.832 1.628-1.126 1.871-.883.208.207-.104.779-.935 1.714-1.698 1.87-3.741 3.031-6.132 3.481Z"/><path fill="#0D131A" d="m188.887 112.573.78-.26.935-.104 3.169 2.287c.728.485 1.057.814.988.987l-1.144-.104c-.588-.208-1.402-.624-2.442-1.247l-2.286-1.559ZM168.208 59.73c-.278-.554-.295-.987-.052-1.298.242-.347.606-.208 1.091.415 1.42 1.663 2.147 3.707 2.182 6.131.035 1.213-.139 1.767-.52 1.663-.381-.104-.658-.606-.831-1.507-.208-1.455-.831-3.256-1.87-5.403ZM186.081 63.576c-.346-.936-.467-2.148-.363-3.638.104-1.87.554-3.446 1.351-4.728 1.316-1.974 1.697-1.697 1.143.831-.381 1.455-.641 3.915-.78 7.379-.069 1.143-.26 1.662-.571 1.558-.243-.103-.503-.571-.78-1.402ZM173.403 95.063c.347-1.005.762-1.715 1.247-2.13.451-.416.918-.485 1.403-.208.52.277.502.693-.052 1.247-.45.45-.796 1.108-1.039 1.974l-.572 1.819-.727.831c-.242.035-.45-.277-.623-.935-.174-.658-.052-1.524.363-2.598ZM203.332 78.8c-4.261-.277-7.777-1.195-10.548-2.754l-1.455.156c-.208-.138-.225-.433-.052-.883l.364-.572c1.871-3.533 5.646-7.412 11.327-11.639 5.265-3.914 9.942-6.564 14.029-7.95 1.94-.692 2.962-.9 3.066-.623l-.988 1.195-1.558 1.247-.78.468c1.594 1.524 2.979 3.793 4.157 6.807.762 2.043 1.126 4.104 1.091 6.183-.069 2.043-.485 3.723-1.247 5.04l.727.571c.208.45-.311.814-1.558 1.091-6.201 1.455-11.726 2.01-16.575 1.663Z"/><path fill="#fff" d="M215.023 58.276c.554.243 1.177.866 1.87 1.87.797 1.144 1.49 2.512 2.078 4.106.936 2.39 1.403 4.641 1.403 6.754 0 1.767-.346 3.291-1.039 4.573-5.508 1.593-10.859 2.182-16.055 1.766-3.984-.346-7.326-1.177-10.028-2.494 1.94-2.805 5.698-6.252 11.275-10.34 5.23-3.844 8.729-5.923 10.496-6.235Z"/><path fill="#0D131A" d="m208.423 60.615.364-.208c1.871 1.732 3.17 4.26 3.897 7.586.831 3.602.624 6.858-.623 9.768l-.312.52h-.26l-12.938-.52h-.052l-.052-.052-3.377-1.403c-1.178-.485-1.992-1.23-2.442-2.234l2.234-2.962.156-.156c2.113-2.216 6.2-5.386 12.262-9.508l1.143-.831Z"/><path fill="#3D62AC" d="M208.528 61.653c2.251 3.152 3.377 6.668 3.377 10.548 0 1.697-.277 3.43-.831 5.196-3.049.346-5.993.415-8.833.208-2.806-.208-4.833-.606-6.08-1.195l-1.87-.832c-.624-.38-.832-.71-.624-.987 1.109-1.697 3.482-4.07 7.119-7.118 3.256-2.771 5.836-4.711 7.742-5.82Z"/><path fill="#0D131A" d="M203.176 64.251c2.044 2.114 2.754 4.815 2.13 8.106-.589 3.222-1.853 4.832-3.793 4.832-2.702 0-4.486-2.338-5.352-7.014l4.521-3.897 2.494-2.027ZM68.446 20.035c-6.616 6.997-8.59 11.465-5.923 13.405l.831-.104.728-.831c.866-1.767 1.714-2.875 2.546-3.326l4.26-.208.572.312-.416.52c-1.212.796-2.494 2.182-3.845 4.156l-3.43 5.82-.934 1.61c-2.356 4.261-3.187 6.963-2.494 8.106.485.9 1.247.953 2.286.156a5.87 5.87 0 0 0 1.922-2.546c.45-1.247.814-1.836 1.091-1.766.243.034.364.658.364 1.87 0 3.672-.623 6.512-1.87 8.521-1.144 1.87-3.308 3.69-6.495 5.456-1.317.693-2.252 2.425-2.806 5.196-.139.762-.087 1.195.156 1.299.277.173.762-.121 1.455-.883 1.281-1.351 2.355-2.304 3.221-2.858 1.593-1.005 3.585-1.628 5.975-1.87.52 0 .728.103.624.311l-1.559 2.026c-1.801 2.113-3.308 4.504-4.52 7.17-1.455 3.153-2.287 6.322-2.494 9.51-.658 9.386-3.326 15.656-8.002 18.808-2.182 1.49-5.906 2.425-11.171 2.806-2.252.173-3.914.641-4.988 1.403-1.732 1.247-3.55 1.697-5.456 1.351-1.42-.312-2.546-1.022-3.377-2.13-.45-.936-1.282-2.096-2.494-3.482-1.559-1.836-4.33-3.775-8.314-5.819-2.598-1.35-4.676-3.499-6.235-6.443-1.385-2.598-2.234-5.508-2.546-8.729-.346-3.672.139-7.084 1.455-10.236 1.282-3.117 3.222-5.715 5.82-7.794 4.71-3.74 7.984-7.222 9.82-10.444 1.385-2.424 2.147-5.178 2.286-8.261.07-1.005.19-1.559.364-1.663l.52.468c1.42 2.078 2.13 4.884 2.13 8.417.623-2.251 1.697-4.745 3.221-7.482 3.048-5.438 6.824-9.162 11.327-11.171.658-.346 1.04-.468 1.143-.364.139.07-.052.416-.571 1.04-1.213 1.42-2.27 3.342-3.17 5.767-.866 2.32-1.091 3.654-.675 4l.467.364c.347.07.797-.19 1.351-.779 1.94-1.94 3.499-4.503 4.677-7.69 1.42-3.776 2.926-6.599 4.52-8.47 1.801-2.147 3.931-3.324 6.39-3.532l.832.104-.52.675c-1.038.97-1.714 2.2-2.026 3.69-.242 1.28-.19 2.407.156 3.377.173.484.502.675.987.571.52-.07.918-.468 1.195-1.195 1.455-3.706 3.326-6.703 5.612-8.989 2.217-2.217 6.374-5.317 12.47-9.3 1.213-.797 1.923-1.161 2.13-1.092.208.104-.052.814-.779 2.13-.831 1.49-2.632 3.655-5.404 6.495l-2.39 2.547Z"/><path fill="#E50020" d="M75.46 10.474c-.796 1.455-2.545 3.585-5.247 6.391L67.77 19.36c-1.975 2.148-3.43 3.897-4.365 5.248-1.767 2.529-2.65 4.676-2.65 6.443 0 1.143.364 2.13 1.091 2.961.45.485.866.71 1.247.676.416-.035 1.005-.589 1.767-1.663.693-1.073 1.299-1.818 1.819-2.234.865-.727 1.887-1.074 3.065-1.04-1.143.936-2.338 2.339-3.585 4.21l-3.221 5.351-.884 1.663c-2.217 4.122-3.325 7.084-3.325 8.885 0 .485.086.9.26 1.247.277.45.675.675 1.195.675 1.039 0 2.078-.502 3.117-1.506.762-.762 1.369-1.68 1.819-2.754a15.072 15.072 0 0 1-1.559 6.235c-1.35 2.736-3.481 4.953-6.391 6.65-1.108.624-2.061 1.785-2.858 3.482-.727 1.524-1.09 2.892-1.09 4.105v.104c.068.727.276 1.195.623 1.403l1.299-.208 1.974-1.87c1.04-1.179 1.94-2.027 2.702-2.547 1.316-.866 2.91-1.437 4.78-1.715l-.571.676c-2.252 2.563-3.863 4.676-4.833 6.339-1.628 2.84-2.563 5.837-2.805 8.989-.624 9.11-3.118 15.38-7.482 18.809-2.425 1.905-6.01 3.031-10.756 3.377-2.529.139-4.07.451-4.624.936-1.42 1.177-2.875 1.645-4.365 1.402-1.281-.173-2.286-.744-3.013-1.714l-4.001-4.728c-1.802-1.975-4.66-4.036-8.573-6.183-1.455-.797-2.737-2.304-3.845-4.521-1.144-2.286-1.854-4.832-2.13-7.638l-.105-2.338c0-3.048.59-5.854 1.767-8.417 1.143-2.598 2.806-4.763 4.988-6.495 4.538-3.603 7.62-7.084 9.249-10.444 1.074-2.217 1.697-5.005 1.87-8.366.797 1.767 1.195 3.932 1.195 6.495 0 1.767-.138 3.36-.415 4.78l-.104 1.611c.034.762.363.295.987-1.402.554-2.53 1.524-5.318 2.91-8.366 2.805-6.027 6.373-10.478 10.703-13.353a23.777 23.777 0 0 0-2.338 4.572c-.589 1.559-.883 2.858-.883 3.897 0 .762.173 1.299.52 1.61.727.659 1.835.209 3.325-1.35l2.494-3.482 2.286-4.416c1.663-3.29 2.979-5.629 3.949-7.014 1.593-2.252 3.256-3.655 4.988-4.21a7.899 7.899 0 0 0-1.559 4.781c0 .935.121 1.663.364 2.182.346 1.04.883 1.56 1.61 1.56.797.034 1.542-.676 2.235-2.131 1.766-3.984 3.827-7.153 6.183-9.509 1.559-1.558 4.52-3.81 8.885-6.754l2.754-1.87Z"/><path fill="#EFE908" d="M49.43 38.012c1.038-.831 1.748-1.16 2.13-.987.242.07.051.502-.572 1.299-1.663 2.46-2.598 4.347-2.806 5.663-.07.52.035 2.356.312 5.508.242 2.979-.33 5.767-1.715 8.365-1.039 1.87-2.65 3.828-4.832 5.872-2.182 2.113-3.498 4.07-3.949 5.871-.52 2.01-.398 3.325.364 3.949.727.623 1.23.433 1.507-.572.623-2.147 1.403-3.88 2.338-5.196.797-1.177 1.888-2.251 3.273-3.221.59-.381.936-.572 1.04-.572.173 0 .155.278-.053.832-1.905 5.092-2.372 7.967-1.402 8.625.311.139.814-.104 1.506-.727.797-.693 1.507-1.577 2.13-2.65 1.733-2.806 2.599-5.248 2.599-7.327 0-1.593.294-1.749.883-.467.277.589.45 1.472.52 2.65.069 1.455-.052 2.823-.364 4.104-.797 3.049-3.308 6.86-7.534 11.431-3.083 3.326-4.486 6.062-4.209 8.21.208 1.524.832 2.32 1.87 2.39.867 0 1.82-.45 2.858-1.35 1.247-1.11 2.252-2.685 3.014-4.73.208-.588.398-.9.572-.934.173-.07.363.19.571.779 1.005 2.771.918 5.404-.26 7.898-1.316 2.632-3.36 4.087-6.13 4.364-1.075.104-2.218.468-3.43 1.091-1.212.59-2.269 1.3-3.17 2.131l-3.845 2.702a4.781 4.781 0 0 1-2.442 1.091l-2.442-.156c-.796-.208-1.749-1.161-2.858-2.858l-1.35-1.663-1.663-2.182-1.455-2.962c-3.187-8.451-3.066-15.414.364-20.887 1.108-1.697 1.593-1.87 1.455-.52-.07 1.282.12 2.373.571 3.274.485.935 1.074 1.334 1.767 1.195.52-.104.97-.78 1.35-2.026.382-1.317.572-2.876.572-4.677.035-4.33 1.68-8.348 4.936-12.054 2.564-2.91 4.625-4.486 6.184-4.729.588-.034.658.226.207.78-2.182 2.598-3.533 4.815-4.053 6.65-.45 1.525-.294 2.356.468 2.495 1.074.138 2.252-.624 3.533-2.287 1.351-1.766 2.945-4.693 4.78-8.78l1.663-3.846c.416-1.212.658-2.459.728-3.74.138-2.633 1.628-5.006 4.468-7.119Z"/><path fill="#E73820" d="M72.499 195.5c1.178-4.157 5.075-5.923 11.69-5.3 5.612.52 12.54 2.667 20.784 6.443 7.448 3.429 14.098 7.292 19.953 11.587 5.992 4.364 9.11 7.707 9.352 10.028.416 4.261-2.962 12.678-10.132 25.252-6.651 11.708-11.5 18.774-14.548 21.199 5.923 7.032 8.573 12.141 7.949 15.328-.242 1.282-1.073 2.511-2.494 3.689l-4.52 3.222c-3.083 2.113-10.271 3.256-21.563 3.429-10.842.139-17.268-.502-19.277-1.923-3.533-2.528-5.49-4.087-5.871-4.676-1.801-2.563-1.576-6.027.675-10.392 3.395-6.65 5.265-12.002 5.612-16.055.277-3.741-.71-7.482-2.962-11.223-1.593-2.667-2.858-5.612-3.793-8.833-1.628-5.681-1.576-10.686.156-15.016l3.741-9.509L72.5 195.5Z"/><path fill="#C82E19" d="M116.3 241.639c8.002-10.565 12.09-20.766 12.263-30.603 3.602 3.048 5.507 5.455 5.715 7.222.416 4.261-2.961 12.678-10.132 25.252-6.651 11.708-11.5 18.774-14.548 21.199 4.676 5.543 7.309 9.82 7.897 12.834.485 2.39-.346 4.469-2.494 6.235-4.087-4.642-7.828-8.244-11.223-10.807-2.182-1.663-5.525-3.759-10.028-6.287-3.221-1.836-3.897-3.568-2.026-5.196.658-.554 3.36-1.923 8.105-4.105 4.677-2.182 10.167-7.43 16.471-15.744Z"/><path fill="#0D131A" d="M71.616 195.292c.866-2.009 1.507-2.892 1.922-2.65.416.243.364 1.265-.156 3.066l-3.949 12.47-5.092 14.393c-1.697 4.226-1.697 9.162 0 14.808.901 3.048 2.096 5.802 3.586 8.261 2.424 4.018 3.446 8.054 3.065 12.107-.38 4.053-2.269 9.404-5.663 16.055-1.87 3.603-2.304 6.478-1.3 8.625.59 1.247 2.131 2.667 4.625 4.261l1.559 1.039c1.801 1.282 7.984 1.871 18.55 1.767 11.118-.104 18.202-1.213 21.25-3.326l1.455-.987c1.732-1.143 2.91-2.009 3.533-2.598.97-.935 1.525-1.922 1.663-2.962.243-1.489-.208-3.325-1.351-5.507-1.177-2.252-3.187-5.058-6.027-8.418-2.459 1.317-3.897 1.715-4.313 1.196-.311-.381-.311-.711 0-.988l2.391-1.922c4.364-3.533 9.681-10.167 15.951-19.9 7.413-11.501 10.755-20.074 10.028-25.72l1.819-.208.103 1.663c0 6.339-2.719 14.133-8.157 23.381-4.746 8.037-10.167 15.068-16.263 21.096 2.944 3.602 5.057 6.425 6.339 8.469 1.628 2.529 2.442 4.572 2.442 6.131l-.468 1.923c-.208 1.316-1.004 2.442-2.39 3.377l-4.261 2.494-1.454.987c-3.256 2.252-10.583 3.464-21.979 3.637-11.015.208-17.649-.502-19.9-2.13l-2.702-.883c-2.667-1.663-4.33-3.187-4.988-4.573-1.247-2.528-.797-5.906 1.35-10.132 3.326-6.477 4.954-12.279 4.885-17.406-.035-4.087-1.178-7.984-3.43-11.691-1.8-2.944-3.065-5.629-3.792-8.053-1.525-5.058-1.386-9.838.415-14.341l10.704-26.811Z"/><path fill="#0D131A" d="M75.824 276.036c1.767-1.316 3.049-1.628 3.845-.935 1.109.866 2.234 2.338 3.378 4.416 1.42 2.494 2.217 4.867 2.39 7.119.173 1.974-.087 4.07-.78 6.287-.727 2.424-1.8 4.416-3.221 5.975-.312.381-.78.502-1.403.364-1.282-.243-3.308-2.027-6.08-5.352-2.459-2.979-3.965-5.144-4.52-6.495-.38-1.004.19-2.858 1.715-5.56 1.524-2.701 3.083-4.641 4.676-5.819Z"/><path fill="#FFF3C2" d="M78.994 277.231c1.074.866 2.078 2.044 3.013 3.533 1.213 1.975 1.906 3.967 2.079 5.976v.883c0 3.014-1.213 5.854-3.637 8.521-.659.139-2.321-1.056-4.988-3.585-2.668-2.563-4.244-4.434-4.729-5.611-.242-.555.295-1.871 1.611-3.949 1.386-2.252 2.858-3.949 4.417-5.092 1.039-.762 1.783-.988 2.234-.676Z"/><path fill="#DBD2A9" d="M79.617 293.027c.416 0 1.04-.33 1.87-.988a11.612 11.612 0 0 0 2.443-2.598c-.416 2.356-1.576 4.59-3.481 6.703-.658.139-2.321-1.056-4.988-3.585-2.668-2.563-4.244-4.434-4.729-5.612-.207-.45.226-1.593 1.3-3.429 1.246 2.944 2.788 5.386 4.624 7.326 1.385 1.455 2.373 2.183 2.961 2.183Z"/><path fill="#0D131A" d="M98.01 275.88c.867-.519 2.183-.069 3.95 1.351 1.593 1.282 2.979 2.84 4.156 4.676 1.317 2.113 2.287 5.335 2.91 9.665.589 4.122.572 6.425-.052 6.91-.554.485-1.507.589-2.858.312l-3.013-.883c-2.46-.866-5.058-2.304-7.794-4.313-2.494-1.801-3.914-3.152-4.26-4.053-.416-.97.207-3.221 1.87-6.754 1.732-3.672 3.43-5.976 5.092-6.911Z"/><path fill="#FFF3C2" d="M101.596 279.465c1.455 1.109 2.529 2.217 3.221 3.326 1.351 2.147 2.269 4.589 2.754 7.326.451 2.598.347 4.486-.312 5.663-.138.277-.485.433-1.039.468-1.766.035-4.295-.918-7.586-2.858-3.048-1.732-4.884-3.1-5.507-4.105-.52-.796-.018-2.701 1.506-5.715 1.49-2.91 2.737-4.694 3.742-5.352.623-.346 1.697.069 3.221 1.247Z"/><path fill="#DBD2A9" d="M94.322 284.194c2.598 3.152 5.074 5.577 7.43 7.274 2.529 1.801 4.538 2.494 6.027 2.078-.069.97-.242 1.715-.519 2.234-.139.278-.485.433-1.04.468-1.766.035-4.295-.918-7.586-2.858-3.048-1.732-4.884-3.1-5.507-4.104-.485-.728-.087-2.425 1.195-5.092Z"/><path fill="#0D131A" d="M115.469 273.542c1.767-.104 4.313 1.853 7.638 5.872 3.395 4.122 5.213 7.568 5.456 10.339.035.381-.225.589-.78.624l-1.091-.052c-1.662.173-4.693-.208-9.092-1.143-4.365-.901-6.772-1.645-7.223-2.234-.312-.416-.433-1.351-.363-2.806.069-1.386.294-2.702.675-3.949.45-1.593 1.005-2.962 1.663-4.105.97-1.628 2.009-2.476 3.117-2.546Z"/><path fill="#FFF3C2" d="M115.833 275.361c.623.104 1.905 1.247 3.845 3.429 2.113 2.321 3.758 4.555 4.936 6.703.692 1.316 1.039 2.251 1.039 2.805l-.052.312c-.624.381-2.91.121-6.859-.779-3.879-.901-6.166-1.628-6.858-2.183l-.104-.935c0-1.836.381-3.724 1.143-5.663.762-1.94 1.732-3.17 2.91-3.689Z"/><path fill="#DBD2A9" d="m112.3 280.972.623-1.922c.762-1.94 1.732-3.17 2.91-3.689.623.104 1.905 1.247 3.845 3.429 2.113 2.321 3.758 4.555 4.936 6.703.693 1.316 1.039 2.251 1.039 2.805l-.052.312c-.762.416-3.308.087-7.638-.987-.242-.693-.883-1.628-1.922-2.806l-3.741-3.845Z"/><path fill="#0D131A" d="M107.987 230.364c.104-1.316 2.13-1.853 6.079-1.61 2.286.104 4.174.848 5.664 2.234 1.766 1.628 2.667 3.949 2.702 6.962.034 2.633.311 7.205.831 13.717l.935 8.418c.208 2.39.035 3.724-.519 4.001-.312.173-.814-.087-1.507-.78l-1.403-1.455c-2.598-2.424-5.386-6.668-8.365-12.729-3.499-7.171-5.023-12.99-4.573-17.459l.156-1.299Z"/><path fill="#FFF3C2" d="M113.962 230.104c1.559.035 2.945.485 4.157 1.351 1.94 1.351 2.927 3.516 2.962 6.495.034 3.741.311 8.348.831 13.821l.468 6.703-.26 1.766-.728-.519c-2.251-2.113-4.693-5.872-7.326-11.275-2.979-6.131-4.468-11.31-4.468-15.536l.104-1.559c.034-.277.433-.554 1.195-.831l3.065-.416Z"/><path fill="#DBD2A9" d="m110.897 230.52 3.065-.416c1.559.035 2.945.485 4.157 1.351 1.94 1.351 2.927 3.516 2.962 6.495.034 3.741.311 8.348.831 13.821l.468 6.703-.156 1.559a126 126 0 0 0-1.923-10.6c-.9-3.984-1.697-6.581-2.39-7.794-.52-.866-1.524-1.784-3.014-2.754-1.454-.97-3.117-1.818-4.988-2.546a19.796 19.796 0 0 1-.311-3.429l.104-1.559c.034-.277.433-.554 1.195-.831Z"/><path fill="#E73820" d="M164.622 146.087c-5.785 3.498-10.756 6.564-14.912 9.197-7.933 5.057-12.765 8.59-14.497 10.599-.762 3.187.832 11.449 4.78 24.785 4.192 14.098 6.287 21.528 6.287 22.29 0 5.231-1.714 10.582-5.143 16.055-4.989 7.898-11.951 10.704-20.888 8.418l-5.975-1.871c-2.494-.866-4.469-2.13-5.924-3.793-4.156-4.676-5.646-14.358-4.468-29.045.762-9.318 1.593-16.713 2.494-22.186 1.178-7.136 2.737-12.834 4.676-17.095 1.802-4.018 5.127-7.568 9.976-10.651 2.183-1.386 5.993-3.291 11.431-5.716 2.737-1.178 6.114-3.949 10.132-8.313 3.049-3.291 5.456-6.287 7.223-8.989 1.177-1.801 4.07-3.222 8.677-4.261l10.755-.364c2.46.728 2.927 4.036 1.403 9.925-1.489 5.75-3.498 9.422-6.027 11.015Z"/><path fill="#C82E19" d="m138.383 200.592.364-14.289 4.988 16.627c1.662 5.577 2.511 8.92 2.546 10.028 0 4.157-1.282 8.747-3.845 13.769-3.637 7.136-8.729 10.929-15.276 11.379 5.369-5.057 8.764-12.834 10.184-23.329.519-3.707.866-8.435 1.039-14.185Z"/><path fill="#0D131A" d="M156.361 124.368c3.81-1.004 8.14-1.039 12.989-.104 1.317.243 1.905.606 1.767 1.091-.173.485-1.109.641-2.806.468-3.672-.381-7.188-.087-10.548.883-3.498 1.005-6.009 2.494-7.534 4.469-3.429 4.434-6.165 7.707-8.209 9.82-3.187 3.325-6.253 5.629-9.197 6.911l-1.247.571c-4.815 2.148-8.417 4.001-10.807 5.56-4.261 2.875-7.223 6.131-8.885 9.768-3.534 7.759-5.889 20.749-7.067 38.969-.208 2.979-.311 5.664-.311 8.054 0 9.11 1.385 15.57 4.156 19.381 1.628 2.216 4.538 3.983 8.729 5.299l3.066 1.04c5.923 1.489 10.963.623 15.12-2.598 3.256-2.529 5.819-6.322 7.69-11.379 1.385-3.811 2.078-7.015 2.078-9.613 0-.97-1.264-5.663-3.793-14.081-5.3-17.319-7.707-28.387-7.222-33.201.277-2.494.71-3.551 1.299-3.17.312.208.589.658.831 1.351 1.836-2.078 6.478-5.473 13.925-10.184 6.131-3.914 10.444-6.495 12.938-7.742 1.524-.762 2.407-1.022 2.65-.779.242.242-.329 1.022-1.715 2.338l-13.145 8.625c-7.863 4.954-12.644 8.348-14.341 10.184-.035 2.702.71 7.534 2.234 14.497 1.42 6.339 2.997 12.331 4.729 17.977l2.909 9.769c.901 3.083 1.351 5.04 1.351 5.871 0 2.598-.849 5.837-2.546 9.716-2.182 4.885-5.04 8.712-8.573 11.483-4.538 3.534-10.167 4.434-16.887 2.702l-5.092-1.039c-4.815-1.489-8.036-3.654-9.664-6.495-2.771-4.919-3.724-13.942-2.858-27.07.693-10.358 1.507-18.498 2.442-24.421 1.074-6.859 2.494-12.228 4.261-16.107 1.767-3.88 5.075-7.361 9.924-10.444 2.356-1.524 6.304-3.499 11.847-5.924l1.247-.519c3.741-1.871 7.17-4.832 10.288-8.885l5.559-7.95c2.113-2.459 4.919-4.157 8.418-5.092Z"/><path fill="#0D131A" d="M142.124 216.335c1.905-3.083 3.412-4.382 4.52-3.897 1.317.554 2.494 1.819 3.534 3.793.866 1.663 1.524 3.603 1.974 5.82 1.905 9.768 2.026 16.99.364 21.667l-1.559 3.325c-.658 1.004-1.178 1.472-1.559 1.403-.45-.069-.97-.849-1.559-2.338l-1.454-3.793c-2.044-4.919-4.677-9.111-7.898-12.574l-.468-.26c-.866-.728-.675-2.737.572-6.027.97-2.598 2.147-4.971 3.533-7.119Z"/><path fill="#FFF3C2" d="M139.318 227.714c0-1.178.468-2.996 1.403-5.455 1.005-2.668 2.113-4.815 3.325-6.443.936-1.213 1.594-1.715 1.975-1.507.866.381 1.68 1.351 2.442 2.91.762 1.628 1.385 3.689 1.87 6.183a55.16 55.16 0 0 1 .988 12.47c-.139 4.122-.607 6.581-1.403 7.378l-.52.364c-.277-.035-.779-.97-1.507-2.806l-2.805-5.82a27.294 27.294 0 0 0-5.612-6.65c-.104-.104-.156-.312-.156-.624Z"/><path fill="#DBD2A9" d="m146.073 218.933 1.766 5.924c.52 2.494.866 5.403 1.04 8.729.207 3.36.19 6.443-.052 9.248l-.936-2.026-2.805-5.819a27.28 27.28 0 0 0-5.612-6.651c-.104-.104-.156-.312-.156-.624 0-1.177.468-2.996 1.403-5.455 1.005-2.668 2.113-4.815 3.325-6.443l.78-.832c.104.589.519 1.906 1.247 3.949Z"/><path fill="#0D131A" d="M132.044 226.415c2.633 1.732 4.226 4.538 4.78 8.418l1.975 12.054 2.234 11.483c.416 2.806.26 4.33-.468 4.573-1.316.45-4.832-2.875-10.547-9.976-5.473-6.79-8.643-11.362-9.509-13.718-2.667-7.135-2.996-11.881-.987-14.236.416-.52 1.108-.849 2.078-.988l2.65.052 1.143.156c2.841.381 5.058 1.109 6.651 2.182Z"/><path fill="#FFF3C2" d="M137.448 247.147c1.177 6.131 1.766 9.82 1.766 11.067l-.156.935c-1.247-.485-4.156-3.568-8.729-9.248-4.641-5.785-7.395-9.855-8.261-12.211-1.039-3.048-1.559-5.733-1.559-8.053 0-1.629.294-2.806.883-3.534.555-.658 1.421-.883 2.598-.675l1.247.156c2.737.381 4.763 1.039 6.079 1.974 2.217 1.594 3.603 4.382 4.157 8.366l1.975 11.223Z"/><path fill="#DBD2A9" d="M133.915 240.86c-.762-3.048-.832-6.582-.208-10.6.831 1.524 1.42 3.412 1.766 5.664l1.975 11.223c1.178 6.131 1.766 9.82 1.766 11.067l-.155.935-.364-.207-2.65-10.028-2.13-8.054Z"/><path fill="#fff" d="M206.137 63.316c.624.174 1.126.71 1.507 1.611.346.831.52 1.819.52 2.962 0 1.212-.278 2.251-.832 3.117-.519.866-1.16 1.3-1.922 1.3s-1.42-.434-1.975-1.3c-.554-.866-.831-1.905-.831-3.117 0-.797.139-1.559.416-2.286l3.117-2.287Z"/></g><defs><radialGradient id="b" cx="0" cy="0" r="1" gradientTransform="rotate(90 0 150) scale(200)" gradientUnits="userSpaceOnUse"><stop stop-color="#FFF3C2"/><stop offset="1" stop-color="#E73820"/></radialGradient><clipPath id="a"><path fill="#fff" d="M0 0h300v300H0z"/></clipPath></defs></svg>