<svg xmlns="http://www.w3.org/2000/svg" fill="none" viewBox="0 0 300 300"><g clip-path="url(#a)"><path fill="#fff" d="M0 0h300v300H0z"/><path fill="url(#b)" d="M-75-75h450v450H-75z"/><path fill="#0D131A" d="M75.722 163.984c2.576-3.946 4.818-5.743 6.726-5.393 2.894.541 3.594 3.818 2.1 9.831-1.782 7.191-6.536 15.781-14.265 25.772-5.852 7.509-9.064 14.016-9.636 19.52-.573 5.345 1.479 8.272 6.154 8.782 2.226.254 7.458-.78 15.695-3.103l28.051-7.97c29.482-7.986 54.655-12.011 75.519-12.075 23.757-.095 41.281 5.998 52.572 18.279a43.585 43.585 0 0 1 9.303 15.607c1.558 4.581 2.305 8.972 2.242 13.172-.159 11.391-2.926 19.568-8.301 24.531-6.902 6.395-18.144 7.557-33.728 3.484-2.163-.541-3.817-2.322-4.962-5.345-.445-1.209-1.224-4.311-2.337-9.307-.891-4.104-1.909-7.063-3.054-8.877-1.685-2.609-4.102-3.913-7.251-3.913-7.728 0-21.658 2.498-41.79 7.493-21.373 5.313-34.889 8.177-40.55 8.59-21.118 1.591-37.625-.031-49.52-4.868-11.83-4.836-19.209-12.933-22.135-24.292-1.686-6.618-1.765-12.647-.239-18.088 1.24-4.518 3.77-9.052 7.586-13.602 1.813-2.195 5.645-6.141 11.497-11.836 5.184-5.027 9.048-9.291 11.593-12.79l8.73-13.602Z"/><path fill="#827AA0" d="M76.771 165.893c2.227-3.723 3.944-5.441 5.153-5.154 1.971.413 1.971 3.5 0 9.259-2.386 7.031-7.316 15.208-14.79 24.531-4.643 5.79-7.473 11.581-8.491 17.372-1.24 6.84.97 11.024 6.631 12.552 1.845.477 7.029-.382 15.552-2.578l29.244-7.97c30.977-8.209 55.912-12.313 74.803-12.313 22.835 0 39.644 5.504 50.425 16.513 7.57 7.732 11.672 17.356 12.309 28.874-3.944 2.705-7.156 6.157-9.637 10.357-1.368 2.354-3.006 5.568-4.914 9.64-1.813 3.055-4.134 5.012-6.965 5.871-3.562 1.081-8.825.827-15.791-.764-2.067-.477-3.705-2.259-4.913-5.345-.509-1.273-1.4-4.518-2.672-9.736-1.049-4.296-2.162-7.398-3.339-9.307-1.749-2.768-4.119-4.152-7.108-4.152-7.474 0-22.088 2.625-43.842 7.875-23.408 5.631-37.656 8.686-42.745 9.163-18.255 1.686-33.203.223-44.844-4.391-11.958-4.772-19.305-12.456-22.04-23.051-2.83-11.073-.334-21.254 7.49-30.545 1.781-2.132 5.534-5.997 11.259-11.597 5.025-4.836 8.746-8.925 11.163-12.266l8.062-12.838Z"/><path fill="#675F80" d="M163.405 230.8c2.322-2.322 5.9-3.659 10.734-4.009 9.859-.668 15.902.462 18.129 3.389 2.258 2.959-.096 6.84-7.061 11.645-13.962 3.054-20.577 4.407-19.846 4.057 3.721-1.814 4.214-3.659 1.479-5.537-5.088-3.531-6.233-6.713-3.435-9.545ZM127.292 243.447l3.149 8.925c-7.125 4.391-15.123 7.159-23.997 8.304l-17.603.525c-11.195-.127-20.705-1.813-28.528-5.058-7.602-3.15-13.406-7.7-17.413-13.65 3.34 3.786 8.508 6.809 15.504 9.068 6.711 2.163 14.249 3.357 22.613 3.579 8.555.223 16.777-.604 24.664-2.481 8.524-2.037 15.727-5.107 21.611-9.212Z"/><path fill="#0D131A" d="M81.971 237.243c.732-4.709 2.48-8.909 5.248-12.599 2.894-3.882 6.488-6.603 10.781-8.162l1.24-.381c-10.145 5.663-15.488 13.665-16.028 24.006-.223 4.359.54 8.527 2.29 12.504 1.685 3.945 4.07 7.111 7.155 9.497l-.81.382c-4.04-2.991-6.918-6.825-8.635-11.502-1.59-4.359-2.004-8.94-1.24-13.745ZM68.28 224.118l1.383-.143c-5.693 3.373-9.112 8.098-10.257 14.175-.795 4.104-.779 7.954.048 11.549.795 3.5 2.226 6.237 4.294 8.209l-1.24-.286c-1.973-1.782-3.404-4.407-4.294-7.875-1.018-3.818-1.082-7.811-.191-11.979.731-3.405 2.115-6.348 4.15-8.829 1.75-2.1 3.785-3.707 6.106-4.821ZM59.31 217.246l-.142.763c-6.584-.445-11.704 1.4-15.362 5.536-3.18 3.628-4.595 8.018-4.245 13.173l-.764-1.575c-.159-5.441 1.368-9.8 4.58-13.077 3.657-3.786 8.969-5.393 15.934-4.82ZM46 202.021l.526-.572c3.116-1.018 5.963-.955 8.539.191 2.576 1.113 4.294 3.07 5.152 5.87l-.477.716c-.731-2.864-2.624-4.821-5.677-5.871-2.544-.89-5.232-1.002-8.062-.334ZM60.551 187.226l.43-.62c5.12-1.146 8.062.541 8.825 5.059l-.43.477c-.572-2.323-1.764-3.85-3.577-4.582l-5.248-.334ZM69.472 176.679l.334-.525c2.036-.764 3.785-.764 5.248 0 1.526.763 2.385 2.163 2.576 4.2l-.43.429c-.381-1.877-1.335-3.15-2.862-3.818l-4.866-.286ZM74.434 168.852l.19-.43c1.782-1.113 3.467-1.32 5.057-.62 1.495.668 2.354 1.797 2.576 3.388l-.238.382c-.795-1.814-1.924-2.911-3.387-3.293-1.272-.35-2.672-.159-4.198.573ZM186.638 241.968l-.858-.716c-.764-12.027 2.258-21.429 9.064-28.206 6.265-6.204 13.755-8.654 22.469-7.35l1.575.669c-10.305-.764-18.447 2.449-24.426 9.64-5.502 6.714-8.11 15.368-7.824 25.963Z"/><path fill="#0D131A" d="m186.4 242.35-.62-1.098c4.961-6.013 11.051-10.245 18.271-12.695 6.456-2.195 13.103-2.752 19.941-1.67 6.488.986 12.022 3.229 16.602 6.729 4.707 3.564 7.426 7.732 8.158 12.504l.954 3.723c-1.845-6.555-5.455-11.757-10.83-15.607-5.025-3.563-11.02-5.583-17.985-6.061-6.679-.477-13.119.525-19.321 3.007-6.456 2.577-11.513 6.3-15.17 11.168Z"/><path fill="#0D131A" d="M235.585 51.446c9.477 7.096 16.84 15.209 22.088 24.34 5.215 9.132 7.887 18.47 8.014 28.016.191 15.399-5.915 29.24-18.319 41.521-9.955 9.863-22.247 17.388-36.877 22.574-8.428 2.991-15.297 8.559-20.609 16.704-4.611 7.064-7.601 15.257-8.968 24.579-1.241 8.591-.891 16.227 1.049 22.909 1.972 6.84 5.105 10.738 9.398 11.692 6.774-3.69 18.574-4.629 35.398-2.815 8.428.89 16.172 2.147 23.233 3.77 1.495 17.563-5.105 31.213-19.798 40.949-13.453 8.877-31.518 13.267-54.194 13.172-13.421-.064-25.475-2.386-36.161-6.968-10.369-4.454-18.304-10.5-23.806-18.136-4.579-6.363-7.283-13.156-8.11-20.379-.668-5.886-.095-12.583 1.718-20.092.827-3.405 2.894-10.086 6.201-20.045 2.799-8.432 4.612-15.209 5.439-20.331.731-4.582-.016-9.211-2.242-13.889-2.926-6.045-8.11-11.342-15.552-15.892-17.747-10.85-30.819-20.952-39.215-30.306-8.65-9.673-12.976-19.234-12.976-28.683 0-24.118 11.211-43.272 33.633-57.462 9.796-6.205 21.086-10.945 33.871-14.223 12.245-3.15 24.903-4.724 37.974-4.724 15.839 0 30.691 2.163 44.558 6.49 12.976 4.073 24.393 9.816 34.253 17.23Z"/><path fill="#827AA0" d="M231.434 51.399c9.796 6.84 17.365 14.763 22.708 23.767 5.566 9.355 8.349 19.297 8.349 29.829 0 13.554-5.28 25.804-15.839 36.749-9.318 9.64-22.231 17.817-38.737 24.531-8.301 3.404-15.091 9.131-20.37 17.181-4.644 7.127-7.649 15.256-9.017 24.388-1.304 8.527-.97 16.259 1.002 23.195 2.004 7.063 5.248 11.581 9.732 13.554l-.572-2.1.095.095c6.488-4.486 18.208-5.599 35.159-3.34 8.46 1.145 16.284 2.736 23.472 4.772 1.463 15.877-4.198 28.492-16.984 37.847-13.071 9.513-31.661 14.19-55.768 14.031-12.022-.064-22.962-2.179-32.822-6.347-10.495-4.391-18.716-10.707-24.664-18.948-7.474-10.467-8.666-24.722-3.578-42.762l6.727-20.331c2.481-7.35 3.721-12.791 3.721-16.322 0-5.25-1.272-10.23-3.817-14.939-3.053-5.599-7.68-10.356-13.882-14.27-16.506-10.372-28.624-19.44-36.352-27.203-10.24-10.277-15.489-20.506-15.743-30.688-.255-10.563 2.178-20.474 7.299-29.733 4.93-8.909 12.07-16.72 21.42-23.434 9.319-6.65 20.196-11.772 32.631-15.367 12.753-3.691 26.365-5.536 40.836-5.536 14.439 0 28.195 1.893 41.266 5.679 12.753 3.69 23.996 8.925 33.728 15.702Z"/><path fill="#675F80" d="M129.725 283.06c-7.474-5.187-12.69-11.105-15.648-17.754 13.517 14.254 30.866 23.131 52.048 26.631 7.124 1.177 14.741 1.734 22.851 1.67l15.027-.62c-6.838 1.686-14.55 2.656-23.137 2.911-9.096.286-17.302-.318-24.616-1.814-10.019-2.036-18.86-5.711-26.525-11.024Z"/><path fill="#0D131A" d="m185.97 242.493 1.145-1.05c.287.795 3.944 2.657 10.973 5.584 7.505 3.85 12.483 8.415 14.932 13.697 2.321 4.995 2.926 10.866 1.812 17.611-1.081 6.777-3.482 11.709-7.203 14.795l-1.24-.191c3.498-2.959 5.74-7.875 6.726-14.747.922-6.523.414-11.916-1.527-16.179-2.607-5.664-7.299-10.214-14.073-13.65l-7.156-3.245c-2.321-1.018-3.784-1.893-4.389-2.625Z"/><path fill="#0D131A" d="m184.682 240.441 1.765.954c.509 4.964.016 10.277-1.478 15.941-1.781 6.745-4.644 12.186-8.588 16.322-5.152 5.377-12.228 9.386-21.229 12.027-7.187 2.131-13.532 2.975-19.034 2.529l-1.193-.907c7.665-.381 14.296-1.447 19.893-3.197 7.665-2.386 14.344-6.252 20.037-11.598 3.848-3.595 6.758-8.956 8.73-16.083 1.781-6.555 2.147-11.884 1.097-15.988Z"/><path fill="#0D131A" d="M124.907 232.089c7.505-2.132 14.152-3.134 19.941-3.007 7.824.191 15.631 1.4 23.423 3.627 7.474 2.1 12.897 4.534 16.268 7.302l1.384 1.861c-12.086-6.872-25.014-10.483-38.785-10.833-13.772-.382-26.127 2.545-37.068 8.781l.286-1.288c2.449-2.228 7.299-4.375 14.551-6.443Z"/><path fill="#675F80" d="M190.979 171.668c2.99-3.214 7.347-6.125 13.072-8.734 3.371-1.559 8.905-3.818 16.602-6.777 7.124-2.959 13.119-6.125 17.985-9.497 6.615-4.614 12.356-10.309 17.222-17.086-4.389 7.699-10.909 14.763-19.56 21.19-7.919 5.886-17.381 11.056-28.385 15.511-8.619 3.532-15.6 9.577-20.943 18.136-4.707 7.54-7.617 16.067-8.73 25.581-.35-6.236.318-12.425 2.004-18.566 2.13-7.827 5.708-14.413 10.733-19.758ZM106.635 48.535l1.336 5.298c-5.629 1.081-11.688 3.23-18.176 6.443-3.053 1.527-6.631 3.706-10.734 6.538-5.057 3.468-8.873 6.602-11.45 9.402 1.623-2.482 4.74-5.886 9.351-10.213 4.357-4.136 7.935-7.143 10.734-9.02 3.212-2.132 6.901-4.041 11.068-5.727 2.798-1.146 5.422-2.053 7.871-2.72Z"/><path fill="#0D131A" d="M105.92 49.633c-2.258.572-5.121 1.638-8.588 3.197-3.752 1.687-7.028 3.452-9.827 5.298-2.353 1.559-5.581 4.184-9.684 7.875-4.326 3.977-7.792 7.508-10.4 10.595 1.526-2.546 4.5-6.093 8.92-10.643 4.23-4.39 7.697-7.573 10.4-9.545 3.118-2.26 6.711-4.327 10.782-6.205 2.735-1.272 5.328-2.29 7.776-3.054l.621 2.482ZM215.787 130.051c.731-.764 1.176-1.114 1.335-1.05.191.095.112.716-.238 1.861-2.894 10.055-8.158 18.104-15.791 24.15-7.378 5.822-16.458 9.433-27.24 10.833-6.742.859-12.165 2.228-16.268 4.105-3.753 1.686-6.838 4.009-9.255 6.968l-1.335 1.241c-.159.031-.414-.239-.764-.812-2.003-3.436-4.246-6.204-6.726-8.304-3.276-2.736-7.856-5.218-13.74-7.445-18.7-7.096-30.404-15.432-35.111-25.009-.382-.763-.51-1.272-.382-1.527.127-.286.62-.063 1.479.668 7.697 6.682 16.618 9.848 26.763 9.498 10.813-.414 19.496-4.948 26.048-13.602.667-.923 1.113-1.384 1.335-1.384.255 0 .748.445 1.479 1.336 3.689 4.614 8.396 8.193 14.121 10.739 5.598 2.481 11.609 3.738 18.033 3.77 14.248 0 26.334-5.345 36.257-16.036Z"/><path fill="#152139" d="M199.805 143.796c6.011-2.641 10.893-6.204 14.646-10.691-2.544 8.146-7.283 14.939-14.217 20.379-7.632 5.982-17.237 9.705-28.814 11.168-6.106.796-11.004 2.036-14.693 3.723-3.372 1.495-6.139 3.579-8.301 6.252l-1.193 1.241c-.191.095-.429-.112-.716-.621-1.876-3.213-3.896-5.774-6.058-7.684-3.022-2.64-7.156-4.963-12.404-6.967-8.269-3.15-14.757-6.093-19.464-8.83-6.424-3.754-11.45-8.097-15.075-13.029 7.983 6.045 16.84 8.782 26.572 8.209 10.337-.605 18.558-4.932 24.664-12.981.636-.828 1.05-1.241 1.241-1.241.222 0 .668.413 1.335 1.241 3.912 4.899 8.969 8.574 15.171 11.024 5.788 2.259 12.038 3.261 18.748 3.007 6.552-.223 12.738-1.623 18.558-4.2Z"/><path fill="#0D131A" d="M221.845 73.496c.191 14.254-1.876 26.551-6.201 36.892-3.849 9.1-9.144 16.052-15.887 20.856-6.17 4.391-12.689 6.491-19.559 6.3-6.679-.223-12.388-2.561-17.127-7.016-6.806-6.427-9.127-14.031-6.965-22.813 2.004-8.209 6.822-14.27 14.455-18.183a460.305 460.305 0 0 1 26.668-12.6l18.176-7.827c2.735-1.24 4.484-1.607 5.248-1.098.763.51 1.161 2.339 1.192 5.489ZM84.786 80.32c.382-4.295 1.113-6.617 2.194-6.967.954-.319 3.308.763 7.06 3.245l11.45 6.777c6.456 3.723 12.102 7.207 16.936 10.452 7.251 4.868 11.752 10.961 13.501 18.279 1.749 7.35.159 13.681-4.771 18.995-3.117 3.372-7.442 5.202-12.976 5.488-5.82.318-11.306-1.257-16.459-4.725-5.915-4.009-10.368-9.958-13.357-17.849-3.499-9.195-4.691-20.427-3.578-33.695Z"/><path fill="#152139" d="M86.217 82.612c.35-4.55.906-6.968 1.67-7.255.7-.222 3.1 1.034 7.203 3.77l10.591 6.3c5.979 3.468 11.211 6.714 15.695 9.736 6.775 4.55 11.005 10.214 12.69 16.991 1.686 6.872.239 12.774-4.341 17.706-2.894 3.118-6.917 4.741-12.07 4.868-5.375.159-10.479-1.448-15.313-4.82-5.502-3.85-9.669-9.418-12.5-16.704-3.307-8.464-4.516-18.661-3.625-30.592ZM220.032 73.162c.446 13.427-1.319 25.199-5.295 35.317-3.562 9.036-8.571 16.004-15.027 20.904-6.011 4.582-12.404 6.745-19.178 6.491-6.774-.287-12.674-2.975-17.699-8.066-5.152-5.25-6.743-11.788-4.771-19.615 1.94-7.764 6.441-13.427 13.501-16.99 11.577-5.855 26.477-12.696 44.701-20.523 1.813-.859 2.894-1.13 3.244-.811.286.222.461 1.32.524 3.293Z"/><path fill="#0D131A" d="M215.166 80.13c-.286 9.577-2.21 18.39-5.772 26.44-3.276 7.381-7.538 13.283-12.785 17.706-5.121 4.359-10.336 6.586-15.648 6.682-5.597.127-10.416-2.132-14.455-6.778-4.007-4.613-4.611-10.054-1.813-16.322 2.608-5.918 7.252-10.659 13.931-14.222 6.456-3.468 13.31-6.73 20.561-9.784l12.642-5.393c1.368-.668 2.274-.875 2.719-.62.446.222.652.986.62 2.29ZM90.558 86.62c-.032-1.495.175-2.354.62-2.577.478-.222 1.432.096 2.863.955l11.258 6.538 12.786 7.732c6.551 4.295 10.352 9.322 11.401 15.081.923 4.932-.159 9.1-3.244 12.504-2.29 2.578-5.374 3.819-9.255 3.723-4.007-.095-7.887-1.639-11.64-4.629-9.541-7.636-14.47-20.745-14.789-39.326Z"/><path fill="#DA4E70" d="M213.163 82.946c-.445 8.24-2.242 15.924-5.391 23.051-2.958 6.65-6.742 12.075-11.354 16.275-4.548 4.136-9.223 6.459-14.026 6.968-5.056.541-9.557-1.066-13.5-4.821-3.531-3.372-4.676-7.747-3.435-13.124 1.558-6.65 6.933-12.345 16.124-17.086 6.743-3.5 13.183-6.554 19.321-9.163l10.353-4.344c.763-.381 1.288-.445 1.574-.19.318.318.429 1.13.334 2.434ZM92.085 87.48c-.032-.891.08-1.385.334-1.48.222-.096.763.095 1.622.573l12.165 7.254c6.106 3.532 10.336 6.22 12.69 8.066 5.343 4.168 8.364 8.749 9.064 13.745.54 4.009-.35 7.302-2.672 9.879-2.353 2.641-5.391 3.786-9.112 3.436-3.752-.35-7.394-2.132-10.924-5.345-8.62-7.827-13.008-19.87-13.167-36.129Z"/><path fill="#0D131A" d="M205.1 93.207c-1.494 8.113-4.881 14.858-10.161 20.235-2.194 2.227-4.341 3.755-6.44 4.582-2.099.859-3.737.859-4.914 0-2.099-1.336-2.528-3.341-1.288-6.013l-4.103-.239c-1.208-.541-1.972-1.321-2.29-2.339-.477-1.463-.159-2.879.954-4.247 1.209-1.464 3.372-2.943 6.489-4.439l18.796-9.402c1.59-.795 2.56-1.082 2.91-.859.318.223.334 1.13.047 2.72Z"/><path fill="#EFE908" d="M203.335 94.018c-1.113 6.427-4.023 12.202-8.73 17.324-4.484 4.868-7.824 6.507-10.018 4.916-.891-.573-1.304-1.495-1.24-2.768.063-.986.397-2.1 1.001-3.341l-4.007.334c-1.24-.254-2.02-.779-2.338-1.575-.54-1.336-.143-2.625 1.193-3.865 1.081-.987 3.133-2.212 6.154-3.675l16.411-8.257c.732-.382 1.193-.509 1.384-.382.254.096.318.525.19 1.289Z"/><path fill="#0D131A" d="M106.778 117.165c-1.876-2.1-3.514-4.9-4.913-8.4-1.273-3.213-2.243-6.713-2.91-10.5-.223-1.177-.223-1.83 0-1.956.222-.128.747.127 1.574.763l15.981 9.641c3.213 1.845 4.294 3.866 3.244 6.061-.413.859-1.097 1.464-2.051 1.814a4.22 4.22 0 0 1-3.053 0c.986 2.163.445 3.706-1.622 4.629-2.131.923-4.214.239-6.25-2.052Z"/><path fill="#EFE908" d="M106.54 114.54c-2.481-3.277-4.373-8.082-5.677-14.413-.127-.637-.112-.987.047-1.05l1.289.716 5.533 3.579 7.299 4.152c1.463.732 2.449 1.527 2.958 2.386.509.828.557 1.671.143 2.53-.318.573-.986.923-2.003 1.05l-3.006-.43c.414.955.557 1.893.43 2.816-.159.891-.525 1.48-1.098 1.766-1.781.827-3.753-.207-5.915-3.102Z"/><path fill="#675F80" d="m220.128 48.965 7.537 4.724c3.181 2.037 6.075 3.707 8.683 5.012-8.333-3.182-13.93-5.218-16.793-6.11-6.201-1.908-13.294-3.483-21.276-4.724-7.506-1.177-16.014.573-25.523 5.25a73.927 73.927 0 0 0-8.683 5.01l-3.339 2.387c0-2.386.906-4.868 2.719-7.445 1.877-2.64 4.421-4.964 7.633-6.968 7.633-4.74 16.268-6.3 25.904-4.677 9.287 1.59 17 4.104 23.138 7.54Z"/><path fill="#675F80" d="M184.539 35.601c-2.29 4.868-3.228 9.768-2.814 14.7l.763 5.775c.254 2.195.302 4.104.143 5.727-.223 2.004-.795 3.42-1.717 4.248l-4.294 2.815c-2.163 1.496-4.5 5.218-7.013 11.168-3.435 8.24-5.597 13.109-6.488 14.604-3.339 5.632-6.885 9.514-10.638 11.645-3.117 1.75-6.87 2.514-11.259 2.291-3.339-.191-6.647-1.972-9.923-5.345-3.53-3.627-4.58-7.064-3.148-10.309.954-2.163 4.198-4.931 9.732-8.304 5.915-3.627 9.668-6.65 11.258-9.068 10.305-15.909 16.348-25.008 18.129-27.3 6.583-8.558 12.34-12.774 17.269-12.647Z"/><path fill="#0D131A" d="m195.416 64.332 3.626.24c.572.285-.064.874-1.908 1.765-12.627 4.773-23.17 10.23-31.63 16.37-9.827 7.159-16.045 14.747-18.653 22.765-.731 1.814-1.383 2.689-1.956 2.625-.381-.064-.906-.732-1.574-2.004-3.848-7.51-9.462-14.286-16.84-20.332-6.393-5.281-14.503-10.308-24.33-15.08-2.131-1.05-3.022-1.735-2.672-2.053l3.149-.334c4.23.032 9.923 1.67 17.079 4.916 7.951 3.595 16.188 8.527 24.711 14.794 7.347-6.618 16.65-12.313 27.908-17.085 9.701-4.137 17.397-6.332 23.09-6.587Z"/><path fill="#152139" d="M144.418 90.295c8.651-7.763 19.051-14.127 31.2-19.09 9.637-3.946 16.586-5.855 20.848-5.727-11.323 3.786-21.563 8.813-30.723 15.081-11.863 8.082-18.764 16.45-20.704 25.104-2.895-6.84-7.777-13.3-14.646-19.377-7.697-6.84-17.095-12.424-28.194-16.752 11.672 1.687 25.745 8.607 42.219 20.761Z"/><path fill="#0B132A" d="M132.444 88.148c1.05-.796 2.576-1.814 4.58-3.055l7.394 5.203c8.142-7.319 17.906-13.427 29.292-18.327-.859 1.272-1.813 3.054-2.862 5.345-6.775 4.04-12.309 8.288-16.602 12.743-4.962 5.154-8.031 10.356-9.207 15.606-2.545-6.013-6.743-11.852-12.595-17.515Z"/><path fill="#0D131A" d="M151.002 80.559c-.573.032-1.05-.954-1.431-2.959l-.907-7.493 5.152-.143c.223 3.468-.031 6.188-.763 8.161-.54 1.59-1.224 2.402-2.051 2.434Z"/><path fill="#0D131A" d="m199.376 34.217 36.972 24.484c-17.301-8.846-29.339-14.095-36.114-15.75-7.855-1.909-14.709-.843-20.561 3.198l1.145 8.972c.573 4.391.541 6.968-.095 7.732-4.326 1.145-8.126 4.152-11.402 9.02-1.686 2.482-4.198 7.382-7.538 14.7-2.957 6.522-5.581 11.12-7.871 13.792-3.467 4.073-7.617 6.125-12.451 6.157-10.273.064-17.127-4.311-20.562-13.125-.858-2.163-1.972-6.188-3.339-12.074-1.24-5.25-2.481-9.148-3.721-11.693a57.703 57.703 0 0 0-3.578-6.3l-2.91-4.438c-1.845-3.087-2.894-7.016-3.149-11.789.477-16.195 4.882-28.27 13.215-36.224 6.901-6.586 15.663-9.815 26.286-9.688 6.456.064 12.435 1.496 17.937 4.295 4.103 2.069 8.524 5.282 13.263 9.641l11.64 10.977c4.484 3.913 8.762 6.618 12.833 8.113Z"/><path fill="#827AA0" d="m195.941 34.647 12.976 4.82 19.082 13.411c-12.88-7.477-23.487-11.852-31.82-13.124-7.982-1.21-14.105.381-18.366 4.772l.334 9.068c.063 4.518-.223 7.159-.859 7.922-3.88 1.273-7.299 4.264-10.257 8.973-1.399 2.195-3.673 6.888-6.822 14.08-2.671 6.108-5.104 10.451-7.299 13.028-3.244 3.818-7.172 5.759-11.783 5.823-9.16.127-15.298-4.041-18.415-12.504-.7-1.941-1.717-5.775-3.053-11.502-1.113-4.996-2.274-8.718-3.483-11.168l-6.201-10.213c-1.718-2.96-2.704-6.714-2.958-11.264.413-14.731 4.023-25.756 10.829-33.074 6.138-6.618 14.535-9.863 25.189-9.736 10.368.096 20.402 4.455 30.102 13.077l11.068 10.213c4.198 3.596 8.11 6.061 11.736 7.398Z"/><path fill="#0D131A" d="M164.216 26.247c.796-.827 1.304-1.161 1.527-1.002.477.318.398.97-.239 1.957.955 3.022 1.607 5.934 1.956 8.734.318 2.513.318 4.168 0 4.963-.286.732-1.685 2.307-4.198 4.725-2.608 2.45-4.866 4.327-6.774 5.632-.795.54-1.336.747-1.622.62-.254-.127-.413-.557-.477-1.289-.286-4.454.843-9.322 3.387-14.604 1.908-3.945 4.055-7.19 6.44-9.736Z"/><path fill="#fff" d="M166.315 39.897c-.159.7-1.685 2.37-4.579 5.01-2.99 2.705-4.787 3.883-5.391 3.533-1.177-.637-.604-3.898 1.717-9.784 2.29-5.918 4.342-9.323 6.154-10.214 1.05 2.132 1.734 4.502 2.052 7.111.254 2.037.27 3.485.047 4.344Z"/><path fill="#0D131A" d="m163.358 43.572-4.723 5.393c-.859.763-2.226 1.638-4.103 2.624-.254-1.718.334-4.931 1.765-9.64 1.463-4.804 2.831-7.938 4.103-9.402.986.986 1.749 2.657 2.29 5.011.509 2.036.731 4.04.668 6.014Z"/><path fill="#0D131A" d="m162.07 45.051-4.866 4.582-1.479-.048c-.573-.382-.398-2.434.524-6.157.955-3.786 2.02-6.41 3.197-7.874.922 1.209 1.622 2.88 2.099 5.01.382 1.687.556 3.183.525 4.487Z"/><path fill="#0D131A" d="M158.826 48.344c-.923 1.56-2.211 2.514-3.865 2.864-.222-.86-.159-2.37.191-4.534.318-2.132.7-3.595 1.145-4.39.859.922 1.479 1.908 1.861 2.958l.668 3.102Z"/><path fill="#fff" d="m157.538 46.722.477 1.909-2.481 2.004c0-2.577.223-4.693.668-6.347a7.316 7.316 0 0 1 1.336 2.434Z"/><path fill="#0D131A" d="M141.747 59.226h.286l-.143.286-2.051 2.052-1.098 1.193c-.604.541-1.001.7-1.192.478-.191-.191-.032-.605.477-1.241.922-1.146 2.162-2.068 3.721-2.768ZM124.525 59.608a15.488 15.488 0 0 0 2.719 2.863c.509.446.636.764.382.955-.255.222-.684.127-1.288-.287l-1.241-1.336-.954-1.957-.047-.525c.063-.159.206-.063.429.287ZM116.415 25.865c.223.032.366.51.429 1.432-.063 4.136.128 8.304.573 12.504.477 4.423 1.177 8.24 2.099 11.454.222.732-.207.923-1.288.573-1.304-.477-2.608-1.543-3.912-3.198-1.304-1.654-2.131-3.293-2.481-4.915a21.35 21.35 0 0 1-.238-8.161c.572-3.405 1.892-5.791 3.959-7.16l.382-1.86c.127-.478.286-.7.477-.669Z"/><path fill="#fff" d="M115.699 29.397c-.063 3.723.255 7.652.954 11.788.637 3.755 1.495 7.207 2.577 10.357-.477.286-1.575-.637-3.292-2.768-1.749-2.164-2.799-4.01-3.149-5.537-1.145-5.281-.175-9.895 2.91-13.84Z"/><path fill="#0D131A" d="M113.791 46.77c-.731-1.305-1.018-3.246-.859-5.823.255-3.31 1.4-5.95 3.435-7.923.159 3.882.477 7.287.954 10.214.382 2.29 1.018 5.059 1.909 8.304-.477.286-1.304-.08-2.481-1.098a12.173 12.173 0 0 1-2.958-3.675Z"/><path fill="#0D131A" d="M114.745 46.674c-.572-.986-.827-2.402-.763-4.248.095-2.386.779-4.47 2.051-6.252-.063 2.864.159 5.568.668 8.114.382 1.782 1.066 4.104 2.052 6.968-.35.19-.955-.223-1.813-1.241-.795-.955-1.527-2.068-2.195-3.341Z"/><path fill="#0D131A" d="M115.604 46.77c.191-1.114.811-2.18 1.86-3.198.191 1.654.509 3.213.955 4.677l.811 3.58-1.479-.573c-.605-.382-1.209-1.114-1.813-2.196-.35-.668-.461-1.431-.334-2.29Z"/><path fill="#fff" d="M118.753 51.255c-.7-.413-1.289-1.002-1.766-1.765-.731-1.082-.62-2.387.334-3.914a37.97 37.97 0 0 0 1.432 5.68Z"/><path fill="#675F80" d="M173.805 57.508c-3.053 1.59-5.868 4.009-8.444 7.254l-6.058 7.78c2.131-5.123 3.037-7.97 2.719-8.544l3.244-2.768c1.845-1.336 4.691-2.577 8.539-3.722Z"/><path fill="#0D131A" d="m122.76 88.291-3.435-11.406c-1.495-4.773-3.196-8.591-5.105-11.455 2.895 2.577 6.139 3.437 9.732 2.577l4.771-1.384c1.972-.572 3.737-.859 5.295-.859 2.513 0 5.964.589 10.353 1.766 3.975 1.05 6.599 1.48 7.871 1.289 1.94-.318 4.914-1.989 8.921-5.011 4.262-3.214 8.476-5.314 12.642-6.3-1.685.636-3.578 1.511-5.677 2.625l-2.671 1.431c-2.227 3.055-4.246 7.112-6.059 12.17l-4.15 12.362c-1.654 4.358-3.594 7.588-5.82 9.688-2.767 2.64-6.425 4.04-10.973 4.2-4.389.159-7.871-.875-10.447-3.102-2.068-1.814-3.817-4.678-5.248-8.591Z"/><path fill="#922F00" d="m124.382 88.577-2.91-9.736c-1.272-4.136-2.767-7.493-4.485-10.07 2.672 1.845 5.63 2.227 8.874 1.145l4.15-1.527c1.749-.572 3.34-.859 4.771-.859 2.29 0 5.391.668 9.302 2.005 3.563 1.24 5.9 1.765 7.013 1.575 2.481-.382 5.009-1.48 7.586-3.293 1.303-.891 2.353-1.75 3.148-2.578-2.035 2.736-3.8 6.3-5.295 10.69l-3.34 10.644c-1.367 3.722-3.021 6.459-4.961 8.209-2.481 2.259-5.852 3.452-10.114 3.579-3.943.16-7.028-.7-9.255-2.577-1.813-1.496-3.307-3.898-4.484-7.207Z"/><path fill="#0D131A" d="M138.98 93.493c.7-.255 1.415.207 2.147 1.384a10.475 10.475 0 0 1 1.288 3.531l-4.675.955c-.541-1.973-.7-3.373-.478-4.2.191-.732.764-1.288 1.718-1.67Z"/><path fill="#fff" d="M138.98 93.97c.382-.032.827.398 1.336 1.288.477.796.842 1.703 1.097 2.72h-.048l-2.958.335h-.238c-.159-2.8.111-4.248.811-4.343Z"/><path fill="#0D131A" d="M130.965 88.53c-.095-7.064.954-14.287 3.149-21.668l4.627.62 4.532 1.193c-2.194 8.368-3.291 16.004-3.291 22.909-.032 4.709.556 10.118 1.765 16.227 1.399 7.158 2.194 11.995 2.385 14.508.477 5.759.016 11.757-1.383 17.993-.7 8.241.842 15.399 4.627 21.476 1.877 3.023 3.833 5.234 5.868 6.634-2.417-.35-4.946-1.527-7.585-3.531-5.216-3.946-8.269-9.991-9.16-18.136-6.17 7.954-12.706 13.061-19.607 15.32-2.163.7-4.23 1.082-6.202 1.145l-2.29-.143c2.576-.923 5.534-2.577 8.874-4.963 6.647-4.741 11.847-10.739 15.6-17.993a51.825 51.825 0 0 0 2.337-18.04c-.159-3.278-.922-8.671-2.29-16.179-1.24-7.032-1.892-12.823-1.956-17.373Z"/><path fill="#ED8599" d="M132.206 88.53c-.159-6.969.795-13.969 2.862-21 2.449.095 4.818.557 7.108 1.384-2.29 7.986-3.498 15.4-3.625 22.24-.096 4.805.397 10.213 1.478 16.227 1.432 7.859 2.227 12.599 2.386 14.222a51.87 51.87 0 0 1-.954 16.275c-.954 8.463.206 15.829 3.482 22.097 1.654 3.15 3.387 5.44 5.2 6.872-1.813-.859-3.721-2.434-5.725-4.725-3.975-4.613-6.36-10.547-7.156-17.801-6.424 7.636-12.689 12.981-18.796 16.036-3.053 1.527-5.47 2.29-7.251 2.29 2.258-.413 4.93-1.702 8.015-3.865 6.138-4.296 11.29-10.739 15.456-19.329 1.75-5.6 2.449-11.439 2.099-17.516-.19-3.245-1.001-8.622-2.433-16.131-1.335-7.063-2.051-12.822-2.146-17.277Z"/><path fill="#CE7486" d="M137.883 72.828c-.986.445-2.211 2.243-3.674 5.393a53.63 53.63 0 0 0-1.956 4.581c-.063-1.559.143-3.706.621-6.443.508-2.831 1.24-5.806 2.194-8.924 2.258.095 4.612.556 7.061 1.384l-2.195 9.497c-.127-.19-.27-1.4-.429-3.627-.159-1.655-.7-2.275-1.622-1.861Z"/><path fill="#0D131A" d="M147.71 90.486c.477-.159 1.097.064 1.861.668.795.637 1.32 1.416 1.574 2.339l-4.15 3.532c-.414-1.4-.557-2.768-.43-4.105.127-1.4.509-2.211 1.145-2.434ZM127.053 89.627c.636.064 1.209.732 1.718 2.004.477 1.273.843 2.991 1.097 5.155l-3.864-3.007c-.286-.636-.318-1.495-.096-2.577.255-1.082.637-1.607 1.145-1.575ZM152.528 81.513c.318-.222.843-.095 1.575.382l1.669 1.814-2.576 5.68c-.954-1.846-1.415-3.612-1.383-5.298 0-1.368.238-2.227.715-2.578ZM120.661 79.175c.032-.414.207-.939.525-1.575.349-.636.604-.939.763-.907.445 0 .731.51.859 1.527.19 1.305.031 3.15-.477 5.537-1.145-2.514-1.702-4.041-1.67-4.582ZM122.187 84.568l.811-1.289c.35-.604.636-.89.859-.859.636.128 1.05.987 1.24 2.578.159 1.527.08 3.5-.238 5.918l-1.527-2.912c-.986-2.004-1.367-3.15-1.145-3.436ZM155.439 73.4c.381-.286.89-.238 1.526.144.604.381 1.097.986 1.479 1.813l-2.624 6.157c-.731-1.432-1.129-3.055-1.193-4.868-.063-1.782.207-2.864.812-3.246ZM125.193 74.212c-.541.095-1.097-.366-1.67-1.384-.604-1.019-.938-2.068-1.002-3.15 0-.223.795-.446 2.386-.668l2.385-.239c.064 1.177-.143 2.355-.62 3.532-.446 1.209-.938 1.845-1.479 1.909ZM149.046 75.07c-.414 0-.938-.524-1.574-1.574a9.506 9.506 0 0 1-1.241-3.675c3.212.286 4.803.54 4.771.763-.032 1.146-.27 2.18-.716 3.103-.413.89-.827 1.352-1.24 1.384Z"/><path fill="#fff" d="M147.853 91.393c.223-.191.557-.143 1.002.143.509.35.891.875 1.145 1.575-.763.986-1.606 1.798-2.528 2.434-.191-2.355-.064-3.739.381-4.152ZM152.862 82.468c.509-.19 1.066.111 1.67.907l-1.383 4.009c-.35-1.177-.541-2.275-.573-3.293-.063-.955.032-1.496.286-1.623ZM121.997 77.457c.445 0 .524 1.21.238 3.627l-.715-2.195c0-.35.047-.684.143-1.002l.334-.43ZM123.809 83.184c.223.032.398.652.525 1.861l.096 3.866c-.191-.127-.637-1.639-1.336-4.534.286-.827.525-1.225.715-1.193ZM155.772 74.164c.382-.318.875-.127 1.479.573l-1.335 3.96c-.7-2.513-.748-4.024-.144-4.533ZM127.101 90.39c.318 0 .652.59 1.002 1.766l.763 3.294c-.858-.732-1.654-1.719-2.385-2.96l.095-1.431c.128-.446.302-.668.525-.668ZM125.002 73.448c-.254 0-.525-.302-.811-.907-.286-.604-.493-1.304-.62-2.1l2.719-.763a6.724 6.724 0 0 1-.382 2.481c-.286.86-.588 1.29-.906 1.29ZM148.903 74.02c-.255 0-.557-.381-.907-1.145a7.555 7.555 0 0 1-.572-2.29l2.576.477-.382 2.052c-.222.605-.461.907-.715.907Z"/><path fill="#0D131A" d="M167.413 196.008c5.756 2.132 10.129 4.486 13.119 7.063l-.429 1.193c-2.831-2.354-7.156-4.565-12.977-6.633-6.583-2.355-12.864-3.643-18.843-3.866-4.707-.159-9.526.318-14.455 1.432-5.471 1.24-10.019 3.054-13.644 5.44l.334-1.479c3.912-2.641 8.412-4.566 13.5-5.775 4.644-1.114 9.462-1.575 14.455-1.384 6.17.254 12.483 1.591 18.94 4.009Z"/></g><defs><radialGradient id="b" cx="0" cy="0" r="1" gradientTransform="rotate(90 0 150) scale(225)" gradientUnits="userSpaceOnUse"><stop stop-color="#DA4E70"/><stop offset="1" stop-color="#827AA0"/></radialGradient><clipPath id="a"><path fill="#fff" d="M0 0h300v300H0z"/></clipPath></defs></svg>