<svg width="300" height="300" viewBox="0 0 300 300" fill="none" xmlns="http://www.w3.org/2000/svg">
<g clip-path="url(#clip0_861_543)">
<rect width="300" height="300" fill="white"/>
<rect x="-75" y="-75" width="450" height="450" fill="url(#paint0_radial_861_543)"/>
<path d="M75.7217 163.984C78.2978 160.038 80.54 158.241 82.4482 158.591C85.3424 159.132 86.0421 162.409 84.5473 168.422C82.7663 175.613 78.0116 184.203 70.2832 194.194C64.4313 201.703 61.2191 208.21 60.6466 213.714C60.0741 219.059 62.1255 221.986 66.8007 222.496C69.0269 222.75 74.2587 221.716 82.4959 219.393L110.547 211.423C140.029 203.437 165.202 199.412 186.066 199.348C209.823 199.253 227.347 205.346 238.638 217.627C242.836 222.177 245.937 227.379 247.941 233.234C249.499 237.815 250.246 242.206 250.183 246.406C250.024 257.797 247.257 265.974 241.882 270.937C234.98 277.332 223.738 278.494 208.154 274.421C205.991 273.88 204.337 272.099 203.192 269.076C202.747 267.867 201.968 264.765 200.855 259.769C199.964 255.665 198.946 252.706 197.801 250.892C196.116 248.283 193.699 246.979 190.55 246.979C182.822 246.979 168.892 249.477 148.76 254.472C127.387 259.785 113.871 262.649 108.21 263.062C87.0916 264.653 70.5853 263.031 58.6906 258.194C46.8595 253.358 39.481 245.261 36.555 233.902C34.8694 227.284 34.7899 221.255 36.3165 215.814C37.5569 211.296 40.0853 206.762 43.9018 202.212C45.7146 200.017 49.547 196.071 55.3989 190.376C60.583 185.349 64.4472 181.085 66.9915 177.586L75.7217 163.984Z" fill="#0D131A"/>
<path d="M76.7712 165.893C78.9975 162.17 80.7149 160.452 81.9235 160.739C83.8953 161.152 83.8953 164.239 81.9235 169.998C79.5382 177.029 74.6085 185.206 67.1346 194.529C62.4912 200.319 59.6607 206.11 58.6429 211.901C57.4026 218.741 59.6129 222.925 65.2741 224.453C67.1187 224.93 72.3028 224.071 80.8262 221.875L110.07 213.905C141.047 205.696 165.982 201.592 184.873 201.592C207.708 201.592 224.517 207.096 235.298 218.105C242.868 225.837 246.97 235.461 247.607 246.979C243.663 249.684 240.451 253.136 237.97 257.336C236.602 259.69 234.964 262.904 233.056 266.976C231.243 270.031 228.922 271.988 226.091 272.847C222.529 273.928 217.266 273.674 210.3 272.083C208.233 271.606 206.595 269.824 205.387 266.738C204.878 265.465 203.987 262.22 202.715 257.002C201.666 252.706 200.553 249.604 199.376 247.695C197.627 244.927 195.257 243.543 192.268 243.543C184.794 243.543 170.18 246.168 148.426 251.418C125.018 257.049 110.77 260.104 105.681 260.581C87.4256 262.267 72.4777 260.804 60.8374 256.19C48.8791 251.418 41.5324 243.734 38.7972 233.139C35.9667 222.066 38.4633 211.885 46.2871 202.594C48.0681 200.462 51.821 196.597 57.5457 190.997C62.5707 186.161 66.2918 182.072 68.7089 178.731L76.7712 165.893Z" fill="#827AA0"/>
<path d="M163.405 230.8C165.727 228.478 169.305 227.141 174.139 226.791C183.998 226.123 190.041 227.253 192.268 230.18C194.526 233.139 192.172 237.02 185.207 241.825C171.245 244.879 164.63 246.232 165.361 245.882C169.082 244.068 169.575 242.223 166.84 240.345C161.752 236.814 160.607 233.632 163.405 230.8Z" fill="#675F80"/>
<path d="M127.292 243.447L130.441 252.372C123.316 256.763 115.318 259.531 106.444 260.676L88.8409 261.201C77.6458 261.074 68.1364 259.388 60.3126 256.143C52.7115 252.993 46.9072 248.443 42.8999 242.493C46.2394 246.279 51.4075 249.302 58.4044 251.561C65.115 253.724 72.6526 254.918 81.0171 255.14C89.5723 255.363 97.7937 254.536 105.681 252.659C114.205 250.622 121.408 247.552 127.292 243.447Z" fill="#675F80"/>
<path d="M81.9712 237.243C82.7027 232.534 84.4519 228.334 87.2189 224.644C90.113 220.762 93.7069 218.041 98.0004 216.482L99.2408 216.101C89.0953 221.764 83.7522 229.766 83.2115 240.107C82.9889 244.466 83.7522 248.634 85.5014 252.611C87.187 256.556 89.5724 259.722 92.6573 262.108L91.8463 262.49C87.8072 259.499 84.929 255.665 83.2115 250.988C81.6213 246.629 81.2079 242.048 81.9712 237.243Z" fill="#0D131A"/>
<path d="M68.2795 224.118L69.663 223.975C63.9701 227.348 60.5512 232.073 59.4062 238.15C58.6111 242.254 58.627 246.104 59.4539 249.699C60.249 253.199 61.6802 255.936 63.7475 257.908L62.5071 257.622C60.5353 255.84 59.1041 253.215 58.2136 249.747C57.1958 245.929 57.1322 241.936 58.0227 237.768C58.7542 234.363 60.1377 231.42 62.1732 228.939C63.9224 226.839 65.9578 225.232 68.2795 224.118Z" fill="#0D131A"/>
<path d="M59.3108 217.246L59.1677 218.009C52.5843 217.564 47.4638 219.409 43.8063 223.545C40.6259 227.173 39.2107 231.563 39.5605 236.718L38.7972 235.143C38.6382 229.702 40.1648 225.343 43.377 222.066C47.0345 218.28 52.3457 216.673 59.3108 217.246Z" fill="#0D131A"/>
<path d="M46.0008 202.021L46.5256 201.449C49.6424 200.431 52.4888 200.494 55.065 201.64C57.6411 202.753 59.3585 204.71 60.2172 207.51L59.7402 208.226C59.0087 205.362 57.1163 203.405 54.0631 202.355C51.5188 201.465 48.8314 201.353 46.0008 202.021Z" fill="#0D131A"/>
<path d="M60.5512 187.226L60.9805 186.606C66.101 185.46 69.0428 187.147 69.8061 191.665L69.3768 192.142C68.8043 189.819 67.6117 188.292 65.7988 187.56L60.5512 187.226Z" fill="#0D131A"/>
<path d="M69.4722 176.679L69.8061 176.154C71.8416 175.39 73.5908 175.39 75.0538 176.154C76.5804 176.917 77.4391 178.317 77.6299 180.354L77.2006 180.783C76.8189 178.906 75.8648 177.633 74.3382 176.965L69.4722 176.679Z" fill="#0D131A"/>
<path d="M74.4336 168.852L74.6244 168.422C76.4055 167.309 78.0911 167.102 79.6813 167.802C81.1761 168.47 82.0348 169.599 82.2574 171.19L82.0189 171.572C81.2238 169.758 80.0947 168.661 78.6318 168.279C77.3596 167.929 75.9602 168.12 74.4336 168.852Z" fill="#0D131A"/>
<path d="M186.638 241.968L185.78 241.252C185.016 229.225 188.038 219.823 194.844 213.046C201.109 206.842 208.599 204.392 217.313 205.696L218.888 206.365C208.583 205.601 200.441 208.814 194.462 216.005C188.96 222.719 186.352 231.373 186.638 241.968Z" fill="#0D131A"/>
<path d="M186.4 242.35L185.78 241.252C190.741 235.239 196.831 231.007 204.051 228.557C210.507 226.362 217.154 225.805 223.992 226.887C230.48 227.873 236.014 230.116 240.594 233.616C245.301 237.18 248.02 241.348 248.752 246.12L249.706 249.843C247.861 243.288 244.251 238.086 238.876 234.236C233.851 230.673 227.856 228.653 220.891 228.175C214.212 227.698 207.772 228.7 201.57 231.182C195.114 233.759 190.057 237.482 186.4 242.35Z" fill="#0D131A"/>
<path d="M235.585 51.4463C245.062 58.5415 252.425 66.6549 257.673 75.7865C262.888 84.918 265.56 94.2563 265.687 103.802C265.878 119.201 259.772 133.042 247.368 145.323C237.413 155.186 225.121 162.711 210.491 167.897C202.063 170.888 195.194 176.456 189.882 184.601C185.271 191.665 182.281 199.858 180.914 209.18C179.673 217.771 180.023 225.407 181.963 232.089C183.935 238.929 187.068 242.827 191.361 243.781C198.135 240.091 209.935 239.152 226.759 240.966C235.187 241.856 242.931 243.113 249.992 244.736C251.487 262.299 244.887 275.949 230.194 285.685C216.741 294.562 198.676 298.952 176 298.857C162.579 298.793 150.525 296.471 139.839 291.889C129.47 287.435 121.535 281.389 116.033 273.753C111.454 267.39 108.75 260.597 107.923 253.374C107.255 247.488 107.828 240.791 109.641 233.282C110.468 229.877 112.535 223.196 115.842 213.237C118.641 204.805 120.454 198.028 121.281 192.906C122.012 188.324 121.265 183.695 119.039 179.017C116.113 172.972 110.929 167.675 103.487 163.125C85.74 152.275 72.6685 142.173 64.2722 132.819C55.6215 123.146 51.2962 113.585 51.2962 104.136C51.2962 80.0182 62.5071 60.8642 84.929 46.6737C94.7246 40.4694 106.015 35.7286 118.8 32.4514C131.045 29.3015 143.703 27.7266 156.774 27.7266C172.613 27.7266 187.465 29.8901 201.332 34.2173C214.308 38.2899 225.725 44.0329 235.585 51.4463Z" fill="#0D131A"/>
<path d="M231.434 51.3987C241.23 58.2394 248.799 66.1619 254.142 75.1662C259.708 84.5205 262.491 94.4633 262.491 104.995C262.491 118.549 257.211 130.799 246.652 141.744C237.334 151.384 224.421 159.561 207.915 166.275C199.614 169.679 192.824 175.406 187.545 183.456C182.901 190.583 179.896 198.712 178.528 207.844C177.224 216.371 177.558 224.103 179.53 231.039C181.534 238.102 184.778 242.62 189.262 244.593L188.69 242.493L188.785 242.588C195.273 238.102 206.993 236.989 223.944 239.248C232.404 240.393 240.228 241.984 247.416 244.02C248.879 259.897 243.218 272.512 230.432 281.867C217.361 291.38 198.771 296.057 174.664 295.898C162.642 295.834 151.702 293.719 141.842 289.551C131.347 285.16 123.126 278.844 117.178 270.603C109.704 260.136 108.512 245.881 113.6 227.841L120.327 207.51C122.808 200.16 124.048 194.719 124.048 191.188C124.048 185.938 122.776 180.958 120.231 176.249C117.178 170.65 112.551 165.893 106.349 161.979C89.8427 151.607 77.7253 142.539 69.997 134.776C59.7561 124.499 54.5084 114.27 54.254 104.088C53.9995 93.5247 56.4325 83.6137 61.553 74.3549C66.4826 65.446 73.6226 57.6349 82.973 50.9215C92.2916 44.2717 103.169 39.1491 115.604 35.5538C128.357 31.863 141.969 30.0176 156.44 30.0176C170.879 30.0176 184.635 31.9107 197.706 35.697C210.459 39.3877 221.702 44.6217 231.434 51.3987Z" fill="#827AA0"/>
<path d="M129.725 283.06C122.251 277.873 117.035 271.955 114.077 265.306C127.594 279.56 144.943 288.437 166.125 291.937C173.249 293.114 180.866 293.671 188.976 293.607L204.003 292.987C197.165 294.673 189.453 295.643 180.866 295.898C171.77 296.184 163.564 295.58 156.25 294.084C146.231 292.048 137.39 288.373 129.725 283.06Z" fill="#675F80"/>
<path d="M185.97 242.493L187.115 241.443C187.402 242.238 191.059 244.1 198.088 247.027C205.593 250.877 210.571 255.442 213.02 260.724C215.341 265.719 215.946 271.59 214.832 278.335C213.751 285.112 211.35 290.044 207.629 293.13L206.389 292.939C209.887 289.98 212.129 285.064 213.115 278.192C214.037 271.669 213.529 266.276 211.588 262.013C208.981 256.349 204.289 251.799 197.515 248.363L190.359 245.118C188.038 244.1 186.575 243.225 185.97 242.493Z" fill="#0D131A"/>
<path d="M184.682 240.441L186.447 241.395C186.956 246.359 186.463 251.672 184.969 257.336C183.188 264.081 180.325 269.522 176.381 273.658C171.229 279.035 164.153 283.044 155.152 285.685C147.965 287.816 141.62 288.66 136.118 288.214L134.925 287.307C142.59 286.926 149.221 285.86 154.818 284.11C162.483 281.724 169.162 277.858 174.855 272.512C178.703 268.917 181.613 263.556 183.585 256.429C185.366 249.874 185.732 244.545 184.682 240.441Z" fill="#0D131A"/>
<path d="M124.907 232.089C132.412 229.957 139.059 228.955 144.848 229.082C152.672 229.273 160.479 230.482 168.271 232.709C175.745 234.809 181.168 237.243 184.539 240.011L185.923 241.872C173.837 235 160.909 231.389 147.138 231.039C133.366 230.657 121.011 233.584 110.07 239.82L110.356 238.532C112.805 236.304 117.655 234.157 124.907 232.089Z" fill="#0D131A"/>
<path d="M190.979 171.668C193.969 168.454 198.326 165.543 204.051 162.934C207.422 161.375 212.956 159.116 220.653 156.157C227.777 153.198 233.772 150.032 238.638 146.66C245.253 142.046 250.994 136.351 255.86 129.574C251.471 137.273 244.951 144.337 236.3 150.764C228.381 156.65 218.919 161.82 207.915 166.275C199.296 169.807 192.315 175.852 186.972 184.411C182.265 191.951 179.355 200.478 178.242 209.992C177.892 203.756 178.56 197.567 180.246 191.426C182.376 183.599 185.954 177.013 190.979 171.668Z" fill="#675F80"/>
<path d="M106.635 48.5352L107.971 53.8327C102.342 54.9145 96.283 57.0622 89.795 60.2757C86.7418 61.8029 83.1638 63.9824 79.0611 66.8141C74.0043 70.2822 70.1878 73.4162 67.6117 76.2161C69.2337 73.7344 72.3505 70.3299 76.962 66.0028C81.3192 61.8666 84.8972 58.8598 87.6959 56.9826C90.9081 54.8509 94.5974 52.9418 98.7637 51.2555C101.562 50.1101 104.186 49.2033 106.635 48.5352Z" fill="#675F80"/>
<path d="M105.92 49.6326C103.662 50.2053 100.799 51.2712 97.3325 52.8302C93.5797 54.5166 90.3038 56.2824 87.5051 58.1278C85.1516 59.6869 81.9235 62.3118 77.8208 66.0026C73.4954 69.9797 70.0288 73.5114 67.4208 76.5977C68.9474 74.0523 71.9211 70.5047 76.3419 65.9548C80.5718 61.5641 84.0384 58.3824 86.7418 56.4097C89.8586 54.1507 93.4524 52.0825 97.5234 50.2053C100.258 48.9326 102.851 47.9145 105.299 47.1509L105.92 49.6326Z" fill="#0D131A"/>
<path d="M215.787 130.051C216.518 129.287 216.963 128.937 217.122 129.001C217.313 129.096 217.234 129.717 216.884 130.862C213.99 140.917 208.726 148.966 201.093 155.012C193.715 160.834 184.635 164.445 173.853 165.845C167.111 166.704 161.688 168.073 157.585 169.95C153.832 171.636 150.747 173.959 148.33 176.918L146.995 178.159C146.836 178.19 146.581 177.92 146.231 177.347C144.228 173.911 141.985 171.143 139.505 169.043C136.229 166.307 131.649 163.825 125.765 161.598C107.065 154.502 95.3607 146.166 90.6537 136.589C90.272 135.826 90.1448 135.317 90.272 135.062C90.3993 134.776 90.8922 134.999 91.7509 135.73C99.4475 142.412 108.369 145.578 118.514 145.228C129.327 144.814 138.01 140.28 144.562 131.626C145.229 130.703 145.675 130.242 145.897 130.242C146.152 130.242 146.645 130.687 147.376 131.578C151.065 136.192 155.772 139.771 161.497 142.317C167.095 144.798 173.106 146.055 179.53 146.087C193.778 146.087 205.864 140.742 215.787 130.051Z" fill="#0D131A"/>
<path d="M199.805 143.796C205.816 141.155 210.698 137.592 214.451 133.105C211.907 141.251 207.168 148.044 200.234 153.484C192.602 159.466 182.997 163.189 171.42 164.652C165.314 165.448 160.416 166.688 156.727 168.375C153.355 169.87 150.588 171.954 148.426 174.627L147.233 175.868C147.042 175.963 146.804 175.756 146.517 175.247C144.641 172.034 142.621 169.473 140.459 167.563C137.437 164.923 133.303 162.6 128.055 160.596C119.786 157.446 113.298 154.503 108.591 151.766C102.167 148.012 97.1417 143.669 93.5161 138.737C101.499 144.782 110.356 147.519 120.088 146.946C130.425 146.341 138.646 142.014 144.752 133.965C145.388 133.137 145.802 132.724 145.993 132.724C146.215 132.724 146.661 133.137 147.328 133.965C151.24 138.864 156.297 142.539 162.499 144.989C168.287 147.248 174.537 148.25 181.247 147.996C187.799 147.773 193.985 146.373 199.805 143.796Z" fill="#152139"/>
<path d="M221.845 73.4958C222.036 87.7499 219.969 100.047 215.644 110.388C211.795 119.488 206.5 126.44 199.757 131.244C193.587 135.635 187.068 137.735 180.198 137.544C173.519 137.321 167.81 134.983 163.071 130.528C156.265 124.101 153.944 116.497 156.106 107.715C158.11 99.5063 162.928 93.4452 170.561 89.5316C179.117 85.1409 188.006 80.941 197.229 76.932L215.405 69.105C218.14 67.8641 219.889 67.4982 220.653 68.0073C221.416 68.5164 221.814 70.3459 221.845 73.4958Z" fill="#0D131A"/>
<path d="M84.7858 80.3205C85.1675 76.0252 85.899 73.7026 86.9803 73.3526C87.9344 73.0344 90.2879 74.1162 94.0408 76.5979L105.49 83.375C111.946 87.0976 117.592 90.5816 122.426 93.827C129.677 98.695 134.178 104.788 135.927 112.106C137.676 119.456 136.086 125.787 131.156 131.101C128.039 134.473 123.714 136.303 118.18 136.589C112.36 136.907 106.874 135.332 101.721 131.864C95.8059 127.855 91.3534 121.906 88.3638 114.015C84.8654 104.82 83.6727 93.5883 84.7858 80.3205Z" fill="#0D131A"/>
<path d="M86.217 82.6115C86.5669 78.0616 87.1234 75.6435 87.8867 75.3572C88.5864 75.1345 90.9876 76.3912 95.0903 79.1275L105.681 85.4273C111.66 88.8954 116.892 92.1408 121.376 95.1634C128.151 99.7133 132.381 105.377 134.066 112.154C135.752 119.026 134.305 124.928 129.725 129.86C126.831 132.978 122.808 134.601 117.655 134.728C112.28 134.887 107.176 133.28 102.342 129.908C96.8396 126.058 92.6732 120.49 89.8427 113.204C86.5351 104.74 85.3265 94.543 86.217 82.6115Z" fill="#152139"/>
<path d="M220.032 73.1618C220.478 86.5887 218.713 98.361 214.737 108.479C211.175 117.515 206.166 124.483 199.71 129.383C193.699 133.965 187.306 136.128 180.532 135.874C173.758 135.587 167.858 132.899 162.833 127.808C157.681 122.558 156.09 116.02 158.062 108.193C160.002 100.429 164.503 94.7657 171.563 91.2022C183.14 85.3478 198.04 78.5071 216.264 70.6801C218.077 69.821 219.158 69.5506 219.508 69.8687C219.794 70.0915 219.969 71.1892 220.032 73.1618Z" fill="#152139"/>
<path d="M215.166 80.1296C214.88 89.7065 212.956 98.5199 209.394 106.57C206.118 113.951 201.856 119.853 196.609 124.276C191.488 128.635 186.273 130.862 180.961 130.958C175.364 131.085 170.545 128.826 166.506 124.18C162.499 119.567 161.895 114.126 164.693 107.858C167.301 101.94 171.945 97.1995 178.624 93.636C185.08 90.1679 191.934 86.9066 199.185 83.8522L211.827 78.4592C213.195 77.791 214.101 77.5842 214.546 77.8387C214.992 78.0614 215.198 78.8251 215.166 80.1296Z" fill="#0D131A"/>
<path d="M90.5583 86.6206C90.5265 85.1252 90.7332 84.2661 91.1784 84.0434C91.6555 83.8207 92.6096 84.1388 94.0408 84.9979L105.299 91.5363L118.085 99.2679C124.636 103.563 128.437 108.59 129.486 114.349C130.409 119.281 129.327 123.449 126.242 126.853C123.952 129.431 120.868 130.672 116.987 130.576C112.98 130.481 109.1 128.937 105.347 125.947C95.8059 118.311 90.8763 105.202 90.5583 86.6206Z" fill="#0D131A"/>
<path d="M213.163 82.9456C212.718 91.1863 210.921 98.8701 207.772 105.997C204.814 112.647 201.03 118.072 196.418 122.272C191.87 126.408 187.195 128.731 182.392 129.24C177.336 129.781 172.835 128.174 168.892 124.419C165.361 121.047 164.216 116.672 165.457 111.295C167.015 104.645 172.39 98.9497 181.581 94.2089C188.324 90.709 194.764 87.6546 200.902 85.0456L211.255 80.7025C212.018 80.3207 212.543 80.2571 212.829 80.5116C213.147 80.8298 213.258 81.6411 213.163 82.9456Z" fill="#DA4E70"/>
<path d="M92.0849 87.4794C92.0531 86.5886 92.1644 86.0954 92.4188 85.9999C92.6414 85.9045 93.1821 86.0954 94.0408 86.5726L106.206 93.827C112.312 97.3587 116.542 100.047 118.896 101.893C124.239 106.061 127.26 110.642 127.96 115.638C128.5 119.647 127.61 122.94 125.288 125.517C122.935 128.158 119.897 129.303 116.176 128.953C112.424 128.603 108.782 126.821 105.252 123.608C96.6328 115.781 92.2439 103.738 92.0849 87.4794Z" fill="#DA4E70"/>
<path d="M205.1 93.2065C203.606 101.32 200.219 108.065 194.939 113.442C192.745 115.669 190.598 117.197 188.499 118.024C186.4 118.883 184.762 118.883 183.585 118.024C181.486 116.688 181.057 114.683 182.297 112.011L178.194 111.772C176.986 111.231 176.222 110.451 175.904 109.433C175.427 107.97 175.745 106.554 176.858 105.186C178.067 103.722 180.23 102.243 183.347 100.747L202.143 91.3452C203.733 90.5498 204.703 90.2634 205.053 90.4862C205.371 90.7089 205.387 91.6157 205.1 93.2065Z" fill="#0D131A"/>
<path d="M203.335 94.018C202.222 100.445 199.312 106.22 194.605 111.342C190.121 116.21 186.781 117.849 184.587 116.258C183.696 115.685 183.283 114.763 183.347 113.49C183.41 112.504 183.744 111.39 184.348 110.149L180.341 110.483C179.101 110.229 178.321 109.704 178.003 108.908C177.463 107.572 177.86 106.283 179.196 105.043C180.277 104.056 182.329 102.831 185.35 101.368L201.761 93.1112C202.493 92.7294 202.954 92.6021 203.145 92.7294C203.399 92.8248 203.463 93.2543 203.335 94.018Z" fill="#EFE908"/>
<path d="M106.778 117.165C104.902 115.065 103.264 112.265 101.865 108.765C100.592 105.552 99.6224 102.052 98.9545 98.2654C98.7319 97.0882 98.7319 96.4359 98.9545 96.3087C99.1772 96.1814 99.7019 96.4359 100.529 97.0723L116.51 106.713C119.723 108.558 120.804 110.579 119.754 112.774C119.341 113.633 118.657 114.238 117.703 114.588C116.685 114.969 115.668 114.969 114.65 114.588C115.636 116.751 115.095 118.294 113.028 119.217C110.897 120.14 108.814 119.456 106.778 117.165Z" fill="#0D131A"/>
<path d="M106.54 114.54C104.059 111.263 102.167 106.458 100.863 100.127C100.736 99.4903 100.751 99.1403 100.91 99.0767L102.199 99.7925L107.732 103.372L115.031 107.524C116.494 108.256 117.48 109.051 117.989 109.91C118.498 110.738 118.546 111.581 118.132 112.44C117.814 113.013 117.146 113.363 116.129 113.49L113.123 113.06C113.537 114.015 113.68 114.953 113.553 115.876C113.394 116.767 113.028 117.356 112.455 117.642C110.674 118.469 108.702 117.435 106.54 114.54Z" fill="#EFE908"/>
<path d="M220.128 48.9646L227.665 53.6894C230.846 55.7257 233.74 57.3961 236.348 58.7006C228.015 55.5189 222.418 53.4826 219.555 52.5917C213.354 50.6827 206.261 49.1078 198.279 47.8669C190.773 46.6896 182.265 48.4396 172.756 53.1167C169.766 54.5803 166.872 56.2507 164.073 58.1279L160.734 60.5142C160.734 58.1279 161.64 55.6462 163.453 53.069C165.33 50.4282 167.874 48.1055 171.086 46.101C178.719 41.3603 187.354 39.8012 196.99 41.4239C206.277 43.0148 213.99 45.5283 220.128 48.9646Z" fill="#675F80"/>
<path d="M184.539 35.6014C182.249 40.4695 181.311 45.3693 181.725 50.301L182.488 56.0758C182.742 58.2712 182.79 60.1802 182.631 61.8029C182.408 63.8074 181.836 65.2233 180.914 66.0505L176.62 68.8663C174.457 70.3617 172.12 74.0843 169.607 80.0342C166.172 88.2748 164.01 93.1429 163.119 94.6383C159.78 100.27 156.234 104.152 152.481 106.283C149.364 108.033 145.611 108.797 141.222 108.574C137.883 108.383 134.575 106.602 131.299 103.229C127.769 99.6018 126.719 96.1655 128.151 92.9201C129.105 90.7566 132.349 87.9885 137.883 84.6158C143.798 80.9887 147.551 77.966 149.141 75.5479C159.446 59.6393 165.489 50.5396 167.27 48.2488C173.853 39.6899 179.61 35.4742 184.539 35.6014Z" fill="#675F80"/>
<path d="M195.416 64.3325L199.042 64.5711C199.614 64.8575 198.978 65.4461 197.134 66.337C184.507 71.1096 173.964 76.5662 165.504 82.707C155.677 89.8658 149.459 97.4542 146.851 105.472C146.12 107.286 145.468 108.161 144.895 108.097C144.514 108.033 143.989 107.365 143.321 106.093C139.473 98.5837 133.859 91.8067 126.481 85.7614C120.088 80.4798 111.978 75.4526 102.151 70.6801C100.02 69.6301 99.1295 68.946 99.4793 68.6278L102.628 68.2938C106.858 68.3256 112.551 69.9642 119.707 73.2095C127.658 76.8049 135.895 81.7365 144.418 88.0045C151.765 81.3865 161.068 75.6913 172.326 70.9187C182.027 66.7824 189.723 64.5871 195.416 64.3325Z" fill="#0D131A"/>
<path d="M144.418 90.2951C153.069 82.5317 163.469 76.1682 175.618 71.2047C185.255 67.2594 192.204 65.3504 196.466 65.4776C185.143 69.2639 174.903 74.291 165.743 80.559C153.88 88.6406 146.979 97.0085 145.039 105.663C142.144 98.8221 137.262 92.3632 130.393 86.2861C122.696 79.4454 113.298 73.8615 102.199 69.5343C113.871 71.2207 127.944 78.1409 144.418 90.2951Z" fill="#152139"/>
<path d="M132.444 88.1478C133.494 87.3524 135.02 86.3342 137.024 85.0933L144.418 90.2955C152.56 82.9775 162.324 76.8686 173.71 71.9688C172.851 73.2414 171.897 75.0232 170.848 77.314C164.073 81.3548 158.539 85.6024 154.246 90.0568C149.284 95.2112 146.215 100.413 145.039 105.663C142.494 99.6497 138.296 93.8113 132.444 88.1478Z" fill="#0B132A"/>
<path d="M151.002 80.559C150.429 80.5908 149.952 79.6045 149.571 77.6L148.664 70.107L153.816 69.9639C154.039 73.4319 153.785 76.1523 153.053 78.125C152.513 79.7158 151.829 80.5272 151.002 80.559Z" fill="#0D131A"/>
<path d="M199.376 34.2174L236.348 58.7007C219.047 49.8555 207.009 44.6057 200.234 42.9512C192.379 41.0422 185.525 42.1081 179.673 46.1488L180.818 55.1213C181.391 59.5121 181.359 62.0893 180.723 62.8529C176.397 63.9983 172.597 67.005 169.321 71.8731C167.635 74.3548 165.123 79.2546 161.783 86.5726C158.826 93.0951 156.202 97.6927 153.912 100.365C150.445 104.438 146.295 106.49 141.461 106.522C131.188 106.586 124.334 102.211 120.899 93.3974C120.041 91.2338 118.927 87.2089 117.56 81.3228C116.32 76.0729 115.079 72.1753 113.839 69.6299C112.821 67.53 111.628 65.4301 110.261 63.3301L107.351 58.8916C105.506 55.8054 104.457 51.8759 104.202 47.1034C104.679 30.9084 109.084 18.8338 117.417 10.8795C124.318 4.2933 133.08 1.06385 143.703 1.19112C150.159 1.25475 156.138 2.68653 161.64 5.48644C165.743 7.55456 170.164 10.7681 174.903 15.1271L186.543 26.104C191.027 30.0175 195.305 32.722 199.376 34.2174Z" fill="#0D131A"/>
<path d="M195.941 34.6469L208.917 39.4672L227.999 52.8781C215.119 45.4011 204.512 41.0262 196.179 39.7535C188.197 38.5445 182.074 40.1353 177.813 44.5261L178.147 53.594C178.21 58.1121 177.924 60.7529 177.288 61.5165C173.408 62.7892 169.989 65.78 167.031 70.489C165.632 72.6843 163.358 77.3774 160.209 84.5681C157.538 90.677 155.105 95.02 152.91 97.5972C149.666 101.415 145.738 103.356 141.127 103.42C131.967 103.547 125.829 99.379 122.712 90.9156C122.012 88.9748 120.995 85.1408 119.659 79.4137C118.546 74.4184 117.385 70.6958 116.176 68.2458L109.975 58.0325C108.257 55.0735 107.271 51.3191 107.017 46.7692C107.43 32.0379 111.04 21.0132 117.846 13.6952C123.984 7.07725 132.381 3.8319 143.035 3.95917C153.403 4.05462 163.437 8.41358 173.137 17.036L184.205 27.2494C188.403 30.8447 192.315 33.3105 195.941 34.6469Z" fill="#827AA0"/>
<path d="M164.216 26.2473C165.012 25.42 165.52 25.0859 165.743 25.245C166.22 25.5632 166.141 26.2155 165.504 27.2018C166.459 30.2244 167.111 33.1357 167.46 35.9356C167.778 38.4492 167.778 40.1037 167.46 40.8991C167.174 41.6309 165.775 43.2058 163.262 45.624C160.654 48.0739 158.396 49.9511 156.488 51.2556C155.693 51.7965 155.152 52.0033 154.866 51.876C154.612 51.7488 154.453 51.3192 154.389 50.5874C154.103 46.133 155.232 41.265 157.776 35.9833C159.684 32.038 161.831 28.7927 164.216 26.2473Z" fill="#0D131A"/>
<path d="M166.315 39.8966C166.156 40.5966 164.63 42.267 161.736 44.9078C158.746 47.6123 156.949 48.7895 156.345 48.4395C155.168 47.8032 155.741 44.5419 158.062 38.6557C160.352 32.7377 162.404 29.3333 164.216 28.4424C165.266 30.5741 165.95 32.9445 166.268 35.5535C166.522 37.5898 166.538 39.0375 166.315 39.8966Z" fill="white"/>
<path d="M163.358 43.5715L158.635 48.9646C157.776 49.7282 156.409 50.6031 154.532 51.5895C154.278 49.8713 154.866 46.6578 156.297 41.9489C157.76 37.1445 159.128 34.0105 160.4 32.5469C161.386 33.5332 162.149 35.2036 162.69 37.5581C163.199 39.5944 163.421 41.5989 163.358 43.5715Z" fill="#0D131A"/>
<path d="M162.07 45.0511L157.204 49.6328L155.725 49.5851C155.152 49.2033 155.327 47.1511 156.249 43.4285C157.204 39.6422 158.269 37.0173 159.446 35.5537C160.368 36.7628 161.068 38.4332 161.545 40.5649C161.927 42.2512 162.101 43.7466 162.07 45.0511Z" fill="#0D131A"/>
<path d="M158.826 48.3444C157.903 49.9034 156.615 50.8579 154.961 51.2079C154.739 50.3489 154.802 48.8376 155.152 46.674C155.47 44.5422 155.852 43.0786 156.297 42.2832C157.156 43.2059 157.776 44.1922 158.158 45.2422L158.826 48.3444Z" fill="#0D131A"/>
<path d="M157.538 46.7216L158.015 48.6306L155.534 50.6351C155.534 48.0579 155.757 45.9421 156.202 44.2876C156.806 45.0194 157.251 45.8307 157.538 46.7216Z" fill="white"/>
<path d="M141.747 59.2256H142.033L141.89 59.5119L139.839 61.5642L138.741 62.7573C138.137 63.2982 137.74 63.4573 137.549 63.2346C137.358 63.0437 137.517 62.63 138.026 61.9937C138.948 60.8483 140.188 59.9256 141.747 59.2256Z" fill="#0D131A"/>
<path d="M124.525 59.6075C125.32 60.6893 126.226 61.6438 127.244 62.4711C127.753 62.9165 127.88 63.2347 127.626 63.4256C127.371 63.6483 126.942 63.5528 126.338 63.1392L125.097 61.8029L124.143 59.8461L124.096 59.3212C124.159 59.1621 124.302 59.2575 124.525 59.6075Z" fill="#0D131A"/>
<path d="M116.415 25.8653C116.638 25.8971 116.781 26.3744 116.844 27.2971C116.781 31.4333 116.972 35.6014 117.417 39.8012C117.894 44.2238 118.594 48.0419 119.516 51.2554C119.738 51.9872 119.309 52.1781 118.228 51.8281C116.924 51.3509 115.62 50.285 114.316 48.6305C113.012 46.976 112.185 45.3374 111.835 43.7147C111.231 41.0103 111.151 38.2899 111.597 35.5536C112.169 32.1492 113.489 29.7629 115.556 28.3948L115.938 26.5334C116.065 26.0562 116.224 25.8335 116.415 25.8653Z" fill="#0D131A"/>
<path d="M115.699 29.397C115.636 33.1196 115.954 37.049 116.653 41.1853C117.29 44.9397 118.148 48.3918 119.23 51.5418C118.753 51.8281 117.655 50.9054 115.938 48.7737C114.189 46.6101 113.139 44.7647 112.789 43.2375C111.644 37.9558 112.614 33.3423 115.699 29.397Z" fill="white"/>
<path d="M113.791 46.7695C113.06 45.4649 112.773 43.5241 112.932 40.9469C113.187 37.6379 114.332 34.9971 116.367 33.0244C116.526 36.9061 116.844 40.3106 117.321 43.2377C117.703 45.5286 118.339 48.2967 119.23 51.542C118.753 51.8284 117.926 51.4625 116.749 50.4443C115.509 49.3944 114.523 48.1694 113.791 46.7695Z" fill="#0D131A"/>
<path d="M114.745 46.674C114.173 45.6877 113.918 44.2718 113.982 42.4264C114.077 40.0401 114.761 37.9561 116.033 36.1743C115.97 39.0379 116.192 41.7423 116.701 44.2877C117.083 46.0695 117.767 48.3921 118.753 51.2557C118.403 51.4466 117.798 51.033 116.94 50.0148C116.145 49.0603 115.413 47.9467 114.745 46.674Z" fill="#0D131A"/>
<path d="M115.604 46.7694C115.795 45.6558 116.415 44.5899 117.464 43.5718C117.655 45.2263 117.973 46.7853 118.419 48.2489L119.23 51.8283L117.751 51.2556C117.146 50.8738 116.542 50.142 115.938 49.0602C115.588 48.3921 115.477 47.6285 115.604 46.7694Z" fill="#0D131A"/>
<path d="M118.753 51.2555C118.053 50.8419 117.464 50.2533 116.987 49.4897C116.256 48.4079 116.367 47.1034 117.321 45.5762C117.639 47.4534 118.116 49.3465 118.753 51.2555Z" fill="white"/>
<path d="M173.805 57.5078C170.752 59.0987 167.937 61.5168 165.361 64.7621L159.303 72.5414C161.434 67.4189 162.34 64.5712 162.022 63.9985L165.266 61.2304C167.111 59.8941 169.957 58.6532 173.805 57.5078Z" fill="#675F80"/>
<path d="M122.76 88.291L119.325 76.8845C117.83 72.1119 116.129 68.2939 114.22 65.4303C117.115 68.0075 120.359 68.8666 123.952 68.0075L128.723 66.6234C130.695 66.0507 132.46 65.7644 134.018 65.7644C136.531 65.7644 139.982 66.353 144.371 67.5302C148.346 68.5802 150.97 69.0097 152.242 68.8188C154.182 68.5007 157.156 66.8303 161.163 63.8076C165.425 60.5941 169.639 58.4941 173.805 57.5078C172.12 58.1442 170.227 59.0191 168.128 60.1327L165.457 61.5645C163.23 64.619 161.211 68.6757 159.398 73.7346L155.248 86.0956C153.594 90.4545 151.654 93.684 149.428 95.7839C146.661 98.4247 143.003 99.8247 138.455 99.9838C134.066 100.143 130.584 99.1088 128.008 96.8816C125.94 95.068 124.191 92.2045 122.76 88.291Z" fill="#0D131A"/>
<path d="M124.382 88.5772L121.472 78.8411C120.2 74.7049 118.705 71.3482 116.987 68.771C119.659 70.6164 122.617 70.9982 125.861 69.9164L130.011 68.3892C131.76 67.8165 133.351 67.5301 134.782 67.5301C137.072 67.5301 140.173 68.1983 144.084 69.5346C147.647 70.7755 149.984 71.3004 151.097 71.1095C153.578 70.7277 156.106 69.63 158.683 67.8165C159.986 66.9256 161.036 66.0665 161.831 65.2393C159.796 67.9755 158.031 71.5391 156.536 75.9298L153.196 86.5727C151.829 90.2953 150.175 93.0316 148.235 94.7815C145.754 97.0406 142.383 98.2337 138.121 98.361C134.178 98.5201 131.093 97.661 128.866 95.7838C127.053 94.2884 125.559 91.8862 124.382 88.5772Z" fill="#922F00"/>
<path d="M138.98 93.4927C139.68 93.2381 140.395 93.6995 141.127 94.8767C141.763 95.9585 142.192 97.1358 142.415 98.4084L137.74 99.363C137.199 97.3903 137.04 95.9903 137.262 95.1631C137.453 94.4313 138.026 93.8745 138.98 93.4927Z" fill="#0D131A"/>
<path d="M138.98 93.9699C139.362 93.9381 139.807 94.3676 140.316 95.2585C140.793 96.0539 141.158 96.9607 141.413 97.9789H141.365L138.407 98.313H138.169C138.01 95.513 138.28 94.0654 138.98 93.9699Z" fill="white"/>
<path d="M130.965 88.5293C130.87 81.4659 131.919 74.2434 134.114 66.8618L138.741 67.4822L143.273 68.6754C141.079 77.0433 139.982 84.6794 139.982 91.5838C139.95 96.2927 140.538 101.702 141.747 107.811C143.146 114.969 143.941 119.806 144.132 122.319C144.609 128.078 144.148 134.076 142.749 140.312C142.049 148.553 143.591 155.711 147.376 161.788C149.253 164.811 151.209 167.022 153.244 168.422C150.827 168.072 148.298 166.895 145.659 164.891C140.443 160.945 137.39 154.9 136.499 146.755C130.329 154.709 123.793 159.816 116.892 162.075C114.729 162.775 112.662 163.157 110.69 163.22L108.4 163.077C110.976 162.154 113.934 160.5 117.274 158.114C123.921 153.373 129.121 147.375 132.874 140.121C134.718 134.235 135.497 128.221 135.211 122.081C135.052 118.803 134.289 113.41 132.921 105.902C131.681 98.8699 131.029 93.0792 130.965 88.5293Z" fill="#0D131A"/>
<path d="M132.206 88.5291C132.047 81.5612 133.001 74.5614 135.068 67.5298C137.517 67.6252 139.886 68.0866 142.176 68.9138C139.886 76.9 138.678 84.3134 138.551 91.1541C138.455 95.9585 138.948 101.367 140.029 107.381C141.461 115.24 142.256 119.98 142.415 121.603C142.955 127.076 142.637 132.501 141.461 137.878C140.507 146.341 141.667 153.707 144.943 159.975C146.597 163.125 148.33 165.415 150.143 166.847C148.33 165.988 146.422 164.413 144.418 162.122C140.443 157.509 138.058 151.575 137.262 144.321C130.838 151.957 124.573 157.302 118.466 160.357C115.413 161.884 112.996 162.647 111.215 162.647C113.473 162.234 116.145 160.945 119.23 158.782C125.368 154.486 130.52 148.043 134.686 139.453C136.436 133.853 137.135 128.014 136.785 121.937C136.595 118.692 135.784 113.315 134.352 105.806C133.017 98.7425 132.301 92.9836 132.206 88.5291Z" fill="#ED8599"/>
<path d="M137.883 72.8276C136.897 73.273 135.672 75.0707 134.209 78.2206C133.446 79.8115 132.794 81.3387 132.253 82.8023C132.19 81.2432 132.396 79.0956 132.874 76.3593C133.382 73.5276 134.114 70.5527 135.068 67.4346C137.326 67.53 139.68 67.9914 142.129 68.8186L139.934 78.3161C139.807 78.1252 139.664 76.9161 139.505 74.6889C139.346 73.0344 138.805 72.414 137.883 72.8276Z" fill="#CE7486"/>
<path d="M147.71 90.4862C148.187 90.3272 148.807 90.5499 149.571 91.1544C150.366 91.7907 150.891 92.5703 151.145 93.493L146.995 97.0247C146.581 95.6247 146.438 94.2566 146.565 92.9203C146.692 91.5203 147.074 90.709 147.71 90.4862Z" fill="#0D131A"/>
<path d="M127.053 89.6269C127.689 89.6905 128.262 90.3586 128.771 91.6313C129.248 92.904 129.614 94.6222 129.868 96.7857L126.004 93.779C125.718 93.1427 125.686 92.2836 125.908 91.2018C126.163 90.12 126.545 89.595 127.053 89.6269Z" fill="#0D131A"/>
<path d="M152.528 81.5135C152.846 81.2908 153.371 81.4181 154.103 81.8953L155.772 83.7089L153.196 89.3883C152.242 87.5429 151.781 85.777 151.813 84.0907C151.813 82.7226 152.051 81.8635 152.528 81.5135Z" fill="#0D131A"/>
<path d="M120.661 79.1749C120.693 78.7613 120.868 78.2363 121.186 77.6C121.535 76.9636 121.79 76.6614 121.949 76.6932C122.394 76.6932 122.68 77.2023 122.808 78.2204C122.998 79.5249 122.839 81.3703 122.331 83.7566C121.186 81.2431 120.629 79.7158 120.661 79.1749Z" fill="#0D131A"/>
<path d="M122.187 84.568L122.998 83.2794C123.348 82.6749 123.634 82.3885 123.857 82.4204C124.493 82.5476 124.907 83.4067 125.097 84.9976C125.256 86.5248 125.177 88.4974 124.859 90.9156L123.332 88.0043C122.346 85.9998 121.965 84.8544 122.187 84.568Z" fill="#0D131A"/>
<path d="M155.439 73.4004C155.82 73.114 156.329 73.1618 156.965 73.5436C157.569 73.9254 158.062 74.5299 158.444 75.3571L155.82 81.5138C155.089 80.082 154.691 78.4593 154.627 76.6458C154.564 74.864 154.834 73.7822 155.439 73.4004Z" fill="#0D131A"/>
<path d="M125.193 74.2117C124.652 74.3072 124.096 73.8458 123.523 72.8277C122.919 71.8095 122.585 70.7596 122.521 69.6778C122.521 69.4551 123.316 69.2323 124.907 69.0096L127.292 68.771C127.356 69.9482 127.149 71.1255 126.672 72.3027C126.226 73.5118 125.734 74.1481 125.193 74.2117Z" fill="#0D131A"/>
<path d="M149.046 75.0706C148.632 75.0706 148.108 74.5457 147.472 73.4957C146.804 72.3503 146.39 71.1253 146.231 69.8208C149.443 70.1072 151.034 70.3617 151.002 70.5844C150.97 71.7298 150.732 72.7639 150.286 73.6866C149.873 74.5775 149.459 75.0388 149.046 75.0706Z" fill="#0D131A"/>
<path d="M147.853 91.3929C148.076 91.202 148.41 91.2497 148.855 91.536C149.364 91.886 149.746 92.411 150 93.111C149.237 94.0973 148.394 94.9087 147.472 95.545C147.281 93.1905 147.408 91.8065 147.853 91.3929Z" fill="white"/>
<path d="M152.862 82.468C153.371 82.2771 153.928 82.5794 154.532 83.3748L153.149 87.3838C152.799 86.2065 152.608 85.1088 152.576 84.0907C152.513 83.1362 152.608 82.5953 152.862 82.468Z" fill="white"/>
<path d="M121.997 77.457C122.442 77.457 122.521 78.6661 122.235 81.0842L121.52 78.8888C121.52 78.5388 121.567 78.2047 121.663 77.8866L121.997 77.457Z" fill="white"/>
<path d="M123.809 83.1839C124.032 83.2157 124.207 83.8361 124.334 85.0452L124.43 88.911C124.239 88.7837 123.793 87.2724 123.094 84.377C123.38 83.5498 123.619 83.1521 123.809 83.1839Z" fill="white"/>
<path d="M155.772 74.1638C156.154 73.8456 156.647 74.0365 157.251 74.7365L155.916 78.6977C155.216 76.1842 155.168 74.6729 155.772 74.1638Z" fill="white"/>
<path d="M127.101 90.3906C127.419 90.3906 127.753 90.9792 128.103 92.1565L128.866 95.4496C128.008 94.7178 127.212 93.7314 126.481 92.4906L126.576 91.0588C126.704 90.6133 126.878 90.3906 127.101 90.3906Z" fill="white"/>
<path d="M125.002 73.4481C124.748 73.4481 124.477 73.1458 124.191 72.5413C123.905 71.9368 123.698 71.2368 123.571 70.4414L126.29 69.6777C126.322 70.505 126.195 71.3322 125.908 72.1595C125.622 73.0185 125.32 73.4481 125.002 73.4481Z" fill="white"/>
<path d="M148.903 74.0207C148.648 74.0207 148.346 73.6389 147.996 72.8753C147.678 72.1117 147.487 71.3481 147.424 70.5845L150 71.0617L149.618 73.1139C149.396 73.7185 149.157 74.0207 148.903 74.0207Z" fill="white"/>
<path d="M167.413 196.008C173.169 198.14 177.542 200.494 180.532 203.071L180.103 204.264C177.272 201.91 172.947 199.699 167.126 197.631C160.543 195.276 154.262 193.988 148.283 193.765C143.576 193.606 138.757 194.083 133.828 195.197C128.357 196.437 123.809 198.251 120.184 200.637L120.518 199.158C124.43 196.517 128.93 194.592 134.018 193.383C138.662 192.269 143.48 191.808 148.473 191.999C154.643 192.253 160.956 193.59 167.413 196.008Z" fill="#0D131A"/>
</g>
<defs>
<radialGradient id="paint0_radial_861_543" cx="0" cy="0" r="1" gradientUnits="userSpaceOnUse" gradientTransform="translate(150 150) rotate(90) scale(225)">
<stop stop-color="#DA4E70"/>
<stop offset="1" stop-color="#827AA0"/>
</radialGradient>
<clipPath id="clip0_861_543">
<rect width="300" height="300" fill="white"/>
</clipPath>
</defs>
</svg>
