<svg width="300" height="300" viewBox="0 0 300 300" fill="none" xmlns="http://www.w3.org/2000/svg">
<g clip-path="url(#clip0_864_721)">
<rect width="300" height="300" fill="white"/>
<rect x="-50" y="-50" width="400" height="400" fill="url(#paint0_radial_864_721)"/>
<path d="M136.786 153.464C133.938 151.882 128.954 145.368 121.834 133.923C115.716 124.06 111.655 116.835 109.65 112.246C107.804 108.132 105.8 102.489 103.638 95.316C101.053 87.0883 100.21 82.6316 101.106 81.9459C102.477 80.9438 106.591 80.3373 113.448 80.1263L115.821 72.1359C117.667 66.7562 119.223 64.0664 120.489 64.0664C121.755 64.0664 128.532 69.0505 140.821 79.0187L158.859 93.9711L162.656 101.645C166.401 107.869 171.227 113.591 177.134 118.813L176.184 129.73C174.549 137.8 171.121 143.865 165.9 147.926C159.887 152.62 154.481 155.336 149.682 156.075C145.462 156.708 141.164 155.837 136.786 153.464Z" fill="#84CABF"/>
<path d="M260.835 22.6118C273.335 31.5252 279.585 41.5725 279.585 52.7538C279.585 54.8635 279.005 56.604 277.844 57.9753L275.234 54.4152C271.384 62.1155 269.459 68.8929 269.459 74.7472C269.459 83.3442 270.803 87.6426 273.493 87.6426C274.706 87.6426 275.814 87.0625 276.816 85.9021L278.003 84.0825L280.218 86.8515C281.642 89.2776 282.354 91.862 282.354 94.6046C282.354 97.3999 281.431 99.826 279.585 101.883L276.816 104.177C275.128 111.983 269.485 119.209 259.886 125.854C249.337 133.133 237.602 136.772 224.681 136.772C205.061 136.772 187.972 129.731 173.415 115.649C159.281 102.041 152.213 86.6933 152.213 69.6049C152.213 51.5144 159.281 36.6675 173.415 25.0643C186.39 14.4632 201.448 9.1626 218.589 9.1626C234.201 9.1626 248.283 13.6457 260.835 22.6118Z" fill="#84CABF"/>
<path d="M258.858 129.019C261.389 130.126 263.894 131.339 266.373 132.658C270.382 134.82 275.893 138.275 282.908 143.022H287.971C291.399 143.18 293.166 143.628 293.272 144.367C293.535 145.474 293.113 148.164 292.006 152.436L294.933 153.702C296.937 154.651 298.018 155.495 298.177 156.234C298.44 157.341 296.436 160.031 292.164 164.303C293.535 166.307 293.852 168.127 293.113 169.762C292.428 171.239 289.079 173.032 283.066 175.142C276.262 177.462 269.749 178.623 263.525 178.623C257.829 178.623 252.397 177.831 247.228 176.249L241.136 173.876C241.927 167.23 242.191 160.638 241.927 154.098C241.769 150.036 240.978 145.659 239.554 140.965L237.418 135.11L247.544 131.946C249.338 131.313 252.107 129.915 255.851 127.753L258.858 129.019Z" fill="#84CABF"/>
<path d="M117.878 195.552C120.726 195.552 124.023 197.214 127.767 200.536C132.145 204.387 135.626 209.423 138.21 215.647C144.381 230.626 146.385 240.488 144.223 245.235C143.432 247.081 141.348 250.272 137.973 254.808C133.543 260.768 130.536 264.987 128.954 267.466L118.828 282.102C114.977 287.376 112.709 290.145 112.024 290.409C111.18 290.778 107.488 287.64 100.948 280.994C90.0305 285.372 84.308 287.429 83.7805 287.165C83.3059 286.954 82.7521 283.209 82.1192 275.931C73.575 271.395 69.2501 268.442 69.1446 267.07C69.0919 266.226 70.9642 264.09 74.7617 260.662L80.4578 255.757C80.827 251.432 81.539 246.58 82.5938 241.2C84.7563 230.388 87.6834 222.266 91.3754 216.834C100.922 202.646 109.756 195.552 117.878 195.552Z" fill="#84CABF"/>
<path d="M208.067 232.261C212.444 229.413 217.165 224.798 222.228 218.416L228.557 209.634L236.785 217.308C242.217 223.743 244.933 230.283 244.933 236.928C244.933 241.622 244.564 245.446 243.826 248.4L242.639 251.406L249.126 254.65C253.346 256.97 255.324 258.605 255.06 259.555C254.849 260.609 252.792 262.455 248.889 265.092C248.573 265.303 248.81 265.725 249.601 266.358C250.392 267.044 250.577 267.519 250.155 267.782C244.722 271.052 237.391 274.322 228.161 277.592C219.406 280.757 213.947 282.207 211.785 281.944C210.414 281.785 207.618 279.043 203.399 273.716C199.654 268.969 197.387 265.725 196.595 263.985C196.121 262.983 192.692 259.765 186.311 254.333L176.817 246.501C190.583 241.49 200.999 236.744 208.067 232.261Z" fill="#84CABF"/>
<path d="M2.53149 154.176C2.53149 139.831 7.2519 127.99 16.6927 118.655C25.6588 109.741 36.4182 105.285 48.9708 105.285C60.2576 105.285 69.2764 109.267 76.0274 117.231C83.0421 125.458 86.5494 136.851 86.5494 151.408L85.0463 166.676C84.0442 175.273 83.5431 182.578 83.5431 188.591C83.5431 195.183 85.0199 201.644 87.9735 207.973C89.3975 211.085 90.8479 213.564 92.3247 215.41L88.8437 222.688L85.0463 232.498C81.3544 232.446 76.8713 231.786 71.5971 230.52C61.0487 227.883 51.8189 223.427 43.9076 217.15C32.3571 207.921 22.8371 198.005 15.3478 187.404C6.80359 175.273 2.53149 164.197 2.53149 154.176Z" fill="#84CABF"/>
<path d="M177.134 118.813L185.203 124.034C191.849 127.99 198.362 131.181 204.744 133.607C211.126 136.033 218.483 137.009 226.817 136.534L237.418 135.11L239.949 143.18C241.584 149.667 242.402 155.838 242.402 161.692C242.402 185.321 234.201 205.758 217.798 223.005C201.131 240.515 181.063 249.27 157.593 249.27C153.637 249.27 150.156 248.822 147.15 247.925L143.827 246.501C144.407 244.128 144.539 240.911 144.223 236.849C143.537 228.727 140.874 220.42 136.232 211.929C131.644 203.437 126.871 198.137 121.913 196.027C120.383 195.342 118.933 195.025 117.562 195.078L115.9 195.315L120.568 191.122C124.207 187.219 127.425 182.604 130.22 177.277C133.068 171.951 135.019 166.492 136.074 160.901L136.786 154.176L139.001 155.205C140.9 155.891 142.904 156.313 145.014 156.471C151.818 156.893 158.516 154.387 165.109 148.955C170.699 144.366 174.365 137.958 176.105 129.731L177.134 118.813Z" fill="#F2E100"/>
<path d="M130.141 147.293C131.459 149.139 133.806 151.407 137.182 154.097L135.995 161.455C134.729 167.256 132.883 172.399 130.457 176.882C128.084 181.418 124.867 185.874 120.806 190.252L115.426 195.473L112.973 196.344L107.91 198.48C106.486 199.218 104.719 200.668 102.61 202.831L99.8406 205.916C100.315 202.91 100.948 199.666 101.739 196.185C103.269 189.276 104.746 184.688 106.17 182.42C107.119 180.943 109.36 178.279 112.894 174.429C116.27 170.685 118.801 167.362 120.489 164.461C122.388 161.191 123.654 156.181 124.286 149.43L124.761 140.252L130.141 147.293Z" fill="#EEEEEF"/>
<path d="M124.208 149.192C123.733 156.471 122.493 161.745 120.489 165.015C118.801 167.863 116.033 171.344 112.182 175.458C108.438 179.413 106.143 182.156 105.3 183.685C103.401 187.061 101.502 194.155 99.6034 204.967L92.325 215.41C90.8482 213.986 89.3978 211.718 87.9738 208.606C85.0202 202.33 83.5435 194.893 83.5435 186.296C83.5435 166.149 87.8156 147.425 96.3598 130.126C100.632 121.476 104.904 114.857 109.176 110.269L116.375 124.192L124.287 139.224L124.208 149.192Z" fill="#CF7100"/>
<path d="M142.72 80.7597L151.422 74.7471L156.169 92.943L142.72 80.7597Z" fill="#EEEEEF"/>
<path d="M192.403 72.2155C191.875 71.2661 191.77 68.7873 192.086 64.7789C192.508 60.3485 193.352 55.9973 194.618 51.7252C198.31 39.7528 204.006 33.7666 211.706 33.7666C214.818 33.7666 217.112 35.929 218.589 40.2539C220.382 45.3698 219.987 51.8571 217.402 59.7156C216.031 63.8295 214.291 67.6006 212.181 71.0288C210.124 74.3515 208.383 76.303 206.959 76.8832C205.694 77.3578 203.004 76.8568 198.89 75.38C194.934 73.956 192.772 72.9011 192.403 72.2155Z" fill="#C6000B"/>
<path d="M275.234 54.4146C276.025 54.4146 277.001 55.5485 278.161 57.8164C279.743 60.8754 280.534 64.6201 280.534 69.0504C280.534 74.0609 279.664 78.544 277.924 82.4996C276.289 86.1916 274.601 88.0375 272.86 88.0375C270.329 88.0375 269.063 84.4775 269.063 77.3573C269.063 71.6612 270.091 66.1233 272.148 60.7436L275.234 54.4146Z" fill="#C6000B"/>
<path d="M207.513 77.1203C210.309 74.4832 212.55 71.6351 214.238 68.5761C215.926 65.4643 217.429 62.2471 218.747 58.9243L217.798 67.5476C216.901 73.402 215.846 76.6456 214.633 77.2785L209.966 77.7532L207.513 77.1203Z" fill="white"/>
<path d="M208.462 41.8356C209.781 42.0993 210.783 43.4706 211.469 45.9495C212.154 48.5865 212.181 51.6456 211.548 55.1266C210.968 58.2383 209.886 60.8227 208.304 62.8796C206.669 65.042 204.981 65.9386 203.241 65.5695C201.553 65.2003 200.419 63.6971 199.839 61.06C199.259 58.6339 199.312 55.8649 199.997 52.7532C200.788 49.1667 202.081 46.3186 203.874 44.209C205.509 42.363 207.038 41.5719 208.462 41.8356Z" fill="#0D131A"/>
<path d="M271.199 78.9394C270.408 78.6757 269.959 77.5945 269.854 75.6958C269.748 74.0608 269.907 72.2412 270.329 70.237C270.751 68.2328 271.41 66.4132 272.306 64.7782C273.361 62.9322 274.337 62.2202 275.234 62.6422C276.183 63.0641 276.684 64.3035 276.737 66.3605C276.842 68.0482 276.631 70.0524 276.104 72.3731C275.682 74.219 274.891 75.854 273.73 77.2781C272.676 78.5439 271.832 79.0977 271.199 78.9394Z" fill="#0D131A"/>
<path d="M210.678 34.557C211.68 35.1372 212.524 36.3766 213.209 38.2753C213.948 40.596 213.974 42.8639 213.288 45.079C212.55 47.5052 211.205 49.2984 209.254 50.4587C207.513 51.5663 205.878 51.8564 204.348 51.329C202.45 50.7488 201.184 49.4302 200.551 47.3733C199.918 45.2636 200.103 42.8639 201.105 40.174C201.949 37.9589 203.531 36.2711 205.852 35.1108C207.961 34.056 209.57 33.8714 210.678 34.557Z" fill="white"/>
<path d="M275.076 57.1841C275.55 57.3423 275.92 57.9752 276.183 59.0828C276.447 60.2431 276.447 61.4298 276.183 62.6429C275.392 66.2821 274.39 67.9962 273.177 67.7852C272.439 67.627 271.964 66.9941 271.753 65.8865C271.542 64.7789 271.621 63.4604 271.99 61.9309C272.94 58.4499 273.968 56.8676 275.076 57.1841Z" fill="white"/>
<path d="M177.134 118.813L186.944 124.509C195.172 128.676 203.347 131.814 211.469 133.924C216.585 135.189 222.466 135.664 229.111 135.348L237.497 134.477L238.684 137.405C237.418 138.512 235.572 139.646 233.146 140.806C228.294 143.022 222.94 144.129 217.086 144.129C210.652 144.129 202.74 140.859 193.352 134.319C184.913 128.412 179.507 123.243 177.134 118.813Z" fill="#CBBD00"/>
<path d="M204.507 234.476C190.161 244.339 174.787 249.27 158.384 249.27L148.1 247.925L143.828 246.501L144.698 242.704C145.12 239.697 145.067 237.034 144.54 234.713L143.116 227.039L142.562 223.479C153.216 227.329 166.559 229.096 182.593 228.78C200.209 228.463 213.051 225.431 221.121 219.682C217.218 224.639 211.68 229.571 204.507 234.476Z" fill="#CBBD00"/>
<path d="M129.35 97.5311C128.822 99.2188 128.189 100.274 127.451 100.696C126.765 101.118 126.264 100.643 125.948 99.2716C125.473 96.8455 125.289 93.7337 125.394 89.9363L125.71 84.9521C125.71 83.1589 125.974 81.8667 126.502 81.0756C127.082 80.0735 127.82 80.7855 128.717 83.2117C130.563 88.1694 130.774 92.9425 129.35 97.5311Z" fill="#72B0A6"/>
<path d="M136.232 153.702C132.91 151.17 128.189 145.079 122.071 135.427C116.639 126.777 112.762 119.736 110.442 114.304C108.596 110.084 106.75 105.1 104.904 99.3514C103.321 94.4991 102.24 90.7808 101.66 88.1964C100.974 85.3484 101.106 83.6079 102.056 82.975C103.163 82.1838 105.115 83.9243 107.91 88.1964L137.34 123.797C153.321 143.048 160.415 153.175 158.621 154.177C155.721 155.812 152.345 156.735 148.495 156.946C143.59 157.262 139.502 156.181 136.232 153.702Z" fill="#72B0A6"/>
<path d="M262.259 178.542C256.405 178.542 251.131 177.778 246.437 176.248L241.136 173.875L242.402 161.691C245.936 163.801 252.476 165.832 262.022 167.783C273.783 170.209 284.147 170.869 293.113 169.761C292.111 171.238 290.081 172.714 287.021 174.191C280.851 177.092 272.597 178.542 262.259 178.542Z" fill="#72B0A6"/>
<path d="M205.535 234.238C202.898 236.137 202.081 238.88 203.083 242.466C203.98 245.894 206.327 249.322 210.124 252.751C219.407 261.137 230.403 264.539 243.114 262.956L240.741 261.928C238.947 261.242 238.156 260.873 238.367 260.82L246.912 260.029L255.535 258.21C254.427 260.425 252.265 262.666 249.048 264.934C248.837 265.04 248.968 265.488 249.443 266.279C249.918 267.017 250.023 267.466 249.76 267.624C247.544 269.048 242.956 271.474 235.994 274.902C229.085 278.225 223.099 280.387 218.035 281.39L210.836 281.706C209.623 281.337 205.14 275.351 197.387 263.747L176.422 247.292L182.593 245.077L193.194 240.805C197.255 238.959 201.369 236.77 205.535 234.238Z" fill="#72B0A6"/>
<path d="M69.7776 267.624C69.5666 266.622 71.94 267.202 76.8977 269.364C81.6445 271.421 83.7014 273.426 83.0685 275.377L75.7902 272.925L69.7776 267.624Z" fill="#72B0A6"/>
<path d="M100.394 280.678L90.1097 285.425L85.7584 286.374L83.0686 286.691L83.7806 284.159C84.0971 284.634 86.2595 283.79 90.2679 281.627C94.9092 279.201 97.7045 277.883 98.6538 277.672C100.131 277.303 101.027 277.619 101.344 278.621C101.607 279.518 101.291 280.203 100.394 280.678Z" fill="#72B0A6"/>
<path d="M108.147 287.956C108.675 288.22 110.31 286.717 113.052 283.447C115.795 280.177 117.852 277.25 119.223 274.665L132.04 249.903C139.054 235.557 142.298 227.066 141.77 224.429L143.986 232.419C145.251 238.379 145.199 243.073 143.827 246.501C142.614 249.56 140.821 252.461 138.448 255.204C134.914 259.212 132.251 262.588 130.457 265.33C119.276 282.419 113.263 290.963 112.42 290.963L109.809 289.46L108.147 287.956Z" fill="#72B0A6"/>
<path d="M89.4766 220.79L85.0463 232.498C81.5126 232.657 77.0295 232.05 71.5971 230.679C60.7323 227.936 50.5794 222.767 41.1386 215.173C31.2759 207.261 22.969 198.427 16.2181 188.67L9.0979 176.407C19.2771 181.998 25.1051 184.872 26.5819 185.031C28.1114 185.241 33.1746 184.134 41.7715 181.708C47.0457 192.573 55.0098 202.013 65.6636 210.03C75.2099 217.203 83.1476 220.79 89.4766 220.79Z" fill="#72B0A6"/>
<path d="M4.27203 138.591C5.43235 134.846 7.04098 131.26 9.09792 127.832L11.7878 123.797C10.1 133.079 10.7065 141.439 13.6074 148.876C16.139 155.363 20.0946 160.479 25.4743 164.224C30.432 167.705 35.6008 169.366 40.9804 169.208C46.4656 168.997 50.7113 166.913 53.7176 162.958L52.6891 166.834C51.7925 169.735 50.7113 172.135 49.4455 174.034C47.7578 176.618 45.0416 179.018 41.2969 181.233C37.0248 183.764 32.9637 185.03 29.1135 185.03C25.0524 185.03 21.044 183.817 17.0883 181.391C13.2382 179.07 10.311 176.196 8.30679 172.768C1.92501 161.956 0.580094 150.563 4.27203 138.591Z" fill="#72B0A6"/>
<path d="M93.828 136.218C95.674 131.787 97.6518 127.858 99.7615 124.43L102.372 120.553C98.6276 130.521 97.2563 143.443 98.2584 159.319C99.2077 174.139 101.344 183.316 104.667 186.85L99.6033 204.967L92.3249 215.41C90.7426 214.355 89.1868 212.298 87.6572 209.239C84.5982 203.121 83.306 194.972 83.7807 184.793C84.6246 166.491 87.9737 150.3 93.828 136.218Z" fill="#A95B00"/>
<path d="M123.97 186.533L116.692 195.315L113.211 196.343C110.626 197.24 108.596 198.163 107.119 199.112L99.6033 204.967C100.605 199.745 101.37 196.132 101.898 194.128L103.559 189.302L104.667 186.85C105.141 188.326 107.093 189.223 110.521 189.539C114.687 189.909 119.171 188.907 123.97 186.533Z" fill="#C8C9CA"/>
<path d="M272.94 32.6587C276.948 37.8801 279.532 42.9961 280.693 48.0066C281.853 52.9643 281.352 56.6563 279.189 59.0824C278.979 59.3461 278.688 58.8978 278.319 57.7375C277.95 56.5244 277.845 55.7597 278.003 55.4432C279.269 53.3863 279.031 50.1954 277.291 45.8706C275.498 41.4402 272.597 36.9308 268.588 32.3422C258.462 20.7918 246.516 13.988 232.75 11.9311C213.183 8.97756 195.989 12.2476 181.169 21.7411C166.348 31.2347 157.567 44.6311 154.824 61.9305C152.187 78.7024 156.749 93.9976 168.511 107.816C180.219 121.529 195.804 129.994 215.266 133.211C228.926 135.479 241.848 133.449 254.032 127.12C265.529 121.107 272.649 113.354 275.392 103.86L276.816 103.939C277.607 104.309 277.95 104.678 277.845 105.047C274.997 115.068 267.534 123.243 255.456 129.572C242.745 136.165 229.19 138.274 214.792 135.901C194.539 132.526 178.162 123.612 165.662 109.161C153.004 94.5514 148.073 78.5442 150.868 61.1393C153.822 42.5214 162.867 28.413 178.004 18.8139C193.194 9.16215 211.601 5.97126 233.225 9.24127C249.733 11.7201 262.971 19.5259 272.94 32.6587Z" fill="#0D131A"/>
<path d="M277.133 84.2404C276.975 84.0822 277.159 83.7658 277.687 83.2911C278.214 82.8692 278.61 82.7637 278.873 82.9746C282.091 86.0337 283.594 90.0157 283.383 94.9207C283.119 99.773 281.326 103.412 278.003 105.838L276.263 105.68C275.63 105.047 274.865 104.467 273.968 103.94C272.702 103.201 271.568 102.832 270.566 102.832L262.022 106.392C256.484 108.713 252.159 109.82 249.048 109.715C247.729 109.662 244.459 108.08 239.238 104.968C233.383 101.487 229.771 99.5092 228.399 99.0346C226.184 98.2962 221.833 97.3205 215.346 96.1074L200.789 93.8922C197.097 93.523 193.537 92.0199 190.109 89.3828C186.839 86.9039 184.36 83.9767 182.672 80.6012C181.881 78.9662 181.775 78.0169 182.355 77.7532C182.883 77.4895 183.542 78.1751 184.333 79.8101C185.757 82.7109 188.052 85.2425 191.216 87.405C194.433 89.5674 197.73 90.8332 201.105 91.2024L215.899 93.4175C222.598 94.6834 227.081 95.7382 229.349 96.5821C230.72 97.1095 234.254 99.0346 239.95 102.357C245.066 105.364 248.177 106.919 249.285 107.025C252.133 107.236 256.3 106.181 261.785 103.86L270.408 100.142C272.676 100.037 274.97 100.986 277.291 102.99C279.19 101.302 280.245 98.5071 280.456 94.6042C280.666 90.3321 279.559 86.8775 277.133 84.2404Z" fill="#0D131A"/>
<path d="M241.057 90.9652C241.69 90.6487 242.64 91.4662 243.905 93.4177C245.224 95.3691 245.461 96.5294 244.617 96.8986C243.774 97.2678 242.824 96.4503 241.769 94.4461C240.715 92.3892 240.477 91.2289 241.057 90.9652Z" fill="#0D131A"/>
<path d="M262.18 96.1075C262.497 96.7404 261.89 97.637 260.361 98.7973C258.884 99.9049 257.987 100.248 257.671 99.8258C257.354 99.4038 257.961 98.5072 259.49 97.1359C260.967 95.7646 261.864 95.4218 262.18 96.1075Z" fill="#0D131A"/>
<path d="M272.86 46.4248L274.68 46.1875C274.891 46.504 274.522 46.9786 273.572 47.6115L271.674 49.5894L269.775 52.5956C269.3 53.5977 268.773 53.9406 268.193 53.6241C267.613 53.3077 267.534 52.6484 267.955 51.6463C269.169 49.0619 270.804 47.3215 272.86 46.4248Z" fill="#0D131A"/>
<path d="M217.086 29.1775C216.084 28.6501 215.662 28.149 215.82 27.6744C216.031 27.2524 216.638 27.2524 217.64 27.6744C219.539 28.5182 221.121 29.7313 222.387 31.3136C223.758 33.054 224.549 34.9791 224.76 37.0888C224.865 38.7765 224.628 39.6468 224.048 39.6995C223.415 39.6995 222.967 38.9084 222.703 37.3261C221.965 33.6342 220.092 30.918 217.086 29.1775Z" fill="#0D131A"/>
<path d="M218.985 70.8703C217.613 75.6171 216.374 78.2278 215.266 78.7025C213.104 79.6519 208.7 79.2827 202.054 77.5949C195.145 75.8544 191.427 73.9557 190.899 71.8988C190.425 70.0001 190.425 66.9411 190.899 62.7217C191.374 57.9749 192.323 53.4655 193.748 49.1934C197.65 37.5374 203.426 31.9731 211.073 32.5006C218.932 33.028 222.413 40.6492 221.516 55.3642C221.2 60.7439 220.356 65.9126 218.985 70.8703ZM210.915 35.1904C207.856 34.9794 205.061 36.4035 202.529 39.4625C199.997 42.5743 197.861 47.2156 196.121 53.3864C195.224 56.5509 194.512 60.2692 193.985 64.5413C193.51 68.2332 193.352 70.4748 193.51 71.2659L193.906 71.7406L195.409 72.769C197.782 73.9821 201.316 74.9842 206.01 75.7753L214.08 76.3291C214.765 75.5907 215.583 73.2437 216.532 69.2881C217.64 64.8577 218.325 60.5329 218.589 56.3135L218.747 51.4877C218.747 45.2641 217.877 40.8338 216.136 38.1967C214.871 36.3507 213.13 35.3486 210.915 35.1904Z" fill="#0D131A"/>
<path d="M217.956 42.943C217.903 42.5738 218.272 42.3364 219.064 42.231C219.855 42.1255 220.277 42.2573 220.329 42.6265C221.121 47.7952 220.593 53.6232 218.747 60.1105C216.637 67.5998 213.367 73.1905 208.937 76.8824L207.671 76.7242C207.038 76.5132 206.854 76.3023 207.118 76.0913C211.337 72.3994 214.449 66.9406 216.453 59.7149C218.246 53.3859 218.747 47.7952 217.956 42.943Z" fill="#0D131A"/>
<path d="M277.924 60.665C277.238 58.3971 276.394 56.7357 275.392 55.6809C273.915 58.529 272.729 62.0627 271.832 66.282C271.041 70.2377 270.645 74.0351 270.645 77.6743C270.645 80.8916 270.988 83.4495 271.674 85.3482C272.043 86.2449 272.386 86.6932 272.702 86.6932C273.388 86.7459 274.047 86.5086 274.68 85.9812C275.84 85.0318 276.816 83.2386 277.607 80.6015C278.346 77.9644 278.82 74.7999 279.031 71.1079L279.11 69.1301C279.11 66.0711 278.715 63.2494 277.924 60.665ZM276.262 51.567C276.895 50.8814 277.185 50.855 277.132 51.4879L276.262 54.0195C278.055 55.3908 279.48 57.8433 280.534 61.377C281.536 64.6998 281.932 67.9961 281.721 71.2662C281.352 77.7534 280.165 82.6057 278.161 85.8229C276.526 88.4073 274.627 89.594 272.465 89.383C271.094 89.2775 270.012 88.2491 269.221 86.2976C267.692 82.5529 267.613 76.9359 268.984 69.4466C270.461 61.4825 272.887 55.5227 276.262 51.567Z" fill="#0D131A"/>
<path d="M142.562 82.1047L140.663 80.1269C143.616 76.4877 147.282 74.2725 151.66 73.4814C152.187 73.3759 152.477 73.8242 152.53 74.8263C152.583 75.8284 152.372 76.3822 151.897 76.4877C148.099 77.5425 144.988 79.4148 142.562 82.1047Z" fill="#0D131A"/>
<path d="M108.464 108.37L110.442 112.247C104.904 119.683 100.104 127.753 96.043 136.455C90.1887 148.797 86.6813 162.615 85.521 177.91C84.2024 195.052 86.7868 207.261 93.2741 214.54C93.5378 214.803 93.3532 215.225 92.7203 215.805C92.0874 216.386 91.6391 216.544 91.3754 216.28C84.4662 208.58 81.3808 195.79 82.1191 177.91C82.752 161.508 86.022 147.109 91.9291 134.715C96.465 125.168 101.976 116.387 108.464 108.37Z" fill="#0D131A"/>
<path d="M122.23 152.752C123.179 146.476 123.258 141.175 122.467 136.85C122.361 136.534 122.862 136.824 123.97 137.721C125.025 138.617 125.579 139.25 125.631 139.619C126.528 144.419 126.449 149.614 125.394 155.205C124.392 160.532 122.836 164.698 120.726 167.704L112.499 177.119C109.545 180.178 107.646 182.578 106.803 184.318C105.484 187.166 104.218 190.621 103.005 194.682C101.845 198.743 101.133 201.934 100.869 204.255L99.445 206.47L98.1001 207.656C98.522 204.123 99.3395 199.956 100.553 195.157C101.871 190.146 103.19 186.19 104.508 183.29C105.458 181.233 107.594 178.385 110.916 174.745L118.195 165.964C119.935 163.221 121.28 158.817 122.23 152.752Z" fill="#0D131A"/>
<path d="M91.8501 139.382C91.9028 139.013 92.3511 138.934 93.195 139.145C94.0389 139.303 94.4344 139.54 94.3817 139.857C93.2214 145.764 93.5378 153.016 95.3311 161.613C97.3352 170.948 100.632 179.202 105.22 186.375C105.431 186.692 105.167 187.087 104.429 187.562L103.084 187.72C97.599 179.229 93.9598 170.526 92.1665 161.613C90.5315 153.807 90.426 146.397 91.8501 139.382Z" fill="#0D131A"/>
<path d="M135.204 153.701C135.204 153.385 135.705 153.464 136.707 153.938L138.21 154.888C137.894 170.13 130.958 183.659 117.404 195.473C117.14 195.684 116.454 195.684 115.347 195.473C114.292 195.262 113.896 195.051 114.16 194.84C119.065 191.095 123.653 185.425 127.926 177.831C132.778 169.181 135.204 161.138 135.204 153.701Z" fill="#0D131A"/>
<path d="M235.994 135.664C235.836 135.295 236.152 134.952 236.943 134.635C237.735 134.266 238.183 134.266 238.288 134.635C242.033 143.127 243.905 151.223 243.905 158.923C243.905 195.526 229.691 222.002 201.264 238.352C190.662 244.47 179.455 248.294 167.641 249.824C157.092 251.142 149.049 250.43 143.511 247.688C143.195 247.529 143.221 247.081 143.59 246.343C143.959 245.552 144.302 245.235 144.619 245.393C150.104 248.136 157.962 248.716 168.194 247.134C179.428 245.446 190.109 241.517 200.235 235.346C212.207 228.068 221.622 218.574 228.478 206.865C236.601 193.152 240.662 177.172 240.662 158.923C240.662 150.695 239.106 142.942 235.994 135.664Z" fill="#0D131A"/>
<path d="M172.15 140.806C172.044 140.543 172.255 139.989 172.783 139.145C173.363 138.354 173.706 138.117 173.811 138.433C175.974 143.602 179.877 148.243 185.52 152.357C191.216 156.418 197.993 159.451 205.852 161.455C212.972 163.301 219.75 163.986 226.184 163.512C232.619 162.984 237.524 161.376 240.899 158.686C241.163 158.475 241.558 158.712 242.086 159.398C242.613 160.084 242.745 160.532 242.481 160.743C238.684 163.749 233.41 165.621 226.659 166.36C219.697 167.151 212.498 166.597 205.061 164.698C197.308 162.694 190.478 159.503 184.571 155.126C178.875 150.959 174.734 146.186 172.15 140.806Z" fill="#0D131A"/>
<path d="M221.121 165.094C220.224 175.432 215.846 189.408 207.988 207.024C199.918 225.115 192.745 236.375 186.469 240.805L185.282 240.093C184.808 239.408 184.702 238.959 184.966 238.748C190.082 235.109 196.833 223.902 205.219 205.125C213.394 186.771 217.851 173.348 218.589 164.857C218.589 164.488 219.011 164.356 219.855 164.461C220.751 164.514 221.173 164.725 221.121 165.094Z" fill="#0D131A"/>
<path d="M162.26 149.43L163.21 149.746L163.605 150.616L164.95 171.344L165.9 190.094L165.583 190.964L156.643 199.666C149.84 205.784 143.484 210.32 137.577 213.274L136.628 213.353L135.837 212.72L135.758 212.166C135.758 211.639 135.995 211.243 136.47 210.98C144.592 206.918 153.558 199.798 163.368 189.619L162.34 171.028L161.074 150.775V150.695C161.074 149.852 161.469 149.43 162.26 149.43Z" fill="#0D131A"/>
<path d="M203.637 210.109L216.057 210.662C221.121 210.504 225.155 210.029 228.162 209.238C228.531 209.186 228.584 209.555 228.32 210.346L227.45 211.612C224.496 212.614 220.646 213.299 215.899 213.669C210.994 214.091 206.564 214.038 202.608 213.51C194.75 212.508 187.392 210.056 180.536 206.153C173.838 202.303 168.59 197.609 164.792 192.071C164.581 191.754 164.608 191.148 164.871 190.251C165.082 189.355 165.293 189.038 165.504 189.302C168.88 194.312 174.233 198.743 181.564 202.593C188.368 206.126 195.725 208.632 203.637 210.109Z" fill="#0D131A"/>
<path d="M144.619 238.273C144.249 238.221 144.144 237.851 144.302 237.166C144.408 236.48 144.645 236.164 145.014 236.216L165.109 238.115C174.708 238.695 181.538 238.827 185.599 238.511L186.469 238.748L186.944 239.539L187.34 243.495C187.445 243.864 187.129 244.128 186.39 244.286L185.204 244.049L184.65 241.121L163.764 240.488L144.619 238.273Z" fill="#0D131A"/>
<path d="M123.258 198.163C121.043 196.633 118.406 196.211 115.347 196.897C112.393 197.477 109.308 199.086 106.091 201.723C101.502 205.467 97.0454 211.005 92.7205 218.337C89.4505 223.822 86.6024 231.68 84.1763 241.912C83.016 247.028 82.1458 251.643 81.5656 255.757L81.0909 256.548L73.8916 262.877C71.8347 264.987 70.8062 266.358 70.8062 266.991C70.9117 267.624 72.1775 268.679 74.6037 270.155C76.977 271.685 79.7196 273.135 82.8314 274.507C83.3588 274.665 83.6225 275.034 83.6225 275.614C83.6225 280.836 83.9654 284.079 84.651 285.345C86.7607 284.923 92.0876 282.972 100.632 279.491L102.135 279.807L107.515 285.662C109.466 287.508 110.758 288.51 111.391 288.668C112.393 288.141 114.819 285.213 118.67 279.886L126.897 267.703C128.691 264.802 132.541 259.502 138.448 251.801L141.533 247.767C142.852 246.079 143.511 243.415 143.511 239.776L143.115 234.476C142.008 227.514 139.529 220.473 135.679 213.352C131.776 206.285 127.636 201.222 123.258 198.163ZM81.7238 238.669C83.7808 228.648 86.3915 220.974 89.556 215.647C95.3576 205.889 101.792 199.349 108.86 196.027C115.083 193.02 120.357 193.02 124.682 196.027C133.437 202.145 139.819 211.559 143.827 224.27C147.625 236.401 147.519 245.024 143.511 250.14C136.971 258.315 132.171 264.618 129.112 269.048L120.568 282.655C116.507 289.09 113.791 292.439 112.42 292.703C110.363 293.177 106.486 289.67 100.79 282.181C97.1508 284.501 93.5116 286.4 89.8724 287.877C86.3387 289.301 84.0708 289.828 83.0687 289.459C82.2249 289.143 81.6711 288.061 81.4074 286.215C81.2491 284.791 81.1437 281.548 81.0909 276.485L72.1511 272.687C68.3537 270.841 66.3759 269.233 66.2177 267.861C66.1122 266.701 67.0879 265.013 69.1449 262.798C71.4655 260.266 74.7882 257.629 79.1131 254.887L81.7238 238.669Z" fill="#0D131A"/>
<path d="M241.611 229.808C238.868 221.897 234.042 215.541 227.133 210.742C226.922 210.584 227.265 210.03 228.162 209.081C229.006 208.078 229.586 207.683 229.902 207.894C237.603 213.274 242.719 220.605 245.25 229.887C247.518 238.168 247.254 245.182 244.459 250.931C252.95 254.571 257.196 257.419 257.196 259.476C257.196 260.741 254.691 263.036 249.68 266.358L247.228 264.301C251.5 261.717 253.636 260.056 253.636 259.317C253.636 258.737 252.423 257.788 249.997 256.469C247.782 255.203 245.171 253.964 242.165 252.751L241.294 251.96L241.611 250.773C244.301 244.497 244.301 237.508 241.611 229.808Z" fill="#0D131A"/>
<path d="M256.405 127.515C257.196 126.724 257.697 126.381 257.908 126.486C261.547 127.805 266.505 130.495 272.781 134.556C279.585 138.881 284.226 142.573 286.705 145.632C287.285 146.37 287.364 146.977 286.943 147.451C286.468 147.873 285.94 147.715 285.36 146.977C282.987 144.023 278.029 140.358 270.487 135.98C263.631 132.024 258.673 129.651 255.614 128.86C255.297 128.754 255.561 128.306 256.405 127.515Z" fill="#0D131A"/>
<path d="M282.829 142.863C282.196 142.283 282.038 141.966 282.354 141.914L289.474 141.597C292.322 141.808 294.063 142.336 294.696 143.179C295.065 143.707 295.091 144.867 294.775 146.66L293.351 151.645C297.517 152.91 299.733 154.387 299.996 156.075C300.049 156.655 299.548 157.683 298.493 159.16C297.227 160.953 295.461 162.799 293.193 164.698C294.247 166.017 294.775 167.441 294.775 168.97C294.775 170.5 293.166 172.214 289.949 174.113C286.574 176.064 282.407 177.594 277.449 178.701C264.527 181.602 252.318 180.442 240.82 175.22C240.451 175.062 240.398 174.482 240.662 173.48C240.873 172.425 241.136 171.977 241.453 172.135C244.406 173.453 248.046 174.561 252.37 175.458L268.747 177.04C274.126 177.04 279.48 175.879 284.807 173.559C289.448 171.502 291.769 169.92 291.769 168.812C291.769 167.915 291.347 166.676 290.503 165.094C290.186 164.566 290.239 164.065 290.661 163.591C294.3 159.951 296.252 157.552 296.515 156.391C296.041 155.6 294.353 154.677 291.452 153.622L290.582 153.069V152.119C291.531 148.796 292.006 146.37 292.006 144.841V144.683L288.841 144.05L284.095 143.812L282.829 142.863Z" fill="#0D131A"/>
<path d="M42.1672 141.044C40.4795 140.569 38.8972 140.569 37.4204 141.044C35.9436 141.571 34.7833 142.494 33.9395 143.813C33.3065 144.867 32.7528 145.263 32.2781 144.999C31.8034 144.735 31.8298 144.076 32.3572 143.021C33.4648 140.806 34.9415 139.356 36.7875 138.67C38.4225 138.09 40.4531 138.064 42.8792 138.591C46.9931 139.488 50.3686 141.887 53.0057 145.79C55.6428 149.588 56.9613 153.886 56.9613 158.686C56.9613 166.07 54.0869 172.583 48.338 178.227C42.6419 183.765 36.1546 186.533 28.8762 186.533C21.2814 186.533 14.6095 183.184 8.86065 176.486C2.95355 169.682 0 161.666 0 152.436C0 137.932 5.22145 125.88 15.6644 116.281C25.3161 107.421 36.4183 102.99 48.9709 102.99C61.8399 102.99 71.5972 107.526 78.2427 116.598C84.9409 125.669 88.1054 138.749 87.7362 155.838C87.6835 157.314 87.2088 158.58 86.3122 159.635C85.4156 160.637 84.9937 160.611 85.0464 159.556C86.0485 142.204 83.0422 128.807 76.0275 119.367C69.5403 110.664 60.5214 106.313 48.9709 106.313C38.4225 106.313 28.7444 110.242 19.9365 118.101C9.86275 127.067 4.82589 138.512 4.82589 152.436C4.82589 161.085 7.14653 168.39 11.7878 174.35C16.4291 180.31 22.1253 183.29 28.8762 183.29C35.3635 183.29 40.9278 180.89 45.569 176.091C50.1576 171.291 52.4519 165.489 52.4519 158.686C52.4519 153.675 51.3443 149.535 49.1291 146.265C47.2304 143.575 44.9098 141.835 42.1672 141.044Z" fill="#0D131A"/>
<path d="M1.81953 163.037C1.71405 162.72 2.13599 162.641 3.08534 162.799C4.0347 162.958 4.53574 163.142 4.58849 163.353C10.812 181.549 21.9142 197.293 37.895 210.584C53.9286 223.98 69.8303 230.678 85.6001 230.678C85.9693 230.678 86.0221 231.232 85.7584 232.34C85.4947 233.447 85.1782 234.001 84.809 234.001C68.8809 234.001 52.7155 227.092 36.3128 213.273C19.5936 199.191 8.09583 182.446 1.81953 163.037Z" fill="#0D131A"/>
<path d="M174.761 248.083C174.497 247.925 174.972 247.556 176.185 246.976C177.345 246.395 178.031 246.158 178.242 246.264C185.889 250.167 193.721 257.155 201.738 267.229L208.937 276.722C210.994 279.359 212.392 280.651 213.13 280.599C218.194 280.282 225.498 278.172 235.045 274.27C244.169 270.525 248.758 268.02 248.81 266.754C248.863 266.226 248.125 265.541 246.595 264.697C245.066 263.853 243.246 263.141 241.136 262.561C239.079 261.928 238.156 261.348 238.367 260.82L241.769 260.583C244.776 261.163 247.36 262.165 249.522 263.589C251.526 264.961 252.37 266.095 252.054 266.991C250.946 270.314 245.145 274.032 234.649 278.146C224.312 282.154 216.77 283.842 212.023 283.209C210.862 283.051 206.432 278.489 198.732 269.523C190.082 259.344 182.092 252.197 174.761 248.083Z" fill="#0D131A"/>
<path d="M157.751 90.9645C158.12 91.1754 158.437 92.0193 158.7 93.4961C159.017 94.9201 159.017 95.5266 158.7 95.3157C155.641 93.417 148.389 87.7736 136.944 78.3855C126.712 69.9995 121.306 65.8593 120.726 65.9648C119.988 66.0703 118.933 68.1272 117.562 72.1356C116.296 75.9857 115.505 79.2821 115.188 82.0247C114.977 84.1344 114.555 85.1628 113.922 85.1101C113.29 85.1101 112.973 84.0553 112.973 81.9456C113.026 77.8317 113.738 73.6651 115.109 69.4457C116.586 65.0682 118.168 62.6948 119.856 62.3256C121.438 62.0091 127.213 65.9911 137.182 74.2716C149.312 84.3981 156.169 89.9624 157.751 90.9645Z" fill="#0D131A"/>
<path d="M177.213 118.733L178.558 119.524C178.874 122.9 178.452 126.987 177.292 131.787C176.079 136.85 174.47 140.779 172.466 143.575C167.667 150.22 161.707 154.624 154.587 156.787C147.572 158.949 141.507 158.369 136.391 155.046C129.798 150.774 121.465 138.432 111.391 118.021C101.423 97.9266 97.2562 85.6114 98.8912 81.0756C99.4187 79.5988 101.581 78.7549 105.378 78.5439L114.002 79.0977C114.318 79.1505 114.45 79.5988 114.397 80.4427C114.397 81.2865 114.213 81.6821 113.844 81.6294C111.628 81.4711 109.308 81.4711 106.882 81.6294C104.35 81.8403 102.9 82.1304 102.53 82.4996C101.159 86.4025 105.009 97.9002 114.081 116.993C123.469 136.718 131.38 148.664 137.815 152.831C142.298 155.785 147.625 156.154 153.796 153.939C159.966 151.723 165.267 147.53 169.697 141.36C171.754 138.512 173.442 134.74 174.761 130.046C176.026 125.352 176.422 121.608 175.947 118.812L177.213 118.733Z" fill="#0D131A"/>
<path d="M133.068 80.0472C135.652 81.735 137.419 83.2909 138.368 84.7149C139.37 86.2972 139.502 87.3256 138.764 87.8003C138.026 88.2222 137.155 87.6684 136.153 86.1389C135.52 85.1368 134.149 84.0556 132.039 82.8953C130.035 81.7877 128.717 81.313 128.084 81.4713C127.556 81.9987 127.161 83.6337 126.897 86.3763C126.633 89.488 126.686 93.1009 127.055 97.2147C127.266 99.2717 126.923 100.327 126.027 100.379C125.183 100.432 124.682 99.4299 124.524 97.373C123.522 85.6115 124.207 79.177 126.581 78.0694C127.952 77.4365 130.114 78.0958 133.068 80.0472Z" fill="#0D131A"/>
</g>
<defs>
<radialGradient id="paint0_radial_864_721" cx="0" cy="0" r="1" gradientUnits="userSpaceOnUse" gradientTransform="translate(150 150) rotate(90) scale(200)">
<stop stop-color="#F2E100"/>
<stop offset="1" stop-color="#CF7100"/>
</radialGradient>
<clipPath id="clip0_864_721">
<rect width="300" height="300" fill="white"/>
</clipPath>
</defs>
</svg>
