<svg width="300" height="300" viewBox="0 0 300 300" fill="none" xmlns="http://www.w3.org/2000/svg">
<g clip-path="url(#clip0_863_349)">
<rect width="300" height="300" fill="white"/>
<rect x="-50" y="-50" width="400" height="400" fill="url(#paint0_radial_863_349)"/>
<path d="M132.177 93.9947C142.563 93.3528 152.287 95.4495 161.347 100.285C171.776 105.847 178.422 115.133 181.286 128.14C183.808 139.651 183.914 157.515 181.606 181.734C181.008 179.209 179.234 177.113 176.285 175.444L171.99 173.711C162.63 171.914 155.385 175.85 150.256 185.521C147.692 190.356 146.068 195.362 145.384 200.54C138.246 203.792 128.993 204.926 117.624 203.941L102.686 201.502C95.8478 209.975 89.5008 215.409 83.6454 217.805C80.6963 219.046 78.4311 219.41 76.8497 218.896C66.2501 209.311 59.0483 196.86 55.2444 181.541C51.7397 167.678 51.6328 154.841 54.9238 143.031C57.531 133.617 67.4895 123.626 84.7994 113.057C97.707 105.141 109.226 99.6 119.355 96.4336L122.881 95.4067L132.177 93.9947Z" fill="#C0DC96"/>
<path d="M108.713 245.918C105.764 242.752 104.161 240.441 103.905 238.986C125.317 241.596 144.059 238.836 160.13 230.706C168.165 226.641 174.042 222.32 177.76 217.741C187.719 222.79 199.301 226.149 212.508 227.818L229.369 228.845C228.514 234.236 225.757 239.927 221.099 245.918C211.781 257.899 197.57 265.408 178.465 268.446C156.924 270.286 138.246 266.435 122.433 256.893C117.047 253.641 112.474 249.983 108.713 245.918Z" fill="#C0DC96"/>
<path d="M83.1326 248.87C83.6028 243.008 84.6499 237.702 86.2741 232.953L103.904 238.28C106.298 242.901 110.764 247.822 117.304 253.042C120.552 255.695 123.565 257.856 126.343 259.525C126.471 263.461 126.236 266.927 125.638 269.922L124.676 273.26L119.804 265.815L108.713 276.405L96.66 264.595L86.9793 275.442C83.6028 267.612 82.3206 258.755 83.1326 248.87Z" fill="#C0DC96"/>
<path d="M136.729 264.338L144.935 266.007L138.139 273.517C137.755 272.533 137.434 271.013 137.178 268.96L136.729 264.338Z" fill="#C0DC96"/>
<path d="M155.578 239.949L192.698 232.182C196.63 242.366 198.211 252.55 197.442 262.734C197.057 267.869 196.288 271.955 195.134 274.993L182.568 284.877L171.734 272.811L162.053 284.621L152.436 273.773C151.581 267.783 151.624 261.279 152.564 254.262C153.206 249.212 154.21 244.441 155.578 239.949Z" fill="#C0DC96"/>
<path d="M224.496 240.911C226.334 238.002 227.83 235.071 228.984 232.118L230.138 228.588L234.946 228.331C239.776 235.777 242.319 244.548 242.576 254.647C242.704 259.653 242.341 263.932 241.486 267.483L238.793 265.558L231.1 275.185L220.457 265.044L210.328 276.662L202.122 270.885L200.775 266.842C199.921 264.103 199.728 262.627 200.198 262.413C210.584 257.278 218.684 250.111 224.496 240.911Z" fill="#C0DC96"/>
<path d="M188.595 47.3972C189.065 47.8251 188.915 49.5794 188.146 52.6603C187.419 55.6127 186.564 58.2015 185.581 60.4265C184.769 62.1809 181.713 70.1824 176.414 84.4312L168.72 105.355C170.943 107.323 173.315 110.126 175.837 113.763L178.978 118.641C174.789 127.755 172.439 132.441 171.926 132.697C171.413 132.911 168.015 127.477 161.732 116.395C150.876 121.059 144.999 123.327 144.102 123.198C143.204 123.07 141.131 117.122 137.883 105.355L122.753 106.318L114.354 107.088C114.269 106.446 115.316 104.435 117.496 101.055L120.83 96.1127C123.052 95.2997 128.331 94.8076 136.665 94.6364L148.461 94.5723C150.727 93.6309 156.261 87.5548 165.066 76.3441L180.453 56.062L185.774 49.6436C187.355 47.8465 188.295 47.0977 188.595 47.3972Z" fill="#D3965C"/>
<path d="M185.389 187.254L181.735 180.065L183.658 162.864C194.984 167.057 203.511 175.529 209.238 188.281C211.29 192.816 212.657 197.245 213.341 201.567C213.982 205.375 213.918 207.685 213.149 208.498C212.038 209.654 207.229 208.969 198.724 206.445L186.222 202.337C187.804 197.972 187.526 192.945 185.389 187.254Z" fill="#D3965C"/>
<path d="M235.203 198.229C236.87 203.022 237.618 207.429 237.447 211.451H227.317C227.403 205.76 226.228 199.705 223.791 193.287L216.867 178.011C225.8 181.905 231.912 188.644 235.203 198.229Z" fill="#D3965C"/>
<path d="M97.5575 226.983C93.1979 225.571 90.4412 223.303 89.2872 220.18C88.4324 217.869 88.411 216.2 89.2231 215.173C91.0182 214.831 95.8478 210.124 103.712 201.053C111.705 204.177 121.129 205.032 131.985 203.62C137.413 202.893 142.029 201.866 145.833 200.54V208.819C140.405 215.409 132.199 220.586 121.214 224.352C110.914 227.903 103.028 228.78 97.5575 226.983Z" fill="#ED8599"/>
<path d="M87.9408 216.457C88.2828 218.768 89.3085 221.014 91.0182 223.196L93.5185 225.764C90.6121 225.079 87.6844 223.86 84.7353 222.105L81.2092 219.602C83.4745 218.575 85.7183 217.527 87.9408 216.457Z" fill="#922F00"/>
<path d="M102.686 270.179L108.649 275.891L119.804 265.815L124.612 272.811C122.176 280.941 120.167 285.626 118.586 286.867C117.517 287.723 113.414 288.172 106.276 288.215L93.7749 287.316C92.7492 286.845 91.2746 284.642 89.3513 280.705L86.7869 274.929L96.2752 264.595C96.5317 264.51 98.6687 266.371 102.686 270.179Z" fill="#FFE33F"/>
<path d="M144.679 266.713L151.923 268.382L153.59 282.695L142.82 281.925C141.922 281.625 140.918 280.063 139.806 277.239L138.396 273.067L144.679 266.713Z" fill="#FFE33F"/>
<path d="M162.117 284.235L171.733 272.811L183.081 284.492L195.134 274.672L191.928 284.171C189.449 290.675 187.441 294.312 185.902 295.082C184.192 295.981 179.854 296.28 172.887 295.981C166.177 295.724 162.095 295.211 160.642 294.44C159.403 293.841 157.693 290.589 155.513 284.685C153.505 279.165 152.5 275.742 152.5 274.415L162.117 284.235Z" fill="#FFE33F"/>
<path d="M210.969 276.277L220.457 265.044L231.1 275.185L238.793 265.558L241.55 267.933L240.268 276.212C239.071 281.946 237.746 285.369 236.293 286.482C234.626 287.723 230.48 288.493 223.855 288.792L210.969 288.086C209.174 287.487 207.165 284.578 204.943 279.357C203.148 275.25 202.036 271.998 201.609 269.601L210.969 276.277Z" fill="#FFE33F"/>
<path d="M54.988 198.229C53.7913 192.752 54.1973 188.281 56.2061 184.815C58.8988 192.645 62.0616 199.77 65.6945 206.188C71.208 216.072 76.0163 220.394 80.1194 219.153C84.8636 223.218 91.1464 225.85 98.9679 227.048C114.654 229.401 130.275 223.325 145.833 208.82C145.491 204.541 145.854 199.941 146.923 195.02C149.102 185.179 153.847 178.653 161.155 175.444C169.404 171.807 176.114 173.412 181.286 180.258C186.158 186.676 187.74 194.378 186.03 203.364C185.218 207.686 182.761 212.2 178.657 216.907C174.341 221.87 168.891 226.213 162.309 229.936C146.153 239.136 128.245 242.345 108.585 239.564C88.9239 236.825 73.8366 228.631 63.3224 214.981C59.0484 209.504 56.2703 203.92 54.988 198.229Z" fill="#FFE33F"/>
<path d="M147.051 174.995C145.213 181.499 142.371 186.698 138.524 190.591C134.635 194.485 130.874 195.919 127.241 194.892C123.608 193.865 121.129 190.677 119.804 185.328C118.522 179.98 118.799 174.053 120.637 167.55C122.518 161.046 125.381 155.847 129.228 151.953C133.117 148.059 136.879 146.626 140.512 147.653C144.187 148.679 146.666 151.867 147.948 157.216C149.231 162.565 148.931 168.491 147.051 174.995Z" fill="#FFE33F"/>
<path d="M161.476 11.0693C164.04 14.6636 167.374 20.9322 171.477 29.8751C174.298 36.0368 175.26 44.1881 174.362 54.3292C173.935 59.3783 173.229 63.807 172.246 67.6152L165.13 75.8949C161.839 75.0819 158.27 73.242 154.424 70.3751C146.688 64.6841 141.452 56.7253 138.717 46.4987C135.938 36.1865 136.772 25.6604 141.217 14.9203C142.67 11.4544 144.38 8.24521 146.346 5.29275C147.927 2.93935 148.889 1.71986 149.231 1.63428C153.676 2.66122 157.757 5.80622 161.476 11.0693Z" fill="#009F50"/>
<path d="M250.461 56.6396C248.111 60.9185 245.033 65.3686 241.229 69.9898C233.664 79.2323 226.334 84.7521 219.239 86.5492C209.879 88.9882 201.652 89.8654 194.557 89.1808C186.265 88.3678 178.935 85.4153 172.567 80.3234C172.353 80.1523 172.866 78.89 174.106 76.5366C175.559 73.7553 177.375 71.0168 179.555 68.321C186.009 60.1911 193.446 55.0564 201.865 52.9169C211.268 50.5207 220.564 49.7933 229.754 50.7347C237.917 51.5477 244.82 53.516 250.461 56.6396Z" fill="#009F50"/>
<path d="M197.826 171.593C194.706 168.64 191.266 166.18 187.505 164.211L182.825 162.093L183.722 156.895C201.716 160.703 214.517 170.801 222.124 187.189C225.928 195.405 227.916 203.214 228.087 210.616L237.126 210.809L236.934 206.316C242.02 207.985 244.2 212.05 243.473 218.511C243.088 221.72 242.191 224.758 240.781 227.625C225.223 229.508 210.05 228.417 195.262 224.352C190.646 223.111 186.351 221.635 182.376 219.923L177.76 217.741C180.367 215.986 182.44 212.991 183.978 208.755L185.517 202.914C190.518 204.711 196.63 206.188 203.853 207.343L213.149 208.498C212.978 193.265 207.87 180.963 197.826 171.593Z" fill="#0D131A"/>
<path d="M197.185 252.015L196.416 243.671C205.007 240.334 213.277 235.37 221.227 228.781L230.331 227.946C228.963 235.007 225.223 241.789 219.111 248.293C213.17 254.625 205.904 259.739 197.314 263.632C197.698 261.793 197.655 257.92 197.185 252.015Z" fill="#A5BE83"/>
<path d="M153.462 248.1L152.308 256.636C151.667 262.627 151.646 266.414 152.244 267.997C152.329 268.254 151.966 268.189 151.154 267.804C135.34 264.424 122.796 258.562 113.521 250.218C110.615 247.608 108.221 244.912 106.341 242.131L104.353 238.729C109.995 239.927 118.265 240.419 129.164 240.205C136.815 244.013 144.914 246.645 153.462 248.1Z" fill="#A5BE83"/>
<path d="M124.484 272.618L119.996 265.879L110.764 274.736C112.004 268.061 112.623 259.974 112.623 250.475L126.792 259.332C126.578 262.755 125.809 267.184 124.484 272.618Z" fill="#A5BE83"/>
<path d="M124.484 272.618C123.672 275.998 122.774 279.036 121.791 281.732C120.851 284.385 120.124 285.925 119.612 286.353C118.458 287.209 114.098 288.001 106.533 288.728C108.328 284.963 109.738 280.299 110.764 274.736L119.804 266.071L124.484 272.618Z" fill="#DCC437"/>
<path d="M136.729 264.338L144.999 266.521L138.268 273.517C137.541 272.404 137.071 270.543 136.857 267.933L136.729 264.338Z" fill="#A5BE83"/>
<path d="M210.841 276.533C211.268 276.533 214.452 272.704 220.393 265.044L224.881 269.987C224.411 275.806 223.407 282.203 221.868 289.178L216.931 289.242C213.469 289.113 211.29 288.643 210.392 287.83C209.324 286.888 207.849 284.685 205.968 281.219C203.703 277.111 202.058 273.153 201.032 269.345C207.101 274.137 210.371 276.533 210.841 276.533Z" fill="#DCC437"/>
<path d="M225.009 250.796C225.522 256.786 225.479 263.183 224.881 269.987L220.778 265.045L210.841 276.533L201.288 269.345C200.562 266.692 200.198 264.381 200.198 262.413L224.048 242.837L225.009 250.796Z" fill="#A5BE83"/>
<path d="M117.752 204.07C121.642 205.097 127.519 204.711 135.383 202.914C139.315 201.973 142.862 200.946 146.025 199.833V208.883C144.7 210.552 139.315 214.425 129.869 220.501C128.801 216.65 127.284 213.44 125.317 210.873C123.522 208.562 121.001 206.295 117.752 204.07Z" fill="#CE7486"/>
<path d="M144.999 266.521L151.859 267.098C151.56 269.28 151.923 272.618 152.949 277.111C153.462 279.379 154.018 281.411 154.616 283.208C148.119 282.695 144.016 282.096 142.307 281.411C141.281 280.983 140.383 279.443 139.614 276.79L138.845 272.875L144.999 266.521Z" fill="#DCC437"/>
<path d="M93.7109 235.777C89.5651 234.407 85.9535 232.717 82.8762 230.706L79.5425 228.139C82.9617 230.107 88.6248 231.626 96.5318 232.696C106.191 234.065 115.85 234.065 125.51 232.696C152.821 228.802 172.845 215.259 185.581 192.067L185.966 197.523C185.838 201.93 184.855 206.188 183.017 210.296C177.119 223.432 163.634 232.418 142.563 237.253C123.287 240.633 107.003 240.141 93.7109 235.777Z" fill="#DCC437"/>
<path d="M167.63 73.5843L165.002 75.7665C152.052 71.5732 143.568 63.4432 139.55 51.3767C138.268 47.6112 137.52 43.6746 137.306 39.5669L137.37 34.5605C137.669 39.738 139.849 45.7927 143.91 52.7246C149.722 62.5233 157.629 69.4765 167.63 73.5843Z" fill="#008C46"/>
<path d="M182.376 85.7151C179.683 84.6453 177.204 83.4045 174.939 81.9924L172.375 80.2595L173.4 77.6921L180.517 80.5162C185.816 82.3561 191.202 83.4686 196.672 83.8537C213.982 85.1802 229.839 79.5748 244.243 67.0376C242.362 70.4179 239.498 73.8839 235.652 77.4354C228.044 84.5812 219.41 88.6247 209.751 89.5661C200.092 90.4647 190.967 89.181 182.376 85.7151Z" fill="#008C46"/>
<path d="M174.618 81.9922L176.926 83.5326L168.656 105.291L165.515 102.659L174.618 81.9922Z" fill="#AD7B49"/>
<path d="M81.8504 158.178C81.3803 158.863 80.9956 159.141 80.6965 159.013C80.3973 158.884 80.2904 158.606 80.3759 158.178C80.4614 157.622 80.6965 156.895 81.0811 155.996C81.5085 154.841 81.9359 154.092 82.3633 153.75L83.5814 153.557C83.9234 153.728 84.0516 154.092 83.9661 154.648L83.1968 156.317L81.8504 158.178Z" fill="#0D131A"/>
<path d="M64.3481 153.236L64.4123 150.926C64.455 150.156 64.5618 149.557 64.7328 149.129C64.9465 148.658 65.2243 148.444 65.5662 148.487C65.9082 148.53 66.1432 148.851 66.2715 149.45L66.0791 152.017L65.3739 154.135L64.7969 154.584C64.4977 154.499 64.3481 154.049 64.3481 153.236Z" fill="#0D131A"/>
<path d="M140.768 149.129C138.887 148.529 136.75 148.872 134.357 150.155C131.793 151.525 129.442 153.75 127.305 156.831C125.21 159.911 123.565 163.506 122.368 167.613C121.043 172.149 120.381 176.385 120.381 180.322C120.381 184.258 121.086 187.446 122.496 189.885C123.693 191.982 125.339 193.287 127.433 193.8C130.425 194.571 133.566 193.287 136.857 189.949C140.49 186.355 143.247 181.306 145.128 174.802C147.094 167.999 147.542 162.115 146.474 157.152C145.491 152.701 143.589 150.027 140.768 149.129ZM132.754 147.909C135.661 146.369 138.567 146.048 141.473 146.946C145.021 148.059 147.5 151.097 148.91 156.06C150.491 161.58 150.192 168.084 148.012 175.572C146.089 182.29 143.012 187.617 138.781 191.554C134.677 195.362 130.66 196.796 126.728 195.854C123.693 195.127 121.428 193.373 119.932 190.591C118.479 187.767 117.71 184.258 117.624 180.065C117.539 175.743 118.222 171.336 119.676 166.843C121.086 162.393 123.009 158.414 125.446 154.905C127.796 151.653 130.232 149.321 132.754 147.909Z" fill="#0D131A"/>
<path d="M126.023 168.512C127.39 163.677 129.207 160.125 131.472 157.858C133.438 155.889 135.404 155.183 137.37 155.74C139.037 156.253 140.063 158.114 140.447 161.323C140.832 164.575 140.405 168.341 139.165 172.62C137.969 176.77 136.323 180.044 134.229 182.44C132.134 184.836 130.147 185.713 128.266 185.071C126.386 184.472 125.275 182.44 124.933 178.974C124.591 175.722 124.954 172.235 126.023 168.512Z" fill="#0D131A"/>
<path d="M130.318 164.533C130.788 162.949 131.429 161.73 132.241 160.874C132.968 160.147 133.63 159.826 134.229 159.911C134.913 160.04 135.319 160.724 135.447 161.965C135.575 163.121 135.404 164.426 134.934 165.881C134.421 167.507 133.737 168.769 132.882 169.667C132.156 170.48 131.515 170.823 130.959 170.694C130.232 170.523 129.826 169.796 129.741 168.512C129.655 167.357 129.848 166.03 130.318 164.533Z" fill="white"/>
<path d="M165.963 104.2C164.681 103.173 164.19 102.488 164.489 102.146C164.788 101.761 165.579 102.018 166.861 102.916C174.811 108.222 180.111 117.315 182.76 130.194C185.453 143.416 185.432 160.917 182.696 182.697C182.654 183.039 182.29 182.739 181.606 181.798C180.923 180.857 180.602 180.215 180.645 179.872C182.654 158.82 182.504 142.325 180.196 130.387C177.845 118.449 173.101 109.72 165.963 104.2Z" fill="#0D131A"/>
<path d="M54.1545 180.771L55.3726 180.643C56.142 180.9 56.4839 181.178 56.3984 181.477C54.6033 187.425 55.0734 194.121 57.8088 201.567C61.0998 210.552 67.1476 218.254 75.9521 224.673C84.7567 231.091 94.8648 235.156 106.276 236.868C118.158 238.708 129.826 238.344 141.281 235.777C152.735 233.252 162.395 228.866 170.259 222.619C174.576 219.196 177.995 215.473 180.517 211.451C182.996 207.386 184.406 203.235 184.748 198.999C185.175 193.308 183.872 187.874 180.837 182.697C177.803 177.605 174.276 174.866 170.259 174.481C167.182 174.182 164.361 174.588 161.796 175.701C159.488 176.685 157.223 178.375 155.001 180.771C151.282 184.751 148.889 189.008 147.82 193.544C146.88 197.266 146.645 202.316 147.115 208.691V208.819L146.794 209.654C136.451 220.094 124.762 226.235 111.726 228.075C98.9892 229.915 88.2614 227.197 79.5423 219.923C79.3286 219.752 79.4569 219.367 79.927 218.768C80.4399 218.169 80.8032 217.955 81.0169 218.126C89.7787 225.443 100.592 227.796 113.457 225.186C125.082 222.79 135.532 217.163 144.807 208.306C144.251 205.182 144.166 201.738 144.551 197.972C145.405 190.57 148.248 184.258 153.077 179.038C155.471 176.471 158.206 174.545 161.283 173.262C164.446 171.892 167.545 171.422 170.579 171.85C175.965 172.62 180.324 175.893 183.658 181.67C186.821 187.104 188.146 193.009 187.633 199.384C186.479 213.462 177.055 224.502 159.36 232.503C142.563 240.12 124.676 242.473 105.699 239.563C93.7749 237.766 83.3035 233.659 74.2853 227.24C65.0961 220.736 58.7919 212.842 55.3726 203.556C53.9622 199.705 53.1501 195.726 52.9364 191.618C52.7655 187.682 53.1715 184.066 54.1545 180.771Z" fill="#0D131A"/>
<path d="M188.21 47.7821L182.825 54.714L175.965 64.0848L161.668 83.0832C156.411 89.6728 152.329 93.8875 149.423 95.7274L147.564 95.4707C146.538 95.1284 146.153 94.8716 146.41 94.7005C149.273 92.9033 153.59 88.6244 159.36 81.8637C164.19 76.2156 169.233 69.7972 174.49 62.6086C180.046 55.0777 183.701 50.3067 185.453 48.2956C187.034 46.5413 188.188 45.8138 188.915 46.1134C189.556 46.3273 189.791 47.2045 189.62 48.7449C189.364 51.2267 188.124 55.7623 185.902 62.3519L182.696 64.855C185.816 56.1688 187.654 50.4779 188.21 47.7821Z" fill="#0D131A"/>
<path d="M178.145 83.982L170.067 106.318C169.896 106.703 168.998 106.061 167.374 104.392C168.571 101.782 171.413 94.5937 175.901 82.8267L178.145 83.982Z" fill="#0D131A"/>
<path d="M161.283 114.983L161.989 114.919L162.502 115.368L172.054 131.607L174.811 126.215L177.311 119.668L178.465 119.925C179.192 120.225 179.534 120.417 179.491 120.503L176.606 126.921C174.512 131.114 172.973 133.211 171.99 133.211C170.28 133.211 166.711 127.841 161.283 117.101C150.94 122.578 144.957 124.867 143.332 123.969C142.862 123.755 142.243 122.664 141.473 120.695C140.234 117.443 138.909 112.458 137.498 105.74L128.01 106.575L114.419 108.115C113.735 108.201 113.329 108.094 113.2 107.794C113.115 107.58 113.179 107.174 113.393 106.575C114.461 104.05 116.385 100.884 119.163 97.0757L122.304 96.3696L118.778 100.991C117.197 103.173 116.107 104.863 115.508 106.061C118.885 105.334 123.33 104.735 128.843 104.264L138.396 103.879C138.823 103.965 139.08 104.2 139.165 104.585C141.73 114.598 143.482 120.503 144.422 122.3C145.79 122 151.41 119.561 161.283 114.983Z" fill="#0D131A"/>
<path d="M248.923 56.9606C242.127 53.9654 234.69 52.1254 226.612 51.4408C216.996 50.6278 208.212 51.7189 200.263 54.7142C194.322 56.9392 189.107 60.1484 184.62 64.3417C180.046 68.5779 176.371 73.6698 173.593 79.6175C179.576 83.768 185.987 86.4638 192.826 87.7046C199.579 88.9027 206.353 88.6246 213.149 86.8702C220.628 84.9447 227.531 81.3504 233.857 76.0874C240.182 70.7815 245.204 64.4059 248.923 56.9606ZM227.381 48.4884C236.1 49.3869 243.922 51.6761 250.846 55.356C251.615 55.7411 251.765 56.4471 251.295 57.4741C247.448 65.5184 242.319 72.2791 235.908 77.7562C229.497 83.2332 222.317 86.9986 214.367 89.0525C207.187 90.8924 199.899 91.1064 192.505 89.6943C185.068 88.2395 178.209 85.2657 171.926 80.7728C171.456 80.4305 171.327 79.9598 171.541 79.3607C173.892 73.1135 177.546 67.5509 182.504 62.673C187.419 57.8378 193.061 54.2221 199.429 51.8259C208.063 48.5739 217.38 47.4614 227.381 48.4884Z" fill="#0D131A"/>
<path d="M173.016 50.4139C173.016 39.4599 170.366 29.2118 165.066 19.6699C160.45 11.3688 155.278 5.76337 149.551 2.85371C146.089 7.60331 143.418 12.8236 141.537 18.5146C139.657 24.1627 138.717 29.8537 138.717 35.5874C138.717 41.4496 139.678 47.0121 141.601 52.2752C143.696 58.009 146.923 62.8869 151.282 66.9091C155.599 70.8457 160.407 73.4131 165.707 74.6112C166.006 74.6967 165.921 75.0391 165.451 75.6381L164.297 76.4725C158.655 75.2316 153.569 72.4931 149.038 68.257C144.508 64.0636 141.11 58.8861 138.845 52.7245C135.767 44.2095 135.019 35.3521 136.601 26.1524C138.225 16.7816 142.072 8.30933 148.141 0.735646C148.525 0.264965 148.996 0.157992 149.551 0.414727C158.869 4.30854 166.049 12.5882 171.092 25.2538C176.52 38.818 177.226 52.6817 173.208 66.8449C173.08 67.2728 172.353 67.7863 171.028 68.3853C172.353 63.2506 173.016 57.2602 173.016 50.4139Z" fill="#0D131A"/>
<path d="M176.029 218.576C175.73 218.404 175.794 217.998 176.221 217.356C176.606 216.714 176.948 216.479 177.247 216.65C184.085 220.415 194.642 223.411 208.918 225.636C222.637 227.775 232.232 228.16 237.703 226.791C238.772 226.534 239.498 226.213 239.883 225.828C241.165 223.689 241.913 221.036 242.127 217.869C242.298 214.703 241.87 212.093 240.845 210.039C240.033 208.37 238.943 207.472 237.575 207.343C237.276 207.301 237.105 206.98 237.062 206.381C237.019 205.739 237.148 205.439 237.447 205.482C240.054 205.739 241.87 206.915 242.896 209.012C244.136 211.494 244.734 214.532 244.691 218.126C244.649 221.849 243.901 224.93 242.447 227.369C241.892 228.267 240.695 228.93 238.857 229.358C232.532 230.899 223.022 230.77 210.328 228.973C196.053 226.962 184.62 223.496 176.029 218.576Z" fill="#0D131A"/>
<path d="M183.979 163.762C183.765 163.677 183.808 163.27 184.107 162.543C184.406 161.858 184.684 161.559 184.94 161.644C196.566 166.394 204.9 174.395 209.943 185.649C212.551 191.383 214.153 197.908 214.752 205.225C214.965 207.792 214.623 209.375 213.726 209.975C212.743 210.616 208.939 210.295 202.314 209.012C195.134 207.6 189.449 205.781 185.261 203.556C185.004 203.428 185.047 203.021 185.389 202.337C185.688 201.652 185.987 201.374 186.287 201.502C192.185 204.07 200.818 206.166 212.187 207.792C212.187 201.588 210.52 194.827 207.187 187.51C202.1 176.385 194.364 168.469 183.979 163.762Z" fill="#0D131A"/>
<path d="M228.6 209.91L232.254 210.167L236.101 210.296C235.459 204.048 233.899 198.593 231.42 193.929C228.771 188.965 224.903 184.494 219.816 180.514C222.082 184.579 224.005 189.051 225.586 193.929C227.467 199.705 228.471 205.032 228.6 209.91ZM183.914 157.537C183.615 157.494 183.53 157.151 183.658 156.51C183.786 155.911 184 155.632 184.299 155.675C187.547 156.274 191.522 157.686 196.224 159.911C204.558 163.762 211.076 168.747 215.777 174.866C223.385 178.76 229.134 184.194 233.023 191.169C236.442 197.202 238.216 203.899 238.344 211.258C238.387 211.643 238.259 211.943 237.96 212.157C236.977 212.842 233.493 212.82 227.51 212.093C226.911 212.093 226.569 211.75 226.484 211.066C225.458 203.321 223.898 196.774 221.804 191.426C219.923 186.719 217.081 181.712 213.277 176.407C209.388 171.015 203.447 166.287 195.454 162.222C189.941 159.398 186.094 157.836 183.914 157.537Z" fill="#0D131A"/>
<path d="M218.406 247.137C224.091 240.804 227.488 234.536 228.6 228.331C228.685 228.032 229.091 227.946 229.818 228.075C230.587 228.246 230.95 228.481 230.908 228.781C229.668 235.584 226.014 242.409 219.945 249.255C213.705 256.273 206.268 261.75 197.634 265.686L197.57 262.413C205.648 258.647 212.593 253.556 218.406 247.137Z" fill="#0D131A"/>
<path d="M102.045 236.675L103.584 236.804C114.996 253.064 131.002 262.948 151.603 266.457L151.859 269.987C139.165 267.633 128.245 263.119 119.099 256.444C112.218 251.438 106.191 245.062 101.02 237.317C100.849 237.018 101.191 236.804 102.045 236.675Z" fill="#0D131A"/>
<path d="M85.0558 232.567L86.2739 232.439C87.0005 232.696 87.321 232.974 87.2356 233.273C84.5002 242.131 83.8804 251.951 85.3763 262.734C86.8295 272.96 89.5435 280.406 93.5184 285.07C93.8603 285.583 94.8861 286.032 96.5957 286.418L103.712 287.188L112.944 286.803C115.466 286.46 116.919 286.054 117.303 285.583C118.543 284.128 119.825 281.989 121.15 279.165C123.8 273.517 125.381 267.205 125.894 260.231C125.894 259.931 126.279 259.803 127.048 259.845C127.818 259.931 128.181 260.124 128.138 260.423C127.668 266.628 126.386 272.49 124.291 278.009C122.667 282.246 120.979 285.391 119.227 287.444C117.816 289.07 112.602 289.755 103.584 289.498C96.788 289.284 92.7918 288.386 91.5951 286.803C87.492 282.01 84.6498 274.736 83.0684 264.98C81.2733 253.855 81.9357 243.051 85.0558 232.567Z" fill="#0D131A"/>
<path d="M154.488 281.54C155.043 283.037 155.129 283.808 154.744 283.85C148.162 283.979 143.867 283.551 141.858 282.567L141.473 282.246C139.678 280.106 138.182 277.004 136.985 272.939C135.874 269.259 135.319 266.007 135.319 263.183C135.276 262.884 135.639 262.777 136.408 262.862C137.135 262.948 137.541 263.14 137.627 263.44C138.866 272.169 140.64 278.01 142.948 280.962L148.461 281.732L154.488 281.54Z" fill="#0D131A"/>
<path d="M234.818 228.331C234.69 228.032 234.968 227.732 235.652 227.433L236.87 227.304C242.341 237.103 244.585 248.977 243.602 262.926C242.789 274.822 240.61 282.823 237.062 286.931C235.652 288.6 231.613 289.691 224.945 290.205C218.235 290.718 213.341 290.311 210.264 288.985C208.212 288.129 205.99 285.177 203.597 280.128C200.861 274.351 199.301 268.361 198.916 262.156C198.874 261.857 199.237 261.643 200.006 261.514C200.733 261.429 201.118 261.536 201.16 261.835C201.972 267.697 203.49 273.217 205.712 278.395C207.721 283.059 209.537 285.883 211.162 286.867C214.324 287.894 218.983 288.172 225.138 287.701C231.036 287.273 234.434 286.525 235.331 285.455C235.844 284.856 236.592 282.93 237.575 279.678C238.857 275.442 239.798 270.992 240.396 266.328C242.106 252.208 240.246 239.542 234.818 228.331Z" fill="#0D131A"/>
<path d="M192.505 233.017C192.163 231.947 192.206 231.327 192.633 231.155C193.104 231.027 193.552 231.498 193.98 232.567C198.083 242.366 199.408 253.62 197.955 266.328C196.501 278.908 192.826 288.643 186.928 295.532C185.517 297.158 181.35 297.907 174.426 297.778C167.759 297.65 162.886 296.922 159.809 295.596L159.424 295.339C154.894 290.333 152.073 282.652 150.962 272.297C149.722 261.129 151.004 250.389 154.808 240.077C155.193 239.007 155.535 238.558 155.834 238.729C156.133 238.9 156.155 239.542 155.898 240.655C154.06 248.998 153.141 255.93 153.141 261.45C153.141 268.168 153.804 274.394 155.129 280.128C156.539 286.246 158.463 290.611 160.899 293.221C163.933 294.419 168.613 295.018 174.939 295.018C181.051 295.018 184.513 294.548 185.325 293.606C190.24 287.83 193.488 279.272 195.07 267.933C196.737 255.823 195.882 244.185 192.505 233.017Z" fill="#0D131A"/>
<path d="M149.423 243.415C149.338 242.216 149.444 241.575 149.744 241.489C150.086 241.403 150.385 241.96 150.641 243.158C151.154 245.426 152.009 247.33 153.206 248.87C153.419 249.127 153.291 249.598 152.821 250.282C152.393 250.967 152.073 251.181 151.859 250.924C150.363 248.999 149.551 246.495 149.423 243.415Z" fill="#0D131A"/>
<path d="M119.035 265.044C119.376 264.745 119.633 264.595 119.804 264.595L120.509 265.237L124.869 271.591C125.04 271.805 124.954 272.233 124.612 272.875C124.313 273.474 124.099 273.666 123.971 273.452L119.676 266.392C117.966 268.66 114.611 272.276 109.61 277.239L108.969 277.624C108.798 277.667 108.542 277.539 108.2 277.239C103.199 272.618 99.3739 268.617 96.724 265.237L89.0948 274.544C88.24 275.571 87.6844 276.084 87.428 276.084C87.2143 276.084 86.9792 275.806 86.7228 275.25C86.4663 274.736 86.4022 274.394 86.5304 274.223L89.9283 270.243C92.108 267.676 94.0955 265.515 95.8906 263.761L97.301 263.697L102.045 268.318L108.905 275.185L119.035 265.044Z" fill="#0D131A"/>
<path d="M137.947 272.618L144.551 265.622C144.679 265.494 144.935 265.622 145.32 266.007L145.769 266.713L139.422 273.838C139.251 274.052 138.93 273.945 138.46 273.517C137.947 273.132 137.776 272.832 137.947 272.618Z" fill="#0D131A"/>
<path d="M183.273 283.594L189.877 277.56L195.262 272.49C195.433 272.319 195.689 272.533 196.031 273.132C196.331 273.731 196.395 274.116 196.224 274.287C188.317 281.861 183.979 285.647 183.209 285.647L181.863 284.749L177.311 279.871L171.605 273.388L167.951 278.523L163.335 284.492L162.053 285.455C161.112 285.455 157.629 281.476 151.603 273.517C151.432 273.346 151.603 273.067 152.116 272.682C152.628 272.297 152.97 272.19 153.141 272.361L157.244 277.753L161.924 283.465L166.412 277.496L170.323 272.426L171.349 271.591C171.733 271.506 172.225 271.762 172.823 272.361L178.978 278.972L183.273 283.594Z" fill="#0D131A"/>
<path d="M234.626 269.537L237.831 265.558C238.216 265.13 238.579 264.916 238.921 264.916C239.434 264.916 240.332 265.644 241.614 267.098L240.652 268.831L239.05 266.521L236.165 270.757L232.638 275.25L231.228 276.148C230.886 276.148 230.459 275.956 229.946 275.571L225.073 270.949L222.509 268.061L220.522 265.815L215.777 272.233L211.867 276.598C211.396 277.068 210.969 277.304 210.584 277.304C210.371 277.304 210.029 277.154 209.559 276.854L205.199 273.517L200.84 270.308C200.626 270.136 200.669 269.73 200.968 269.088C201.267 268.403 201.523 268.147 201.737 268.318L203.34 269.73L206.353 272.233L210.52 275.442L213.79 271.078L219.047 264.852C219.603 264.253 220.051 263.953 220.393 263.953C220.693 263.953 221.099 264.189 221.611 264.659L226.484 269.345L231.164 273.902L234.626 269.537Z" fill="#0D131A"/>
<path d="M120.06 94.7651C125.446 93.3958 131.237 92.754 137.434 92.8396C143.461 92.9252 148.525 93.6312 152.628 94.9576C153.996 95.4283 154.616 95.899 154.488 96.3697C154.359 96.8404 153.569 96.926 152.116 96.6264C147.585 95.6423 142.798 95.2144 137.755 95.3428C132.37 95.4283 127.112 96.1343 121.984 97.4608C108.136 101.012 94.5015 107.495 81.081 116.908C66.934 126.878 58.4286 136.592 55.565 146.048C52.5304 156.061 53.0433 167.999 57.1037 181.862C60.3519 193.116 64.8824 202.851 70.6951 211.066C72.4475 213.505 74.0502 215.366 75.5034 216.65C76.5719 217.634 77.384 218.148 77.9396 218.19C80.846 218.319 85.1628 216.051 90.89 211.387C94.9503 208.092 98.7115 204.498 102.173 200.604C102.515 200.262 102.9 200.155 103.327 200.283C110.166 201.909 117.517 202.594 125.381 202.337C133.288 202.08 140.234 200.925 146.217 198.871C146.517 198.786 146.688 199.107 146.73 199.834C146.816 200.604 146.709 201.032 146.41 201.118C139.828 203.599 133.246 205.011 126.664 205.354C119.312 205.782 111.576 204.883 103.456 202.658C101.276 206.167 98.049 209.718 93.775 213.313C87.9623 218.148 82.6624 220.544 77.8755 220.501C76.5506 220.501 74.7768 219.538 72.5543 217.613C70.5883 215.901 68.8787 214.019 67.4255 211.965C61.6128 203.706 57.0823 193.63 53.834 181.734C49.9447 167.4 49.5814 155.012 52.7442 144.572C55.4795 135.543 64.049 125.787 78.4525 115.304C92.5141 105.077 106.383 98.231 120.06 94.7651Z" fill="#0D131A"/>
<path d="M88.6461 213.505C88.8171 213.205 89.1163 213.162 89.5437 213.376C89.9711 213.59 90.1207 213.847 89.9925 214.147C89.1804 215.773 89.1163 217.506 89.8001 219.345C90.8259 222.041 93.4117 224.266 97.5575 226.021C97.8994 226.192 97.4079 226.384 96.083 226.598L93.3903 226.534C90.7832 224.908 89.0308 222.897 88.1333 220.501C87.3212 218.276 87.4921 215.944 88.6461 213.505Z" fill="#0D131A"/>
</g>
<defs>
<radialGradient id="paint0_radial_863_349" cx="0" cy="0" r="1" gradientUnits="userSpaceOnUse" gradientTransform="translate(150 150) rotate(90) scale(200)">
<stop stop-color="#FFE33F"/>
<stop offset="1" stop-color="#008086"/>
</radialGradient>
<clipPath id="clip0_863_349">
<rect width="300" height="300" fill="white"/>
</clipPath>
</defs>
</svg>
