<svg xmlns="http://www.w3.org/2000/svg" fill="none" viewBox="0 0 300 300"><g clip-path="url(#a)"><path fill="#fff" d="M0 0h300v300H0z"/><path fill="url(#b)" d="M-50-50h400v400H-50z"/><path fill="#C0DC96" d="M132.177 93.995c10.386-.642 20.11 1.454 29.17 6.29 10.429 5.562 17.075 14.848 19.939 27.855 2.522 11.511 2.628 29.375.32 53.594-.598-2.525-2.372-4.621-5.321-6.29l-4.295-1.733c-9.36-1.797-16.605 2.139-21.734 11.81-2.564 4.835-4.188 9.841-4.872 15.019-7.138 3.252-16.391 4.386-27.76 3.401l-14.938-2.439c-6.838 8.473-13.185 13.907-19.04 16.303-2.95 1.241-5.215 1.605-6.796 1.091-10.6-9.585-17.802-22.036-21.606-37.355-3.504-13.863-3.611-26.7-.32-38.51 2.607-9.414 12.566-19.405 29.875-29.974 12.908-7.916 24.427-13.457 34.556-16.623l3.526-1.027 9.296-1.412ZM108.713 245.918c-2.949-3.166-4.552-5.477-4.808-6.932 21.412 2.61 40.154-.15 56.225-8.28 8.035-4.065 13.912-8.386 17.63-12.965 9.959 5.049 21.541 8.408 34.748 10.077l16.861 1.027c-.855 5.391-3.612 11.082-8.27 17.073-9.318 11.981-23.529 19.49-42.634 22.528-21.541 1.84-40.219-2.011-56.032-11.553-5.386-3.252-9.959-6.91-13.72-10.975Z"/><path fill="#C0DC96" d="M83.133 248.87c.47-5.862 1.517-11.168 3.141-15.917l17.63 5.327c2.394 4.621 6.86 9.542 13.4 14.762 3.248 2.653 6.261 4.814 9.039 6.483.128 3.936-.107 7.402-.705 10.397l-.962 3.338-4.872-7.445-11.091 10.59-12.053-11.81-9.68 10.847c-3.377-7.83-4.66-16.687-3.847-26.572ZM136.729 264.338l8.206 1.669-6.796 7.51c-.384-.984-.705-2.504-.961-4.557l-.449-4.622ZM155.578 239.949l37.12-7.767c3.932 10.184 5.513 20.368 4.744 30.552-.385 5.135-1.154 9.221-2.308 12.259l-12.566 9.884-10.834-12.066-9.681 11.81-9.617-10.848c-.855-5.99-.812-12.494.128-19.511.642-5.05 1.646-9.821 3.014-14.313ZM224.496 240.911c1.838-2.909 3.334-5.84 4.488-8.793l1.154-3.53 4.808-.257c4.83 7.446 7.373 16.217 7.63 26.316.128 5.006-.235 9.285-1.09 12.836l-2.693-1.925-7.693 9.627-10.643-10.141-10.129 11.618-8.206-5.777-1.347-4.043c-.854-2.739-1.047-4.215-.577-4.429 10.386-5.135 18.486-12.302 24.298-21.502Z"/><path fill="#D3965C" d="M188.595 47.397c.47.428.32 2.182-.449 5.263-.727 2.953-1.582 5.542-2.565 7.767-.812 1.754-3.868 9.755-9.167 24.004l-7.694 20.924c2.223 1.968 4.595 4.771 7.117 8.408l3.141 4.878c-4.189 9.114-6.539 13.8-7.052 14.056-.513.214-3.911-5.22-10.194-16.302-10.856 4.664-16.733 6.932-17.63 6.803-.898-.128-2.971-6.076-6.219-17.843l-15.13.963-8.399.77c-.085-.642.962-2.653 3.142-6.033l3.334-4.942c2.222-.813 7.501-1.305 15.835-1.477l11.796-.064c2.266-.941 7.8-7.017 16.605-18.228l15.387-20.282 5.321-6.418c1.581-1.797 2.521-2.546 2.821-2.247ZM185.389 187.254l-3.654-7.189 1.923-17.201c11.326 4.193 19.853 12.665 25.58 25.417 2.052 4.535 3.419 8.964 4.103 13.286.641 3.808.577 6.118-.192 6.931-1.111 1.156-5.92.471-14.425-2.053l-12.502-4.108c1.582-4.365 1.304-9.392-.833-15.083ZM235.203 198.229c1.667 4.793 2.415 9.2 2.244 13.222h-10.13c.086-5.691-1.089-11.746-3.526-18.164l-6.924-15.276c8.933 3.894 15.045 10.633 18.336 20.218Z"/><path fill="#ED8599" d="M97.558 226.983c-4.36-1.412-7.117-3.68-8.27-6.803-.856-2.311-.877-3.98-.065-5.007 1.795-.342 6.625-5.049 14.489-14.12 7.993 3.124 17.417 3.979 28.273 2.567 5.428-.727 10.044-1.754 13.848-3.08v8.279c-5.428 6.59-13.634 11.767-24.619 15.533-10.3 3.551-18.186 4.428-23.656 2.631Z"/><path fill="#922F00" d="M87.94 216.457c.343 2.311 1.368 4.557 3.078 6.739l2.5 2.568c-2.906-.685-5.834-1.904-8.783-3.659l-3.526-2.503a322.428 322.428 0 0 0 6.732-3.145Z"/><path fill="#FFE33F" d="m102.686 270.179 5.963 5.712 11.155-10.076 4.808 6.996c-2.436 8.13-4.445 12.815-6.026 14.056-1.069.856-5.172 1.305-12.31 1.348l-12.501-.899c-1.026-.471-2.5-2.674-4.424-6.611l-2.564-5.776 9.488-10.334c.257-.085 2.394 1.776 6.411 5.584ZM144.679 266.713l7.244 1.669 1.667 14.313-10.77-.77c-.898-.3-1.902-1.862-3.014-4.686l-1.41-4.172 6.283-6.354Z"/><path fill="#FFE33F" d="m162.117 284.235 9.616-11.424 11.348 11.681 12.053-9.82-3.206 9.499c-2.479 6.504-4.487 10.141-6.026 10.911-1.71.899-6.048 1.198-13.015.899-6.71-.257-10.792-.77-12.245-1.541-1.239-.599-2.949-3.851-5.129-9.755-2.008-5.52-3.013-8.943-3.013-10.27l9.617 9.82ZM210.969 276.277l9.488-11.233 10.643 10.141 7.693-9.627 2.757 2.375-1.282 8.279c-1.197 5.734-2.522 9.157-3.975 10.27-1.667 1.241-5.813 2.011-12.438 2.31l-12.886-.706c-1.795-.599-3.804-3.508-6.026-8.729-1.795-4.107-2.907-7.359-3.334-9.756l9.36 6.676ZM54.988 198.229c-1.197-5.477-.79-9.948 1.218-13.414 2.693 7.83 5.856 14.955 9.489 21.373 5.513 9.884 10.321 14.206 14.424 12.965 4.745 4.065 11.027 6.697 18.849 7.895 15.686 2.353 31.307-3.723 46.865-18.228-.342-4.279.021-8.879 1.09-13.8 2.179-9.841 6.924-16.367 14.232-19.576 8.249-3.637 14.959-2.032 20.131 4.814 4.872 6.418 6.454 14.12 4.744 23.106-.812 4.322-3.269 8.836-7.373 13.543-4.316 4.963-9.766 9.306-16.348 13.029-16.156 9.2-34.064 12.409-53.724 9.628-19.661-2.739-34.748-10.933-45.263-24.583-4.274-5.477-7.052-11.061-8.334-16.752Z"/><path fill="#FFE33F" d="M147.051 174.995c-1.838 6.504-4.68 11.703-8.527 15.596-3.889 3.894-7.65 5.328-11.283 4.301-3.633-1.027-6.112-4.215-7.437-9.564-1.282-5.348-1.005-11.275.833-17.778 1.881-6.504 4.744-11.703 8.591-15.597 3.889-3.894 7.651-5.327 11.284-4.3 3.675 1.026 6.154 4.214 7.436 9.563 1.283 5.349.983 11.275-.897 17.779Z"/><path fill="#009F50" d="M161.476 11.07c2.564 3.594 5.898 9.862 10.001 18.805 2.821 6.162 3.783 14.313 2.885 24.454-.427 5.05-1.133 9.478-2.116 13.286l-7.116 8.28c-3.291-.813-6.86-2.653-10.706-5.52-7.736-5.69-12.972-13.65-15.707-23.876-2.779-10.313-1.945-20.839 2.5-31.579 1.453-3.466 3.163-6.675 5.129-9.627 1.581-2.354 2.543-3.573 2.885-3.659 4.445 1.027 8.526 4.172 12.245 9.435ZM250.461 56.64c-2.35 4.279-5.428 8.729-9.232 13.35-7.565 9.242-14.895 14.762-21.99 16.56-9.36 2.438-17.587 3.315-24.682 2.63-8.292-.812-15.622-3.765-21.99-8.857-.214-.17.299-1.433 1.539-3.786 1.453-2.782 3.269-5.52 5.449-8.216 6.454-8.13 13.891-13.265 22.31-15.404 9.403-2.396 18.699-3.124 27.889-2.182 8.163.813 15.066 2.781 20.707 5.905Z"/><path fill="#0D131A" d="M197.826 171.593a45.966 45.966 0 0 0-10.321-7.382l-4.68-2.118.897-5.198c17.994 3.808 30.795 13.906 38.402 30.294 3.804 8.216 5.792 16.025 5.963 23.427l9.039.193-.192-4.493c5.086 1.669 7.266 5.734 6.539 12.195a28.079 28.079 0 0 1-2.692 9.114c-15.558 1.883-30.731.792-45.519-3.273-4.616-1.241-8.911-2.717-12.886-4.429l-4.616-2.182c2.607-1.755 4.68-4.75 6.218-8.986l1.539-5.841c5.001 1.797 11.113 3.274 18.336 4.429l9.296 1.155c-.171-15.233-5.279-27.535-15.323-36.905Z"/><path fill="#A5BE83" d="m197.185 252.015-.769-8.344c8.591-3.337 16.861-8.301 24.811-14.89l9.104-.835c-1.368 7.061-5.108 13.843-11.22 20.347-5.941 6.332-13.207 11.446-21.797 15.339.384-1.839.341-5.712-.129-11.617ZM153.462 248.1l-1.154 8.536c-.641 5.991-.662 9.778-.064 11.361.085.257-.278.192-1.09-.193-15.814-3.38-28.358-9.242-37.633-17.586-2.906-2.61-5.3-5.306-7.18-8.087l-1.988-3.402c5.642 1.198 13.912 1.69 24.811 1.476 7.651 3.808 15.75 6.44 24.298 7.895Z"/><path fill="#A5BE83" d="m124.484 272.618-4.488-6.739-9.232 8.857c1.24-6.675 1.859-14.762 1.859-24.261l14.169 8.857c-.214 3.423-.983 7.852-2.308 13.286Z"/><path fill="#DCC437" d="M124.484 272.618c-.812 3.38-1.71 6.418-2.693 9.114-.94 2.653-1.667 4.193-2.179 4.621-1.154.856-5.514 1.648-13.079 2.375 1.795-3.765 3.205-8.429 4.231-13.992l9.04-8.665 4.68 6.547Z"/><path fill="#A5BE83" d="m136.729 264.338 8.27 2.183-6.731 6.996c-.727-1.113-1.197-2.974-1.411-5.584l-.128-3.595Z"/><path fill="#DCC437" d="M210.841 276.533c.427 0 3.611-3.829 9.552-11.489l4.488 4.943c-.47 5.819-1.474 12.216-3.013 19.191l-4.937.064c-3.462-.129-5.641-.599-6.539-1.412-1.068-.942-2.543-3.145-4.424-6.611-2.265-4.108-3.91-8.066-4.936-11.874 6.069 4.792 9.339 7.188 9.809 7.188Z"/><path fill="#A5BE83" d="M225.009 250.796c.513 5.99.47 12.387-.128 19.191l-4.103-4.942-9.937 11.488-9.553-7.188c-.726-2.653-1.09-4.964-1.09-6.932l23.85-19.576.961 7.959Z"/><path fill="#CE7486" d="M117.752 204.07c3.89 1.027 9.767.641 17.631-1.156 3.932-.941 7.479-1.968 10.642-3.081v9.05c-1.325 1.669-6.71 5.542-16.156 11.618-1.068-3.851-2.585-7.061-4.552-9.628-1.795-2.311-4.316-4.578-7.565-6.803Z"/><path fill="#DCC437" d="m144.999 266.521 6.86.577c-.299 2.182.064 5.52 1.09 10.013.513 2.268 1.069 4.3 1.667 6.097-6.497-.513-10.6-1.112-12.309-1.797-1.026-.428-1.924-1.968-2.693-4.621l-.769-3.915 6.154-6.354ZM93.71 235.777c-4.145-1.37-7.756-3.06-10.834-5.071l-3.334-2.567c3.42 1.968 9.083 3.487 16.99 4.557a102.746 102.746 0 0 0 28.978 0c27.311-3.894 47.335-17.437 60.071-40.629l.385 5.456c-.128 4.407-1.111 8.665-2.949 12.773-5.898 13.136-19.383 22.122-40.454 26.957-19.276 3.38-35.56 2.888-48.852-1.476Z"/><path fill="#008C46" d="m167.63 73.584-2.628 2.182c-12.95-4.193-21.434-12.323-25.452-24.39-1.282-3.765-2.03-7.701-2.244-11.81l.064-5.006c.299 5.178 2.479 11.233 6.54 18.165 5.812 9.798 13.719 16.752 23.72 20.86ZM182.376 85.715c-2.693-1.07-5.172-2.31-7.437-3.723l-2.564-1.733 1.025-2.567 7.117 2.824c5.299 1.84 10.685 2.953 16.155 3.338 17.31 1.326 33.167-4.28 47.571-16.816-1.881 3.38-4.745 6.846-8.591 10.397-7.608 7.146-16.242 11.19-25.901 12.131-9.659.899-18.784-.385-27.375-3.85Z"/><path fill="#AD7B49" d="m174.618 81.992 2.308 1.54-8.27 21.759-3.141-2.632 9.103-20.667Z"/><path fill="#0D131A" d="M81.85 158.178c-.47.685-.854.963-1.153.835-.3-.129-.407-.407-.321-.835.085-.556.32-1.283.705-2.182.427-1.155.855-1.904 1.282-2.246l1.218-.193c.342.171.47.535.385 1.091l-.77 1.669-1.346 1.861ZM64.348 153.236l.064-2.31c.043-.77.15-1.369.32-1.797.215-.471.492-.685.834-.642.342.043.577.364.706.963l-.193 2.567-.705 2.118-.577.449c-.3-.085-.449-.535-.449-1.348ZM140.768 149.129c-1.881-.6-4.018-.257-6.411 1.026-2.564 1.37-4.915 3.595-7.052 6.676-2.095 3.08-3.74 6.675-4.937 10.782-1.325 4.536-1.987 8.772-1.987 12.709 0 3.936.705 7.124 2.115 9.563 1.197 2.097 2.843 3.402 4.937 3.915 2.992.771 6.133-.513 9.424-3.851 3.633-3.594 6.39-8.643 8.271-15.147 1.966-6.803 2.414-12.687 1.346-17.65-.983-4.451-2.885-7.125-5.706-8.023Zm-8.014-1.22c2.907-1.54 5.813-1.861 8.719-.963 3.548 1.113 6.027 4.151 7.437 9.114 1.581 5.52 1.282 12.024-.898 19.512-1.923 6.718-5 12.045-9.231 15.982-4.104 3.808-8.121 5.242-12.053 4.3-3.035-.727-5.3-2.481-6.796-5.263-1.453-2.824-2.222-6.333-2.308-10.526-.085-4.322.598-8.729 2.052-13.222 1.41-4.45 3.333-8.429 5.77-11.938 2.35-3.252 4.786-5.584 7.308-6.996Z"/><path fill="#0D131A" d="M126.023 168.512c1.367-4.835 3.184-8.387 5.449-10.654 1.966-1.969 3.932-2.675 5.898-2.118 1.667.513 2.693 2.374 3.077 5.583.385 3.252-.042 7.018-1.282 11.297-1.196 4.15-2.842 7.424-4.936 9.82-2.095 2.396-4.082 3.273-5.963 2.631-1.88-.599-2.991-2.631-3.333-6.097-.342-3.252.021-6.739 1.09-10.462Z"/><path fill="#fff" d="M130.318 164.533c.47-1.584 1.111-2.803 1.923-3.659.727-.727 1.389-1.048 1.988-.963.684.129 1.09.813 1.218 2.054.128 1.156-.043 2.461-.513 3.916-.513 1.626-1.197 2.888-2.052 3.786-.726.813-1.367 1.156-1.923 1.027-.727-.171-1.133-.898-1.218-2.182-.086-1.155.107-2.482.577-3.979Z"/><path fill="#0D131A" d="M165.963 104.2c-1.282-1.027-1.773-1.712-1.474-2.054.299-.385 1.09-.128 2.372.77 7.95 5.306 13.25 14.399 15.899 27.278 2.693 13.222 2.672 30.723-.064 52.503-.042.342-.406.042-1.09-.899-.683-.941-1.004-1.583-.961-1.926 2.009-21.052 1.859-37.547-.449-49.485-2.351-11.938-7.095-20.667-14.233-26.187Z"/><path fill="#0D131A" d="m54.154 180.771 1.219-.128c.769.257 1.11.535 1.025.834-1.795 5.948-1.325 12.644 1.41 20.09 3.292 8.985 9.34 16.687 18.144 23.106 8.805 6.418 18.913 10.483 30.324 12.195 11.882 1.84 23.55 1.476 35.005-1.091 11.454-2.525 21.114-6.911 28.978-13.158 4.317-3.423 7.736-7.146 10.258-11.168 2.479-4.065 3.889-8.216 4.231-12.452.427-5.691-.876-11.125-3.911-16.302-3.034-5.092-6.561-7.831-10.578-8.216-3.077-.299-5.898.107-8.463 1.22-2.308.984-4.573 2.674-6.795 5.07-3.719 3.98-6.112 8.237-7.181 12.773-.94 3.722-1.175 8.772-.705 15.147v.128l-.321.835c-10.343 10.44-22.032 16.581-35.068 18.421-12.737 1.84-23.465-.878-32.184-8.152-.213-.171-.085-.556.385-1.155.513-.599.876-.813 1.09-.642 8.762 7.317 19.575 9.67 32.44 7.06 11.625-2.396 22.075-8.023 31.35-16.88-.556-3.124-.641-6.568-.256-10.334.854-7.402 3.697-13.714 8.526-18.934 2.394-2.567 5.129-4.493 8.206-5.776 3.163-1.37 6.262-1.84 9.296-1.412 5.386.77 9.745 4.043 13.079 9.82 3.163 5.434 4.488 11.339 3.975 17.714-1.154 14.078-10.578 25.118-28.273 33.119-16.797 7.617-34.684 9.97-53.661 7.06-11.924-1.797-22.395-5.904-31.414-12.323-9.189-6.504-15.493-14.398-18.912-23.684a40.66 40.66 0 0 1-2.437-11.938c-.17-3.936.236-7.552 1.218-10.847ZM188.21 47.782l-5.385 6.932-6.86 9.37-14.297 19c-5.257 6.589-9.339 10.803-12.245 12.643l-1.859-.256c-1.026-.343-1.411-.6-1.154-.77 2.863-1.798 7.18-6.077 12.95-12.837 4.83-5.648 9.873-12.067 15.13-19.255 5.556-7.531 9.211-12.302 10.963-14.313 1.581-1.755 2.735-2.482 3.462-2.183.641.214.876 1.092.705 2.632-.256 2.482-1.496 7.017-3.718 13.607l-3.206 2.503c3.12-8.686 4.958-14.377 5.514-17.073ZM178.145 83.982l-8.078 22.336c-.171.385-1.069-.257-2.693-1.926 1.197-2.61 4.039-9.798 8.527-21.565l2.244 1.155ZM161.283 114.983l.706-.064.513.449 9.552 16.239 2.757-5.392 2.5-6.547 1.154.257c.727.3 1.069.492 1.026.578l-2.885 6.418c-2.094 4.193-3.633 6.29-4.616 6.29-1.71 0-5.279-5.37-10.707-16.11-10.343 5.477-16.326 7.766-17.951 6.868-.47-.214-1.089-1.305-1.859-3.274-1.239-3.252-2.564-8.237-3.975-14.955l-9.488.835-13.591 1.54c-.684.086-1.09-.021-1.219-.321-.085-.214-.021-.62.193-1.219 1.068-2.525 2.992-5.691 5.77-9.5l3.141-.705-3.526 4.621c-1.581 2.182-2.671 3.872-3.27 5.07 3.377-.727 7.822-1.326 13.335-1.797l9.553-.385c.427.086.684.321.769.706 2.565 10.013 4.317 15.918 5.257 17.715 1.368-.3 6.988-2.739 16.861-7.317Z"/><path fill="#0D131A" d="M248.923 56.96c-6.796-2.995-14.233-4.835-22.311-5.52-9.616-.812-18.4.279-26.349 3.274-5.941 2.225-11.156 5.434-15.643 9.628-4.574 4.236-8.249 9.328-11.027 15.276 5.983 4.15 12.394 6.846 19.233 8.087 6.753 1.198 13.527.92 20.323-.835 7.479-1.925 14.382-5.52 20.708-10.783 6.325-5.306 11.347-11.681 15.066-19.126Zm-21.542-8.472c8.719.899 16.541 3.188 23.465 6.868.769.385.919 1.091.449 2.118-3.847 8.044-8.976 14.805-15.387 20.282S222.317 87 214.367 89.052c-7.18 1.84-14.468 2.054-21.862.642-7.437-1.454-14.296-4.428-20.579-8.921-.47-.343-.599-.813-.385-1.412 2.351-6.248 6.005-11.81 10.963-16.688 4.915-4.835 10.557-8.45 16.925-10.847 8.634-3.252 17.951-4.365 27.952-3.338ZM173.016 50.414c0-10.954-2.65-21.202-7.95-30.744-4.616-8.301-9.788-13.907-15.515-16.816-3.462 4.75-6.133 9.97-8.014 15.66-1.88 5.649-2.82 11.34-2.82 17.073 0 5.863.961 11.425 2.884 16.688 2.095 5.734 5.322 10.612 9.681 14.634 4.317 3.937 9.125 6.504 14.425 7.702.299.086.214.428-.256 1.027l-1.154.834c-5.642-1.24-10.728-3.979-15.259-8.215-4.53-4.193-7.928-9.37-10.193-15.533-3.078-8.514-3.826-17.372-2.244-26.572 1.624-9.37 5.471-17.843 11.54-25.416.384-.471.855-.578 1.41-.321 9.318 3.894 16.498 12.173 21.541 24.839 5.428 13.564 6.134 27.428 2.116 41.59-.128.429-.855.942-2.18 1.541 1.325-5.134 1.988-11.125 1.988-17.971ZM176.029 218.576c-.299-.172-.235-.578.192-1.22.385-.642.727-.877 1.026-.706 6.838 3.765 17.395 6.761 31.671 8.986 13.719 2.139 23.314 2.524 28.785 1.155 1.069-.257 1.795-.578 2.18-.963 1.282-2.139 2.03-4.792 2.244-7.959.171-3.166-.257-5.776-1.282-7.83-.812-1.669-1.902-2.567-3.27-2.696-.299-.042-.47-.363-.513-.962-.043-.642.086-.942.385-.899 2.607.257 4.423 1.433 5.449 3.53 1.24 2.482 1.838 5.52 1.795 9.114-.042 3.723-.79 6.804-2.244 9.243-.555.898-1.752 1.561-3.59 1.989-6.325 1.541-15.835 1.412-28.529-.385-14.275-2.011-25.708-5.477-34.299-10.397Z"/><path fill="#0D131A" d="M183.979 163.762c-.214-.085-.171-.492.128-1.219.299-.685.577-.984.833-.899 11.626 4.75 19.96 12.751 25.003 24.005 2.608 5.734 4.21 12.259 4.809 19.576.213 2.567-.129 4.15-1.026 4.75-.983.641-4.787.32-11.412-.963-7.18-1.412-12.865-3.231-17.053-5.456-.257-.128-.214-.535.128-1.219.299-.685.598-.963.898-.835 5.898 2.568 14.531 4.664 25.9 6.29 0-6.204-1.667-12.965-5-20.282-5.087-11.125-12.823-19.041-23.208-23.748Z"/><path fill="#0D131A" d="m228.6 209.91 3.654.257 3.847.129c-.642-6.248-2.202-11.703-4.681-16.367-2.649-4.964-6.517-9.435-11.604-13.415 2.266 4.065 4.189 8.537 5.77 13.415 1.881 5.776 2.885 11.103 3.014 15.981Zm-44.686-52.373c-.299-.043-.384-.386-.256-1.027.128-.599.342-.878.641-.835 3.248.599 7.223 2.011 11.925 4.236 8.334 3.851 14.852 8.836 19.553 14.955 7.608 3.894 13.357 9.328 17.246 16.303 3.419 6.033 5.193 12.73 5.321 20.089.043.385-.085.685-.384.899-.983.685-4.467.663-10.45-.064-.599 0-.941-.343-1.026-1.027-1.026-7.745-2.586-14.292-4.68-19.64-1.881-4.707-4.723-9.714-8.527-15.019-3.889-5.392-9.83-10.12-17.823-14.185-5.513-2.824-9.36-4.386-11.54-4.685ZM218.406 247.137c5.685-6.333 9.082-12.601 10.194-18.806.085-.299.491-.385 1.218-.256.769.171 1.132.406 1.09.706-1.24 6.803-4.894 13.628-10.963 20.474-6.24 7.018-13.677 12.495-22.311 16.431l-.064-3.273c8.078-3.766 15.023-8.857 20.836-15.276ZM102.045 236.675l1.539.129c11.412 16.26 27.418 26.144 48.019 29.653l.256 3.53c-12.694-2.354-23.614-6.868-32.76-13.543-6.881-5.006-12.908-11.382-18.079-19.127-.171-.299.171-.513 1.025-.642Z"/><path fill="#0D131A" d="m85.056 232.567 1.218-.128c.727.257 1.047.535.962.834-2.736 8.858-3.356 18.678-1.86 29.461 1.453 10.226 4.167 17.672 8.142 22.336.342.513 1.368.962 3.078 1.348l7.116.77 9.232-.385c2.522-.343 3.975-.749 4.359-1.22 1.24-1.455 2.522-3.594 3.847-6.418 2.65-5.648 4.231-11.96 4.744-18.934 0-.3.385-.428 1.154-.386.77.086 1.133.279 1.09.578-.47 6.205-1.752 12.067-3.847 17.586-1.624 4.237-3.312 7.382-5.064 9.435-1.411 1.626-6.625 2.311-15.643 2.054-6.796-.214-10.792-1.112-11.989-2.695-4.103-4.793-6.945-12.067-8.527-21.823-1.795-11.125-1.132-21.929 1.988-32.413ZM154.488 281.54c.555 1.497.641 2.268.256 2.31-6.582.129-10.877-.299-12.886-1.283l-.385-.321c-1.795-2.14-3.291-5.242-4.488-9.307-1.111-3.68-1.666-6.932-1.666-9.756-.043-.299.32-.406 1.089-.321.727.086 1.133.278 1.219.578 1.239 8.729 3.013 14.57 5.321 17.522l5.513.77 6.027-.192ZM234.818 228.331c-.128-.299.15-.599.834-.898l1.218-.129c5.471 9.799 7.715 21.673 6.732 35.622-.813 11.896-2.992 19.897-6.54 24.005-1.41 1.669-5.449 2.76-12.117 3.274-6.71.513-11.604.106-14.681-1.22-2.052-.856-4.274-3.808-6.667-8.857-2.736-5.777-4.296-11.767-4.681-17.972-.042-.299.321-.513 1.09-.642.727-.085 1.112.022 1.154.321.812 5.862 2.33 11.382 4.552 16.56 2.009 4.664 3.825 7.488 5.45 8.472 3.162 1.027 7.821 1.305 13.976.834 5.898-.428 9.296-1.176 10.193-2.246.513-.599 1.261-2.525 2.244-5.777 1.282-4.236 2.223-8.686 2.821-13.35 1.71-14.12-.15-26.786-5.578-37.997Z"/><path fill="#0D131A" d="M192.505 233.017c-.342-1.07-.299-1.69.128-1.862.471-.128.919.343 1.347 1.412 4.103 9.799 5.428 21.053 3.975 33.761-1.454 12.58-5.129 22.315-11.027 29.204-1.411 1.626-5.578 2.375-12.502 2.246-6.667-.128-11.54-.856-14.617-2.182l-.385-.257c-4.53-5.006-7.351-12.687-8.462-23.042-1.24-11.168.042-21.908 3.846-32.22.385-1.07.727-1.519 1.026-1.348.299.171.321.813.064 1.926-1.838 8.343-2.757 15.275-2.757 20.795 0 6.718.663 12.944 1.988 18.678 1.41 6.118 3.334 10.483 5.77 13.093 3.034 1.198 7.714 1.797 14.04 1.797 6.112 0 9.574-.47 10.386-1.412 4.915-5.776 8.163-14.334 9.745-25.673 1.667-12.11.812-23.748-2.565-34.916Z"/><path fill="#0D131A" d="M149.423 243.415c-.085-1.199.021-1.84.321-1.926.342-.086.641.471.897 1.669.513 2.268 1.368 4.172 2.565 5.712.213.257.085.728-.385 1.412-.428.685-.748.899-.962.642-1.496-1.925-2.308-4.429-2.436-7.509ZM119.035 265.044c.341-.299.598-.449.769-.449l.705.642 4.36 6.354c.171.214.085.642-.257 1.284-.299.599-.513.791-.641.577l-4.295-7.06c-1.71 2.268-5.065 5.884-10.066 10.847l-.641.385c-.171.043-.427-.085-.769-.385-5.001-4.621-8.826-8.622-11.476-12.002l-7.63 9.307c-.854 1.027-1.41 1.54-1.666 1.54-.214 0-.449-.278-.705-.834-.257-.514-.32-.856-.193-1.027l3.398-3.98c2.18-2.567 4.168-4.728 5.963-6.482l1.41-.064 4.744 4.621 6.86 6.867 10.13-10.141ZM137.947 272.618l6.604-6.996c.128-.128.384 0 .769.385l.449.706-6.347 7.125c-.171.214-.492.107-.962-.321-.513-.385-.684-.685-.513-.899ZM183.273 283.594l6.604-6.034 5.385-5.07c.171-.171.427.043.769.642.3.599.364.984.193 1.155-7.907 7.574-12.245 11.36-13.015 11.36l-1.346-.898-4.552-4.878-5.706-6.483-3.654 5.135-4.616 5.969-1.282.963c-.941 0-4.424-3.979-10.45-11.938-.171-.171 0-.45.513-.835.512-.385.854-.492 1.025-.321l4.103 5.392 4.68 5.712 4.488-5.969 3.911-5.07 1.026-.835c.384-.085.876.171 1.474.77l6.155 6.611 4.295 4.622ZM234.626 269.537l3.205-3.979c.385-.428.748-.642 1.09-.642.513 0 1.411.728 2.693 2.182l-.962 1.733-1.602-2.31-2.885 4.236-3.527 4.493-1.41.898c-.342 0-.769-.192-1.282-.577l-4.873-4.622-2.564-2.888-1.987-2.246-4.745 6.418-3.91 4.365c-.471.47-.898.706-1.283.706-.213 0-.555-.15-1.025-.45l-4.36-3.337-4.359-3.209c-.214-.172-.171-.578.128-1.22.299-.685.555-.941.769-.77l1.603 1.412 3.013 2.503 4.167 3.209 3.27-4.364 5.257-6.226c.556-.599 1.004-.899 1.346-.899.3 0 .706.236 1.218.706l4.873 4.686 4.68 4.557 3.462-4.365ZM120.06 94.765c5.386-1.37 11.177-2.011 17.374-1.925 6.027.085 11.091.791 15.194 2.118 1.368.47 1.988.941 1.86 1.412-.129.47-.919.556-2.372.256-4.531-.984-9.318-1.412-14.361-1.283a67.002 67.002 0 0 0-15.771 2.118c-13.848 3.551-27.483 10.034-40.903 19.447-14.147 9.97-22.652 19.684-25.516 29.14-3.035 10.013-2.522 21.951 1.539 35.814 3.248 11.254 7.778 20.989 13.591 29.204 1.753 2.439 3.355 4.3 4.808 5.584 1.069.984 1.881 1.498 2.437 1.54 2.906.129 7.223-2.139 12.95-6.803a96.046 96.046 0 0 0 11.283-10.783c.342-.342.727-.449 1.154-.321 6.839 1.626 14.19 2.311 22.054 2.054 7.907-.257 14.853-1.412 20.836-3.466.3-.085.471.236.513.963.086.77-.021 1.198-.32 1.284-6.582 2.481-13.164 3.893-19.746 4.236-7.352.428-15.088-.471-23.208-2.696-2.18 3.509-5.407 7.06-9.681 10.655-5.813 4.835-11.113 7.231-15.9 7.188-1.324 0-3.098-.963-5.32-2.888a31.941 31.941 0 0 1-5.13-5.648c-5.812-8.259-10.343-18.335-13.591-30.231-3.89-14.334-4.253-26.722-1.09-37.162 2.736-9.029 11.305-18.785 25.709-29.268 14.061-10.227 27.93-17.073 41.607-20.539Z"/><path fill="#0D131A" d="M88.646 213.505c.171-.3.47-.343.898-.129.427.214.577.471.449.771-.813 1.626-.877 3.359-.193 5.198 1.026 2.696 3.612 4.921 7.758 6.676.341.171-.15.363-1.475.577l-2.693-.064c-2.607-1.626-4.36-3.637-5.257-6.033-.812-2.225-.64-4.557.513-6.996Z"/></g><defs><radialGradient id="b" cx="0" cy="0" r="1" gradientTransform="rotate(90 0 150) scale(200)" gradientUnits="userSpaceOnUse"><stop stop-color="#FFE33F"/><stop offset="1" stop-color="#008086"/></radialGradient><clipPath id="a"><path fill="#fff" d="M0 0h300v300H0z"/></clipPath></defs></svg>