<svg xmlns="http://www.w3.org/2000/svg" fill="none" viewBox="0 0 300 300"><g clip-path="url(#a)"><path fill="#fff" d="M0 0h300v300H0z"/><g clip-path="url(#b)"><path fill="url(#c)" d="M-30-23h350v350H-30z"/><path fill="#0D131A" d="m210.958 115.964-.537-.372.702 1.486c.22.44.715.962 1.485 1.567l1.155 1.032-.041-1.155c-.055-.55-.976-1.403-2.764-2.558Zm24.342-12.501c.33-1.265.976-2.819 1.939-4.662l1.402-2.517c.33-.495.784-.66 1.362-.495.55.192.797.591.742 1.196l-.412 5.694c-.248 4.016-.303 6.739-.165 8.169.082.687.261 1.21.536 1.568l1.197.907 1.732 1.032c.798.55 1.389 1.141 1.775 1.774.99 1.567 1.65 3.988 1.98 7.261.33 3.026.261 5.281-.206 6.766-.165.523-.193.977-.083 1.362.083.357.33.77.743 1.237l.949.537.825.619.33 1.444c-.028.357-.22.742-.578 1.155l-.907 1.237c-.331.606-.496 1.156-.496 1.651l.248 1.691c.11.908.069 1.623-.124 2.146-.247.77-.756 1.169-1.526 1.196-.88-.082-1.486-.082-1.816 0-.66.193-1.169.44-1.526.743-.523.55-.867 1.279-1.032 2.186-.192.881-.165 1.596.083 2.146l.784.247.949.248 1.279.289c.495.247.784.66.866 1.237l-.619.867-1.155 1.403-1.526 1.609c-.661.742-.812 1.265-.454 1.567.247.193.715-.206 1.402-1.196.991-1.43 1.775-2.421 2.352-2.971 1.705-1.65 3.507-2.791 5.405-3.424 2.283-.88 3.424-1.224 3.424-1.031l-.619.825-.66.784c1.816-.881 4.346-1.926 7.592-3.136l1.939-.33c.99-.138 1.499-.138 1.526 0 .055.248-.316.66-1.114 1.238l-1.568 1.072-10.603 8.293c-1.1.88-2.186 2.159-3.259 3.837-.908 1.348-1.513 2.489-1.815 3.424-.193.633-.537 1.114-1.032 1.444l-1.485.867-.784.577.041.248c.193.825.165 1.912-.082 3.259l-.867.908-.948.784c6.463 10.589 10.658 21.096 12.583 31.52 2.915 15.623.289 29.458-7.88 41.505-10.369 15.265-22.87 24.837-37.503 28.715-6.243 1.65-13.395 2.448-21.454 2.393l-23.434-1.692c-13.312-1.512-25.689-6.532-37.131-15.059a83.658 83.658 0 0 1-10.026-8.829l-3.837-4.29.702-3.425 67.001-18.029 1.156 4.868 1.897-1.732a2.292 2.292 0 0 0 0-1.362c-.137-.385-.316-.674-.536-.866l9.407 4.662c6.271 3.08 12.734 3.603 19.391 1.567 8.031-2.447 14.88-8.416 20.546-17.905 3.74-6.271 5.281-13.588 4.621-21.949-.496-6.354-2.132-12.693-4.91-19.02-2.035.083-3.191.276-3.466.578-.797.908-1.554 1.458-2.269 1.65-1.513.468-3.424-.082-5.735-1.65l-.165-.124c-.742-.495-1.059-1.54-.949-3.135l-.123-1.238-.372-.908c-.22-.247-.563-.467-1.031-.66l-1.692-.701-1.691.165-2.022.866c-1.567.935-2.53 1.444-2.888 1.527-1.21.302-2.186-.537-2.929-2.517l-.908-3.507-.206-.619-.949-2.021c-.302-.77-.22-1.527.248-2.269.275-.468.564-1.609.866-3.425.303-1.815.44-3.218.413-4.208l-.042-1.691c0-.798.165-1.554.495-2.27.193-.412.564-1.004 1.114-1.774l1.362-2.186.412-1.609-.206-1.444c-.275-1.073-.385-2.008-.33-2.806l.124-2.021c.055-.798.206-1.499.454-2.105.11-.275.481-.948 1.114-2.021.44-.77.646-1.32.619-1.65-.055-.551-.537-2.105-1.444-4.662-.908-2.421-1.444-4.154-1.609-5.199a23 23 0 0 1-.248-3.507l.041-1.691c.028-.303.179-.564.454-.784l-3.672-3.218a1.045 1.045 0 0 1-.371-.702 1.001 1.001 0 0 1 .206-.825c.138-.22.358-.371.66-.454l.784.124c2.558 1.293 4.195 2.022 4.91 2.187l2.186-.041.991-.165c1.457-.22 3.039.522 4.744 2.227l.33.372-.536-4.456c-.083-1.183.344-3.039 1.279-5.57a73.206 73.206 0 0 1 2.64-5.858c.44-.88.798-2.613 1.073-5.199l.33-5.363c0-.605.289-.963.866-1.073.578-.137 1.004.055 1.279.578l.537 1.403c.357 1.1.536 2.145.536 3.135 0 .715.193 2.008.578 3.878l-.372-3.342a1.246 1.246 0 0 1 .207-.825c.192-.275.44-.44.742-.495.303-.027.592.041.867.207.247.165.399.398.454.7l.371 1.651c.33 1.21.687 2.228 1.073 3.053.357.798.522 1.733.495 2.806l-.33 2.764-.289 1.856c-.055.881.701 2.352 2.269 4.415l.99 1.32.454.784.124-1.733c.137-2.063.343-3.589.619-4.579Z"/><path fill="#EFE908" d="m233.319 126.402.743-.413c.192.083.192.509 0 1.279-.275 1.128-.399 2.476-.372 4.043.028 1.458.179 2.696.454 3.714a7.065 7.065 0 0 0 1.197 2.351c.467.66.715 1.293.742 1.898a19.052 19.052 0 0 1-.33 4.043c0 .275.097.468.289.578.165.11.426.014.784-.289.358-.44.674-1.045.949-1.815.137-.413.151-.908.041-1.486-.055-.715.055-1.347.33-1.897l.66-1.362c.248-.495.495-.701.743-.619l.124.702-.207 2.104.496.742.206 1.238c-.055.44-.44 1.485-1.155 3.136l-.949 2.764c-.303.935-.427 1.636-.372 2.104.138 1.293.399 1.939.784 1.939l.33-.536.33-1.114 1.321-2.517c.275-.467.797-1.086 1.567-1.856-.605 1.1-.907 2.241-.907 3.424 0 .523.137 1.128.412 1.815.193.44.743.757 1.651.949.88.138 1.347.399 1.402.784.055.44-.247.935-.907 1.485l-1.568 1.362c-.413.522-.633 1.059-.66 1.609-.055.632.165 1.114.66 1.444.55.385 1.348-.151 2.393-1.609l2.352-3.177c.88-.743 2.777-1.815 5.693-3.218l-2.64 2.269c-.386.33-.757.811-1.114 1.444l-.413.866 1.65-1.113a73.356 73.356 0 0 1 3.507-2.146c1.65-.88 4.373-2.021 8.169-3.424l-10.851 7.797c-1.292 1.018-2.544 2.27-3.754 3.755-1.128 1.43-1.843 2.599-2.145 3.507-.248.687-.825 1.402-1.733 2.145l-1.898 1.444c-.247.275-.316.674-.206 1.197l.041 2.062c-.11.468-.385.894-.825 1.279l-6.106-6.601-2.641-2.351-1.444-1.032 3.012 4.085-2.31.247-.537.701-1.691-3.094.165 1.403c.247 1.265.674 2.778 1.279 4.538l-1.774.165-1.073.33-.701-.041c-.798-.688-1.224-1.169-1.279-1.444-.028-.165.027-.33.165-.495l.289-.371c.33-.633.44-1.513.33-2.641-.11-1.127-.399-1.98-.867-2.558-.44-.577-1.251-1.224-2.434-1.939-1.265-.742-2.269-1.114-3.012-1.114-.275 0-.715.151-1.32.454l-1.444.66c-.523.138-.963-.096-1.32-.701-.605-1.155-1.073-2.462-1.403-3.92-.33-1.54-.316-2.489.041-2.846.413-.413 1.623-1.073 3.631-1.981l2.104-1.196c.605-.413.977-.839 1.114-1.279.33-.908-.027-2.008-1.073-3.301-1.375-1.678-1.677-3.287-.907-4.827.33-.715 1.127-1.306 2.393-1.774.77-.302 1.567-.894 2.393-1.774l1.279-2.352 1.072-3.259c.275-.99.537-1.485.784-1.485.165 0 .275.385.33 1.155.055 1.018 0 2.022-.165 3.012l-.33 1.98c-.055.385-.027.633.083.743a.732.732 0 0 0 .701.206c.77-.192 1.403-.619 1.898-1.279.577-.825 1.004-2.09 1.279-3.796a9.411 9.411 0 0 1 1.444-3.671l1.031-1.238Z"/><path fill="#E50020" d="M236.372 103.751c.33-1.21.977-2.709 1.939-4.497l1.321-2.351-.413 5.693c-.275 4.071-.33 6.863-.165 8.375.137 1.348.743 2.38 1.815 3.095 1.458.962 2.434 1.829 2.929 2.599.936 1.485 1.651 3.754 2.146 6.807.495 2.971.55 5.089.165 6.354-.303.99-.124 1.953.536 2.888l1.527 2.063c.247.522.289.907.124 1.155a6.428 6.428 0 0 0-.867 1.32c-.247.523-.371 1.183-.371 1.981 0 .962-.138 1.815-.413 2.558-.275.852-.894 1.43-1.856 1.732-1.238.385-2.049.77-2.435 1.156l-.66.866c-.88.935-1.636 2.132-2.269 3.589l-.495 1.568-.371.743c-.165.055-.33-.097-.495-.454l-.413-1.485c-.082-.578-.014-1.266.206-2.063l.784-2.352.867-2.145.495-1.651-.041-.99-.33-.454c-.221-.33-.331-.66-.331-.99l.207-1.526c.082-.44.069-.674-.042-.702-.247-.055-.591.427-1.031 1.444-.413.881-.578 1.596-.495 2.146v1.444c-.605 1.705-1.224 2.503-1.857 2.393-.467-.083-.577-.605-.33-1.568l.207-2.888c0-.77-.193-1.43-.578-1.98-.605-.798-.99-1.486-1.155-2.063-.605-2.118-.853-4.14-.743-6.065.028-.633.193-1.444.495-2.434.385-1.293 0-1.252-1.155.123a9.577 9.577 0 0 0-1.733 3.714c-.495 2.31-1.059 3.85-1.691 4.62-.193.22-.495.44-.908.661-.467.247-.853.357-1.155.33l-.495-.33-.124-.454.578-4.332c.082-1.238 0-1.857-.248-1.857-.137 0-.289.261-.454.784l-.577 1.857c-.66 2.09-1.211 3.396-1.651 3.919l-1.567 1.444-1.568.949c-.495.192-.867.385-1.114.578-.33.275-.605.687-.825 1.237-.413.935-.454 1.857-.124 2.764l1.155 1.898.949 1.609c.193.495.206 1.018.041 1.568-.11.303-.495.715-1.155 1.238l-2.764 1.568c-1.265.467-2.242 1.031-2.929 1.691-.688.715-.262 2.902 1.279 6.56.275.55.66.756 1.155.619l1.32-.619c.688-.33 1.279-.495 1.774-.495.55 0 1.485.413 2.806 1.238 1.237.742 2.049 1.334 2.434 1.774.385.412.66 1.196.825 2.351.165 1.073.165 1.884 0 2.435l-.578 1.031c-.165.275-.137.509.083.701l.825.784c.275.248.564.344.866.289l1.114-.371 1.609-.165.908 2.434-.413-.083c-.632-.137-1.43.303-2.392 1.321l-2.146 1.939c-.853.22-2.503-.482-4.951-2.104-.44-.303-.646-.702-.619-1.197.055-.798 0-1.416-.165-1.856-.247-.716-.742-1.266-1.485-1.651-.963-.357-1.733-.701-2.31-1.031l-3.136.165-2.97 1.196c-.688.165-1.417-.302-2.187-1.402-.578-.853-1.059-1.843-1.444-2.971l-.619-2.187c-.11-.687.041-1.361.454-2.021.385-.633.605-2.159.66-4.58l-.082-5.116c0-.907.316-1.815.949-2.723l1.897-3.011a4.89 4.89 0 0 0 .413-3.177c-.303-1.568-.44-2.599-.413-3.094.055-.743.482-2.118 1.279-4.126.743-1.843 1.073-3.136.99-3.878-.055-.743-.536-2.352-1.444-4.827-.935-2.613-1.471-4.305-1.609-5.075-.165-1.018-.233-2.145-.206-3.383l.041-1.568.207.784c.22.66.536 1.348.949 2.063.33.605.894 1.238 1.691 1.898.88.715 1.513 1.361 1.898 1.939.385.577.646 1.279.784 2.104.385-2.311.509-4.03.371-5.157-.082-.743-.632-1.513-1.65-2.311l-2.558-1.691c-.55-.385-1.595-1.265-3.136-2.641l-2.186-1.939 2.021.99c1.458.715 2.503 1.156 3.136 1.321l1.857.123 1.732-.33c1.128-.165 2.407.468 3.837 1.898.275.275.482.839.619 1.692a6.19 6.19 0 0 0 1.073 2.516c1.017 1.376 1.595 2.448 1.733 3.218-1.018-6.601-1.596-10.726-1.733-12.377-.083-1.1.371-2.888 1.361-5.363.66-1.733 1.486-3.562 2.476-5.487.55-1.1.962-3.26 1.237-6.478l.248-4.538.495 1.196c.33.99.495 1.926.495 2.806 0 .743.165 1.98.495 3.713l.619 3.878c.138 1.513.261 2.146.371 1.898.385-.495.771-1.32 1.156-2.475.385-1.128.316-3.342-.207-6.643l.413 1.692 1.114 3.26c.385.852.495 1.966.33 3.34l-.495 3.508c-.083.935.316 2.076 1.196 3.424l2.228 3.053a7.677 7.677 0 0 1 1.32 3.796c.523-.88.908-1.898 1.156-3.053l.247-2.888c.055-1.43.22-2.682.495-3.755Z"/><path fill="#DDD583" d="M127.453 257.806a91.662 91.662 0 0 1-10.025-8.416l-3.507-3.714 32.098-8.622a60.79 60.79 0 0 0 11.552 15.306c7.344 7.041 15.76 11.497 25.249 13.367 18.016 3.521 35.124-.412 51.324-11.799 3.383-2.393 6.546-5.364 9.489-8.912-10.149 14.55-22.292 23.599-36.43 27.148-5.968 1.512-12.817 2.214-20.546 2.104l-22.237-1.692c-13.01-1.485-25.332-6.408-36.967-14.77Z"/><path fill="#D18200" d="m149.402 236.228 14.564-3.96c3.74 6.793 9.461 12.253 17.163 16.379 7.894 4.208 16.599 6.312 26.116 6.312 8.279 0 16.007-1.623 23.186-4.868 6.959-3.163 12.57-7.468 16.833-12.914-3.548 6.436-8.21 11.607-13.986 15.513-15.925 10.754-32.662 14.412-50.21 10.974-9.049-1.788-16.833-6.023-23.352-12.707-3.63-3.741-7.068-8.65-10.314-14.729Z"/><path fill="#F29600" d="m230.72 165.101-.578-3.259 1.692 1.485 1.485 2.104 4.992 6.725c4.319 6.161 7.894 13.367 10.727 21.619 2.723 7.921 4.085 14.784 4.085 20.587 0 8.087-1.953 15.692-5.859 22.815-4.263 5.446-9.874 9.751-16.833 12.914-7.179 3.245-14.907 4.868-23.186 4.868-9.517 0-18.222-2.104-26.116-6.312-7.702-4.126-13.422-9.586-17.163-16.379l16.957-4.58.907.867c1.54 1.045 4.621 2.695 9.242 4.951 6.683 3.273 13.697 3.809 21.041 1.609 8.857-2.641 16.31-9.008 22.361-19.103 3.906-6.518 5.391-14.247 4.456-23.186-.687-6.436-2.544-13.134-5.57-20.092-1.512-3.466-2.805-6.106-3.878-7.922l-.412-1.939 1.65 2.228Z"/><path fill="#D18200" d="M157.158 248.111c-2.64-3.164-5.225-7.124-7.756-11.883l31.479-8.499.124.207c.248.275.839.687 1.774 1.237.55 2.421.825 4.869.825 7.344 0 4.649-.921 9.077-2.764 13.285a32.88 32.88 0 0 1-7.55 10.727c-6.134-2.778-11.511-6.917-16.132-12.418Z"/><path fill="#DDD583" d="M121.966 253.557a34.762 34.762 0 0 1-3.713-9.036l27.766-7.467c2.228 4.263 5.033 8.265 8.416 12.006 5.034 5.666 10.755 9.998 17.163 12.996a33.423 33.423 0 0 1-9.571 5.528 32.796 32.796 0 0 1-11.263 2.063c-10.287-3.273-19.886-8.637-28.798-16.09Z"/><path fill="#0D131A" d="M83.556 41.288 71.55 54.573c-.495.688-.743 2.627-.743 5.817 0 3.576.358 7.303 1.073 11.181.44 2.53 1.43 5.79 2.97 9.778 1.568 4.126 2.916 6.876 4.044 8.251L85 96.49l5.652 6.395c.852 1.238 1.458 3.287 1.815 6.148.77 5.033 1.403 8.279 1.898 9.736a36.825 36.825 0 0 0 2.558 5.735c.743 1.32 1.856 3.094 3.342 5.322 2.008 2.943 4.332 5.762 6.972 8.458l1.816-.743 2.186-.123c.743.247 1.265.935 1.568 2.062l.536 2.806 2.6 1.733c.522.357.852.88.99 1.567a2.32 2.32 0 0 1-.454 1.733l-6.024 7.798-3.795 9.613c-.303.797-.881 1.265-1.733 1.403-.385.082-.949-.056-1.692-.413l-1.485-.99c-2.915-3.521-5.913-6.711-8.994-9.572-4.62-4.263-8.306-6.656-11.057-7.179-2.008-.385-4.07-.22-6.189.495-.632.248-2.282 1.032-4.95 2.352-1.65.825-2.847 1.334-3.59 1.527-1.237.33-2.338.247-3.3-.248-.798-.413-1.252-1.114-1.362-2.104l.083-1.898.206-.908c.247-1.595-.138-3.341-1.155-5.239-.66-1.155-1.94-2.324-3.837-3.507-2.806-1.788-5.955-2.682-9.448-2.682-8.059 0-16.558 3.356-25.497 10.067-5.088 3.796-9.49 7.935-13.202 12.418-.138 1.156-.138 2.572 0 4.25l.247 2.682c0 1.375-.33 2.585-.99 3.63-.688 1.073-1.513 1.609-2.475 1.609-.908 0-1.72-.344-2.435-1.031-.907-.853-1.43-2.091-1.567-3.713l-.042-.248c-.577-6.546-.948-11.717-1.113-15.513-.11-2.558-.11-4.098 0-4.62.495-3.383 1.595-8.733 3.3-16.049 1.595-6.877 3.04-12.57 4.332-17.081 1.128-3.961 2.943-9.338 5.446-16.131 2.338-6.354 3.865-10.163 4.58-11.429.935-1.678 4.675-6.326 11.221-13.945 6.464-7.508 10.507-11.923 12.13-13.243 1.348-1.1 3.493-2.31 6.436-3.63l2.64-1.197c1.128-.523 1.816-.88 2.064-1.073L63.463 43.6l10.562-8.045c2.063-1.486 4.03-2.38 5.9-2.682 1.953-.303 3.41.096 4.373 1.196.715.825 1.045 1.898.99 3.218-.082 1.486-.66 2.82-1.732 4.002Z"/><path fill="#008086" d="M41.803 75.326c6.024-5.116 9.544-7.894 10.562-8.334 1.375-.193 3.3.027 5.776.66 2.503.66 3.988 1.361 4.456 2.104.303.578 2.05 5.886 5.24 15.925l2.269 6.766c.577 1.513 4.607 5.529 12.088 12.047.963.853 2.2 3.865 3.713 9.036l.99 3.3 1.94 7.468 2.64 10.851c.578 2.227 1.1 3.493 1.568 3.795 1.843 1.265 3.933 3.232 6.27 5.9.44.523 1.376 2.53 2.806 6.024l3.878 9.778-1.444 3.259c-2.255-2.503-4.868-5.089-7.838-7.757-5.941-5.308-10.7-8.292-14.275-8.952-3.41-.633-7.152-.028-11.222 1.815l-3.796 1.774c-1.183.468-2.063.55-2.64.248-.303-.165-.51-.729-.62-1.692l-.082-1.361c.193-.441.289-1.046.289-1.816 0-1.513-.454-3.108-1.361-4.786-.77-1.457-2.31-2.819-4.621-4.084-3.026-1.678-6.478-2.517-10.356-2.517-7.811 0-15.87 2.819-24.177 8.458-5.143 3.493-9.929 7.701-14.357 12.625.303-11.112.633-17.342.99-18.69 1.183-4.813 3.713-12.721 7.591-23.723C23.252 98.842 27.39 89.573 30.5 85.64c1.32-1.65 5.088-5.088 11.304-10.314Z"/><path fill="#F29600" d="M81.41 40.215C74.48 47.586 70.34 52.111 68.992 53.79c-.88 1.127-1.17 3.795-.867 8.004.193 2.805.633 6.065 1.32 9.778.44 2.503 1.555 5.886 3.343 10.149 1.815 4.29 3.383 7.247 4.703 8.87l11.304 13.203c.77 1.017 1.444 3.273 2.022 6.766.715 4.29 1.265 6.986 1.65 8.086.715 2.09 1.444 3.947 2.187 5.57l2.764 5.363c1.018 1.898 2.723 4.291 5.116 7.179 2.228 2.668 3.562 4.084 4.002 4.25l1.485-.454c.715-.358 1.279-.468 1.692-.33.77.247 1.279 1.389 1.526 3.424l3.425 2.269-6.189 8.087-.866 2.145c-3.329-7.509-5.474-11.8-6.437-12.872-2.943-3.383-5.363-5.708-7.26-6.973-.523-.605-1.857-5.116-4.003-13.532l-1.98-7.591-.99-3.26-1.527-4.827c-.605-1.458-1.306-2.544-2.104-3.259l-6.354-6.189c-3.08-3.163-4.758-5.116-5.033-5.858l-2.27-6.684c-3.63-10.892-5.61-16.585-5.94-17.08-.715-1.183-2.572-2.146-5.57-2.888-2.723-.66-4.91-.867-6.56-.62-1.017.166-4.854 3.164-11.51 8.995-6.437 5.61-10.246 9.173-11.429 10.685-3.383 4.291-7.674 14.22-12.872 29.788-2.613 7.784-4.896 15.224-6.849 22.32-.44 1.816-.811 9.008-1.114 21.578l-.37 7.302c0 .633-.125 1.183-.372 1.651-.248.44-.523.66-.825.66-.385 0-.66-.11-.825-.33-.303-.331-.496-.963-.578-1.898l-.536-8.417-.454-8.045c.027-2.915.825-8.128 2.393-15.636 1.375-6.712 2.709-12.212 4.002-16.503 1.925-6.436 4.235-13.326 6.93-20.67 2.256-6.051 3.686-9.627 4.292-10.727.852-1.54 4.36-5.955 10.52-13.243 6.189-7.344 10.04-11.621 11.552-12.832 1.265-1.017 3.768-2.365 7.509-4.043a102.16 102.16 0 0 1 5.24-2.228L74.56 37.864c1.513-1.266 3.026-2.132 4.539-2.6 1.568-.467 2.599-.357 3.094.33.99 1.43.729 2.97-.784 4.621Z"/><path fill="#00666C" d="M61.69 79.699c-.633-.303-1.569-.591-2.806-.867l-3.053-.453c-1.926 1.32-5.419 4.14-10.48 8.457-5.335 4.539-8.526 7.468-9.571 8.788-2.888 3.658-6.89 12.652-12.006 26.982-3.906 10.837-6.477 18.662-7.715 23.476l-.248 3.465A97.435 97.435 0 0 0 9.5 155.86c.303-11.112.633-17.342.99-18.69 1.183-4.813 3.713-12.721 7.591-23.723C23.252 98.842 27.39 89.573 30.5 85.64c1.32-1.65 5.088-5.088 11.304-10.314 6.024-5.116 9.544-7.894 10.562-8.334 1.375-.193 3.3.027 5.776.66 2.503.66 3.988 1.361 4.456 2.104.303.578 2.05 5.886 5.24 15.925l2.269 6.766c.577 1.513 4.607 5.529 12.088 12.047.963.853 2.2 3.865 3.713 9.036l.99 3.3 1.94 7.468 2.64 10.851c.578 2.227 1.1 3.493 1.568 3.795 1.843 1.265 3.933 3.232 6.27 5.9.44.523 1.376 2.53 2.806 6.024l3.878 9.778-1.444 3.259-3.589-3.713c-1.21-3.026-1.994-4.8-2.351-5.323-2.146-2.475-3.947-4.18-5.405-5.115-.963-.661-1.706-1.692-2.228-3.095-.385-.99-1.004-3.273-1.857-6.848l-1.691-6.973-1.898-7.22-1.032-3.465c-.66-2.256-1.306-5.02-1.939-8.293l-.742-4.208-11.511-9.902c-1.953-1.788-3.218-3.534-3.796-5.24L61.69 79.7Z"/><path fill="#0D131A" d="M293.885 113.653c.935 2.393 2.104 8.183 3.507 17.37 1.347 8.801 2.021 14.618 2.021 17.451v.908l-.124 18.029c-.357 3.384-1.787 5.048-4.29 4.993-1.101-.028-1.884-.537-2.352-1.527-.44-.935-.66-2.475-.66-4.621 0-1.347-.138-2.585-.413-3.713a478.329 478.329 0 0 0-17.41-16.296c-8.252-7.317-13.78-11.58-16.586-12.79-3.383-1.458-7.577-2.091-12.583-1.898-4.098.193-7.014.715-8.747 1.568-.797.385-2.75 2.42-5.858 6.106l-3.589 3.919c-.826.798-1.596 1.238-2.311 1.32l-1.568-.206-2.434-1.031c-4.181-1.816-7.234-2.985-9.159-3.507-4.483-1.183-8.279-1.142-11.387.124-4.401 1.787-9.31 4.538-14.729 8.251-4.125 2.833-6.89 4.951-8.292 6.354-.468.522-1.884 3.094-4.25 7.715l-7.096 13.986c-.358.66-1.155 1.018-2.393 1.073-.88 0-1.568-.372-2.063-1.114l-18.689-31.438c-.44-.715-.468-1.444-.083-2.187.413-.77 1.032-1.183 1.857-1.238l7.962-.206c1.155-3.383 2.146-5.391 2.971-6.023.467-.33 1.361-.606 2.682-.826l3.836.083 6.602-4.373 10.025-7.262c5.474-4.18 10.149-8.705 14.028-13.573.687-1.623 1.801-5.267 3.341-10.933a435.929 435.929 0 0 0 4.58-18.566c1.32-5.914 2.42-11.84 3.3-17.782.798-5.418 1.156-8.884 1.073-10.397-.055-.825-.866-2.461-2.434-4.91-1.705-2.695-4.002-5.858-6.89-9.488-1.155-1.43-1.912-2.944-2.269-4.539-.44-1.925-.165-3.603.825-5.033.743-1.073 1.664-1.705 2.764-1.898 1.21-.192 2.544.055 4.002.743a13.417 13.417 0 0 1 3.425 2.31l6.724 6.477 6.437 6.23c.22.193 1.182.454 2.888.784l3.383.701c.797.248 4.002 1.816 9.613 4.704l9.159 4.538a44.557 44.557 0 0 0 8.251 1.774l3.301.454c1.265.22 2.063.495 2.393.825 1.925 1.816 5.776 7.715 11.552 17.7l12.047 21.247c2.475 4.263 5.528 8.678 9.159 13.243l4.951 6.395Z"/><path fill="#F29600" d="m284.148 105.649 3.878 5.24 3.177 4.827c.908 2.283 2.118 7.688 3.631 16.214 1.512 8.444 2.269 13.959 2.269 16.544v9.036l-.124 9.159c-.11.962-.289 1.664-.536 2.104-.33.577-.812.852-1.444.825-.413-.028-.715-.578-.908-1.65a13.608 13.608 0 0 1-.206-2.476l-.083-3.672-2.805-30.406v-.165c-2.723-10.067-8.403-22.678-17.04-37.833-7.838-13.725-14.096-22.912-18.772-27.56-1.292-1.32-7.082-3.7-17.369-7.137-9.516-3.218-14.577-4.827-15.182-4.827-1.706-.138-3.439.233-5.199 1.114-1.76.907-3.108 2.117-4.043 3.63-.935 1.485-3.438 9.957-7.509 25.415-1.21 4.703-2.517 11.675-3.919 20.917-.798 5.226-1.321 8.086-1.568 8.581-.44.826-3.878 3.549-10.314 8.169l-4.704 3.466c-.935.77-1.925 1.994-2.97 3.672-.55.853-1.334 2.241-2.352 4.167l-.908 1.691c-.137.165-.866.399-2.186.702-2.586.632-4.676 1.224-6.271 1.774-2.091.715-4.827 4.098-8.21 10.149-2.256 4.043-4.621 8.939-7.097 14.688l-11.015-18.484 9.53-.742.949-2.682c.715-1.843 1.32-2.943 1.815-3.301.688-.467 1.843-.687 3.466-.66l2.187.165 7.797-5.281 9.531-6.518c1.127-.853 3.809-3.328 8.045-7.426 4.208-4.099 6.422-6.382 6.642-6.849 1.403-3.026 4.002-12.845 7.798-29.458 3.905-17.163 5.707-27.27 5.404-30.324-.11-1.073-1.65-3.685-4.62-7.839l-5.611-7.343a8.452 8.452 0 0 1-1.651-3.425c-.357-1.375-.302-2.475.165-3.3.468-.798 1.403-.922 2.806-.372 1.238.468 2.503 1.293 3.796 2.476l6.683 6.807 6.148 6.23 3.506.578 4.827 1.031c1.128.385 6.987 3.122 17.576 8.21l7.179 2.022c3.658.935 5.638 1.54 5.941 1.815 2.613 2.503 8.224 11.098 16.833 25.786l13.037 22.526Z"/><path fill="#008086" d="m289.594 131.724 2.558 28.467c-5.721-5.391-11.208-10.369-16.462-14.935-8.499-7.371-14.275-11.717-17.328-13.037-3.713-1.595-8.196-2.214-13.45-1.857-4.18.276-7.316.936-9.406 1.981-.908.44-2.833 2.283-5.776 5.528-2.723 2.971-4.607 4.552-5.652 4.745-.633.137-1.871-.165-3.714-.908l-5.734-2.31c-5.776-2.036-10.796-2.187-15.059-.454-4.731 1.953-9.888 4.607-15.472 7.963-4.703 2.833-7.646 4.813-8.829 5.941-.715.715-2.956 4.607-6.725 11.675l-5.446 10.397-5.652-9.076c4.016-9.985 6.244-15.472 6.684-16.462 2.64-5.886 4.772-9.104 6.395-9.654 1.155-.413 3.438-.977 6.848-1.692l2.063-.536 1.238-.908 1.073-1.939 1.898-4.373c.907-1.953 1.732-3.246 2.475-3.878l2.104-1.32 2.971-1.857 7.385-5.446c2.007-1.568 3.176-2.695 3.506-3.383l.743-2.929.99-6.23 1.403-9.82c.633-4.18 1.307-7.632 2.022-10.355l4.414-16.833c1.32-4.896 2.132-7.591 2.434-8.086.743-1.155 2.036-2.077 3.879-2.764 1.677-.66 3.245-.922 4.703-.784 1.375.22 6.381 1.815 15.017 4.785 9.435 3.218 14.674 5.35 15.719 6.395 4.786 4.814 11.085 13.78 18.896 26.9 8.884 14.908 14.647 27.257 17.287 37.049Z"/><path fill="#00666C" d="m285.427 153.962-1.114-12.336c-2.585-9.489-8.21-21.495-16.874-36.018-7.591-12.68-13.643-21.316-18.153-25.91-1.348-.934-6.079-2.791-14.193-5.569-7.261-2.476-12.088-4.016-14.481-4.62-.825-.028-1.733.15-2.723.535-.99.358-1.664.743-2.022 1.156-.412 1.1-2.117 7.371-5.116 18.813l-1.32 5.157c-.88 3.328-1.774 8.32-2.681 14.976l-.661 4.786-1.196 7.055c-.275 1.486-.591 2.558-.949 3.218-.495 1.018-1.595 2.242-3.301 3.672l-8.746 6.601-3.507 2.187-1.361.825c-9.847 8.857-15.376 13.491-16.586 13.904-1.54 1.265-4.607 7.77-9.2 19.514v.042l-3.796-6.106c4.016-9.985 6.244-15.472 6.684-16.462 2.64-5.886 4.772-9.104 6.395-9.654 1.155-.413 3.438-.977 6.848-1.692l2.063-.536 1.238-.908 1.073-1.939 1.898-4.373c.907-1.953 1.732-3.246 2.475-3.878l2.104-1.32 2.971-1.857 7.385-5.446c2.007-1.568 3.176-2.695 3.506-3.383l.743-2.929.99-6.23 1.403-9.82c.633-4.18 1.307-7.632 2.022-10.355l4.414-16.833c1.32-4.896 2.132-7.591 2.434-8.086.743-1.155 2.036-2.077 3.879-2.764 1.677-.66 3.245-.922 4.703-.784 1.375.22 6.381 1.815 15.017 4.785 9.435 3.218 14.674 5.35 15.719 6.395 4.786 4.814 11.085 13.78 18.896 26.9 8.884 14.908 14.647 27.257 17.287 37.049l2.558 28.467-6.725-6.229Z"/><path fill="#0D131A" d="m33.923 162.419-.825-.165-1.444-1.031c-.963-1.1-1.375-2.462-1.238-4.084.083-1.101 1.087-2.902 3.012-5.405 1.595-2.091 2.792-3.466 3.59-4.126l.33-.289-1.65-4.497-.248-.495c-.385-.797-.605-1.499-.66-2.104-.055-.77.096-1.636.453-2.599.66-1.623 1.788-2.764 3.384-3.424 1.1-.441 2.667-.633 4.703-.578l3.177.371c.935.385 2.461 2.077 4.58 5.075l.7.289.908.247 3.053-1.444c1.403-1.045 2.434-1.691 3.095-1.939.88-.33 1.87-.344 2.97-.041 1.513.385 2.806 1.829 3.878 4.332.935 2.228 1.266 3.988.99 5.281-.11.577-.48 1.526-1.114 2.847l-1.856 3.63-.454.825.124.949c5.528 4.979 9.131 7.248 10.81 6.808l3.217-.784a42.978 42.978 0 0 0 6.189-2.063c3.218-1.348 5.968-2.696 8.251-4.043.66-1.733 1.21-2.93 1.65-3.59 1.128-1.595 2.779-2.86 4.951-3.795 1.843-.798 4.841-1.238 8.995-1.321 2.447-.055 4.62-.013 6.518.124l3.053.289-10.562 22.691-1.567-.288-7.138-2.311-4.703 2.352-6.601 3.177-2.806 1.485-2.393 1.444c-2.613 1.375-4.676 2.132-6.188 2.269-3.466.248-7.66-1.1-12.584-4.043-3.053-1.843-6.188-4.153-9.406-6.931-1.018.577-1.94.88-2.765.907-1.155.055-2.42-.316-3.795-1.114-.798-.44-1.678-1.292-2.64-2.557l-1.857-2.765-.99 2.022-.702.743-6.395-.331Z"/><path fill="#F29600" d="M34.006 160.274c-.33 0-.647-.124-.95-.371-.632-.496-.907-1.321-.824-2.476.055-.825.357-1.678.907-2.558l2.104-2.682 2.64-2.516 1.651-1.486c.303-.467-.33-2.53-1.898-6.188-.715-1.65-1.072-2.751-1.072-3.301-.028-1.292.866-2.31 2.681-3.053l3.796-.206 2.764.454 1.733 1.98 1.815 2.434c.55.77 1.527 1.211 2.93 1.321l3.92-1.898c.934-.715 1.746-1.142 2.433-1.279l2.31.206c.853.22 1.678 1.293 2.476 3.218.743 1.815 1.032 3.122.867 3.92-.11.605-.564 1.705-1.362 3.3l-1.568 3.094c-.385.771-.33 1.788.165 3.053l5.24 4.167c3.878 2.696 6.794 3.782 8.746 3.26l3.837-1.32 5.776-2.228 8.5-3.59c.137-.742.508-1.595 1.113-2.558 1.238-1.925 3.108-3.424 5.611-4.497 1.678-.715 4.429-1.086 8.252-1.114l5.198.165-8.581 18.484-6.065-3.177c-5.666 2.943-10.177 5.102-13.532 6.477-1.21.523-3.287 1.54-6.23 3.053-1.926 1.018-3.342 1.554-4.25 1.609-3.135.248-7.082-1.072-11.84-3.96-2.916-1.788-5.887-3.989-8.912-6.602-.11-.082.027-.467.412-1.155l.62-1.031-2.187 1.526c-.386.44-.936.77-1.65.99-1.403.468-2.944.234-4.621-.701-1.43-.825-2.627-2.008-3.59-3.548l-.99-2.063-2.93 3.136-5.445-.289Z"/><path fill="#0D131A" d="m60.864 146.535-3.342 2.022c-1.87.908-3.163 1.375-3.878 1.403-.44 0-.811-.124-1.114-.372-.522-.55-.591-1.952-.206-4.208.358-2.09.784-3.548 1.279-4.373a5.748 5.748 0 0 1 2.682-2.228l3.176-.124c.963.358 1.665 1.018 2.105 1.981.385.825.495 1.719.33 2.681l-.083.578c-.165 1.238-.481 2.118-.949 2.64Z"/><path fill="#0D131A" d="m59.338 138.985-2.93.165a5.353 5.353 0 0 0-2.475 2.063c-.468.743-.88 2.132-1.238 4.167-.357 2.173-.316 3.479.124 3.919.192.193.454.289.784.289.66-.027 1.911-.481 3.754-1.361 1.788-.88 2.86-1.527 3.218-1.939.44-.496.73-1.307.867-2.435l.082-.577c.138-.908.041-1.747-.288-2.517a3.259 3.259 0 0 0-1.898-1.774Zm-6.065 1.815a5.904 5.904 0 0 1 2.888-2.351l3.424-.165a4.165 4.165 0 0 1 2.104 1.774c.44.742.66 1.568.66 2.475l-.165 1.444c-.165 1.293-.508 2.228-1.031 2.806-.413.495-1.568 1.196-3.466 2.104-1.953.935-3.3 1.416-4.043 1.444-.55.027-1.004-.138-1.361-.495-.633-.633-.743-2.146-.33-4.539.357-2.117.797-3.616 1.32-4.497Z"/><path fill="#fff" d="M58.76 144.39c-.495.605-2.338 2.063-5.528 4.373-.248-.247-.262-1.306-.042-3.177.248-1.898.578-3.232.99-4.002a4.53 4.53 0 0 1 1.98-1.815c.881-.44 1.692-.523 2.435-.248.798.276 1.348.826 1.65 1.651-.082.77-.261 1.416-.536 1.939l-.949 1.279Z"/><path fill="#DBDCDC" d="M59.75 145.586c-.302.385-1.389 1.059-3.26 2.022-1.952.99-3.038 1.375-3.258 1.155 3.19-2.31 5.033-3.768 5.528-4.373l.949-1.279c.275-.523.454-1.169.536-1.939.193.522.262 1.086.207 1.691l-.207 1.568-.495 1.155Z"/><path fill="#0D131A" d="M33.387 156.973c.55-.467 1.334-.798 2.352-.99 1.072-.193 2.007.027 2.805.66.55.44.935.99 1.155 1.65l2.146 3.383c.302.33.852.633 1.65.908l1.279.371-.578 1.197c-.605 1.238-2.365 1.774-5.28 1.609l-3.342-.454c-1.156-.358-2.077-1.045-2.765-2.063a5.276 5.276 0 0 1-.866-2.351c-.11-.853-.014-1.596.289-2.228l.123-.207c.276-.632.62-1.127 1.032-1.485Z"/><path fill="#0D131A" d="M33.51 157.139c-.357.302-.687.756-.99 1.361l-.123.248c-.275.605-.372 1.32-.29 2.145.11.853.386 1.609.826 2.269.688.963 1.582 1.609 2.682 1.939l3.3.454c2.86.165 4.552-.33 5.075-1.485l.536-.99-1.072-.33c-.88-.303-1.472-.619-1.774-.949-.386-.44-1.087-1.54-2.105-3.301l-.04-.041-.125-.206a3.366 3.366 0 0 0-1.113-1.568c-.716-.55-1.568-.729-2.558-.536-.963.192-1.706.522-2.228.99Zm-.866 6.23a5.34 5.34 0 0 1-.949-3.053c0-.661.124-1.238.372-1.733l.123-.207c.33-.687.688-1.196 1.073-1.526.578-.523 1.39-.88 2.434-1.073 1.045-.192 1.953 0 2.723.578.578.412 1.018.976 1.32 1.691l2.228 3.507c.275.33.812.605 1.61.825l1.237.413.124.083.041.082-.619 1.279c-.632 1.293-2.448 1.857-5.446 1.692l-3.383-.454c-1.21-.385-2.173-1.087-2.888-2.104Z"/><path fill="#fff" d="m33.304 159.16.66-1.032c.413-.385 1.032-.646 1.857-.783.853-.165 1.527.055 2.022.66.275.275.453.577.536.907l.908 1.527 1.402 2.063c.44.495 1.156.894 2.146 1.196-4.951.715-8.128-.797-9.53-4.538Z"/><path fill="#DBDCDC" d="M33.676 162.667a3.965 3.965 0 0 1-.66-1.774c-.055-.605.013-1.114.206-1.527l.082-.206c1.403 3.741 4.58 5.254 9.53 4.538-.082.193-.33.372-.742.537l-3.342.371-2.888-.33a3.998 3.998 0 0 1-2.186-1.609Z"/><path fill="#0D131A" d="M42.876 138.573c.853.962 1.21 2.076 1.073 3.342-.083 1.127-.427 1.925-1.032 2.392l-1.774 1.651-1.774 1.98c-.33.523-.522 1.389-.577 2.599l-.29 1.073-1.196-.041c-.715-.22-1.402-.647-2.063-1.279-1.32-1.293-1.98-3.039-1.98-5.24 0-2.09.894-4.346 2.682-6.766.22-.303.674-.591 1.361-.866a6.422 6.422 0 0 1 1.774-.372c1.54-.082 2.806.427 3.796 1.527Z"/><path fill="#0D131A" d="M35.615 138.078c.275-.385.797-.715 1.568-.99l1.856-.413c1.705-.082 3.08.468 4.126 1.65.88 1.018 1.279 2.228 1.196 3.631-.137 1.21-.536 2.104-1.196 2.682l-1.733 1.567c-.935.936-1.513 1.582-1.733 1.94-.302.44-.481 1.265-.536 2.475l-.289 1.073-.124.206-1.444.041h-.082c-.688-.137-1.43-.605-2.228-1.403-1.403-1.347-2.104-3.176-2.104-5.487 0-2.118.907-4.442 2.723-6.972Zm5.28 7.632 1.775-1.691c.522-.385.825-1.1.907-2.146l.042-.33c0-.99-.344-1.897-1.032-2.723-.852-.962-2.021-1.43-3.507-1.402l-1.609.371-1.237.743c-1.733 2.365-2.6 4.538-2.6 6.518 0 2.036.592 3.658 1.774 4.869.633.66 1.293 1.086 1.98 1.279l.826.041.206-.743c0-1.182.207-2.104.62-2.764.247-.385.866-1.059 1.856-2.022Z"/><path fill="#fff" d="m41.226 142.863-2.517 2.269c-1.1 1.403-1.361 3.067-.784 4.992v.207c-.522-.165-1.059-.509-1.609-1.032-1.073-1.072-1.609-2.544-1.609-4.414 0-1.1.289-2.311.867-3.631.44-.99.935-1.843 1.485-2.558.357-.44 1.128-.66 2.31-.66 1.32.028 2.297.413 2.93 1.155l.412.537c-.275 1.375-.77 2.42-1.485 3.135Z"/><path fill="#DBDCDC" d="M42.505 143.276c-1.98 1.485-3.26 2.654-3.837 3.507-.385.632-.633 1.746-.743 3.341-.577-1.925-.316-3.589.784-4.992l2.517-2.269c.715-.715 1.21-1.76 1.485-3.135.385.687.509 1.43.371 2.227-.11.661-.302 1.101-.577 1.321Z"/><path fill="#D18200" d="M42.381 152.683c0-1.871.701-3.562 2.104-5.075 1.43-1.513 3.053-2.297 4.868-2.352-2.062 2.696-2.888 4.965-2.475 6.808.275 1.237 1.389 2.283 3.342 3.135 1.623.715 3.218 1.101 4.786 1.156l-1.816 2.062c-.715.605-1.554.908-2.516.908-2.008 0-3.865-.633-5.57-1.898-1.815-1.375-2.723-2.957-2.723-4.744Z"/><path fill="#0D131A" d="M48.446 146.535c1.32-2.09 2.09-3.025 2.31-2.805l-1.691 2.929c-1.128 2.173-1.554 3.906-1.28 5.198.248.991 1.238 1.912 2.971 2.765 1.623.797 3.122 1.196 4.497 1.196.963 0 1.994-.234 3.094-.701l1.362-.619c-1.238 1.238-2.75 1.856-4.538 1.856-1.54 0-3.163-.371-4.869-1.114-2.008-.852-3.149-1.911-3.424-3.176-.33-1.458.193-3.301 1.568-5.529ZM94.406 189.855l2.27-1.072 26.734 61.143-3.342.412c-2.008.248-3.727.592-5.157 1.032-.633.22-1.815.976-3.548 2.269l-2.682 1.774c.825 1.155 1.472 2.778 1.939 4.868.44 1.953.55 3.287.33 4.002a5.56 5.56 0 0 1-1.526 2.517c-.688.66-1.444 1.114-2.269 1.362-3.108.66-5.584 1.375-7.427 2.145-1.182.467-2.956 1.485-5.322 3.053l-3.424 2.434-1.362 1.32c-.687.468-1.526.784-2.516.949-.825.138-2.2-.096-4.126-.701l-3.053.701-3.26.825c-1.457.495-2.722.991-3.795 1.486l-1.609.784c-.825.385-1.43.536-1.815.453-.578-.137-.798-.729-.66-1.774.137-.99.508-2.159 1.114-3.507l.866-1.732-7.509.371c-.935.165-1.829.413-2.682.743l-1.815.783-1.526.124c-.276-.165-.372-.454-.29-.866.11-.88.386-1.829.826-2.847.852-2.063 2.2-3.947 4.043-5.652l-3.218-.083c-1.54.028-2.778.248-3.713.66-1.403.661-1.815.055-1.238-1.815.468-1.513 1.884-3.19 4.25-5.033 1.32-.99 2.75-1.857 4.29-2.599 1.293-.633 2.38-1.046 3.26-1.238l.412-.083.95-.082 5.115-3.218c1.43-.99 2.82-2.187 4.167-3.59l1.898-2.31.412-1.898-2.434-1.815c-1.292-1.018-2.31-2.022-3.053-3.012-2.86-3.851-4.51-7.234-4.95-10.149-.798-5.474 1.058-12.061 5.57-19.762 3.025-5.199 7.797-10.535 14.315-16.008 5.226-3.961 7.413-5.749 6.56-5.364Z"/><path fill="#F29600" d="M88.713 196.58c1.623-1.347 3.218-2.489 4.786-3.424l1.897-1.031 24.342 55.738c-2.118.247-3.974.619-5.57 1.114-.852.275-1.939.976-3.259 2.104-1.485 1.265-2.627 2.09-3.424 2.475-.468.248-1.197.702-2.187 1.362l-1.32.908 1.155.165c.798.11 1.334.247 1.609.412.33.22.674.935 1.032 2.146l.742 3.424c-.55.88-1.788 1.719-3.713 2.517a30.003 30.003 0 0 1-4.373 1.361c-1.43.33-2.97.811-4.621 1.444-1.953.715-3.452 1.43-4.497 2.145l-3.094 1.94c-.99.55-1.87.866-2.64.948l-2.064 3.095c-2.42-.798-5.184-1.994-8.292-3.59-3.328-1.732-5.873-3.341-7.633-4.827-2.008-1.678-3.163-3.259-3.465-4.744l.165-1.733 9.324-5.817a25.268 25.268 0 0 0 4.455-3.961c1.046-1.183 1.706-2.104 1.98-2.764l.166-1.155 1.609.495 4.373.33-2.27-.495-1.773-.661c-.44-.137-1.004-.412-1.692-.825l-.949-.619c-.935-.605-2.282-2.09-4.043-4.455-2.2-2.888-3.534-6.12-4.002-9.696-.797-5.693.62-11.854 4.25-18.483 3.493-6.354 7.825-11.634 12.996-15.843Z"/><path fill="#D18200" d="M104.803 264.49c1.925-.798 3.163-1.637 3.713-2.517.138 1.155.165 1.856.083 2.104-.33.853-.963 1.54-1.898 2.063l-2.311.866-4.95 1.527c-.578.11-2.022.866-4.332 2.269l-4.25 2.64-1.691 1.444c-.716.605-1.568.991-2.558 1.156-.55.082-1.582-.124-3.095-.619l2.063-3.095c.77-.082 1.65-.398 2.64-.948l3.095-1.94c1.045-.715 2.544-1.43 4.497-2.145 1.65-.633 3.19-1.114 4.621-1.444a30.003 30.003 0 0 0 4.373-1.361Z"/><path fill="#0D131A" d="M82.565 248.936c-.55-.358-.783-.592-.7-.702l.824.248 1.733.578 2.27.206 1.278.165-1.238.33-2.269-.083c-.632-.11-1.265-.357-1.898-.742Z"/><path fill="#D18200" d="M95.273 243.861c-3.163-4.648-4.745-9.833-4.745-15.554 0-4.483 1.004-8.691 3.012-12.624 1.953-3.796 4.62-6.932 8.004-9.407l18.194 41.587c-2.118.248-3.974.619-5.57 1.114-.852.275-1.939.976-3.259 2.104-1.485 1.265-2.627 2.091-3.424 2.476l-.041.041c-5.006-1.925-9.063-5.171-12.171-9.737Z"/><path fill="#fff" d="M66.64 258.672c.385-.11.715.055.99.495.303.468.51 1.169.62 2.104.137 1.348 0 2.943-.413 4.786h-8.87c-.936.055-2.05.303-3.343.743l-1.65.66c-.11-.33-.013-.811.289-1.444.578-1.238 1.843-2.586 3.796-4.043 1.32-.99 3.053-1.802 5.198-2.434l3.383-.867Z"/><path fill="#DBDCDC" d="M62.68 264.325c3.053-.22 4.703-.647 4.95-1.279h.042l-.29 2.434-8.457.041c-.88.028-1.87.22-2.97.578 1.732-.963 3.974-1.554 6.724-1.774Z"/><path fill="#0D131A" d="m65.98 258.26.495-.124 1.114.165c.66.44 1.073 1.417 1.238 2.929v1.857l-1.155-.041v-1.692c-.11-1.1-.344-1.802-.702-2.104-.495-.33-1.719-.124-3.672.619-1.925.715-3.562 1.568-4.91 2.558-2.062 1.54-3.314 2.915-3.754 4.125l1.32-.453.826.949-2.6.948h-.453c-.193-.082-.303-.206-.33-.371-.083-.55.027-1.141.33-1.774.605-1.348 1.939-2.792 4.002-4.332 1.815-1.348 4.565-2.434 8.251-3.259Z"/><path fill="#0D131A" d="m58.966 266.635-2.186.413-.825-.949c1.1-.358 2.09-.55 2.97-.578l8.458-.041.289-2.434 1.155.041-.413 3.094c-.082.303-.275.454-.577.454h-8.87Z"/><path fill="#fff" d="M66.186 271.503c-3.08.826-5.514 1.981-7.302 3.466l.701.248-1.898.825c-.055-.55.083-1.252.413-2.104.605-1.733 1.801-3.397 3.59-4.992 1.237-1.073 2.984-2.311 5.239-3.714l3.548-2.062c.413-.248 1.114.096 2.104 1.031 1.1.99 1.83 2.104 2.187 3.342l.206.784-1.691 1.361c-.743.44-1.417.715-2.022.825l-5.075.99Z"/><path fill="#DBDCDC" d="M63.67 273.855c-.798.137-2.16.591-4.085 1.361l-.701-.247c1.788-1.485 4.222-2.641 7.302-3.466l5.075-.99c.605-.11 1.279-.385 2.022-.825l1.691-1.362c.358 1.623.426 3.163.206 4.621l-11.51.908Z"/><path fill="#0D131A" d="m58.43 274.928.454-.042c2.255-.935 3.823-1.471 4.703-1.609l11.057-.866c.165-1.705.028-3.273-.413-4.703-.302-1.045-.907-2.022-1.815-2.93-.77-.742-1.334-1.114-1.691-1.114l-.207.124c-3.96 2.228-6.78 4.085-8.457 5.57-1.843 1.623-3.026 3.328-3.548 5.116l-.083.454Zm1.774.66c-1.43.577-2.187.907-2.27.99l-.535-.041-.29-.454c-.027-.633.124-1.417.455-2.352.632-1.815 1.884-3.548 3.754-5.198 1.76-1.595 4.635-3.507 8.623-5.735l.247-.124c.275-.165.674-.165 1.197 0 .66.275 1.389.867 2.186 1.774.908.991 1.554 2.036 1.94 3.136.522 1.485.728 2.819.618 4.002l-.371 1.444c-.055.275-.234.44-.536.495l-11.429.866c-.77.11-1.966.509-3.589 1.197Z"/><path fill="#fff" d="M78.522 268.615c.33-.275 1.224-.055 2.682.66 1.54.743 2.613 1.554 3.218 2.435l.165.288-.701-.371c0 .99-.495 1.719-1.486 2.187l-4.91 2.063c-2.997 1.347-5.019 2.53-6.064 3.548l.371.33-1.485.66c-.22-.358-.289-.867-.206-1.527.11-1.32.852-2.681 2.228-4.084 3.218-3.383 5.28-5.446 6.188-6.189Z"/><path fill="#DBDCDC" d="m85.412 275.093-8.086 2.599c-1.348.44-3.19 1.127-5.529 2.063l-.371-.33c1.045-1.018 3.067-2.201 6.065-3.549l4.91-2.062c.99-.468 1.485-1.197 1.485-2.187l.701.371c.715 1.183.99 2.214.825 3.095Z"/><path fill="#0D131A" d="M83.927 272.04c-.495-.743-1.403-1.458-2.723-2.146-1.155-.605-1.953-.88-2.393-.825l-6.106 6.147c-1.265 1.293-1.953 2.531-2.063 3.714-.055.467.179.605.702.412l5.776-2.187 4.703-1.444 2.847-1.072c.275-.66.027-1.527-.743-2.599Zm-5.776-3.879c.22-.165.578-.233 1.073-.206.825.11 1.815.495 2.97 1.155 1.238.715 2.132 1.472 2.682 2.269.742 1.101 1.155 2.118 1.238 3.053.082.633 0 1.101-.248 1.403-.082.138-.385.248-.908.33l-2.805.66-4.662 1.403a78.061 78.061 0 0 0-4.868 1.815l-2.063.867c-.303.137-.55.069-.743-.206-.248-.468-.344-1.073-.289-1.816.083-1.457.88-2.956 2.393-4.497 3.466-3.575 5.542-5.652 6.23-6.23ZM141.233 78.626a2.42 2.42 0 0 1 1.403.908c.357.467.522 1.004.495 1.609l-.495 13.326c-.248 9.379-.22 15.512.082 18.4.385 3.466 1.486 8.032 3.301 13.698 1.953 6.051 4.057 11.112 6.312 15.182 1.156 2.063 3.645 6.052 7.468 11.965l9.86 15.678c3.631 6.078 6.161 10.919 7.592 14.522 3.438 8.719 5.872 15.898 7.302 21.537 2.613 10.176 3.397 19.157 2.352 26.941-1.155 8.471-4.676 15.1-10.562 19.885-5.776 4.731-13.436 7.317-22.98 7.757-11.442.522-21.839-1.197-31.191-5.157-12.294-5.171-22.059-13.945-29.292-26.322-6.656-11.415-8.458-24.232-5.405-38.452 2.228-10.369 7.124-21.619 14.688-33.748 6.711-10.81 10.781-25.69 12.212-44.641.44-6.216-.262-14.233-2.104-24.053l-2.93-13.037c-.055-.358.165-.729.66-1.114l1.279-.907c.661-.633 1.444-.84 2.352-.62l27.601 6.643Z"/><path fill="#DDD583" d="M97.83 231.731c9.682 8.087 19.955 13.161 30.82 15.224 10.892 2.063 20.339.674 28.343-4.167 1.596 4.566 3.576 7.839 5.941 9.82 1.101.962 2.531 1.842 4.291 2.64-4.043 1.678-8.664 2.64-13.862 2.888-10.15.44-19.405-.908-27.766-4.043-11.387-4.291-20.643-11.745-27.766-22.362Z"/><path fill="#FFF697" d="M91.27 185.152c2.476-7.041 5.625-12.666 9.449-16.874 5.308-5.831 11.552-8.485 18.73-7.963 8.609.661 16.256 7.289 22.939 19.886 5.969 11.25 9.338 23.118 10.108 35.605.715 11.552 2.214 20.546 4.497 26.983-8.003 4.84-17.451 6.229-28.343 4.167-10.865-2.063-21.138-7.138-30.82-15.224l-2.31-3.672c-7.289-12.46-8.705-26.762-4.25-42.908Z"/><path fill="#D18200" d="M154.394 163.451c0-3.218 1.004-6.161 3.012-8.829 7.316 11.332 12.295 19.569 14.935 24.713h-.165c-4.923 0-9.118-1.554-12.583-4.662-3.466-3.081-5.199-6.822-5.199-11.222Z"/><path fill="#F29600" d="m140.614 81.101-.041 1.94-.165 15.925c0 5.473.096 9.64.289 12.501l.124 1.402c.412 3.961 1.471 8.816 3.176 14.564 1.871 6.326 3.92 11.497 6.148 15.513l12.377 19.68c6.381 10.066 10.507 17.465 12.377 22.196 3.466 8.801 5.927 16.076 7.385 21.825 2.42 9.599 3.136 18.071 2.145 25.414-.715 5.309-2.42 9.875-5.115 13.698-2.558 3.658-5.955 6.532-10.191 8.623-2.173-.826-3.919-1.802-5.24-2.93-2.64-2.255-4.675-6.147-6.106-11.676-1.32-5.253-2.283-12.775-2.888-22.567-.357-5.996-1.375-12.35-3.053-19.061-1.788-7.151-4.002-13.299-6.642-18.442-2.888-5.638-6.244-10.342-10.067-14.11-4.896-4.813-9.984-7.412-15.265-7.798-9.214-.687-17.218 4.209-24.012 14.688 2.173-4.868 4.786-9.764 7.839-14.688 6.986-11.166 11.181-26.143 12.584-44.929.247-3.685 0-8.677-.743-14.976-.798-6.629-1.857-12.075-3.177-16.338l.701-6.931v-.165l27.56 6.642Z"/><path fill="#D18200" d="m140.614 81.101-.041 1.94-.165 15.925c0 5.473.096 9.64.289 12.501l.124 1.402.825 5.281c-5.006 1.348-9.888.358-14.647-2.97-3.96-2.778-7.632-7.041-11.015-12.79-.688-8.279-1.898-15.224-3.631-20.835l.701-6.931v-.165l27.56 6.642Z"/><path fill="#0D131A" d="M186.327 196.952c4.263 4.868 7.798 10.122 10.603 15.76 3.741 7.454 5.611 15.362 5.611 23.723 0 4.318-1.004 8.98-3.011 13.986-.991 2.531-1.995 4.662-3.012 6.395-.22 1.32-.33 2.654-.33 4.002 3.658 2.806 6.065 4.951 7.22 6.436l1.898 2.311 1.402 1.65c1.265.742 2.091 1.54 2.476 2.393.357.852.509 1.87.454 3.053l2.599 4.744c.962 2.146 1.347 4.195 1.155 6.148-.11 1.045-.358 1.898-.743 2.558-.495 1.1-1.017 1.677-1.567 1.732l-.908-.66-.536-.701c-1.376-1.43-2.338-2.283-2.888-2.558l-2.641-.99-3.177-1.114-3.053.165v1.898c-.055 1.485-.261 2.723-.619 3.713-.412 1.183-.935 2.2-1.567 3.053-.633.88-1.142 1.265-1.527 1.155-.192-.027-.619-.564-1.279-1.609a11.32 11.32 0 0 0-1.733-2.145l-3.383-2.228-3.342-1.857-1.774-.619-2.558.042c-.44 1.76-1.334 3.795-2.681 6.106-.715 1.375-1.238 2.049-1.568 2.021-.193-.027-.536-.371-1.032-1.031l-.66-.949c-.907-1.485-1.636-2.517-2.186-3.094l-2.476-2.187-2.888-2.517-1.898-.66-1.32-.99a3.383 3.383 0 0 1-.99-1.485c-.137-.413-.234-.99-.289-1.733-.22-4.676 1.403-9.847 4.869-15.513l-.248-3.218c-3.851-1.898-7.509-4.978-10.974-9.241-2.916-3.576-4.759-8.169-5.529-13.78l-.33-7.385c.165-4.484 1.788-8.939 4.868-13.368 1.816-2.64 3.851-4.909 6.107-6.807l17.451-21.578-.66-4.084 1.981 4.002 6.683 7.055ZM191.484 125.164l.165-.907c.193-1.816.908-3.26 2.146-4.332l.247-.207c.77-.77 1.761-1.348 2.971-1.733 1.678-.55 3.163-.44 4.456.33 1.622.936 2.901 2.517 3.837 4.745 1.017 2.448 1.017 4.442 0 5.982l-1.156 2.187c-.467.963-.729 1.609-.784 1.939.083.33.441.894 1.073 1.692l1.485 1.732 3.755-.701c1.54-.11 2.654.358 3.342 1.403.357.55.66 2.296.907 5.239.248 2.971.207 4.786-.123 5.446-.221.44-.592.853-1.114 1.238l-1.94 1.279-1.691.66c-.743.248-1.183.468-1.32.66-.908.99-2.242 2.957-4.002 5.9-.44.743-1.21 1.32-2.311 1.733l-2.558.577c-2.09 8.417-3.96 14.413-5.611 17.989-1.292 2.833-2.805 4.813-4.538 5.941-1.54.99-3.438 1.512-5.693 1.567-2.008.055-3.59-.233-4.745-.866-.357-.193-2.022-1.857-4.992-4.992l-5.24-5.405-2.846-2.063-2.971-1.939c-1.128-.77-2.475-1.513-4.043-2.228l-2.022-.825-1.568-.124-1.774.331-.948.288 1.815-1.279c-1.65-.22-2.489-.467-2.517-.742-.027-.165.179-.275.619-.33h.701l-12.294-18.979c-.935.44-1.472.44-1.609 0-.083-.275-.069-.508.041-.701l.536-.578c.303-.247 1.527-.962 3.672-2.145 1.953-1.045 4.195-1.829 6.725-2.352 2.751-.55 4.855-.563 6.312-.041 2.641.963 4.497 2.324 5.57 4.085 1.018 1.732 1.54 4.318 1.568 7.756l2.104 1.155c.908.523 1.609 1.045 2.104 1.568l.702.784 3.589 4.043c1.705 1.898 2.984 3.149 3.837 3.754 1.155.826 2.53 1.266 4.126 1.321l3.218-.248.701-4.662c.248-2.558.275-4.277.082-5.157l-2.392-2.022c-1.238-.44-2.063-.839-2.476-1.196-.825-.825-1.196-2.159-1.114-4.002l.041-1.981-.701-.618c-1.925-1.596-3.218-2.888-3.878-3.879-1.018-1.485-1.307-3.204-.866-5.157.412-1.787 1.127-2.901 2.145-3.342.798-.33 1.183-.467 1.155-.412l4.043-2.022a2.286 2.286 0 0 1 1.981.165l1.279 1.156c.77.77 1.224 1.168 1.361 1.196l2.847.371 2.599-4.208c1.155-2.008 1.815-3.287 1.98-3.837Z"/><path fill="#F29600" d="m193.754 125.618.33-2.31c.165-.935.426-1.554.783-1.857l2.146-1.609c1.293-.495 2.819-.261 4.579.701l1.486 2.765c.852 2.035.962 3.534.33 4.497-.413.605-.853 1.609-1.321 3.011-.495 1.431-.701 2.366-.618 2.806.165 1.018.894 2.118 2.186 3.301l1.898 1.444 2.269-.661c1.623-.275 2.723.014 3.301.867.605.88.935 2.434.99 4.662.055 1.953-.055 3.19-.33 3.713l-2.352 1.692c-1.568.935-2.571 1.636-3.012 2.104l-2.64 3.135c-1.155 1.43-1.829 2.338-2.022 2.723-.44.743-1.375 1.307-2.805 1.692l-2.022.33-.619 3.878a55.79 55.79 0 0 1-2.681 9.324c-1.348 3.466-2.421 5.804-3.218 7.014-.688 1.017-1.706 1.966-3.053 2.847-1.183.77-2.668 1.224-4.456 1.361-1.65.138-2.861-.014-3.631-.454-.44-.22-1.416-1.251-2.929-3.094-1.595-1.953-2.819-3.246-3.672-3.878l-4.208-3.425c-2.008-1.677-3.645-2.943-4.91-3.795-1.678-1.155-4.813-2.104-9.406-2.847l-1.939-.248h-.743l-11.676-18.689 5.735-2.558c4.181-1.568 7.137-2.049 8.87-1.444 2.036.743 3.521 1.554 4.456 2.434.853.77 1.485 1.829 1.898 3.177.495 1.678.66 3.493.495 5.446l1.733.99c1.292.798 2.283 1.568 2.97 2.311l3.631 3.919c1.815 1.843 3.273 3.163 4.373 3.961 2.393 1.705 5.102 2.434 8.128 2.186-.22.77-.812 1.458-1.774 2.063l-2.063 1.444-1.692.99c-.44.358-.674.867-.701 1.527-.028.742.275 1.884.908 3.424.632 1.513 1.059 2.228 1.279 2.146l-.454-1.444a8.984 8.984 0 0 1-.619-3.879c0-.275.179-.55.536-.825.22-.137.757-.454 1.609-.949l1.816-1.031c1.017-.66 1.939-1.65 2.764-2.971l.33-.742.577-2.146 1.032-4.744c.247-1.485.289-2.916.124-4.291l-.372-1.609c-1.787-1.733-2.97-2.723-3.548-2.971l-1.361-.701c-.468-.495-.702-1.361-.702-2.599l.042-2.145-.165-.908-2.311-1.733c-1.568-1.073-2.599-1.953-3.094-2.64-1.21-1.678-1.472-3.191-.784-4.539l1.361-1.526 5.364-1.774 1.155 1.031c.77.825 1.43 1.334 1.98 1.527l2.765.454 2.063-.207c.357-.192 1.347-1.678 2.97-4.456 1.65-2.778 2.531-4.51 2.641-5.198Z"/><path fill="#0D131A" d="M185.337 139.935c-.11 1.1-.701 1.815-1.774 2.145-.99.302-1.788.192-2.393-.33-1.155-.99-2.159-1.664-3.012-2.022l-1.32-.206-.99-.124c-.963-.165-1.637-.949-2.022-2.351a6.409 6.409 0 0 1-.082-2.888 5.62 5.62 0 0 1 1.733-2.93c1.045-.935 2.31-1.334 3.795-1.196 1.348.137 2.256.536 2.723 1.196l.248.248c1.733 1.733 2.709 3.273 2.929 4.621.248 1.54.303 2.819.165 3.837Z"/><path fill="#0D131A" d="m185.007 138.738-.206-2.558c-.22-1.21-1.155-2.682-2.806-4.415l-.289-.288c-.44-.551-1.265-.894-2.475-1.032-1.32-.165-2.489.193-3.507 1.073-1.155 1.045-1.733 2.352-1.733 3.919l.207 1.486c.357 1.265.921 1.966 1.691 2.104l.99.123 1.444.207c.853.385 1.761.99 2.723 1.815.578.44 1.321.591 2.228.454.99-.165 1.54-.674 1.65-1.527l.083-1.361Zm.536-2.682c.275 1.65.179 3.149-.288 4.497-.523 1.375-1.018 2.187-1.486 2.434-.467.248-1.1.014-1.898-.701-.797-.715-2.09-1.458-3.878-2.228l-2.228-.289c-1.1-.165-1.87-1.045-2.31-2.64a6.377 6.377 0 0 1-.083-3.053c.276-1.21.894-2.242 1.857-3.095 1.1-1.017 2.462-1.457 4.085-1.32l1.815.495 1.155.825.248.248c1.76 1.76 2.764 3.369 3.011 4.827Z"/><path fill="#fff" d="M179.314 131.105c.88.138 1.457.371 1.732.701l1.403 1.568c.825 1.018 1.307 1.912 1.444 2.682.303 1.87.289 3.383-.041 4.538l-.619 1.197-.289-.289c-.44-1.238-1.568-2.517-3.383-3.837l-1.155-.289c-.688-.11-1.265-.316-1.733-.619l-1.774-1.856c.11-1.211.591-2.173 1.444-2.888.825-.743 1.815-1.046 2.971-.908Z"/><path fill="#DBDCDC" d="M176.137 137.995c-.33-.055-.633-.385-.908-.99a4.525 4.525 0 0 1-.33-2.104l1.774 1.856c.468.303 1.045.509 1.733.619l1.155.289c1.815 1.32 2.943 2.599 3.383 3.837-1.623-1.54-3.067-2.585-4.332-3.136l-1.196-.247-1.279-.124Z"/><path fill="#0D131A" d="M200.313 118.356c1.403.633 2.311 1.706 2.723 3.218.275.963.317 2.008.124 3.136-.137.99-.371 1.691-.701 2.104-3.768 3.631-6.244 5.583-7.427 5.859-.55.082-.948-.028-1.196-.331-.605-.742-1.031-2.31-1.279-4.703-.275-2.53-.124-4.387.454-5.57 1.678-3.878 4.112-5.115 7.302-3.713Z"/><path fill="#0D131A" d="M200.025 118.975c-1.623-.715-2.998-.646-4.126.207-.825.605-1.582 1.664-2.269 3.176-.523 1.128-.702 2.93-.537 5.405.138 2.366.44 3.837.908 4.415l.619.082c.633-.137 1.967-1.072 4.002-2.805l3.3-3.053.454-1.156.207-1.897-.207-1.609c-.33-1.293-1.114-2.215-2.351-2.765Zm-7.385 2.806c.687-2.035 1.746-3.411 3.176-4.126 1.403-.715 2.985-.687 4.745.083 1.705.742 2.764 2.159 3.177 4.249.385 1.98.041 3.645-1.032 4.992-1.045 1.486-2.544 2.971-4.497 4.456-2.063 1.595-3.479 2.242-4.249 1.939-.853-.33-1.458-1.788-1.816-4.373-.385-2.723-.22-5.13.496-7.22Z"/><path fill="#fff" d="M194.042 122.152c.66-1.458 1.389-2.462 2.187-3.012l3.589-.123c.77.302 1.376.852 1.816 1.65-.11 1.568-.523 2.915-1.238 4.043-1.815 2.723-3.823 5.171-6.024 7.344-.44.055-.742-1.279-.907-4.002-.165-2.778.027-4.745.577-5.9Z"/><path fill="#DBDCDC" d="M198.251 129.042c-2.008 1.871-3.287 2.874-3.837 3.012h-.042c2.201-2.173 4.209-4.621 6.024-7.344.715-1.127 1.128-2.475 1.238-4.043.44.853.591 1.898.453 3.136-.11.935-.288 1.595-.536 1.98l-3.3 3.259Z"/><path fill="#0D131A" d="m201.262 142.905 1.981-3.755c.742-.852 1.677-1.292 2.805-1.32 1.128 0 2.146.468 3.053 1.403.99.99 1.362 2.269 1.114 3.837-.247 1.237-1.1 2.214-2.558 2.929l-3.177 1.114c-1.897.578-3.19.825-3.878.743l-.866-.083c-.22-.633.289-2.255 1.526-4.868Z"/><path fill="#0D131A" d="M201.345 143.688c-1.073 2.366-1.568 3.658-1.485 3.879l1.279-.083 2.888-.495c.962-.248 2.131-.715 3.506-1.403 1.348-.687 2.118-1.554 2.311-2.599l.041-.825c0-1.073-.344-1.953-1.031-2.641-.88-.907-1.802-1.334-2.765-1.279-1.045 0-1.884.372-2.516 1.114l-2.228 4.332Zm-2.269 4.621c-.303-.275.027-1.636.99-4.084.99-2.531 1.953-4.319 2.888-5.364.853-.907 1.884-1.375 3.094-1.403 1.238 0 2.352.509 3.342 1.527 1.1 1.1 1.499 2.475 1.196 4.126a5.064 5.064 0 0 1-.99 2.228l-1.609 1.361c-.715.385-2.283.811-4.703 1.279l-4.208.33Z"/><path fill="#fff" d="M209.307 141.089c-.742 1.128-1.801 2.215-3.176 3.26-1.706 1.237-3.672 2.228-5.9 2.97-.248-.027.289-1.293 1.609-3.795 1.265-2.393 2.077-3.796 2.434-4.209.468-.495 1.018-.784 1.65-.866.908-.138 1.761.206 2.558 1.031.468.468.743 1.004.825 1.609Z"/><path fill="#DBDCDC" d="m207.698 145.133-3.63 1.279c-2.063.66-3.342.962-3.837.907 2.228-.742 4.194-1.733 5.9-2.97 1.375-1.045 2.434-2.132 3.176-3.26.11.825-.055 1.692-.495 2.6-.357.742-.728 1.224-1.114 1.444Z"/><path fill="#D18200" d="M193.877 143.812a15.91 15.91 0 0 0-2.228 2.27c-1.457 1.787-2.09 3.328-1.897 4.62.11.881.412 1.747.907 2.6-1.458-.358-2.668-1.197-3.63-2.517-.963-1.348-1.444-2.874-1.444-4.58 0-2.007.632-3.727 1.897-5.157 1.238-1.43 2.751-2.145 4.539-2.145 1.1 0 2.131.302 3.094.907.935.578 1.705 1.362 2.31 2.352-1.677.55-2.86 1.1-3.548 1.65Z"/><path fill="#0D131A" d="M193.877 143.812c.468-.357 1.279-.77 2.434-1.237 1.128-.468 1.72-.647 1.775-.537l-1.444.825-2.187 1.238c-.743.578-1.554 1.554-2.434 2.929-1.018 1.651-1.458 2.985-1.321 4.002.248 1.788 1.279 3.48 3.095 5.075l2.558 1.939c-.138.358-1.155-.234-3.053-1.774-2.063-1.678-3.246-3.534-3.548-5.57-.193-1.292.44-2.833 1.897-4.621a15.954 15.954 0 0 1 2.228-2.269Z"/><path fill="#F29600" d="m175.559 186.472.701 1.692c.578 1.292 1.169 2.338 1.775 3.135l5.322 5.364c3.438 3.878 6.642 8.801 9.613 14.77 3.3 6.601 5.363 12.693 6.188 18.277.605 4.263.509 8.595-.289 12.996-.522 3.025-1.347 6.106-2.475 9.241l-1.65 4.539a18.37 18.37 0 0 0-.33 3.176c-.055 1.183.013 1.857.206 2.022l2.723 2.187c1.953 1.65 3.287 2.956 4.002 3.919l3.961 4.992.948.495c.688.385 1.087.729 1.197 1.032.385.935.33 2.145-.165 3.63-.605 1.733-1.65 2.998-3.136 3.796l-3.424 1.815c-.165-1.65-.468-2.351-.908-2.104-1.457.88-2.86 1.073-4.208.578v3.053l-5.817.577-2.929.124c-1.156-2.64-2.105-3.644-2.847-3.012-.715.633-1.65.826-2.806.578-1.017-.22-1.801-.66-2.351-1.32l-.124 3.713c-3.933-.138-7.124-.55-9.572-1.238l-1.155-3.259c-.825-.44-1.54-1.142-2.145-2.104a8.953 8.953 0 0 1-1.197-3.26c.578-3.19 1.898-6.394 3.961-9.612.165-.303.22-1.513.165-3.631l1.65.33 3.755.165 1.939-.289-1.898-.33-3.466-.577-2.021-.578v-.041c-.633-.138-1.541-.605-2.723-1.403-2.393-1.623-4.965-4.126-7.715-7.509-2.833-3.493-4.662-7.495-5.488-12.006-.44-2.393-.591-5.542-.453-9.448.165-4.593 1.609-9.31 4.332-14.151l4.043-5.9 14.811-24.424Z"/><path fill="#D18200" d="M199.818 281.446c.44-.247.743.454.908 2.104-1.348.661-3.053 1.169-5.116 1.527v-3.053c1.348.495 2.751.303 4.208-.578ZM184.017 282.766c.742-.632 1.691.372 2.847 3.012-2.806.083-5.515.069-8.128-.041l.124-3.713c.55.66 1.334 1.1 2.351 1.32 1.156.247 2.091.055 2.806-.578ZM164.667 275.876a8.953 8.953 0 0 0 1.197 3.26c.605.962 1.32 1.664 2.145 2.104l1.155 3.259c-3.163-.825-4.786-2.049-4.868-3.672-.083-1.567.041-3.218.371-4.951Z"/><path fill="#fff" d="m200.767 280.869-.165.082c.66-1.65 1.499-2.929 2.517-3.837 1.1-.963 1.898-1.568 2.393-1.815.55-.303.976-.261 1.279.124l1.815 2.846 2.104 3.879c.853 1.925 1.197 3.726 1.032 5.404-.083.853-.248 1.499-.495 1.939-.165-1.155-.991-2.393-2.476-3.713-1.21-1.073-2.228-1.76-3.053-2.063a24.5 24.5 0 0 1-2.847-1.114c-1.32-.66-2.021-1.237-2.104-1.732Z"/><path fill="#DBDCDC" d="M200.19 283.427c-.358-.138-.22-.963.412-2.476l.165-.082c.083.495.784 1.072 2.104 1.732a24.5 24.5 0 0 0 2.847 1.114c.825.303 1.843.991 3.053 2.063 1.485 1.32 2.311 2.558 2.476 3.713-1.596-1.65-2.765-2.668-3.507-3.053l-3.961-1.609-3.589-1.402Z"/><path fill="#fff" d="m191.361 276.289 2.681 3.713c1.596 2.476 2.393 4.442 2.393 5.9 0 2.613-.289 4.69-.866 6.23l-.867 1.485-.371-.536c.083-1.623-.784-3.26-2.599-4.91-1.265-1.183-2.503-2.021-3.713-2.517-1.898-.825-2.971-1.87-3.218-3.135.66-1.87 1.402-3.259 2.228-4.167.88-.935 1.801-1.595 2.764-1.98l1.568-.083Z"/><path fill="#DBDCDC" d="M188.019 285.654c1.21.495 2.448 1.334 3.713 2.517 1.815 1.65 2.682 3.287 2.599 4.91l-1.774-2.104c-.55-.523-1.994-1.499-4.332-2.93-2.228-1.375-3.534-2.118-3.919-2.228-.165-.027-.193-.371-.083-1.031.083-.66.275-1.417.578-2.269.247 1.265 1.32 2.31 3.218 3.135Z"/><path fill="#fff" d="M170.113 277.857c.605-.743 1.238-1.334 1.898-1.774.77-.468 1.293-.537 1.568-.207l2.64 3.177c1.485 1.871 2.311 3.095 2.476 3.672.44 1.485.11 3.631-.991 6.436-.55 1.403-1.155 2.655-1.815 3.755l-.247-.413v-.206c-.083-1.375-.578-2.696-1.486-3.961l-2.31-2.682-1.939-1.98-1.65-1.856c.66-1.953 1.279-3.274 1.856-3.961Z"/><path fill="#DBDCDC" d="m171.846 285.655 2.31 2.681c.908 1.265 1.403 2.586 1.486 3.961v.206c-1.046-1.568-1.802-2.599-2.27-3.094l-5.445-5.281c-.221-.165-.11-.935.33-2.31l1.65 1.856 1.939 1.981Z"/><path fill="#0D131A" d="M201.097 280.415c-.605 1.293-.866 2.2-.784 2.723l.165.247.991.372 6.188 2.475c.688.385 1.802 1.362 3.342 2.929.248-.385.413-1.031.495-1.939.165-1.568-.165-3.245-.99-5.033l-1.98-3.713-1.774-2.723c-.138-.193-.303-.289-.496-.289-.467-.055-1.471.578-3.011 1.898-.77.687-1.486 1.705-2.146 3.053Zm-.165 4.786-1.031-.413c-.578-.192-.935-.646-1.073-1.361-.137-.853.165-2.063.908-3.631.742-1.568 1.581-2.764 2.517-3.589l2.227-1.733c.716-.413 1.362-.592 1.939-.537.606.083 1.128.386 1.568.908l1.816 2.847 2.062 3.878c.963 2.09 1.334 4.084 1.114 5.982-.11.963-.33 1.747-.66 2.352l-.495.908-.577.371c-.248.055-.454-.028-.619-.248l-.702-.701c-1.54-1.54-2.544-2.42-3.011-2.64-.661-.385-2.655-1.183-5.983-2.393ZM184.471 285.613l.165.206c.412.138 1.664.853 3.754 2.146 2.2 1.32 3.562 2.228 4.085 2.723l2.021 2.517c.303-.248.578-.729.825-1.444.55-1.458.825-3.425.825-5.9 0-2.036-1.554-5.006-4.662-8.912l-.165-.247-.412-.165c-.413-.028-.922.123-1.527.453-.77.386-1.499.949-2.186 1.692-.743.798-1.417 2.035-2.022 3.713-.605 1.595-.839 2.668-.701 3.218Zm-.33 1.65c-.55-.165-.922-.577-1.114-1.237-.248-.853-.028-2.228.66-4.126.715-1.87 1.513-3.287 2.393-4.249.77-.853 1.609-1.513 2.516-1.981.881-.467 1.678-.687 2.393-.66.66.055 1.183.316 1.568.784l.124.206c3.328 4.181 4.992 7.468 4.992 9.861 0 2.695-.316 4.868-.949 6.518-.358.936-.77 1.609-1.238 2.022l-.66.536-.619.207-.536-.372-.454-.742c-.55-.88-1.141-1.623-1.774-2.228-.44-.413-1.691-1.252-3.754-2.517-2.008-1.238-3.191-1.912-3.548-2.022ZM173.95 276.743l-.371-.454a.634.634 0 0 0-.454-.206c-.385 0-.853.22-1.403.66a7.211 7.211 0 0 0-1.444 1.444c-.44.523-.949 1.54-1.526 3.053-.605 1.595-.798 2.572-.578 2.929l2.434 2.269 2.764 2.723c.578.633 1.376 1.747 2.393 3.342a24.566 24.566 0 0 0 2.146-4.662c.715-2.173.894-3.85.536-5.033-.22-.77-1.719-2.792-4.497-6.065Zm-4.868.495c.357-.495.852-1.004 1.485-1.526.935-.771 1.788-1.156 2.558-1.156.633 0 1.169.248 1.609.743l.371.454c2.916 3.41 4.511 5.611 4.786 6.601.495 1.65.234 3.878-.784 6.684a28.783 28.783 0 0 1-2.021 4.249l-.619 1.073-.66.412-.619-.371-.702-1.073-2.227-3.135-5.075-4.91c-.798-.687-.756-2.186.124-4.497.66-1.678 1.251-2.86 1.774-3.548ZM173.62 264.943l-2.31-.495c-.798-.275-1.169-.481-1.114-.619l1.031.124 2.104.289 3.383-.083c1.486-.082 2.228-.082 2.228 0l-2.104.495-3.218.289Z"/><path fill="#F29600" d="M135.581 5.394c1.98-.137 3.631 1.266 4.951 4.209.357.77.784 2.461 1.279 5.074l1.031 5.776c.193 1.128 1.142 5.309 2.847 12.543.605 2.64 2.544 6.546 5.817 11.717l2.352 4.125.701 2.27c.11.88-.344 2.901-1.361 6.064.522 1.733.715 4.208.577 7.427l2.682 7.632 1.444 3.713 1.692 3.342c.22.358.618.55 1.196.578.495.055.976.522 1.444 1.402.908 1.733-.014 4.965-2.764 9.696l-4.373 6.601c.357 2.338-.743 3.878-3.301 4.621l-5.817.701c-.633.083-1.554.454-2.764 1.114-1.101.578-2.366.867-3.796.867-1.705 0-3.686-.633-5.941-1.898-1.953-1.045-3.149-1.926-3.59-2.641l-2.599-3.218-3.589-4.332-4.827-5.28-4.415-4.622a4.441 4.441 0 0 0-2.104-1.361l-1.031-.165c-1.871-1.65-3.466-3.796-4.786-6.436-1.045-2.118-1.568-3.617-1.568-4.497 0-.633.151-1.912.454-3.837.33-2.063.674-3.727 1.031-4.992.826-2.916 1.238-5.336 1.238-7.262 0-1.677-.729-4.593-2.187-8.746-.632-1.87-2.654-5.611-6.064-11.222l-3.59-4.415-4.208-4.91c-.88-1.072-1.279-2.42-1.196-4.042.082-1.403.412-2.31.99-2.723.577-.413 1.554-.633 2.929-.66 1.293 0 2.31.15 3.053.453.633.248 1.884 1.28 3.754 3.095l5.488 5.487c4.538 4.538 8.444 7.935 11.717 10.19 1.375.963 3.314 1.17 5.817.62 2.008-.413 4.002-1.197 5.982-2.352 1.403-.825 2.297-2.393 2.682-4.704.165-1.045.247-3.025.247-5.94l-.453-7.757c-.275-3.713-.399-5.886-.372-6.519.055-1.21.303-2.214.743-3.011.55-1.1 1.403-1.692 2.558-1.775Z"/><path fill="#0D131A" d="m144.699 87.331 1.939.743 1.65.206 1.444-.041.784-.206.454.082c.082.22-.138.427-.66.619l-1.981.33c-1.265 0-2.558-.33-3.878-.99-.33-.165-.894-.289-1.691-.371l-1.568-.042c-.33.055-1.252.84-2.764 2.352-.55.55-.963.633-1.238.247-.193-.247.069-.66.784-1.237l1.733-1.28c.962-.632 1.787-.948 2.475-.948.715 0 1.554.179 2.517.536ZM144.781 93.933l-1.815-.496-1.444.413c-.605.083-1.018-.027-1.238-.33-.11-.165.096-.44.619-.825.523-.358.949-.55 1.279-.578.303-.027.825.138 1.568.495l1.361.784c.193.165.248.317.165.454l-.495.083ZM159.469 86.506c.137.165.055.44-.248.825l-.742.825-1.403 2.145c-.22.385-.468.55-.743.495-.302-.082-.371-.275-.206-.577.193-.385.688-1.128 1.485-2.228.193-.33.537-.674 1.032-1.031.495-.385.77-.537.825-.454ZM137.561 61.546l-.123-.454c0-.192.068-.316.206-.371l.701.33.537 1.485.536.743.289.66-.33.784c-.248.22-.454.302-.619.247-.193-.082-.289-.591-.289-1.526l-.371-.95-.537-.948ZM138.758 65.424c.247.11.165.962-.248 2.558l-1.898 5.404-1.072 1.444c-.605.605-.991.853-1.156.743-.275-.193-.123-.729.454-1.61l.537-.7.536-.826 1.031-2.475.991-2.6c.412-1.402.687-2.048.825-1.938ZM148.371 61.422l.206.66.041 1.155-.247 1.98c0 1.32-.22 1.94-.66 1.857-.276-.055-.413-.261-.413-.619l.082-.907.454-1.857c.193-1.485.372-2.242.537-2.27ZM129.516 92.777l.124 2.228c-.028.468.179.784.619.949.44.165.852-.014 1.237-.536l.496.742c-.633.798-1.321 1.197-2.063 1.197-.495 0-.867-.592-1.114-1.775-.248-1.155-.33-2.571-.248-4.249l.949 1.444Z"/><path fill="#fff" d="M130.094 96.12c-.495-.22-.688-1.335-.578-3.343l1.98 2.64-.825.66-.577.042ZM153.156 59.524l.166 1.073c.165 1.292.178 2.668.041 4.125-.028.578-.317 1.362-.867 2.352-.687 1.21-1.499 2.035-2.434 2.475.055-1.65.33-3.245.825-4.785a32.158 32.158 0 0 1 2.269-5.24Z"/><path fill="#0D131A" d="M217.023 63.443c.192-.082.481.041.866.372l.743.783c2.943 3.906 5.748 10.356 8.416 19.35 2.778 9.297 4.703 18.992 5.776 29.086.11.88.096 1.664-.041 2.352-.11.633-.289.963-.537.99-.495.055-.838-1.018-1.031-3.218-.908-9.131-2.723-18.346-5.446-27.642-2.53-8.664-5.253-15.444-8.169-20.34-.632-1.045-.825-1.623-.577-1.733ZM228.822 70.87c.193-.083.605.302 1.238 1.155l1.031 1.568c6.436 17.768 8.857 34.697 7.262 50.787l-.165 2.063c-.138 1.155-.303 1.733-.496 1.733-.165 0-.343-.509-.536-1.526l-.247-1.898c.66-21.014-1.843-38.026-7.509-51.035-.77-1.733-.963-2.682-.578-2.847ZM56.202 73.881l.536-.825c.248-.357.454-.509.62-.454.192.055.288.33.288.825l-.165 1.073c-1.595 4.4-2.805 10.424-3.63 18.07-.908 8.17-1.087 15.72-.537 22.651v1.526c-.055.771-.179 1.156-.371 1.156-.193 0-.385-.385-.578-1.156l-.247-1.485c-.853-7.151-.826-15.127.082-23.929.88-8.691 2.214-14.509 4.002-17.452ZM50.509 83.494c.247-.825.508-1.196.783-1.114.193.028.317.248.372.66v.908a181.234 181.234 0 0 0-4.29 22.733c-1.019 8.251-1.404 16.008-1.156 23.269 0 1.595-.138 2.407-.413 2.434-.192 0-.33-.344-.412-1.031l-.083-1.403c-.962-7.124-.894-14.935.206-23.434.936-7.427 2.6-15.1 4.993-23.022Z"/><path fill="#fff" d="M119.284 61.01c.358-.166.757-.11 1.197.164l8.458 6.271.577.496c.495.302.853.756 1.073 1.361l.577 1.197.867 2.021-.165.578-1.816.082-5.157-.99-.454-.124-4.373-1.155c-1.127-.412-1.76-.894-1.898-1.444-.137-.633-.151-1.802-.041-3.507l.413-3.795c.11-.606.357-.99.742-1.156Z"/><path fill="#fff" d="M119.284 61.01c.358-.166.757-.11 1.197.164l8.458 6.271.577.496c.495.302.853.756 1.073 1.361l.577 1.197.867 2.021-.165.578-1.816.082-5.157-.99-.454-.124-4.373-1.155c-1.127-.412-1.76-.894-1.898-1.444-.137-.633-.151-1.802-.041-3.507l.413-3.795c.11-.606.357-.99.742-1.156Z"/><path fill="#008086" d="m123.74 63.485.083.082 5.693 4.374c.495.302.853.756 1.073 1.361l.577 1.197.867 2.021-.165.578-1.816.082-4.785-.907c-1.183-1.87-1.774-3.975-1.774-6.313 0-.852.082-1.677.247-2.475ZM150.64 69.714l-1.032.537.042-.743c.027-1.705.302-3.328.825-4.868l1.196-3.095a8.905 8.905 0 0 1 .578 3.177c0 1.898-.537 3.562-1.609 4.992Z"/><path fill="#00666C" d="M150.557 68.146c-.247 0-.495-.165-.742-.495l.66-3.011a25.13 25.13 0 0 1 1.155-2.971c.385.77.578 1.705.578 2.805 0 1.018-.165 1.885-.496 2.6-.302.715-.687 1.072-1.155 1.072Z"/><path fill="#0D131A" d="M151.135 67.24c-.192.77-.591 1.1-1.197.99.055-.578.276-1.445.661-2.6.522.44.701.977.536 1.61Z"/><path fill="#00666C" d="m123.74 63.485.083.082 5.693 4.374c.495.302.853.756 1.073 1.361l.907 1.898-3.713.248c-1.485-.275-2.723-.894-3.713-1.857a11.406 11.406 0 0 1-.577-3.63c0-.853.082-1.678.247-2.476Z"/><path fill="#0D131A" d="m125.597 71.984-.99-.041c-1.046-1.788-1.568-3.782-1.568-5.983 0-.77.096-1.691.289-2.764l.041-.041c.027.385.275.577.742.577l-.206 2.228c0 2.173.564 4.181 1.692 6.024ZM127.907 71.2c-.467 0-.853-.165-1.155-.495a1.75 1.75 0 0 1-.413-1.156c0-.44.138-.825.413-1.155.302-.302.646-.454 1.031-.454.358 0 .674.166.949.496.275.33.413.715.413 1.155l-.289 1.072-.949.537Z"/><path fill="#fff" d="M126.298 69.014c-.412 0-.742-.151-.99-.454a1.477 1.477 0 0 1-.33-.95c0-.412.124-.756.371-1.031.275-.303.592-.454.949-.454.331 0 .633.165.908.495.248.303.372.66.372 1.073l-.372.908c-.275.275-.577.413-.908.413ZM150.888 66.29l-.496-.37-.165-.743c0-.358.069-.647.207-.867.11-.248.261-.372.454-.372l.453.413.166.867-.166.743-.453.33Z"/><path fill="#0D131A" d="M120.233 61.545c-.687-.412-1.114-.178-1.279.702L118.542 66c-.11 1.65-.097 2.764.041 3.342.137.55 1.114 1.073 2.929 1.568l3.507.825 5.116 1.031 1.196.124c.22-.028.317-.138.289-.33l-1.403-3.094c-.165-.413-.481-.812-.948-1.197-1.871-1.513-3.246-2.599-4.126-3.26l-4.91-3.465Zm-.866-1.444c1.843 1.046 3.768 2.31 5.776 3.796l4.126 3.424.99.867c.44.385.715.729.825 1.031l2.145 4.497.289.743c.055.275-.041.454-.289.536l-.33-.247-.206-.537c-.055-.137-.261-.275-.619-.412l-1.031-.207c-.853 0-2.545-.275-5.075-.825l-6.436-1.567c-.605-.248-1.1-.688-1.485-1.32-.44-.688-.66-1.5-.66-2.435 0-.77.082-1.856.247-3.26L117.84 62l.083-.866-.083-.743c-.77-.825-1.114-1.306-1.031-1.444.11-.137.963.248 2.558 1.155ZM152.414 64.599c0 2.503-.784 4.51-2.352 6.023l-.619-.206c.715-.633 1.279-1.444 1.692-2.434.44-1.018.66-2.104.66-3.26a8.043 8.043 0 0 0-.495-2.846l.454-.784c.44 1.155.66 2.324.66 3.507Z"/><path fill="#0D131A" d="m153.322 60.597-.166-1.073a32.158 32.158 0 0 0-2.269 5.24 17.465 17.465 0 0 0-.825 4.785c.935-.44 1.747-1.265 2.434-2.475.55-.99.839-1.774.867-2.352.137-1.457.124-2.833-.041-4.125Zm-12.831-49.592c-1.046-3.355-2.545-5.033-4.497-5.033-1.293 0-2.215.743-2.765 2.228-.412 1.155-.55 2.462-.412 3.92l.536 6.683.33 8.293c-.055 2.86-.454 4.964-1.196 6.312-.55.963-1.568 1.898-3.053 2.806-1.183.715-2.6 1.224-4.25 1.526l-3.796.248 1.609.701 1.94 1.032 1.526 1.196 1.98 1.691c.633.716.949 1.17.949 1.362-.027.22-.481.014-1.361-.619l-1.692-1.114-1.32-.99c-.715-.715-1.458-1.169-2.228-1.361-.522-.083-1.21-.358-2.063-.826a12.97 12.97 0 0 1-2.764-1.898c-3.631-2.998-6.89-5.872-9.778-8.622l-9.572-9.2c-.77-.716-1.925-1.142-3.465-1.28-1.54-.165-2.654.056-3.342.66-.633.55-.908 1.472-.825 2.765.082 1.155.358 2.049.825 2.681l3.878 4.58 4.332 5.487c5.474 8.747 8.21 15.307 8.21 19.68 0 2.008-.178 3.892-.536 5.652l-.949 3.548-.825 3.59c-.275 1.485-.413 2.558-.413 3.218 0 .797.193 1.746.578 2.846a13.417 13.417 0 0 0 1.774 3.549c1.76 2.585 2.861 4.07 3.301 4.455l.784.124c.467 0 .825.083 1.072.248l2.93 2.31c1.787 1.595 3.3 3.15 4.538 4.662l5.652 6.478c2.008 2.337 3.232 3.919 3.672 4.744.412.688 1.526 1.623 3.342 2.806 2.283 1.485 4.332 2.227 6.147 2.227a6.86 6.86 0 0 0 2.682-.536l1.568-.784a10.583 10.583 0 0 1 4.167-.949c2.833-.137 4.634-.481 5.404-1.031.495-.358.908-1.032 1.238-2.022-1.018.99-1.994 1.568-2.929 1.733-1.266.275-2.902-.069-4.91-1.031l-2.063-.702-2.434-.33-2.888.578c-1.43.275-2.613.261-3.548-.041-1.018-.33-1.815-.798-2.393-1.403l-1.403-2.022c-1.072-1.65-2.571-3.534-4.497-5.652-3.493-3.768-5.776-6.079-6.848-6.931-.441-.358-1.348-.77-2.723-1.238l-2.558-.99c-.44-.275-.771-.77-.991-1.485-.137-.468-.288-1.266-.453-2.393-.11-.798-.097-1.513.041-2.146.11-.522.247-.784.412-.784.248.055.386.44.413 1.156.303 2.475.605 3.974.908 4.497.192.33.88.674 2.063 1.031 1.402.44 2.379.867 2.929 1.28l4.332 3.671c2.09 1.953 3.658 3.576 4.703 4.868a59.315 59.315 0 0 1 4.167 5.983l1.527 1.031c.797.33 1.691.495 2.681.495l2.104-.289 2.187-.288 2.434.288 2.352.62c2.09.907 3.328 1.36 3.713 1.36.798 0 1.843-.673 3.136-2.02 1.567-1.624 3.149-3.88 4.744-6.767a39.67 39.67 0 0 0 2.269-4.827c.688-1.76 1.032-3.08 1.032-3.96 0-.716-.289-1.252-.867-1.61l-1.856-1.361c-.605-.716-1.307-2.022-2.104-3.92-.715-1.65-1.238-3.094-1.568-4.332a66.75 66.75 0 0 0-1.733-5.363c-.55 1.622-1.183 2.86-1.898 3.713l-1.196 1.073c-.468.33-.702.673-.702 1.031l-.206.413-.371-.083c-.248-.495-.371-1.1-.371-1.815l.371-2.682c.275-1.513.536-2.544.784-3.094l2.846-7.344c.716-2.145 1.073-3.988 1.073-5.529 0-1.045-.206-2.007-.619-2.887-.33-.66-.88-1.472-1.65-2.435-.743-.907-1.609-2.228-2.599-3.96-1.128-1.953-2.049-3.824-2.764-5.611-1.541-3.933-2.861-9.146-3.961-15.637-.99-5.556-1.65-8.856-1.98-9.902Zm.99-1.939 2.228 10.438 2.227 10.191c.798 2.888 2.063 6.01 3.796 9.365l3.012 5.529c1.238 2.283 1.953 3.892 2.145 4.827.22 1.045.303 1.967.248 2.764l-.495 2.187-.784 2.805.289 1.98c.192 1.678.233 3.425.123 5.24l3.136 8.87 1.485 3.425c.605 1.128 1.1 1.856 1.485 2.187l1.692 1.196c.77.605 1.155 1.32 1.155 2.145 0 1.678-.742 4.071-2.228 7.18-1.457 3.107-3.121 5.761-4.992 7.962-.11 1.43-.742 2.846-1.898 4.249-.605.688-1.787 1.183-3.548 1.485l-4.579.537c-.798.11-1.939.522-3.425 1.238-1.265.632-2.448.948-3.548.948-1.375 0-3.039-.467-4.992-1.402-1.623-.798-2.833-1.568-3.63-2.311l-2.723-3.135-4.044-4.992-8.787-9.778c-.771-.798-1.637-1.293-2.6-1.486l-1.444-.288-2.228-2.558-2.227-2.888-1.733-3.177c-.688-1.403-1.032-2.42-1.032-3.053 0-.88.509-3.383 1.527-7.509.908-3.878 1.361-7 1.361-9.365 0-1.596-.66-4.099-1.98-7.51-1.155-3.025-2.434-5.775-3.837-8.25-1.045-1.843-2.93-4.264-5.652-7.262l-4.827-5.28c-1.073-1.349-1.54-2.93-1.403-4.745.11-1.65.646-2.86 1.61-3.631.88-.743 2.213-1.141 4.001-1.196 2.09-.083 3.796.508 5.116 1.774l7.426 7.385 6.931 6.89c2.751 2.448 4.69 3.92 5.818 4.414.715.33 1.911.468 3.589.413 1.733-.083 3.094-.344 4.084-.784 1.431-.605 2.49-1.265 3.177-1.98 1.073-1.156 1.609-2.696 1.609-4.621l.042-5.611-.165-4.91-.661-8.746c-.055-1.266.303-2.53 1.073-3.796.853-1.403 1.939-2.2 3.259-2.393 1.321-.165 2.558.289 3.714 1.361a7.191 7.191 0 0 1 2.104 3.672Z"/></g></g><defs><clipPath id="a"><path fill="#fff" d="M0 0h300v300H0z"/></clipPath><clipPath id="b"><path fill="#fff" d="M-52-17h362v354H-52z"/></clipPath><radialGradient id="c" cx="0" cy="0" r="1" gradientTransform="matrix(0 175 -175 0 145 152)" gradientUnits="userSpaceOnUse"><stop stop-color="#FFF697"/><stop offset="1" stop-color="#F29600"/></radialGradient></defs></svg>