<svg width="300" height="300" viewBox="0 0 300 300" fill="none" xmlns="http://www.w3.org/2000/svg">
<g clip-path="url(#clip0_864_1121)">
<rect width="300" height="300" fill="white"/>
<rect x="-50" y="-50" width="400" height="400" fill="url(#paint0_radial_864_1121)"/>
<path d="M110.037 265.112C113.442 267.601 115.32 270.107 115.671 272.63C116.127 276.205 113.758 280.131 108.563 284.407C105.79 286.685 101.437 289.033 95.505 291.452C89.4325 293.94 83.167 295.903 76.7084 297.34C60.5969 300.915 50.5054 300.021 46.4336 294.659C42.9235 290.067 44.7488 284.933 51.9094 279.255C57.5607 274.768 64.9846 270.878 74.1811 267.583C79.692 265.62 86.2383 264.289 93.8202 263.588C102.139 262.781 107.545 263.29 110.037 265.112Z" fill="#0D131A"/>
<path d="M109.668 269.318C112.757 273.034 112.038 276.924 107.51 280.99C103.754 284.355 98.3483 287.176 91.2929 289.454C83.1144 292.118 76.4452 293.888 71.2853 294.764C63.1067 296.166 56.9114 295.833 52.6992 293.765H54.542C67.8454 293.765 79.183 291.294 88.555 286.352C97.9622 281.375 102.666 275.382 102.666 268.372L102.455 265.954C105.755 266.339 108.159 267.461 109.668 269.318Z" fill="#D08690"/>
<path d="M102.455 265.954L102.666 268.372C102.666 275.382 97.9622 281.375 88.555 286.352C79.183 291.294 67.8454 293.765 54.542 293.765H52.6992L51.2776 292.977C47.2059 290.348 48.3993 286.387 54.8579 281.095C60.3688 276.538 65.6691 273.559 70.7588 272.157L85.9751 267.846C92.9602 266.129 98.4536 265.498 102.455 265.954Z" fill="#F09BA5"/>
<path d="M208.285 263.64C215.797 264.376 222.326 265.743 227.872 267.741C237.103 271.001 244.597 274.891 250.354 279.412C257.62 285.125 259.392 290.208 255.672 294.659C251.705 299.355 242.877 300.565 229.188 298.286C216.657 296.183 206.056 292.503 197.386 287.246C190.647 283.18 187.189 278.887 187.014 274.365C186.873 270.79 188.593 267.706 192.174 265.112C194.666 263.29 200.036 262.799 208.285 263.64Z" fill="#0D131A"/>
<path d="M192.174 269.318C193.718 267.461 196.14 266.339 199.44 265.954L199.229 268.372C199.229 275.382 203.933 281.375 213.34 286.352C222.712 291.294 234.049 293.765 247.353 293.765H249.195C244.983 295.833 238.788 296.166 230.609 294.764C225.45 293.888 218.78 292.118 210.602 289.454C203.546 287.176 198.141 284.355 194.385 280.99C189.857 276.924 189.12 273.034 192.174 269.318Z" fill="#D08690"/>
<path d="M199.229 268.372L199.44 265.954C203.441 265.498 208.934 266.129 215.92 267.846L231.136 272.157C236.226 273.559 241.526 276.538 247.037 281.095C253.495 286.387 254.689 290.348 250.617 292.977L249.195 293.765H247.353C234.049 293.765 222.712 291.294 213.34 286.352C203.933 281.375 199.229 275.382 199.229 268.372Z" fill="#F09BA5"/>
<path d="M276.364 40.7267C277.698 43.4956 275.802 47.1583 270.677 51.7147C268.993 53.2218 266.641 54.431 263.622 55.3423C260.358 56.3587 257.058 56.7793 253.724 56.6041C265.026 60.9852 273.819 63.9819 280.102 65.5942C285.157 66.891 287.737 69.6599 287.842 73.9009C287.947 78.212 285.262 80.8932 279.786 81.9447L271.204 82.523L261.674 81.419L268.835 86.3083L274.679 90.9348C276.504 92.6873 277.557 94.8954 277.838 97.5592C278.084 100.153 277.54 102.221 276.206 103.763C274.626 105.55 272.766 106.672 270.625 107.128C268.449 107.583 266.167 107.32 263.78 106.339L266.887 112.227C269.414 117.274 271.713 122.514 273.784 127.947C280.453 145.401 283.788 161.717 283.788 176.893C283.788 215.272 270.8 244.048 244.825 263.22C221.939 280.148 190.647 288.613 150.947 288.613C112.863 288.613 82.1492 280.289 58.8069 263.64C31.5333 244.153 17.8965 215.22 17.8965 176.841C17.8965 161.699 21.4417 145.331 28.5322 127.737C30.7435 122.234 33.1831 116.941 35.8507 111.859L39.1678 105.918C36.9213 106.9 34.6573 107.32 32.3757 107.18C29.7782 107.005 27.6195 106.111 25.8996 104.499C24.32 102.992 23.618 100.976 23.7935 98.4529C23.969 95.8242 25.0571 93.4584 27.0579 91.3554C28.6375 89.7081 30.8137 87.9031 33.5867 85.9403C36.1842 84.0827 38.3605 82.7333 40.1155 81.8921C33.0953 83.224 26.9175 83.224 21.5821 81.8921C15.8606 80.4902 13.2456 77.7213 13.737 73.5854C14.2284 69.5197 17.2822 66.7684 22.8984 65.3313C28.0583 63.9995 36.3071 61.3182 47.6447 57.2875L41.6424 56.3938C36.974 55.2371 33.0602 53.2744 29.9011 50.5055C26.391 47.3861 25.2151 44.3543 26.3734 41.4102C27.5669 38.431 30.6207 37.1167 35.5348 37.4671C42.204 37.9578 50.523 37.5372 60.4917 36.2054C72.9878 34.523 82.3773 31.8417 88.6604 28.1616C90.1698 27.2853 93.2587 24.9545 97.9271 21.1692C102.841 17.2437 107.124 14.1594 110.774 11.9162C123.34 4.17031 137.24 0.297363 152.474 0.297363C167.463 0.297363 180.854 4.01259 192.648 11.443C196.193 13.6511 200.3 16.7004 204.968 20.5909C209.672 24.5515 212.778 27.0049 214.287 27.9513C220.36 31.8768 229.539 34.6632 241.824 36.3105C251.337 37.6073 259.55 37.9929 266.465 37.4671C271.871 37.0816 275.17 38.1681 276.364 40.7267Z" fill="#0D131A"/>
<path d="M242.456 38.7815L246.3 39.2547C247.598 41.2875 248.248 43.4606 248.248 45.7738C248.248 47.3861 247.37 49.6818 245.615 52.661C241.508 50.9787 235.664 47.8242 228.082 43.1977C226.713 42.3565 225.871 42.006 225.555 42.1462C225.239 42.2514 225.695 42.8998 226.924 44.0915C228.503 45.6687 231.171 47.5964 234.927 49.8746C240.157 53.029 246.616 56.2711 254.303 59.6008C254.97 61.143 255.303 62.7377 255.303 64.385C255.303 65.9272 254.935 67.5044 254.197 69.1167C253.495 70.6588 252.6 71.9732 251.512 73.0597C244.492 67.6621 238.735 62.3697 234.242 57.1824C232.838 55.5701 231.856 54.8166 231.294 54.9217C230.732 54.9918 231.276 56.1835 232.926 58.4967C234.471 60.6698 236.805 63.316 239.929 66.4354C243.263 69.7651 246.844 72.9721 250.67 76.0564C250.529 78.7202 249.459 81.0685 247.458 83.1013C245.563 85.0641 243.246 86.3084 240.508 86.8341L234.19 81.6819L230.294 78.3697C228.609 76.5471 227.433 75.6884 226.766 75.7936C226.099 75.8987 226.783 77.178 228.819 79.6315C230.715 81.8746 234.471 85.4497 240.087 90.3566C247.633 96.9809 254.268 101.923 259.989 105.182L266.518 118.221C271.362 129.261 274.942 140.635 277.259 152.341C278.663 171.513 276.188 189.248 269.835 205.546C263.833 220.898 254.689 234.251 242.403 245.607C230.574 256.578 216.604 265.007 200.493 270.896C184.416 276.784 167.392 279.728 149.42 279.728C124.007 279.728 101.42 275.469 81.6577 266.952C60.8427 257.98 44.5031 244.801 32.6389 227.417C25.4783 213.678 21.8979 197.064 21.8979 177.577C21.8979 162.26 25.4432 145.437 32.5336 127.106C34.7099 121.358 37.1319 115.82 39.7995 110.492L43.1166 104.184C48.9785 100.854 55.3845 96.1046 62.3345 89.936C67.9507 84.994 71.4608 81.5417 72.8648 79.5789C74.9358 76.5997 75.5676 75.1977 74.7603 75.373C74.0232 75.5132 72.742 76.5647 70.9167 78.5274C69.0564 80.4551 65.8095 83.3642 61.1761 87.2547C58.5085 86.764 56.2269 85.4847 54.3314 83.4168C52.4009 81.3138 51.3654 78.913 51.225 76.2142C54.8755 73.27 58.4383 69.9929 61.9133 66.3828C64.8267 63.2985 67.1258 60.5822 68.8106 58.2339C70.4955 55.9206 70.9167 54.7465 70.0743 54.7114C69.2319 54.6764 68.1613 55.5 66.8625 57.1824C61.8782 63.5263 56.5603 68.8889 50.9091 73.27C49.7507 72.0783 48.7679 70.7289 47.9606 69.2218C47.0479 67.4694 46.5916 65.8571 46.5916 64.385C46.5916 62.7377 46.9251 61.143 47.592 59.6008C55.244 56.3062 61.6325 53.0641 66.7572 49.8746C70.3375 47.6665 72.9701 45.7213 74.655 44.0389C75.8484 42.8472 76.1819 42.1988 75.6554 42.0937C75.1289 41.9535 74.1987 42.339 72.8648 43.2503C69.46 45.6336 66.1781 47.649 63.019 49.2963C61.0182 50.3478 58.6489 51.4343 55.911 52.5559C54.4016 49.9973 53.6469 47.7366 53.6469 45.7738C53.6469 43.4606 54.2963 41.2875 55.5951 39.2547L59.386 38.7815C67.038 37.7651 73.3913 36.4858 78.4459 34.9436C83.0091 33.5767 87.0281 31.8067 90.5032 29.6336L100.77 22.2207C105.579 18.5756 109.791 15.7191 113.407 13.6512C125.06 6.99179 138.171 3.66211 152.738 3.66211C167.55 3.66211 180.924 7.39486 192.858 14.8604C196.333 16.9984 200.264 19.8899 204.652 23.5351C208.794 26.9348 211.444 28.9677 212.603 29.6336C216.534 31.8768 220.36 33.6117 224.081 34.8385C229.03 36.5208 235.155 37.8352 242.456 38.7815Z" fill="#F6C8D6"/>
<path d="M269.835 205.546C276.188 189.248 278.663 171.513 277.259 152.341C279.084 161.349 279.997 169.761 279.997 177.577C279.997 215.185 266.834 243.137 240.508 261.432C218.324 276.819 188.471 284.512 150.948 284.512C124.411 284.512 101.016 279.973 80.7628 270.896C58.5438 260.907 42.5026 246.414 32.6392 227.417C44.5033 244.801 60.8429 257.98 81.6579 266.953C101.42 275.469 124.007 279.728 149.421 279.728C167.392 279.728 184.417 276.784 200.493 270.896C216.604 265.007 230.575 256.578 242.404 245.607C254.689 234.252 263.833 220.898 269.835 205.546Z" fill="#D5ADBA"/>
<path d="M51.2251 76.2144C51.3655 78.9132 52.401 81.314 54.3316 83.417C56.2271 85.4849 58.5086 86.7642 61.1763 87.2549C58.1576 89.7784 53.2084 93.4236 46.3285 98.1903C41.7303 101.345 37.834 103.132 34.6398 103.553C32.2881 103.833 30.3926 103.343 28.9535 102.081C27.5845 100.854 27.0053 99.3469 27.2159 97.5594C27.3915 95.7368 28.3216 93.9318 30.0065 92.1443C31.2701 90.8124 33.1129 89.2877 35.5349 87.5703L46.3285 79.9471L51.2251 76.2144Z" fill="#F09BA5"/>
<path d="M47.9606 69.2216C48.7679 70.7287 49.7508 72.0781 50.9091 73.2698C47.5043 75.9336 44.5734 77.8963 42.1163 79.1581L32.1124 80.3147C27.8301 80.4549 24.4955 80.0694 22.1086 79.1581C19.0899 77.9664 17.5806 76.1439 17.5806 73.6904C17.5806 71.1669 19.2479 69.4319 22.5825 68.4856L30.6908 66.0672C34.6222 64.8054 38.8168 63.2457 43.2746 61.3881L47.5921 59.6006C46.9251 61.1428 46.5917 62.7375 46.5917 64.3848C46.5917 65.8569 47.048 67.4692 47.9606 69.2216Z" fill="#F09BA5"/>
<path d="M35.3243 40.2012L42.2743 40.4641L55.5952 39.2549C54.2965 41.2877 53.6471 43.4608 53.6471 45.7741C53.6471 47.7368 54.4018 49.9975 55.9111 52.5561C52.1904 54.0983 49.3472 54.7817 47.3816 54.6065L39.6418 53.3447C36.9039 52.4685 34.4468 50.9614 32.2705 48.8233C29.9889 46.5451 29.322 44.4597 30.2697 42.567C31.1473 40.7795 32.8321 39.9909 35.3243 40.2012Z" fill="#F09BA5"/>
<path d="M271.888 92.1443C273.468 93.5813 274.38 95.2987 274.626 97.2965C274.837 99.2943 274.275 100.889 272.941 102.081C271.467 103.378 269.554 103.921 267.202 103.711C263.973 103.43 260.059 101.713 255.461 98.5583C251.81 96.0698 246.826 92.1618 240.508 86.8343C243.246 86.3086 245.562 85.0643 247.458 83.1015C249.459 81.0687 250.529 78.7204 250.67 76.0566L255.566 79.7894C263.359 85.3622 268.799 89.4805 271.888 92.1443Z" fill="#F09BA5"/>
<path d="M272.099 41.4104C273.363 42.567 273.17 44.2845 271.52 46.5627C268.817 50.3129 264.816 52.7313 259.515 53.8179C254.566 54.8343 249.933 54.4488 245.615 52.6612C247.37 49.682 248.248 47.3863 248.248 45.7741C248.248 43.4608 247.598 41.2877 246.3 39.2549L259.621 40.4641L266.571 40.2012C269.168 39.9909 271.011 40.394 272.099 41.4104Z" fill="#F09BA5"/>
<path d="M271.151 66.0672L279.312 68.4856C282.928 69.502 284.525 71.4998 284.104 74.479C283.682 77.4232 281.734 79.0705 278.259 79.421C270.818 80.2271 264.377 79.9818 258.936 78.6849L251.512 73.0595C252.6 71.973 253.495 70.6586 254.197 69.1165C254.935 67.5042 255.303 65.927 255.303 64.3848C255.303 62.7375 254.97 61.1428 254.303 59.6006L258.568 61.3881C263.025 63.2457 267.22 64.8054 271.151 66.0672Z" fill="#F09BA5"/>
<path d="M129.887 51.1365C128.483 51.1365 127.307 50.2603 126.359 48.5078C125.376 46.7554 124.885 44.6349 124.885 42.1464C124.885 39.6579 125.376 37.5374 126.359 35.7849C127.307 34.0325 128.483 33.1562 129.887 33.1562C131.256 33.1562 132.432 34.0325 133.414 35.7849C134.397 37.5725 134.889 39.6929 134.889 42.1464C134.889 44.6349 134.397 46.7554 133.414 48.5078C132.432 50.2603 131.256 51.1365 129.887 51.1365Z" fill="#0D131A"/>
<path d="M129.887 43.2504C129.29 43.2504 128.763 42.8298 128.307 41.9886C127.886 41.1474 127.675 40.1485 127.675 38.9919C127.675 37.8002 127.886 36.8013 128.307 35.9952C128.763 35.154 129.29 34.7334 129.887 34.7334C130.483 34.7334 130.992 35.154 131.414 35.9952C131.835 36.8013 132.045 37.8002 132.045 38.9919C132.045 40.1485 131.835 41.1474 131.414 41.9886C130.992 42.8298 130.483 43.2504 129.887 43.2504Z" fill="white"/>
<path d="M126.096 102.08C122.094 104.183 119.549 105.585 118.461 106.286C115.969 107.829 114.547 108.354 114.196 107.864C113.845 107.373 114.916 106.339 117.408 104.762C122.287 101.677 127.868 98.3827 134.151 94.8778C136.889 93.3356 139.592 92.6347 142.26 92.7748C144.752 92.88 146.84 93.6861 148.525 95.1933C152.211 98.6281 152.281 104.148 148.736 111.754C146.946 115.574 144.313 119.71 140.838 124.162C137.89 127.947 135.503 130.558 133.677 131.995C132.133 133.292 131.027 133.835 130.36 133.625C129.658 133.379 130.185 132.433 131.94 130.786C133.941 128.963 136.521 125.896 139.68 121.585C143.05 117.029 145.226 113.489 146.209 110.965C147.332 108.161 147.911 105.498 147.946 102.974C147.946 100.24 147.262 98.3126 145.893 97.1911C142.839 94.7376 139.118 94.8077 134.731 97.4014L126.096 102.08Z" fill="#0D131A"/>
<path d="M187.54 162.278C197.579 175.456 202.599 190.405 202.599 207.123C202.599 223.036 197.509 235.934 187.33 245.818C177.572 255.316 165.339 260.065 150.632 260.065C135.994 260.065 123.832 255.281 114.144 245.712C104.105 235.794 99.0854 222.86 99.0854 206.913C99.0854 190.264 104.175 175.351 114.354 162.172C124.815 148.643 137.047 141.879 151.053 141.879C165.023 141.879 177.186 148.678 187.54 162.278Z" fill="#0D131A"/>
<path d="M185.329 164.591C195.157 177.279 200.071 191.456 200.071 207.123C200.071 222.054 195.175 234.251 185.381 243.715C176.045 252.757 164.566 257.279 150.947 257.279C137.363 257.279 125.938 252.722 116.671 243.61C106.948 234.111 102.086 221.879 102.086 206.913C102.086 191.246 106.93 177.103 116.618 164.486C126.517 151.553 137.925 145.086 150.842 145.086C163.794 145.086 175.29 151.588 185.329 164.591Z" fill="#FFFBDA"/>
<path d="M172.008 51.1365C170.639 51.1365 169.463 50.2603 168.481 48.5078C167.498 46.7554 167.006 44.6349 167.006 42.1464C167.006 39.6929 167.498 37.5725 168.481 35.7849C169.463 34.0325 170.639 33.1562 172.008 33.1562C173.412 33.1562 174.588 34.0325 175.536 35.7849C176.519 37.5374 177.01 39.6579 177.01 42.1464C177.01 44.6349 176.519 46.7554 175.536 48.5078C174.588 50.2603 173.412 51.1365 172.008 51.1365Z" fill="#0D131A"/>
<path d="M172.008 43.2504C171.412 43.2504 170.903 42.8298 170.481 41.9886C170.06 41.1474 169.85 40.1485 169.85 38.9919C169.85 37.8002 170.06 36.8013 170.481 35.9952C170.903 35.154 171.412 34.7334 172.008 34.7334C172.605 34.7334 173.132 35.154 173.588 35.9952C174.009 36.8013 174.22 37.8002 174.22 38.9919C174.22 40.1485 174.009 41.1474 173.588 41.9886C173.132 42.8298 172.605 43.2504 172.008 43.2504Z" fill="white"/>
<path d="M184.434 105.13C186.961 106.707 187.926 107.793 187.33 108.389C186.733 108.985 185.241 108.407 182.854 106.654C180.608 105.077 175.378 101.993 167.164 97.4012C164.953 96.1394 162.917 95.4384 161.057 95.2982C158.88 95.158 157.09 95.7364 155.686 97.0332C154.247 98.33 153.58 100.31 153.685 102.974C153.755 105.357 154.44 108.074 155.739 111.123C156.757 113.541 159.021 117.011 162.531 121.533C165.69 125.563 168.322 128.56 170.429 130.523C172.219 132.17 172.728 133.081 171.955 133.257C171.218 133.397 170.078 132.836 168.533 131.574C166.427 129.822 163.987 127.333 161.214 124.109C157.564 119.833 154.861 115.837 153.106 112.122C151.211 108.056 150.333 104.481 150.474 101.397C150.579 98.6279 151.474 96.4549 153.159 94.8776C154.773 93.4406 157.002 92.7396 159.846 92.7747C162.689 92.8448 165.409 93.6159 168.007 95.0879C172.289 97.5063 177.765 100.854 184.434 105.13Z" fill="#0D131A"/>
<path d="M141.365 58.707C140.031 58.4967 139.206 58.1111 138.89 57.5503C138.574 57.0246 138.802 56.7617 139.574 56.7617L144.26 57.1297L150.947 57.4452L161.846 56.8143C162.689 56.8143 162.987 57.0772 162.741 57.6029C162.496 58.1286 161.811 58.4441 160.688 58.5492C160.442 61.5985 159.582 64.1221 158.108 66.1199C156.318 68.5383 153.861 69.7475 150.737 69.7475C147.613 69.7475 145.173 68.328 143.418 65.489C142.049 63.3159 141.365 61.0553 141.365 58.707Z" fill="#0D131A"/>
<path d="M157.266 64.1223C155.476 63.176 153.299 62.6327 150.737 62.4925C148.245 62.3523 146.016 62.6327 144.05 63.3337C143.137 61.6163 142.681 60.1442 142.681 58.9175L150.79 59.2329L159.161 58.7598C159.161 60.4071 158.529 62.1946 157.266 64.1223Z" fill="#922F00"/>
<path d="M144.05 63.3338C146.015 62.6328 148.244 62.3524 150.737 62.4926C153.299 62.6328 155.475 63.176 157.265 64.1224C155.545 66.716 153.281 68.0128 150.473 68.0128C147.806 68.0128 145.664 66.4531 144.05 63.3338Z" fill="#ED8599"/>
<path d="M203.494 197.713L204.073 200.446C204.459 202.655 204.652 204.757 204.652 206.755C204.652 223.334 199.247 236.985 188.435 247.71C178.081 257.945 165.532 263.062 150.789 263.062C135.415 263.062 122.603 257.577 112.354 246.606C102.069 235.636 96.9268 221.967 96.9268 205.599C96.9268 203.601 97.1374 201.621 97.5586 199.658L98.1904 197.292C103.736 200.131 112.845 202.216 125.517 203.548L150.789 204.863L176.115 203.759C188.857 202.532 197.983 200.517 203.494 197.713Z" fill="#0D131A"/>
<path d="M148.789 252.705C161.039 252.705 172.043 249.025 181.801 241.664C191.349 234.409 197.843 225.051 201.282 213.59C199.738 226.488 194.21 237.283 184.697 245.975C175.079 254.703 163.83 259.066 150.947 259.066C141.786 259.066 133.256 256.718 125.359 252.021C117.707 247.465 111.652 241.279 107.194 233.463C112.319 239.456 118.426 244.135 125.517 247.5C132.853 250.97 140.61 252.705 148.789 252.705Z" fill="#D08690"/>
<path d="M201.282 201.813C201.528 203.671 201.651 205.494 201.651 207.281L201.282 213.59C197.842 225.051 191.349 234.409 181.801 241.665C172.043 249.025 161.039 252.705 148.789 252.705C140.61 252.705 132.853 250.97 125.516 247.5C118.426 244.136 112.318 239.456 107.194 233.463C102.56 225.437 100.244 216.709 100.244 207.281C100.244 205.494 100.367 203.671 100.612 201.813C105.351 203.461 112.775 204.898 122.884 206.125L150.947 207.912L179.011 206.125C189.12 204.898 196.544 203.461 201.282 201.813Z" fill="#F09BA5"/>
<path d="M143.05 62.913C145.682 61.7914 148.122 61.2657 150.368 61.3358C153.106 61.4409 155.739 62.2821 158.266 63.8593C158.617 64.0696 158.635 64.3675 158.319 64.7531C158.003 65.1036 157.687 65.1912 157.371 65.016C155.44 63.8593 153.089 63.246 150.316 63.1759C147.613 63.0707 145.349 63.4563 143.524 64.3325C143.102 64.5077 142.804 64.3675 142.628 63.9119C142.418 63.4913 142.558 63.1583 143.05 62.913Z" fill="#0D131A"/>
</g>
<defs>
<radialGradient id="paint0_radial_864_1121" cx="0" cy="0" r="1" gradientUnits="userSpaceOnUse" gradientTransform="translate(150 150) rotate(90) scale(200)">
<stop stop-color="#FFFBDA"/>
<stop offset="1" stop-color="#F09BA5"/>
</radialGradient>
<clipPath id="clip0_864_1121">
<rect width="300" height="300" fill="white"/>
</clipPath>
</defs>
</svg>
