<svg xmlns="http://www.w3.org/2000/svg" fill="none" viewBox="0 0 300 300"><g clip-path="url(#a)"><path fill="#fff" d="M0 0h300v300H0z"/><path fill="url(#b)" d="M-50-50h400v400H-50z"/><path fill="#0D131A" d="M110.037 265.112c3.405 2.489 5.283 4.995 5.634 7.518.456 3.575-1.913 7.501-7.108 11.777-2.773 2.278-7.126 4.626-13.058 7.045a115.849 115.849 0 0 1-18.797 5.888c-16.111 3.575-26.203 2.681-30.274-2.681-3.51-4.592-1.685-9.726 5.475-15.404 5.652-4.487 13.076-8.377 22.272-11.672 5.511-1.963 12.057-3.294 19.64-3.995 8.318-.807 13.724-.298 16.216 1.524Z"/><path fill="#D08690" d="M109.668 269.318c3.089 3.716 2.37 7.606-2.158 11.672-3.756 3.365-9.162 6.186-16.217 8.464-8.179 2.664-14.848 4.434-20.008 5.31-8.178 1.402-14.374 1.069-18.586-.999h1.843c13.303 0 24.641-2.471 34.013-7.413 9.407-4.977 14.111-10.97 14.111-17.98l-.211-2.418c3.3.385 5.704 1.507 7.213 3.364Z"/><path fill="#F09BA5" d="m102.455 265.954.211 2.418c0 7.01-4.704 13.003-14.111 17.98-9.372 4.942-20.71 7.413-34.013 7.413h-1.843l-1.421-.788c-4.072-2.629-2.879-6.59 3.58-11.882 5.51-4.557 10.811-7.536 15.9-8.938l15.217-4.311c6.985-1.717 12.479-2.348 16.48-1.892Z"/><path fill="#0D131A" d="M208.285 263.64c7.512.736 14.041 2.103 19.587 4.101 9.231 3.26 16.725 7.15 22.482 11.671 7.266 5.713 9.038 10.796 5.318 15.247-3.967 4.696-12.795 5.906-26.484 3.627-12.531-2.103-23.132-5.783-31.802-11.04-6.739-4.066-10.197-8.359-10.372-12.881-.141-3.575 1.579-6.659 5.16-9.253 2.492-1.822 7.862-2.313 16.111-1.472Z"/><path fill="#D08690" d="M192.174 269.318c1.544-1.857 3.966-2.979 7.266-3.364l-.211 2.418c0 7.01 4.704 13.003 14.111 17.98 9.372 4.942 20.709 7.413 34.013 7.413h1.842c-4.212 2.068-10.407 2.401-18.586.999-5.159-.876-11.829-2.646-20.007-5.31-7.056-2.278-12.461-5.099-16.217-8.464-4.528-4.066-5.265-7.956-2.211-11.672Z"/><path fill="#F09BA5" d="m199.229 268.372.211-2.418c4.001-.456 9.494.175 16.48 1.892l15.216 4.311c5.09 1.402 10.39 4.381 15.901 8.938 6.458 5.292 7.652 9.253 3.58 11.882l-1.422.788h-1.842c-13.304 0-24.641-2.471-34.013-7.413-9.407-4.977-14.111-10.97-14.111-17.98Z"/><path fill="#0D131A" d="M276.364 40.727c1.334 2.769-.562 6.431-5.687 10.988-1.684 1.507-4.036 2.716-7.055 3.627-3.264 1.017-6.564 1.437-9.898 1.262 11.302 4.381 20.095 7.378 26.378 8.99 5.055 1.297 7.635 4.066 7.74 8.307.105 4.311-2.58 6.992-8.056 8.044l-8.582.578-9.53-1.104 7.161 4.89 5.844 4.626c1.825 1.752 2.878 3.96 3.159 6.624.246 2.594-.298 4.662-1.632 6.204-1.58 1.787-3.44 2.909-5.581 3.365-2.176.455-4.458.192-6.845-.789l3.107 5.888a171.629 171.629 0 0 1 6.897 15.72c6.669 17.454 10.004 33.77 10.004 48.946 0 38.379-12.988 67.155-38.963 86.327-22.886 16.928-54.178 25.393-93.878 25.393-38.084 0-68.798-8.324-92.14-24.973-27.274-19.487-40.91-48.42-40.91-86.799 0-15.142 3.545-31.51 10.635-49.104a172.611 172.611 0 0 1 7.319-15.878l3.317-5.941c-2.247.982-4.51 1.402-6.792 1.262-2.598-.175-4.756-1.069-6.476-2.681-1.58-1.507-2.282-3.523-2.106-6.046.175-2.629 1.263-4.995 3.264-7.098 1.58-1.647 3.756-3.452 6.529-5.415 2.597-1.857 4.773-3.207 6.528-4.048-7.02 1.332-13.198 1.332-18.533 0-5.721-1.402-8.336-4.17-7.845-8.307.491-4.065 3.545-6.817 9.161-8.254 5.16-1.332 13.41-4.013 24.747-8.044l-6.003-.893c-4.668-1.157-8.582-3.12-11.74-5.889-3.511-3.119-4.687-6.15-3.529-9.095 1.194-2.979 4.248-4.293 9.162-3.943 6.669.49 14.988.07 24.957-1.262 12.496-1.682 21.885-4.363 28.168-8.043 1.51-.877 4.599-3.207 9.267-6.993 4.914-3.925 9.197-7.01 12.847-9.253C123.34 4.17 137.24.297 152.474.297c14.989 0 28.38 3.716 40.174 11.146 3.545 2.208 7.652 5.257 12.32 9.148 4.704 3.96 7.81 6.414 9.319 7.36 6.073 3.926 15.252 6.712 27.537 8.36 9.513 1.296 17.726 1.682 24.641 1.156 5.406-.385 8.705.701 9.899 3.26Z"/><path fill="#F6C8D6" d="m242.456 38.782 3.844.473c1.298 2.032 1.948 4.206 1.948 6.519 0 1.612-.878 3.908-2.633 6.887-4.107-1.682-9.951-4.837-17.533-9.463-1.369-.842-2.211-1.192-2.527-1.052-.316.105.14.754 1.369 1.946 1.579 1.577 4.247 3.504 8.003 5.783 5.23 3.154 11.689 6.396 19.376 9.726.667 1.542 1 3.137 1 4.784 0 1.542-.368 3.12-1.106 4.732-.702 1.542-1.597 2.856-2.685 3.943-7.02-5.398-12.777-10.69-17.27-15.878-1.404-1.612-2.386-2.365-2.948-2.26-.562.07-.018 1.262 1.632 3.575 1.545 2.173 3.879 4.819 7.003 7.938a135.703 135.703 0 0 0 10.741 9.621c-.141 2.664-1.211 5.013-3.212 7.045-1.895 1.963-4.212 3.207-6.95 3.733l-6.318-5.152-3.896-3.312c-1.685-1.823-2.861-2.682-3.528-2.576-.667.105.017 1.384 2.053 3.838 1.896 2.243 5.652 5.818 11.268 10.725 7.546 6.624 14.181 11.566 19.902 14.825l6.529 13.039a163.88 163.88 0 0 1 10.741 34.12c1.404 19.172-1.071 36.907-7.424 53.205-6.002 15.352-15.146 28.705-27.432 40.061-11.829 10.971-25.799 19.4-41.91 25.289-16.077 5.888-33.101 8.832-51.073 8.832-25.413 0-48-4.259-67.762-12.776-20.815-8.972-37.155-22.151-49.02-39.535-7.16-13.739-10.74-30.353-10.74-49.84 0-15.317 3.545-32.14 10.636-50.471a177.34 177.34 0 0 1 7.266-16.614l3.317-6.308c5.861-3.33 12.268-8.08 19.218-14.248 5.616-4.942 9.126-8.394 10.53-10.357 2.07-2.98 2.703-4.381 1.895-4.206-.737.14-2.018 1.192-3.843 3.154-1.86 1.928-5.108 4.837-9.74 8.728-2.669-.491-4.95-1.77-6.846-3.838-1.93-2.103-2.966-4.504-3.106-7.203 3.65-2.944 7.213-6.221 10.688-9.831 2.914-3.084 5.213-5.8 6.898-8.15 1.684-2.312 2.106-3.486 1.263-3.522-.842-.035-1.913.789-3.212 2.471C61.878 63.526 56.56 68.89 50.91 73.27a17.895 17.895 0 0 1-2.948-4.048c-.913-1.753-1.37-3.365-1.37-4.837 0-1.647.334-3.242 1.001-4.784 7.652-3.295 14.04-6.537 19.165-9.726 3.58-2.209 6.213-4.154 7.898-5.836 1.193-1.192 1.527-1.84 1-1.945-.526-.14-1.456.245-2.79 1.156-3.405 2.384-6.687 4.399-9.846 6.046-2 1.052-4.37 2.138-7.108 3.26-1.51-2.559-2.264-4.82-2.264-6.782 0-2.313.65-4.486 1.948-6.52l3.791-.472c7.652-1.017 14.005-2.296 19.06-3.838 4.563-1.367 8.582-3.137 12.057-5.31l10.267-7.413c4.809-3.645 9.021-6.502 12.637-8.57 11.653-6.66 24.764-9.989 39.331-9.989 14.812 0 28.186 3.733 40.12 11.198 3.475 2.138 7.406 5.03 11.794 8.675 4.142 3.4 6.792 5.433 7.951 6.099 3.931 2.243 7.757 3.978 11.478 5.205 4.949 1.682 11.074 2.996 18.375 3.943Z"/><path fill="#D5ADBA" d="M269.835 205.546c6.353-16.298 8.828-34.033 7.424-53.205 1.825 9.008 2.738 17.42 2.738 25.236 0 37.608-13.163 65.56-39.489 83.855-22.184 15.387-52.037 23.08-89.56 23.08-26.537 0-49.932-4.539-70.185-13.616-22.22-9.989-38.26-24.482-48.124-43.479 11.864 17.384 28.204 30.563 49.019 39.536 19.762 8.516 42.349 12.775 67.763 12.775 17.971 0 34.996-2.944 51.072-8.832 16.111-5.889 30.082-14.318 41.911-25.289 12.285-11.355 21.429-24.709 27.431-40.061Z"/><path fill="#F09BA5" d="M51.225 76.214c.14 2.7 1.176 5.1 3.107 7.203 1.895 2.068 4.177 3.347 6.844 3.838-3.018 2.523-7.968 6.169-14.848 10.935-4.598 3.155-8.494 4.942-11.688 5.363-2.352.28-4.247-.21-5.687-1.472-1.369-1.227-1.948-2.734-1.737-4.522.175-1.822 1.106-3.627 2.79-5.415 1.264-1.332 3.107-2.856 5.529-4.574l10.794-7.623 4.896-3.733ZM47.96 69.222a17.898 17.898 0 0 0 2.95 4.048c-3.406 2.664-6.337 4.626-8.794 5.888l-10.004 1.157c-4.282.14-7.617-.246-10.003-1.157-3.02-1.192-4.528-3.014-4.528-5.468 0-2.523 1.667-4.258 5.002-5.204l8.108-2.419c3.931-1.262 8.126-2.821 12.584-4.679l4.317-1.787c-.667 1.542-1 3.136-1 4.784 0 1.472.456 3.084 1.369 4.837ZM35.324 40.201l6.95.263 13.321-1.21c-1.298 2.034-1.948 4.207-1.948 6.52 0 1.963.755 4.224 2.264 6.782-3.72 1.542-6.564 2.226-8.53 2.05l-7.74-1.261c-2.737-.877-5.194-2.384-7.37-4.522-2.282-2.278-2.949-4.363-2.001-6.256.877-1.788 2.562-2.576 5.054-2.366ZM271.888 92.144c1.58 1.437 2.492 3.155 2.738 5.152.211 1.998-.351 3.593-1.685 4.785-1.474 1.297-3.387 1.84-5.739 1.63-3.229-.281-7.143-1.998-11.741-5.153-3.651-2.488-8.635-6.396-14.953-11.724 2.738-.525 5.054-1.77 6.95-3.733 2.001-2.032 3.071-4.38 3.212-7.044l4.896 3.732c7.793 5.573 13.233 9.692 16.322 12.355ZM272.099 41.41c1.264 1.157 1.071 2.875-.579 5.153-2.703 3.75-6.704 6.168-12.005 7.255-4.949 1.016-9.582.63-13.9-1.157 1.755-2.979 2.633-5.275 2.633-6.887 0-2.313-.65-4.486-1.948-6.52l13.321 1.21 6.95-.263c2.597-.21 4.44.193 5.528 1.21ZM271.151 66.067l8.161 2.419c3.616 1.016 5.213 3.014 4.792 5.993-.422 2.944-2.37 4.591-5.845 4.942-7.441.806-13.882.56-19.323-.736l-7.424-5.626c1.088-1.086 1.983-2.4 2.685-3.942.738-1.613 1.106-3.19 1.106-4.732 0-1.648-.333-3.242-1-4.784l4.265 1.787c4.457 1.858 8.652 3.417 12.583 4.68Z"/><path fill="#0D131A" d="M129.887 51.136c-1.404 0-2.58-.876-3.528-2.628-.983-1.753-1.474-3.873-1.474-6.362 0-2.488.491-4.609 1.474-6.361.948-1.752 2.124-2.629 3.528-2.629 1.369 0 2.545.877 3.527 2.629.983 1.788 1.475 3.908 1.475 6.361 0 2.489-.492 4.61-1.475 6.362-.982 1.752-2.158 2.628-3.527 2.628Z"/><path fill="#fff" d="M129.887 43.25c-.597 0-1.124-.42-1.58-1.261-.421-.842-.632-1.84-.632-2.997 0-1.192.211-2.19.632-2.997.456-.841.983-1.262 1.58-1.262.596 0 1.105.421 1.527 1.262.421.806.631 1.805.631 2.997 0 1.157-.21 2.155-.631 2.997-.422.84-.931 1.261-1.527 1.261Z"/><path fill="#0D131A" d="M126.096 102.08c-4.002 2.103-6.547 3.505-7.635 4.206-2.492 1.543-3.914 2.068-4.265 1.578-.351-.491.72-1.525 3.212-3.102 4.879-3.085 10.46-6.38 16.743-9.884 2.738-1.542 5.441-2.243 8.109-2.103 2.492.105 4.58.911 6.265 2.418 3.686 3.435 3.756 8.955.211 16.561-1.79 3.82-4.423 7.956-7.898 12.408-2.948 3.785-5.335 6.396-7.161 7.833-1.544 1.297-2.65 1.84-3.317 1.63-.702-.246-.175-1.192 1.58-2.839 2.001-1.823 4.581-4.89 7.74-9.201 3.37-4.556 5.546-8.096 6.529-10.62 1.123-2.804 1.702-5.467 1.737-7.991 0-2.734-.684-4.661-2.053-5.783-3.054-2.453-6.775-2.383-11.162.21l-8.635 4.679ZM187.54 162.278c10.039 13.178 15.059 28.127 15.059 44.845 0 15.913-5.09 28.811-15.269 38.695-9.758 9.498-21.991 14.247-36.698 14.247-14.638 0-26.8-4.784-36.488-14.353-10.039-9.918-15.059-22.852-15.059-38.799 0-16.649 5.09-31.562 15.269-44.741 10.461-13.529 22.693-20.293 36.699-20.293 13.97 0 26.133 6.799 36.487 20.399Z"/><path fill="#FFFBDA" d="M185.329 164.591c9.828 12.688 14.742 26.865 14.742 42.532 0 14.931-4.896 27.128-14.69 36.592-9.336 9.042-20.815 13.564-34.434 13.564-13.584 0-25.009-4.557-34.276-13.669-9.723-9.499-14.585-21.731-14.585-36.697 0-15.667 4.844-29.81 14.532-42.427 9.899-12.933 21.307-19.4 34.224-19.4 12.952 0 24.448 6.502 34.487 19.505Z"/><path fill="#0D131A" d="M172.008 51.136c-1.369 0-2.545-.876-3.527-2.628-.983-1.753-1.475-3.873-1.475-6.362 0-2.453.492-4.574 1.475-6.361.982-1.752 2.158-2.629 3.527-2.629 1.404 0 2.58.877 3.528 2.629.983 1.752 1.474 3.873 1.474 6.361 0 2.489-.491 4.61-1.474 6.362-.948 1.752-2.124 2.628-3.528 2.628Z"/><path fill="#fff" d="M172.008 43.25c-.596 0-1.105-.42-1.527-1.261-.421-.842-.631-1.84-.631-2.997 0-1.192.21-2.19.631-2.997.422-.841.931-1.262 1.527-1.262.597 0 1.124.421 1.58 1.262.421.806.632 1.805.632 2.997 0 1.157-.211 2.155-.632 2.997-.456.84-.983 1.261-1.58 1.261Z"/><path fill="#0D131A" d="M184.434 105.13c2.527 1.577 3.492 2.663 2.896 3.259-.597.596-2.089.018-4.476-1.735-2.246-1.577-7.476-4.661-15.69-9.253-2.211-1.262-4.247-1.963-6.107-2.103-2.177-.14-3.967.438-5.371 1.735-1.439 1.297-2.106 3.277-2.001 5.941.07 2.383.755 5.1 2.054 8.149 1.018 2.418 3.282 5.888 6.792 10.41 3.159 4.03 5.791 7.027 7.898 8.99 1.79 1.647 2.299 2.558 1.526 2.734-.737.14-1.877-.421-3.422-1.683-2.106-1.752-4.546-4.241-7.319-7.465-3.65-4.276-6.353-8.272-8.108-11.987-1.895-4.066-2.773-7.641-2.632-10.725.105-2.77 1-4.942 2.685-6.52 1.614-1.436 3.843-2.137 6.687-2.102 2.843.07 5.563.84 8.161 2.313 4.282 2.418 9.758 5.766 16.427 10.042ZM141.365 58.707c-1.334-.21-2.159-.596-2.475-1.157-.316-.525-.088-.788.684-.788l4.686.368 6.687.315 10.899-.63c.843 0 1.141.262.895.788-.245.526-.93.841-2.053.946-.246 3.05-1.106 5.573-2.58 7.57-1.79 2.42-4.247 3.629-7.371 3.629-3.124 0-5.564-1.42-7.319-4.259-1.369-2.173-2.053-4.434-2.053-6.782Z"/><path fill="#922F00" d="M157.266 64.122c-1.79-.946-3.967-1.49-6.529-1.63-2.492-.14-4.721.14-6.687.842-.913-1.718-1.369-3.19-1.369-4.417l8.109.316 8.371-.473c0 1.647-.632 3.435-1.895 5.362Z"/><path fill="#ED8599" d="M144.05 63.334c1.965-.701 4.194-.982 6.687-.841 2.562.14 4.738.683 6.528 1.63-1.72 2.593-3.984 3.89-6.792 3.89-2.667 0-4.809-1.56-6.423-4.68Z"/><path fill="#0D131A" d="m203.494 197.713.579 2.733c.386 2.209.579 4.311.579 6.309 0 16.579-5.405 30.23-16.217 40.955-10.354 10.235-22.903 15.352-37.646 15.352-15.374 0-28.186-5.485-38.435-16.456-10.285-10.97-15.427-24.639-15.427-41.007 0-1.998.21-3.978.632-5.941l.631-2.366c5.546 2.839 14.655 4.924 27.327 6.256l25.272 1.315 25.326-1.104c12.742-1.227 21.868-3.242 27.379-6.046Z"/><path fill="#D08690" d="M148.789 252.705c12.25 0 23.254-3.68 33.012-11.041 9.548-7.255 16.042-16.613 19.481-28.074-1.544 12.898-7.072 23.693-16.585 32.385-9.618 8.728-20.867 13.091-33.75 13.091-9.161 0-17.691-2.348-25.588-7.045-7.652-4.556-13.707-10.742-18.165-18.558 5.125 5.993 11.232 10.672 18.323 14.037 7.336 3.47 15.093 5.205 23.272 5.205Z"/><path fill="#F09BA5" d="M201.282 201.813a41.64 41.64 0 0 1 .369 5.468l-.369 6.309c-3.44 11.461-9.933 20.819-19.481 28.075-9.758 7.36-20.762 11.04-33.012 11.04-8.179 0-15.936-1.735-23.273-5.205-7.09-3.364-13.198-8.044-18.322-14.037-4.634-8.026-6.95-16.754-6.95-26.182 0-1.787.123-3.61.368-5.468 4.739 1.648 12.163 3.085 22.272 4.312l28.063 1.787 28.064-1.787c10.109-1.227 17.533-2.664 22.271-4.312Z"/><path fill="#0D131A" d="M143.05 62.913c2.632-1.122 5.072-1.647 7.318-1.577 2.738.105 5.371.946 7.898 2.523.351.21.369.509.053.894-.316.35-.632.438-.948.263-1.931-1.157-4.282-1.77-7.055-1.84-2.703-.105-4.967.28-6.792 1.156-.422.176-.72.036-.896-.42-.21-.42-.07-.754.422-.999Z"/></g><defs><radialGradient id="b" cx="0" cy="0" r="1" gradientTransform="rotate(90 0 150) scale(200)" gradientUnits="userSpaceOnUse"><stop stop-color="#FFFBDA"/><stop offset="1" stop-color="#F09BA5"/></radialGradient><clipPath id="a"><path fill="#fff" d="M0 0h300v300H0z"/></clipPath></defs></svg>