<svg width="300" height="300" viewBox="0 0 300 300" fill="none" xmlns="http://www.w3.org/2000/svg">
<g clip-path="url(#clip0_861_427)">
<rect width="300" height="300" fill="white"/>
<g clip-path="url(#clip1_861_427)">
<rect x="-30" y="-23" width="350" height="350" fill="url(#paint0_radial_861_427)"/>
<path d="M210.958 115.964L210.421 115.592L211.123 117.078C211.343 117.518 211.838 118.04 212.608 118.645L213.763 119.677L213.722 118.522C213.667 117.972 212.746 117.119 210.958 115.964ZM235.3 103.463C235.63 102.198 236.276 100.644 237.239 98.8007L238.641 96.284C238.971 95.7889 239.425 95.6239 240.003 95.7889C240.553 95.9815 240.8 96.3803 240.745 96.9854L240.333 102.679C240.085 106.695 240.03 109.418 240.168 110.848C240.25 111.535 240.429 112.058 240.704 112.416L241.901 113.323L243.633 114.355C244.431 114.905 245.022 115.496 245.408 116.129C246.398 117.696 247.058 120.117 247.388 123.39C247.718 126.416 247.649 128.671 247.182 130.156C247.017 130.679 246.989 131.133 247.099 131.518C247.182 131.875 247.429 132.288 247.842 132.755L248.791 133.292L249.616 133.911L249.946 135.355C249.918 135.712 249.726 136.097 249.368 136.51L248.461 137.747C248.13 138.353 247.965 138.903 247.965 139.398L248.213 141.089C248.323 141.997 248.282 142.712 248.089 143.235C247.842 144.005 247.333 144.404 246.563 144.431C245.683 144.349 245.077 144.349 244.747 144.431C244.087 144.624 243.578 144.871 243.221 145.174C242.698 145.724 242.354 146.453 242.189 147.36C241.997 148.241 242.024 148.956 242.272 149.506L243.056 149.753L244.005 150.001L245.284 150.29C245.779 150.537 246.068 150.95 246.15 151.527L245.531 152.394L244.376 153.797L242.85 155.406C242.189 156.148 242.038 156.671 242.396 156.973C242.643 157.166 243.111 156.767 243.798 155.777C244.789 154.347 245.573 153.356 246.15 152.806C247.855 151.156 249.657 150.015 251.555 149.382C253.838 148.502 254.979 148.158 254.979 148.351L254.36 149.176L253.7 149.96C255.516 149.079 258.046 148.034 261.292 146.824L263.231 146.494C264.221 146.356 264.73 146.356 264.757 146.494C264.812 146.742 264.441 147.154 263.643 147.732L262.075 148.804L251.472 157.097C250.372 157.977 249.286 159.256 248.213 160.934C247.305 162.282 246.7 163.423 246.398 164.358C246.205 164.991 245.861 165.472 245.366 165.802L243.881 166.669L243.097 167.246L243.138 167.494C243.331 168.319 243.303 169.406 243.056 170.753L242.189 171.661L241.241 172.445C247.704 183.034 251.899 193.541 253.824 203.965C256.739 219.588 254.113 233.423 245.944 245.47C235.575 260.735 223.074 270.307 208.441 274.185C202.198 275.835 195.046 276.633 186.987 276.578L163.553 274.886C150.241 273.374 137.864 268.354 126.422 259.827C122.791 257.104 119.449 254.161 116.396 250.998L112.559 246.708L113.261 243.283L180.262 225.254L181.418 230.122L183.315 228.39C183.453 227.922 183.453 227.468 183.315 227.028C183.178 226.643 182.999 226.354 182.779 226.162L192.186 230.824C198.457 233.904 204.92 234.427 211.577 232.391C219.608 229.944 226.457 223.975 232.123 214.486C235.863 208.215 237.404 200.898 236.744 192.537C236.248 186.183 234.612 179.844 231.834 173.517C229.799 173.6 228.643 173.793 228.368 174.095C227.571 175.003 226.814 175.553 226.099 175.745C224.586 176.213 222.675 175.663 220.364 174.095L220.199 173.971C219.457 173.476 219.14 172.431 219.25 170.836L219.127 169.598L218.755 168.69C218.535 168.443 218.192 168.223 217.724 168.03L216.032 167.329L214.341 167.494L212.319 168.36C210.752 169.295 209.789 169.804 209.431 169.887C208.221 170.189 207.245 169.35 206.502 167.37L205.594 163.863L205.388 163.244L204.439 161.223C204.137 160.453 204.219 159.696 204.687 158.954C204.962 158.486 205.251 157.345 205.553 155.529C205.856 153.714 205.993 152.311 205.966 151.321L205.924 149.63C205.924 148.832 206.089 148.076 206.419 147.36C206.612 146.948 206.983 146.356 207.533 145.586L208.895 143.4L209.307 141.791L209.101 140.347C208.826 139.274 208.716 138.339 208.771 137.541L208.895 135.52C208.95 134.722 209.101 134.021 209.349 133.415C209.459 133.14 209.83 132.467 210.463 131.394C210.903 130.624 211.109 130.074 211.082 129.744C211.027 129.193 210.545 127.639 209.638 125.082C208.73 122.661 208.194 120.928 208.029 119.883C207.863 118.81 207.781 117.641 207.781 116.376L207.822 114.685C207.85 114.382 208.001 114.121 208.276 113.901L204.604 110.683C204.384 110.49 204.26 110.256 204.233 109.981C204.178 109.679 204.247 109.404 204.439 109.156C204.577 108.936 204.797 108.785 205.099 108.702L205.883 108.826C208.441 110.119 210.078 110.848 210.793 111.013L212.979 110.972L213.97 110.807C215.427 110.587 217.009 111.329 218.714 113.034L219.044 113.406L218.508 108.95C218.425 107.767 218.852 105.911 219.787 103.38C220.502 101.565 221.382 99.6121 222.427 97.5217C222.867 96.6416 223.225 94.9088 223.5 92.3233L223.83 86.9599C223.83 86.3548 224.119 85.9972 224.696 85.8872C225.274 85.7497 225.7 85.9422 225.975 86.4648L226.512 87.8676C226.869 88.9678 227.048 90.0129 227.048 91.0031C227.048 91.7182 227.241 93.011 227.626 94.8813L227.254 91.5394C227.227 91.2369 227.296 90.9618 227.461 90.7143C227.653 90.4393 227.901 90.2742 228.203 90.2192C228.506 90.1917 228.795 90.2605 229.07 90.4255C229.317 90.5905 229.469 90.8243 229.524 91.1269L229.895 92.7772C230.225 93.9874 230.582 95.0051 230.968 95.8302C231.325 96.6278 231.49 97.563 231.463 98.6357L231.133 101.4L230.844 103.256C230.789 104.137 231.545 105.608 233.113 107.671L234.103 108.991L234.557 109.775L234.681 108.042C234.818 105.979 235.024 104.453 235.3 103.463Z" fill="#0D131A"/>
<path d="M233.319 126.402L234.062 125.989C234.254 126.072 234.254 126.498 234.062 127.268C233.787 128.396 233.663 129.744 233.69 131.311C233.718 132.769 233.869 134.007 234.144 135.025C234.392 135.877 234.791 136.661 235.341 137.376C235.808 138.036 236.056 138.669 236.083 139.274C236.111 140.704 236.001 142.052 235.753 143.317C235.753 143.592 235.85 143.785 236.042 143.895C236.207 144.005 236.468 143.909 236.826 143.606C237.184 143.166 237.5 142.561 237.775 141.791C237.912 141.378 237.926 140.883 237.816 140.305C237.761 139.59 237.871 138.958 238.146 138.408L238.806 137.046C239.054 136.551 239.301 136.345 239.549 136.427L239.673 137.129L239.466 139.233L239.962 139.975L240.168 141.213C240.113 141.653 239.728 142.698 239.013 144.349L238.064 147.113C237.761 148.048 237.637 148.749 237.692 149.217C237.83 150.51 238.091 151.156 238.476 151.156L238.806 150.62L239.136 149.506L240.457 146.989C240.732 146.522 241.254 145.903 242.024 145.133C241.419 146.233 241.117 147.374 241.117 148.557C241.117 149.08 241.254 149.685 241.529 150.372C241.722 150.812 242.272 151.129 243.18 151.321C244.06 151.459 244.527 151.72 244.582 152.105C244.637 152.545 244.335 153.04 243.675 153.59L242.107 154.952C241.694 155.474 241.474 156.011 241.447 156.561C241.392 157.193 241.612 157.675 242.107 158.005C242.657 158.39 243.455 157.854 244.5 156.396L246.852 153.219C247.732 152.476 249.629 151.404 252.545 150.001L249.905 152.27C249.519 152.6 249.148 153.081 248.791 153.714L248.378 154.58L250.028 153.467C251.349 152.614 252.517 151.899 253.535 151.321C255.185 150.441 257.908 149.3 261.704 147.897L250.853 155.694C249.561 156.712 248.309 157.964 247.099 159.449C245.971 160.879 245.256 162.048 244.954 162.956C244.706 163.643 244.129 164.358 243.221 165.101L241.323 166.545C241.076 166.82 241.007 167.219 241.117 167.742L241.158 169.804C241.048 170.272 240.773 170.698 240.333 171.083L234.227 164.482L231.586 162.131L230.142 161.099L233.154 165.184L230.844 165.431L230.307 166.132L228.616 163.038L228.781 164.441C229.028 165.706 229.455 167.219 230.06 168.979L228.286 169.144L227.213 169.474L226.512 169.433C225.714 168.745 225.288 168.264 225.233 167.989C225.205 167.824 225.26 167.659 225.398 167.494L225.687 167.123C226.017 166.49 226.127 165.61 226.017 164.482C225.907 163.355 225.618 162.502 225.15 161.924C224.71 161.347 223.899 160.7 222.716 159.985C221.451 159.243 220.447 158.871 219.704 158.871C219.429 158.871 218.989 159.022 218.384 159.325L216.94 159.985C216.417 160.123 215.977 159.889 215.62 159.284C215.015 158.129 214.547 156.822 214.217 155.364C213.887 153.824 213.901 152.875 214.258 152.518C214.671 152.105 215.881 151.445 217.889 150.537L219.993 149.341C220.598 148.928 220.97 148.502 221.107 148.062C221.437 147.154 221.08 146.054 220.034 144.761C218.659 143.083 218.357 141.474 219.127 139.934C219.457 139.219 220.254 138.628 221.52 138.16C222.29 137.858 223.087 137.266 223.913 136.386L225.192 134.034L226.264 130.775C226.539 129.785 226.801 129.29 227.048 129.29C227.213 129.29 227.323 129.675 227.378 130.445C227.433 131.463 227.378 132.467 227.213 133.457L226.883 135.437C226.828 135.822 226.856 136.07 226.966 136.18C227.158 136.372 227.392 136.441 227.667 136.386C228.437 136.194 229.07 135.767 229.565 135.107C230.142 134.282 230.569 133.017 230.844 131.311C231.064 129.991 231.545 128.767 232.288 127.64L233.319 126.402Z" fill="#EFE908"/>
<path d="M236.372 103.751C236.702 102.541 237.349 101.042 238.311 99.2544L239.632 96.9027L239.219 102.596C238.944 106.667 238.889 109.459 239.054 110.971C239.191 112.319 239.797 113.351 240.869 114.066C242.327 115.028 243.303 115.895 243.798 116.665C244.734 118.15 245.449 120.419 245.944 123.472C246.439 126.443 246.494 128.561 246.109 129.826C245.806 130.816 245.985 131.779 246.645 132.714L248.172 134.777C248.419 135.299 248.461 135.684 248.296 135.932C247.965 136.317 247.677 136.757 247.429 137.252C247.182 137.775 247.058 138.435 247.058 139.233C247.058 140.195 246.92 141.048 246.645 141.791C246.37 142.643 245.751 143.221 244.789 143.523C243.551 143.908 242.74 144.293 242.354 144.679L241.694 145.545C240.814 146.48 240.058 147.677 239.425 149.134L238.93 150.702L238.559 151.445C238.394 151.5 238.229 151.348 238.064 150.991L237.651 149.506C237.569 148.928 237.637 148.24 237.857 147.443L238.641 145.091L239.508 142.946L240.003 141.295L239.962 140.305L239.632 139.851C239.411 139.521 239.301 139.191 239.301 138.861L239.508 137.335C239.59 136.895 239.577 136.661 239.466 136.633C239.219 136.578 238.875 137.06 238.435 138.077C238.022 138.958 237.857 139.673 237.94 140.223V141.667C237.335 143.372 236.716 144.17 236.083 144.06C235.616 143.977 235.506 143.455 235.753 142.492L235.96 139.604C235.96 138.834 235.767 138.174 235.382 137.624C234.777 136.826 234.392 136.138 234.227 135.561C233.622 133.443 233.374 131.421 233.484 129.496C233.512 128.863 233.677 128.052 233.979 127.062C234.364 125.769 233.979 125.81 232.824 127.185C231.971 128.313 231.394 129.551 231.091 130.899C230.596 133.209 230.032 134.749 229.4 135.519C229.207 135.739 228.905 135.959 228.492 136.18C228.025 136.427 227.639 136.537 227.337 136.51L226.842 136.18L226.718 135.726L227.296 131.394C227.378 130.156 227.296 129.537 227.048 129.537C226.911 129.537 226.759 129.798 226.594 130.321L226.017 132.178C225.357 134.268 224.806 135.574 224.366 136.097L222.799 137.541L221.231 138.49C220.736 138.682 220.364 138.875 220.117 139.068C219.787 139.343 219.512 139.755 219.292 140.305C218.879 141.24 218.838 142.162 219.168 143.069L220.323 144.967L221.272 146.576C221.465 147.071 221.478 147.594 221.313 148.144C221.203 148.447 220.818 148.859 220.158 149.382L217.394 150.95C216.129 151.417 215.152 151.981 214.465 152.641C213.777 153.356 214.203 155.543 215.744 159.201C216.019 159.751 216.404 159.957 216.899 159.82L218.219 159.201C218.907 158.871 219.498 158.706 219.993 158.706C220.543 158.706 221.478 159.119 222.799 159.944C224.036 160.686 224.848 161.278 225.233 161.718C225.618 162.13 225.893 162.914 226.058 164.069C226.223 165.142 226.223 165.953 226.058 166.504L225.48 167.535C225.315 167.81 225.343 168.044 225.563 168.236L226.388 169.02C226.663 169.268 226.952 169.364 227.254 169.309L228.368 168.938L229.977 168.773L230.885 171.207L230.472 171.124C229.84 170.987 229.042 171.427 228.08 172.445L225.934 174.384C225.081 174.604 223.431 173.902 220.983 172.28C220.543 171.977 220.337 171.578 220.364 171.083C220.419 170.285 220.364 169.667 220.199 169.227C219.952 168.511 219.457 167.961 218.714 167.576C217.751 167.219 216.981 166.875 216.404 166.545L213.268 166.71L210.298 167.906C209.61 168.071 208.881 167.604 208.111 166.504C207.533 165.651 207.052 164.661 206.667 163.533L206.048 161.346C205.938 160.659 206.089 159.985 206.502 159.325C206.887 158.692 207.107 157.166 207.162 154.745L207.08 149.629C207.08 148.722 207.396 147.814 208.029 146.906L209.926 143.895C210.421 142.877 210.559 141.818 210.339 140.718C210.036 139.15 209.899 138.119 209.926 137.624C209.981 136.881 210.408 135.506 211.205 133.498C211.948 131.655 212.278 130.362 212.195 129.62C212.14 128.877 211.659 127.268 210.751 124.793C209.816 122.18 209.28 120.488 209.142 119.718C208.977 118.7 208.909 117.573 208.936 116.335L208.977 114.767L209.184 115.551C209.404 116.211 209.72 116.899 210.133 117.614C210.463 118.219 211.027 118.852 211.824 119.512C212.704 120.227 213.337 120.873 213.722 121.451C214.107 122.028 214.368 122.73 214.506 123.555C214.891 121.244 215.015 119.525 214.877 118.398C214.795 117.655 214.245 116.885 213.227 116.087L210.669 114.396C210.119 114.011 209.074 113.131 207.533 111.755L205.347 109.816L207.368 110.806C208.826 111.521 209.871 111.962 210.504 112.127L212.361 112.25L214.093 111.92C215.221 111.755 216.5 112.388 217.93 113.818C218.205 114.093 218.412 114.657 218.549 115.51C218.714 116.417 219.072 117.256 219.622 118.026C220.639 119.402 221.217 120.474 221.355 121.244C220.337 114.643 219.759 110.518 219.622 108.867C219.539 107.767 219.993 105.979 220.983 103.504C221.643 101.771 222.469 99.942 223.459 98.0166C224.009 96.9164 224.421 94.7573 224.696 91.5393L224.944 87.001L225.439 88.1974C225.769 89.1876 225.934 90.1228 225.934 91.0029C225.934 91.7456 226.099 92.9833 226.429 94.7161L227.048 98.5942C227.186 100.107 227.309 100.74 227.419 100.492C227.804 99.997 228.19 99.1718 228.575 98.0166C228.96 96.8889 228.891 94.6748 228.368 91.3742L228.781 93.0658L229.895 96.3251C230.28 97.1777 230.39 98.2917 230.225 99.6669L229.73 103.174C229.647 104.109 230.046 105.25 230.926 106.598L233.154 109.651C233.924 110.779 234.364 112.044 234.474 113.447C234.997 112.567 235.382 111.549 235.63 110.394L235.877 107.506C235.932 106.076 236.097 104.824 236.372 103.751Z" fill="#E50020"/>
<path d="M127.453 257.806C123.823 255.166 120.481 252.36 117.428 249.39L113.921 245.676L146.019 237.054C149.045 242.747 152.895 247.849 157.571 252.36C164.915 259.401 173.331 263.857 182.82 265.727C200.836 269.248 217.944 265.315 234.144 253.928C237.527 251.535 240.69 248.564 243.633 245.016C233.484 259.566 221.341 268.615 207.203 272.164C201.235 273.676 194.386 274.378 186.657 274.268L164.42 272.576C151.41 271.091 139.088 266.168 127.453 257.806Z" fill="#DDD583"/>
<path d="M149.402 236.228L163.966 232.268C167.706 239.061 173.427 244.521 181.129 248.647C189.023 252.855 197.728 254.959 207.245 254.959C215.524 254.959 223.252 253.336 230.431 250.091C237.39 246.928 243.001 242.623 247.264 237.177C243.716 243.613 239.054 248.784 233.278 252.69C217.353 263.444 200.616 267.102 183.068 263.664C174.019 261.876 166.235 257.641 159.716 250.957C156.086 247.216 152.648 242.307 149.402 236.228Z" fill="#D18200"/>
<path d="M230.72 165.101L230.142 161.842L231.834 163.327L233.319 165.431L238.311 172.156C242.63 178.317 246.205 185.523 249.038 193.775C251.761 201.696 253.123 208.559 253.123 214.362C253.123 222.449 251.17 230.054 247.264 237.177C243.001 242.623 237.39 246.928 230.431 250.091C223.252 253.336 215.524 254.959 207.245 254.959C197.728 254.959 189.023 252.855 181.129 248.647C173.427 244.521 167.707 239.061 163.966 232.268L180.923 227.688L181.83 228.555C183.37 229.6 186.451 231.25 191.072 233.506C197.755 236.779 204.769 237.315 212.113 235.115C220.97 232.474 228.423 226.107 234.474 216.012C238.38 209.494 239.865 201.765 238.93 192.826C238.243 186.39 236.386 179.692 233.36 172.734C231.848 169.268 230.555 166.628 229.482 164.812L229.07 162.873L230.72 165.101Z" fill="#F29600"/>
<path d="M157.158 248.111C154.518 244.947 151.933 240.987 149.402 236.228L180.881 227.729L181.005 227.936C181.253 228.211 181.844 228.623 182.779 229.173C183.329 231.594 183.604 234.042 183.604 236.517C183.604 241.166 182.683 245.594 180.84 249.802C179.052 253.873 176.536 257.448 173.29 260.529C167.156 257.751 161.779 253.612 157.158 248.111Z" fill="#D18200"/>
<path d="M121.966 253.557C120.316 250.751 119.078 247.739 118.253 244.521L146.019 237.054C148.247 241.317 151.052 245.319 154.435 249.06C159.469 254.726 165.19 259.058 171.598 262.056C168.683 264.448 165.492 266.291 162.027 267.584C158.396 268.932 154.642 269.619 150.764 269.647C140.477 266.374 130.878 261.01 121.966 253.557Z" fill="#DDD583"/>
<path d="M83.5556 41.2883L71.5498 54.5731C71.0547 55.2607 70.8071 57.1998 70.8071 60.3903C70.8071 63.966 71.1647 67.6929 71.8798 71.571C72.3199 74.1015 73.3101 77.3608 74.8504 81.349C76.4181 85.4747 77.7659 88.2252 78.8936 89.6004L84.9996 96.4904L90.6519 102.885C91.5045 104.123 92.1096 106.172 92.4672 109.033C93.2373 114.066 93.8699 117.312 94.365 118.769C95.0526 120.75 95.9053 122.661 96.9229 124.504C97.6656 125.824 98.7795 127.598 100.265 129.826C102.273 132.769 104.597 135.588 107.237 138.284L109.053 137.541L111.239 137.418C111.982 137.665 112.504 138.353 112.807 139.48L113.343 142.286L115.943 144.019C116.465 144.376 116.795 144.899 116.933 145.586C117.015 146.219 116.864 146.797 116.479 147.319L110.455 155.117L106.66 164.73C106.357 165.527 105.779 165.995 104.927 166.133C104.542 166.215 103.978 166.077 103.235 165.72L101.75 164.73C98.8345 161.209 95.8365 158.019 92.756 155.158C88.1352 150.895 84.4495 148.502 81.699 147.979C79.6912 147.594 77.6283 147.759 75.5105 148.474C74.8779 148.722 73.2276 149.506 70.5596 150.826C68.9093 151.651 67.7129 152.16 66.9702 152.353C65.7325 152.683 64.6323 152.6 63.6697 152.105C62.872 151.692 62.4182 150.991 62.3082 150.001L62.3907 148.103L62.597 147.195C62.8445 145.6 62.4594 143.854 61.4418 141.956C60.7817 140.801 59.5027 139.632 57.6048 138.449C54.7994 136.661 51.6501 135.767 48.157 135.767C40.0981 135.767 31.5991 139.123 22.66 145.834C17.5716 149.63 13.1709 153.769 9.45772 158.252C9.3202 159.408 9.3202 160.824 9.45772 162.502L9.70526 165.184C9.70526 166.559 9.37521 167.769 8.71509 168.814C8.02747 169.887 7.20233 170.423 6.23966 170.423C5.332 170.423 4.52061 170.079 3.80549 169.392C2.89783 168.539 2.37524 167.301 2.23772 165.679L2.19646 165.431C1.61886 158.885 1.24754 153.714 1.08251 149.918C0.972495 147.36 0.972495 145.82 1.08251 145.298C1.5776 141.915 2.67779 136.565 4.38309 129.249C5.97837 122.372 7.42237 116.679 8.71509 112.168C9.84279 108.207 11.6581 102.83 14.161 96.0366C16.4989 89.683 18.0255 85.8735 18.7406 84.6083C19.6757 82.9305 23.4164 78.2822 29.9625 70.6634C36.4262 63.1546 40.4694 58.7401 42.0921 57.4198C43.4399 56.3196 45.5853 55.1094 48.5283 53.7892L51.1687 52.5927C52.2964 52.0702 52.984 51.7126 53.2316 51.5201L63.4634 43.5987L74.0252 35.5535C76.0881 34.0683 78.0547 33.1744 79.925 32.8718C81.8778 32.5693 83.3356 32.9681 84.2982 34.0683C85.0134 34.8934 85.3434 35.9661 85.2884 37.2863C85.2059 38.7716 84.6283 40.1056 83.5556 41.2883Z" fill="#0D131A"/>
<path d="M41.8033 75.3257C47.8269 70.2098 51.3475 67.4318 52.3652 66.9917C53.7404 66.7992 55.6657 67.0192 58.1412 67.6518C60.6441 68.3119 62.1294 69.0133 62.5969 69.7559C62.8995 70.3335 64.6461 75.642 67.8366 85.6812L70.1058 92.4474C70.6834 93.9601 74.7128 97.9758 82.1941 104.494C83.1568 105.347 84.3945 108.359 85.9073 113.53L86.8974 116.83L88.8365 124.298L91.477 135.149C92.0546 137.376 92.5772 138.642 93.0447 138.944C94.8876 140.209 96.9779 142.176 99.3158 144.844C99.7559 145.367 100.691 147.374 102.121 150.868L105.999 160.646L104.555 163.905C102.3 161.402 99.6871 158.816 96.7166 156.148C90.7756 150.84 86.0173 147.856 82.4416 147.196C79.0311 146.563 75.2904 147.168 71.2197 149.011L67.424 150.785C66.2413 151.253 65.3612 151.335 64.7836 151.033C64.481 150.868 64.2747 150.304 64.1647 149.341L64.0822 147.98C64.2747 147.539 64.371 146.934 64.371 146.164C64.371 144.651 63.9172 143.056 63.0095 141.378C62.2394 139.921 60.6991 138.559 58.3887 137.294C55.3632 135.616 51.9113 134.777 48.0332 134.777C40.2218 134.777 32.1629 137.596 23.8565 143.235C18.7131 146.728 13.9272 150.936 9.49896 155.86C9.80152 144.748 10.1316 138.518 10.4891 137.17C11.6718 132.357 14.2023 124.449 18.0805 113.447C23.2514 98.8422 27.3908 89.5731 30.4989 85.6399C31.8191 83.9897 35.5873 80.5516 41.8033 75.3257Z" fill="#008086"/>
<path d="M81.4102 40.2152C74.479 47.5865 70.3396 52.111 68.9918 53.7888C68.1117 54.9165 67.8229 57.5845 68.1254 61.7927C68.318 64.5982 68.758 67.8575 69.4457 71.5707C69.8857 74.0736 70.9997 77.4567 72.7875 81.7199C74.6028 86.0107 76.1706 88.9674 77.4908 90.5902L88.7953 103.793C89.5654 104.81 90.2393 107.066 90.8169 110.559C91.532 114.849 92.0821 117.545 92.4672 118.645C93.1823 120.735 93.9112 122.592 94.6538 124.215L97.418 129.578C98.4357 131.476 100.141 133.869 102.534 136.757C104.762 139.425 106.096 140.841 106.536 141.007L108.021 140.553C108.736 140.195 109.3 140.085 109.713 140.223C110.483 140.47 110.992 141.612 111.239 143.647L114.664 145.916L108.475 154.003L107.609 156.148C104.28 148.639 102.135 144.348 101.172 143.276C98.2294 139.893 95.809 137.568 93.9112 136.303C93.3886 135.698 92.0546 131.187 89.9092 122.771L87.9289 115.18L86.9387 111.92L85.4122 107.093C84.8071 105.635 84.1057 104.549 83.3081 103.834L76.9545 97.6452C73.8739 94.4822 72.1961 92.5293 71.9211 91.7867L69.6519 85.103C66.0213 74.2111 64.041 68.5176 63.7109 68.0226C62.9958 66.8398 61.1392 65.8772 58.1412 65.1346C55.4182 64.4744 53.2316 64.2682 51.5813 64.5157C50.5636 64.6807 46.7267 67.6787 40.0705 73.5098C33.6344 79.1207 29.825 82.6826 28.6423 84.1954C25.2592 88.4861 20.9685 98.4153 15.7701 113.983C13.1571 121.767 10.8742 129.207 8.92137 136.303C8.4813 138.119 8.10998 145.311 7.80743 157.881L7.43612 165.183C7.43612 165.816 7.31234 166.366 7.0648 166.834C6.81726 167.274 6.54221 167.494 6.23966 167.494C5.85459 167.494 5.57954 167.384 5.41451 167.164C5.11196 166.833 4.91943 166.201 4.83691 165.266L4.30057 156.849L3.84674 148.804C3.87425 145.889 4.67188 140.676 6.23966 133.168C7.6149 126.456 8.94888 120.956 10.2416 116.665C12.1669 110.229 14.4773 103.339 17.1728 95.9949C19.4282 89.9439 20.8584 86.3682 21.4636 85.2681C22.3162 83.7278 25.8231 79.3133 31.9841 72.0245C38.1727 64.6807 42.0234 60.4037 43.5361 59.1935C44.8014 58.1758 47.3043 56.8281 51.045 55.1503C52.9153 54.2977 54.6618 53.555 56.2846 52.9224L74.5615 37.8636C76.0743 36.5983 77.5871 35.7319 79.0998 35.2644C80.6676 34.7968 81.699 34.9068 82.1941 35.5944C83.1843 37.0247 82.923 38.5649 81.4102 40.2152Z" fill="#F29600"/>
<path d="M61.6893 79.6989C61.0567 79.3964 60.1215 79.1076 58.8838 78.8325L55.8308 78.3787C53.9054 79.6989 50.4123 82.5182 45.3514 86.8364C40.0155 91.3747 36.825 94.304 35.7798 95.6242C32.8918 99.2823 28.8898 108.276 23.7739 122.606C19.8683 133.443 17.2966 141.268 16.0589 146.082L15.8113 149.547C13.7209 151.445 11.6168 153.549 9.49896 155.86C9.80152 144.748 10.1316 138.518 10.4891 137.17C11.6718 132.357 14.2023 124.449 18.0805 113.447C23.2514 98.8422 27.3908 89.5731 30.4989 85.6399C31.8191 83.9897 35.5873 80.5516 41.8033 75.3257C47.8269 70.2098 51.3475 67.4318 52.3652 66.9917C53.7404 66.7992 55.6657 67.0192 58.1412 67.6518C60.6441 68.3119 62.1294 69.0133 62.5969 69.7559C62.8995 70.3335 64.6461 75.642 67.8366 85.6812L70.1058 92.4474C70.6834 93.9601 74.7128 97.9758 82.1941 104.494C83.1568 105.347 84.3945 108.359 85.9073 113.53L86.8974 116.83L88.8365 124.298L91.477 135.149C92.0546 137.376 92.5772 138.642 93.0447 138.944C94.8876 140.209 96.9779 142.176 99.3158 144.844C99.7559 145.367 100.691 147.374 102.121 150.868L105.999 160.646L104.555 163.905L100.966 160.192C99.7559 157.166 98.972 155.392 98.6145 154.869C96.4691 152.394 94.6675 150.689 93.2098 149.754C92.2471 149.093 91.5045 148.062 90.9819 146.659C90.5968 145.669 89.978 143.386 89.1253 139.811L87.4338 132.838L85.5359 125.618L84.5045 122.153C83.8444 119.897 83.198 117.133 82.5654 113.86L81.8228 109.652L70.312 99.7499C68.3592 97.9621 67.094 96.2155 66.5164 94.5102L61.6893 79.6989Z" fill="#00666C"/>
<path d="M293.885 113.653C294.82 116.046 295.989 121.836 297.392 131.023C298.739 139.824 299.413 145.641 299.413 148.474V149.382L299.289 167.411C298.932 170.795 297.502 172.459 294.999 172.404C293.898 172.376 293.115 171.867 292.647 170.877C292.207 169.942 291.987 168.402 291.987 166.256C291.987 164.909 291.849 163.671 291.574 162.543C286.046 157.097 280.242 151.665 274.164 146.247C265.912 138.93 260.384 134.667 257.578 133.457C254.195 131.999 250.001 131.366 244.995 131.559C240.897 131.752 237.981 132.274 236.248 133.127C235.451 133.512 233.498 135.547 230.39 139.233L226.801 143.152C225.975 143.95 225.205 144.39 224.49 144.472L222.922 144.266L220.488 143.235C216.307 141.419 213.254 140.25 211.329 139.728C206.846 138.545 203.05 138.586 199.942 139.852C195.541 141.639 190.632 144.39 185.213 148.103C181.088 150.936 178.323 153.054 176.921 154.457C176.453 154.979 175.037 157.551 172.671 162.172L165.575 176.158C165.217 176.818 164.42 177.176 163.182 177.231C162.302 177.231 161.614 176.859 161.119 176.117L142.43 144.679C141.99 143.964 141.962 143.235 142.347 142.492C142.76 141.722 143.379 141.309 144.204 141.254L152.166 141.048C153.321 137.665 154.312 135.657 155.137 135.025C155.604 134.695 156.498 134.419 157.819 134.199L161.655 134.282L168.257 129.909L178.282 122.647C183.756 118.467 188.431 113.942 192.31 109.074C192.997 107.451 194.111 103.807 195.651 98.1407C197.274 92.1446 198.801 85.956 200.231 79.5749C201.551 73.6614 202.651 67.7341 203.531 61.7931C204.329 56.3746 204.687 52.909 204.604 51.3963C204.549 50.5711 203.738 48.9346 202.17 46.4867C200.465 43.7912 198.168 40.6281 195.28 36.9975C194.125 35.5673 193.368 34.0545 193.011 32.4592C192.571 30.5339 192.846 28.8561 193.836 27.4258C194.579 26.3532 195.5 25.7206 196.6 25.528C197.81 25.3355 199.144 25.583 200.602 26.2706C201.84 26.8482 202.981 27.6184 204.027 28.581L210.751 35.0584L217.188 41.2883C217.408 41.4808 218.37 41.7421 220.076 42.0721L223.459 42.7735C224.256 43.0211 227.461 44.5888 233.072 47.4768L242.231 52.0151C244.926 52.8678 247.677 53.4591 250.482 53.7892L253.783 54.243C255.048 54.4631 255.846 54.7381 256.176 55.0682C258.101 56.8835 261.952 62.7832 267.728 72.7675L279.775 94.0149C282.25 98.2782 285.303 102.693 288.934 107.258L293.885 113.653Z" fill="#0D131A"/>
<path d="M284.148 105.649L288.026 110.889L291.203 115.716C292.111 117.999 293.321 123.404 294.834 131.93C296.346 140.374 297.103 145.889 297.103 148.474V157.51L296.979 166.669C296.869 167.631 296.69 168.333 296.443 168.773C296.113 169.35 295.631 169.625 294.999 169.598C294.586 169.57 294.284 169.02 294.091 167.948C293.953 167.205 293.885 166.38 293.885 165.472L293.802 161.8L290.997 131.394V131.229C288.274 121.162 282.594 108.551 273.957 93.3959C266.119 79.671 259.861 70.4844 255.185 65.8361C253.893 64.5159 248.103 62.1367 237.816 58.6986C228.3 55.4806 223.239 53.8716 222.634 53.8716C220.928 53.734 219.195 54.1053 217.435 54.9855C215.675 55.8932 214.327 57.1034 213.392 58.6161C212.457 60.1014 209.954 68.5729 205.883 84.0306C204.673 88.7339 203.366 95.7063 201.964 104.948C201.166 110.174 200.643 113.034 200.396 113.529C199.956 114.355 196.518 117.078 190.082 121.698L185.378 125.164C184.443 125.934 183.453 127.158 182.408 128.836C181.858 129.689 181.074 131.077 180.056 133.003L179.148 134.694C179.011 134.859 178.282 135.093 176.962 135.396C174.376 136.028 172.286 136.62 170.691 137.17C168.6 137.885 165.864 141.268 162.481 147.319C160.225 151.362 157.86 156.258 155.384 162.007L144.369 143.523L153.899 142.781L154.848 140.099C155.563 138.256 156.168 137.156 156.663 136.798C157.351 136.331 158.506 136.111 160.129 136.138L162.316 136.303L170.113 131.022L179.644 124.504C180.771 123.651 183.453 121.176 187.689 117.078C191.897 112.979 194.111 110.696 194.331 110.229C195.734 107.203 198.333 97.3841 202.129 80.7712C206.034 63.6083 207.836 53.5002 207.533 50.4472C207.423 49.3745 205.883 46.7616 202.913 42.6083L197.302 35.2646C196.504 34.2744 195.954 33.133 195.651 31.8402C195.294 30.465 195.349 29.3648 195.816 28.5397C196.284 27.742 197.219 27.6182 198.622 28.1683C199.86 28.6359 201.125 29.4611 202.418 30.6438L209.101 37.4512L215.249 43.681L218.755 44.2586L223.582 45.2901C224.71 45.6751 230.569 48.4119 241.158 53.5002L248.337 55.5218C251.995 56.457 253.975 57.0621 254.278 57.3372C256.891 59.8401 262.502 68.4353 271.111 83.1229L284.148 105.649Z" fill="#F29600"/>
<path d="M289.594 131.724L292.152 160.191C286.431 154.8 280.944 149.822 275.69 145.256C267.191 137.885 261.415 133.539 258.362 132.219C254.649 130.624 250.166 130.005 244.912 130.362C240.732 130.638 237.596 131.298 235.506 132.343C234.598 132.783 232.673 134.626 229.73 137.871C227.007 140.842 225.123 142.423 224.078 142.616C223.445 142.753 222.207 142.451 220.364 141.708L214.63 139.398C208.854 137.362 203.834 137.211 199.571 138.944C194.84 140.897 189.683 143.551 184.099 146.907C179.396 149.74 176.453 151.72 175.27 152.848C174.555 153.563 172.314 157.455 168.545 164.523L163.099 174.92L157.447 165.844C161.463 155.859 163.691 150.372 164.131 149.382C166.771 143.496 168.903 140.278 170.526 139.728C171.681 139.315 173.964 138.751 177.374 138.036L179.437 137.5L180.675 136.592L181.748 134.653L183.646 130.28C184.553 128.327 185.378 127.034 186.121 126.402L188.225 125.082L191.196 123.225L198.581 117.779C200.588 116.211 201.757 115.084 202.087 114.396L202.83 111.467L203.82 105.237L205.223 95.4177C205.856 91.2369 206.53 87.7851 207.245 85.0621L211.659 68.2292C212.979 63.3333 213.791 60.6379 214.093 60.1428C214.836 58.9876 216.129 58.0662 217.972 57.3785C219.649 56.7184 221.217 56.4571 222.675 56.5946C224.05 56.8147 229.056 58.41 237.692 61.3805C247.127 64.5985 252.366 66.7302 253.411 67.7753C258.197 72.5887 264.496 81.5552 272.307 94.675C281.191 109.583 286.954 121.932 289.594 131.724Z" fill="#008086"/>
<path d="M285.427 153.962L284.313 141.626C281.728 132.137 276.103 120.131 267.439 105.608C259.848 92.9285 253.796 84.292 249.286 79.6987C247.938 78.7635 243.207 76.9069 235.093 74.129C227.832 71.6535 223.005 70.1133 220.612 69.5081C219.787 69.4806 218.879 69.6594 217.889 70.0445C216.899 70.4021 216.225 70.7871 215.867 71.1997C215.455 72.2999 213.75 78.571 210.751 90.013L209.431 95.1701C208.551 98.4982 207.657 103.49 206.75 110.146L206.089 114.932L204.893 121.987C204.618 123.473 204.302 124.545 203.944 125.205C203.449 126.223 202.349 127.447 200.643 128.877L191.897 135.478L188.39 137.665L187.029 138.49C177.182 147.347 171.653 151.981 170.443 152.394C168.903 153.659 165.836 160.164 161.243 171.908V171.95L157.447 165.844C161.463 155.859 163.691 150.372 164.131 149.382C166.771 143.496 168.903 140.278 170.526 139.728C171.681 139.315 173.964 138.751 177.374 138.036L179.437 137.5L180.675 136.592L181.748 134.653L183.646 130.28C184.553 128.327 185.378 127.034 186.121 126.402L188.225 125.082L191.196 123.225L198.581 117.779C200.588 116.211 201.757 115.084 202.087 114.396L202.83 111.467L203.82 105.237L205.223 95.4177C205.856 91.2369 206.53 87.7851 207.245 85.0621L211.659 68.2292C212.979 63.3333 213.791 60.6379 214.093 60.1428C214.836 58.9876 216.129 58.0662 217.972 57.3785C219.649 56.7184 221.217 56.4571 222.675 56.5946C224.05 56.8147 229.056 58.41 237.692 61.3805C247.127 64.5985 252.366 66.7302 253.411 67.7753C258.197 72.5887 264.496 81.5552 272.307 94.675C281.191 109.583 286.954 121.932 289.594 131.724L292.152 160.191L285.427 153.962Z" fill="#00666C"/>
<path d="M33.9232 162.419L33.0981 162.254L31.6541 161.223C30.6914 160.123 30.2789 158.761 30.4164 157.139C30.4989 156.038 31.5028 154.237 33.4282 151.734C35.0234 149.643 36.2199 148.268 37.0175 147.608L37.3476 147.319L35.6973 142.822L35.4498 142.327C35.0647 141.53 34.8446 140.828 34.7896 140.223C34.7346 139.453 34.8859 138.587 35.2435 137.624C35.9036 136.001 37.0313 134.86 38.6266 134.2C39.7267 133.759 41.2945 133.567 43.3299 133.622L46.5067 133.993C47.4418 134.378 48.9684 136.07 51.0862 139.068L51.7876 139.357L52.6953 139.604L55.7483 138.16C57.151 137.115 58.1825 136.469 58.8426 136.221C59.7227 135.891 60.7129 135.877 61.8131 136.18C63.3259 136.565 64.6186 138.009 65.6913 140.512C66.6264 142.74 66.9565 144.5 66.6814 145.793C66.5714 146.37 66.2001 147.319 65.5675 148.64L63.7109 152.27L63.2571 153.095L63.3809 154.044C68.9093 159.023 72.5124 161.292 74.1902 160.852L77.4083 160.068C79.5812 159.518 81.644 158.83 83.5969 158.005C86.8149 156.657 89.5654 155.309 91.8483 153.962C92.5084 152.229 93.0585 151.032 93.4986 150.372C94.6263 148.777 96.2766 147.512 98.4495 146.577C100.292 145.779 103.29 145.339 107.444 145.256C109.891 145.201 112.064 145.243 113.962 145.38L117.015 145.669L106.453 168.36L104.886 168.072L97.7481 165.761L93.0448 168.113L86.4436 171.29L83.6381 172.775L81.2452 174.219C78.6323 175.594 76.5694 176.351 75.0566 176.488C71.591 176.736 67.3966 175.388 62.4732 172.445C59.4202 170.602 56.2846 168.292 53.0666 165.514C52.0489 166.091 51.1275 166.394 50.3023 166.421C49.1471 166.476 47.8819 166.105 46.5067 165.307C45.709 164.867 44.8289 164.015 43.8662 162.75L42.0096 159.985L41.0195 162.007L40.3181 162.75L33.9232 162.419Z" fill="#0D131A"/>
<path d="M34.0057 160.274C33.6757 160.274 33.3594 160.15 33.0568 159.903C32.4242 159.407 32.1492 158.582 32.2317 157.427C32.2867 156.602 32.5893 155.749 33.1393 154.869L35.2435 152.187L37.8839 149.671L39.5342 148.185C39.8368 147.718 39.2042 145.655 37.6364 141.997C36.9213 140.347 36.5637 139.246 36.5637 138.696C36.5362 137.404 37.4301 136.386 39.2454 135.643L43.0411 135.437L45.8053 135.891L47.5381 137.871L49.3534 140.305C49.9035 141.075 50.8799 141.516 52.2827 141.626L56.2021 139.728C57.1373 139.013 57.9487 138.586 58.6363 138.449L60.9467 138.655C61.7993 138.875 62.6245 139.948 63.4221 141.873C64.1647 143.688 64.4535 144.995 64.2885 145.793C64.1785 146.398 63.7247 147.498 62.927 149.093L61.3593 152.187C60.9742 152.958 61.0292 153.975 61.5243 155.24L66.7639 159.407C70.6421 162.103 73.5576 163.189 75.5105 162.667L79.3474 161.347L85.1234 159.119L93.6224 155.529C93.7599 154.787 94.1312 153.934 94.7363 152.971C95.974 151.046 97.8444 149.547 100.347 148.474C102.025 147.759 104.776 147.388 108.599 147.36L113.797 147.525L105.216 166.009L99.1508 162.832C93.4848 165.775 88.9741 167.934 85.6185 169.309C84.4083 169.832 82.3317 170.849 79.3886 172.362C77.4633 173.38 76.0468 173.916 75.1392 173.971C72.0036 174.219 68.0567 172.899 63.2983 170.011C60.3828 168.223 57.4123 166.022 54.3868 163.409C54.2768 163.327 54.4143 162.942 54.7994 162.254L55.4182 161.223L53.2316 162.749C52.8465 163.189 52.2964 163.519 51.5813 163.739C50.1786 164.207 48.6383 163.973 46.9605 163.038C45.5303 162.213 44.3338 161.03 43.3711 159.49L42.381 157.427L39.4517 160.563L34.0057 160.274Z" fill="#F29600"/>
<path d="M60.8642 146.535L57.5223 148.557C55.652 149.465 54.3593 149.932 53.6442 149.96C53.2041 149.96 52.8328 149.836 52.5302 149.588C52.0076 149.038 51.9389 147.636 52.3239 145.38C52.6815 143.29 53.1078 141.832 53.6029 141.007C54.263 139.989 55.1569 139.247 56.2846 138.779L59.4614 138.655C60.4241 139.013 61.1255 139.673 61.5655 140.636C61.9506 141.461 62.0606 142.355 61.8956 143.317L61.8131 143.895C61.648 145.133 61.3317 146.013 60.8642 146.535Z" fill="#0D131A"/>
<path d="M59.3376 138.985L56.4084 139.15C55.3632 139.59 54.538 140.278 53.9329 141.213C53.4654 141.956 53.0528 143.345 52.6952 145.38C52.3377 147.553 52.3789 148.859 52.819 149.299C53.0115 149.492 53.2728 149.588 53.6029 149.588C54.263 149.561 55.5145 149.107 57.3573 148.227C59.1451 147.347 60.2178 146.7 60.5753 146.288C61.0154 145.792 61.3042 144.981 61.4417 143.853L61.5243 143.276C61.6618 142.368 61.5655 141.529 61.2355 140.759C60.8504 139.906 60.2178 139.315 59.3376 138.985ZM53.2728 140.8C53.988 139.7 54.9506 138.916 56.1608 138.449L59.5852 138.284C60.4928 138.641 61.1942 139.233 61.6893 140.058C62.1294 140.8 62.3494 141.626 62.3494 142.533L62.1844 143.977C62.0194 145.27 61.6755 146.205 61.153 146.783C60.7404 147.278 59.5852 147.979 57.6873 148.887C55.7345 149.822 54.3868 150.303 53.6441 150.331C53.094 150.358 52.6402 150.193 52.2827 149.836C51.65 149.203 51.54 147.69 51.9526 145.297C52.3102 143.18 52.7502 141.681 53.2728 140.8Z" fill="#0D131A"/>
<path d="M58.76 144.39C58.265 144.995 56.4221 146.453 53.2316 148.763C52.984 148.516 52.9703 147.457 53.1903 145.586C53.4379 143.688 53.7679 142.354 54.1805 141.584C54.6481 140.787 55.3082 140.182 56.1608 139.769C57.041 139.329 57.8524 139.246 58.595 139.521C59.3927 139.797 59.9428 140.347 60.2453 141.172C60.1628 141.942 59.984 142.588 59.709 143.111L58.76 144.39Z" fill="white"/>
<path d="M59.7502 145.586C59.4477 145.971 58.3612 146.645 56.4909 147.608C54.5381 148.598 53.4516 148.983 53.2316 148.763C56.4222 146.453 58.265 144.995 58.7601 144.39L59.709 143.111C59.984 142.588 60.1628 141.942 60.2453 141.172C60.4379 141.694 60.5066 142.258 60.4516 142.863L60.2453 144.431L59.7502 145.586Z" fill="#DBDCDC"/>
<path d="M33.3869 156.973C33.937 156.506 34.7209 156.175 35.7385 155.983C36.8112 155.79 37.7464 156.01 38.544 156.643C39.0941 157.083 39.4792 157.633 39.6992 158.293L41.8446 161.676C42.1471 162.006 42.6972 162.309 43.4949 162.584L44.7739 162.955L44.1963 164.152C43.5911 165.39 41.8308 165.926 38.9153 165.761L35.5735 165.307C34.4183 164.949 33.4969 164.262 32.8093 163.244C32.3417 162.557 32.0529 161.773 31.9429 160.893C31.8329 160.04 31.9291 159.297 32.2317 158.665L32.3554 158.458C32.6305 157.826 32.9743 157.331 33.3869 156.973Z" fill="#0D131A"/>
<path d="M33.5107 157.139C33.1531 157.441 32.823 157.895 32.5205 158.5L32.3967 158.748C32.1217 159.353 32.0254 160.068 32.1079 160.893C32.2179 161.746 32.493 162.502 32.9331 163.162C33.6207 164.125 34.5146 164.771 35.6148 165.101L38.9153 165.555C41.7758 165.72 43.4674 165.225 43.99 164.07L44.5263 163.08L43.4536 162.75C42.5735 162.447 41.9821 162.131 41.6796 161.801C41.2945 161.361 40.5931 160.261 39.5755 158.5L39.5342 158.459L39.4104 158.253C39.1904 157.62 38.8191 157.098 38.2965 156.685C37.5814 156.135 36.7287 155.956 35.7385 156.149C34.7759 156.341 34.0333 156.671 33.5107 157.139ZM32.6443 163.369C32.0116 162.433 31.6953 161.416 31.6953 160.316C31.6953 159.655 31.8191 159.078 32.0667 158.583L32.1904 158.376C32.5205 157.689 32.878 157.18 33.2631 156.85C33.8407 156.327 34.6521 155.97 35.6973 155.777C36.7425 155.585 37.6501 155.777 38.4203 156.355C38.9979 156.767 39.4379 157.331 39.7405 158.046L41.9684 161.553C42.2434 161.883 42.7798 162.158 43.5774 162.378L44.8151 162.791L44.9389 162.874L44.9802 162.956L44.3613 164.235C43.7287 165.528 41.9134 166.092 38.9153 165.927L35.5323 165.473C34.322 165.088 33.3594 164.386 32.6443 163.369Z" fill="#0D131A"/>
<path d="M33.3044 159.16L33.9645 158.128C34.3771 157.743 34.9959 157.482 35.8211 157.345C36.6737 157.18 37.3476 157.4 37.8427 158.005C38.1177 158.28 38.2965 158.582 38.379 158.912L39.2867 160.439L40.6894 162.502C41.1295 162.997 41.8446 163.396 42.8348 163.698C37.8839 164.413 34.7071 162.901 33.3044 159.16Z" fill="white"/>
<path d="M33.6757 162.667C33.3181 162.144 33.0981 161.553 33.0156 160.893C32.9605 160.288 33.0293 159.779 33.2218 159.366L33.3044 159.16C34.7071 162.901 37.8839 164.414 42.8348 163.698C42.7523 163.891 42.5047 164.07 42.0921 164.235L38.7503 164.606L35.8623 164.276C34.9546 164.001 34.2258 163.465 33.6757 162.667Z" fill="#DBDCDC"/>
<path d="M42.876 138.573C43.7287 139.535 44.0863 140.649 43.9487 141.915C43.8662 143.042 43.5224 143.84 42.9173 144.307L41.1432 145.958L39.3692 147.938C39.0391 148.461 38.8466 149.327 38.7916 150.537L38.5028 151.61L37.3063 151.569C36.5912 151.349 35.9036 150.922 35.2435 150.29C33.9232 148.997 33.2631 147.251 33.2631 145.05C33.2631 142.96 34.157 140.704 35.9448 138.284C36.1649 137.981 36.6187 137.693 37.3063 137.418C37.9389 137.198 38.5303 137.074 39.0804 137.046C40.6207 136.964 41.8859 137.473 42.876 138.573Z" fill="#0D131A"/>
<path d="M35.6148 138.078C35.8898 137.693 36.4124 137.363 37.1826 137.088L39.0391 136.675C40.7444 136.593 42.1197 137.143 43.1648 138.325C44.045 139.343 44.4438 140.553 44.3613 141.956C44.2238 143.166 43.825 144.06 43.1648 144.638L41.432 146.205C40.4969 147.141 39.9193 147.787 39.6992 148.145C39.3967 148.585 39.2179 149.41 39.1629 150.62L38.8741 151.693L38.7503 151.899L37.3063 151.94H37.2238C36.5362 151.803 35.7936 151.335 34.9959 150.537C33.5932 149.19 32.8918 147.361 32.8918 145.05C32.8918 142.932 33.7995 140.608 35.6148 138.078ZM40.8957 145.71L42.6698 144.019C43.1924 143.634 43.4949 142.919 43.5774 141.873L43.6187 141.543C43.6187 140.553 43.2749 139.646 42.5873 138.82C41.7346 137.858 40.5656 137.39 39.0804 137.418L37.4714 137.789L36.2336 138.532C34.5008 140.897 33.6344 143.07 33.6344 145.05C33.6344 147.086 34.2258 148.708 35.4085 149.919C36.0411 150.579 36.7012 151.005 37.3888 151.198L38.214 151.239L38.4203 150.496C38.4203 149.314 38.6266 148.392 39.0391 147.732C39.2867 147.347 39.9055 146.673 40.8957 145.71Z" fill="#0D131A"/>
<path d="M41.2258 142.863L38.7091 145.132C37.6089 146.535 37.3476 148.199 37.9252 150.124V150.331C37.4026 150.166 36.8662 149.822 36.3162 149.299C35.2435 148.227 34.7071 146.755 34.7071 144.885C34.7071 143.785 34.9959 142.574 35.5735 141.254C36.0136 140.264 36.5087 139.411 37.0588 138.696C37.4163 138.256 38.1865 138.036 39.3692 138.036C40.6894 138.064 41.6658 138.449 42.2984 139.191L42.711 139.728C42.436 141.103 41.9409 142.148 41.2258 142.863Z" fill="white"/>
<path d="M42.5047 143.276C40.5244 144.761 39.2454 145.93 38.6678 146.783C38.2827 147.415 38.0352 148.529 37.9252 150.124C37.3476 148.199 37.6089 146.535 38.709 145.132L41.2257 142.863C41.9409 142.148 42.4359 141.103 42.711 139.728C43.0961 140.415 43.2198 141.158 43.0823 141.955C42.9723 142.616 42.7798 143.056 42.5047 143.276Z" fill="#DBDCDC"/>
<path d="M42.381 152.683C42.381 150.812 43.0823 149.121 44.4851 147.608C45.9153 146.095 47.5381 145.311 49.3534 145.256C47.2906 147.952 46.4654 150.221 46.878 152.064C47.153 153.301 48.267 154.347 50.2198 155.199C51.8426 155.914 53.4379 156.3 55.0056 156.355L53.1903 158.417C52.4752 159.022 51.6363 159.325 50.6736 159.325C48.6658 159.325 46.8092 158.692 45.1039 157.427C43.2886 156.052 42.381 154.47 42.381 152.683Z" fill="#D18200"/>
<path d="M48.4458 146.535C49.766 144.445 50.5361 143.51 50.7562 143.73L49.0646 146.659C47.9369 148.832 47.5106 150.565 47.7856 151.857C48.0332 152.848 49.0234 153.769 50.7562 154.622C52.3789 155.419 53.878 155.818 55.2532 155.818C56.2159 155.818 57.2473 155.584 58.3475 155.117L59.709 154.498C58.4713 155.736 56.9585 156.354 55.1707 156.354C53.6304 156.354 52.0076 155.983 50.3023 155.24C48.2945 154.388 47.153 153.329 46.878 152.064C46.5479 150.606 47.0705 148.763 48.4458 146.535Z" fill="#0D131A"/>
<path d="M94.4063 189.855L96.6754 188.783L123.41 249.926L120.068 250.338C118.06 250.586 116.341 250.93 114.911 251.37C114.278 251.59 113.096 252.346 111.363 253.639L108.681 255.413C109.506 256.568 110.153 258.191 110.62 260.281C111.06 262.234 111.17 263.568 110.95 264.283C110.675 265.246 110.167 266.085 109.424 266.8C108.736 267.46 107.98 267.914 107.155 268.162C104.047 268.822 101.571 269.537 99.7284 270.307C98.5457 270.774 96.7717 271.792 94.4063 273.36L90.9819 275.794L89.6204 277.114C88.9328 277.582 88.0939 277.898 87.1037 278.063C86.2786 278.201 84.9034 277.967 82.978 277.362L79.925 278.063L76.6657 278.888C75.2079 279.383 73.9427 279.879 72.87 280.374L71.261 281.158C70.4359 281.543 69.8307 281.694 69.4457 281.611C68.8681 281.474 68.648 280.882 68.7856 279.837C68.9231 278.847 69.2944 277.678 69.8995 276.33L70.7659 274.598L63.2571 274.969C62.3219 275.134 61.428 275.382 60.5754 275.712L58.7601 276.495L57.2336 276.619C56.9585 276.454 56.8622 276.165 56.9448 275.753C57.0548 274.873 57.3298 273.924 57.7699 272.906C58.6225 270.843 59.9703 268.959 61.8131 267.254L58.595 267.171C57.0548 267.199 55.8171 267.419 54.8819 267.831C53.4792 268.492 53.0666 267.886 53.6442 266.016C54.1118 264.503 55.5283 262.826 57.8937 260.983C59.2139 259.993 60.6441 259.126 62.1844 258.384C63.4771 257.751 64.5636 257.338 65.4437 257.146L65.8563 257.063L66.8052 256.981L71.9211 253.763C73.3514 252.773 74.7404 251.576 76.0881 250.173L77.9859 247.863L78.3985 245.965L75.9643 244.15C74.6716 243.132 73.6539 242.128 72.9113 241.138C70.0508 237.287 68.4005 233.904 67.9604 230.989C67.1628 225.515 69.0194 218.928 73.5301 211.227C76.5557 206.028 81.3277 200.692 87.8464 195.219C93.0723 191.258 95.2589 189.47 94.4063 189.855Z" fill="#0D131A"/>
<path d="M88.7128 196.58C90.3355 195.233 91.9308 194.091 93.4986 193.156L95.3964 192.125L119.738 247.863C117.62 248.11 115.764 248.482 114.168 248.977C113.316 249.252 112.229 249.953 110.909 251.081C109.424 252.346 108.282 253.171 107.485 253.556C107.017 253.804 106.288 254.258 105.298 254.918L103.978 255.826L105.133 255.991C105.931 256.101 106.467 256.238 106.742 256.403C107.072 256.623 107.416 257.338 107.774 258.549L108.516 261.973C107.966 262.853 106.728 263.692 104.803 264.49C103.428 265.04 101.97 265.494 100.43 265.851C98.9995 266.181 97.4593 266.662 95.809 267.295C93.8561 268.01 92.3571 268.725 91.312 269.44L88.2177 271.38C87.2275 271.93 86.3473 272.246 85.5772 272.328L83.5143 275.423C81.0939 274.625 78.3297 273.429 75.2217 271.833C71.8936 270.101 69.3494 268.492 67.5891 267.006C65.5812 265.328 64.426 263.747 64.1235 262.262L64.2885 260.529L73.6126 254.712C75.2354 253.584 76.7207 252.264 78.0684 250.751C79.1136 249.568 79.7737 248.647 80.0487 247.987L80.2138 246.832L81.8228 247.327L86.1961 247.657L83.9269 247.162L82.1529 246.501C81.7128 246.364 81.1489 246.089 80.4613 245.676L79.5124 245.057C78.5772 244.452 77.2295 242.967 75.4692 240.602C73.2688 237.714 71.9348 234.482 71.4673 230.906C70.6696 225.213 72.0861 219.052 75.7167 212.423C79.2099 206.069 83.5419 200.789 88.7128 196.58Z" fill="#F29600"/>
<path d="M104.803 264.49C106.728 263.692 107.966 262.853 108.516 261.973C108.654 263.128 108.681 263.829 108.599 264.077C108.269 264.93 107.636 265.617 106.701 266.14L104.39 267.006L99.4396 268.533C98.862 268.643 97.418 269.399 95.1076 270.802L90.8581 273.442L89.1666 274.886C88.4515 275.491 87.5988 275.877 86.6086 276.042C86.0585 276.124 85.0271 275.918 83.5143 275.423L85.5772 272.328C86.3473 272.246 87.2275 271.93 88.2177 271.38L91.3119 269.44C92.3571 268.725 93.8561 268.01 95.809 267.295C97.4593 266.662 98.9995 266.181 100.43 265.851C101.97 265.494 103.428 265.04 104.803 264.49Z" fill="#D18200"/>
<path d="M82.5654 248.936C82.0154 248.578 81.7816 248.344 81.8641 248.234L82.6892 248.482L84.422 249.06L86.6912 249.266L87.9701 249.431L86.7324 249.761L84.4633 249.678C83.8307 249.568 83.1981 249.321 82.5654 248.936Z" fill="#0D131A"/>
<path d="M95.2727 243.861C92.1096 239.213 90.5281 234.028 90.5281 228.307C90.5281 223.824 91.532 219.616 93.5399 215.683C95.4927 211.887 98.1607 208.751 101.544 206.276L119.738 247.863C117.62 248.111 115.764 248.482 114.168 248.977C113.316 249.252 112.229 249.953 110.909 251.081C109.424 252.346 108.282 253.172 107.485 253.557L107.444 253.598C102.438 251.673 98.3807 248.427 95.2727 243.861Z" fill="#D18200"/>
<path d="M66.6402 258.672C67.0252 258.562 67.3553 258.727 67.6303 259.167C67.9329 259.635 68.1392 260.336 68.2492 261.271C68.3867 262.619 68.2492 264.214 67.8366 266.057H58.9663C58.0312 266.112 56.9172 266.36 55.6245 266.8L53.9742 267.46C53.8642 267.13 53.9605 266.649 54.263 266.016C54.8406 264.778 56.1058 263.43 58.0587 261.973C59.3789 260.983 61.1117 260.171 63.2571 259.539L66.6402 258.672Z" fill="white"/>
<path d="M62.6795 264.325C65.7325 264.105 67.3828 263.678 67.6303 263.046H67.6716L67.3828 265.48L58.9251 265.521C58.0449 265.549 57.0548 265.741 55.9546 266.099C57.6874 265.136 59.929 264.545 62.6795 264.325Z" fill="#DBDCDC"/>
<path d="M65.98 258.26L66.4751 258.136L67.5891 258.301C68.2492 258.741 68.6618 259.718 68.8268 261.23V263.087L67.6716 263.046V261.354C67.5616 260.254 67.3278 259.552 66.9702 259.25C66.4751 258.92 65.2512 259.126 63.2983 259.869C61.373 260.584 59.7365 261.437 58.3887 262.427C56.3259 263.967 55.0744 265.342 54.6343 266.552L55.9546 266.099L56.7797 267.048L54.1805 267.996H53.7267C53.5341 267.914 53.4241 267.79 53.3966 267.625C53.3141 267.075 53.4241 266.484 53.7267 265.851C54.3318 264.503 55.6658 263.059 57.7286 261.519C59.5439 260.171 62.2944 259.085 65.98 258.26Z" fill="#0D131A"/>
<path d="M58.9663 266.635L56.7797 267.048L55.9546 266.099C57.0548 265.741 58.0449 265.549 58.9251 265.521L67.3828 265.48L67.6716 263.046L68.8268 263.087L68.4142 266.181C68.3317 266.484 68.1392 266.635 67.8366 266.635H58.9663Z" fill="#0D131A"/>
<path d="M66.1863 271.503C63.1058 272.329 60.6716 273.484 58.8838 274.969L59.5852 275.217L57.6874 276.042C57.6323 275.492 57.7699 274.79 58.0999 273.938C58.705 272.205 59.9015 270.541 61.6893 268.946C62.927 267.873 64.6736 266.635 66.929 265.232L70.4771 263.17C70.8897 262.922 71.591 263.266 72.5812 264.201C73.6814 265.191 74.4103 266.305 74.7678 267.543L74.9741 268.327L73.2826 269.688C72.5399 270.128 71.8661 270.403 71.261 270.513L66.1863 271.503Z" fill="white"/>
<path d="M63.6696 273.855C62.872 273.992 61.5105 274.446 59.5852 275.216L58.8838 274.969C60.6716 273.484 63.1058 272.328 66.1863 271.503L71.261 270.513C71.8661 270.403 72.5399 270.128 73.2826 269.688L74.9741 268.326C75.3317 269.949 75.4004 271.489 75.1804 272.947L63.6696 273.855Z" fill="#DBDCDC"/>
<path d="M58.43 274.928L58.8838 274.886C61.1392 273.951 62.707 273.415 63.5871 273.277L74.6441 272.411C74.8091 270.706 74.6716 269.138 74.2315 267.708C73.9289 266.663 73.3238 265.686 72.4162 264.778C71.6461 264.036 71.0822 263.664 70.7246 263.664L70.5184 263.788C66.5577 266.016 63.7384 267.873 62.0606 269.358C60.2178 270.981 59.0351 272.686 58.5125 274.474L58.43 274.928ZM60.2041 275.588C58.7738 276.165 58.0174 276.495 57.9349 276.578L57.3986 276.537L57.1098 276.083C57.0823 275.45 57.2335 274.666 57.5636 273.731C58.1962 271.916 59.4477 270.183 61.318 268.533C63.0783 266.938 65.9526 265.026 69.9408 262.798L70.1883 262.674C70.4633 262.509 70.8622 262.509 71.3848 262.674C72.0449 262.949 72.7737 263.541 73.5714 264.448C74.479 265.439 75.1254 266.484 75.5105 267.584C76.0331 269.069 76.2394 270.403 76.1293 271.586L75.758 273.03C75.703 273.305 75.5242 273.47 75.2217 273.525L63.7934 274.391C63.0233 274.501 61.8268 274.9 60.2041 275.588Z" fill="#0D131A"/>
<path d="M78.5222 268.615C78.8523 268.34 79.7462 268.56 81.204 269.275C82.7442 270.018 83.8169 270.829 84.422 271.71L84.587 271.998L83.8857 271.627C83.8857 272.617 83.3906 273.346 82.4004 273.814L77.4908 275.877C74.4928 277.224 72.4712 278.407 71.426 279.425L71.7973 279.755L70.3121 280.415C70.092 280.057 70.0233 279.548 70.1058 278.888C70.2158 277.568 70.9584 276.207 72.3337 274.804C75.5517 271.421 77.6146 269.358 78.5222 268.615Z" fill="white"/>
<path d="M85.4122 275.093L77.3258 277.692C75.9781 278.132 74.1352 278.819 71.7973 279.755L71.426 279.425C72.4712 278.407 74.4928 277.224 77.4908 275.876L82.4004 273.814C83.3906 273.346 83.8857 272.617 83.8857 271.627L84.5871 271.998C85.3022 273.181 85.5772 274.212 85.4122 275.093Z" fill="#DBDCDC"/>
<path d="M83.9269 272.04C83.4318 271.297 82.5242 270.582 81.2039 269.894C80.0487 269.289 79.2511 269.014 78.811 269.069L72.705 275.216C71.4398 276.509 70.7521 277.747 70.6421 278.93C70.5871 279.397 70.8209 279.535 71.3435 279.342L77.1195 277.155L81.8228 275.711L84.6696 274.639C84.9446 273.979 84.6971 273.112 83.9269 272.04ZM78.1509 268.161C78.371 267.996 78.7285 267.928 79.2236 267.955C80.0488 268.065 81.0389 268.45 82.1941 269.11C83.4318 269.825 84.3257 270.582 84.8758 271.379C85.6185 272.48 86.031 273.497 86.1136 274.432C86.1961 275.065 86.1136 275.533 85.866 275.835C85.7835 275.973 85.4809 276.083 84.9584 276.165L82.1529 276.825L77.4908 278.228C75.923 278.751 74.3003 279.356 72.6225 280.043L70.5596 280.91C70.257 281.047 70.0095 280.979 69.817 280.704C69.5694 280.236 69.4732 279.631 69.5282 278.888C69.6107 277.431 70.4083 275.932 71.9211 274.391C75.3867 270.816 77.4633 268.739 78.1509 268.161Z" fill="#0D131A"/>
<path d="M141.233 78.626C141.811 78.7635 142.278 79.0661 142.636 79.5337C142.993 80.0013 143.158 80.5376 143.131 81.1427L142.636 94.4688C142.388 103.848 142.416 109.981 142.718 112.869C143.103 116.335 144.204 120.901 146.019 126.567C147.972 132.618 150.076 137.679 152.331 141.749C153.487 143.812 155.976 147.801 159.799 153.714L169.659 169.392C173.29 175.47 175.82 180.311 177.251 183.914C180.689 192.633 183.123 199.812 184.553 205.451C187.166 215.627 187.95 224.608 186.905 232.392C185.75 240.863 182.229 247.492 176.343 252.277C170.567 257.008 162.907 259.594 153.363 260.034C141.921 260.556 131.524 258.837 122.172 254.877C109.878 249.706 100.113 240.932 92.8797 228.555C86.2236 217.14 84.422 204.323 87.475 190.103C89.7029 179.734 94.5988 168.484 102.163 156.355C108.874 145.545 112.944 130.665 114.375 111.714C114.815 105.498 114.113 97.4805 112.271 87.6613L109.341 74.6241C109.286 74.2665 109.506 73.8952 110.001 73.5101L111.28 72.6025C111.941 71.9699 112.724 71.7636 113.632 71.9836L141.233 78.626Z" fill="#0D131A"/>
<path d="M97.8306 231.731C107.512 239.818 117.785 244.892 128.65 246.955C139.542 249.018 148.989 247.629 156.993 242.788C158.589 247.354 160.569 250.627 162.934 252.608C164.035 253.57 165.465 254.45 167.225 255.248C163.182 256.926 158.561 257.888 153.363 258.136C143.213 258.576 133.958 257.228 125.597 254.093C114.21 249.802 104.954 242.348 97.8306 231.731Z" fill="#DDD583"/>
<path d="M91.2707 185.152C93.7461 178.111 96.8954 172.486 100.719 168.278C106.027 162.447 112.271 159.793 119.449 160.315C128.058 160.976 135.705 167.604 142.388 180.201C148.357 191.451 151.726 203.319 152.496 215.806C153.211 227.358 154.71 236.352 156.993 242.789C148.99 247.629 139.542 249.018 128.65 246.956C117.785 244.893 107.512 239.818 97.8306 231.732L95.5202 228.06C88.2314 215.6 86.8149 201.298 91.2707 185.152Z" fill="#FFF697"/>
<path d="M154.394 163.451C154.394 160.233 155.398 157.29 157.406 154.622C164.722 165.954 169.701 174.191 172.341 179.335H172.176C167.253 179.335 163.058 177.781 159.593 174.673C156.127 171.592 154.394 167.851 154.394 163.451Z" fill="#D18200"/>
<path d="M140.614 81.1014L140.573 83.0405L140.408 98.9657C140.408 104.439 140.504 108.606 140.697 111.467L140.821 112.869C141.233 116.83 142.292 121.685 143.997 127.433C145.868 133.759 147.917 138.93 150.145 142.946L162.522 162.626C168.903 172.692 173.029 180.091 174.899 184.822C178.365 193.623 180.826 200.898 182.284 206.647C184.704 216.246 185.42 224.718 184.429 232.061C183.714 237.37 182.009 241.936 179.314 245.759C176.756 249.417 173.359 252.291 169.123 254.382C166.95 253.556 165.204 252.58 163.883 251.452C161.243 249.197 159.208 245.305 157.777 239.776C156.457 234.523 155.494 227.001 154.889 217.209C154.532 211.213 153.514 204.859 151.836 198.148C150.048 190.997 147.834 184.849 145.194 179.706C142.306 174.068 138.95 169.364 135.127 165.596C130.231 160.783 125.143 158.184 119.862 157.798C110.648 157.111 102.644 162.007 95.8503 172.486C98.0231 167.618 100.636 162.722 103.689 157.798C110.675 146.632 114.87 131.655 116.273 112.869C116.52 109.184 116.273 104.192 115.53 97.8931C114.732 91.2644 113.673 85.8185 112.353 81.5552L113.054 74.624V74.459L140.614 81.1014Z" fill="#F29600"/>
<path d="M140.614 81.1014L140.573 83.0405L140.408 98.9657C140.408 104.439 140.504 108.606 140.697 111.467L140.821 112.869L141.646 118.15C136.64 119.498 131.758 118.508 126.999 115.18C123.039 112.402 119.367 108.139 115.984 102.39C115.296 94.1112 114.086 87.1662 112.353 81.5552L113.054 74.624V74.459L140.614 81.1014Z" fill="#D18200"/>
<path d="M186.327 196.952C190.59 201.82 194.125 207.074 196.93 212.712C200.671 220.166 202.541 228.074 202.541 236.435C202.541 240.753 201.537 245.415 199.53 250.421C198.539 252.952 197.535 255.083 196.518 256.816C196.298 258.136 196.188 259.47 196.188 260.818C199.846 263.624 202.253 265.769 203.408 267.254L205.306 269.565L206.708 271.215C207.973 271.957 208.799 272.755 209.184 273.608C209.541 274.46 209.693 275.478 209.638 276.661L212.237 281.405C213.199 283.551 213.584 285.6 213.392 287.553C213.282 288.598 213.034 289.451 212.649 290.111C212.154 291.211 211.632 291.788 211.082 291.843L210.174 291.183L209.638 290.482C208.262 289.052 207.3 288.199 206.75 287.924L204.109 286.934L200.932 285.82L197.879 285.985V287.883C197.824 289.368 197.618 290.606 197.26 291.596C196.848 292.779 196.325 293.796 195.693 294.649C195.06 295.529 194.551 295.914 194.166 295.804C193.974 295.777 193.547 295.24 192.887 294.195C192.365 293.37 191.787 292.655 191.154 292.05L187.771 289.822L184.429 287.965L182.655 287.346L180.097 287.388C179.657 289.148 178.763 291.183 177.416 293.494C176.701 294.869 176.178 295.543 175.848 295.515C175.655 295.488 175.312 295.144 174.816 294.484L174.156 293.535C173.249 292.05 172.52 291.018 171.97 290.441L169.494 288.254L166.606 285.737L164.708 285.077L163.388 284.087C162.921 283.675 162.591 283.179 162.398 282.602C162.261 282.189 162.164 281.612 162.109 280.869C161.889 276.193 163.512 271.022 166.978 265.356L166.73 262.138C162.879 260.24 159.221 257.16 155.756 252.897C152.84 249.321 150.997 244.728 150.227 239.117L149.897 231.732C150.062 227.248 151.685 222.793 154.765 218.364C156.581 215.724 158.616 213.455 160.872 211.557L178.323 189.979L177.663 185.895L179.644 189.897L186.327 196.952Z" fill="#0D131A"/>
<path d="M191.484 125.164L191.649 124.257C191.842 122.441 192.557 120.997 193.795 119.925L194.042 119.718C194.812 118.948 195.803 118.37 197.013 117.985C198.691 117.435 200.176 117.545 201.469 118.315C203.091 119.251 204.37 120.832 205.306 123.06C206.323 125.508 206.323 127.502 205.306 129.042L204.15 131.229C203.683 132.192 203.421 132.838 203.366 133.168C203.449 133.498 203.807 134.062 204.439 134.86L205.924 136.592L209.679 135.891C211.219 135.781 212.333 136.249 213.021 137.294C213.378 137.844 213.681 139.59 213.928 142.533C214.176 145.504 214.135 147.319 213.805 147.979C213.584 148.419 213.213 148.832 212.691 149.217L210.751 150.496L209.06 151.156C208.317 151.404 207.877 151.624 207.74 151.816C206.832 152.806 205.498 154.773 203.738 157.716C203.298 158.459 202.528 159.036 201.427 159.449L198.869 160.026C196.779 168.443 194.909 174.439 193.258 178.015C191.966 180.848 190.453 182.828 188.72 183.956C187.18 184.946 185.282 185.468 183.027 185.523C181.019 185.578 179.437 185.29 178.282 184.657C177.925 184.464 176.26 182.8 173.29 179.665L168.05 174.26L165.204 172.197L162.233 170.258C161.105 169.488 159.758 168.745 158.19 168.03L156.168 167.205L154.6 167.081L152.826 167.412L151.878 167.7L153.693 166.421C152.043 166.201 151.204 165.954 151.176 165.679C151.149 165.514 151.355 165.404 151.795 165.349H152.496L140.202 146.37C139.267 146.81 138.73 146.81 138.593 146.37C138.51 146.095 138.524 145.862 138.634 145.669L139.17 145.091C139.473 144.844 140.697 144.129 142.842 142.946C144.795 141.901 147.037 141.117 149.567 140.594C152.318 140.044 154.422 140.031 155.879 140.553C158.52 141.516 160.376 142.877 161.449 144.638C162.467 146.37 162.989 148.956 163.017 152.394L165.121 153.549C166.029 154.072 166.73 154.594 167.225 155.117L167.927 155.901L171.516 159.944C173.221 161.842 174.5 163.093 175.353 163.698C176.508 164.524 177.883 164.964 179.479 165.019L182.697 164.771L183.398 160.109C183.646 157.551 183.673 155.832 183.48 154.952L181.088 152.93C179.85 152.49 179.025 152.091 178.612 151.734C177.787 150.909 177.416 149.575 177.498 147.732L177.539 145.751L176.838 145.133C174.913 143.537 173.62 142.245 172.96 141.254C171.942 139.769 171.653 138.05 172.094 136.097C172.506 134.31 173.221 133.196 174.239 132.755C175.037 132.425 175.422 132.288 175.394 132.343L179.437 130.321C180.125 130.074 180.785 130.129 181.418 130.486L182.697 131.642C183.467 132.412 183.921 132.81 184.058 132.838L186.905 133.209L189.504 129.001C190.659 126.993 191.319 125.714 191.484 125.164Z" fill="#0D131A"/>
<path d="M193.754 125.618L194.084 123.308C194.249 122.373 194.51 121.754 194.867 121.451L197.013 119.842C198.306 119.347 199.832 119.581 201.592 120.543L203.078 123.308C203.93 125.343 204.04 126.842 203.408 127.805C202.995 128.41 202.555 129.414 202.087 130.816C201.592 132.247 201.386 133.182 201.469 133.622C201.634 134.64 202.363 135.74 203.655 136.923L205.553 138.367L207.822 137.706C209.445 137.431 210.545 137.72 211.123 138.573C211.728 139.453 212.058 141.007 212.113 143.235C212.168 145.188 212.058 146.425 211.783 146.948L209.431 148.64C207.863 149.575 206.86 150.276 206.419 150.744L203.779 153.879C202.624 155.309 201.95 156.217 201.757 156.602C201.317 157.345 200.382 157.909 198.952 158.294L196.93 158.624L196.311 162.502C195.679 165.72 194.785 168.828 193.63 171.826C192.282 175.292 191.209 177.63 190.412 178.84C189.724 179.857 188.706 180.806 187.359 181.687C186.176 182.457 184.691 182.911 182.903 183.048C181.253 183.186 180.042 183.034 179.272 182.594C178.832 182.374 177.856 181.343 176.343 179.5C174.748 177.547 173.524 176.254 172.671 175.622L168.463 172.197C166.455 170.52 164.818 169.254 163.553 168.402C161.875 167.247 158.74 166.298 154.147 165.555L152.208 165.307H151.465L139.789 146.618L145.524 144.06C149.705 142.492 152.661 142.011 154.394 142.616C156.43 143.359 157.915 144.17 158.85 145.05C159.703 145.82 160.335 146.879 160.748 148.227C161.243 149.905 161.408 151.72 161.243 153.673L162.976 154.663C164.268 155.461 165.259 156.231 165.946 156.974L169.577 160.893C171.392 162.736 172.85 164.056 173.95 164.854C176.343 166.559 179.052 167.288 182.078 167.04C181.858 167.81 181.266 168.498 180.304 169.103L178.241 170.547L176.549 171.537C176.109 171.895 175.875 172.404 175.848 173.064C175.82 173.806 176.123 174.948 176.756 176.488C177.388 178.001 177.815 178.716 178.035 178.634L177.581 177.19C177.086 175.924 176.879 174.632 176.962 173.311C176.962 173.036 177.141 172.761 177.498 172.486C177.718 172.349 178.255 172.032 179.107 171.537L180.923 170.506C181.94 169.846 182.862 168.856 183.687 167.535L184.017 166.793L184.594 164.647L185.626 159.903C185.873 158.418 185.915 156.987 185.75 155.612L185.378 154.003C183.591 152.27 182.408 151.28 181.83 151.032L180.469 150.331C180.001 149.836 179.767 148.97 179.767 147.732L179.809 145.587L179.644 144.679L177.333 142.946C175.765 141.873 174.734 140.993 174.239 140.306C173.029 138.628 172.767 137.115 173.455 135.767L174.816 134.241L180.18 132.467L181.335 133.498C182.105 134.323 182.765 134.832 183.315 135.025L186.08 135.479L188.143 135.272C188.5 135.08 189.49 133.594 191.113 130.816C192.763 128.038 193.644 126.306 193.754 125.618Z" fill="#F29600"/>
<path d="M185.337 139.935C185.227 141.035 184.636 141.75 183.563 142.08C182.573 142.382 181.775 142.272 181.17 141.75C180.015 140.76 179.011 140.086 178.158 139.728L176.838 139.522L175.848 139.398C174.885 139.233 174.211 138.449 173.826 137.047C173.579 136.084 173.551 135.121 173.744 134.159C174.019 133.003 174.596 132.027 175.477 131.229C176.522 130.294 177.787 129.895 179.272 130.033C180.62 130.17 181.528 130.569 181.995 131.229L182.243 131.477C183.976 133.21 184.952 134.75 185.172 136.098C185.42 137.638 185.475 138.917 185.337 139.935Z" fill="#0D131A"/>
<path d="M185.007 138.738L184.801 136.18C184.581 134.97 183.646 133.498 181.995 131.765L181.706 131.477C181.266 130.926 180.441 130.583 179.231 130.445C177.911 130.28 176.742 130.638 175.724 131.518C174.569 132.563 173.991 133.87 173.991 135.437L174.198 136.923C174.555 138.188 175.119 138.889 175.889 139.027L176.879 139.15L178.323 139.357C179.176 139.742 180.084 140.347 181.046 141.172C181.624 141.612 182.367 141.763 183.274 141.626C184.264 141.461 184.814 140.952 184.924 140.099L185.007 138.738ZM185.543 136.056C185.818 137.706 185.722 139.205 185.255 140.553C184.732 141.928 184.237 142.74 183.769 142.987C183.302 143.235 182.669 143.001 181.871 142.286C181.074 141.571 179.781 140.828 177.993 140.058L175.765 139.769C174.665 139.604 173.895 138.724 173.455 137.129C173.18 136.111 173.152 135.093 173.372 134.076C173.648 132.866 174.266 131.834 175.229 130.981C176.329 129.964 177.691 129.524 179.314 129.661L181.129 130.156L182.284 130.981L182.532 131.229C184.292 132.989 185.296 134.598 185.543 136.056Z" fill="#0D131A"/>
<path d="M179.314 131.105C180.194 131.243 180.771 131.476 181.046 131.806L182.449 133.374C183.274 134.392 183.756 135.286 183.893 136.056C184.196 137.926 184.182 139.439 183.852 140.594L183.233 141.791L182.944 141.502C182.504 140.264 181.376 138.985 179.561 137.665L178.406 137.376C177.718 137.266 177.141 137.06 176.673 136.757L174.899 134.901C175.009 133.69 175.49 132.728 176.343 132.013C177.168 131.27 178.158 130.967 179.314 131.105Z" fill="white"/>
<path d="M176.137 137.995C175.807 137.94 175.504 137.61 175.229 137.005C174.954 136.345 174.844 135.644 174.899 134.901L176.673 136.757C177.141 137.06 177.718 137.266 178.406 137.376L179.561 137.665C181.376 138.985 182.504 140.264 182.944 141.502C181.321 139.962 179.877 138.917 178.612 138.366L177.416 138.119L176.137 137.995Z" fill="#DBDCDC"/>
<path d="M200.313 118.356C201.716 118.989 202.624 120.062 203.036 121.574C203.311 122.537 203.353 123.582 203.16 124.71C203.023 125.7 202.789 126.401 202.459 126.814C198.691 130.445 196.215 132.397 195.032 132.673C194.482 132.755 194.084 132.645 193.836 132.342C193.231 131.6 192.805 130.032 192.557 127.639C192.282 125.109 192.433 123.252 193.011 122.069C194.689 118.191 197.123 116.954 200.313 118.356Z" fill="#0D131A"/>
<path d="M200.025 118.975C198.402 118.26 197.027 118.329 195.899 119.182C195.074 119.787 194.317 120.846 193.63 122.358C193.107 123.486 192.928 125.288 193.093 127.763C193.231 130.129 193.533 131.6 194.001 132.178L194.62 132.26C195.253 132.123 196.587 131.188 198.622 129.455L201.922 126.402L202.376 125.246L202.583 123.349L202.376 121.74C202.046 120.447 201.262 119.525 200.025 118.975ZM192.64 121.781C193.327 119.746 194.386 118.37 195.816 117.655C197.219 116.94 198.801 116.968 200.561 117.738C202.266 118.48 203.325 119.897 203.738 121.987C204.123 123.967 203.779 125.632 202.706 126.979C201.661 128.465 200.162 129.95 198.209 131.435C196.146 133.03 194.73 133.677 193.96 133.374C193.107 133.044 192.502 131.586 192.144 129.001C191.759 126.278 191.924 123.871 192.64 121.781Z" fill="#0D131A"/>
<path d="M194.042 122.152C194.702 120.694 195.431 119.69 196.229 119.14L199.818 119.017C200.588 119.319 201.194 119.869 201.634 120.667C201.524 122.235 201.111 123.582 200.396 124.71C198.581 127.433 196.573 129.881 194.372 132.054C193.932 132.109 193.63 130.775 193.465 128.052C193.3 125.274 193.492 123.307 194.042 122.152Z" fill="white"/>
<path d="M198.251 129.042C196.243 130.913 194.964 131.916 194.414 132.054H194.372C196.573 129.881 198.581 127.433 200.396 124.71C201.111 123.583 201.524 122.235 201.634 120.667C202.074 121.52 202.225 122.565 202.087 123.803C201.977 124.738 201.799 125.398 201.551 125.783L198.251 129.042Z" fill="#DBDCDC"/>
<path d="M201.262 142.905L203.243 139.15C203.985 138.298 204.92 137.858 206.048 137.83C207.176 137.83 208.194 138.298 209.101 139.233C210.091 140.223 210.463 141.502 210.215 143.07C209.968 144.307 209.115 145.284 207.657 145.999L204.48 147.113C202.583 147.691 201.29 147.938 200.602 147.856L199.736 147.773C199.516 147.14 200.025 145.518 201.262 142.905Z" fill="#0D131A"/>
<path d="M201.345 143.688C200.272 146.054 199.777 147.346 199.86 147.567L201.139 147.484L204.027 146.989C204.989 146.741 206.158 146.274 207.533 145.586C208.881 144.899 209.651 144.032 209.844 142.987L209.885 142.162C209.885 141.089 209.541 140.209 208.854 139.521C207.974 138.614 207.052 138.187 206.089 138.242C205.044 138.242 204.205 138.614 203.573 139.356L201.345 143.688ZM199.076 148.309C198.773 148.034 199.103 146.673 200.066 144.225C201.056 141.694 202.019 139.906 202.954 138.861C203.807 137.954 204.838 137.486 206.048 137.458C207.286 137.458 208.4 137.967 209.39 138.985C210.49 140.085 210.889 141.46 210.586 143.111C210.449 143.908 210.119 144.651 209.596 145.339L207.987 146.7C207.272 147.085 205.704 147.511 203.284 147.979L199.076 148.309Z" fill="#0D131A"/>
<path d="M209.307 141.089C208.565 142.217 207.506 143.304 206.131 144.349C204.425 145.586 202.459 146.577 200.231 147.319C199.983 147.292 200.52 146.026 201.84 143.524C203.105 141.131 203.917 139.728 204.274 139.315C204.742 138.82 205.292 138.531 205.924 138.449C206.832 138.311 207.685 138.655 208.482 139.48C208.95 139.948 209.225 140.484 209.307 141.089Z" fill="white"/>
<path d="M207.698 145.133L204.068 146.412C202.005 147.072 200.726 147.374 200.231 147.319C202.459 146.577 204.425 145.586 206.131 144.349C207.506 143.304 208.565 142.217 209.307 141.089C209.417 141.914 209.252 142.781 208.812 143.689C208.455 144.431 208.084 144.913 207.698 145.133Z" fill="#DBDCDC"/>
<path d="M193.877 143.812C193.107 144.445 192.365 145.201 191.649 146.082C190.192 147.869 189.559 149.41 189.752 150.702C189.862 151.583 190.164 152.449 190.659 153.302C189.201 152.944 187.991 152.105 187.029 150.785C186.066 149.437 185.585 147.911 185.585 146.205C185.585 144.198 186.217 142.478 187.482 141.048C188.72 139.618 190.233 138.903 192.021 138.903C193.121 138.903 194.152 139.205 195.115 139.81C196.05 140.388 196.82 141.172 197.425 142.162C195.748 142.712 194.565 143.262 193.877 143.812Z" fill="#D18200"/>
<path d="M193.877 143.812C194.345 143.455 195.156 143.042 196.311 142.575C197.439 142.107 198.031 141.928 198.086 142.038L196.642 142.863L194.455 144.101C193.712 144.679 192.901 145.655 192.021 147.03C191.003 148.681 190.563 150.015 190.7 151.032C190.948 152.82 191.979 154.512 193.795 156.107L196.353 158.046C196.215 158.404 195.198 157.812 193.3 156.272C191.237 154.594 190.054 152.738 189.752 150.702C189.559 149.41 190.192 147.869 191.649 146.081C192.365 145.201 193.107 144.445 193.877 143.812Z" fill="#0D131A"/>
<path d="M175.559 186.472L176.26 188.164C176.838 189.456 177.429 190.502 178.035 191.299L183.357 196.663C186.795 200.541 189.999 205.464 192.97 211.433C196.27 218.034 198.333 224.126 199.158 229.71C199.763 233.973 199.667 238.305 198.869 242.706C198.347 245.731 197.522 248.812 196.394 251.947L194.744 256.486C194.551 257.448 194.441 258.507 194.414 259.662C194.359 260.845 194.427 261.519 194.62 261.684L197.343 263.871C199.296 265.521 200.63 266.827 201.345 267.79L205.306 272.782L206.254 273.277C206.942 273.662 207.341 274.006 207.451 274.309C207.836 275.244 207.781 276.454 207.286 277.939C206.681 279.672 205.636 280.937 204.15 281.735L200.726 283.55C200.561 281.9 200.258 281.199 199.818 281.446C198.361 282.326 196.958 282.519 195.61 282.024V285.077L189.793 285.654L186.864 285.778C185.708 283.138 184.759 282.134 184.017 282.766C183.302 283.399 182.367 283.592 181.211 283.344C180.194 283.124 179.41 282.684 178.86 282.024L178.736 285.737C174.803 285.599 171.612 285.187 169.164 284.499L168.009 281.24C167.184 280.8 166.469 280.098 165.864 279.136C165.259 278.146 164.86 277.059 164.667 275.876C165.245 272.686 166.565 269.482 168.628 266.264C168.793 265.961 168.848 264.751 168.793 262.633L170.443 262.963L174.198 263.128L176.137 262.839L174.239 262.509L170.773 261.932L168.752 261.354V261.313C168.119 261.175 167.211 260.708 166.029 259.91C163.636 258.287 161.064 255.784 158.314 252.401C155.481 248.908 153.652 244.906 152.826 240.395C152.386 238.002 152.235 234.853 152.373 230.947C152.538 226.354 153.982 221.637 156.705 216.796L160.748 210.896L175.559 186.472Z" fill="#F29600"/>
<path d="M199.818 281.446C200.258 281.199 200.561 281.9 200.726 283.55C199.378 284.211 197.673 284.719 195.61 285.077V282.024C196.958 282.519 198.361 282.327 199.818 281.446Z" fill="#D18200"/>
<path d="M184.017 282.766C184.759 282.134 185.708 283.138 186.864 285.778C184.058 285.861 181.349 285.847 178.736 285.737L178.86 282.024C179.41 282.684 180.194 283.124 181.211 283.344C182.367 283.591 183.302 283.399 184.017 282.766Z" fill="#D18200"/>
<path d="M164.667 275.876C164.86 277.059 165.259 278.146 165.864 279.136C166.469 280.098 167.184 280.8 168.009 281.24L169.164 284.499C166.001 283.674 164.378 282.45 164.296 280.827C164.213 279.26 164.337 277.609 164.667 275.876Z" fill="#D18200"/>
<path d="M200.767 280.869L200.602 280.951C201.262 279.301 202.101 278.022 203.119 277.114C204.219 276.151 205.017 275.546 205.512 275.299C206.062 274.996 206.488 275.038 206.791 275.423L208.606 278.269L210.71 282.148C211.563 284.073 211.907 285.874 211.742 287.552C211.659 288.405 211.494 289.051 211.247 289.491C211.082 288.336 210.256 287.098 208.771 285.778C207.561 284.705 206.543 284.018 205.718 283.715C204.7 283.385 203.752 283.014 202.871 282.601C201.551 281.941 200.85 281.364 200.767 280.869Z" fill="white"/>
<path d="M200.19 283.427C199.832 283.289 199.97 282.464 200.602 280.951L200.767 280.869C200.85 281.364 201.551 281.941 202.871 282.601C203.752 283.014 204.7 283.385 205.718 283.715C206.543 284.018 207.561 284.706 208.771 285.778C210.256 287.098 211.082 288.336 211.247 289.491C209.651 287.841 208.482 286.823 207.74 286.438L203.779 284.829L200.19 283.427Z" fill="#DBDCDC"/>
<path d="M191.361 276.289L194.042 280.002C195.638 282.478 196.435 284.444 196.435 285.902C196.435 288.515 196.146 290.592 195.569 292.132L194.702 293.617L194.331 293.081C194.414 291.458 193.547 289.821 191.732 288.171C190.467 286.988 189.229 286.15 188.019 285.654C186.121 284.829 185.048 283.784 184.801 282.519C185.461 280.649 186.203 279.26 187.029 278.352C187.909 277.417 188.83 276.757 189.793 276.372L191.361 276.289Z" fill="white"/>
<path d="M188.019 285.654C189.229 286.149 190.467 286.988 191.732 288.171C193.547 289.821 194.414 291.458 194.331 293.081L192.557 290.977C192.007 290.454 190.563 289.478 188.225 288.047C185.997 286.672 184.691 285.929 184.306 285.819C184.141 285.792 184.113 285.448 184.223 284.788C184.306 284.128 184.498 283.371 184.801 282.519C185.048 283.784 186.121 284.829 188.019 285.654Z" fill="#DBDCDC"/>
<path d="M170.113 277.857C170.718 277.114 171.351 276.523 172.011 276.083C172.781 275.615 173.304 275.546 173.579 275.876L176.219 279.053C177.704 280.924 178.53 282.148 178.695 282.725C179.135 284.21 178.805 286.356 177.704 289.161C177.154 290.564 176.549 291.816 175.889 292.916L175.642 292.503V292.297C175.559 290.922 175.064 289.601 174.156 288.336L171.846 285.654L169.907 283.674L168.257 281.818C168.917 279.865 169.536 278.544 170.113 277.857Z" fill="white"/>
<path d="M171.846 285.655L174.156 288.336C175.064 289.601 175.559 290.922 175.642 292.297V292.503C174.596 290.935 173.84 289.904 173.372 289.409L167.927 284.128C167.706 283.963 167.817 283.193 168.257 281.818L169.907 283.674L171.846 285.655Z" fill="#DBDCDC"/>
<path d="M201.097 280.415C200.492 281.708 200.231 282.615 200.313 283.138L200.478 283.385L201.469 283.757L207.657 286.232C208.345 286.617 209.459 287.594 210.999 289.161C211.247 288.776 211.412 288.13 211.494 287.222C211.659 285.654 211.329 283.977 210.504 282.189L208.524 278.476L206.75 275.753C206.612 275.56 206.447 275.464 206.254 275.464C205.787 275.409 204.783 276.042 203.243 277.362C202.473 278.049 201.757 279.067 201.097 280.415ZM200.932 285.201L199.901 284.788C199.323 284.596 198.966 284.142 198.828 283.427C198.691 282.574 198.993 281.364 199.736 279.796C200.478 278.228 201.317 277.032 202.253 276.207L204.48 274.474C205.196 274.061 205.842 273.882 206.419 273.937C207.025 274.02 207.547 274.323 207.987 274.845L209.803 277.692L211.865 281.57C212.828 283.66 213.199 285.654 212.979 287.552C212.869 288.515 212.649 289.299 212.319 289.904L211.824 290.812L211.247 291.183C210.999 291.238 210.793 291.155 210.628 290.935L209.926 290.234C208.386 288.694 207.382 287.814 206.915 287.594C206.254 287.209 204.26 286.411 200.932 285.201Z" fill="#0D131A"/>
<path d="M184.471 285.613L184.636 285.819C185.048 285.957 186.3 286.672 188.39 287.965C190.59 289.285 191.952 290.193 192.475 290.688L194.496 293.205C194.799 292.957 195.074 292.476 195.321 291.761C195.871 290.303 196.146 288.336 196.146 285.861C196.146 283.825 194.592 280.855 191.484 276.949L191.319 276.702L190.907 276.537C190.494 276.509 189.985 276.66 189.38 276.99C188.61 277.376 187.881 277.939 187.194 278.682C186.451 279.48 185.777 280.717 185.172 282.395C184.567 283.99 184.333 285.063 184.471 285.613ZM184.141 287.263C183.591 287.098 183.219 286.686 183.027 286.026C182.779 285.173 182.999 283.798 183.687 281.9C184.402 280.03 185.2 278.613 186.08 277.651C186.85 276.798 187.689 276.138 188.596 275.67C189.477 275.203 190.274 274.983 190.989 275.01C191.649 275.065 192.172 275.326 192.557 275.794L192.681 276C196.009 280.181 197.673 283.468 197.673 285.861C197.673 288.556 197.357 290.729 196.724 292.379C196.366 293.315 195.954 293.988 195.486 294.401L194.826 294.937L194.207 295.144L193.671 294.772L193.217 294.03C192.667 293.15 192.076 292.407 191.443 291.802C191.003 291.389 189.752 290.55 187.689 289.285C185.681 288.047 184.498 287.373 184.141 287.263Z" fill="#0D131A"/>
<path d="M173.95 276.743L173.579 276.289C173.441 276.152 173.29 276.083 173.125 276.083C172.74 276.083 172.272 276.303 171.722 276.743C171.172 277.156 170.691 277.637 170.278 278.187C169.838 278.71 169.329 279.727 168.752 281.24C168.147 282.835 167.954 283.812 168.174 284.169L170.608 286.438L173.372 289.161C173.95 289.794 174.748 290.908 175.765 292.503C176.646 291.018 177.361 289.464 177.911 287.841C178.626 285.668 178.805 283.991 178.447 282.808C178.227 282.038 176.728 280.016 173.95 276.743ZM169.082 277.238C169.439 276.743 169.934 276.234 170.567 275.712C171.502 274.941 172.355 274.556 173.125 274.556C173.758 274.556 174.294 274.804 174.734 275.299L175.105 275.753C178.021 279.163 179.616 281.364 179.891 282.354C180.386 284.004 180.125 286.232 179.107 289.038C178.53 290.55 177.856 291.967 177.086 293.287L176.467 294.36L175.807 294.772L175.188 294.401L174.486 293.328L172.259 290.193L167.184 285.283C166.386 284.596 166.428 283.097 167.308 280.786C167.968 279.108 168.559 277.926 169.082 277.238Z" fill="#0D131A"/>
<path d="M173.62 264.943L171.31 264.448C170.512 264.173 170.141 263.967 170.196 263.829L171.227 263.953L173.331 264.242L176.714 264.159C178.2 264.077 178.942 264.077 178.942 264.159L176.838 264.654L173.62 264.943Z" fill="#0D131A"/>
<path d="M135.581 5.39446C137.561 5.25694 139.212 6.65968 140.532 9.6027C140.889 10.3728 141.316 12.0644 141.811 14.6773L142.842 20.4533C143.035 21.581 143.984 25.7618 145.689 32.9955C146.294 35.636 148.233 39.5417 151.506 44.7126L153.858 48.8383L154.559 51.1074C154.669 51.9876 154.215 54.0092 153.198 57.1722C153.72 58.905 153.913 61.3804 153.775 64.5985L156.457 72.2311L157.901 75.9442L159.593 79.2861C159.813 79.6436 160.211 79.8362 160.789 79.8637C161.284 79.9187 161.765 80.3863 162.233 81.2664C163.141 82.9992 162.219 86.231 159.469 90.9619L155.096 97.563C155.453 99.9009 154.353 101.441 151.795 102.184L145.978 102.885C145.345 102.968 144.424 103.339 143.214 103.999C142.113 104.577 140.848 104.866 139.418 104.866C137.713 104.866 135.732 104.233 133.477 102.968C131.524 101.923 130.328 101.042 129.887 100.327L127.288 97.1092L123.699 92.7772L118.872 87.4962L114.457 82.8754C113.88 82.2153 113.178 81.7615 112.353 81.514L111.322 81.3489C109.451 79.6986 107.856 77.5533 106.536 74.9128C105.491 72.7949 104.968 71.2959 104.968 70.4158C104.968 69.7832 105.119 68.5042 105.422 66.5789C105.752 64.516 106.096 62.852 106.453 61.5867C107.279 58.6712 107.691 56.2508 107.691 54.3255C107.691 52.6477 106.962 49.7322 105.504 45.579C104.872 43.7086 102.85 39.968 99.4396 34.357L95.8503 29.9425L91.642 25.0329C90.7619 23.9602 90.3631 22.6125 90.4456 20.9897C90.5281 19.5869 90.8581 18.6793 91.4357 18.2667C92.0133 17.8541 92.9898 17.6341 94.365 17.6066C95.6577 17.6066 96.6754 17.7579 97.418 18.0604C98.0506 18.308 99.3021 19.3394 101.172 21.1547L106.66 26.6419C111.198 31.1802 115.104 34.577 118.377 36.8324C119.752 37.7951 121.691 38.0014 124.194 37.4513C126.202 37.0387 128.196 36.2548 130.176 35.0996C131.579 34.2745 132.473 32.7067 132.858 30.3963C133.023 29.3511 133.105 27.3708 133.105 24.4553L132.652 16.6989C132.377 12.9858 132.253 10.8129 132.28 10.1803C132.335 8.97009 132.583 7.96616 133.023 7.16852C133.573 6.06833 134.426 5.47698 135.581 5.39446Z" fill="#F29600"/>
<path d="M144.699 87.3313L146.638 88.0739L148.288 88.2802L149.732 88.2389L150.516 88.0326L150.97 88.1152C151.052 88.3352 150.832 88.5415 150.31 88.734L148.329 89.0641C147.064 89.0641 145.771 88.734 144.451 88.0739C144.121 87.9089 143.557 87.7851 142.76 87.7026L141.192 87.6613C140.862 87.7163 139.94 88.5002 138.428 90.013C137.878 90.5631 137.465 90.6456 137.19 90.2605C136.997 90.013 137.259 89.6004 137.974 89.0228L139.707 87.7438C140.669 87.1112 141.494 86.7949 142.182 86.7949C142.897 86.7949 143.736 86.9737 144.699 87.3313Z" fill="#0D131A"/>
<path d="M144.781 93.9325L142.966 93.4374L141.522 93.85C140.917 93.9325 140.504 93.8225 140.284 93.5199C140.174 93.3549 140.38 93.0799 140.903 92.6948C141.426 92.3372 141.852 92.1447 142.182 92.1172C142.485 92.0897 143.007 92.2547 143.75 92.6123L145.111 93.3962C145.304 93.5612 145.359 93.7125 145.276 93.85L144.781 93.9325Z" fill="#0D131A"/>
<path d="M159.469 86.5057C159.606 86.6708 159.524 86.9458 159.221 87.3309L158.479 88.156L157.076 90.3014C156.856 90.6865 156.608 90.8515 156.333 90.7965C156.031 90.714 155.962 90.5214 156.127 90.2189C156.32 89.8338 156.815 89.0912 157.612 87.991C157.805 87.6609 158.149 87.3171 158.644 86.9596C159.139 86.5745 159.414 86.4232 159.469 86.5057Z" fill="#0D131A"/>
<path d="M137.561 61.5458L137.438 61.092C137.438 60.8995 137.506 60.7757 137.644 60.7207L138.345 61.0508L138.882 62.536L139.418 63.2786L139.707 63.9388L139.377 64.7226C139.129 64.9427 138.923 65.0252 138.758 64.9702C138.565 64.8877 138.469 64.3788 138.469 63.4437L138.098 62.4948L137.561 61.5458Z" fill="#0D131A"/>
<path d="M138.758 65.4236C139.005 65.5336 138.923 66.3863 138.51 67.9816L136.612 73.3863L135.54 74.8303C134.935 75.4354 134.549 75.6829 134.384 75.5729C134.109 75.3804 134.261 74.844 134.838 73.9639L135.375 73.2625L135.911 72.4373L136.942 69.9619L137.933 67.3627C138.345 65.96 138.62 65.3136 138.758 65.4236Z" fill="#0D131A"/>
<path d="M148.371 61.4219L148.577 62.082L148.618 63.2372L148.371 65.2175C148.371 66.5378 148.151 67.1566 147.711 67.0741C147.435 67.0191 147.298 66.8128 147.298 66.4552L147.38 65.5476L147.834 63.691C148.027 62.2058 148.206 61.4494 148.371 61.4219Z" fill="#0D131A"/>
<path d="M129.516 92.777L129.64 95.0049C129.612 95.4725 129.819 95.7888 130.259 95.9538C130.699 96.1188 131.111 95.9401 131.496 95.4175L131.992 96.1601C131.359 96.9577 130.671 97.3566 129.929 97.3566C129.434 97.3566 129.062 96.7652 128.815 95.5825C128.567 94.4273 128.485 93.0108 128.567 91.333L129.516 92.777Z" fill="#0D131A"/>
<path d="M130.094 96.1192C129.599 95.8991 129.406 94.7852 129.516 92.7773L131.496 95.4178L130.671 96.0779L130.094 96.1192Z" fill="white"/>
<path d="M153.156 59.5239L153.322 60.5966C153.487 61.8893 153.5 63.2646 153.363 64.7223C153.335 65.2999 153.046 66.0838 152.496 67.074C151.809 68.2842 150.997 69.1093 150.062 69.5494C150.117 67.8991 150.392 66.3039 150.887 64.7636C151.465 63.0033 152.221 61.2567 153.156 59.5239Z" fill="white"/>
<path d="M217.023 63.4432C217.215 63.3607 217.504 63.4845 217.889 63.8145L218.632 64.5984C221.575 68.5041 224.38 74.954 227.048 83.948C229.826 93.2446 231.751 102.94 232.824 113.034C232.934 113.914 232.92 114.698 232.783 115.386C232.673 116.019 232.494 116.349 232.246 116.376C231.751 116.431 231.408 115.358 231.215 113.158C230.307 104.027 228.492 94.8124 225.769 85.5158C223.239 76.8518 220.516 70.0719 217.6 65.176C216.968 64.1308 216.775 63.5532 217.023 63.4432Z" fill="#0D131A"/>
<path d="M228.822 70.8698C229.015 70.7873 229.427 71.1724 230.06 72.025L231.091 73.5928C237.527 91.3609 239.948 108.29 238.353 124.38L238.188 126.443C238.05 127.598 237.885 128.176 237.692 128.176C237.527 128.176 237.349 127.667 237.156 126.65L236.909 124.752C237.569 103.738 235.066 86.7263 229.4 73.7166C228.63 71.9837 228.437 71.0348 228.822 70.8698Z" fill="#0D131A"/>
<path d="M56.2021 73.8813L56.7384 73.0561C56.986 72.6986 57.1923 72.5473 57.3573 72.6023C57.5498 72.6573 57.6461 72.9324 57.6461 73.4275L57.4811 74.5001C55.8858 78.9009 54.6756 84.9245 53.8504 92.5708C52.9428 100.74 52.764 108.29 53.3141 115.221V116.747C53.2591 117.518 53.1353 117.903 52.9428 117.903C52.7503 117.903 52.5577 117.518 52.3652 116.747L52.1176 115.262C51.265 108.111 51.2925 100.135 52.2002 91.3331C53.0803 82.6416 54.4143 76.8243 56.2021 73.8813Z" fill="#0D131A"/>
<path d="M50.5086 83.4943C50.7562 82.6692 51.0175 82.2979 51.2925 82.3804C51.485 82.4079 51.6088 82.6279 51.6638 83.0405V83.9482C49.766 91.347 48.3357 98.9245 47.3731 106.681C46.3554 114.932 45.9703 122.689 46.2179 129.95C46.2179 131.545 46.0804 132.357 45.8053 132.384C45.6128 132.384 45.4752 132.04 45.3927 131.353L45.3102 129.95C44.3476 122.826 44.4163 115.015 45.5165 106.516C46.4517 99.0895 48.1157 91.4157 50.5086 83.4943Z" fill="#0D131A"/>
<path d="M119.284 61.0093C119.642 60.8443 120.041 60.8993 120.481 61.1744L128.939 67.4455L129.516 67.9405C130.011 68.2431 130.369 68.6969 130.589 69.302L131.166 70.4985L132.033 72.5201L131.868 73.0977L130.052 73.1802L124.895 72.19L124.441 72.0663L120.068 70.9111C118.941 70.4985 118.308 70.0171 118.17 69.4671C118.033 68.8344 118.019 67.6655 118.129 65.9602L118.542 62.1645C118.652 61.5594 118.899 61.1744 119.284 61.0093Z" fill="white"/>
<path d="M119.284 61.0093C119.642 60.8443 120.041 60.8993 120.481 61.1744L128.939 67.4455L129.516 67.9405C130.011 68.2431 130.369 68.6969 130.589 69.302L131.166 70.4985L132.033 72.5201L131.868 73.0977L130.052 73.1802L124.895 72.19L124.441 72.0663L120.068 70.9111C118.941 70.4985 118.308 70.0171 118.17 69.4671C118.033 68.8344 118.019 67.6655 118.129 65.9602L118.542 62.1645C118.652 61.5594 118.899 61.1744 119.284 61.0093Z" fill="white"/>
<path d="M123.74 63.4849L123.823 63.5674L129.516 67.9406C130.011 68.2432 130.369 68.697 130.589 69.3021L131.166 70.4986L132.033 72.5202L131.868 73.0978L130.052 73.1803L125.267 72.2726C124.084 70.4023 123.493 68.2982 123.493 65.9603C123.493 65.1076 123.575 64.2825 123.74 63.4849Z" fill="#008086"/>
<path d="M150.64 69.7143L149.608 70.2507L149.65 69.508C149.677 67.8028 149.952 66.18 150.475 64.6397L151.671 61.5454C152.056 62.5631 152.249 63.622 152.249 64.7222C152.249 66.62 151.712 68.2841 150.64 69.7143Z" fill="#008086"/>
<path d="M150.557 68.1463C150.31 68.1463 150.062 67.9813 149.815 67.6512L150.475 64.6395C150.777 63.6768 151.162 62.6866 151.63 61.6689C152.015 62.4391 152.208 63.3742 152.208 64.4744C152.208 65.4921 152.043 66.3585 151.712 67.0736C151.41 67.7888 151.025 68.1463 150.557 68.1463Z" fill="#00666C"/>
<path d="M151.135 67.2394C150.943 68.0097 150.544 68.3399 149.938 68.2298C149.993 67.6521 150.214 66.7854 150.599 65.6299C151.121 66.0701 151.3 66.6066 151.135 67.2394Z" fill="#0D131A"/>
<path d="M123.74 63.4849L123.823 63.5674L129.516 67.9406C130.011 68.2432 130.369 68.697 130.589 69.3021L131.496 71.2L127.783 71.4475C126.298 71.1725 125.06 70.5536 124.07 69.5909C123.685 68.4357 123.493 67.2255 123.493 65.9603C123.493 65.1076 123.575 64.2825 123.74 63.4849Z" fill="#00666C"/>
<path d="M125.597 71.9838L124.607 71.9426C123.561 70.1548 123.039 68.1607 123.039 65.9603C123.039 65.1901 123.135 64.2687 123.328 63.196L123.369 63.1548C123.396 63.5399 123.644 63.7324 124.111 63.7324L123.905 65.9603C123.905 68.1332 124.469 70.141 125.597 71.9838Z" fill="#0D131A"/>
<path d="M127.907 71.1997C127.44 71.1997 127.054 71.0347 126.752 70.7047C126.477 70.3746 126.339 69.9895 126.339 69.5495C126.339 69.1094 126.477 68.7243 126.752 68.3943C127.054 68.0917 127.398 67.9404 127.783 67.9404C128.141 67.9404 128.457 68.1055 128.732 68.4355C129.007 68.7656 129.145 69.1506 129.145 69.5907L128.856 70.6634L127.907 71.1997Z" fill="#0D131A"/>
<path d="M126.298 69.0138C125.886 69.0138 125.556 68.8625 125.308 68.5599C125.088 68.2847 124.978 67.9683 124.978 67.6107C124.978 67.198 125.102 66.8541 125.349 66.579C125.624 66.2763 125.941 66.125 126.298 66.125C126.629 66.125 126.931 66.2901 127.206 66.6202C127.454 66.9229 127.578 67.2805 127.578 67.6932L127.206 68.6011C126.931 68.8763 126.629 69.0138 126.298 69.0138Z" fill="white"/>
<path d="M150.888 66.2908L150.392 65.9194L150.227 65.1765C150.227 64.8189 150.296 64.53 150.434 64.3099C150.544 64.0623 150.695 63.9385 150.888 63.9385L151.341 64.3512L151.507 65.2178L151.341 65.9606L150.888 66.2908Z" fill="white"/>
<path d="M120.233 61.5453C119.546 61.1327 119.119 61.3665 118.954 62.2467L118.542 66.0011C118.432 67.6514 118.445 68.7653 118.583 69.3429C118.72 69.893 119.697 70.4156 121.512 70.9107L125.019 71.7358L130.135 72.7672L131.331 72.891C131.551 72.8635 131.648 72.7535 131.62 72.561L130.217 69.4667C130.052 69.0541 129.736 68.6553 129.269 68.2702C127.398 66.7574 126.023 65.671 125.143 65.0109L120.233 61.5453ZM119.367 60.1013C121.21 61.1465 123.135 62.4117 125.143 63.8969L129.269 67.3213L130.259 68.1877C130.699 68.5728 130.974 68.9166 131.084 69.2191L133.229 73.7162L133.518 74.4588C133.573 74.7338 133.477 74.9126 133.229 74.9951L132.899 74.7476L132.693 74.2112C132.638 74.0737 132.432 73.9362 132.074 73.7987L131.043 73.5924C130.19 73.5924 128.498 73.3173 125.968 72.7672L119.532 71.1995C118.927 70.9519 118.432 70.5119 118.047 69.8792C117.607 69.1916 117.387 68.3802 117.387 67.4451C117.387 66.6749 117.469 65.5885 117.634 64.1857L117.84 61.9991L117.923 61.1327L117.84 60.3901C117.07 59.5649 116.726 59.0836 116.809 58.9461C116.919 58.8086 117.772 59.1936 119.367 60.1013Z" fill="#0D131A"/>
<path d="M152.414 64.5987C152.414 67.1016 151.63 69.1094 150.062 70.6222L149.443 70.4159C150.158 69.7833 150.722 68.9719 151.135 67.9818C151.575 66.9641 151.795 65.8776 151.795 64.7224C151.795 63.7048 151.63 62.7558 151.3 61.8757L151.754 61.0918C152.194 62.247 152.414 63.416 152.414 64.5987Z" fill="#0D131A"/>
<path d="M153.322 60.5966L153.156 59.5239C152.221 61.2567 151.465 63.0033 150.887 64.7636C150.392 66.3038 150.117 67.8991 150.062 69.5494C150.997 69.1093 151.809 68.2842 152.496 67.074C153.046 66.0838 153.335 65.2999 153.363 64.7223C153.5 63.2646 153.487 61.8893 153.322 60.5966ZM140.491 11.0055C139.445 7.64988 137.946 5.97209 135.994 5.97209C134.701 5.97209 133.779 6.71472 133.229 8.19998C132.817 9.35518 132.679 10.6617 132.817 12.1194L133.353 18.8031L133.683 27.0958C133.628 29.9563 133.229 32.0604 132.487 33.4081C131.937 34.3708 130.919 35.3059 129.434 36.2136C128.251 36.9287 126.834 37.4376 125.184 37.7401L121.388 37.9877L122.997 38.689L124.937 39.7205L126.463 40.9169L128.443 42.6085C129.076 43.3236 129.392 43.7774 129.392 43.97C129.365 44.19 128.911 43.9837 128.031 43.3511L126.339 42.2372L125.019 41.247C124.304 40.5319 123.561 40.078 122.791 39.8855C122.269 39.803 121.581 39.5279 120.728 39.0604C119.711 38.5378 118.789 37.9052 117.964 37.1625C114.333 34.1645 111.074 31.2902 108.186 28.5398L98.6145 19.3394C97.8444 18.6243 96.6892 18.198 95.1489 18.0604C93.6086 17.8954 92.4947 18.1155 91.8071 18.7206C91.1745 19.2707 90.8994 20.1921 90.9819 21.4848C91.0644 22.64 91.3395 23.5339 91.8071 24.1665L95.6852 28.7461L100.017 34.2333C105.491 42.9798 108.227 49.5397 108.227 53.9129C108.227 55.9208 108.049 57.8049 107.691 59.5652L106.742 63.1133L105.917 66.7027C105.642 68.1879 105.504 69.2606 105.504 69.9207C105.504 70.7184 105.697 71.6673 106.082 72.7675C106.495 74.0327 107.086 75.2154 107.856 76.3156C109.616 78.901 110.717 80.3863 111.157 80.7714L111.941 80.8951C112.408 80.8951 112.766 80.9776 113.013 81.1427L115.943 83.4531C117.73 85.0484 119.243 86.6024 120.481 88.1151L126.133 94.5925C128.141 96.9304 129.365 98.5119 129.805 99.3371C130.217 100.025 131.331 100.96 133.147 102.143C135.43 103.628 137.479 104.37 139.294 104.37C140.229 104.37 141.123 104.192 141.976 103.834L143.544 103.05C144.891 102.445 146.28 102.129 147.711 102.101C150.544 101.964 152.345 101.62 153.115 101.07C153.61 100.712 154.023 100.038 154.353 99.0483C153.335 100.038 152.359 100.616 151.424 100.781C150.158 101.056 148.522 100.712 146.514 99.7497L144.451 99.0483L142.017 98.7182L139.129 99.2958C137.699 99.5709 136.516 99.5571 135.581 99.2546C134.563 98.9245 133.766 98.4569 133.188 97.8518L131.785 95.8302C130.713 94.1799 129.214 92.2959 127.288 90.178C123.795 86.4098 121.512 84.0994 120.44 83.2468C119.999 82.8892 119.092 82.4767 117.717 82.0091L115.159 81.0189C114.719 80.7439 114.388 80.2488 114.168 79.5336C114.031 79.0661 113.88 78.2684 113.715 77.1407C113.605 76.3431 113.618 75.628 113.756 74.9954C113.866 74.4728 114.003 74.2115 114.168 74.2115C114.416 74.2665 114.554 74.6515 114.581 75.3667C114.884 77.8421 115.186 79.3411 115.489 79.8637C115.681 80.1938 116.369 80.5376 117.552 80.8951C118.954 81.3352 119.931 81.7615 120.481 82.1741L124.813 85.846C126.903 87.7988 128.471 89.4216 129.516 90.7143C131.001 92.5847 132.39 94.5788 133.683 96.6966L135.21 97.7281C136.007 98.0581 136.901 98.2231 137.891 98.2231L139.995 97.9343L142.182 97.6455L144.616 97.9343L146.968 98.5532C149.058 99.4609 150.296 99.9147 150.681 99.9147C151.479 99.9147 152.524 99.2408 153.817 97.8931C155.384 96.2703 156.966 94.0149 158.561 91.1269C159.469 89.4766 160.225 87.8676 160.83 86.2998C161.518 84.5395 161.862 83.2193 161.862 82.3391C161.862 81.624 161.573 81.0877 160.995 80.7301L159.139 79.3686C158.534 78.6535 157.832 77.347 157.035 75.4492C156.32 73.7989 155.797 72.3549 155.467 71.1172C154.999 69.4119 154.422 67.6241 153.734 65.7537C153.184 67.3765 152.551 68.6142 151.836 69.4669L150.64 70.5396C150.172 70.8696 149.938 71.2134 149.938 71.571L149.732 71.9836L149.361 71.9011C149.113 71.406 148.99 70.8009 148.99 70.0857L149.361 67.404C149.636 65.8913 149.897 64.8598 150.145 64.3097L152.991 56.966C153.707 54.8206 154.064 52.9778 154.064 51.4375C154.064 50.3923 153.858 49.4297 153.445 48.5495C153.115 47.8894 152.565 47.078 151.795 46.1153C151.052 45.2077 150.186 43.8874 149.196 42.1546C148.068 40.2018 147.147 38.3315 146.432 36.5437C144.891 32.6105 143.571 27.3983 142.471 20.9072C141.481 15.3512 140.821 12.0507 140.491 11.0055ZM141.481 9.06638L143.709 19.5044L145.936 29.695C146.734 32.583 147.999 35.7048 149.732 39.0604L152.744 44.5888C153.982 46.8717 154.697 48.4807 154.889 49.4159C155.109 50.4611 155.192 51.3825 155.137 52.1801L154.642 54.3668L153.858 57.1722L154.147 59.1526C154.339 60.8304 154.38 62.5769 154.27 64.3923L157.406 73.2625L158.891 76.6869C159.496 77.8146 159.991 78.5435 160.376 78.8735L162.068 80.07C162.838 80.6751 163.223 81.3902 163.223 82.2154C163.223 83.8932 162.481 86.2861 160.995 89.3941C159.538 92.5021 157.874 95.1564 156.003 97.3567C155.893 98.787 155.261 100.203 154.105 101.606C153.5 102.294 152.318 102.789 150.557 103.091L145.978 103.628C145.18 103.738 144.039 104.15 142.553 104.866C141.288 105.498 140.105 105.814 139.005 105.814C137.63 105.814 135.966 105.347 134.013 104.412C132.39 103.614 131.18 102.844 130.383 102.101L127.66 98.9658L123.616 93.9737L114.829 84.1957C114.058 83.3981 113.192 82.903 112.229 82.7104L110.785 82.4216L108.557 79.8637L106.33 76.9757L104.597 73.7989C103.909 72.3961 103.565 71.3785 103.565 70.7459C103.565 69.8657 104.074 67.3628 105.092 63.2371C106 59.3589 106.453 56.2371 106.453 53.8717C106.453 52.2764 105.793 49.7735 104.473 46.3629C103.318 43.3373 102.039 40.5869 100.636 38.1114C99.5909 36.2686 97.7068 33.8482 94.9839 30.8502L90.1568 25.5693C89.0841 24.2215 88.6165 22.64 88.754 20.8247C88.8641 19.1744 89.4004 17.9642 90.3631 17.194C91.2432 16.4514 92.5772 16.0526 94.365 15.9976C96.4554 15.9151 98.1607 16.5064 99.4809 17.7716L106.907 25.1567L113.838 32.0466C116.589 34.4946 118.528 35.9661 119.656 36.4611C120.371 36.7912 121.567 36.9287 123.245 36.8737C124.978 36.7912 126.339 36.5299 127.329 36.0898C128.76 35.4847 129.819 34.8246 130.506 34.1095C131.579 32.9543 132.115 31.414 132.115 29.4887L132.157 23.8777L131.992 18.9681L131.331 10.2216C131.276 8.95636 131.634 7.69114 132.404 6.42592C133.257 5.02318 134.343 4.22554 135.663 4.03301C136.984 3.86798 138.221 4.32181 139.377 5.39449C140.449 6.41217 141.151 7.63613 141.481 9.06638Z" fill="#0D131A"/>
</g>
</g>
<defs>
<radialGradient id="paint0_radial_861_427" cx="0" cy="0" r="1" gradientUnits="userSpaceOnUse" gradientTransform="translate(145 152) rotate(90) scale(175)">
<stop stop-color="#FFF697"/>
<stop offset="1" stop-color="#F29600"/>
</radialGradient>
<clipPath id="clip0_861_427">
<rect width="300" height="300" fill="white"/>
</clipPath>
<clipPath id="clip1_861_427">
<rect width="362" height="354" fill="white" transform="translate(-52 -17)"/>
</clipPath>
</defs>
</svg>
