<svg xmlns="http://www.w3.org/2000/svg" fill="none" viewBox="0 0 300 300"><g clip-path="url(#a)"><path fill="#fff" d="M0 0h300v300H0z"/><path fill="url(#b)" d="M-50-50h400v400H-50z"/><path fill="#59C2E1" d="M285.583 228.527c-.152 1.222-1.883 3.283-5.192 6.185-4.479 3.868-12.191 8.119-23.135 12.751-10.791 4.53-19.521 7.253-26.189 8.17 1.323 2.748 8.297 10.664 20.921 23.746.763.712 1.12 2.647 1.069 5.803 0 3.156-.357 5.268-1.069 6.337-1.222 2.036-9.952 3.869-26.19 5.497-16.95 1.782-28.938 1.604-35.962-.534-.713-.204-1.349-2.112-1.909-5.727-.458-3.003-.687-5.65-.687-7.94 0-1.426.28-5.345.84-11.759l.763-9.162c-9.213.967-19.546.763-30.999-.611l-14.431-2.367-.458 1.985c-.357 1.374-.815 2.316-1.375 2.825l-8.246 4.734c-5.548 3.003-8.908 4.887-10.079 5.65-8.195 5.243-13.616 8.196-16.263 8.857-4.938 1.222-14.227 1.018-27.87-.61-12.929-1.578-20.411-3.08-22.447-4.505-1.12-.764-1.68-3.156-1.68-7.178-.051-3.919.407-6.362 1.374-7.33.764-.712 3.105-1.705 7.025-2.977l8.78-2.596c2.75-.866 9.57-3.513 20.463-7.941-12.369-7.177-18.706-17.943-19.012-32.298-.102-6.363 1.222-12.318 3.97-17.867 2.902-5.752 7.025-10.282 12.37-13.591.305-3.308 1.374-7.813 3.207-13.514l2.749-7.636c-10.74-1.17-18.249-4.606-22.525-10.307l-18.401-5.498-8.399-.687c-.51-.306-.305-1.425.61-3.36l1.451-2.748c-3.664-1.731-5.573-3.105-5.726-4.124-.102-.61.636-1.552 2.214-2.825l2.367-1.679c-2.8-2.596-4.2-4.302-4.2-5.116 0-.458 1.044-1.222 3.131-2.291l3.054-1.45c-1.425-3.665-1.858-5.931-1.298-6.796l3.589-.153 2.978.764.61-2.52c.459-1.73.942-2.749 1.451-3.054.51-.305 1.884.484 4.123 2.367l3.131 2.901 8.017 1.298c1.73-5.039 4.276-10.638 7.636-16.797l6.642-12.064c1.07-2.19 1.68-4.403 1.833-6.643l-.077-2.749-12.216-1.68-14.278-1.756c-1.426 0-5.574 1.706-12.446 5.116-6.465 3.258-11.555 4.556-15.27 3.894-2.19-.356-5.651-2.774-10.385-7.254-5.04-4.784-8.068-8.831-9.086-12.14-.967-3.258.102-8.399 3.207-15.423 3.614-8.196 8.322-13.057 14.125-14.584 1.833-.458 4.709-.05 8.628 1.222l7.407 2.748c1.323.357 3.817.077 7.482-.84 3.41-.865 6.898-2.035 10.46-3.512 2.24-.916 4.684-3.13 7.33-6.642l7.33-10.614c6.516-9.62 12.497-14.838 17.944-15.652 3.512-.56 7.533.05 12.064 1.832 2.29.866 4.199 1.782 5.726 2.75 8.45-7.33 17.587-9.443 27.411-6.338 9.57 3.003 17.638 10.155 24.205 21.455 4.123 7.228 8.093 16.849 11.911 28.862 5.65 17.612 10.537 39.118 14.66 64.519 9.009 1.832 21.964 5.625 38.864 11.377l5.268-.535c3.614-.254 5.599-.076 5.956.535.56.967-.713 3.639-3.818 8.017l3.054.916c2.087.713 3.156 1.349 3.207 1.909.153.865-1.476 2.57-4.887 5.116l2.367.992c1.578.764 2.367 1.527 2.367 2.291 0 1.221-1.985 2.876-5.955 4.963l1.603 1.298c1.069.967 1.604 1.73 1.604 2.29 0 .917-3.029 2.418-9.086 4.505-1.986 5.701-3.589 8.603-4.811 8.705-.763.051-2.214-.993-4.352-3.131l-3.054-3.283-13.209-.153c3.665 11.351 12.216 22.779 25.655 34.283 13.132 11.25 27.614 19.75 43.445 25.502 4.887 1.782 7.228 3.64 7.024 5.574Z"/><path fill="#ED8599" d="m218.315 123.54-24.585-6.261c-5.6-31.763-9.57-50.673-11.912-56.73 25.248 7.482 37.923 11.783 38.025 12.903.101 1.12-5.371 7.483-16.417 19.089 24.23 3.563 36.447 5.853 36.65 6.871.255 1.018-6.999 9.061-21.761 24.128ZM269.396 218.525l-9.315-4.2c-6.872-3.41-11.911-6.515-15.118-9.315 3.767-6.108 8.653-12.98 14.66-20.615 6.973-8.756 11.224-12.879 12.751-12.37 1.731.56 1.832 7.839.305 21.838l-3.283 24.662ZM129.287 99.03l-11.911 35.734c-3.156 8.756-7.559 15.118-13.209 19.089-4.938 3.461-9.596 4.53-13.973 3.207-4.48-1.324-7.636-5.04-9.468-11.148-2.138-7.075-2.112-16.391.076-27.946 1.935-10.485 8.934-22.422 20.998-35.81 15.372-1.068 27.512-2.545 36.42-4.428-1.629 1.273-4.606 8.374-8.933 21.303Z"/><path fill="#CE7486" d="M134.173 85.134c-1.323 3.258-3.206 8.526-5.65 15.806-4.072-3.564-10.995-4.887-20.768-3.97-10.791.966-18.732 4.784-23.822 11.452a156.378 156.378 0 0 1 8.704-14.812c3.563-5.294 6.617-9.112 9.162-11.454 15.373-1.068 27.513-2.545 36.421-4.428-1.018.815-2.367 3.283-4.047 7.406ZM210.069 121.479l29.549-21.302-21.532 23.669-8.017-2.367ZM203.503 92.617l-1.069 5.116-1.145-3.36c-.713-2.494-.866-4.428-.458-5.802.254-.866 3.308-3.589 9.162-8.17l9.773-7.33-16.263 19.546ZM273.138 174.316c.661 2.342.101 10.486-1.68 24.434l-2.825 20.233-5.498-3.283 10.003-41.384Z"/><path fill="#4DA9C3" d="m222.057 163.474-51.081-3.665c-2.85-.662-5.574-2.418-8.17-5.269-2.341-2.596-3.588-4.81-3.741-6.643l35.428 4.505c19.496 2.749 29.778 4.836 30.847 6.261 1.324 1.68 2.902 5.371 4.734 11.072l-8.017-6.261ZM45.68 148.432l4.352-1.909c3.003-1.272 4.81-1.909 5.42-1.909l7.865 1.375 6.796 1.298 2.443 7.711-17.332-5.573-9.545-.993ZM88.208 81.393l5.116.305 9.163.153c-2.036 2.087-4.2 4.53-6.49 7.33-4.582 5.6-7.534 10.232-8.858 13.897l-6.795-.84 5.04-8.476c3.104-6.057 4.046-10.18 2.824-12.369ZM74.694 223.946c.916 1.374 2.087 2.57 3.512 3.588 4.581 3.36 10.664 4.378 18.249 3.054l2.596 3.665c2.341 2.953 5.065 5.752 8.17 8.399 9.926 8.501 21.811 13.897 35.657 16.187l-.153 2.673c-.305 1.934-1.12 3.181-2.443 3.741-9.366 4.123-15.22 7.203-17.562 9.239-2.901 2.494-5.446 4.301-7.635 5.421-4.276 2.291-8.984 3.487-14.125 3.589l-26.266-1.909c-11.606-1.476-17.816-2.876-18.63-4.2-.866-1.323-1.35-3.716-1.451-7.177-.102-3.41.203-5.523.916-6.337.407 1.629 7 3.385 19.776 5.268l29.167.84c5.345-1.222 8.475-3.741 9.391-7.559.968-3.97-1.578-6.668-7.635-8.094-9.162-2.188-16.136-5.497-20.92-9.926-5.397-4.988-9.265-12.394-11.607-22.219l.993 1.757Z"/><path fill="#4DA9C3" d="M126.538 239.14c13.388 1.425 23.67-.178 30.847-4.81l1.222 2.901c1.221 2.393 2.774 4.734 4.657 7.025 6.007 7.228 14.355 12.42 25.044 15.576v2.138c-18.324 1.069-34.181.051-47.568-3.054-24.637-5.803-40.722-18.122-48.256-36.956 7.381 9.825 18.733 15.551 34.054 17.18Z"/><path fill="#4DA9C3" d="M235.113 219.441c.204 5.294-.152 10.232-1.069 14.813-2.85 14.711-10.715 23.364-23.593 25.96-13.438 2.698-25.706.433-36.803-6.795-10.791-6.974-17.077-16.264-18.859-27.869 2.952 3.715 8.399 6.439 16.34 8.169 7.686 1.68 15.958 2.087 24.815 1.222 9.417-.916 17.485-3.13 24.204-6.643 7.534-3.919 12.318-9.035 14.354-15.347l.611 6.49Z"/><path fill="#4DA9C3" d="M270.465 241.201c-9.214 5.396-22.372 10.232-39.475 14.508l-3.741-5.116c4.072-6.668 6.311-11.25 6.719-13.744l19.088-.763c13.998-1.069 24.204-3.08 30.618-6.032-3.614 4.326-8.017 8.042-13.209 11.147ZM187.698 284.113c1.069 2.901 12.089 3.767 33.061 2.596 20.972-1.222 31.559-3.258 31.763-6.108l.382 4.81c.051 3.41-.458 5.523-1.527 6.337-3.36 2.596-13.693 4.531-31 5.803-17.307 1.324-27.335.891-30.083-1.298-.611-.458-1.222-2.52-1.833-6.185-.611-3.359-.865-5.344-.763-5.955Z"/><path fill="#922F00" d="M79.046 136.674c.713 9.213 3.538 15.779 8.475 19.699l-5.344-1.375c-3.665-3.563-5.982-7.05-6.949-10.46-1.628-5.447-.967-12.395 1.986-20.845l2.29.382-.458 12.599Z"/><path fill="#FFF3C2" d="M167.388 119.799c-1.527 1.069-3.08 2.851-4.658 5.345-3.054 4.887-4.53 10.766-4.429 17.638.102 6.821 2.673 11.784 7.712 14.889 2.494 1.578 4.989 2.443 7.483 2.596-12.929 3.258-26.622 10.588-41.078 21.99-7.229 5.701-13.159 11.071-17.791 16.11-7.177-2.392-12.7-7.66-16.569-15.805a42.434 42.434 0 0 1-2.901-8.093l-.764-3.436 2.749-6.261c7.534.814 13.973-.407 19.318-3.665 6.464-3.971 12.293-11.326 17.485-22.067l33.443-19.241Z"/><path fill="#4DA9C3" d="M140.74 115.676c.713 6.77.738 13.387.077 19.852l-7.941 5.192c3.105-6.872 5.726-15.22 7.864-25.044Z"/><path fill="#DBD2A9" d="M132.723 160.496c-3.818 6.21-8.476 10.842-13.973 13.896-5.09 2.8-9.926 3.767-14.507 2.901-4.683-.865-7.941-3.461-9.773-7.788l1.603-4.81 3.665.84 9.162-.611c9.774-2.596 17.765-10.664 23.975-24.204l7.941-5.192c-1.069 9.62-3.767 17.943-8.093 24.968Z"/><path fill="#fff" d="m32.394 86.738 9.01-.458c0 6.312-.459 9.544-1.375 9.697-.916.102-3.461-2.978-7.635-9.24ZM49.65 83.53l11.147-5.573c.458 10.231.102 15.704-1.069 16.416-.712.458-2.621-1.222-5.726-5.04l-4.352-5.802ZM86.91 103.231l-3.283 6.871c-6.77-4.174-9.875-6.846-9.315-8.017.306-.56 2.494-.534 6.567.077l6.032 1.069ZM81.49 116.287l-1.91 8.933c-6.871-4.479-10.13-7.304-9.773-8.475.204-.713 2.214-1.018 6.032-.916l5.65.458ZM66.906 141.407c-3.869-4.479-5.6-7.101-5.192-7.864.458-.815 3.385-.204 8.78 1.832 5.192 1.884 8.017 3.156 8.476 3.818l1.527 6.643-1.146 1.527c-1.069.967-2.214 1.374-3.436 1.222-1.985-.153-4.988-2.546-9.01-7.178ZM109.588 149.042l-5.116-8.017c-3.36-5.447-4.785-8.374-4.276-8.781.815-.661 3.334-.178 7.559 1.451 2.24.865 4.989 2.062 8.246 3.589l-6.413 11.758ZM121.423 122.93l-5.04-4.353c-3.359-3.003-4.937-4.861-4.734-5.573l6.567-.459 6.261.84-3.054 9.545ZM126.538 106.208l-5.345-3.665c-3.512-2.545-5.217-4.072-5.115-4.58.152-.764 1.857-1.146 5.115-1.146l8.246.229-2.901 9.162Z"/><path fill="#0D131A" d="M41.327 137.895c-.05-.61.713-1.527 2.29-2.748l2.291-1.604c-3.156-2.748-4.657-4.555-4.505-5.421.102-.56 1.171-1.349 3.207-2.367l3.054-1.298c-1.374-4.123-1.781-6.643-1.221-7.559l3.894-.153 3.283.917.61-2.978c.56-2.036 1.197-3.105 1.91-3.207 1.272-.102 4.123 1.782 8.551 5.65l2.062.458 4.352.229.84 1.451.764 1.451-5.803-.687-2.826-.611-3.512-2.52c-1.934-1.476-3.13-2.163-3.588-2.061-.357.101-.688.865-.993 2.29l-.458 2.978-2.978-.763-3.436-.459c-.254.204-.025 1.4.687 3.589l1.07 3.207-2.978 1.069c-1.986.814-3.03 1.501-3.131 2.061-.204.866 1.222 2.546 4.276 5.04l-2.214 1.45c-1.477 1.069-2.24 1.833-2.291 2.291-.05.713 1.909 2.24 5.88 4.581l-1.528 2.291c-1.018 1.527-1.425 2.392-1.222 2.596.611.662 3.08.916 7.407.763l7.253 1.986c5.192 1.578 8.73 2.85 10.614 3.817.61 1.018 1.247 1.833 1.908 2.444l2.215 2.061-21.838-7.788-5.344-.153c-3.003-.203-4.683-.636-5.04-1.298-.254-.509.026-1.578.84-3.206.764-1.527 1.4-2.52 1.91-2.978-4.124-2.189-6.211-3.792-6.262-4.811ZM89.43 81.088c.967 1.985.637 4.861-.992 8.628l-6.414 12.293h-3.512c3.716-5.854 6.133-10.283 7.253-13.286 1.171-3.054 1.35-5.65.535-7.788l3.13.153Z"/><path fill="#0D131A" d="M142.42 106.056c1.425-2.291 2.621-3.691 3.588-4.2 1.018-.509.764.637-.763 3.436-1.069 2.036-2.291 5.956-3.665 11.759-4.022 16.696-8.603 28.709-13.744 36.039-6.108 8.755-14.456 13.311-25.044 13.667-10.384.356-18.656-1.578-24.815-5.803-6.21-4.225-9.672-10.359-10.384-18.401.661 1.069 1.756 2.036 3.283 2.901 1.476 6.516 5.243 11.25 11.3 14.202 5.447 2.647 12.471 3.767 21.074 3.36 8.501-.408 15.653-4.276 21.455-11.606 6.007-7.534 10.741-18.987 14.202-34.359l1.298-5.345c.611-2.393 1.349-4.276 2.215-5.65ZM73.549 120.486c-1.731 4.937-2.775 9.85-3.131 14.736l-2.672-.84a66.152 66.152 0 0 1 3.436-15.576c.407.356 1.196.916 2.367 1.68ZM79.351 107.048l-4.2 9.009h-3.053c1.069-2.901 2.596-6.362 4.58-10.384l2.673 1.375ZM221.981 72.765c.05.458-.535 1.527-1.757 3.207l-8.322 9.391-7.712 8.552c-.254.305-.534 1.247-.84 2.825-.56 2.29-1.12 2.189-1.68-.305-.509-2.495-.33-4.225.535-5.192l9.468-10.003c4.123-4.377 6.133-6.77 6.032-7.177-.255-.814-11.682-4.607-34.283-11.377l-.993-3.97c3.207.814 9.952 2.952 20.234 6.413 9.417 3.156 14.914 5.065 16.492 5.727 1.782.764 2.724 1.4 2.826 1.909Z"/><path fill="#0D131A" d="M238.778 97.428c1.884.458 2.902 1.043 3.054 1.756.153.509-.305 1.45-1.374 2.825l-20.463 21.684c-1.832-.203-3.029-.509-3.588-.916 14.456-14.558 21.633-22.015 21.531-22.372-.051-.407-5.65-1.578-16.798-3.512l-18.783-2.901 1.986-3.055c1.221 0 6.897.993 17.027 2.978l17.408 3.513ZM140.664 75.896c5.09-1.12 8.144-1.527 9.162-1.222 1.069.306-.687 1.222-5.268 2.749-4.734 1.578-12.013 2.978-21.838 4.2l-30.007 1.603-18.477-2.444-12.293-1.68c-.764.102-4.53 1.68-11.3 4.735-6.414 2.952-11.555 4.48-15.424 4.58-3.41.103-7.89-2.417-13.438-7.558C15.927 75.412 13 70.475 13 66.046c0-6.923 2.163-13.642 6.49-20.157 4.48-6.77 9.34-10.155 14.584-10.155 1.73 0 4.48.712 8.246 2.138 3.767 1.374 6.26 2.061 7.483 2.061 4.174 0 11.63-2.01 22.371-6.032l13.668-5.42 1.832-.459c.305.204.127.56-.534 1.069-4.022 3.309-10.588 6.515-19.7 9.62-8.246 2.8-14.227 4.2-17.943 4.2-1.476 0-3.97-.662-7.483-1.985-3.46-1.324-6.21-1.985-8.246-1.985-4.123 0-8.042 2.876-11.758 8.628-3.767 5.802-5.65 11.962-5.65 18.477 0 3.716 2.8 8.017 8.399 12.904 4.988 4.378 8.551 6.592 10.689 6.643 3.461.05 8.399-1.451 14.813-4.505 6.922-3.309 10.536-4.989 10.842-5.04 1.374-.254 6.464.382 15.27 1.91l16.34 2.52 24.815-1.223c9.468-.967 17.18-2.087 23.136-3.36Z"/><path fill="#0D131A" d="M109.74 4.123c2.087.814 4.862 2.24 8.323 4.276-1.323.712-2.291 1.298-2.901 1.756-1.935-1.222-4.124-2.24-6.567-3.054-2.545-.815-4.81-1.222-6.795-1.222-7.076 0-13.439 4.352-19.089 13.057l-7.177 10.766c-3.003 3.868-6.236 6.693-9.697 8.475l-4.734-.23c3.92-1.526 7.534-4.3 10.842-8.322l7.865-11.53c3.105-4.835 5.98-8.322 8.628-10.46 3.716-3.105 8.042-4.81 12.98-5.115 2.494-.153 5.268.381 8.322 1.603ZM277.719 220.892c4.988 2.087 7.94 3.869 8.857 5.345 1.018 1.731.203 4.047-2.444 6.948-4.072 4.48-10.766 8.832-20.081 13.057-9.264 4.225-19.954 7.813-32.068 10.766l-2.062-2.673c12.268-2.901 22.957-6.439 32.069-10.613 9.162-4.174 15.372-8.374 18.63-12.598 1.731-2.138 2.316-3.589 1.756-4.353-.407-.56-2.52-1.654-6.337-3.283-18.02-7.737-32.629-16.67-43.827-26.8-10.283-9.315-18.58-20.514-24.892-33.596h3.665c6.159 12.421 14.228 23.135 24.204 32.145 11.046 9.875 25.223 18.427 42.53 25.655ZM86.91 199.588c0-10.842 2.698-22.6 8.094-35.275l3.36.305c-1.986 3.411-3.818 8.781-5.498 16.111-1.68 7.279-2.52 13.464-2.52 18.554 0 23.364 10.232 40.239 30.695 50.623 17.103 8.653 39.525 12.165 67.267 10.536v3.207c-27.64 1.629-50.419-2.01-68.336-10.918-22.041-10.995-33.062-28.709-33.062-53.143Z"/><path fill="#0D131A" d="m189.53 84.6 6.719 32.832-3.741-.763-6.337-31.076c-6.16-31.713-14.33-54.237-24.51-67.574-7.432-9.824-16.136-14.736-26.113-14.736-9.824 0-18.961 5.701-27.411 17.104l-9.163 13.209c-3.308 4.632-6.235 7.66-8.78 9.086-2.85 1.578-9.544 3.181-20.081 4.81-9.977 1.578-16.442 3.462-19.394 5.65l-4.581 2.978c-1.222.56-.662-.433 1.68-2.978 3.155-3.461 9.493-5.98 19.011-7.559 11.3-1.883 18.605-3.665 21.914-5.344 2.138-1.07 4.76-3.92 7.865-8.552l9.162-13.591C114.678 6.032 124.604 0 135.548 0c13.489 0 24.917 8.22 34.283 24.662 7.941 13.897 14.507 33.876 19.699 59.938ZM37.738 63.45c.56 0 .968.255 1.222.764.306.56.204 1.196-.305 1.909-.764.967-1.247 2.316-1.451 4.046l-.306 2.367-.763-1.832c-.407-1.425-.585-2.673-.535-3.741 0-2.342.713-3.513 2.138-3.513ZM76.755 122.777c.204.662.687 1.094 1.451 1.298-1.883 4.225-2.825 8.399-2.825 12.522l-2.062-.382c.306-4.479 1.451-8.959 3.436-13.438Z"/><path fill="#0D131A" d="M130.661 98.42c-1.832 5.701-4.53 14.711-8.093 27.029-3.36 10.486-6.898 18.249-10.614 23.288-4.835 6.618-10.74 9.926-17.714 9.926-9.366 0-15.652-3.436-18.86-10.308l2.902-.458c3.258 5.294 8.577 7.941 15.958 7.941 9.417 0 17.816-10.333 25.197-31 7.025-24.127 12.42-39.653 16.187-46.575l5.345-.993c-3.614 4.174-7.05 11.224-10.308 21.15Z"/><path fill="#0D131A" d="M81.108 150.875c-2.8-4.734-4.047-10.919-3.742-18.554.764-18.019 8.68-34.995 23.746-50.928l2.673.305c-14.355 14.864-22.143 31.229-23.364 49.096-.51 7.483.432 13.566 2.825 18.249 2.443 4.784 5.93 7.177 10.46 7.177l-.229 1.909c-5.294 0-9.417-2.418-12.37-7.254ZM141.58 113.92l2.061-1.145 2.749-2.52c1.222-1.68 1.833-1.985 1.833-.916 0 1.12-.662 2.469-1.986 4.047-1.883 2.29-3.919 4.097-6.108 5.421l1.451-4.887ZM171.816 116.516l-6.185 5.421c-6.821 3.92-12.42 7.203-16.797 9.85-8.094 4.887-14.38 9.341-18.86 13.362.509-1.68 1.578-3.792 3.207-6.338 3.309-2.85 9.188-6.642 17.638-11.376 6.617-3.716 13.616-7.356 20.997-10.919ZM114.016 162.787c-.509 4.683-.534 10.511-.076 17.485.356 5.446.967 10.842 1.832 16.187l-3.435.229c-1.069-2.8-1.706-7.687-1.909-14.66a153.63 153.63 0 0 1 .687-18.783l1.451.152 1.45-.61Z"/><path fill="#0D131A" d="M95.92 167.138c-.203 6.923 1.757 13.184 5.88 18.783 3.512 4.785 7.686 8.043 12.522 9.774 9.671-9.366 19.47-17.078 29.396-23.135 7.483-4.633 16.111-8.858 25.884-12.675l6.643 1.298c-10.13 2.189-21.838 7.941-35.123 17.256-10.028 7.024-17.841 13.565-23.441 19.623-1.425 1.527-2.418 2.316-2.978 2.367l-3.665-1.451c-3.41-1.833-6.642-4.607-9.697-8.323-4.326-5.344-6.948-11.376-7.864-18.095l2.443-5.422ZM94.393 22.066c4.734-6.566 10.868-9.595 18.402-9.086l-2.749 3.054c-2.8-.05-5.37.535-7.712 1.757-1.934 1.069-4.123 2.875-6.566 5.42-1.375 1.375-2.24 1.935-2.596 1.68-.357-.254.05-1.196 1.221-2.825Z"/><path fill="#0D131A" d="M180.902 114.073c4.531 0 9.137.585 13.82 1.756 4.989 1.222 17.918 5.014 38.788 11.377l7.025-.306c3.105.153 4.912.662 5.421 1.527.356.509-.204 1.935-1.68 4.276l-3.512 4.734-1.604-.458c3.004-4.327 4.352-6.796 4.047-7.406-.254-.56-3.589-.484-10.002.229-10.893-3.716-21.074-6.745-30.542-9.086-10.028-2.546-17.23-3.818-21.608-3.818-5.243 0-9.773 1.756-13.591 5.268-3.41 3.105-5.752 7.127-7.025 12.064-1.272 4.785-1.247 9.239.077 13.362 1.425 4.429 4.072 7.483 7.941 9.163 3.919 1.73 13.285 3.13 28.098 4.199l26.953 1.145c3.716 3.971 5.854 5.88 6.413 5.727.408-.051 1.019-.84 1.833-2.367l2.214-5.039c5.294-2.189 8.068-3.665 8.323-4.429.102-.254-.484-.789-1.756-1.603l-3.589-2.062c-1.934-.916-2.672-1.552-2.214-1.909.458-.305 1.705-.051 3.741.764a24.211 24.211 0 0 1 5.039 2.825c1.375 1.069 2.087 1.832 2.138 2.29.153 1.324-3.181 3.258-10.002 5.803l-1.527 4.123c-1.222 2.749-2.367 4.2-3.436 4.353-1.018.203-2.825-.738-5.421-2.825l-3.665-3.131-22.601-.534c-16.034-.713-26.418-1.935-31.152-3.665-4.48-1.629-7.712-4.989-9.697-10.079-1.833-4.785-2.163-10.003-.993-15.653 1.222-5.854 3.767-10.638 7.636-14.354 4.326-4.174 9.697-6.261 16.11-6.261Z"/><path fill="#0D131A" d="m237.633 135.757 6.185 1.146c2.8.814 4.327 1.603 4.581 2.367.204.509-.254 1.349-1.374 2.519l-3.971 3.207c-.814.509-1.578.636-2.29.382-.713-.306-.662-.713.153-1.222l3.283-2.596c.865-.814 1.247-1.4 1.145-1.756-.051-.305-1.196-.814-3.436-1.527-2.087-.713-3.69-1.145-4.81-1.298-1.324-.255-1.833-.534-1.527-.84.305-.254.992-.382 2.061-.382Z"/><path fill="#0D131A" d="M240.764 143.392c1.883.611 3.537 1.324 4.963 2.138 1.578.866 2.418 1.629 2.519 2.291.204 1.222-1.908 3.105-6.337 5.65l-1.756-.153c-.662-.407-.738-.789-.229-1.145l5.039-4.047c0-.509-2.061-1.629-6.184-3.359-2.596-1.018-3.487-1.706-2.673-2.062.764-.356 2.316-.127 4.658.687ZM154.102 205.926c2.036-9.773 5.803-16.951 11.3-21.532 1.731-1.425 2.774-1.909 3.131-1.45.305.458-.331 1.527-1.909 3.206-4.582 4.836-7.763 11.733-9.545 20.692-1.781 8.603-1.705 16.111.23 22.525 2.85 9.518 8.908 17.256 18.172 23.211 7.228 4.632 14.227 7.228 20.997 7.788 2.342.204 3.461.611 3.36 1.222-.153.662-1.4.891-3.742.687-9.569-.712-18.299-4.021-26.189-9.926-8.094-6.057-13.311-13.438-15.653-22.142-1.985-7.178-2.036-15.271-.152-24.281ZM224.424 271.132c.407-.203 1.222.408 2.443 1.833l5.345 5.879 3.97 4.734c.408.916.509 2.8.306 5.65l-.458 6.109-2.444.763.077-6.108c-.102-2.8-.306-4.607-.611-5.421l-3.283-4.734-4.429-6.032c-1.069-1.527-1.374-2.418-.916-2.673ZM212.131 282.051l1.374 2.52c.458 1.832.102 5.956-1.069 12.369l-1.374.229-1.374.153c.356-1.476.559-3.64.61-6.49.051-2.902-.076-4.759-.381-5.574l-1.222-3.512-1.756-4.581c-1.069-2.393-1.375-3.716-.916-3.971.407-.254 1.298.815 2.672 3.207l3.436 5.65Z"/><path fill="#0D131A" d="M189.301 259.45c.916.255 1.349.534 1.298.84-.967 8.806-1.374 16.467-1.222 22.982l.764 7.101c.458 3.156.84 4.76 1.145 4.811 5.752 1.883 16.391 2.163 31.916.84 15.271-1.324 24.433-3.207 27.488-5.651.458-.407.712-2.01.763-4.81.051-2.8-.204-4.479-.763-5.039l-8.552-8.857c-6.312-6.974-11.606-13.719-15.882-20.234-.102-.204.102-.713.611-1.527.56-.815.916-1.12 1.069-.916 5.396 7.33 10.944 14.176 16.645 20.539l8.399 8.78c1.018 1.069 1.375 3.513 1.069 7.33-.254 3.614-.738 5.854-1.451 6.72-2.341 2.748-12.878 4.835-31.61 6.261-18.58 1.374-29.218 1.018-31.916-1.069-.814-.611-1.553-2.851-2.214-6.72l-1.069-7.024c-.204-.916 0-4.632.611-11.148.509-5.904.992-10.333 1.45-13.285l1.451.076Z"/><path fill="#0D131A" d="M232.594 214.02c-3.207-19.293-13.439-32.171-30.695-38.636-3.105-1.17-4.555-2.061-4.352-2.672.204-.611 1.909-.433 5.116.535 8.908 2.748 16.314 7.839 22.219 15.27 5.345 6.719 8.908 14.584 10.689 23.594 1.731 8.602 1.604 16.798-.381 24.586-2.087 8.042-5.829 14.125-11.224 18.248-2.087 1.578-3.207 2.087-3.36 1.527-.153-.56.713-1.705 2.596-3.436 4.021-3.665 6.897-9.111 8.628-16.339 1.782-7.279 2.036-14.838.764-22.677ZM76.22 222.343c.917 6.973 3.488 13.056 7.713 18.248 4.734 5.752 11.02 9.774 18.859 12.064 4.174 1.222 5.574 2.062 4.2 2.52-1.375.458-4.327-.051-8.858-1.527-7.38-2.444-13.31-6.669-17.79-12.675-4.174-5.548-6.643-11.962-7.406-19.241-.764-7.127.203-13.973 2.901-20.539 2.85-6.821 7.228-12.293 13.133-16.416.356-.204.509.356.458 1.679-.102 1.273-.433 2.113-.993 2.52-4.632 3.41-8.067 8.195-10.307 14.355-2.189 6.108-2.825 12.445-1.91 19.012ZM105.083 261.512c.305.203-.56.712-2.597 1.527-9.213 3.614-14.176 5.879-14.889 6.795-.152.153-.33 2.087-.534 5.803l-.076 7.254-2.596-1.375c-.306-5.853-.382-9.366-.23-10.536.102-1.324.28-2.138.535-2.444l2.901-1.603c6.16-2.443 10.792-4.072 13.897-4.887l3.589-.534Z"/><path fill="#0D131A" d="M55.148 261.817c.458-.356 1.476-.763 3.054-1.221l19.852-6.261c6.362-2.138 10.842-3.92 13.438-5.345l1.985.534c1.018.509 1.4.815 1.145.916-3.766 2.087-10.995 4.963-21.684 8.628-9.977 3.411-15.118 5.269-15.424 5.574-.661.56-1.018 2.316-1.069 5.269-.05 3.054.331 5.294 1.146 6.719.509.916 6.566 2.112 18.172 3.588l25.044 1.604 8.323-1.145c3.054-.917 6.541-2.876 10.46-5.88 1.68-1.272 5.218-3.385 10.613-6.337l9.239-5.268c.916-.713 1.502-1.451 1.756-2.215.204-.661.229-1.501.077-2.519l2.596.916c.254 1.323.254 2.418 0 3.283-.357 1.12-1.146 2.138-2.367 3.054l-8.323 4.429c-5.039 2.494-8.653 4.53-10.842 6.108-5.345 3.92-9.595 6.439-12.751 7.559-1.985.764-4.887 1.247-8.705 1.451l-21.15-1.527c-10.69-1.273-17.994-2.596-21.913-3.971l-2.062-1.069c-.407-.407-.789-1.17-1.145-2.29-.458-1.629-.789-3.614-.992-5.956-.204-2.494-.153-4.454.152-5.879.306-1.324.764-2.24 1.374-2.749Z"/><path fill="#0D131A" d="M70.189 267.697c-.407.204-.636 1.985-.687 5.345-.102 3.156-.051 5.726.152 7.711l-2.596-.687c-.509-4.836-.661-8.73-.458-11.682.051-.967.255-1.629.611-1.985l1.832-.993 7.712-2.748 9.315-2.826c2.597-.661 3.996-.839 4.2-.534.254.305-.79.84-3.13 1.603l-9.469 3.589c-3.512 1.425-6.006 2.494-7.482 3.207ZM101.341 132.78c-.203.356.815 2.417 3.055 6.184 2.188 3.716 4.25 6.821 6.184 9.315.255.357-.28.968-1.603 1.833l-6.338-9.697c-3.156-5.294-4.428-8.399-3.817-9.315.56-.815 3.334-.28 8.322 1.603 3.92 1.425 7.381 2.927 10.384 4.505l-.458.764c-.458.458-.763.636-.916.534-1.934-1.12-4.81-2.418-8.628-3.894-3.919-1.527-5.981-2.138-6.185-1.832ZM124.476 112.241c.306.05.331.407.077 1.068-.255.662-.509.942-.764.84l-5.879-.763-5.268-.229c-.204.305 1.018 1.73 3.665 4.276l6.184 5.344c.357.255.28.993-.229 2.215l-8.704-7.407c-2.8-2.698-4.021-4.479-3.665-5.344.254-.51 2.316-.739 6.185-.688l8.398.688ZM118.75 101.78c-3.003-2.495-4.377-3.996-4.123-4.505.357-.611 2.622-1.044 6.796-1.298 3.767-.255 6.363-.28 7.788-.077l-.077 1.146-.61 1.069-6.796-.535-4.199.382 3.436 3.054 5.955 4.429c.357.254.255.992-.305 2.214l-7.865-5.879ZM68.28 133.466c4.683 1.375 7.585 2.444 8.704 3.207 2.75 1.985 4.149 4.556 4.2 7.712.05 3.258-1.553 4.937-4.81 5.039-2.087.051-5.396-2.468-9.926-7.559-4.48-4.988-6.465-8.119-5.956-9.391.255-.764 2.85-.433 7.788.992Zm-.076 8.017c4.021 4.48 6.872 6.592 8.551 6.338 1.578-.255 2.393-1.273 2.444-3.054 0-1.68-.688-3.36-2.062-5.04-.763-.916-3.258-2.188-7.483-3.817-4.174-1.578-6.388-2.189-6.642-1.833-.408.611 1.323 3.08 5.192 7.406ZM71.029 116.822c-.102.305 1.145 1.451 3.741 3.436l5.65 3.894-.458 2.138-7.406-5.421c-3.054-2.546-4.403-4.123-4.047-4.734.356-.611 2.215-.942 5.574-.993l7.406.382-.381 2.061-5.956-.839-4.123.076ZM75.228 102.62c-.101.356.79 1.196 2.673 2.519a41.814 41.814 0 0 0 5.421 3.436l-.305 2.214c-1.884-1.018-4.149-2.647-6.796-4.886-2.749-2.393-4.021-3.92-3.818-4.581l6.338-.306 8.17 1.145c-.255.357-.433 1.018-.535 1.986-1.222-.408-3.36-.84-6.414-1.298l-4.734-.229ZM34.837 92.007l-4.963-6.49 4.81 2.061 2.902 4.276 2.214 2.825c.255-.153.433-1.349.535-3.589l-.077-4.275.916-.993c.611-.56.942-.764.993-.61.458 1.526.458 3.817 0 6.871-.407 2.901-.865 4.556-1.374 4.963-.815.56-2.8-1.12-5.956-5.04ZM62.325 77.957c.203 1.527.127 4.683-.23 9.468-.457 5.243-1.068 7.966-1.832 8.17-.865.204-2.8-1.17-5.803-4.123-2.85-2.85-4.963-5.345-6.337-7.483-.051-.102.382-.356 1.298-.763.967-.408 1.476-.56 1.527-.459l4.81 6.872c1.985 2.444 3.182 3.589 3.589 3.436.356-.152.483-2.29.382-6.413-.051-3.869-.204-6.516-.458-7.941-.051-.356.432-.687 1.45-.993 1.018-.305 1.553-.229 1.604.23Z"/><path fill="#515457" d="M153.109 61.007c-4.835 3.868-11.071 5.7-18.706 5.497-7.636-.254-15.042-1.527-22.219-3.818-6.821-2.137-10.384-4.097-10.69-5.879-.102-.407.891-2.265 2.978-5.574a92.86 92.86 0 0 1 7.864-11.07c8.603-10.436 16.289-15.475 23.059-15.119 8.45.458 15.017 3.258 19.7 8.399 3.868 4.276 5.65 8.882 5.344 13.82-.407 5.548-2.85 10.13-7.33 13.744Z"/><path fill="#fff" d="M138.602 66.046a67.305 67.305 0 0 1-19.394-1.603c-4.123-10.13-4.632-20.412-1.527-30.847 3.054-10.18 7.814-15.245 14.278-15.194 6.312.05 11.148 4.835 14.508 14.354 3.512 10.028 3.486 20.769-.077 32.222l-7.788 1.069Z"/><path fill="#A41E3A" d="m138.831 65.588-8.017.535c-2.596-4.276-3.996-10.028-4.199-17.256-.153-5.803.254-10.486 1.221-14.05 1.222-4.224 3.131-6.362 5.727-6.413 2.24-.051 4.148 1.756 5.726 5.421 1.578 3.716 2.444 8.577 2.596 14.584.153 6.922-.865 12.649-3.054 17.18Z"/><path fill="#0D131A" d="M133.715 39.78c1.273-.05 2.062 2.876 2.367 8.781.306 5.905-.152 8.857-1.374 8.857-1.324 0-2.138-2.901-2.443-8.704-.255-5.803.229-8.78 1.45-8.934Z"/><path fill="#0D131A" d="M140.053 33.52c1.679 4.072 2.647 8.857 2.901 14.354a46.56 46.56 0 0 1-.611 10.002c-.611 3.258-1.45 5.905-2.519 7.941l-2.444.077c1.12-1.68 1.986-3.996 2.596-6.949.662-3.36.891-6.999.688-10.918-.357-5.854-1.197-10.435-2.52-13.744-1.273-3.207-2.825-4.76-4.658-4.658-1.68.102-3.054 1.655-4.123 4.658-1.272 3.512-1.832 8.246-1.68 14.202.051 3.716.56 7.228 1.527 10.537.815 3.054 1.833 5.37 3.055 6.948l-2.291.076c-1.273-2.087-2.316-4.76-3.131-8.017-.814-3.207-1.247-6.312-1.298-9.315-.203-6.414.535-11.682 2.215-15.805 1.527-3.767 3.436-5.701 5.726-5.803 2.545-.051 4.734 2.087 6.567 6.414Z"/><path fill="#fff" d="M131.043 37.413c-.051-1.628.127-2.952.534-3.97.459-1.12 1.095-1.705 1.909-1.756.764 0 1.4.484 1.909 1.45.509.968.815 2.266.916 3.895.102 1.985-.076 3.563-.534 4.734-.458 1.12-1.069 1.68-1.833 1.68-.916 0-1.654-.688-2.214-2.062-.458-1.17-.687-2.494-.687-3.97Z"/><path fill="#0D131A" d="M140.893 21.226c3.054 2.85 5.497 6.694 7.33 11.53 4.174 11.3 3.716 22.015-1.375 32.145-.102.254-.585.509-1.45.763-.866.255-1.197.204-.993-.153 4.123-9.518 4.53-19.775 1.222-30.77-1.426-4.785-3.385-8.577-5.88-11.377-2.596-2.901-5.421-4.174-8.475-3.817-6.414.814-10.74 6.49-12.98 17.026-2.24 10.385-1.349 19.674 2.672 27.87l-1.756-.077c-4.886-6.974-6.159-16.263-3.818-27.869 2.393-12.115 7.585-18.529 15.577-19.241 3.461-.306 6.77 1.018 9.926 3.97Z"/><path fill="#0D131A" d="M142.954 24.738c5.294 1.222 9.773 3.996 13.438 8.323 3.564 4.174 5.422 8.653 5.574 13.438.204 6.057-2.087 11.046-6.872 14.965-4.581 3.818-10.384 5.829-17.408 6.032-7.381.204-15.627-.992-24.739-3.588-8.704-2.494-13.082-4.658-13.133-6.49-.102-1.782 1.655-5.192 5.269-10.232 3.868-5.497 8.195-10.282 12.98-14.354-.407 1.425-.764 3.08-1.069 4.963-3.869 3.716-7.228 7.559-10.079 11.53-2.749 3.817-3.996 6.311-3.741 7.482.254 1.374 4.377 3.13 12.369 5.268 8.399 2.24 15.729 3.258 21.99 3.054 6.312-.203 11.402-1.96 15.271-5.268 4.072-3.41 6.032-7.839 5.879-13.285-.102-3.87-1.476-7.509-4.123-10.92-2.545-3.257-5.727-5.7-9.544-7.33l-2.062-3.588ZM273.443 170.269c1.476.662 1.68 7.458.611 20.387a388.293 388.293 0 0 1-3.36 29.091l-3.589-1.833.077-.076c1.323-5.549 2.621-14.075 3.894-25.579 1.323-11.86 1.578-17.943.763-18.248-.865-.357-4.937 4.123-12.216 13.438-7.228 9.264-11.631 15.576-13.209 18.936l-1.375-1.222-1.298-1.222c3.36-6.057 8.475-13.209 15.347-21.455 7.534-9.061 12.319-13.133 14.355-12.217Z"/></g><defs><radialGradient id="b" cx="0" cy="0" r="1" gradientTransform="rotate(90 0 150) scale(200)" gradientUnits="userSpaceOnUse"><stop stop-color="#FFF3C2"/><stop offset="1" stop-color="#59C2E1"/></radialGradient><clipPath id="a"><path fill="#fff" d="M0 0h300v300H0z"/></clipPath></defs></svg>