<svg width="300" height="300" viewBox="0 0 300 300" fill="none" xmlns="http://www.w3.org/2000/svg">
<g clip-path="url(#clip0_864_975)">
<rect width="300" height="300" fill="white"/>
<rect x="-50" y="-50" width="400" height="400" fill="url(#paint0_radial_864_975)"/>
<path d="M285.583 228.527C285.431 229.749 283.7 231.81 280.391 234.712C275.912 238.58 268.2 242.831 257.256 247.463C246.465 251.993 237.735 254.716 231.067 255.633C232.39 258.381 239.364 266.297 251.988 279.379C252.751 280.091 253.108 282.026 253.057 285.182C253.057 288.338 252.7 290.45 251.988 291.519C250.766 293.555 242.036 295.388 225.798 297.016C208.848 298.798 196.86 298.62 189.836 296.482C189.123 296.278 188.487 294.37 187.927 290.755C187.469 287.752 187.24 285.105 187.24 282.815C187.24 281.389 187.52 277.47 188.08 271.056L188.843 261.894C179.63 262.861 169.297 262.657 157.844 261.283L143.413 258.916L142.955 260.901C142.598 262.275 142.14 263.217 141.58 263.726L133.334 268.46C127.786 271.463 124.426 273.347 123.255 274.11C115.06 279.353 109.639 282.306 106.992 282.967C102.054 284.189 92.7646 283.985 79.1227 282.357C66.1934 280.779 58.7108 279.277 56.6747 277.852C55.5548 277.088 54.9949 274.696 54.9949 270.674C54.944 266.755 55.4021 264.312 56.3693 263.344C57.1328 262.632 59.4743 261.639 63.3938 260.367L72.1745 257.771C74.9232 256.905 81.7442 254.258 92.6373 249.83C80.268 242.653 73.9306 231.887 73.6252 217.532C73.5234 211.169 74.8469 205.214 77.5956 199.665C80.4971 193.913 84.6202 189.383 89.9649 186.074C90.2704 182.766 91.3393 178.261 93.1718 172.56L95.9205 164.924C85.1801 163.754 77.672 160.318 73.3962 154.617L54.9949 149.119L46.596 148.432C46.0869 148.126 46.2905 147.007 47.2068 145.072L48.6575 142.324C44.9925 140.593 43.0837 139.219 42.931 138.2C42.8292 137.59 43.5673 136.648 45.1452 135.375L47.5122 133.696C44.7126 131.1 43.3127 129.394 43.3127 128.58C43.3127 128.122 44.3562 127.358 46.4433 126.289L49.4974 124.839C48.0721 121.174 47.6395 118.908 48.1994 118.043L51.788 117.89L54.7658 118.654L55.3767 116.134C55.8348 114.404 56.3184 113.385 56.8274 113.08C57.3364 112.775 58.7108 113.564 60.9505 115.447L64.081 118.348L72.0981 119.646C73.8288 114.607 76.374 109.008 79.7335 102.849L86.3763 90.7847C87.4453 88.5959 88.0561 86.3817 88.2088 84.142L88.1324 81.3932L75.9158 79.7134L61.6377 77.9573C60.2124 77.9573 56.0638 79.6625 49.192 83.073C42.7274 86.3308 37.6371 87.6288 33.9212 86.967C31.7324 86.6107 28.271 84.1929 23.5371 79.7134C18.4977 74.9286 15.469 70.8818 14.451 67.5732C13.4838 64.3154 14.5528 59.1743 17.6579 52.1497C21.2719 43.9544 25.9804 39.0932 31.7833 37.5661C33.6158 37.108 36.4918 37.5152 40.4113 38.7878L47.8176 41.5365C49.1411 41.8928 51.6353 41.6129 55.3003 40.6966C58.7108 39.8313 62.1976 38.6605 65.7608 37.1843C68.0005 36.2681 70.4438 34.0538 73.0907 30.5416L80.4207 19.9284C86.9362 10.3078 92.9173 5.09028 98.3639 4.27584C101.876 3.71591 105.897 4.32675 110.428 6.10833C112.718 6.97368 114.627 7.88992 116.154 8.85707C124.604 1.5271 133.741 -0.585352 143.565 2.5197C153.135 5.52296 161.203 12.6748 167.77 23.9751C171.893 31.2033 175.863 40.8239 179.681 52.8369C185.331 70.4492 190.218 91.9555 194.341 117.356C203.35 119.188 216.305 122.981 233.205 128.733L238.473 128.198C242.087 127.944 244.072 128.122 244.429 128.733C244.989 129.7 243.716 132.372 240.611 136.75L243.665 137.666C245.752 138.379 246.821 139.015 246.872 139.575C247.025 140.44 245.396 142.145 241.985 144.691L244.352 145.683C245.93 146.447 246.719 147.21 246.719 147.974C246.719 149.195 244.734 150.85 240.764 152.937L242.367 154.235C243.436 155.202 243.971 155.965 243.971 156.525C243.971 157.442 240.942 158.943 234.885 161.03C232.899 166.731 231.296 169.633 230.074 169.735C229.311 169.786 227.86 168.742 225.722 166.604L222.668 163.321L209.459 163.168C213.124 174.519 221.675 185.947 235.114 197.451C248.246 208.701 262.728 217.201 278.559 222.953C283.446 224.735 285.787 226.593 285.583 228.527Z" fill="#59C2E1"/>
<path d="M218.315 123.54L193.73 117.279C188.13 85.516 184.16 66.6057 181.818 60.5483C207.066 68.031 219.741 72.3323 219.843 73.4521C219.944 74.572 214.472 80.9348 203.426 92.5406C227.656 96.1038 239.873 98.3944 240.076 99.4124C240.331 100.43 233.077 108.473 218.315 123.54Z" fill="#ED8599"/>
<path d="M269.396 218.525L260.081 214.325C253.209 210.915 248.17 207.81 244.963 205.01C248.73 198.902 253.616 192.03 259.623 184.395C266.596 175.639 270.847 171.516 272.374 172.025C274.105 172.585 274.206 179.864 272.679 193.863L269.396 218.525Z" fill="#ED8599"/>
<path d="M129.287 99.0307L117.376 134.764C114.22 143.52 109.817 149.882 104.167 153.853C99.229 157.314 94.5714 158.383 90.1938 157.06C85.7144 155.736 82.5584 152.02 80.7259 145.912C78.588 138.837 78.6135 129.521 80.8023 117.966C82.7366 107.481 89.7357 95.5439 101.8 82.1565C117.172 81.0876 129.312 79.6114 138.22 77.728C136.591 79.0006 133.614 86.1015 129.287 99.0307Z" fill="#ED8599"/>
<path d="M134.173 85.1343C132.85 88.3921 130.967 93.6605 128.523 100.94C124.451 97.3764 117.528 96.0529 107.755 96.9692C96.9637 97.9363 89.0229 101.754 83.9326 108.422C86.5286 103.383 89.4301 98.4454 92.637 93.6096C96.2001 88.3158 99.2543 84.4981 101.799 82.1565C117.172 81.0876 129.312 79.6114 138.22 77.728C137.202 78.5425 135.853 81.0112 134.173 85.1343Z" fill="#CE7486"/>
<path d="M210.069 121.479L239.618 100.177L218.086 123.846L210.069 121.479Z" fill="#CE7486"/>
<path d="M203.503 92.6174L202.434 97.7331L201.289 94.3735C200.576 91.8793 200.423 89.945 200.831 88.5706C201.085 87.7053 204.139 84.982 209.993 80.4008L219.766 73.0708L203.503 92.6174Z" fill="#CE7486"/>
<path d="M273.138 174.316C273.799 176.658 273.239 184.802 271.458 198.75L268.633 218.983L263.135 215.7L273.138 174.316Z" fill="#CE7486"/>
<path d="M222.057 163.474L170.976 159.809C168.126 159.147 165.402 157.391 162.806 154.54C160.465 151.944 159.218 149.73 159.065 147.897L194.493 152.402C213.989 155.151 224.271 157.238 225.34 158.663C226.664 160.343 228.242 164.034 230.074 169.735L222.057 163.474Z" fill="#4DA9C3"/>
<path d="M45.6794 148.432L50.0316 146.523C53.0349 145.251 54.8419 144.614 55.4527 144.614L63.3172 145.989L70.1127 147.287L72.556 154.998L55.2237 149.425L45.6794 148.432Z" fill="#4DA9C3"/>
<path d="M88.2084 81.3931L93.3241 81.6985L102.487 81.8512C100.451 83.9382 98.2871 86.3815 95.9965 89.1812C91.4153 94.7804 88.463 99.4126 87.1395 103.078L80.344 102.238L85.3834 93.7624C88.4884 87.705 89.4301 83.5819 88.2084 81.3931Z" fill="#4DA9C3"/>
<path d="M74.6939 223.946C75.6101 225.32 76.7809 226.516 78.2062 227.534C82.7874 230.894 88.8703 231.912 96.4547 230.588L99.0508 234.253C101.392 237.206 104.116 240.005 107.221 242.652C117.147 251.153 129.032 256.549 142.878 258.839L142.725 261.512C142.42 263.446 141.605 264.693 140.282 265.253C130.916 269.376 125.062 272.456 122.72 274.492C119.819 276.986 117.274 278.793 115.085 279.913C110.809 282.204 106.101 283.4 100.96 283.502L74.6939 281.593C63.0881 280.117 56.878 278.717 56.0636 277.393C55.1982 276.07 54.7146 273.677 54.6128 270.216C54.511 266.806 54.8164 264.693 55.5291 263.879C55.9363 265.508 62.5282 267.264 75.3047 269.147L104.472 269.987C109.817 268.765 112.947 266.246 113.863 262.428C114.831 258.458 112.285 255.76 106.228 254.334C97.0656 252.146 90.0919 248.837 85.3071 244.408C79.9114 239.42 76.0428 232.014 73.7013 222.189L74.6939 223.946Z" fill="#4DA9C3"/>
<path d="M126.538 239.14C139.926 240.565 150.208 238.962 157.385 234.33L158.607 237.231C159.828 239.624 161.381 241.965 163.264 244.256C169.271 251.484 177.619 256.676 188.308 259.832V261.97C169.984 263.039 154.127 262.021 140.74 258.916C116.103 253.113 100.018 240.794 92.4844 221.96C99.8652 231.785 111.217 237.511 126.538 239.14Z" fill="#4DA9C3"/>
<path d="M235.113 219.441C235.317 224.735 234.961 229.673 234.044 234.254C231.194 248.965 223.329 257.618 210.451 260.214C197.013 262.912 184.745 260.647 173.648 253.419C162.857 246.445 156.571 237.155 154.789 225.55C157.741 229.265 163.188 231.989 171.129 233.719C178.815 235.399 187.087 235.806 195.944 234.941C205.361 234.025 213.429 231.811 220.148 228.298C227.682 224.379 232.466 219.263 234.502 212.951L235.113 219.441Z" fill="#4DA9C3"/>
<path d="M270.465 241.201C261.251 246.597 248.093 251.433 230.99 255.709L227.249 250.593C231.321 243.925 233.56 239.343 233.968 236.849L253.056 236.086C267.054 235.017 277.26 233.006 283.674 230.054C280.06 234.38 275.657 238.096 270.465 241.201Z" fill="#4DA9C3"/>
<path d="M187.698 284.113C188.767 287.014 199.787 287.88 220.759 286.709C241.731 285.487 252.318 283.451 252.522 280.601L252.904 285.411C252.955 288.821 252.446 290.934 251.377 291.748C248.017 294.344 237.684 296.279 220.377 297.551C203.07 298.875 193.042 298.442 190.294 296.253C189.683 295.795 189.072 293.733 188.461 290.068C187.85 286.709 187.596 284.724 187.698 284.113Z" fill="#4DA9C3"/>
<path d="M79.046 136.674C79.7587 145.887 82.5838 152.453 87.5213 156.373L82.1766 154.998C78.5116 151.435 76.1955 147.948 75.2284 144.538C73.5995 139.091 74.2612 132.143 77.2136 123.693L79.5042 124.075L79.046 136.674Z" fill="#922F00"/>
<path d="M167.388 119.799C165.861 120.868 164.308 122.65 162.73 125.144C159.676 130.031 158.2 135.91 158.301 142.782C158.403 149.603 160.974 154.566 166.013 157.671C168.507 159.249 171.002 160.114 173.496 160.267C160.567 163.525 146.874 170.855 132.418 182.257C125.189 187.958 119.259 193.328 114.627 198.367C107.45 195.975 101.927 190.707 98.0583 182.562C96.8366 180.017 95.8695 177.319 95.1568 174.469L94.3933 171.033L97.142 164.772C104.676 165.586 111.115 164.365 116.46 161.107C122.924 157.136 128.753 149.781 133.945 139.04L167.388 119.799Z" fill="#FFF3C2"/>
<path d="M140.74 115.676C141.453 122.446 141.478 129.063 140.817 135.528L132.876 140.72C135.981 133.848 138.602 125.5 140.74 115.676Z" fill="#4DA9C3"/>
<path d="M132.723 160.496C128.905 166.706 124.247 171.338 118.75 174.392C113.66 177.192 108.824 178.159 104.243 177.293C99.5597 176.428 96.302 173.832 94.4695 169.505L96.0729 164.695L99.7379 165.535L108.9 164.924C118.674 162.328 126.665 154.26 132.875 140.72L140.816 135.528C139.747 145.148 137.049 153.471 132.723 160.496Z" fill="#DBD2A9"/>
<path d="M32.3938 86.7379L41.4036 86.2798C41.4036 92.5917 40.9454 95.824 40.0292 95.9767C39.1129 96.0785 36.5678 92.9989 32.3938 86.7379Z" fill="white"/>
<path d="M49.6497 83.5309L60.7973 77.957C61.2554 88.1884 60.8991 93.6605 59.7284 94.3731C59.0157 94.8312 57.1069 93.1514 54.0018 89.3338L49.6497 83.5309Z" fill="white"/>
<path d="M86.9106 103.231L83.6274 110.102C76.8573 105.928 73.7523 103.256 74.3122 102.085C74.6176 101.525 76.8064 101.551 80.8786 102.162L86.9106 103.231Z" fill="white"/>
<path d="M81.4892 116.287L79.5804 125.22C72.7086 120.741 69.4508 117.916 69.8071 116.745C70.0107 116.032 72.0214 115.727 75.8391 115.829L81.4892 116.287Z" fill="white"/>
<path d="M66.9058 141.407C63.0372 136.928 61.3065 134.306 61.7137 133.543C62.1718 132.728 65.0987 133.339 70.4944 135.375C75.6864 137.259 78.5115 138.531 78.9697 139.193L80.4967 145.836L79.3514 147.363C78.2825 148.33 77.1372 148.737 75.9155 148.585C73.9303 148.432 70.9271 146.039 66.9058 141.407Z" fill="white"/>
<path d="M109.588 149.042L104.472 141.025C101.112 135.578 99.6871 132.651 100.196 132.244C101.011 131.583 103.53 132.066 107.755 133.695C109.995 134.56 112.744 135.757 116.001 137.284L109.588 149.042Z" fill="white"/>
<path d="M121.423 122.93L116.383 118.577C113.024 115.574 111.446 113.716 111.649 113.004L118.216 112.545L124.477 113.385L121.423 122.93Z" fill="white"/>
<path d="M126.538 106.208L121.193 102.543C117.681 99.9983 115.976 98.4712 116.078 97.9622C116.23 97.1987 117.935 96.8169 121.193 96.8169L129.439 97.046L126.538 106.208Z" fill="white"/>
<path d="M41.3271 137.895C41.2762 137.285 42.0397 136.368 43.6177 135.147L45.9083 133.543C42.7524 130.795 41.2507 128.988 41.4034 128.122C41.5053 127.562 42.5742 126.773 44.6103 125.755L47.6645 124.457C46.2901 120.334 45.8829 117.814 46.4428 116.898L50.3368 116.745L53.6201 117.662L54.2309 114.684C54.7908 112.648 55.4271 111.579 56.1397 111.477C57.4123 111.375 60.2628 113.259 64.6914 117.127L66.7529 117.585L71.1051 117.814L71.945 119.265L72.7085 120.716L66.9056 120.029L64.0805 119.418L60.5683 116.898C58.634 115.422 57.4378 114.735 56.9796 114.837C56.6233 114.938 56.2924 115.702 55.987 117.127L55.5289 120.105L52.5511 119.342L49.1152 118.883C48.8607 119.087 49.0897 120.283 49.8024 122.472L50.8713 125.679L47.8935 126.748C45.9083 127.562 44.8648 128.249 44.763 128.809C44.5594 129.675 45.9847 131.355 49.0388 133.849L46.8246 135.299C45.3484 136.368 44.5849 137.132 44.534 137.59C44.4831 138.303 46.4428 139.83 50.4132 142.171L48.8861 144.462C47.8681 145.989 47.4609 146.854 47.6645 147.058C48.2753 147.72 50.7441 147.974 55.0708 147.821L62.3244 149.807C67.5165 151.385 71.0542 152.657 72.9376 153.624C73.5484 154.642 74.1847 155.457 74.8464 156.068L77.0607 158.129L55.2235 150.341L49.8787 150.188C46.8755 149.985 45.1957 149.552 44.8394 148.89C44.5849 148.381 44.8648 147.312 45.6793 145.684C46.4428 144.157 47.0791 143.164 47.5881 142.706C43.465 140.517 41.378 138.914 41.3271 137.895Z" fill="#0D131A"/>
<path d="M89.4303 81.0878C90.3975 83.073 90.0666 85.949 88.4377 89.7157L82.024 102.009H78.5117C82.2276 96.1549 84.6455 91.7264 85.7653 88.7231C86.9361 85.669 87.1142 83.073 86.2998 80.9351L89.4303 81.0878Z" fill="#0D131A"/>
<path d="M142.42 106.056C143.845 103.765 145.041 102.365 146.008 101.856C147.026 101.347 146.772 102.493 145.245 105.292C144.176 107.328 142.954 111.248 141.58 117.051C137.558 133.747 132.977 145.76 127.836 153.09C121.728 161.845 113.38 166.401 102.792 166.757C92.4078 167.113 84.1361 165.179 77.9769 160.954C71.7668 156.729 68.3054 150.595 67.5928 142.553C68.2545 143.622 69.3489 144.589 70.876 145.454C72.3522 151.97 76.119 156.704 82.1764 159.656C87.6229 162.303 94.6475 163.423 103.25 163.016C111.751 162.608 118.903 158.74 124.705 151.41C130.712 143.876 135.446 132.423 138.907 117.051L140.205 111.706C140.816 109.313 141.554 107.43 142.42 106.056Z" fill="#0D131A"/>
<path d="M73.5485 120.486C71.8178 125.423 70.7743 130.336 70.418 135.222L67.7456 134.382C68.2546 129.088 69.3999 123.896 71.1815 118.806C71.5887 119.162 72.3777 119.722 73.5485 120.486Z" fill="#0D131A"/>
<path d="M79.3513 107.048L75.1518 116.057H72.0977C73.1666 113.156 74.6937 109.695 76.6789 105.673L79.3513 107.048Z" fill="#0D131A"/>
<path d="M221.981 72.7649C222.031 73.2231 221.446 74.292 220.224 75.9718L211.902 85.3633L204.19 93.9149C203.936 94.2204 203.656 95.162 203.35 96.74C202.79 99.0306 202.23 98.9288 201.67 96.4346C201.161 93.9404 201.34 92.2097 202.205 91.2426L211.673 81.2402C215.796 76.8626 217.806 74.4702 217.705 74.0629C217.45 73.2485 206.023 69.4563 183.422 62.6862L182.429 58.7158C185.636 59.5303 192.381 61.6682 202.663 65.1295C212.08 68.2855 217.577 70.1943 219.155 70.8561C220.937 71.6196 221.879 72.2559 221.981 72.7649Z" fill="#0D131A"/>
<path d="M238.778 97.4276C240.662 97.8857 241.68 98.4711 241.832 99.1837C241.985 99.6927 241.527 100.634 240.458 102.009L219.995 123.693C218.163 123.49 216.966 123.184 216.407 122.777C230.863 108.219 238.04 100.762 237.938 100.405C237.887 99.9982 232.288 98.8274 221.14 96.8931L202.357 93.9917L204.343 90.9375C205.564 90.9375 211.24 91.9301 221.37 93.9153L238.778 97.4276Z" fill="#0D131A"/>
<path d="M140.664 75.8958C145.754 74.776 148.808 74.3688 149.826 74.6742C150.895 74.9796 149.139 75.8958 144.558 77.4229C139.824 79.0009 132.545 80.4007 122.72 81.6224L92.7134 83.2258L74.2358 80.7825L61.9428 79.1027C61.1793 79.2045 57.4125 80.7825 50.6424 83.8366C44.2287 86.789 39.0876 88.3161 35.219 88.4179C31.8085 88.5197 27.3291 86 21.7807 80.8588C15.9269 75.4123 13 70.4747 13 66.0462C13 59.1234 15.1634 52.4043 19.4901 45.8888C23.9695 39.1187 28.8307 35.7337 34.0737 35.7337C35.8043 35.7337 38.5531 36.4463 42.3199 37.8716C46.0867 39.246 48.5809 39.9332 49.8025 39.9332C53.9766 39.9332 61.4338 37.9225 72.1742 33.9012L85.8416 28.4801L87.6741 28.022C87.9795 28.2256 87.8013 28.5819 87.1396 29.0909C83.1183 32.3996 76.5518 35.6065 67.4403 38.7115C59.1941 41.5112 53.213 42.911 49.4971 42.911C48.021 42.911 45.5267 42.2492 42.0145 40.9258C38.5531 39.6023 35.8043 38.9406 33.7682 38.9406C29.6451 38.9406 25.7256 41.8166 22.0098 47.5686C18.243 53.3714 16.3596 59.5307 16.3596 66.0462C16.3596 69.7621 19.1592 74.0633 24.7585 78.95C29.7469 83.3276 33.3101 85.5419 35.448 85.5928C38.9094 85.6437 43.8469 84.142 50.2607 81.0879C57.1834 77.7792 60.7975 76.0994 61.1029 76.0485C62.4773 75.794 67.5675 76.4303 76.3737 77.9574L92.7134 80.4771L117.528 79.2554C126.996 78.2883 134.708 77.1684 140.664 75.8958Z" fill="#0D131A"/>
<path d="M109.74 4.12302C111.827 4.93746 114.602 6.36274 118.063 8.39884C116.74 9.11147 115.772 9.69685 115.162 10.155C113.227 8.93331 111.038 7.91526 108.595 7.10082C106.05 6.28638 103.785 5.87916 101.8 5.87916C94.7242 5.87916 88.3613 10.2313 82.7112 18.9357L75.5339 29.7016C72.5307 33.5702 69.2983 36.3952 65.837 38.1768L61.103 37.9478C65.0225 36.4207 68.6366 33.6465 71.9453 29.6252L79.8097 18.0958C82.9148 13.26 85.7908 9.77321 88.4377 7.6353C92.1536 4.53024 96.4803 2.82501 101.418 2.51959C103.912 2.36688 106.686 2.90136 109.74 4.12302Z" fill="#0D131A"/>
<path d="M277.719 220.892C282.707 222.979 285.659 224.761 286.576 226.237C287.594 227.968 286.779 230.284 284.132 233.185C280.06 237.665 273.366 242.017 264.051 246.242C254.787 250.467 244.097 254.055 231.983 257.008L229.921 254.335C242.189 251.434 252.878 247.896 261.99 243.722C271.152 239.548 277.362 235.348 280.62 231.124C282.351 228.986 282.936 227.535 282.376 226.771C281.969 226.211 279.856 225.117 276.039 223.488C258.019 215.751 243.41 206.818 232.212 196.688C221.929 187.373 213.632 176.174 207.32 163.092H210.985C217.144 175.513 225.213 186.227 235.189 195.237C246.235 205.112 260.412 213.664 277.719 220.892Z" fill="#0D131A"/>
<path d="M86.9104 199.588C86.9104 188.746 89.6082 176.988 95.0039 164.313L98.3635 164.618C96.3783 168.029 94.5458 173.399 92.866 180.729C91.1862 188.008 90.3463 194.193 90.3463 199.283C90.3463 222.647 100.578 239.522 121.041 249.906C138.144 258.559 160.566 262.071 188.308 260.442V263.649C160.668 265.278 137.889 261.639 119.972 252.731C97.9308 241.736 86.9104 224.022 86.9104 199.588Z" fill="#0D131A"/>
<path d="M189.53 84.6001L196.249 117.432L192.508 116.669L186.171 85.5926C180.011 53.8804 171.841 31.356 161.661 18.0195C154.229 8.19531 145.525 3.28322 135.548 3.28322C125.724 3.28322 116.587 8.9843 108.137 20.3865L98.9744 33.5957C95.6658 38.2278 92.7389 41.2565 90.1937 42.6818C87.3432 44.2598 80.6495 45.8632 70.1127 47.4921C60.1358 49.0701 53.6711 50.9535 50.7188 53.1423L46.1376 56.1201C44.9159 56.68 45.4758 55.6874 47.8173 53.1423C50.9733 49.6809 57.3107 47.1612 66.8295 45.5832C78.1298 43.6998 85.4343 41.9183 88.743 40.2385C90.8809 39.1695 93.5024 36.319 96.6075 31.6868L105.77 18.0959C114.678 6.03195 124.604 0 135.548 0C149.037 0 160.465 8.22076 169.831 24.6623C177.772 38.5587 184.338 58.5379 189.53 84.6001Z" fill="#0D131A"/>
<path d="M37.7384 63.4502C38.2984 63.4502 38.7056 63.7047 38.9601 64.2137C39.2655 64.7737 39.1637 65.4099 38.6547 66.1226C37.8911 67.0897 37.4076 68.4386 37.204 70.1693L36.8985 72.5363L36.135 70.7038C35.7278 69.2785 35.5496 68.0314 35.6005 66.9625C35.6005 64.621 36.3132 63.4502 37.7384 63.4502Z" fill="#0D131A"/>
<path d="M76.7553 122.777C76.9589 123.439 77.4424 123.871 78.206 124.075C76.3226 128.3 75.3809 132.474 75.3809 136.597L73.3193 136.215C73.6248 131.736 74.7701 127.256 76.7553 122.777Z" fill="#0D131A"/>
<path d="M130.661 98.42C128.829 104.121 126.131 113.131 122.568 125.449C119.208 135.935 115.67 143.698 111.954 148.737C107.119 155.355 101.214 158.663 94.2403 158.663C84.8742 158.663 78.5877 155.227 75.3809 148.355L78.2823 147.897C81.5401 153.191 86.8594 155.838 94.2403 155.838C103.657 155.838 112.056 145.505 119.437 124.838C126.462 100.711 131.857 85.1854 135.624 78.2626L140.969 77.27C137.355 81.444 133.919 88.494 130.661 98.42Z" fill="#0D131A"/>
<path d="M81.1077 150.875C78.308 146.141 77.0609 139.956 77.3664 132.321C78.1299 114.302 86.0452 97.3256 101.112 81.3931L103.785 81.6985C89.4303 96.562 81.6422 112.927 80.4205 130.794C79.9115 138.277 80.8532 144.36 83.2456 149.043C85.6889 153.827 89.1757 156.22 93.7061 156.22L93.477 158.129C88.1831 158.129 84.06 155.711 81.1077 150.875Z" fill="#0D131A"/>
<path d="M141.58 113.92L143.641 112.775L146.39 110.255C147.612 108.575 148.223 108.27 148.223 109.339C148.223 110.459 147.561 111.808 146.237 113.386C144.354 115.676 142.318 117.483 140.129 118.807L141.58 113.92Z" fill="#0D131A"/>
<path d="M171.816 116.516L165.631 121.937C158.81 125.857 153.211 129.14 148.834 131.787C140.74 136.674 134.454 141.128 129.974 145.149C130.483 143.469 131.552 141.357 133.181 138.811C136.49 135.961 142.369 132.169 150.819 127.435C157.436 123.719 164.435 120.079 171.816 116.516Z" fill="#0D131A"/>
<path d="M114.016 162.787C113.507 167.47 113.482 173.298 113.94 180.272C114.296 185.718 114.907 191.114 115.772 196.459L112.337 196.688C111.268 193.888 110.631 189.001 110.428 182.028C110.275 175.716 110.504 169.455 111.115 163.245L112.566 163.397L114.016 162.787Z" fill="#0D131A"/>
<path d="M95.9204 167.138C95.7168 174.061 97.6765 180.322 101.8 185.921C105.312 190.706 109.486 193.964 114.322 195.695C123.993 186.329 133.792 178.617 143.718 172.56C151.201 167.927 159.829 163.702 169.602 159.885L176.245 161.183C166.115 163.372 154.407 169.124 141.122 178.439C131.094 185.463 123.281 192.004 117.681 198.062C116.256 199.589 115.263 200.378 114.703 200.429L111.038 198.978C107.628 197.145 104.396 194.371 101.341 190.655C97.0148 185.311 94.3933 179.279 93.4771 172.56L95.9204 167.138Z" fill="#0D131A"/>
<path d="M94.3932 22.0663C99.1272 15.4999 105.261 12.4712 112.795 12.9802L110.046 16.0344C107.246 15.9835 104.676 16.5689 102.334 17.7905C100.4 18.8595 98.2109 20.6665 95.7676 23.2116C94.3932 24.586 93.5279 25.1459 93.1716 24.8914C92.8153 24.6369 93.2225 23.6952 94.3932 22.0663Z" fill="#0D131A"/>
<path d="M180.902 114.073C185.433 114.073 190.039 114.658 194.722 115.829C199.711 117.051 212.64 120.843 233.51 127.206L240.535 126.9C243.64 127.053 245.447 127.562 245.956 128.427C246.312 128.936 245.752 130.362 244.276 132.703L240.764 137.437L239.16 136.979C242.164 132.652 243.512 130.183 243.207 129.573C242.953 129.013 239.618 129.089 233.205 129.802C222.312 126.086 212.131 123.057 202.663 120.716C192.635 118.17 185.433 116.898 181.055 116.898C175.812 116.898 171.282 118.654 167.464 122.166C164.054 125.271 161.712 129.293 160.439 134.23C159.167 139.015 159.192 143.469 160.516 147.592C161.941 152.021 164.588 155.075 168.457 156.755C172.376 158.485 181.742 159.885 196.555 160.954L223.508 162.099C227.224 166.07 229.362 167.979 229.921 167.826C230.329 167.775 230.94 166.986 231.754 165.459L233.968 160.42C239.262 158.231 242.036 156.755 242.291 155.991C242.393 155.737 241.807 155.202 240.535 154.388L236.946 152.326C235.012 151.41 234.274 150.774 234.732 150.417C235.19 150.112 236.437 150.366 238.473 151.181C240.306 151.944 241.985 152.886 243.512 154.006C244.887 155.075 245.599 155.838 245.65 156.296C245.803 157.62 242.469 159.554 235.648 162.099L234.121 166.222C232.899 168.971 231.754 170.422 230.685 170.575C229.667 170.778 227.86 169.837 225.264 167.75L221.599 164.619L198.998 164.085C182.964 163.372 172.58 162.15 167.846 160.42C163.366 158.791 160.134 155.431 158.149 150.341C156.316 145.556 155.986 140.338 157.156 134.688C158.378 128.834 160.923 124.05 164.792 120.334C169.118 116.16 174.489 114.073 180.902 114.073Z" fill="#0D131A"/>
<path d="M237.633 135.757L243.818 136.903C246.618 137.717 248.145 138.506 248.399 139.27C248.603 139.779 248.145 140.619 247.025 141.789L243.054 144.996C242.24 145.505 241.476 145.632 240.764 145.378C240.051 145.072 240.102 144.665 240.917 144.156L244.2 141.56C245.065 140.746 245.447 140.16 245.345 139.804C245.294 139.499 244.149 138.99 241.909 138.277C239.822 137.564 238.219 137.132 237.099 136.979C235.775 136.724 235.266 136.445 235.572 136.139C235.877 135.885 236.564 135.757 237.633 135.757Z" fill="#0D131A"/>
<path d="M240.764 143.392C242.647 144.003 244.301 144.716 245.727 145.53C247.305 146.396 248.145 147.159 248.246 147.821C248.45 149.043 246.338 150.926 241.909 153.471L240.153 153.318C239.491 152.911 239.415 152.529 239.924 152.173L244.963 148.126C244.963 147.617 242.902 146.497 238.779 144.767C236.183 143.749 235.292 143.061 236.106 142.705C236.87 142.349 238.422 142.578 240.764 143.392Z" fill="#0D131A"/>
<path d="M154.102 205.926C156.138 196.153 159.905 188.975 165.402 184.394C167.133 182.969 168.176 182.485 168.533 182.944C168.838 183.402 168.202 184.471 166.624 186.15C162.042 190.986 158.861 197.883 157.079 206.842C155.298 215.445 155.374 222.953 157.309 229.367C160.159 238.885 166.217 246.623 175.481 252.578C182.709 257.21 189.708 259.806 196.478 260.366C198.82 260.57 199.939 260.977 199.838 261.588C199.685 262.25 198.438 262.479 196.096 262.275C186.527 261.563 177.797 258.254 169.907 252.349C161.813 246.292 156.596 238.911 154.254 230.207C152.269 223.029 152.218 214.936 154.102 205.926Z" fill="#0D131A"/>
<path d="M224.424 271.132C224.831 270.929 225.646 271.54 226.867 272.965L232.212 278.844L236.182 283.578C236.59 284.494 236.691 286.378 236.488 289.228L236.03 295.337L233.586 296.1L233.663 289.992C233.561 287.192 233.357 285.385 233.052 284.571L229.769 279.837L225.34 273.805C224.271 272.278 223.966 271.387 224.424 271.132Z" fill="#0D131A"/>
<path d="M212.131 282.051L213.505 284.571C213.963 286.403 213.607 290.527 212.436 296.94L211.062 297.169L209.688 297.322C210.044 295.846 210.247 293.682 210.298 290.832C210.349 287.93 210.222 286.073 209.917 285.258L208.695 281.746L206.939 277.165C205.87 274.772 205.564 273.449 206.023 273.194C206.43 272.94 207.321 274.009 208.695 276.401L212.131 282.051Z" fill="#0D131A"/>
<path d="M189.301 259.45C190.217 259.705 190.65 259.984 190.599 260.29C189.632 269.096 189.225 276.757 189.377 283.272L190.141 290.373C190.599 293.529 190.981 295.133 191.286 295.184C197.038 297.067 207.677 297.347 223.202 296.024C238.473 294.7 247.635 292.817 250.69 290.373C251.148 289.966 251.402 288.363 251.453 285.563C251.504 282.763 251.249 281.084 250.69 280.524L242.138 271.667C235.826 264.693 230.532 257.948 226.256 251.433C226.154 251.229 226.358 250.72 226.867 249.906C227.427 249.091 227.783 248.786 227.936 248.99C233.332 256.32 238.88 263.166 244.581 269.529L252.98 278.309C253.998 279.378 254.355 281.822 254.049 285.639C253.795 289.253 253.311 291.493 252.598 292.359C250.257 295.107 239.72 297.194 220.988 298.62C202.408 299.994 191.77 299.638 189.072 297.551C188.258 296.94 187.519 294.7 186.858 290.831L185.789 283.807C185.585 282.891 185.789 279.175 186.4 272.659C186.909 266.755 187.392 262.326 187.85 259.374L189.301 259.45Z" fill="#0D131A"/>
<path d="M232.594 214.02C229.387 194.727 219.155 181.849 201.899 175.384C198.794 174.214 197.344 173.323 197.547 172.712C197.751 172.101 199.456 172.279 202.663 173.247C211.571 175.995 218.977 181.086 224.882 188.517C230.227 195.236 233.79 203.101 235.571 212.111C237.302 220.713 237.175 228.909 235.19 236.697C233.103 244.739 229.361 250.822 223.966 254.945C221.879 256.523 220.759 257.032 220.606 256.472C220.453 255.912 221.319 254.767 223.202 253.036C227.223 249.371 230.099 243.925 231.83 236.697C233.612 229.418 233.866 221.859 232.594 214.02Z" fill="#0D131A"/>
<path d="M76.2209 222.343C77.1372 229.316 79.7077 235.399 83.9327 240.591C88.6666 246.343 94.9531 250.365 102.792 252.655C106.966 253.877 108.366 254.717 106.992 255.175C105.617 255.633 102.665 255.124 98.1345 253.648C90.7536 251.204 84.8234 246.979 80.344 240.973C76.17 235.425 73.7012 229.011 72.9377 221.732C72.1742 214.605 73.1413 207.759 75.8391 201.193C78.6897 194.372 83.0673 188.9 88.972 184.777C89.3283 184.573 89.481 185.133 89.4301 186.456C89.3283 187.729 88.9975 188.569 88.4375 188.976C83.8054 192.386 80.3695 197.171 78.1298 203.331C75.941 209.439 75.3047 215.776 76.2209 222.343Z" fill="#0D131A"/>
<path d="M105.083 261.512C105.388 261.715 104.523 262.224 102.486 263.039C93.2731 266.653 88.3101 268.918 87.5975 269.834C87.4448 269.987 87.2666 271.921 87.063 275.637L86.9867 282.891L84.3906 281.516C84.0852 275.663 84.0089 272.15 84.1616 270.98C84.2634 269.656 84.4415 268.842 84.696 268.536L87.5975 266.933C93.7567 264.49 98.3888 262.861 101.494 262.046L105.083 261.512Z" fill="#0D131A"/>
<path d="M55.1475 261.817C55.6057 261.461 56.6237 261.054 58.2017 260.596L78.0537 254.335C84.4165 252.197 88.8959 250.415 91.492 248.99L93.4772 249.524C94.4952 250.033 94.877 250.339 94.6225 250.44C90.8557 252.527 83.6275 255.403 72.938 259.068C62.9611 262.479 57.8199 264.337 57.5145 264.642C56.8528 265.202 56.4965 266.958 56.4455 269.911C56.3946 272.965 56.7764 275.205 57.5909 276.63C58.0999 277.546 64.1573 278.742 75.7631 280.218L100.807 281.822L109.13 280.677C112.184 279.76 115.671 277.801 119.59 274.797C121.27 273.525 124.808 271.412 130.203 268.46L139.442 263.192C140.358 262.479 140.944 261.741 141.198 260.977C141.402 260.316 141.427 259.476 141.275 258.458L143.871 259.374C144.125 260.697 144.125 261.792 143.871 262.657C143.514 263.777 142.725 264.795 141.504 265.711L133.181 270.14C128.142 272.634 124.528 274.67 122.339 276.248C116.994 280.168 112.744 282.687 109.588 283.807C107.603 284.571 104.701 285.054 100.883 285.258L79.7335 283.731C69.0439 282.458 61.7394 281.135 57.8199 279.76L55.7584 278.691C55.3511 278.284 54.9694 277.521 54.6131 276.401C54.1549 274.772 53.8241 272.787 53.6205 270.445C53.4168 267.951 53.4677 265.991 53.7732 264.566C54.0786 263.242 54.5367 262.326 55.1475 261.817Z" fill="#0D131A"/>
<path d="M70.1888 267.697C69.7816 267.901 69.5526 269.682 69.5016 273.042C69.3998 276.198 69.4507 278.768 69.6544 280.753L67.0583 280.066C66.5493 275.23 66.3966 271.336 66.6002 268.384C66.6511 267.417 66.8547 266.755 67.211 266.399L69.0435 265.406L76.7553 262.658L86.0704 259.832C88.6665 259.171 90.0663 258.993 90.2699 259.298C90.5244 259.603 89.4809 260.138 87.1394 260.901L77.6715 264.49C74.1592 265.915 71.665 266.984 70.1888 267.697Z" fill="#0D131A"/>
<path d="M101.341 132.78C101.138 133.136 102.156 135.197 104.396 138.964C106.584 142.68 108.646 145.785 110.58 148.279C110.835 148.636 110.3 149.247 108.977 150.112L102.639 140.415C99.4834 135.121 98.2108 132.016 98.8217 131.1C99.3816 130.285 102.156 130.82 107.144 132.703C111.064 134.128 114.525 135.63 117.528 137.208L117.07 137.972C116.612 138.43 116.307 138.608 116.154 138.506C114.22 137.386 111.344 136.088 107.526 134.612C103.607 133.085 101.545 132.474 101.341 132.78Z" fill="#0D131A"/>
<path d="M124.476 112.241C124.782 112.291 124.807 112.648 124.553 113.309C124.298 113.971 124.044 114.251 123.789 114.149L117.91 113.386L112.642 113.157C112.438 113.462 113.66 114.887 116.307 117.433L122.491 122.777C122.848 123.032 122.771 123.77 122.262 124.992L113.558 117.585C110.758 114.887 109.537 113.106 109.893 112.241C110.147 111.731 112.209 111.502 116.078 111.553L124.476 112.241Z" fill="#0D131A"/>
<path d="M118.75 101.78C115.747 99.2854 114.373 97.7838 114.627 97.2748C114.984 96.6639 117.249 96.2313 121.423 95.9767C125.19 95.7222 127.786 95.6968 129.211 95.9004L129.134 97.0457L128.524 98.1147L121.728 97.5802L117.529 97.9619L120.965 101.016L126.92 105.445C127.277 105.699 127.175 106.437 126.615 107.659L118.75 101.78Z" fill="#0D131A"/>
<path d="M68.2801 133.466C72.9631 134.841 75.8645 135.91 76.9844 136.673C79.7331 138.658 81.133 141.229 81.1839 144.385C81.2348 147.643 79.6313 149.322 76.3736 149.424C74.2866 149.475 70.9779 146.956 66.4476 141.865C61.9681 136.877 59.9829 133.746 60.492 132.474C60.7465 131.71 63.3425 132.041 68.2801 133.466ZM68.2037 141.483C72.225 145.963 75.0756 148.075 76.7553 147.821C78.3333 147.566 79.1478 146.548 79.1987 144.767C79.1987 143.087 78.5115 141.407 77.1371 139.727C76.3736 138.811 73.8793 137.539 69.6544 135.91C65.4804 134.332 63.2662 133.721 63.0117 134.077C62.6044 134.688 64.3351 137.157 68.2037 141.483Z" fill="#0D131A"/>
<path d="M71.0289 116.822C70.9271 117.127 72.1742 118.273 74.7702 120.258L80.4204 124.152L79.9623 126.29L72.556 120.869C69.5018 118.323 68.1529 116.746 68.5092 116.135C68.8655 115.524 70.7235 115.193 74.083 115.142L81.4894 115.524L81.1076 117.585L75.152 116.746L71.0289 116.822Z" fill="#0D131A"/>
<path d="M75.2285 102.62C75.1267 102.976 76.0175 103.816 77.9009 105.139C79.6825 106.463 81.4895 107.608 83.322 108.575L83.0166 110.789C81.1332 109.771 78.868 108.142 76.2211 105.903C73.4723 103.51 72.1998 101.983 72.4034 101.322L78.7408 101.016L86.9106 102.161C86.6561 102.518 86.4779 103.179 86.3761 104.147C85.1545 103.739 83.0166 103.307 79.9624 102.849L75.2285 102.62Z" fill="#0D131A"/>
<path d="M34.837 92.0067L29.874 85.5166L34.6843 87.5782L37.5858 91.854L39.8 94.6791C40.0545 94.5264 40.2327 93.3302 40.3345 91.0904L40.2581 86.8146L41.1744 85.822C41.7852 85.2621 42.1161 85.0585 42.167 85.2112C42.6251 86.7383 42.6251 89.0289 42.167 92.083C41.7598 94.9845 41.3016 96.6388 40.7926 97.046C39.9782 97.606 37.993 95.9262 34.837 92.0067Z" fill="#0D131A"/>
<path d="M62.3247 77.9572C62.5283 79.4843 62.452 82.6403 62.0957 87.4251C61.6375 92.6681 61.0267 95.3914 60.2632 95.595C59.3978 95.7986 57.4635 94.4242 54.4603 91.4719C51.6097 88.6213 49.4973 86.1271 48.1229 83.9892C48.072 83.8874 48.5047 83.6329 49.4209 83.2256C50.3881 82.8184 50.8971 82.6657 50.948 82.7675L55.7583 89.6394C57.7435 92.0827 58.9397 93.228 59.3469 93.0753C59.7032 92.9226 59.8305 90.7847 59.7287 86.6616C59.6778 82.793 59.5251 80.146 59.2706 78.7208C59.2197 78.3645 59.7032 78.0336 60.7213 77.7282C61.7393 77.4228 62.2738 77.4991 62.3247 77.9572Z" fill="#0D131A"/>
<path d="M153.109 61.0067C148.274 64.8753 142.038 66.7078 134.403 66.5042C126.767 66.2496 119.361 64.9771 112.184 62.6865C105.363 60.5486 101.8 58.5888 101.494 56.8072C101.392 56.4 102.385 54.542 104.472 51.2334C106.813 47.3648 109.435 43.6744 112.336 40.1621C120.939 29.727 128.625 24.6877 135.395 25.044C143.845 25.5021 150.412 28.3018 155.095 33.4429C158.963 37.7188 160.745 42.3254 160.439 47.263C160.032 52.8114 157.589 57.3926 153.109 61.0067Z" fill="#515457"/>
<path d="M138.602 66.0465C132.087 66.4538 125.622 65.9193 119.208 64.4431C115.085 54.3135 114.576 44.0312 117.681 33.5962C120.735 23.4156 125.495 18.3508 131.959 18.4017C138.271 18.4526 143.107 23.2375 146.467 32.7563C149.979 42.7841 149.953 53.5245 146.39 64.9776L138.602 66.0465Z" fill="white"/>
<path d="M138.831 65.5882L130.814 66.1227C128.218 61.8469 126.818 56.0949 126.615 48.8667C126.462 43.0638 126.869 38.3808 127.836 34.8176C129.058 30.5927 130.967 28.4548 133.563 28.4039C135.803 28.353 137.711 30.16 139.289 33.825C140.867 37.5409 141.733 42.4021 141.885 48.4086C142.038 55.3313 141.02 61.0579 138.831 65.5882Z" fill="#A41E3A"/>
<path d="M133.715 39.7804C134.988 39.7295 135.777 42.6564 136.082 48.5611C136.388 54.4658 135.93 57.4182 134.708 57.4182C133.384 57.4182 132.57 54.5167 132.265 48.7138C132.01 42.9109 132.494 39.9331 133.715 39.7804Z" fill="#0D131A"/>
<path d="M140.053 33.5196C141.732 37.5918 142.7 42.3766 142.954 47.8741C143.107 51.2846 142.903 54.6187 142.343 57.8765C141.732 61.1342 140.893 63.7812 139.824 65.8173L137.38 65.8936C138.5 64.2138 139.366 61.8978 139.976 58.9454C140.638 55.5858 140.867 51.9463 140.664 48.0268C140.307 42.173 139.467 37.5918 138.144 34.2831C136.871 31.0763 135.319 29.5237 133.486 29.6255C131.806 29.7273 130.432 31.2799 129.363 34.2831C128.091 37.7954 127.531 42.5293 127.683 48.4849C127.734 52.2008 128.243 55.7131 129.21 59.0218C130.025 62.0759 131.043 64.392 132.265 65.97L129.974 66.0463C128.701 63.9593 127.658 61.2869 126.843 58.0292C126.029 54.8223 125.596 51.7173 125.545 48.714C125.342 42.3003 126.08 37.0319 127.76 32.9088C129.287 29.142 131.196 27.2077 133.486 27.1059C136.031 27.055 138.22 29.1929 140.053 33.5196Z" fill="#0D131A"/>
<path d="M131.043 37.4135C130.992 35.7847 131.17 34.4612 131.577 33.4431C132.036 32.3233 132.672 31.7379 133.486 31.687C134.25 31.687 134.886 32.1706 135.395 33.1377C135.904 34.1049 136.21 35.4029 136.311 37.0318C136.413 39.017 136.235 40.595 135.777 41.7657C135.319 42.8856 134.708 43.4455 133.944 43.4455C133.028 43.4455 132.29 42.7583 131.73 41.384C131.272 40.2132 131.043 38.8897 131.043 37.4135Z" fill="white"/>
<path d="M140.893 21.2262C143.947 24.0768 146.39 27.9199 148.223 32.7557C152.397 44.056 151.939 54.771 146.848 64.9006C146.746 65.1551 146.263 65.4097 145.398 65.6642C144.532 65.9187 144.201 65.8678 144.405 65.5115C148.528 55.9927 148.935 45.7358 145.627 34.7409C144.201 29.956 142.242 26.1638 139.747 23.3641C137.151 20.4627 134.326 19.1901 131.272 19.5465C124.858 20.3609 120.532 26.0365 118.292 36.5734C116.052 46.9575 116.943 56.2472 120.964 64.4425L119.208 64.3662C114.322 57.3925 113.049 48.1028 115.39 36.497C117.783 24.3822 122.975 17.9685 130.967 17.2558C134.428 16.9504 137.737 18.2739 140.893 21.2262Z" fill="#0D131A"/>
<path d="M142.954 24.7383C148.248 25.9599 152.727 28.7341 156.392 33.0608C159.956 37.2349 161.814 41.7143 161.966 46.4991C162.17 52.5565 159.879 57.545 155.094 61.4645C150.513 65.2822 144.71 67.2928 137.686 67.4964C130.305 67.7 122.059 66.5038 112.947 63.9078C104.243 61.4136 99.8651 59.2502 99.8142 57.4177C99.7124 55.6361 101.469 52.2257 105.083 47.1863C108.951 41.6888 113.278 36.904 118.063 32.8318C117.656 34.2571 117.299 35.9114 116.994 37.7948C113.125 41.5107 109.766 45.3538 106.915 49.3242C104.166 53.1419 102.919 55.6361 103.174 56.8069C103.428 58.1813 107.551 59.9374 115.543 62.0753C123.942 64.315 131.272 65.3331 137.533 65.1295C143.845 64.9259 148.935 63.1697 152.804 59.861C156.876 56.4506 158.836 52.0221 158.683 46.5755C158.581 42.7069 157.207 39.0674 154.56 35.6569C152.015 32.3991 148.833 29.9558 145.016 28.3269L142.954 24.7383Z" fill="#0D131A"/>
<path d="M273.443 170.269C274.919 170.931 275.123 177.727 274.054 190.656C273.29 200.48 272.17 210.177 270.694 219.747L267.105 217.914L267.182 217.838C268.505 212.289 269.803 203.763 271.076 192.259C272.399 180.399 272.654 174.316 271.839 174.011C270.974 173.654 266.902 178.134 259.623 187.449C252.395 196.713 247.992 203.025 246.414 206.385L245.039 205.163L243.741 203.941C247.101 197.884 252.216 190.732 259.088 182.486C266.622 173.425 271.407 169.353 273.443 170.269Z" fill="#0D131A"/>
</g>
<defs>
<radialGradient id="paint0_radial_864_975" cx="0" cy="0" r="1" gradientUnits="userSpaceOnUse" gradientTransform="translate(150 150) rotate(90) scale(200)">
<stop stop-color="#FFF3C2"/>
<stop offset="1" stop-color="#59C2E1"/>
</radialGradient>
<clipPath id="clip0_864_975">
<rect width="300" height="300" fill="white"/>
</clipPath>
</defs>
</svg>
