<svg width="300" height="300" viewBox="0 0 300 300" fill="none" xmlns="http://www.w3.org/2000/svg">
<g clip-path="url(#clip0_864_583)">
<rect width="300" height="300" fill="white"/>
<rect x="-50" y="-50" width="400" height="400" fill="url(#paint0_radial_864_583)"/>
<path d="M237.228 52.2789C252.095 49.9527 264.321 49.3196 273.907 50.3797L257.979 76.8362C249.425 90.911 242.951 102.056 238.556 110.271C241.446 109.152 245.163 108.092 249.705 107.091C253.953 106.149 257.478 105.575 260.28 105.369C260.693 105.31 260.899 105.427 260.899 105.722L260.678 106.605C260.354 107.724 259.572 109.609 258.333 112.259L255.103 119.458L264.262 118.928C270.132 118.781 273.583 119.488 274.615 121.048C275.647 122.638 272.123 127.585 264.041 135.888L251.298 148.344C253.776 148.226 256.563 148.476 259.66 149.095C262.846 149.742 264.513 150.449 264.66 151.215C264.808 151.921 261.637 155.646 255.147 162.389C249.75 168.013 245.045 172.695 241.033 176.435C242.331 185.062 242.744 193.056 242.272 200.418C241.712 208.986 239.927 216.951 236.919 224.312C232.494 235.266 220.622 244.011 201.302 250.548C191.332 253.934 180.507 256.393 168.826 257.924C157.617 259.455 145.598 257.953 132.767 253.419C118.608 248.354 106.5 240.478 96.4417 229.789C87.1503 219.925 80.0564 208.927 75.16 196.796C69.4966 182.692 66.9304 167.38 67.4614 150.861C67.6089 145.826 68.0513 140.585 68.7887 135.138C69.6441 128.601 70.7355 123.198 72.0628 118.928C67.0779 104.824 64.3642 83.9913 63.9218 56.4306C63.7153 44.3876 64.084 33.6254 65.0279 24.144C66.0603 14.1621 67.5794 7.16885 69.5851 3.16431C69.9096 2.51651 70.1898 2.20734 70.4258 2.23678C70.6912 2.29567 71.1189 2.73735 71.7089 3.56182C80.0564 15.4577 86.3834 24.0998 90.6898 29.4883C98.8899 39.7352 105.689 46.4634 111.087 49.673C112.856 46.7873 115.895 43.4159 120.201 39.5586C124.419 35.7896 127.693 33.4634 130.023 32.58C130.112 34.9651 130.525 37.8655 131.262 41.2811C132 44.7556 132.84 47.6118 133.784 49.8496C139.831 40.9572 147.102 33.007 155.597 25.999C165.213 18.0783 174.593 12.9696 183.736 10.6728C182.793 15.2663 182.321 22.5834 182.321 32.6242C182.321 37.6299 182.409 42.1792 182.586 46.2721L190.24 44.152C196.199 42.7386 201.39 42.032 205.815 42.032L203.602 50.9538L201.08 61.7308C210.342 57.7557 222.392 54.605 237.228 52.2789Z" fill="#664497"/>
<path d="M23.7918 172.15C23.8803 171.65 24.9864 170.707 27.1102 169.323L30.871 166.806L31.8886 165.967C32.1835 165.702 32.4195 165.275 32.5965 164.686C32.8325 163.832 33.7321 162.168 35.2954 159.695C37.4782 156.279 39.9706 153.143 42.7728 150.287C51.4742 141.483 61.3113 137.213 72.284 137.478C75.0272 137.567 77.5196 139.922 79.7614 144.545C81.8261 148.785 83.3157 154.085 84.2301 160.446C84.9085 165.069 84.5545 169.809 83.1682 174.668C81.6934 179.762 79.7908 182.014 77.4606 181.425C69.998 179.6 61.1638 179.732 50.958 181.823C43.5839 183.354 37.9501 185.135 34.0566 187.167C33.5551 187.432 33.2307 186.652 33.0832 184.826C32.9652 183.089 33.0242 181.941 33.2602 181.381L29.4109 181.028L24.9422 180.807C24.7652 180.542 25.1634 179.688 26.1368 178.245L27.6853 176.125C24.9717 174.329 23.6738 173.004 23.7918 172.15Z" fill="#664497"/>
<path d="M132.767 234.692C135.952 241.552 136.439 246.617 134.227 249.885C128.121 258.896 118.151 266.11 104.317 271.528C99.4799 273.442 94.79 274.87 90.2475 275.812C86.295 276.636 83.9353 276.872 83.1684 276.519C82.7259 276.342 82.6227 275.782 82.8587 274.84L83.8321 271.881L78.0802 272.234L74.6734 271.793C74.5259 271.557 74.7766 270.394 75.4256 268.303L76.3989 264.947L75.0274 264.328C74.1425 263.975 73.6705 263.71 73.6115 263.533C73.4051 262.915 74.5407 261.001 77.0184 257.791L77.859 256.996C76.7971 255.583 75.691 253.036 74.5407 249.355C72.9184 244.261 72.3284 239.521 72.7709 235.133C73.2133 230.687 75.4403 226.153 79.4518 221.53C83.6993 216.671 88.3893 213.683 93.5216 212.564C97.3562 211.71 101.397 211.724 105.645 212.608C110.925 213.727 116.131 216.141 121.263 219.851C125.894 223.238 129.729 228.184 132.767 234.692Z" fill="#664497"/>
<path d="M174.136 236.945C181.333 231.232 188.087 227.434 194.4 225.549C201.744 223.341 208.986 222.605 216.124 223.341C223.144 224.048 227.908 225.947 230.415 229.039C235.606 235.399 238.571 244.586 239.308 256.599C239.839 265.551 239.323 272.662 237.759 277.932C238.261 279.67 238.512 281.672 238.512 283.939C238.512 286.265 238.202 287.546 237.582 287.782L233.379 287.693C231.196 287.428 229.781 287.09 229.132 286.678L226.831 290.874C225.74 292.787 224.973 293.877 224.53 294.142C224.117 294.407 222.421 294.039 219.442 293.038L214.619 291.271C213.587 292.478 212.274 293.73 210.682 295.025C209.03 296.321 208.012 296.939 207.629 296.88C207.009 296.733 205.402 293.273 202.806 286.501C192.453 282.143 183.707 276.563 176.569 269.761C169.637 263.136 165.478 256.614 164.092 250.195C163.443 247.192 166.791 242.775 174.136 236.945Z" fill="#664497"/>
<path d="M246.166 252.359C241.181 253.507 237.273 253.537 234.441 252.447C231.55 251.299 229.176 249.562 227.318 247.235C225.046 244.379 223.955 241.022 224.044 237.165C224.132 234.073 225.725 231.541 228.822 229.568C231.683 227.772 233.836 227.301 235.282 228.155C236.432 228.862 239.868 231.806 245.591 236.988C251.726 242.583 254.749 245.778 254.661 246.573C254.366 249.223 251.534 251.152 246.166 252.359Z" fill="#664497"/>
<path d="M218.822 154.66C227.406 153.953 235.222 156.662 242.272 162.787C246.313 166.261 249.558 170.251 252.006 174.756C252.566 175.757 253.127 176.111 253.687 175.816C254.454 175.434 255.796 175.154 257.714 174.977C260.014 174.742 261.445 174.992 262.005 175.728L261.297 177.848C260.766 179.114 260.575 179.747 260.722 179.747C261.401 179.747 262.61 180.086 264.35 180.763C266.533 181.617 267.624 182.545 267.624 183.546L265.191 185.224C263.569 186.166 262.757 186.711 262.757 186.858L264.748 188.713C266.017 189.832 266.592 190.554 266.474 190.878C266.385 191.113 265.648 191.452 264.262 191.893L261.917 192.6C258.613 194.426 254.144 195.986 248.511 197.282C243.496 198.43 238.674 199.137 234.043 199.402C230.267 199.637 225.931 199.24 221.035 198.209C215.666 197.061 211.773 195.545 209.354 193.66C207.968 192.541 206.463 189.921 204.841 185.798C202.688 180.351 201.965 175.08 202.673 169.986C203.145 166.512 205.49 163.037 209.708 159.563C213.425 156.53 216.463 154.896 218.822 154.66Z" fill="#664497"/>
<path d="M176.082 154.483C177.498 153.953 178.412 154.115 178.825 154.969C179.12 155.617 179.135 156.588 178.869 157.884C177.985 161.771 176.569 165.716 174.622 169.721C172.616 173.843 170.419 177.259 168.03 179.968C166.909 181.205 165.242 182.559 163.03 184.031C160.316 185.828 157.942 186.946 155.906 187.388C148.001 189.037 137.987 188.404 125.864 185.489C113.8 182.574 105.276 178.79 100.291 174.138C96.6333 170.693 93.374 166.938 90.5128 162.875C87.7401 158.929 85.9408 155.573 85.1149 152.805C84.6725 151.333 84.1858 149.242 83.6549 146.533C83.0649 143.53 82.9469 142.219 83.3009 142.602C86.634 146.077 92.725 149.433 101.574 152.672C110.216 155.823 118.195 157.663 125.51 158.193C133.415 158.782 141.173 158.959 148.783 158.723C160.788 158.34 169.888 156.927 176.082 154.483Z" fill="white"/>
<path d="M273.465 121.49C274.291 121.048 274.822 120.975 275.058 121.269C275.264 121.534 275.19 121.99 274.836 122.638C273.568 124.817 268.922 130.176 260.899 138.715C252.316 147.873 246.652 153.129 243.909 154.483L242.936 149.713L241.918 145.473C243.423 144.737 248.466 141.041 257.05 134.387L273.465 121.49Z" fill="#593984"/>
<path d="M244.396 164.288L252.537 158.856L262.89 151.435C263.687 150.758 264.026 150.861 263.908 151.745C263.141 153.187 260.486 156.309 255.944 161.108L248.201 169.014L246.564 166.938C245.62 165.937 244.897 165.054 244.396 164.288Z" fill="#593984"/>
<path d="M178.162 27.4566C179.961 20.3308 181.436 15.5607 182.586 13.1462L183.029 12.6603C183.235 12.4837 183.324 12.5867 183.294 12.9695C182.793 16.9152 182.365 21.8178 182.011 27.6774C181.569 35.392 181.554 41.0308 181.967 44.5937C181.996 44.947 181.863 45.4181 181.569 46.007L180.728 46.9787L177.985 48.7896C177.129 49.2313 176.569 49.0104 176.303 48.1271C175.094 44.0636 175.713 37.1735 178.162 27.4566Z" fill="#593984"/>
<path d="M205.461 44.8145C205.402 46.2574 204.797 49.1724 203.647 53.5598C202.496 57.9176 201.921 60.3469 201.921 60.8474C201.095 60.9063 199.9 61.4216 198.337 62.3933C196.685 63.4239 195.535 63.9981 194.886 64.1159C194.208 63.2619 195.314 59.596 198.204 53.1181C201.125 46.5812 203.234 43.3864 204.531 43.5337L205.062 43.9312C205.328 44.1962 205.461 44.4906 205.461 44.8145Z" fill="#593984"/>
<path d="M131.13 42.1645C131.808 45.1973 132.531 47.8769 133.298 50.203L130.864 55.0173C129.92 53.9278 129.094 52.6322 128.386 51.1305C127.502 49.3344 126.985 47.6266 126.838 46.0071C126.661 43.9459 127.074 41.2811 128.077 38.0127C128.991 35.0093 129.625 33.537 129.979 33.5959C129.95 35.6277 130.333 38.4838 131.13 42.1645Z" fill="#593984"/>
<path d="M64.2759 25.4252C64.4824 23.7468 64.8363 22.3776 65.3378 21.3176C65.8392 20.2281 66.1047 20.4195 66.1342 21.8917C66.3996 33.6993 67.6237 46.5079 69.8065 60.3177C72.5201 77.3959 76.045 90.764 80.381 100.422L76.8414 107.445C74.6881 111.567 72.9773 115.086 71.709 118.001C67.1665 104.103 64.3791 86.8773 63.3467 66.3245C62.4913 49.8941 62.8011 36.261 64.2759 25.4252Z" fill="#593984"/>
<path d="M68.479 174.579L70.0276 180.719C64.3642 180.277 59.8955 180.351 56.6214 180.939C54.8516 181.263 50.4567 182.544 43.4365 184.782L42.6401 184.252C42.2271 183.84 42.1829 183.56 42.5074 183.413C55.9283 177.553 64.2168 172.916 67.3729 169.5C67.4024 170.236 67.7711 171.929 68.479 174.579Z" fill="#593984"/>
<path d="M246.608 197.856C241.948 199.004 237.892 199.667 234.441 199.843C230.194 200.108 225.474 199.637 220.283 198.43C215.327 197.252 212.009 195.927 210.328 194.455C215.224 194.838 220.917 194.926 227.406 194.72C234.072 194.514 238.865 194.057 241.786 193.351L245.325 192.865L247.405 192.909C248.467 193.969 251.254 194.131 255.767 193.395L262.182 191.981C258.053 194.396 252.862 196.354 246.608 197.856Z" fill="#593984"/>
<path d="M119.183 238.225C134.197 245.999 148.739 249.68 162.809 249.267C163.753 249.238 164.859 250.651 166.127 253.508C167.425 256.364 167.336 257.865 165.862 258.013C158.783 258.778 151.128 258.189 142.899 256.246C134.433 254.214 126.204 250.931 118.21 246.397C99.8043 235.943 86.5014 221.486 78.3014 203.024C77.3575 200.933 76.8118 199.549 76.6643 198.872C76.5463 198.313 76.7381 198.43 77.2395 199.225C87.6518 216.097 101.633 229.097 119.183 238.225Z" fill="#593984"/>
<path d="M115.998 245.513C116.853 246.102 119.006 247.132 122.457 248.605L130.422 252.094C132.162 252.918 130.746 255.392 126.174 259.514C121.779 263.489 117.384 266.493 112.989 268.524C110.511 269.673 106.957 270.836 102.326 272.014C97.7837 273.162 95.8664 273.53 96.5743 273.118C101.087 270.527 105.379 266.242 109.45 260.265C113.255 254.7 115.378 250.018 115.821 246.22V245.469L115.998 245.513Z" fill="#593984"/>
<path d="M237.759 253.728C235.96 243.187 235.68 238.549 236.919 239.815C238.954 241.935 241.933 243.952 245.856 245.866C249.012 247.427 251.564 248.413 253.51 248.825C254.572 249.061 252.92 250.092 248.555 251.917C244.219 253.743 240.62 254.346 237.759 253.728Z" fill="#593984"/>
<path d="M244.883 84.4331C251.667 75.8057 257.905 68.2383 263.598 61.7309C269.409 55.1057 272.58 51.9845 273.111 52.3673C269.896 56.7546 263.141 67.6641 252.847 85.0956C242.08 103.263 234.706 116.366 230.724 124.405L235.901 131.339C238.084 134.608 239.632 137.641 240.547 140.438C241.874 144.413 243.024 149.492 243.998 155.676C244.883 161.535 245.089 164.406 244.617 164.288C243.762 163.493 241.653 162.11 238.29 160.137C233.895 157.604 229.913 155.764 226.344 154.616C226.344 148.756 225.621 142.926 224.176 137.125C222.878 131.913 221.241 127.585 219.265 124.14C218.675 120.253 227.214 107.018 244.883 84.4331Z" fill="#593984"/>
<path d="M227.406 199.755L236.565 199.269L243.157 198.077C242.213 205.379 238.895 216.774 233.202 232.263C231.078 229.259 229.25 227.124 227.716 225.858C227.981 222.708 227.568 218.894 226.477 214.419C225.503 210.385 224.722 208.25 224.132 208.014C220.238 206.719 216.773 204.51 213.734 201.389C211.139 198.739 209.502 196.177 208.823 193.704C211.301 194.941 214.472 196.192 218.336 197.458C222.052 198.636 225.076 199.402 227.406 199.755Z" fill="#593984"/>
<path d="M111.131 48.7455C111.809 49.2461 111.913 49.7761 111.441 50.3356C110.939 50.9245 110.482 51.057 110.069 50.7331C104.258 46.3752 97.356 39.5439 89.3625 30.2392C81.7819 21.4057 76.1038 13.7941 72.3283 7.4045C71.5909 6.13835 71.0894 5.47584 70.824 5.41694C70.3225 5.29916 69.7916 6.21196 69.2311 8.15535C66.075 18.6084 64.8214 35.4952 65.4703 58.8158C66.1193 82.1364 68.3905 101.158 72.284 115.881C72.756 117.765 72.9035 119.237 72.7265 120.297C72.52 121.387 72.0481 120.989 71.3106 119.105C66.6502 107.062 63.7595 88.5554 62.6387 63.5859C61.4883 38.2336 62.8304 19.4034 66.6649 7.09532C67.8153 3.38523 69.0689 1.44184 70.4257 1.26517C71.7531 1.0885 73.3017 2.56076 75.0714 5.68195C79.3189 13.0138 85.2772 21.229 92.9463 30.3276C100.409 39.1906 106.47 45.3299 111.131 48.7455Z" fill="#0D131A"/>
<path d="M132.855 42.3853C133.445 45.4476 134.05 47.8179 134.669 49.4963C134.817 49.8497 134.625 50.3355 134.094 50.9539C133.563 51.5722 133.194 51.6311 132.988 51.1305C132.044 48.8927 131.218 46.0218 130.51 42.5178C129.92 39.6322 129.566 37.2324 129.448 35.3185L129.316 34.7884L128.785 34.8768C125.865 36.614 121.971 39.9119 117.104 44.7704C110.261 51.5722 105.615 58.006 103.167 64.0717C102.784 65.0434 102.385 65.4262 101.972 65.22C101.559 64.9845 101.604 64.0275 102.105 62.3491C103.344 58.2563 106.839 52.912 112.591 46.3162C117.989 40.1033 122.708 35.716 126.749 33.1542C128.962 31.7409 130.304 31.0931 130.776 31.2109C131.189 31.2992 131.469 32.212 131.616 33.9493C131.852 36.5993 132.265 39.4113 132.855 42.3853Z" fill="#0D131A"/>
<path d="M183.869 30.7253C183.427 36.9088 183.25 41.7672 183.338 45.3007C183.368 46.3901 183.043 47.0674 182.365 47.3324C181.686 47.5974 181.303 47.3029 181.214 46.449C180.772 41.9734 180.698 36.9382 180.993 31.3436C181.2 27.6335 181.642 22.7015 182.321 16.5474C182.586 14.3685 182.527 13.0729 182.144 12.6607L179.754 12.8373C171.938 15.458 163.413 20.7581 154.181 28.7377C144.506 37.0707 137.044 45.8601 131.793 55.1059C131.144 56.2543 130.687 56.6812 130.422 56.3868C130.156 56.0629 130.289 55.1354 130.82 53.6042C132.943 47.7741 138.607 40.3097 147.81 31.2111C158.31 20.7875 168.56 13.6471 178.56 9.78977C182.66 8.19973 185.034 7.69916 185.683 8.28806C186.126 8.6414 186.111 10.4523 185.639 13.7207C184.931 18.7558 184.341 24.424 183.869 30.7253Z" fill="#0D131A"/>
<path d="M200.859 40.9722C204.753 40.6778 206.906 40.7072 207.319 41.0606C207.614 41.3256 207.363 42.7242 206.567 45.2565C204.944 50.4094 203.735 55.4593 202.939 60.4061C202.821 61.2011 202.467 61.7164 201.877 61.9519C201.287 62.1581 201.007 61.9225 201.036 61.2453C201.125 58.7424 201.434 56.004 201.965 53.0301L203.337 46.4932C203.632 44.9621 203.602 44.064 203.248 43.799L200.24 43.7106C196.612 44.1523 192.866 44.8885 189.002 45.919C185.374 46.8613 181.996 47.9655 178.87 49.2316C176.746 50.0855 175.64 50.2622 175.551 49.7616C175.433 49.2905 176.318 48.5397 178.206 47.5091C181.067 45.9485 184.71 44.5351 189.134 43.269C193.559 41.9734 197.467 41.2078 200.859 40.9722Z" fill="#0D131A"/>
<path d="M252.227 105.059L261.43 104.794C262.05 105.177 261.681 107.283 260.324 111.11C259.026 114.732 257.773 117.441 256.563 119.237C256.15 119.856 255.442 120.076 254.439 119.9C253.407 119.723 253.038 119.385 253.333 118.884C255.074 116.146 256.489 113.481 257.581 110.89C258.613 108.387 258.923 107.047 258.51 106.87C257.891 106.605 255.678 106.87 251.873 107.665C247.154 108.637 242.361 110.139 237.494 112.17C236.609 112.553 236.284 112.347 236.52 111.552C236.756 110.757 237.449 110.036 238.6 109.388C242.051 107.474 246.593 106.031 252.227 105.059Z" fill="#0D131A"/>
<path d="M237.317 53.5596C223.483 55.8269 210.151 59.3014 197.32 63.9832C194.282 65.0727 192.63 65.4555 192.364 65.1316C192.099 64.8077 193.22 63.9832 195.727 62.6582C202.747 58.9775 213.351 55.6649 227.539 52.7204C242.317 49.6287 255.295 48.2006 266.474 48.4361C271.872 48.5539 274.807 49.0987 275.279 50.0704C275.662 50.9537 274.438 53.6627 271.607 58.1972L251.166 91.1022C245.561 100.377 239.854 110.139 234.043 120.385C231.447 124.949 229.987 126.878 229.663 126.171C229.309 125.465 230.194 123.065 232.317 118.972C237.214 109.491 243.762 97.8746 251.962 84.1237C258.274 73.6118 264.247 63.9832 269.881 55.238C270.913 53.6479 271.297 52.5879 271.031 52.0579C270.795 51.5868 269.793 51.3071 268.023 51.2187C259.38 50.8654 249.145 51.6457 237.317 53.5596Z" fill="#0D131A"/>
<path d="M71.7974 115.395C74.8355 106.59 78.5373 99.3763 82.9028 93.7523C85.0266 90.9845 86.6341 89.1589 87.7255 88.2755C88.9644 87.2449 88.4777 88.5847 86.2654 92.2948C80.4546 102.012 76.2514 110.845 73.6557 118.795C70.588 128.041 68.892 138.288 68.5675 149.536C68.0366 167.498 70.9715 183.913 77.3722 198.783C83.0946 212.034 91.2651 223.458 101.884 233.057C111.441 241.714 122.148 248.163 134.005 252.403C145.155 256.437 155.7 257.968 165.64 256.996L167.101 258.101C167.926 258.837 168.236 259.22 168.03 259.249C156.644 260.338 144.963 258.822 132.988 254.7C120.452 250.371 109.228 243.702 99.3176 234.692C88.4629 224.886 80.1597 213.123 74.4078 199.402C68.0366 184.208 65.146 167.395 65.7359 148.962C66.1193 137.155 68.1398 125.965 71.7974 115.395Z" fill="#0D131A"/>
<path d="M25.2077 172.459C25.2077 172.636 25.6207 173.048 26.4466 173.696C27.2135 174.314 27.8329 174.741 28.3049 174.977C28.7473 175.183 28.9243 175.551 28.8358 176.081C28.7473 176.611 28.2311 176.685 27.2872 176.302C23.7771 174.948 22.0516 173.711 22.1106 172.592C22.1696 171.856 23.5854 170.619 26.3581 168.882C29.2192 167.115 30.6793 166.129 30.7383 165.923C33.275 159.003 37.7732 152.702 44.2329 147.019C51.4301 140.688 59.5416 136.683 68.5675 135.005C69.4819 134.828 69.7326 135.373 69.3197 136.639C68.8772 137.905 68.2431 138.627 67.4172 138.804C59.3941 140.688 52.374 144.074 46.3567 148.962C40.2804 153.879 35.679 159.96 32.5523 167.203C32.3754 167.616 31.0923 168.558 28.7031 170.03C26.3728 171.473 25.2077 172.283 25.2077 172.459Z" fill="#0D131A"/>
<path d="M132.988 253.817C127.03 261.119 118.018 267.332 105.954 272.455C100.851 274.634 96.1468 276.136 91.8403 276.96C87.4453 277.814 84.2302 277.814 82.1949 276.96C81.3395 276.607 81.2363 275.444 81.8852 273.471C82.2982 272.176 82.8439 270.954 83.5223 269.805C84.5547 268.039 85.2773 267.258 85.6903 267.464C86.1032 267.641 86.059 268.524 85.5575 270.114C85.2036 271.145 84.9823 272.073 84.8939 272.897C84.8054 273.869 84.9234 274.487 85.2478 274.752C85.8672 275.253 88.0352 275.061 91.7518 274.178C95.6453 273.206 99.8928 271.778 104.494 269.894C116.735 264.888 125.171 259.249 129.802 252.977C130.156 252.506 130.864 252.418 131.926 252.712C133.017 252.977 133.371 253.345 132.988 253.817Z" fill="#0D131A"/>
<path d="M78.2572 264.903C77.7558 265.845 77.2691 267.052 76.7971 268.524C76.2957 270.085 76.1335 270.998 76.3105 271.263C76.6054 271.675 79.1126 271.395 83.8321 270.424C84.7759 270.365 85.1299 270.6 84.8939 271.13C84.7169 271.601 84.3187 271.969 83.6993 272.234C82.077 272.971 80.1892 273.545 78.036 273.957C75.4108 274.458 73.8622 274.325 73.3903 273.56C73.0068 272.941 73.2133 271.41 74.0097 268.966C74.8061 266.64 75.573 265.065 76.3105 264.24C77.1659 263.268 77.859 262.856 78.39 263.003C78.9209 263.151 78.8766 263.784 78.2572 264.903Z" fill="#0D131A"/>
<path d="M73.0363 260.486C74.3931 258.307 75.7204 256.776 77.0183 255.892C77.4017 255.598 77.8884 255.789 78.4784 256.467C79.0388 257.114 79.142 257.556 78.7881 257.792C77.6082 258.587 76.5758 259.676 75.691 261.06C74.924 262.208 74.5848 262.945 74.6733 263.268C74.7618 263.475 75.219 263.651 76.0449 263.798L77.8147 264.108C78.1392 264.166 78.1392 264.549 77.8147 265.256C77.4607 265.963 77.0773 266.301 76.6643 266.272L74.0981 265.963C72.7413 265.668 71.9007 265.256 71.5762 264.726C71.1927 264.108 71.6794 262.694 73.0363 260.486Z" fill="#0D131A"/>
<path d="M84.3629 216.23C85.7198 215.523 86.4867 215.567 86.6636 216.362C86.8406 217.157 86.5604 217.761 85.823 218.173C79.0093 222.119 75.1748 228.45 74.3194 237.165C73.405 246.146 76.1482 254.185 82.5489 261.281C83.7582 262.606 84.1859 263.519 83.832 264.019C83.5075 264.52 82.6521 264.064 81.2658 262.65C72.9773 254.17 69.7032 244.939 71.4435 234.957C72.1809 230.805 73.7589 227.021 76.1776 223.606C78.4784 220.337 81.2068 217.879 84.3629 216.23Z" fill="#0D131A"/>
<path d="M162.587 249.842C161.614 246.279 161.452 244.453 162.101 244.365C162.75 244.276 163.738 246.058 165.065 249.709C168.221 258.366 173.501 265.83 180.905 272.102C186.48 276.784 194.001 281.304 203.47 285.662C203.971 285.897 204.812 287.517 205.992 290.52C207.171 293.465 207.924 294.981 208.248 295.069C208.838 295.246 209.988 294.289 211.699 292.198L214.044 289.063C220.12 292.007 223.468 293.376 224.088 293.17C224.678 292.993 226.049 290.049 228.202 284.337C233.453 285.986 236.314 286.604 236.786 286.192C237.169 285.838 237.302 285.087 237.184 283.939C237.007 282.614 236.52 281.024 235.724 279.169C235.665 278.992 235.709 278.624 235.857 278.065C237.862 271.145 238.187 263.018 236.83 253.684C235.385 243.849 232.42 235.355 227.937 228.199C226.433 225.785 226.049 224.504 226.787 224.357C227.524 224.239 228.615 225.108 230.061 226.963C235.37 233.853 238.688 242.598 240.016 253.198C241.137 262.474 240.591 270.733 238.379 277.976C238.32 278.153 238.659 279.699 239.396 282.614C240.016 285.647 240.089 287.546 239.618 288.312C239.116 289.107 237.376 289.195 234.397 288.577L229.707 287.384L228.379 291.448C227.288 294.304 226.256 296.012 225.282 296.571C224.633 296.954 222.657 296.335 219.353 294.716L214.619 292.198L211.699 295.644C209.605 297.881 208.189 298.927 207.452 298.779C206.419 298.573 205.21 296.615 203.824 292.905C202.378 289.077 201.316 287.031 200.638 286.766C189.99 282.408 181.731 277.505 175.861 272.058C169.401 266.051 164.977 258.646 162.587 249.842Z" fill="#0D131A"/>
<path d="M90.4244 105.457C91.5452 109.285 94.4654 115.527 99.1848 124.184C104.524 133.96 109.007 140.6 112.635 144.104L114.14 145.473C114.523 145.885 114.493 146.077 114.051 146.047C107.532 145.635 101.869 144.634 97.0611 143.044C91.2503 141.1 87.3125 138.45 85.2477 135.094C82.829 131.118 82.0769 126.231 82.9913 120.43C83.9057 114.717 86.1916 109.712 89.8492 105.413L90.0704 105.148C90.2179 105.059 90.3359 105.162 90.4244 105.457Z" fill="#0D131A"/>
<path d="M90.159 107.577C91.0734 110.227 93.964 116.043 98.8309 125.023C104.288 135.064 108.181 141.159 110.512 143.309C111.042 143.809 111.146 144.074 110.821 144.104C107.193 144.104 103.196 143.368 98.8309 141.896C93.1971 139.982 89.4216 137.42 87.5043 134.21C85.1741 130.324 84.4366 125.553 85.292 119.9C86.0295 114.894 87.6518 110.787 90.159 107.577Z" fill="#E50020"/>
<path d="M177.808 145.517C174.268 148.55 168.207 150.199 159.623 150.464C151.895 150.7 144.904 149.875 138.651 147.991C137.973 147.785 137.973 147.608 138.651 147.461L141.129 146.798C145.111 145.208 152.942 140.909 164.623 133.901C175.89 127.129 182.173 123.065 183.471 121.711C184.12 125.745 184.061 129.897 183.294 134.166C182.38 139.378 180.551 143.162 177.808 145.517Z" fill="#0D131A"/>
<path d="M174.71 144.855C170.551 147.416 164.387 148.697 156.216 148.697C150.287 148.697 145.627 148.255 142.235 147.372C144.831 146.135 151.526 142.293 162.322 135.844C173.678 129.072 180.182 124.964 181.834 123.521C182.335 125.524 182.276 128.512 181.657 132.488C180.743 138.435 178.427 142.558 174.71 144.855Z" fill="#E50020"/>
<path d="M183.029 146.577C183.176 145.517 183.501 145.311 184.002 145.959C184.474 146.606 184.548 147.696 184.223 149.227C183.279 153.703 177.321 156.898 166.348 158.811C155.199 160.725 141.512 160.828 125.289 159.121C116.617 158.208 107.754 155.896 98.6982 152.186C89.6723 148.476 83.6698 144.693 80.6906 140.835C79.8352 139.716 79.5993 139.068 79.9827 138.892C80.3957 138.715 81.2658 139.26 82.5932 140.526C86.1327 143.912 91.6928 147.122 99.2734 150.155C107.503 153.482 115.954 155.661 124.626 156.691C140.613 158.576 154.063 158.635 164.977 156.868C176.303 155.013 182.321 151.583 183.029 146.577Z" fill="#0D131A"/>
<path d="M178.604 154.174C178.87 153.055 179.327 152.363 179.976 152.098C180.595 151.863 180.846 152.216 180.728 153.158C179.902 159.931 177.985 166.276 174.976 172.195C170.935 180.145 165.64 185.401 159.092 187.962C156.939 188.787 153.458 189.214 148.65 189.243C143.518 189.302 138.105 188.875 132.413 187.962C117.93 185.636 106.957 181.293 99.4946 174.933C95.0996 171.164 91.6633 167.351 89.1856 163.493C85.2036 157.251 82.9323 150.125 82.3719 142.116C82.3129 141.527 82.5489 141.395 83.0798 141.719C83.6107 142.072 83.9352 142.602 84.0532 143.309C84.7021 148.256 86.2064 153.07 88.5661 157.752C91.5158 163.7 95.5863 168.911 100.778 173.387C107.385 179.07 117.841 183.133 132.147 185.577C137.958 186.549 143.356 187.035 148.341 187.035C153.267 187.035 156.747 186.549 158.782 185.577C165.124 182.574 170.183 176.965 173.958 168.749C175.522 165.363 177.07 160.505 178.604 154.174Z" fill="#0D131A"/>
<path d="M101.928 131.516C102.253 132.694 102.385 133.842 102.326 134.961C102.267 136.433 102.09 137.67 101.795 138.671C101.5 139.702 101.161 140.217 100.778 140.217C100.424 140.217 100.144 139.599 99.9371 138.362C99.7601 137.331 99.6716 136.183 99.6716 134.917C99.6716 133.68 99.7749 132.532 99.9813 131.472C100.247 130.294 100.557 129.705 100.91 129.705C101.294 129.705 101.633 130.309 101.928 131.516Z" fill="#0D131A"/>
<path d="M168.428 138.539C168.428 139.775 168.31 140.894 168.074 141.895C167.749 143.22 167.277 143.883 166.658 143.883C166.186 143.883 165.758 143.206 165.375 141.851C165.05 140.673 164.888 139.54 164.888 138.45C164.888 137.39 165.036 136.345 165.331 135.314C165.685 134.166 166.098 133.592 166.569 133.592C167.041 133.592 167.469 134.181 167.853 135.359C168.236 136.448 168.428 137.508 168.428 138.539Z" fill="#0D131A"/>
<path d="M95.6896 170.03C95.3062 167.704 94.9227 164.318 94.5392 159.872L93.6101 149.183C93.5511 148.476 93.9198 148.344 94.7162 148.786C95.5421 149.198 95.9256 149.713 95.8666 150.331C95.8076 151.509 96.5155 158.65 97.9903 171.753C97.9903 172.312 97.6806 172.518 97.0612 172.371C96.3828 172.194 95.9256 171.414 95.6896 170.03Z" fill="#0D131A"/>
<path d="M111.264 167.513L112.591 180.852C112.68 181.617 112.326 181.808 111.529 181.426C110.703 181.013 110.231 180.233 110.113 179.085L108.786 166.939C108.314 161.992 108.122 157.899 108.211 154.66C108.24 153.865 108.639 153.6 109.406 153.865C110.202 154.13 110.571 154.66 110.512 155.455C110.423 156.868 110.674 160.888 111.264 167.513Z" fill="#0D131A"/>
<path d="M132.236 173.078C131.439 164.775 131.1 159.901 131.218 158.459C131.277 157.781 131.675 157.546 132.413 157.752C133.15 157.987 133.534 158.473 133.563 159.209C134.36 170.899 135.421 180.027 136.749 186.593C136.926 187.506 136.586 188.021 135.731 188.139C134.905 188.257 134.345 187.963 134.05 187.256C133.637 186.255 133.032 181.529 132.236 173.078Z" fill="#0D131A"/>
<path d="M156.614 172.239C155.523 164.612 154.963 160.269 154.933 159.209C154.904 158.414 155.317 158.031 156.172 158.061C156.998 158.09 157.44 158.414 157.499 159.032C157.706 161.329 158.34 165.761 159.402 172.327L161.393 184.605C161.57 185.842 161.29 186.74 160.552 187.3C159.815 187.83 159.328 187.697 159.092 186.902C158.62 185.135 157.794 180.248 156.614 172.239Z" fill="#0D131A"/>
<path d="M223.911 154.041C230.046 154.454 235.68 156.397 240.812 159.872C246.8 163.906 250.87 169.353 253.024 176.214C253.201 176.744 252.979 177.156 252.36 177.45C251.741 177.745 251.298 177.509 251.033 176.744C249.322 171.738 246.003 167.292 241.078 163.405C235.857 159.312 229.721 156.574 222.672 155.19C221.669 154.984 221.374 154.733 221.787 154.439C222.2 154.115 222.908 153.983 223.911 154.041Z" fill="#0D131A"/>
<path d="M233.556 119.811C239.219 118.663 247.552 118.045 258.554 117.956C270.235 117.868 276.341 118.604 276.872 120.165C277.609 122.285 272.993 128.557 263.023 138.98C253.555 148.844 247.464 154.454 244.75 155.808L243.378 155.72C243.201 155.278 243.585 154.557 244.529 153.556L260.103 137.964C269.424 128.247 273.76 122.815 273.111 121.666C272.609 120.813 267.226 120.415 256.962 120.474C246.195 120.562 237.818 121.239 231.831 122.506C231.034 122.682 230.931 122.314 231.521 121.401C232.081 120.489 232.76 119.959 233.556 119.811Z" fill="#0D131A"/>
<path d="M192.807 147.681C192.866 145.62 192.541 144.074 191.833 143.044C191.243 142.16 190.388 141.704 189.267 141.675C187.173 141.675 186.893 141.395 188.427 140.835C190.462 140.099 192.01 140.35 193.072 141.586C194.193 142.882 194.473 144.958 193.913 147.814C193.677 149.021 193.426 149.654 193.161 149.713C192.895 149.772 192.777 149.095 192.807 147.681Z" fill="#0D131A"/>
<path d="M258.82 150.596L250.015 149.978C249.484 149.978 249.41 149.61 249.794 148.874C250.177 148.108 250.826 147.696 251.741 147.637C254.543 147.431 257.758 147.696 261.386 148.432C264.984 149.139 266.931 149.919 267.226 150.773C267.492 151.568 264.66 154.807 258.731 160.49C252.92 166.084 249.499 169.029 248.466 169.323C248.112 169.441 247.729 169.264 247.316 168.793C246.903 168.352 246.903 167.954 247.316 167.601C250.177 165.245 253.555 162.021 257.448 157.928C261.106 154.071 262.89 151.98 262.802 151.656C262.684 151.303 261.356 150.95 258.82 150.596Z" fill="#0D131A"/>
<path d="M238.91 254.347C237.641 253.817 236.992 253.228 236.963 252.58C236.933 251.873 237.715 251.594 239.308 251.741C242.287 251.976 245.148 251.623 247.891 250.681C250.664 249.709 252.316 248.443 252.847 246.882C253.171 245.94 251.416 243.54 247.582 239.683C243.658 235.708 239.485 232.189 235.06 229.127C234.706 228.862 234.721 228.376 235.105 227.669C235.458 226.933 235.783 226.653 236.078 226.83C240.06 229.392 244.248 232.69 248.643 236.724C254.484 242.083 257.109 245.896 256.519 248.163C255.929 250.43 253.201 252.241 248.334 253.596C243.88 254.832 240.738 255.083 238.91 254.347Z" fill="#0D131A"/>
<path d="M29.2782 173.961C30.2221 173.372 30.7383 173.24 30.8268 173.564C30.9153 173.858 30.6793 174.388 30.1189 175.154L27.7297 177.804C26.6678 178.952 26.2106 179.659 26.3581 179.924C26.5645 180.248 27.5379 180.41 29.2782 180.41L33.9682 180.056C34.1451 180.027 34.2631 180.292 34.3221 180.851C34.3811 181.381 34.2484 181.69 33.9239 181.779L27.6412 182.397C25.0455 182.427 23.6002 182.191 23.3052 181.69C22.9217 181.101 23.2609 180.056 24.3228 178.554C25.5027 176.847 27.1545 175.315 29.2782 173.961Z" fill="#0D131A"/>
<path d="M69.5852 179.261C70.2046 179.32 70.6618 179.924 70.9568 181.072C71.2517 182.191 70.9715 182.692 70.1161 182.574C62.4175 181.455 54.0553 182.279 45.0294 185.047L36.8441 187.918C34.5729 188.713 33.2308 188.993 32.8178 188.757C32.1394 188.404 31.874 187.197 32.0214 185.136C32.1099 183.398 32.3754 181.956 32.8178 180.807C33.4373 179.129 33.9977 178.231 34.4991 178.113C34.9711 177.966 35.0891 178.687 34.8531 180.277L34.4107 183.501C34.2337 184.856 34.2632 185.636 34.4991 185.842C34.6761 186.019 35.679 185.725 37.5078 184.959C40.3984 183.722 42.7729 182.795 44.6312 182.176C52.8312 179.409 61.1492 178.437 69.5852 179.261Z" fill="#0D131A"/>
<path d="M261.474 174.049C263.156 174.373 263.48 175.33 262.448 176.92C261.828 177.833 260.973 179.57 259.882 182.132C259.439 183.163 259.056 183.56 258.731 183.325C258.377 183.089 258.422 182.25 258.864 180.807C259.071 180.071 259.424 179.129 259.926 177.98L260.545 176.302L257.227 176.214C254.779 176.537 252.744 177.2 251.121 178.201C250.797 178.378 250.487 178.245 250.192 177.804C249.897 177.332 249.927 176.964 250.281 176.699C251.755 175.61 253.584 174.8 255.767 174.27L261.474 174.049Z" fill="#0D131A"/>
<path d="M268.598 183.413C268.657 184.326 266.636 185.813 262.536 187.874C261.357 188.433 260.722 188.536 260.634 188.183C260.575 187.859 261.076 187.285 262.138 186.46L264.793 184.429L266.12 183.325C266.032 182.765 265.368 182.22 264.129 181.69C262.654 181.043 261.091 180.866 259.439 181.16C258.967 181.249 258.849 181.028 259.085 180.498C259.292 179.968 259.749 179.614 260.457 179.438C262.256 179.026 264.085 179.364 265.943 180.454C267.624 181.455 268.509 182.441 268.598 183.413Z" fill="#0D131A"/>
<path d="M261.696 186.947L263.156 186.77C264.159 186.947 265.176 187.712 266.209 189.067C267.211 190.392 267.565 191.334 267.27 191.893C267.064 192.335 266.15 192.659 264.527 192.865L261.917 193.13C251.947 197.547 242.803 200.079 234.485 200.727C225.341 201.404 217.598 199.77 211.257 195.824C208.956 194.411 208.056 193.572 208.558 193.307C209.059 193.071 210.519 193.528 212.938 194.676C219.722 197.915 228.217 198.843 238.423 197.459C244.44 196.664 252.198 194.75 261.696 191.717L263.731 191.363C264.616 191.216 265.088 191.04 265.147 190.833C265.265 190.568 264.97 190.083 264.262 189.376C263.524 188.64 262.684 188.007 261.74 187.477C261.445 187.329 261.43 187.153 261.696 186.947Z" fill="#0D131A"/>
<path d="M244.175 198.165C242.877 206.38 241.638 212.799 240.458 217.422C238.659 224.43 236.432 230.025 233.777 234.206C232.833 235.708 232.258 235.943 232.052 234.913C231.845 233.941 231.978 232.881 232.45 231.733C234.456 226.727 236.108 221.81 237.405 216.981C238.762 211.798 239.957 205.762 240.989 198.872C241.078 198.224 241.653 197.782 242.715 197.547C243.806 197.311 244.293 197.517 244.175 198.165Z" fill="#0D131A"/>
<path d="M235.326 131.869C234.618 130.544 234.647 130.132 235.414 130.633C236.152 131.163 237.007 132.252 237.981 133.901C240.517 138.2 242.435 143.206 243.732 148.918C244.765 153.453 245.428 158.679 245.723 164.598C245.812 166.688 245.281 166.983 244.131 165.481C242.921 163.979 242.331 162.713 242.361 161.683C242.479 156.883 241.874 151.745 240.547 146.268C239.278 140.938 237.538 136.139 235.326 131.869Z" fill="#0D131A"/>
<path d="M100.822 132.355C100.881 131.531 100.955 131.119 101.043 131.119C101.161 131.119 101.22 132.208 101.22 134.387C101.22 136.124 101.146 136.993 100.999 136.993C100.792 136.993 100.689 136.168 100.689 134.52L100.822 132.355Z" fill="white"/>
<path d="M166.968 137.832C166.968 139.746 166.865 140.644 166.658 140.526C166.422 140.408 166.304 139.525 166.304 137.876C166.304 135.727 166.407 134.652 166.614 134.652C166.85 134.652 166.968 135.712 166.968 137.832Z" fill="white"/>
<path d="M186.391 120.43C184.09 122.903 178.235 127.011 168.826 132.753C159.859 138.23 151.379 142.956 143.385 146.931C141.557 147.844 140.126 148.462 139.094 148.786C137.589 149.257 136.218 149.375 134.979 149.139C133.593 148.904 132.737 148.359 132.413 147.505C132.295 147.21 132.28 146.96 132.368 146.754L132.722 146.71C133.46 147.417 134.669 147.667 136.35 147.461C137.973 147.225 139.831 146.577 141.925 145.517C147.648 142.602 154.535 138.745 162.588 133.945C171.879 128.41 179.135 123.698 184.356 119.812C186.185 118.457 187.306 117.883 187.719 118.089C188.102 118.325 187.66 119.105 186.391 120.43Z" fill="#0D131A"/>
<path d="M89.982 102.188C91.5453 108.784 95.0111 116.587 100.379 125.597C105.305 133.842 110.113 140.364 114.803 145.164C115.924 146.283 116.263 147.004 115.821 147.328C115.349 147.652 114.258 146.975 112.547 145.296C107.267 140.084 102.179 133.106 97.2824 124.361C92.3565 115.674 89.5101 108.593 88.7431 103.116C88.5072 101.555 88.5662 100.628 88.9201 100.333C89.2446 100.039 89.5985 100.657 89.982 102.188Z" fill="#0D131A"/>
</g>
<defs>
<radialGradient id="paint0_radial_864_583" cx="0" cy="0" r="1" gradientUnits="userSpaceOnUse" gradientTransform="translate(150 150) rotate(90) scale(200)">
<stop stop-color="white"/>
<stop offset="1" stop-color="#664497"/>
</radialGradient>
<clipPath id="clip0_864_583">
<rect width="300" height="300" fill="white"/>
</clipPath>
</defs>
</svg>
