<svg xmlns="http://www.w3.org/2000/svg" fill="none" viewBox="0 0 300 300"><g clip-path="url(#a)"><path fill="#fff" d="M0 0h300v300H0z"/><path fill="url(#b)" d="M-50-50h400v400H-50z"/><path fill="#664497" d="M237.228 52.279c14.867-2.326 27.093-2.96 36.679-1.9l-15.928 26.457c-8.554 14.075-15.028 25.22-19.423 33.435 2.89-1.119 6.607-2.179 11.149-3.18 4.248-.942 7.773-1.516 10.575-1.722.413-.059.619.058.619.353l-.221.883c-.324 1.119-1.106 3.004-2.345 5.654l-3.23 7.199 9.159-.53c5.87-.147 9.321.56 10.353 2.12 1.032 1.59-2.492 6.537-10.574 14.84l-12.743 12.456c2.478-.118 5.265.132 8.362.751 3.186.647 4.853 1.354 5 2.12.148.706-3.023 4.431-9.513 11.174-5.397 5.624-10.102 10.306-14.114 14.046 1.298 8.627 1.711 16.621 1.239 23.983-.56 8.568-2.345 16.533-5.353 23.894-4.425 10.954-16.297 19.699-35.617 26.236-9.97 3.386-20.795 5.845-32.476 7.376-11.209 1.531-23.228.029-36.059-4.505-14.159-5.065-26.267-12.941-36.325-23.63-9.292-9.864-16.386-20.862-21.282-32.993-5.663-14.104-8.23-29.416-7.699-45.935.148-5.035.59-10.276 1.328-15.723.855-6.537 1.947-11.94 3.274-16.21-4.985-14.104-7.699-34.937-8.141-62.497-.207-12.043.162-22.806 1.106-32.287 1.032-9.982 2.551-16.975 4.557-20.98.325-.647.605-.957.84-.927.266.059.694.5 1.284 1.325 8.347 11.896 14.674 20.538 18.98 25.926 8.2 10.247 15 16.975 20.398 20.185 1.769-2.886 4.808-6.257 9.114-10.114 4.218-3.77 7.492-6.096 9.822-6.979.089 2.385.502 5.285 1.239 8.701.738 3.475 1.578 6.33 2.522 8.569 6.047-8.893 13.318-16.843 21.813-23.851 9.616-7.92 18.996-13.03 28.139-15.326-.943 4.593-1.415 11.91-1.415 21.951 0 5.006.088 9.555.265 13.648l7.654-2.12c5.959-1.413 11.15-2.12 15.575-2.12l-2.213 8.922-2.522 10.777c9.262-3.975 21.312-7.126 36.148-9.452Z"/><path fill="#664497" d="M23.792 172.15c.088-.5 1.194-1.443 3.318-2.827l3.761-2.517 1.018-.839c.295-.265.53-.692.707-1.281.237-.854 1.136-2.518 2.7-4.991a57.924 57.924 0 0 1 7.477-9.408c8.701-8.804 18.538-13.074 29.511-12.809 2.743.089 5.236 2.444 7.477 7.067 2.065 4.24 3.555 9.54 4.47 15.901.678 4.623.324 9.363-1.063 14.222-1.475 5.094-3.377 7.346-5.707 6.757-7.463-1.825-16.297-1.693-26.503.398-7.374 1.531-13.008 3.312-16.901 5.344-.502.265-.826-.515-.974-2.341-.118-1.737-.059-2.885.177-3.445l-3.85-.353-4.468-.221c-.177-.265.221-1.119 1.195-2.562l1.548-2.12c-2.713-1.796-4.011-3.121-3.893-3.975ZM132.767 234.692c3.185 6.86 3.672 11.925 1.46 15.193-6.106 9.011-16.076 16.225-29.91 21.643-4.837 1.914-9.527 3.342-14.07 4.284-3.952.824-6.312 1.06-7.079.707-.442-.177-.545-.737-.31-1.679l.974-2.959-5.752.353-3.407-.441c-.147-.236.104-1.399.753-3.49l.973-3.356-1.372-.619c-.885-.353-1.356-.618-1.415-.795-.207-.618.929-2.532 3.406-5.742l.841-.795c-1.062-1.413-2.168-3.96-3.318-7.641-1.623-5.094-2.213-9.834-1.77-14.222.442-4.446 2.67-8.98 6.68-13.603 4.248-4.859 8.938-7.847 14.07-8.966 3.835-.854 7.876-.84 12.124.044 5.28 1.119 10.486 3.533 15.618 7.243 4.631 3.387 8.466 8.333 11.504 14.841ZM174.136 236.945c7.197-5.713 13.951-9.511 20.264-11.396 7.344-2.208 14.586-2.944 21.724-2.208 7.02.707 11.784 2.606 14.291 5.698 5.191 6.36 8.156 15.547 8.893 27.56.531 8.952.015 16.063-1.549 21.333.502 1.738.753 3.74.753 6.007 0 2.326-.31 3.607-.93 3.843l-4.203-.089c-2.183-.265-3.598-.603-4.247-1.015l-2.301 4.196c-1.091 1.913-1.858 3.003-2.301 3.268-.413.265-2.109-.103-5.088-1.104l-4.823-1.767c-1.032 1.207-2.345 2.459-3.937 3.754-1.652 1.296-2.67 1.914-3.053 1.855-.62-.147-2.227-3.607-4.823-10.379-10.353-4.358-19.099-9.938-26.237-16.74-6.932-6.625-11.091-13.147-12.477-19.566-.649-3.003 2.699-7.42 10.044-13.25Z"/><path fill="#664497" d="M246.166 252.359c-4.985 1.148-8.893 1.178-11.725.088-2.891-1.148-5.265-2.885-7.123-5.212-2.272-2.856-3.363-6.213-3.274-10.07.088-3.092 1.681-5.624 4.778-7.597 2.861-1.796 5.014-2.267 6.46-1.413 1.15.707 4.586 3.651 10.309 8.833 6.135 5.595 9.158 8.79 9.07 9.585-.295 2.65-3.127 4.579-8.495 5.786ZM218.822 154.66c8.584-.707 16.4 2.002 23.45 8.127 4.041 3.474 7.286 7.464 9.734 11.969.56 1.001 1.121 1.355 1.681 1.06.767-.382 2.109-.662 4.027-.839 2.3-.235 3.731.015 4.291.751l-.708 2.12c-.531 1.266-.722 1.899-.575 1.899.679 0 1.888.339 3.628 1.016 2.183.854 3.274 1.782 3.274 2.783l-2.433 1.678c-1.622.942-2.434 1.487-2.434 1.634l1.991 1.855c1.269 1.119 1.844 1.841 1.726 2.165-.089.235-.826.574-2.212 1.015l-2.345.707c-3.304 1.826-7.773 3.386-13.406 4.682-5.015 1.148-9.837 1.855-14.468 2.12-3.776.235-8.112-.162-13.008-1.193-5.369-1.148-9.262-2.664-11.681-4.549-1.386-1.119-2.891-3.739-4.513-7.862-2.153-5.447-2.876-10.718-2.168-15.812.472-3.474 2.817-6.949 7.035-10.423 3.717-3.033 6.755-4.667 9.114-4.903Z"/><path fill="#fff" d="M176.082 154.483c1.416-.53 2.33-.368 2.743.486.295.648.31 1.619.044 2.915-.884 3.887-2.3 7.832-4.247 11.837-2.006 4.122-4.203 7.538-6.592 10.247-1.121 1.237-2.788 2.591-5 4.063-2.714 1.797-5.088 2.915-7.124 3.357-7.905 1.649-17.919 1.016-30.042-1.899-12.064-2.915-20.588-6.699-25.573-11.351a73.858 73.858 0 0 1-9.778-11.263c-2.773-3.946-4.572-7.302-5.398-10.07-.442-1.472-.93-3.563-1.46-6.272-.59-3.003-.708-4.314-.354-3.931 3.333 3.475 9.424 6.831 18.273 10.07 8.642 3.151 16.621 4.991 23.936 5.521a220.94 220.94 0 0 0 23.273.53c12.005-.383 21.105-1.796 27.299-4.24Z"/><path fill="#593984" d="M273.465 121.49c.826-.442 1.357-.515 1.593-.221.206.265.132.721-.222 1.369-1.268 2.179-5.914 7.538-13.937 16.077-8.583 9.158-14.247 14.414-16.99 15.768l-.973-4.77-1.018-4.24c1.505-.736 6.548-4.432 15.132-11.086l16.415-12.897ZM244.396 164.288l8.141-5.432 10.353-7.421c.797-.677 1.136-.574 1.018.31-.767 1.442-3.422 4.564-7.964 9.363l-7.743 7.906-1.637-2.076c-.944-1.001-1.667-1.884-2.168-2.65ZM178.162 27.457c1.799-7.126 3.274-11.896 4.424-14.31l.443-.487c.206-.176.295-.073.265.31-.501 3.945-.929 8.848-1.283 14.707-.442 7.715-.457 13.354-.044 16.917.029.353-.104.824-.398 1.413l-.841.972-2.743 1.81c-.856.442-1.416.221-1.682-.662-1.209-4.063-.59-10.954 1.859-20.67ZM205.461 44.815c-.059 1.442-.664 4.357-1.814 8.745-1.151 4.358-1.726 6.787-1.726 7.287-.826.06-2.021.575-3.584 1.546-1.652 1.03-2.802 1.605-3.451 1.723-.678-.854.428-4.52 3.318-10.998 2.921-6.537 5.03-9.732 6.327-9.584l.531.397c.266.265.399.56.399.884ZM131.13 42.164c.678 3.033 1.401 5.713 2.168 8.039l-2.434 4.814c-.944-1.09-1.77-2.385-2.478-3.887-.884-1.796-1.401-3.503-1.548-5.123-.177-2.061.236-4.726 1.239-7.994.914-3.004 1.548-4.476 1.902-4.417-.029 2.032.354 4.888 1.151 8.569ZM64.276 25.425c.206-1.678.56-3.047 1.062-4.107.501-1.09.767-.899.796.574.266 11.807 1.49 24.616 3.672 38.426 2.714 17.078 6.239 30.446 10.575 40.104l-3.54 7.023c-2.153 4.122-3.864 7.641-5.132 10.556-4.543-13.898-7.33-31.124-8.362-51.677-.856-16.43-.546-30.063.929-40.899ZM68.479 174.579l1.549 6.14c-5.664-.442-10.133-.368-13.407.22-1.77.324-6.164 1.605-13.184 3.843l-.797-.53c-.413-.412-.457-.692-.133-.839 13.421-5.86 21.71-10.497 24.866-13.913.03.736.398 2.429 1.106 5.079ZM246.608 197.856c-4.66 1.148-8.716 1.811-12.167 1.987-4.247.265-8.967-.206-14.158-1.413-4.956-1.178-8.274-2.503-9.955-3.975 4.896.383 10.589.471 17.078.265 6.666-.206 11.459-.663 14.38-1.369l3.539-.486 2.08.044c1.062 1.06 3.849 1.222 8.362.486l6.415-1.414c-4.129 2.415-9.32 4.373-15.574 5.875ZM119.183 238.225c15.014 7.774 29.556 11.455 43.626 11.042.944-.029 2.05 1.384 3.318 4.241 1.298 2.856 1.209 4.357-.265 4.505-7.079.765-14.734.176-22.963-1.767-8.466-2.032-16.695-5.315-24.689-9.849-18.406-10.454-31.709-24.911-39.909-43.373-.944-2.091-1.49-3.475-1.637-4.152-.118-.559.074-.442.576.353 10.412 16.872 24.393 29.872 41.943 39Z"/><path fill="#593984" d="M115.998 245.513c.855.589 3.008 1.619 6.459 3.092l7.965 3.489c1.74.824.324 3.298-4.248 7.42-4.395 3.975-8.79 6.979-13.185 9.01-2.478 1.149-6.032 2.312-10.663 3.49-4.542 1.148-6.46 1.516-5.752 1.104 4.513-2.591 8.805-6.876 12.876-12.853 3.805-5.565 5.928-10.247 6.371-14.045v-.751l.177.044ZM237.759 253.728c-1.799-10.541-2.079-15.179-.84-13.913 2.035 2.12 5.014 4.137 8.937 6.051 3.156 1.561 5.708 2.547 7.654 2.959 1.062.236-.59 1.267-4.955 3.092-4.336 1.826-7.935 2.429-10.796 1.811ZM244.883 84.433c6.784-8.627 13.022-16.195 18.715-22.702 5.811-6.625 8.982-9.747 9.513-9.364-3.215 4.388-9.97 15.297-20.264 32.729-10.767 18.167-18.141 31.27-22.123 39.309l5.177 6.934c2.183 3.269 3.731 6.302 4.646 9.099 1.327 3.975 2.477 9.054 3.451 15.238.885 5.859 1.091 8.73.619 8.612-.855-.795-2.964-2.178-6.327-4.151-4.395-2.533-8.377-4.373-11.946-5.521 0-5.86-.723-11.69-2.168-17.491-1.298-5.212-2.935-9.54-4.911-12.985-.59-3.887 7.949-17.122 25.618-39.707ZM227.406 199.755l9.159-.486 6.592-1.192c-.944 7.302-4.262 18.697-9.955 34.186-2.124-3.004-3.952-5.139-5.486-6.405.265-3.15-.148-6.964-1.239-11.439-.974-4.034-1.755-6.169-2.345-6.405-3.894-1.295-7.359-3.504-10.398-6.625-2.595-2.65-4.232-5.212-4.911-7.685 2.478 1.237 5.649 2.488 9.513 3.754 3.716 1.178 6.74 1.944 9.07 2.297Z"/><path fill="#0D131A" d="M111.131 48.745c.678.501.782 1.031.31 1.59-.502.59-.959.722-1.372.398-5.811-4.358-12.713-11.19-20.707-20.494-7.58-8.833-13.258-16.445-17.034-22.835-.737-1.266-1.239-1.928-1.504-1.987-.501-.118-1.032.795-1.593 2.738-3.156 10.453-4.41 27.34-3.76 50.66.648 23.321 2.92 42.343 6.813 57.066.472 1.884.62 3.356.442 4.416-.206 1.09-.678.692-1.415-1.192-4.66-12.043-7.552-30.55-8.672-55.52-1.15-25.351.191-44.182 4.026-56.49 1.15-3.71 2.404-5.653 3.76-5.83 1.328-.176 2.877 1.296 4.646 4.417 4.248 7.332 10.206 15.547 17.875 24.646 7.463 8.863 13.524 15.002 18.185 18.418Z"/><path fill="#0D131A" d="M132.855 42.385c.59 3.063 1.195 5.433 1.814 7.111.148.354-.044.84-.575 1.458-.531.618-.9.677-1.106.176-.944-2.237-1.77-5.108-2.478-8.612-.59-2.886-.944-5.286-1.062-7.2l-.132-.53-.531.089c-2.92 1.737-6.814 5.035-11.681 9.893-6.843 6.802-11.489 13.236-13.937 19.302-.383.971-.782 1.354-1.195 1.148-.413-.236-.368-1.192.133-2.87 1.239-4.094 4.734-9.438 10.486-16.034 5.398-6.213 10.117-10.6 14.158-13.162 2.213-1.413 3.555-2.06 4.027-1.943.413.088.693 1.001.84 2.738.236 2.65.649 5.462 1.239 8.436Z"/><path fill="#0D131A" d="M183.869 30.725c-.442 6.184-.619 11.042-.531 14.576.03 1.09-.295 1.766-.973 2.031-.679.265-1.062-.03-1.151-.883-.442-4.476-.516-9.51-.221-15.105.207-3.71.649-8.643 1.328-14.797.265-2.179.206-3.474-.177-3.886l-2.39.176c-7.816 2.621-16.341 7.921-25.573 15.9-9.675 8.334-17.137 17.123-22.388 26.369-.649 1.148-1.106 1.575-1.371 1.28-.266-.323-.133-1.25.398-2.782 2.123-5.83 7.787-13.294 16.99-22.393 10.5-10.423 20.75-17.564 30.75-21.421 4.1-1.59 6.474-2.09 7.123-1.502.443.353.428 2.164-.044 5.433-.708 5.035-1.298 10.703-1.77 17.004Z"/><path fill="#0D131A" d="M200.859 40.972c3.894-.294 6.047-.265 6.46.089.295.265.044 1.663-.752 4.196-1.623 5.152-2.832 10.202-3.628 15.15-.118.794-.472 1.31-1.062 1.545-.59.206-.87-.03-.841-.707.089-2.503.398-5.241.929-8.215l1.372-6.537c.295-1.53.265-2.429-.089-2.694l-3.008-.088c-3.628.441-7.374 1.178-11.238 2.208-3.628.942-7.006 2.047-10.132 3.313-2.124.854-3.23 1.03-3.319.53-.118-.471.767-1.222 2.655-2.253 2.861-1.56 6.504-2.974 10.928-4.24 4.425-1.296 8.333-2.061 11.725-2.297ZM252.227 105.059l9.203-.265c.62.383.251 2.489-1.106 6.316-1.298 3.622-2.551 6.331-3.761 8.127-.413.619-1.121.839-2.124.663-1.032-.177-1.401-.515-1.106-1.016 1.741-2.738 3.156-5.403 4.248-7.994 1.032-2.503 1.342-3.843.929-4.02-.619-.265-2.832 0-6.637.795-4.719.972-9.512 2.474-14.379 4.505-.885.383-1.21.177-.974-.618.236-.795.929-1.516 2.08-2.164 3.451-1.914 7.993-3.357 13.627-4.329Z"/><path fill="#0D131A" d="M237.317 53.56c-13.834 2.267-27.166 5.741-39.997 10.423-3.038 1.09-4.69 1.473-4.956 1.149-.265-.324.856-1.149 3.363-2.474 7.02-3.68 17.624-6.993 31.812-9.938 14.778-3.091 27.756-4.52 38.935-4.284 5.398.118 8.333.663 8.805 1.634.383.884-.841 3.593-3.672 8.127l-20.441 32.905a1227.255 1227.255 0 0 0-17.123 29.283c-2.596 4.564-4.056 6.493-4.38 5.786-.354-.706.531-3.106 2.654-7.199 4.897-9.481 11.445-21.097 19.645-34.848 6.312-10.512 12.285-20.14 17.919-28.886 1.032-1.59 1.416-2.65 1.15-3.18-.236-.471-1.238-.75-3.008-.84-8.643-.353-18.878.428-30.706 2.342ZM71.797 115.395c3.038-8.805 6.74-16.019 11.106-21.643 2.124-2.767 3.731-4.593 4.822-5.477 1.24-1.03.753.31-1.46 4.02-5.81 9.717-10.014 18.55-12.61 26.5-3.067 9.246-4.763 19.493-5.088 30.741-.53 17.962 2.405 34.377 8.805 49.247 5.723 13.251 13.893 24.675 24.512 34.274 9.557 8.657 20.264 15.106 32.121 19.346 11.15 4.034 21.695 5.565 31.635 4.593l1.461 1.105c.825.736 1.135 1.119.929 1.148-11.386 1.089-23.067-.427-35.042-4.549-12.536-4.329-23.76-10.998-33.67-20.008-10.855-9.806-19.158-21.569-24.91-35.29-6.371-15.194-9.262-32.007-8.672-50.44.383-11.807 2.404-22.997 6.061-33.567Z"/><path fill="#0D131A" d="M25.208 172.459c0 .177.413.589 1.239 1.237.767.618 1.386 1.045 1.858 1.281.442.206.62.574.53 1.104-.088.53-.604.604-1.548.221-3.51-1.354-5.235-2.591-5.176-3.71.059-.736 1.474-1.973 4.247-3.71 2.861-1.767 4.321-2.753 4.38-2.959 2.537-6.92 7.035-13.221 13.495-18.904 7.197-6.331 15.309-10.336 24.334-12.014.915-.177 1.166.368.753 1.634-.443 1.266-1.077 1.988-1.903 2.165-8.023 1.884-15.043 5.27-21.06 10.158-6.077 4.917-10.678 10.998-13.805 18.241-.177.413-1.46 1.355-3.849 2.827-2.33 1.443-3.495 2.253-3.495 2.429ZM132.988 253.817c-5.958 7.302-14.97 13.515-27.034 18.638-5.103 2.179-9.807 3.681-14.114 4.505-4.395.854-7.61.854-9.645 0-.855-.353-.959-1.516-.31-3.489a17.856 17.856 0 0 1 1.637-3.666c1.033-1.766 1.755-2.547 2.168-2.341.413.177.369 1.06-.132 2.65-.354 1.031-.576 1.959-.664 2.783-.089.972.03 1.59.354 1.855.62.501 2.787.309 6.504-.574 3.893-.972 8.14-2.4 12.742-4.284 12.241-5.006 20.677-10.645 25.308-16.917.354-.471 1.062-.559 2.124-.265 1.091.265 1.445.633 1.062 1.105Z"/><path fill="#0D131A" d="M78.257 264.903c-.501.942-.988 2.149-1.46 3.621-.501 1.561-.663 2.474-.486 2.739.294.412 2.802.132 7.521-.839.944-.059 1.298.176 1.062.706-.177.471-.575.839-1.195 1.104-1.622.737-3.51 1.311-5.663 1.723-2.625.501-4.174.368-4.646-.397-.383-.619-.177-2.15.62-4.594.796-2.326 1.563-3.901 2.3-4.726.856-.972 1.549-1.384 2.08-1.237.53.148.487.781-.133 1.9Z"/><path fill="#0D131A" d="M73.036 260.486c1.357-2.179 2.684-3.71 3.982-4.594.384-.294.87-.103 1.46.575.56.647.664 1.089.31 1.325-1.18.795-2.212 1.884-3.097 3.268-.767 1.148-1.106 1.885-1.018 2.208.089.207.546.383 1.372.53l1.77.31c.324.058.324.441 0 1.148-.354.707-.738 1.045-1.15 1.016l-2.567-.309c-1.357-.295-2.197-.707-2.522-1.237-.383-.618.103-2.032 1.46-4.24Z"/><path fill="#0D131A" d="M84.363 216.23c1.357-.707 2.124-.663 2.3.132.178.795-.103 1.399-.84 1.811-6.814 3.946-10.648 10.277-11.504 18.992-.914 8.981 1.83 17.02 8.23 24.116 1.21 1.325 1.637 2.238 1.283 2.738-.325.501-1.18.045-2.566-1.369-8.289-8.48-11.563-17.711-9.823-27.693.738-4.152 2.316-7.936 4.735-11.351 2.3-3.269 5.029-5.727 8.185-7.376ZM162.587 249.842c-.973-3.563-1.135-5.389-.486-5.477.649-.089 1.637 1.693 2.964 5.344 3.156 8.657 8.436 16.121 15.84 22.393 5.575 4.682 13.096 9.202 22.565 13.56.501.235 1.342 1.855 2.522 4.858 1.179 2.945 1.932 4.461 2.256 4.549.59.177 1.74-.78 3.451-2.871l2.345-3.135c6.076 2.944 9.424 4.313 10.044 4.107.59-.177 1.961-3.121 4.114-8.833 5.251 1.649 8.112 2.267 8.584 1.855.383-.354.516-1.105.398-2.253-.177-1.325-.664-2.915-1.46-4.77-.059-.177-.015-.545.133-1.104 2.005-6.92 2.33-15.047.973-24.381-1.445-9.835-4.41-18.329-8.893-25.485-1.504-2.414-1.888-3.695-1.15-3.842.737-.118 1.828.751 3.274 2.606 5.309 6.89 8.627 15.635 9.955 26.235 1.121 9.276.575 17.535-1.637 24.778-.059.177.28 1.723 1.017 4.638.62 3.033.693 4.932.222 5.698-.502.795-2.242.883-5.221.265l-4.69-1.193-1.328 4.064c-1.091 2.856-2.123 4.564-3.097 5.123-.649.383-2.625-.236-5.929-1.855l-4.734-2.518-2.92 3.446c-2.094 2.237-3.51 3.283-4.247 3.135-1.033-.206-2.242-2.164-3.628-5.874-1.446-3.828-2.508-5.874-3.186-6.139-10.648-4.358-18.907-9.261-24.777-14.708-6.46-6.007-10.884-13.412-13.274-22.216ZM90.424 105.457c1.121 3.828 4.041 10.07 8.76 18.727 5.34 9.776 9.823 16.416 13.451 19.92l1.505 1.369c.383.412.353.604-.089.574-6.519-.412-12.182-1.413-16.99-3.003-5.81-1.944-9.749-4.594-11.813-7.95-2.419-3.976-3.171-8.863-2.257-14.664.915-5.713 3.2-10.718 6.858-15.017l.221-.265c.148-.089.266.014.354.309Z"/><path fill="#E50020" d="M90.159 107.577c.914 2.65 3.805 8.466 8.672 17.446 5.457 10.041 9.35 16.136 11.681 18.286.53.5.634.765.309.795-3.628 0-7.625-.736-11.99-2.208-5.634-1.914-9.41-4.476-11.327-7.686-2.33-3.886-3.067-8.657-2.212-14.31.737-5.006 2.36-9.113 4.867-12.323Z"/><path fill="#0D131A" d="M177.808 145.517c-3.54 3.033-9.601 4.682-18.185 4.947-7.728.236-14.719-.589-20.972-2.473-.678-.206-.678-.383 0-.53l2.478-.663c3.982-1.59 11.813-5.889 23.494-12.897 11.267-6.772 17.55-10.836 18.848-12.19.649 4.034.59 8.186-.177 12.455-.914 5.212-2.743 8.996-5.486 11.351Z"/><path fill="#E50020" d="M174.71 144.855c-4.159 2.561-10.323 3.842-18.494 3.842-5.929 0-10.589-.442-13.981-1.325 2.596-1.237 9.291-5.079 20.087-11.528 11.356-6.772 17.86-10.88 19.512-12.323.501 2.003.442 4.991-.177 8.967-.914 5.947-3.23 10.07-6.947 12.367Z"/><path fill="#0D131A" d="M183.029 146.577c.147-1.06.472-1.266.973-.618.472.647.546 1.737.221 3.268-.944 4.476-6.902 7.671-17.875 9.584-11.149 1.914-24.836 2.017-41.059.31-8.672-.913-17.535-3.225-26.59-6.935-9.027-3.71-15.03-7.493-18.008-11.351-.856-1.119-1.092-1.767-.708-1.943.413-.177 1.283.368 2.61 1.634 3.54 3.386 9.1 6.596 16.68 9.629 8.23 3.327 16.681 5.506 25.353 6.536 15.987 1.885 29.437 1.944 40.351.177 11.326-1.855 17.344-5.285 18.052-10.291Z"/><path fill="#0D131A" d="M178.604 154.174c.266-1.119.723-1.811 1.372-2.076.619-.235.87.118.752 1.06-.826 6.773-2.743 13.118-5.752 19.037-4.041 7.95-9.336 13.206-15.884 15.767-2.153.825-5.634 1.252-10.442 1.281-5.132.059-10.545-.368-16.237-1.281-14.483-2.326-25.456-6.669-32.918-13.029-4.395-3.769-7.832-7.582-10.31-11.44-3.981-6.242-6.253-13.368-6.813-21.377-.06-.589.177-.721.708-.397.53.353.855.883.973 1.59.65 4.947 2.153 9.761 4.513 14.443 2.95 5.948 7.02 11.159 12.212 15.635 6.607 5.683 17.063 9.746 31.369 12.19 5.811.972 11.209 1.458 16.194 1.458 4.926 0 8.406-.486 10.441-1.458 6.342-3.003 11.401-8.612 15.176-16.828 1.564-3.386 3.112-8.244 4.646-14.575ZM101.928 131.516c.325 1.178.457 2.326.398 3.445-.059 1.472-.236 2.709-.531 3.71-.295 1.031-.634 1.546-1.017 1.546-.354 0-.634-.618-.84-1.855-.178-1.031-.266-2.179-.266-3.445 0-1.237.103-2.385.31-3.445.265-1.178.575-1.767.928-1.767.384 0 .723.604 1.018 1.811ZM168.428 138.539c0 1.236-.118 2.355-.354 3.356-.325 1.325-.797 1.988-1.416 1.988-.472 0-.9-.677-1.283-2.032-.325-1.178-.487-2.311-.487-3.401 0-1.06.148-2.105.443-3.136.354-1.148.767-1.722 1.238-1.722.472 0 .9.589 1.284 1.767.383 1.089.575 2.149.575 3.18Z"/><path fill="#0D131A" d="M95.69 170.03c-.384-2.326-.767-5.712-1.15-10.158l-.93-10.689c-.059-.707.31-.839 1.106-.397.826.412 1.21.927 1.15 1.545-.058 1.178.65 8.319 2.124 21.422 0 .559-.31.765-.929.618-.678-.177-1.135-.957-1.371-2.341ZM111.264 167.513l1.327 13.339c.089.765-.265.956-1.062.574-.826-.413-1.298-1.193-1.416-2.341l-1.327-12.146c-.472-4.947-.664-9.04-.575-12.279.029-.795.428-1.06 1.195-.795.796.265 1.165.795 1.106 1.59-.089 1.413.162 5.433.752 12.058ZM132.236 173.078c-.797-8.303-1.136-13.177-1.018-14.619.059-.678.457-.913 1.195-.707.737.235 1.121.721 1.15 1.457.797 11.69 1.858 20.818 3.186 27.384.177.913-.163 1.428-1.018 1.546-.826.118-1.386-.176-1.681-.883-.413-1.001-1.018-5.727-1.814-14.178ZM156.614 172.239c-1.091-7.627-1.651-11.97-1.681-13.03-.029-.795.384-1.178 1.239-1.148.826.029 1.268.353 1.327.971.207 2.297.841 6.729 1.903 13.295l1.991 12.278c.177 1.237-.103 2.135-.841 2.695-.737.53-1.224.397-1.46-.398-.472-1.767-1.298-6.654-2.478-14.663ZM223.911 154.041c6.135.413 11.769 2.356 16.901 5.831 5.988 4.034 10.058 9.481 12.212 16.342.177.53-.045.942-.664 1.236-.619.295-1.062.059-1.327-.706-1.711-5.006-5.03-9.452-9.955-13.339-5.221-4.093-11.357-6.831-18.406-8.215-1.003-.206-1.298-.457-.885-.751.413-.324 1.121-.456 2.124-.398ZM233.556 119.811c5.663-1.148 13.996-1.766 24.998-1.855 11.681-.088 17.787.648 18.318 2.209.737 2.12-3.879 8.392-13.849 18.815-9.468 9.864-15.559 15.474-18.273 16.828l-1.372-.088c-.177-.442.207-1.163 1.151-2.164l15.574-15.592c9.321-9.717 13.657-15.149 13.008-16.298-.502-.853-5.885-1.251-16.149-1.192-10.767.088-19.144.765-25.131 2.032-.797.176-.9-.192-.31-1.105.56-.912 1.239-1.442 2.035-1.59ZM192.807 147.681c.059-2.061-.266-3.607-.974-4.637-.59-.884-1.445-1.34-2.566-1.369-2.094 0-2.374-.28-.84-.84 2.035-.736 3.583-.485 4.645.751 1.121 1.296 1.401 3.372.841 6.228-.236 1.207-.487 1.84-.752 1.899-.266.059-.384-.618-.354-2.032Z"/><path fill="#0D131A" d="m258.82 150.596-8.805-.618c-.531 0-.605-.368-.221-1.104.383-.766 1.032-1.178 1.947-1.237 2.802-.206 6.017.059 9.645.795 3.598.707 5.545 1.487 5.84 2.341.266.795-2.566 4.034-8.495 9.717-5.811 5.594-9.232 8.539-10.265 8.833-.354.118-.737-.059-1.15-.53-.413-.441-.413-.839 0-1.192 2.861-2.356 6.239-5.58 10.132-9.673 3.658-3.857 5.442-5.948 5.354-6.272-.118-.353-1.446-.706-3.982-1.06ZM238.91 254.347c-1.269-.53-1.918-1.119-1.947-1.767-.03-.707.752-.986 2.345-.839 2.979.235 5.84-.118 8.583-1.06 2.773-.972 4.425-2.238 4.956-3.799.324-.942-1.431-3.342-5.265-7.199-3.924-3.975-8.097-7.494-12.522-10.556-.354-.265-.339-.751.045-1.458.353-.736.678-1.016.973-.839 3.982 2.562 8.17 5.86 12.565 9.894 5.841 5.359 8.466 9.172 7.876 11.439-.59 2.267-3.318 4.078-8.185 5.433-4.454 1.236-7.596 1.487-9.424.751ZM29.278 173.961c.944-.589 1.46-.721 1.549-.397.088.294-.148.824-.708 1.59l-2.39 2.65c-1.061 1.148-1.518 1.855-1.37 2.12.205.324 1.179.486 2.92.486l4.69-.354c.176-.029.294.236.353.795.06.53-.074.839-.398.928l-6.283.618c-2.595.03-4.04-.206-4.336-.707-.383-.589-.044-1.634 1.018-3.136 1.18-1.707 2.831-3.239 4.955-4.593Z"/><path fill="#0D131A" d="M69.585 179.261c.62.059 1.077.663 1.372 1.811.295 1.119.015 1.62-.84 1.502-7.7-1.119-16.062-.295-25.088 2.473l-8.185 2.871c-2.271.795-3.613 1.075-4.026.839-.679-.353-.944-1.56-.797-3.621.089-1.738.354-3.18.797-4.329.62-1.678 1.18-2.576 1.681-2.694.472-.147.59.574.354 2.164l-.442 3.224c-.177 1.355-.148 2.135.088 2.341.177.177 1.18-.117 3.009-.883 2.89-1.237 5.265-2.164 7.123-2.783 8.2-2.767 16.518-3.739 24.954-2.915ZM261.474 174.049c1.682.324 2.006 1.281.974 2.871-.62.913-1.475 2.65-2.566 5.212-.443 1.031-.826 1.428-1.151 1.193-.354-.236-.309-1.075.133-2.518.207-.736.56-1.678 1.062-2.827l.619-1.678-3.318-.088c-2.448.323-4.483.986-6.106 1.987-.324.177-.634.044-.929-.397-.295-.472-.265-.84.089-1.105 1.474-1.089 3.303-1.899 5.486-2.429l5.707-.221Z"/><path fill="#0D131A" d="M268.598 183.413c.059.913-1.962 2.4-6.062 4.461-1.179.559-1.814.662-1.902.309-.059-.324.442-.898 1.504-1.723l2.655-2.031 1.327-1.104c-.088-.56-.752-1.105-1.991-1.635-1.475-.647-3.038-.824-4.69-.53-.472.089-.59-.132-.354-.662.207-.53.664-.884 1.372-1.06 1.799-.412 3.628-.074 5.486 1.016 1.681 1.001 2.566 1.987 2.655 2.959Z"/><path fill="#0D131A" d="m261.696 186.947 1.46-.177c1.003.177 2.02.942 3.053 2.297 1.002 1.325 1.356 2.267 1.061 2.826-.206.442-1.12.766-2.743.972l-2.61.265c-9.97 4.417-19.114 6.949-27.432 7.597-9.144.677-16.887-.957-23.228-4.903-2.301-1.413-3.201-2.252-2.699-2.517.501-.236 1.961.221 4.38 1.369 6.784 3.239 15.279 4.167 25.485 2.783 6.017-.795 13.775-2.709 23.273-5.742l2.035-.354c.885-.147 1.357-.323 1.416-.53.118-.265-.177-.75-.885-1.457a11.57 11.57 0 0 0-2.522-1.899c-.295-.148-.31-.324-.044-.53Z"/><path fill="#0D131A" d="M244.175 198.165c-1.298 8.215-2.537 14.634-3.717 19.257-1.799 7.008-4.026 12.603-6.681 16.784-.944 1.502-1.519 1.737-1.725.707-.207-.972-.074-2.032.398-3.18 2.006-5.006 3.658-9.923 4.955-14.752 1.357-5.183 2.552-11.219 3.584-18.109.089-.648.664-1.09 1.726-1.325 1.091-.236 1.578-.03 1.46.618ZM235.326 131.869c-.708-1.325-.679-1.737.088-1.236.738.53 1.593 1.619 2.567 3.268 2.536 4.299 4.454 9.305 5.751 15.017 1.033 4.535 1.696 9.761 1.991 15.68.089 2.09-.442 2.385-1.592.883-1.21-1.502-1.8-2.768-1.77-3.798.118-4.8-.487-9.938-1.814-15.415-1.269-5.33-3.009-10.129-5.221-14.399Z"/><path fill="#fff" d="M100.822 132.355c.059-.824.133-1.236.221-1.236.118 0 .177 1.089.177 3.268 0 1.737-.074 2.606-.221 2.606-.207 0-.31-.825-.31-2.473l.133-2.165ZM166.968 137.832c0 1.914-.103 2.812-.31 2.694-.236-.118-.354-1.001-.354-2.65 0-2.149.103-3.224.31-3.224.236 0 .354 1.06.354 3.18Z"/><path fill="#0D131A" d="M186.391 120.43c-2.301 2.473-8.156 6.581-17.565 12.323-8.967 5.477-17.447 10.203-25.441 14.178-1.828.913-3.259 1.531-4.291 1.855-1.505.471-2.876.589-4.115.353-1.386-.235-2.242-.78-2.566-1.634-.118-.295-.133-.545-.045-.751l.354-.044c.738.707 1.947.957 3.628.751 1.623-.236 3.481-.884 5.575-1.944 5.723-2.915 12.61-6.772 20.663-11.572 9.291-5.535 16.547-10.247 21.768-14.133 1.829-1.355 2.95-1.929 3.363-1.723.383.236-.059 1.016-1.328 2.341ZM89.982 102.188c1.563 6.596 5.03 14.399 10.397 23.409 4.926 8.245 9.734 14.767 14.424 19.567 1.121 1.119 1.46 1.84 1.018 2.164-.472.324-1.563-.353-3.274-2.032-5.28-5.212-10.368-12.19-15.265-20.935-4.925-8.687-7.772-15.768-8.539-21.245-.236-1.561-.177-2.488.177-2.783.325-.294.678.324 1.062 1.855Z"/></g><defs><radialGradient id="b" cx="0" cy="0" r="1" gradientTransform="rotate(90 0 150) scale(200)" gradientUnits="userSpaceOnUse"><stop stop-color="#fff"/><stop offset="1" stop-color="#664497"/></radialGradient><clipPath id="a"><path fill="#fff" d="M0 0h300v300H0z"/></clipPath></defs></svg>