<svg width="300" height="300" viewBox="0 0 300 300" fill="none" xmlns="http://www.w3.org/2000/svg">
<g clip-path="url(#clip0_863_2)">
<rect width="300" height="300" fill="white"/>
<rect x="-50" y="-50" width="400" height="400" fill="url(#paint0_radial_863_2)"/>
<path d="M245.79 74.7298C253.326 84.326 258.195 94.1222 260.396 104.118C266.065 130.575 264.397 154.332 255.394 175.39C251.325 184.92 245.823 192.484 238.887 198.081C233.551 202.413 226.848 205.878 218.778 208.477C214.11 210.01 207.74 210.576 199.67 210.177C192.201 209.843 185.798 208.91 180.462 207.378C176.194 206.178 172.326 203.413 168.858 199.081C165.523 194.816 163.055 189.785 161.455 183.987C160.054 178.722 159.387 172.791 159.454 166.194C159.52 160.729 159.987 156.198 160.854 152.599C161.788 148.667 163.522 144.769 166.056 140.904C168.391 137.438 171.692 133.573 175.961 129.308L186.465 118.213L195.169 108.916L206.073 97.4209C210.608 92.023 213.409 87.4914 214.477 83.8262C215.81 79.228 216.577 75.4295 216.777 72.4307C216.978 68.9654 216.544 65.7 215.477 62.6345L212.976 55.9372L210.675 52.1387C217.478 52.9384 224.014 55.4041 230.283 59.5358C235.152 62.7345 240.321 67.7992 245.79 74.7298Z" fill="#BA5400"/>
<path d="M74.7186 76.5289C73.6515 86.7249 71.784 95.0216 69.1162 101.419C66.7819 105.817 64.1142 109.882 61.1129 113.614C57.5114 118.013 55.2105 119.445 54.2101 117.913C51.4756 113.914 48.9412 107.983 46.6069 100.12C44.0725 91.2564 42.9054 83.1929 43.1055 75.9291C43.3722 67.7323 44.3393 59.3356 46.0067 50.739C47.8074 41.5426 50.075 33.9456 52.8095 27.948C57.7449 17.0189 62.8803 8.98874 68.2159 3.85742C68.0825 10.3215 68.3826 15.7194 69.1162 20.0511L73.9182 46.0408C75.5189 55.3705 75.7857 65.5332 74.7186 76.5289Z" fill="#BA5400"/>
<path d="M64.7144 98.92C64.3809 101.452 62.8469 103.918 60.1125 106.317C57.4447 108.716 55.8107 109.083 55.2104 107.417C53.7432 103.352 52.5093 97.7204 51.5089 90.5233C50.5752 83.3261 50.2417 77.3951 50.5085 72.7303C51.8424 49.6727 55.9441 33.3457 62.8136 23.7495L64.0141 30.5468C64.4142 33.1458 64.7811 34.9784 65.1145 36.0447L66.8152 48.4398C67.4822 55.7036 67.7156 61.5347 67.5155 65.9329L66.315 84.1258L64.7144 98.92Z" fill="#0D131A"/>
<path d="M210.475 96.7209L212.576 96.1211C212.909 96.2544 212.909 96.9208 212.576 98.1203C211.642 102.052 210.241 105.651 208.374 108.916C212.709 107.45 216.978 105.351 221.179 102.619C222.78 101.619 223.68 101.885 223.88 103.418C224.747 110.282 225.081 115.747 224.881 119.812C227.615 117.479 230.083 114.614 232.284 111.215L233.384 110.016C233.718 109.949 233.985 110.482 234.185 111.615L235.685 120.511C236.419 124.31 237.086 127.076 237.686 128.808C239.354 126.076 241.088 121.711 242.888 115.713L243.889 114.114L245.089 115.513L249.691 123.91C250.558 121.978 251.258 118.379 251.792 113.114C251.925 111.982 252.126 111.348 252.392 111.215L253.893 112.315L258.995 119.512C259.462 118.579 259.795 116.98 259.995 114.714L260.095 109.016C260.029 108.083 260.429 108.683 261.296 110.815C262.03 112.748 262.296 114.314 262.096 115.513C261.896 117.579 261.429 119.245 260.696 120.511L259.295 122.411L257.494 120.511L253.893 115.913C253.359 119.912 252.626 122.944 251.692 125.01L250.291 127.109C250.025 127.176 249.491 126.776 248.691 125.909C247.69 124.776 246.256 122.577 244.389 119.312C242.788 124.443 241.154 128.408 239.487 131.207C238.42 133.073 237.619 133.873 237.086 133.606C236.552 133.34 236.019 132.107 235.485 129.908L232.384 115.414C230.85 117.479 228.582 119.579 225.581 121.711C224.447 122.511 223.714 122.811 223.38 122.611C223.047 122.411 222.88 121.644 222.88 120.312C222.88 116.247 222.513 111.082 221.78 104.818L213.276 109.416L207.073 111.915C205.94 112.181 205.273 112.181 205.073 111.915C204.873 111.582 205.006 110.882 205.473 109.816L210.175 99.3198C206.04 101.985 202.905 103.518 200.771 103.918L201.971 101.919C202.972 100.519 203.639 99.753 203.972 99.6197L210.475 96.7209Z" fill="#BA5400"/>
<path d="M205.773 100.02L203.272 100.619C206.14 97.6872 208.674 94.3885 210.875 90.7233C213.209 86.9248 214.743 83.4595 215.477 80.3274C217.078 73.3968 216.844 67.0659 214.777 61.3349C212.976 56.3368 211.542 53.1048 210.475 51.6387C213.209 51.6387 216.711 52.5383 220.979 54.3376C225.581 56.2702 229.85 58.8358 233.785 62.0346C241.588 68.2322 247.924 76.0624 252.792 85.5254C256.527 92.9224 259.662 101.919 262.196 112.515C261.596 116.113 260.662 119.046 259.395 121.311L253.193 113.414C252.659 118.546 251.559 122.644 249.891 125.71C248.491 124.11 246.523 120.945 243.989 116.213C242.255 122.144 240.087 127.142 237.486 131.207C235.885 126.409 234.418 119.945 233.084 111.815L228.782 117.313L224.08 121.511L223.68 111.515L222.58 103.218L214.076 107.817L206.373 111.115L209.274 104.918C210.542 101.986 211.275 99.6198 211.475 97.8205L205.773 100.02Z" fill="#FFF1AC"/>
<path d="M261.896 114.014C264.431 130.808 264.064 145.868 260.796 159.196C257.394 173.258 252.359 184.187 245.689 191.984C237.019 202.113 225.048 208.077 209.775 209.876L189.166 209.277C182.763 208.277 178.061 206.978 175.06 205.378C173.86 204.778 172.292 202.613 170.358 198.881L167.857 193.483C193.868 195.482 214.743 189.884 230.483 176.69C245.89 163.828 255.127 144.869 258.195 119.812L259.395 121.311C260.396 119.512 261.229 117.08 261.896 114.014Z" fill="#933F00"/>
<path d="M261.896 114.014C261.229 117.079 260.396 119.512 259.395 121.311L258.195 119.812L258.395 118.812L258.795 109.816L258.695 100.02L260.396 105.517L261.896 113.914V114.014Z" fill="#DCD096"/>
<path d="M209.775 52.3384L209.374 50.739L210.975 50.5391C227.449 53.0714 241.121 63.0341 251.992 80.4273C264.664 100.619 268.599 125.11 263.797 153.898C259.862 178.022 249.491 194.716 232.684 203.979C217.011 212.709 198.003 213.908 175.66 207.577C173.593 206.978 172.626 206.344 172.759 205.678L175.961 205.478C197.57 211.076 215.744 209.71 230.483 201.38C246.356 192.383 256.194 176.423 259.995 153.499C264.531 125.976 260.996 102.352 249.391 82.6265C239.52 65.8331 227.249 56.0036 212.576 53.138C218.111 63.4673 219.445 73.0302 216.577 81.8268C214.243 89.0906 208.908 97.0874 200.571 105.817L185.364 121.411C176.561 130.608 170.625 137.372 167.557 141.703C163.889 146.901 161.688 152.832 160.954 159.496C160.221 166.227 161.088 173.058 163.555 179.988C164.356 182.254 164.456 183.453 163.856 183.587C163.255 183.787 162.455 182.587 161.455 179.988C158.587 172.458 157.486 165.194 158.153 158.197C158.82 151.399 161.088 145.268 164.956 139.804C168.024 135.472 173.726 128.942 182.063 120.212L197.67 104.218L206.773 93.922C209.708 90.1235 212.009 86.1917 213.676 82.1266C217.078 73.5967 215.777 63.6672 209.775 52.3384Z" fill="#0D131A"/>
<path d="M66.9153 3.55761C68.0491 2.2248 68.8161 1.69168 69.2163 1.95824C69.6165 2.15816 69.7498 3.09113 69.6165 4.75714C69.4164 9.6219 69.6498 14.7199 70.3167 20.0511C70.7836 23.7164 71.684 28.6144 73.0179 34.7454C75.7523 47.3404 76.9862 58.3694 76.7194 67.8324C76.4526 78.1616 74.4184 88.6908 70.6169 99.4199C70.0166 101.153 69.4164 101.952 68.8161 101.819C68.2826 101.619 68.2826 100.619 68.8161 98.8202C72.1508 88.2243 73.8515 77.2287 73.9182 65.8331C73.9182 56.6368 72.8511 46.4074 70.7169 35.1452C68.4493 23.9496 67.3155 15.1197 67.3155 8.65561L67.4155 6.15659C56.3443 20.0178 49.308 37.411 46.3068 58.3361C43.1721 80.4607 45.7732 99.5199 54.11 115.514C54.8437 116.913 54.877 117.813 54.2101 118.213C53.6098 118.546 52.9429 118.013 52.2092 116.613C42.3385 97.7539 39.5373 76.7622 43.8057 53.6379C47.5406 33.5791 55.2438 16.8857 66.9153 3.55761Z" fill="#0D131A"/>
<path d="M61.313 23.3496C62.2467 21.8835 62.9137 21.1838 63.3138 21.2504C63.714 21.3171 64.0475 22.3167 64.3143 24.2493L66.115 35.4449C67.8491 44.508 68.7161 54.4374 68.7161 65.2332C68.7161 76.9619 67.649 88.3241 65.5147 99.3198L64.0141 99.7196L63.3138 99.2198C65.4481 88.624 66.5152 77.495 66.5152 65.8329C66.5819 54.9039 65.7148 44.9078 63.9141 35.8447L62.3134 25.8486C56.511 34.9117 53.143 48.7063 52.2092 67.2324C51.3422 84.2257 52.576 96.9207 55.9108 105.317C56.1775 105.984 56.0108 106.55 55.4106 107.017C54.8103 107.483 54.3434 107.317 54.01 106.517C50.4752 97.3205 49.1079 84.359 49.9083 67.6322C50.842 48.573 54.6436 33.8122 61.313 23.3496Z" fill="#0D131A"/>
<path d="M64.1142 184.587C72.1842 179.255 83.689 173.558 98.6285 167.493L134.343 154.099C141.746 150.167 149.316 149.3 157.053 151.5L154.652 154.299C153.385 155.965 152.484 157.464 151.951 158.797C154.818 158.464 158.287 158.93 162.355 160.196C165.756 161.262 168.224 162.329 169.758 163.395C166.49 163.728 163.089 165.061 159.554 167.393L162.155 169.792L165.156 173.591C164.089 173.391 162.455 173.391 160.254 173.591L154.952 174.591C155.752 175.857 156.319 178.622 156.653 182.887L158.853 187.286L161.655 193.583L158.353 192.084C157.019 191.484 155.852 191.117 154.852 190.984C155.652 192.117 156.786 194.816 158.253 199.081C159.854 203.679 160.921 207.478 161.455 210.476C161.921 213.542 161.921 216.741 161.455 220.073C161.054 223.072 160.421 225.037 159.554 225.97C159.821 232.101 158.553 237.299 155.752 241.564L152.151 235.267L150.15 242.364C148.883 246.362 147.882 248.895 147.149 249.961L143.347 245.963L138.545 240.465C138.012 242.531 137.978 245.196 138.445 248.462C135.044 247.862 131.309 245.896 127.24 242.564C124.239 240.165 121.471 237.399 118.937 234.267L118.037 236.966L117.036 240.865L113.335 237.566L112.834 240.165L111.134 245.663C110.8 244.33 109.666 242.031 107.732 238.765C106.999 243.763 104.864 248.628 101.33 253.36C101.33 251.76 100.463 249.428 98.7285 246.362C97.3947 249.961 94.1933 256.692 89.1246 266.554C88.3242 264.489 85.7232 261.123 81.3213 256.458L75.0187 250.061L75.2188 254.859C70.6836 252.327 66.3484 248.262 62.2134 242.664C57.7449 236.6 55.2438 230.868 54.7103 225.471L53.2097 227.37C52.0759 228.969 51.2422 230.502 50.7086 231.968C49.5081 228.969 49.3414 224.238 50.2084 217.774C50.8087 213.042 51.6423 209.01 52.7095 205.678L50.8087 206.478C49.6749 206.878 48.7745 207.411 48.1075 208.077C48.3076 204.212 50.4752 199.614 54.6102 194.283C57.8783 190.018 61.0462 186.786 64.1142 184.587Z" fill="#FFF1AC"/>
<path d="M66.9153 261.056L69.4164 250.86L75.1187 254.659L75.3188 250.361C76.586 251.16 78.7869 253.393 81.9216 257.058C85.1229 260.723 87.057 263.289 87.724 264.755C88.3909 266.221 89.2246 266.488 90.225 265.555C89.6914 267.887 88.0241 271.952 85.2229 277.75C84.3559 279.616 83.3555 281.049 82.2217 282.048C81.0879 283.114 79.4872 284.014 77.4197 284.747C73.2179 286.346 69.7832 286.346 67.1154 284.747L62.3134 284.847C61.2463 284.447 60.6127 283.814 60.4126 282.948L57.2113 282.548C56.6777 282.215 56.2442 281.582 55.9108 280.649C55.2438 279.049 55.8107 277.517 57.6115 276.05L64.1142 270.553C64.5143 270.02 65.4481 266.854 66.9153 261.056Z" fill="#BA5400"/>
<path d="M113.335 237.566L117.236 240.664C117.503 238.532 118.137 236.466 119.137 234.467L124.239 239.665L129.441 244.163L125.74 259.357L120.738 279.649C118.27 288.512 115.502 293.91 112.434 295.843C111.1 296.776 109.7 297.309 108.232 297.442L104.331 297.142C102.53 298.008 100.796 298.242 99.1287 297.842C97.7281 297.509 96.661 296.842 95.9273 295.843C91.3921 295.843 89.3246 294.043 89.7248 290.445C89.7914 289.978 90.4584 288.812 91.7256 286.946L94.0265 283.448L95.027 274.551L96.1274 253.659C96.9277 251.06 97.7948 248.628 98.7285 246.362L101.43 253.159C102.83 251.693 104.297 248.894 105.831 244.763L107.832 238.965L109.233 241.264L111.134 245.662L113.335 237.566Z" fill="#BA5400"/>
<path d="M154.952 190.984L161.455 193.583C160.721 190.251 159.12 186.652 156.653 182.787C156.786 180.122 156.152 177.323 154.752 174.391C155.552 173.991 157.253 173.691 159.854 173.491L166.056 173.291C169.725 175.224 172.659 177.389 174.86 179.788C177.194 182.321 179.529 185.853 181.863 190.384C183.197 192.983 184.331 196.049 185.264 199.581L187.765 210.177L188.966 220.472C189.366 225.537 189.8 229.202 190.267 231.468C191.2 235.933 193.768 243.297 197.97 253.559L198.77 257.858L198.87 266.155C198.803 273.685 197.87 279.716 196.069 284.247C195.469 285.78 194.201 287.08 192.267 288.146L187.365 290.245L180.663 290.645L172.259 290.245C170.992 290.045 169.958 289.545 169.158 288.746L167.957 286.546C167.824 285.547 169.024 283.548 171.559 280.549C172.226 279.683 172.559 277.483 172.559 273.951L172.259 270.053C171.859 268.32 171.125 266.954 170.058 265.955L156.853 251.26L154.352 258.857L149.45 270.853C147.849 274.185 146.048 277.184 144.047 279.849C142.313 282.115 140.979 283.514 140.046 284.047L133.343 284.247C130.875 285.047 128.608 285.014 126.54 284.147L122.839 283.448C121.838 282.915 121.238 282.315 121.038 281.648C120.904 281.049 121.138 280.049 121.738 278.65C122.338 277.25 123.139 275.917 124.139 274.651C125.673 272.785 126.907 269.786 127.841 265.655C128.107 264.655 128.041 263.056 127.641 260.857L126.14 255.259L127.44 250.861L129.241 244.263C133.843 247.062 136.911 248.695 138.445 249.161V239.965C139.312 241.631 142.38 244.796 147.649 249.461C149.249 247.262 150.75 242.53 152.151 235.267L155.952 241.664C156.753 240.465 157.553 238.132 158.353 234.667C159.154 231.202 159.587 228.069 159.654 225.271C160.921 223.605 161.588 220.639 161.655 216.374C161.721 212.776 161.421 209.41 160.754 206.278C159.821 202.013 157.886 196.915 154.952 190.984Z" fill="#BA5400"/>
<path d="M116.036 99.0199C118.103 102.419 119.437 104.251 120.037 104.518L120.638 101.219L125.24 106.417C128.708 110.815 131.309 115.413 133.043 120.212C137.711 133.007 138.812 144.869 136.344 155.798C133.076 170.725 127.007 181.121 118.137 186.985C112.334 190.85 105.898 193.649 98.8286 195.382L74.1183 196.182C65.9816 194.782 58.2784 191.15 51.0087 185.286C44.8728 180.421 40.2042 175.09 37.0029 169.292C32.3343 160.696 31.6007 153.998 34.802 149.2L39.4039 141.103C40.8045 137.971 42.3051 133.24 43.9058 126.909C44.7061 123.577 46.14 120.078 48.2075 116.413C50.1417 112.814 52.4426 109.582 55.1104 106.717C55.5773 100.719 56.2442 97.3538 57.1112 96.6208L60.3126 101.719L61.7132 96.3209L65.7148 99.3197L64.6144 94.7215C67.3488 96.2543 70.0166 97.0206 72.6177 97.0206L70.917 93.9219L77.6198 95.4213L78.9203 89.4236L82.6218 92.1226L85.523 94.8215L84.8227 86.4248L94.0266 93.8219L94.9269 86.6247L98.5284 90.923L103.631 95.9211L105.631 90.8231L107.932 94.7215L111.634 99.2198L112.534 95.6212L113.134 94.1218L116.036 99.0199Z" fill="#BA5400"/>
<path d="M162.355 217.174C163.755 225.97 164.256 234.001 163.856 241.264C163.522 246.329 162.722 251.46 161.455 256.658L154.952 248.961C152.618 245.963 151.184 243.83 150.65 242.564L152.451 235.567C154.385 238.565 155.519 240.565 155.852 241.564C158.72 237.033 159.954 231.768 159.554 225.77L162.355 217.174Z" fill="#933F00"/>
<path d="M129.141 243.563C133.143 246.162 136.211 247.862 138.345 248.661C138.012 246.795 137.945 243.63 138.145 239.165C138.678 240.564 140.146 242.464 142.547 244.863L147.749 249.261C148.749 248.728 149.65 246.429 150.45 242.364L152.851 245.563L156.853 251.46C155.185 257.258 151.884 265.255 146.949 275.451C143.614 272.119 139.879 269.886 135.744 268.753C132.076 267.687 129.141 267.687 126.94 268.753C127.474 267.754 127.707 265.855 127.641 263.056C127.641 260.19 127.374 257.458 126.84 254.859L127.841 250.461L129.141 243.563Z" fill="#933F00"/>
<path d="M112.634 240.564L112.834 237.166L117.536 241.064C117.536 239.798 118.037 237.232 119.037 233.367C119.437 234.5 122.872 238.065 129.341 244.063L125.54 259.557L121.738 277.15C117.27 272.752 112.301 270.019 106.832 268.953C102.297 268.087 98.4951 268.42 95.4271 269.953L95.9273 254.359C96.3942 253.826 97.2612 250.86 98.5284 245.462L101.43 252.76C103.23 251.293 104.831 248.428 106.232 244.163L107.732 238.265L109.033 240.864L111.634 245.362C112.101 244.563 112.434 242.963 112.634 240.564Z" fill="#933F00"/>
<path d="M66.115 264.255C67.2488 261.523 68.3492 256.858 69.4164 250.261L75.2188 254.459C74.952 253.259 74.8853 251.593 75.0187 249.461L79.4205 254.359L84.4226 259.657L86.8236 263.355L89.5247 267.454C88.6577 270.319 87.6573 272.818 86.5235 274.951C83.4555 270.286 79.7873 267.121 75.5189 265.455C72.451 264.255 69.3163 263.855 66.115 264.255Z" fill="#933F00"/>
<path d="M112.934 215.974C112.401 215.375 112.034 214.475 111.834 213.275L110.934 209.477L114.535 212.076L114.835 209.677C114.835 208.077 114.935 207.244 115.135 207.178C116.002 209.577 116.503 211.976 116.636 214.375C116.769 216.307 116.636 217.64 116.236 218.373C116.102 218.64 115.669 218.507 114.935 217.973L112.934 215.974Z" fill="#DCD096"/>
<path d="M113.835 231.368C113.768 237.366 113.034 241.964 111.634 245.163L107.532 238.166L105.331 246.562C104.264 249.894 102.83 252.26 101.029 253.66L98.7285 246.762L96.6276 251.86L93.7264 257.758C91.1254 261.623 89.558 264.189 89.0245 265.455L81.2212 256.658L75.1187 249.861V253.26V254.759C73.1179 253.426 70.6835 251.427 67.8157 248.761C64.8144 246.029 62.7469 243.863 61.6131 242.264C60.0791 240.198 58.5785 237.133 57.1112 233.068C55.8441 229.669 55.0437 226.97 54.7103 224.971L52.6094 228.369C51.7424 229.769 51.2421 230.835 51.1088 231.568C50.842 230.769 50.7753 229.003 50.9087 226.27C51.0421 224.804 51.5756 223.038 52.5093 220.972C53.3764 218.84 54.2767 217.34 55.2105 216.474C56.6777 221.006 58.7453 224.871 61.413 228.07L69.7165 236.766C70.5168 232.834 71.3171 229.769 72.1175 227.57C74.185 231.768 76.3192 234.867 78.5201 236.866C81.388 239.532 83.889 242.331 86.0232 245.263L90.8252 236.866C93.2929 232.335 94.5601 228.469 94.6268 225.271L98.9286 231.868C101.13 235.133 102.43 237.399 102.83 238.665L105.331 232.968C106.198 230.035 106.665 227.237 106.732 224.571C107.465 225.437 108.499 228.103 109.833 232.568C111.567 229.636 112.534 224.704 112.734 217.774C113.535 221.839 113.901 226.37 113.835 231.368Z" fill="#DCD096"/>
<path d="M144.347 169.992L149.75 169.392L157.353 169.192C156.219 168.059 153.851 166.96 150.25 165.894C151.651 164.894 154.852 163.561 159.854 161.895C157.92 160.829 155.252 159.929 151.851 159.196L161.855 159.996C165.456 160.996 167.857 162.128 169.058 163.395C167.791 163.595 165.79 164.294 163.055 165.494L159.454 167.193L161.955 169.692C163.756 171.491 164.889 172.824 165.356 173.691L161.154 173.491L154.752 174.19C155.552 174.724 156.286 177.789 156.953 183.387C153.885 177.389 149.683 172.924 144.347 169.992Z" fill="#DCD096"/>
<path d="M154.152 223.471C154.885 218.273 154.852 212.143 154.052 205.079C155.519 206.611 156.819 208.377 157.953 210.377C158.153 209.11 157.986 206.578 157.453 202.78C156.853 198.781 156.152 195.516 155.352 192.983C157.219 195.849 158.687 198.948 159.754 202.28L161.655 211.176C162.122 213.842 162.155 216.441 161.755 218.973C161.421 221.506 160.721 223.605 159.654 225.271C159.921 228.203 159.654 231.235 158.853 234.367C158.053 237.166 157.053 239.332 155.852 240.865L153.451 237.566L152.051 235.967C151.05 243.297 149.616 247.762 147.749 249.361C143.681 246.562 140.546 243.53 138.345 240.265C138.145 245.463 138.145 248.462 138.345 249.261C135.611 248.062 132.176 245.929 128.041 242.864C123.372 239.465 120.304 236.6 118.837 234.267C117.97 236.2 117.536 238.299 117.536 240.565L115.335 239.565L113.135 237.966C113.735 232.701 113.868 227.437 113.535 222.172L114.735 226.27C115.335 228.07 116.002 229.469 116.736 230.469L117.436 226.27L118.337 221.172L125.34 228.27C128.408 230.802 131.409 232.834 134.343 234.367C135.01 229.369 135.777 225.837 136.644 223.771C139.445 228.17 142.58 231.402 146.048 233.467L148.849 227.37C149.85 224.904 150.583 222.005 151.05 218.673L154.152 223.471Z" fill="#DCD096"/>
<path d="M153.151 189.585L155.652 189.385L160.154 190.384C161.221 192.184 161.588 193.25 161.254 193.583L157.053 191.884C154.318 190.751 153.018 189.985 153.151 189.585Z" fill="#DCD096"/>
<path d="M98.8286 195.382L74.1183 196.182C67.8491 195.049 61.7132 192.583 55.7107 188.785C66.3818 192.45 76.8528 193.749 87.1237 192.683C96.3942 191.75 104.531 189.018 111.534 184.486C117.803 180.488 122.905 175.523 126.84 169.592C130.508 164.061 132.676 158.463 133.343 152.799V151.099V150.3L137.245 150.4L136.344 155.798C133.076 170.725 127.007 181.121 118.137 186.985C112.334 190.851 105.898 193.649 98.8286 195.382Z" fill="#933F00"/>
<path d="M63.714 192.983C69.9833 196.249 78.0199 197.515 87.824 196.782C96.6277 196.182 104.498 194.249 111.434 190.984C115.702 188.985 119.304 186.586 122.238 183.787C125.173 181.055 127.774 177.656 130.042 173.591C129.508 179.389 126.64 184.853 121.438 189.984C116.836 194.516 111.267 197.981 104.731 200.38C94.7269 203.979 85.1229 204.545 75.9191 202.08C67.5823 199.947 63.5139 196.915 63.714 192.983Z" fill="#DCD096"/>
<path d="M56.8111 189.685L58.912 189.385C59.779 189.718 59.9457 190.118 59.4122 190.584C54.8103 195.182 51.809 200.181 50.4084 205.578L52.6094 203.979C53.6765 203.246 54.3101 202.979 54.5101 203.179C54.8436 203.379 54.6769 204.212 54.0099 205.678C52.3426 209.477 51.3422 213.775 51.0087 218.573C50.8086 222.239 51.0087 225.404 51.6089 228.07L53.4097 224.871C54.1433 223.738 54.7102 223.171 55.1104 223.171C55.5106 223.105 55.8107 223.805 56.0108 225.271C56.6777 230.202 58.6452 235.1 61.9132 239.965C65.1145 244.83 69.1829 248.995 74.1183 252.46L74.2183 249.461L74.5184 248.162L76.0191 249.561L81.9215 255.759C84.8561 258.424 87.0903 261.09 88.6243 263.756L91.9257 258.358C94.9269 253.759 96.7944 249.894 97.528 246.762C97.8615 245.296 98.1616 244.53 98.4284 244.463C98.6951 244.396 99.1287 244.963 99.7289 246.162L101.33 250.761C103.931 248.228 105.698 243.963 106.632 237.966C106.832 236.566 107.065 235.866 107.332 235.866L108.533 237.566L110.733 242.564C111.934 239.032 112.534 234.067 112.534 227.67C112.468 220.606 111.567 214.642 109.833 209.777C109.3 208.177 109.166 207.311 109.433 207.178C109.633 207.044 110.3 207.444 111.434 208.377L113.735 210.277C113.601 208.211 112.968 205.612 111.834 202.48L107.532 193.083C107.132 192.417 107.265 191.95 107.932 191.684C108.533 191.484 109.033 191.717 109.433 192.384C111.701 196.049 113.468 199.747 114.735 203.479C116.136 207.278 116.703 210.31 116.436 212.576C116.236 214.442 115.902 215.308 115.435 215.175C115.035 215.108 114.068 214.108 112.534 212.176C113.868 217.44 114.602 223.371 114.735 229.969C114.869 237.166 114.168 242.364 112.634 245.563L111.134 247.462C110.867 247.462 110.433 246.796 109.833 245.463L107.932 241.064C106.865 245.863 105.098 250.028 102.63 253.56L100.829 255.159C100.563 255.159 100.329 254.626 100.129 253.56L98.8285 248.462C97.5613 252.593 95.9273 256.225 93.9265 259.357L91.9257 263.156L90.1249 266.954C89.5914 268.154 89.1245 268.687 88.7243 268.554C88.4576 268.487 88.024 267.887 87.4238 266.754C85.2229 262.623 83.022 259.491 80.8211 257.358L75.919 252.26L76.0191 255.159C76.0191 255.892 75.819 256.225 75.4188 256.159L73.418 254.959C68.3492 251.627 64.1141 247.529 60.7127 242.664C57.378 237.866 55.1771 232.901 54.11 227.77L52.5093 231.668C51.9091 233.001 51.4089 233.634 51.0087 233.567C50.6085 233.434 50.1417 232.668 49.6081 231.268C48.7411 228.669 48.441 225.137 48.7077 220.672C48.9745 216.274 49.6748 212.043 50.8086 207.977L49.0079 210.277C48.0741 211.609 47.3738 212.076 46.907 211.676C46.4401 211.276 46.4068 209.943 46.8069 207.678C48.0741 201.08 51.4089 195.083 56.8111 189.685Z" fill="#0D131A"/>
<path d="M133.743 166.293C133.276 166.094 133.143 165.627 133.343 164.894C133.543 164.228 133.876 163.961 134.343 164.094C142.347 166.96 149.083 171.491 154.552 177.689C158.62 182.287 161.154 186.586 162.155 190.584C162.822 193.116 162.989 194.516 162.655 194.782C162.322 195.115 161.188 194.782 159.254 193.783L156.753 192.583C160.421 199.58 162.488 206.411 162.955 213.075C163.355 219.339 162.288 224.737 159.754 229.269C159.554 229.602 159.554 227.336 159.754 222.471C160.954 219.206 161.121 214.808 160.254 209.277C159.254 202.946 157.119 197.015 153.851 191.484C153.251 190.484 153.051 189.851 153.251 189.584L155.152 189.684L159.354 191.484C158.22 187.752 155.852 183.72 152.251 179.388C147.115 173.324 140.946 168.959 133.743 166.293Z" fill="#0D131A"/>
<path d="M158.253 211.376C158.72 211.309 159.12 212.209 159.454 214.075C160.454 219.539 160.788 224.737 160.454 229.669C160.121 234.6 159.12 238.532 157.453 241.464L155.752 243.463C155.419 243.463 154.918 242.73 154.252 241.264L152.151 236.466C152.017 236.266 152.117 235.766 152.451 234.967C152.718 234.167 152.918 233.967 153.051 234.367C153.251 235.233 154.051 236.699 155.452 238.765C157.253 235.7 158.287 231.835 158.553 227.17L158.053 214.375C157.786 212.509 157.853 211.509 158.253 211.376Z" fill="#0D131A"/>
<path d="M153.051 230.368C153.385 230.502 153.485 231.668 153.351 233.867L151.851 241.764L149.65 248.361C148.783 250.094 148.082 251.027 147.549 251.16C147.149 251.227 146.315 250.694 145.048 249.561L141.446 245.562L139.245 242.564L139.545 247.562C139.946 249.694 139.245 250.427 137.445 249.761C134.51 248.761 131.275 246.929 127.741 244.263C123.939 241.464 121.104 238.698 119.237 235.966L118.437 240.165L117.836 242.364L116.236 241.464C114.835 240.331 113.668 239.065 112.734 237.666C112.601 237.466 112.668 237.099 112.934 236.566C113.201 236.1 113.435 235.966 113.635 236.166L116.636 239.065L118.037 232.967L118.737 231.768L120.037 233.367C121.838 236.1 124.473 238.832 127.941 241.564C131.209 244.163 134.343 246.096 137.345 247.362C137.078 244.896 137.078 242.63 137.345 240.564C137.478 239.032 137.645 238.232 137.845 238.165L139.746 239.865C143.147 244.263 145.715 246.762 147.449 247.362C149.183 244.096 150.617 239.565 151.751 233.767C152.217 231.368 152.651 230.235 153.051 230.368Z" fill="#0D131A"/>
<path d="M136.444 152.799L136.844 151.699C140.312 150.433 143.847 149.633 147.449 149.3L155.852 149.7C157.72 150.167 158.72 150.666 158.853 151.2C158.987 151.799 158.253 152.732 156.653 153.998L153.351 157.497C160.021 157.764 165.356 159.13 169.358 161.595C170.625 162.395 171.259 163.028 171.259 163.495C171.192 163.961 170.525 164.361 169.258 164.694C164.856 165.76 162.088 166.693 160.954 167.493C163.622 169.559 165.356 171.225 166.156 172.491C166.757 173.491 166.89 174.124 166.557 174.39L163.655 174.69L156.152 175.19C156.953 176.656 157.52 178.356 157.853 180.288C158.253 182.287 158.287 183.853 157.953 184.986C157.886 185.386 157.086 184.253 155.552 181.588C155.886 179.255 155.352 177.123 153.951 175.19L153.251 173.791C153.318 173.591 153.718 173.391 154.452 173.191L163.255 172.391C162.588 171.058 161.321 169.759 159.454 168.493L158.153 167.293C158.086 166.96 158.453 166.56 159.254 166.094C161.655 164.628 164.056 163.595 166.457 162.995C161.721 160.729 156.853 159.596 151.851 159.596C150.984 159.596 150.483 159.463 150.35 159.196C150.217 158.93 150.383 158.33 150.85 157.397C151.784 155.798 153.084 154.198 154.752 152.599C153.284 151.999 151.017 151.699 147.949 151.699C144.014 151.633 140.346 152.232 136.944 153.499C136.611 153.632 136.444 153.399 136.444 152.799Z" fill="#0D131A"/>
<path d="M68.2159 249.861C68.2826 249.594 68.7494 249.794 69.6165 250.461L70.917 251.76C69.1163 259.557 67.1488 266.054 65.0145 271.252L61.7132 274.451C58.4452 276.65 56.8111 278.416 56.8111 279.749C56.7445 280.549 57.0779 281.215 57.8116 281.748C58.5452 282.348 59.4456 282.581 60.5127 282.448C60.8462 282.448 61.0129 282.748 61.0129 283.348C61.0796 283.881 60.9462 284.147 60.6127 284.147C58.8787 284.147 57.4447 283.748 56.3109 282.948C55.1104 282.082 54.5102 281.015 54.5102 279.749C54.5769 278.416 55.2438 277.117 56.511 275.851L60.3126 272.952L63.0137 270.253L66.115 259.657L68.2159 249.861Z" fill="#0D131A"/>
<path d="M62.2134 277.75C63.3472 277.15 63.9808 276.95 64.1142 277.15C64.3143 277.283 64.0141 277.683 63.2138 278.35C61.1463 280.082 60.546 281.548 61.4131 282.748C61.7465 283.281 62.5469 283.681 63.8141 283.948L66.7153 283.648C66.982 283.514 67.2488 283.748 67.5156 284.347C67.7157 284.88 67.6823 285.18 67.4156 285.247C63.9475 286.247 61.4131 285.813 59.8124 283.948C59.0788 283.081 58.912 282.048 59.3122 280.849C59.7791 279.583 60.7461 278.55 62.2134 277.75Z" fill="#0D131A"/>
<path d="M70.3168 279.649C68.1825 281.315 67.3155 282.648 67.7157 283.648C68.0491 284.581 69.4831 284.88 72.0175 284.547L77.6198 283.348C79.6873 282.548 81.1212 281.648 81.9216 280.649C84.456 277.383 86.857 271.986 89.1246 264.455L94.8269 255.958C93.8932 260.09 92.2925 264.822 90.0249 270.153C87.7573 275.484 85.6565 279.449 83.7223 282.048C82.5218 283.648 80.4876 284.88 77.6198 285.747L70.7169 286.746C68.0491 286.746 66.4485 286.147 65.9149 284.947C65.0479 282.748 66.3151 280.682 69.7165 278.75C70.7169 278.15 71.2838 277.95 71.4172 278.15L70.3168 279.649Z" fill="#0D131A"/>
<path d="M94.5268 256.058C94.4601 255.858 94.8602 255.025 95.7273 253.559C96.5943 252.093 97.0612 251.493 97.1278 251.76C97.3279 254.692 97.1612 259.923 96.6276 267.454C96.1608 275.117 95.5939 280.549 94.9269 283.747L93.3263 286.646C91.7923 288.645 90.992 290.212 90.9253 291.344C90.9253 292.477 91.3588 293.41 92.2258 294.143C93.1595 294.81 94.1933 295.043 95.3271 294.843C95.6606 294.776 95.8607 295.01 95.9273 295.543C96.0607 296.076 95.9607 296.376 95.6272 296.442C93.9599 296.709 92.4592 296.442 91.1254 295.643C89.5247 294.71 88.691 293.31 88.6243 291.444C88.5576 289.912 89.5247 288.012 91.5255 285.747L92.8261 283.248C93.3596 280.515 93.7931 276.084 94.1266 269.953L94.5268 256.058Z" fill="#0D131A"/>
<path d="M96.5276 290.345C97.3946 289.479 97.9615 289.112 98.2283 289.245L97.7281 291.045C96.5276 292.844 96.0941 294.21 96.4276 295.143C96.761 295.743 97.7614 296.243 99.4288 296.642L103.03 296.243C104.164 295.31 104.964 294.11 105.431 292.644C105.831 291.378 106.232 290.745 106.632 290.745C106.965 290.745 106.999 291.378 106.732 292.644C106.132 295.51 105.331 297.276 104.331 297.942C102.93 298.942 101.13 299.208 98.9286 298.742C96.7944 298.275 95.4271 297.376 94.8269 296.043C94.0266 294.31 94.5935 292.411 96.5276 290.345Z" fill="#0D131A"/>
<path d="M127.941 243.563L129.341 243.963L130.542 245.063C126.94 258.857 124.706 267.887 123.839 272.152C121.438 283.481 118.97 290.611 116.436 293.544C114.635 295.543 112.601 296.942 110.333 297.742L103.631 297.942C103.164 297.809 103.097 297.509 103.43 297.042C103.764 296.509 104.131 296.276 104.531 296.342C108.199 297.009 111.4 295.676 114.135 292.344C116.736 289.212 119.17 282.381 121.438 271.852L124.539 257.658L127.941 243.563Z" fill="#0D131A"/>
<path d="M126.04 258.557C125.906 258.158 126.107 257.191 126.64 255.659C127.107 254.193 127.407 253.726 127.54 254.259C128.341 256.791 128.841 259.79 129.041 263.256C129.174 266.254 127.974 270.086 125.44 274.751L124.039 276.95L122.738 279.149C122.405 280.216 122.438 281.115 122.839 281.848C123.305 282.648 124.272 283.048 125.74 283.048C126.607 284.114 126.84 284.647 126.44 284.647C123.439 284.847 121.505 284.247 120.638 282.848C119.971 281.782 119.971 280.515 120.638 279.049L123.739 273.951C126.073 269.487 127.074 265.888 126.74 263.156L126.04 258.557Z" fill="#0D131A"/>
<path d="M126.84 278.65C127.774 277.783 128.374 277.45 128.641 277.65L127.841 279.249C127.04 280.249 126.64 281.182 126.64 282.048C126.573 282.781 127.14 283.281 128.341 283.548L133.343 283.348L133.943 283.948L133.743 284.847L127.44 285.347C125.573 285.014 124.673 284.081 124.739 282.548C124.873 281.149 125.573 279.849 126.84 278.65Z" fill="#0D131A"/>
<path d="M134.043 279.749C134.977 278.816 135.577 278.416 135.844 278.549C136.177 278.683 135.977 279.249 135.244 280.249C134.043 281.848 133.743 282.881 134.343 283.348L136.644 283.747L139.545 283.048C141.68 281.981 144.314 278.316 147.449 272.052C150.783 265.455 153.451 258.224 155.452 250.361C155.585 249.761 156.019 249.927 156.753 250.86C157.486 251.727 157.786 252.426 157.653 252.96C155.786 259.357 153.151 265.854 149.75 272.452C146.082 279.582 142.947 283.747 140.346 284.947C139.079 285.613 137.611 285.913 135.944 285.847C134.343 285.713 133.243 285.313 132.643 284.647C131.509 283.514 131.976 281.882 134.043 279.749Z" fill="#0D131A"/>
<path d="M150.15 244.463C149.883 244.13 149.983 243.363 150.45 242.164C150.917 241.031 151.284 240.698 151.55 241.164C155.219 247.562 160.154 253.859 166.357 260.057C169.691 263.322 171.725 265.721 172.459 267.254C172.926 268.12 173.226 270.053 173.359 273.052L173.159 279.449L171.159 282.748C169.891 284.481 169.224 285.713 169.158 286.447C169.091 288.046 169.958 289.012 171.759 289.345C172.426 290.278 172.559 290.745 172.159 290.745C170.692 290.745 169.458 290.312 168.457 289.445C167.457 288.646 166.99 287.613 167.057 286.347C167.124 285.28 167.757 283.914 168.958 282.248L171.259 278.75C171.592 277.683 171.659 275.884 171.459 273.352L170.658 268.753L164.456 261.556L158.853 255.759C155.786 252.36 152.884 248.595 150.15 244.463Z" fill="#0D131A"/>
<path d="M172.659 287.446C172.459 288.379 172.526 289.012 172.859 289.345C173.259 289.812 174.193 290.078 175.66 290.145L179.762 289.645L180.563 290.345L180.663 291.245L175.56 292.044C173.493 291.978 172.092 291.544 171.359 290.745C170.558 289.878 170.358 288.812 170.758 287.546C171.092 286.346 171.892 285.214 173.159 284.147C174.227 283.214 174.86 282.881 175.06 283.148C175.327 283.414 175.027 283.981 174.16 284.847C173.426 285.647 172.926 286.513 172.659 287.446Z" fill="#0D131A"/>
<path d="M164.156 173.691C163.889 173.558 163.722 172.958 163.655 171.892C163.655 170.825 163.789 170.325 164.056 170.392C172.126 173.724 178.395 180.088 182.863 189.485C187.399 198.948 189.966 211.109 190.567 225.97C190.7 229.969 192.467 236.233 195.869 244.763C198.136 250.361 199.37 253.993 199.57 255.659C200.371 261.523 200.371 267.687 199.57 274.151C198.703 281.282 197.203 285.68 195.068 287.346C192.668 289.212 189.7 290.612 186.165 291.544C182.63 292.411 180.329 292.411 179.262 291.544C178.528 290.945 178.395 289.978 178.862 288.646C179.329 287.246 180.329 286.013 181.863 284.947C182.93 284.214 183.564 283.981 183.764 284.247C184.031 284.514 183.697 285.047 182.763 285.847L181.163 287.946C180.763 288.746 180.729 289.279 181.063 289.545L186.165 289.345C189.033 288.546 191.534 287.313 193.668 285.647C195.202 284.381 196.336 280.649 197.069 274.451C197.803 268.254 197.836 262.023 197.169 255.759C197.103 254.892 196.102 251.86 194.168 246.662C190.433 236.933 188.466 230.069 188.266 226.07C187.532 212.276 185.064 200.813 180.863 191.684C176.661 182.554 171.092 176.556 164.156 173.691Z" fill="#0D131A"/>
<path d="M65.9149 96.4213L66.7152 99.2202L66.9153 100.42L65.9149 100.32L62.1133 97.9207L61.0129 101.519L60.3126 102.819C60.0458 102.819 59.679 102.486 59.2121 101.819L57.5114 99.2202C56.7111 101.153 56.1775 103.985 55.9108 107.717L55.4105 109.616C55.0771 109.949 54.8103 109.816 54.6102 109.216C51.8091 112.548 49.4081 116.347 47.4072 120.612C46.5402 122.478 45.5064 125.343 44.3059 129.208L41.5048 137.805L39.704 142.503L37.9033 146.402C35.569 150 34.4685 153.166 34.6019 155.898C34.802 163.228 38.1367 170.526 44.6061 177.789C51.1421 185.186 59.0787 190.384 68.4159 193.383C77.4197 196.249 87.2237 196.515 97.8281 194.183C108.899 191.784 117.436 187.186 123.439 180.388C128.774 174.324 132.476 166.427 134.543 156.698C136.344 148.234 136.611 140.171 135.344 132.507C133.543 121.845 128.908 112.115 121.438 103.319L120.538 105.418L118.637 104.018C116.503 101.886 114.635 99.4868 113.034 96.8212L112.234 99.3202L111.734 100.22C111.534 100.353 111.167 100.153 110.633 99.6201C108.766 97.8874 107.132 95.6883 105.731 93.0226L104.731 96.2214L104.131 97.121L103.23 96.7212C100.896 95.1885 98.2617 92.5562 95.3271 88.8243L95.027 93.7224L94.6268 95.3217L93.2262 94.4221L85.523 88.0246L86.1233 94.0222L85.8232 95.6216L84.3225 94.722L79.3205 90.7235L78.8203 95.0219L78.4201 95.9215L77.6198 96.0215L72.6177 95.0219L73.5181 96.7212L73.8182 97.6208L72.6177 97.8208C70.5502 97.8208 68.3159 97.3543 65.9149 96.4213ZM119.837 100.22L120.137 99.1203L121.438 100.02C130.175 110.283 135.544 120.878 137.545 131.807C139.079 139.871 138.912 148.501 137.044 157.697C135.044 167.76 131.409 175.857 126.14 181.988C119.871 189.251 110.867 194.15 99.1287 196.682C87.9907 199.081 77.6531 198.748 68.1158 195.682C57.9783 192.484 49.3414 187.052 42.2051 179.389C35.0688 171.658 31.4673 163.828 31.4006 155.898C31.3339 152.832 32.5344 149.301 35.0021 145.302L39.0037 136.805L42.105 128.309L45.3064 119.712C47.7073 114.381 50.7086 109.849 54.3101 106.118C54.3768 102.319 55.0437 98.9203 56.3109 95.9215C56.8445 94.5887 57.4114 94.5554 58.0116 95.8215L60.0125 100.02C60.2125 97.954 60.4793 96.3214 60.8128 95.1218C61.0796 94.3221 61.5464 94.3221 62.2134 95.1218L64.7144 98.1206L63.714 94.8219C63.5139 93.9556 63.5139 93.4558 63.714 93.3225L65.0145 93.6224C68.1492 95.2218 70.3167 96.1547 71.5172 96.4213C70.7169 95.7549 70.0166 94.722 69.4164 93.3225C69.0829 92.2563 69.5164 91.9897 70.7169 92.5228C73.5848 93.5891 75.7523 94.2555 77.2196 94.5221L77.8198 89.0242C77.8198 88.0912 77.9532 87.5581 78.22 87.4248C78.4868 87.3582 78.9536 87.5914 79.6206 88.1246L84.6227 93.1226L83.6223 86.0254C83.4889 84.9591 83.5889 84.3927 83.9224 84.3261C84.1892 84.3261 84.7227 84.6593 85.523 85.3257L93.3263 92.3229C93.1262 89.524 93.1929 87.2582 93.5264 85.5256C93.7264 83.9262 94.36 83.8263 95.4271 85.2257C99.0286 90.2237 101.663 93.3892 103.33 94.722L104.531 90.3237L105.331 89.0242L106.432 90.2237L111.034 97.7208L111.834 93.3225C112.234 91.9231 112.801 91.9231 113.535 93.3225C116.002 97.8541 118.07 101.02 119.737 102.819L119.837 100.22Z" fill="#0D131A"/>
<path d="M209.575 121.611C198.503 132.274 188.066 139.337 178.262 142.803C172.726 144.802 164.022 146.701 152.151 148.501L133.643 150.5C132.309 150.366 130.809 146.835 129.141 139.904C127.407 132.907 127.174 128.642 128.441 127.109C130.909 123.977 133.943 121.045 137.545 118.312C141.68 115.114 146.048 112.548 150.65 110.615C161.855 106.017 173.86 103.485 186.665 103.018C195.335 102.685 208.307 103.052 225.581 104.118C219.579 111.315 214.243 117.146 209.575 121.611Z" fill="#BA5400"/>
<path d="M197.069 123.511C185.931 131.174 175.927 136.139 167.057 138.405L149.25 141.703L138.245 142.503C136.578 142.436 135.51 141.07 135.044 138.405C134.577 135.739 134.91 133.64 136.044 132.107C138.045 129.308 141.313 126.376 145.848 123.311C151.584 119.312 157.753 116.38 164.356 114.514C172.092 112.315 180.863 110.982 190.667 110.516L210.275 111.215C205.74 116.413 201.338 120.512 197.069 123.511Z" fill="#0D131A"/>
<path d="M133.143 132.707L143.247 132.507L137.645 138.205L143.247 137.905L139.245 140.904L136.444 142.703C134.977 143.636 133.776 142.236 132.843 138.504C131.909 134.639 132.009 132.707 133.143 132.707Z" fill="#BA5400"/>
<path d="M54.7103 170.992C54.8437 169.592 55.4106 168.093 56.411 166.493C57.5448 164.627 58.9454 163.261 60.6127 162.395L63.5139 163.794L66.9153 166.094C69.3163 168.093 72.1175 169.959 75.3188 171.691C74.0516 174.624 71.9174 177.156 68.9162 179.288C65.9149 181.488 63.2805 182.42 61.0129 182.087C59.2788 181.821 57.8449 180.655 56.7111 178.589C55.5106 176.589 54.8437 174.057 54.7103 170.992Z" fill="#ED8599"/>
<path d="M54.5102 161.396L57.8115 161.196L61.1129 162.295C59.5789 162.762 58.145 163.961 56.8111 165.894C55.8107 167.36 55.0104 168.993 54.4101 170.792C54.21 170.059 54.11 168.726 54.11 166.794L54.5102 161.396Z" fill="#922F00"/>
<path d="M225.181 102.719L226.982 103.318C227.182 103.718 226.882 104.385 226.081 105.318C211.142 123.044 197.436 135.073 184.964 141.403C172.693 147.601 156.386 150.9 136.044 151.3C134.177 151.366 133.276 151.033 133.343 150.3C133.343 149.567 134.277 149.167 136.144 149.1C154.552 148.701 170.392 145.135 183.664 138.405C196.936 131.674 210.241 120.478 223.58 104.818C197.636 103.552 178.128 104.418 165.056 107.417C152.251 110.349 140.879 116.513 130.942 125.91C129.875 126.976 129.208 127.209 128.941 126.609C128.608 126.009 128.941 125.143 129.941 124.01C138.745 114.281 149.95 107.85 163.555 104.718C177.495 101.586 198.036 100.919 225.181 102.719Z" fill="#0D131A"/>
<path d="M142.947 131.308C145.348 131.374 145.648 132.141 143.847 133.607C142.046 135.273 140.379 136.572 138.845 137.505L143.547 137.005C144.547 137.005 145.014 137.205 144.948 137.605L143.647 139.205C142.513 140.071 140.479 141.204 137.545 142.603L136.244 142.503C135.51 142.37 135.244 142.237 135.444 142.103L137.845 140.904L141.446 138.605L137.645 139.005L136.044 138.805C135.977 138.538 136.344 137.972 137.144 137.105L141.046 133.407H134.843C133.643 133.34 133.043 133.14 133.043 132.807C133.109 132.54 133.71 132.274 134.843 132.007L142.947 131.308Z" fill="#0D131A"/>
<path d="M209.174 109.916C210.575 110.049 211.342 110.349 211.475 110.815C211.542 111.282 211.075 111.982 210.075 112.915C199.003 123.91 188.132 131.607 177.461 136.006C166.79 140.404 153.318 142.77 137.044 143.103C135.777 143.169 135.144 142.969 135.144 142.503C135.077 142.103 135.677 141.837 136.944 141.703C152.951 140.57 166.223 137.838 176.761 133.506C187.499 129.042 197.97 121.878 208.174 112.015C190.633 110.282 174.793 111.982 160.654 117.113C149.583 121.111 141.646 126.143 136.844 132.207L134.643 132.307C148.716 114.714 173.56 107.25 209.174 109.916Z" fill="#0D131A"/>
<path d="M47.1071 133.806C48.6411 130.208 50.4752 127.442 52.6094 125.509C54.7436 123.444 56.6777 122.744 58.4118 123.41C59.9457 124.01 60.7127 125.976 60.7127 129.308C60.7127 132.307 60.0791 135.539 58.8119 139.004C57.3447 143.203 55.5773 146.201 53.5097 148.001C51.709 149.6 49.9416 150.1 48.2075 149.5C46.4068 148.9 45.373 147.134 45.1063 144.202C44.7728 141.203 45.4397 137.738 47.1071 133.806Z" fill="#0D131A"/>
<path d="M101.73 135.906C104.331 136.306 106.198 138.305 107.332 141.903C108.533 145.702 108.299 150.034 106.632 154.898C105.098 159.497 103.03 162.795 100.429 164.794C97.9616 166.727 95.3605 167.194 92.626 166.194C90.1583 165.261 88.4576 163.295 87.5239 160.296C86.5235 157.164 86.6235 153.632 87.824 149.7C89.2913 144.769 91.5589 141.037 94.6268 138.505C97.1612 136.439 99.5289 135.573 101.73 135.906Z" fill="#0D131A"/>
<path d="M57.0112 125.61C57.5448 125.81 57.9116 126.343 58.1117 127.209C58.3118 128.275 58.145 129.541 57.6115 131.007C56.7445 133.873 55.3105 134.973 53.3097 134.306C52.7094 134.106 52.3093 133.54 52.1092 132.607C51.9091 131.607 52.0092 130.541 52.4093 129.408C53.0763 127.875 53.8766 126.776 54.8103 126.109C55.6106 125.576 56.3443 125.41 57.0112 125.61Z" fill="white"/>
<path d="M60.3126 120.012C59.579 119.146 59.3789 118.479 59.7123 118.013C60.1125 117.546 60.7128 117.68 61.5131 118.413C62.9804 119.745 63.6473 121.878 63.5139 124.81C63.4472 126.276 63.2805 127.009 63.0137 127.009C62.6802 127.076 62.4135 126.41 62.2134 125.01C61.9466 122.678 61.313 121.012 60.3126 120.012Z" fill="#0D131A"/>
<path d="M101.029 138.505C101.963 138.705 102.597 139.338 102.93 140.404C103.33 141.537 103.23 143.003 102.63 144.802C102.097 146.402 101.33 147.568 100.329 148.301C99.3954 149.034 98.4284 149.234 97.4279 148.901C96.3608 148.567 95.6939 147.868 95.4271 146.801C95.0936 145.602 95.227 144.236 95.8273 142.703C96.4275 141.104 97.2612 139.938 98.3283 139.204C99.1954 138.538 100.096 138.305 101.029 138.505Z" fill="white"/>
<path d="M98.8285 129.808C100.363 129.475 101.196 129.608 101.33 130.208C101.463 130.807 100.729 131.307 99.1287 131.707C96.5943 132.44 94.5935 133.673 93.1262 135.406C92.0591 136.605 91.3921 137.072 91.1253 136.805C90.7919 136.605 91.092 135.872 92.0257 134.606C93.9599 131.874 96.2275 130.274 98.8285 129.808Z" fill="#0D131A"/>
<path d="M59.012 151.5C59.2788 151.166 60.3459 151.433 62.2134 152.299C64.1475 153.166 65.0479 153.799 64.9145 154.199C64.8478 154.598 64.2475 154.932 63.1137 155.198C61.9799 155.465 61.2129 155.465 60.8128 155.198L59.3122 153.399C58.8453 152.399 58.7453 151.766 59.012 151.5Z" fill="#0D131A"/>
<path d="M68.2159 168.293C62.8803 164.161 59.3455 162.096 57.6115 162.096L54.8103 162.195L52.1092 162.395C51.0421 162.395 50.2084 162.062 49.6081 161.396C48.8745 160.596 48.6411 159.563 48.9079 158.297C49.1079 157.431 49.4081 157.031 49.8082 157.097C50.1417 157.097 50.3418 157.531 50.4085 158.397C50.4085 159.996 51.0421 160.763 52.3093 160.696L57.7115 160.296C58.9787 160.363 60.8128 161.129 63.2138 162.595L69.4164 166.794C73.418 169.792 75.7857 171.325 76.5193 171.392L78.22 170.692C78.8203 169.959 79.2871 169.693 79.6206 169.892C79.9541 170.026 79.9541 170.526 79.6206 171.392C79.087 172.925 77.9532 173.524 76.2192 173.191L68.2159 168.293Z" fill="#0D131A"/>
<path d="M53.5098 161.496C53.5098 161.229 53.8766 161.096 54.6102 161.096C55.2772 161.162 55.6106 161.329 55.6106 161.596C55.2772 167.527 55.5439 172.058 56.411 175.19C57.2113 178.322 58.6452 180.255 60.7128 180.988C62.3801 181.654 64.4476 181.188 66.9153 179.588C69.6498 177.789 72.0841 175.024 74.2184 171.292L75.4189 171.492C76.0191 171.825 76.2525 172.125 76.1191 172.391C73.7182 176.39 70.8169 179.355 67.4155 181.288C64.5477 182.887 62.1467 183.354 60.2125 182.687C58.0116 181.954 56.3109 180.022 55.1104 176.89C53.7099 173.158 53.1763 168.026 53.5098 161.496Z" fill="#0D131A"/>
<path d="M60.1125 161.995C60.5127 161.862 60.9462 162.028 61.4131 162.495C61.8799 162.961 61.8466 163.228 61.313 163.295C59.9124 163.561 58.5785 164.661 57.3114 166.593C56.1109 168.393 55.544 170.025 55.6107 171.491C55.6773 172.358 55.5106 172.424 55.1104 171.691C54.777 170.958 54.6436 170.159 54.7103 169.292C54.9771 167.693 55.5773 166.227 56.511 164.894C57.5781 163.428 58.7786 162.462 60.1125 161.995Z" fill="#0D131A"/>
</g>
<defs>
<radialGradient id="paint0_radial_863_2" cx="0" cy="0" r="1" gradientUnits="userSpaceOnUse" gradientTransform="translate(150 150) rotate(90) scale(200)">
<stop stop-color="#FFF1AC"/>
<stop offset="1" stop-color="#BA5400"/>
</radialGradient>
<clipPath id="clip0_863_2">
<rect width="300" height="300" fill="white"/>
</clipPath>
</defs>
</svg>
