<svg width="300" height="300" viewBox="0 0 300 300" fill="none" xmlns="http://www.w3.org/2000/svg">
<g clip-path="url(#clip0_863_129)">
<rect width="300" height="300" fill="white"/>
<rect x="-50" y="-50" width="400" height="400" fill="url(#paint0_radial_863_129)"/>
<path d="M216.446 186.65C222.993 186.268 226.959 187.201 228.345 189.45C229.061 190.599 229.181 193.135 228.703 197.06C228.225 201.176 227.222 205.459 225.692 209.91C221.726 221.588 216.518 228.623 210.067 231.016C204.093 233.217 198.216 230.896 192.434 224.052C188.467 219.41 185.457 214.217 183.402 208.474C180.487 200.003 184.716 194.045 196.089 190.599C203.735 188.302 210.521 186.985 216.446 186.65Z" fill="#0D131A"/>
<path d="M225.764 191.03C226.911 193.04 225.979 198.448 222.969 207.254C219.672 216.826 215.825 222.425 211.429 224.052C197.045 217.448 189.256 212.231 188.061 208.403C187.106 205.148 187.297 202.396 188.635 200.147C190.307 197.371 193.7 195.241 198.813 193.758C204.977 191.939 210.64 190.719 215.801 190.096C221.631 189.331 224.952 189.642 225.764 191.03Z" fill="#D6E6AE"/>
<path d="M172.865 132.666C173.487 134.101 172.913 136.566 171.145 140.06C169.282 143.697 166.988 146.664 164.264 148.962C162.209 150.733 160.154 147.55 158.1 139.414C155.997 131.326 156.308 127.234 159.031 127.138C162.138 127.042 165.076 127.545 167.848 128.646C170.524 129.746 172.196 131.086 172.865 132.666Z" fill="#0D131A"/>
<path d="M170.428 133.096C170.906 134.101 170.5 135.848 169.21 138.337C167.728 141.065 165.769 143.266 163.332 144.941C161.899 145.898 160.513 143.697 159.175 138.337C157.789 133.024 157.956 130.32 159.677 130.225L164.694 130.727C167.991 131.254 169.903 132.043 170.428 133.096Z" fill="#6CBA5A"/>
<path d="M45.3493 166.263C45.3493 168.225 45.6121 171.001 46.1378 174.59C46.2333 177.031 45.3015 177.964 43.3423 177.39C39.2327 176.145 35.8638 174.47 33.2356 172.365C30.9419 170.594 29.6517 168.919 29.365 167.339C29.1261 165.951 29.8428 164.085 31.5153 161.74C33.2356 159.299 35.1948 157.48 37.393 156.284C39.4478 155.135 41.3114 155.757 42.9839 158.15C44.5608 160.4 45.3493 163.104 45.3493 166.263Z" fill="#0D131A"/>
<path d="M38.3964 159.156C40.4034 158.246 42.2432 158.581 43.9157 160.161C45.3493 161.501 46.3767 163.439 46.9979 165.976C47.6191 168.464 47.6669 170.57 47.1412 172.293C46.52 174.159 45.3493 174.901 43.629 174.518C41.3831 174.04 38.9938 173.083 36.4611 171.647C33.7373 170.067 32.2799 168.632 32.0887 167.34C31.9454 166.143 32.8294 164.492 34.7408 162.386C36.3656 160.567 37.5841 159.491 38.3964 159.156Z" fill="#6CBA5A"/>
<path d="M45.9227 163.104C47.2607 165.832 47.7385 168.488 47.3563 171.073C46.974 173.848 45.7315 174.997 43.629 174.518C41.7175 174.136 39.6389 173.346 37.3929 172.149C34.9081 170.857 33.2834 169.589 32.5188 168.345C33.8568 169.254 36.2461 169.11 39.6867 167.914C43.2706 166.717 45.3493 165.114 45.9227 163.104Z" fill="#5DA24D"/>
<path d="M170.428 135.178C170.046 136.71 169.282 138.337 168.135 140.06C166.749 142.07 165.148 143.697 163.332 144.941C162.615 145.42 161.803 144.822 160.895 143.147C160.083 141.615 159.414 139.701 158.888 137.404C159.701 138.217 161.349 138.433 163.834 138.05C166.414 137.571 168.613 136.614 170.428 135.178Z" fill="#5DA24D"/>
<path d="M225.979 194.188C225.549 199.214 224.068 204.789 221.535 210.915C218.477 218.286 215.108 222.665 211.428 224.053C197.045 217.448 189.256 212.231 188.061 208.403C196.472 209.838 204.404 208.929 211.859 205.675C218.357 202.851 223.064 199.022 225.979 194.188Z" fill="#B9C897"/>
<path d="M163.332 129.794C166.247 143.769 168.254 151.929 169.353 154.274C171.934 159.921 175.087 164.875 178.815 169.134C181.061 171.718 184.645 175.14 189.567 179.4C199.888 188.397 207.725 197.754 213.077 207.469C219.337 218.716 222.085 231.71 221.32 246.45C220.699 259.564 217.473 270.715 211.644 279.904C206.435 288.279 201.107 292.395 195.659 292.252C192.696 292.156 189.758 290.744 186.843 288.016C184.31 285.623 182.016 282.488 179.962 278.612C178.098 275.118 176.784 272.988 176.019 272.223C175.064 271.265 173.654 270.811 171.79 270.859C158.936 271.289 144.624 270.236 128.855 267.7C112.082 264.972 100.518 263.608 94.1624 263.608C91.1519 270.739 86.5167 277.966 80.2567 285.288C73.0889 293.663 67.3785 297.373 63.1256 296.415C57.6302 295.171 52.6844 287.49 48.2881 273.371C43.844 259.253 42.1238 245.613 43.1273 232.452C43.9396 221.683 43.4618 210.077 41.6937 197.634C40.738 190.886 38.6593 180.094 35.4576 165.257C32.5905 151.761 30.7508 141.28 29.9384 133.814C28.6482 122.232 28.7915 111.512 30.3685 101.653C32.6144 87.7256 38.9221 76.0001 49.2916 66.4761C60.3779 56.2821 73.734 51.0415 89.3599 50.7544C119.513 50.2279 140.801 64.9207 153.226 94.8327C156.953 103.734 160.322 115.388 163.332 129.794Z" fill="#0D131A"/>
<path d="M66.7812 217.664C67.7847 217.807 68.5015 218.86 68.9316 220.822C75.1915 216.802 91.9882 216.97 119.322 221.325C145.508 225.536 163.213 230.298 172.435 235.611L172.579 234.606C172.77 233.888 173.033 233.481 173.367 233.385C173.797 233.29 174.227 233.553 174.657 234.175C175.088 234.797 175.422 235.682 175.661 236.831C178.385 250.662 176.832 264.589 171.002 278.612C168.469 284.642 165.506 289.476 162.114 293.113C158.625 296.894 155.209 298.809 151.864 298.857C145.986 298.952 140.419 295.506 135.163 288.519C130.957 282.919 128.21 277.272 126.92 271.577C114.161 271.577 102.907 269.16 93.1589 264.326C76.7206 256.142 67.5219 242.12 65.5627 222.258C65.4671 221.301 65.5149 220.32 65.706 219.315C65.8972 218.166 66.2556 217.616 66.7812 217.664Z" fill="#0D131A"/>
<path d="M57.5347 286.868C63.938 285.528 69.3855 285.791 73.8774 287.657C69.72 291.869 66.3033 293.735 63.6273 293.257C61.9071 293.018 59.8762 290.888 57.5347 286.868Z" fill="#EEEEEF"/>
<path d="M159.748 290.601C156.642 294.286 153.847 296.2 151.362 296.344C150.263 296.392 148.949 296.057 147.42 295.339C145.604 294.429 143.812 293.137 142.044 291.462C147.921 288.926 153.823 288.638 159.748 290.601Z" fill="#EEEEEF"/>
<path d="M196.018 282.489C198.837 282.441 201.632 282.919 204.404 283.924C201.202 287.418 198.192 289.165 195.373 289.165C192.935 289.165 190.474 287.586 187.99 284.427C190.331 283.183 193.007 282.536 196.018 282.489Z" fill="#EEEEEF"/>
<path d="M151.72 100.289C155.017 108.664 157.717 118.236 159.82 129.004C162.114 140.73 164.144 149.153 165.913 154.274C168.541 161.884 175.47 171.073 186.699 181.841C198.789 193.423 206.339 202.253 209.35 208.331C212.169 214.074 214.296 220.224 215.729 226.781C217.258 233.864 217.832 240.899 217.449 247.887C216.972 255.879 215.442 263.201 212.862 269.854C210.616 275.645 207.797 280.335 204.404 283.924C201.632 282.919 198.837 282.441 196.018 282.489C193.007 282.537 190.331 283.183 187.99 284.427C186.078 282.082 184.095 278.684 182.04 274.233C179.842 269.447 177.453 267.078 174.872 267.126L175.876 257.434L176.234 247.671C176.043 243.46 175.398 241.258 174.299 241.067C173.2 240.827 172.603 243.412 172.507 248.82C172.316 258.535 170.882 267.246 168.206 274.951C166.008 281.364 163.189 286.581 159.748 290.601C153.823 288.639 147.921 288.926 142.044 291.462C138.89 288.447 136.214 284.547 134.016 279.761C131.387 273.874 129.643 266.934 128.783 258.942C127.971 251.141 126.967 247.288 125.773 247.384C124.626 247.432 124.435 251.332 125.199 259.086L126.131 267.413L119.967 267.557L111.15 266.552C100.446 264.542 91.6536 260.45 84.7725 254.276C77.509 247.767 72.9694 239.392 71.1535 229.15C70.6757 226.278 70.0545 225.082 69.2899 225.56C68.5731 226.039 68.5731 228.934 69.2899 234.247C70.8668 245.159 77.7241 254.683 89.8616 262.819C88.1413 266.887 85.8715 271.17 83.0522 275.669C79.9461 280.598 76.8878 284.595 73.8773 287.657C69.3855 285.791 63.9379 285.528 57.5346 286.868C54.1896 281.173 51.4658 273.276 49.3632 263.178C47.1173 252.314 46.2094 241.832 46.6395 231.734C47.1651 219.004 46.5678 206.441 44.8475 194.045C43.844 187.01 41.8848 176.935 38.9699 163.822C36.2461 151.761 34.5258 142.405 33.809 135.753C32.6621 125.319 32.8055 114.982 34.2391 104.74C36.0071 91.8657 40.9052 80.9539 48.9332 72.0042C58.1558 61.7623 70.15 55.9235 84.9158 54.4878C102.597 52.7648 117.338 56.785 129.141 66.5483C138.412 74.1579 145.938 85.4048 151.72 100.289Z" fill="#D6E6AE"/>
<path d="M271.997 118.092C271.997 125.989 271.782 131.996 271.352 136.111C270.492 143.817 268.867 147.645 266.478 147.598C264.996 147.55 263.228 145.276 261.173 140.778C257.924 133.742 255.129 128.454 252.787 124.912C241.701 108.449 223.471 97.1062 198.096 90.8845C183.283 87.2472 168.302 81.217 153.154 72.7938C141.112 66.1413 127.278 56.9524 111.652 45.2269C109.024 43.2647 106.969 42.0921 105.488 41.7092C103.433 41.1828 100.924 41.5178 97.9614 42.7143C93.0873 44.6765 90.5307 47.3327 90.2918 50.6828C90.1962 51.8315 90.8174 54.1766 92.1554 57.7181C92.6811 59.2018 91.8448 61.7383 89.6467 65.3277C87.4008 68.9172 85.5371 70.7119 84.0558 70.7119C82.7656 70.7119 80.9975 69.324 78.7516 66.5481C76.3145 63.6287 75.0959 61.0204 75.0959 58.7232C75.0959 55.6602 76.4578 51.6639 79.1816 46.7345C82.8133 40.1778 87.6875 35.2243 93.8041 31.8742C95.5243 30.917 98.7977 28.4523 103.624 24.48C109.263 19.8376 113.874 16.2721 117.458 13.7834C130.838 4.59448 143.86 0 156.523 0C171.958 0 186.771 2.96727 200.963 8.9018C214.821 14.6928 227.078 22.9245 237.735 33.5971C248.486 44.3654 256.825 56.8327 262.75 70.999C268.915 85.7875 271.997 101.485 271.997 118.092Z" fill="#0D131A"/>
<path d="M104.484 190.743C104.484 193.088 103.767 195.074 102.334 196.701C100.9 198.328 99.0365 199.19 96.7428 199.285C94.2102 199.429 91.797 198.759 89.5033 197.275C87.0184 195.648 85.776 193.734 85.776 191.532C85.776 189.235 86.7556 187.129 88.7148 185.215C90.7218 183.253 93.0872 182.271 95.811 182.271C98.1525 182.271 100.183 183.109 101.904 184.784C103.624 186.459 104.484 188.445 104.484 190.743Z" fill="#0D131A"/>
<path d="M69.29 184.784C69.29 187.129 68.4537 189.187 66.7812 190.958C65.0609 192.729 63.0301 193.614 60.6886 193.614C58.3471 193.614 55.7905 192.322 53.019 189.738C50.1996 187.105 48.7899 184.641 48.7899 182.343C48.7899 180.764 50.1996 179.185 53.019 177.605C56.0295 175.882 59.0161 175.332 61.9788 175.954C64.3203 176.481 66.1122 177.486 67.3547 178.969C68.6449 180.501 69.29 182.439 69.29 184.784Z" fill="#0D131A"/>
<path d="M141.112 177.677C142.02 179.735 141.805 181.936 140.467 184.282C139.177 186.435 137.408 187.991 135.163 188.948L128.496 189.163C126.203 188.35 124.602 186.89 123.694 184.784C122.786 182.63 122.762 180.501 123.622 178.395C124.53 176.337 126.059 174.829 128.21 173.872L135.593 173.513C138.412 174.231 140.252 175.619 141.112 177.677Z" fill="#0D131A"/>
<path d="M167.274 157.218C168.469 159.132 168.589 161.477 167.633 164.253C166.725 166.933 165.244 168.919 163.189 170.211C161.134 171.503 158.769 171.743 156.093 170.929C153.703 170.211 151.983 168.991 150.932 167.268C149.689 165.306 149.379 163.128 150 160.735C150.621 158.342 151.935 156.524 153.942 155.279C156.045 153.987 158.458 153.485 161.182 153.772C164.049 154.107 166.08 155.255 167.274 157.218Z" fill="#0D131A"/>
<path d="M268.771 111.344C269.488 119.193 269.608 126.181 269.13 132.307C268.652 138.002 267.816 141.209 266.621 141.926L264.399 136.614C257.613 123.644 250.446 113.618 242.895 106.535C234.82 99.0207 224.593 93.134 212.217 88.8746L198.67 84.0647L175.589 75.6654C166.51 72.411 153.871 65.6629 137.671 55.421L112.584 38.9814C110.529 37.7849 108.426 37.091 106.276 36.8995L100.112 37.5456C98.2003 37.9764 96.0977 38.8857 93.804 40.2736C91.4625 41.7094 89.5033 43.2887 87.9263 45.0117C85.3937 47.8832 84.0079 52.2862 83.769 58.2208C83.6256 61.3316 83.6973 64.7775 83.984 68.5584C83.0283 68.1755 81.9053 67.0987 80.6151 65.3279C79.086 63.1742 78.2497 61.0205 78.1064 58.8669C77.963 56.7611 78.5603 54.057 79.8983 50.7548C81.3319 47.2132 83.1239 44.2938 85.2742 41.9965C87.2812 39.8907 89.3599 38.096 91.5103 36.6124L96.3844 33.3819L110.72 22.8289C116.359 18.6652 121.09 15.4347 124.912 13.1375C135.808 6.5329 146.249 3.30241 156.236 3.44599C174.825 3.63743 192.744 8.54299 209.995 18.1627C228.249 28.261 242.728 42.0683 253.432 59.5848C261.795 73.1768 266.908 90.43 268.771 111.344Z" fill="#6CBA5A"/>
<path d="M209.35 16.6551C227.03 26.1791 241.725 40.4889 253.432 59.5847C258.927 68.4865 263.133 79.5899 266.048 92.8947C257.112 66.6679 242.656 45.7295 222.682 30.0796C202.612 14.3339 180.153 6.46109 155.304 6.46109C150.908 6.46109 145.532 7.39434 139.176 9.26085C131.722 11.4624 124.124 14.6211 116.383 18.737C123.407 13.8075 129.691 10.1702 135.234 7.82508C142.306 4.85781 149.307 3.3981 156.236 3.44596C175.685 3.6374 193.389 8.04044 209.35 16.6551Z" fill="#BFDDAD"/>
<path d="M263.037 136.686C260.648 130.895 258.091 126.013 255.367 122.041C244.663 106.295 227.078 95.2158 202.612 88.8026C184.74 84.1125 165.865 76.12 145.986 64.8252C132.749 57.2635 120.325 49.0078 108.713 40.0581C107.232 38.8616 105.201 38.4309 102.62 38.7659C99.9444 39.1009 97.0056 40.2256 93.8039 42.14C92.1314 43.145 90.6501 44.5569 89.3599 46.3755C88.1652 47.9549 87.3768 49.4864 86.9945 50.97C86.66 52.1186 86.9945 53.698 87.998 55.7081C89.0493 57.8139 89.551 59.0582 89.5032 59.4411C87.4484 65.567 85.6087 68.6061 83.984 68.5582C83.6973 64.7774 83.6256 61.3315 83.7689 58.2207C84.0079 52.2861 85.3937 47.8831 87.9263 45.0115C89.5032 43.2886 91.4624 41.7093 93.8039 40.2735C96.0977 38.8856 98.2002 37.9762 100.112 37.5455L106.276 36.8994C108.426 37.0909 110.529 37.7848 112.584 38.9813L141.542 54.703L176.449 73.1527C180.416 75.1628 191.502 79.7573 209.708 86.9361C225.239 93.0621 235.417 97.7762 240.243 101.079C247.937 106.343 254.436 114.12 259.74 124.41C262.464 129.77 264.757 135.609 266.621 141.926L266.549 141.998C265.785 142.333 264.614 140.562 263.037 136.686Z" fill="#5DA24D"/>
<path d="M264.901 110.411C264.662 110.746 264.351 110.866 263.969 110.77C263.204 110.674 262.392 109.693 261.532 107.827L253.719 91.5307C249.275 82.6289 246.193 76.9336 244.472 74.445C236.205 62.4802 227.58 53.363 218.596 47.0935C211.524 42.1161 201.728 37.4738 189.208 33.1665C177.978 29.2899 162.018 27.8541 141.327 28.8591L111.079 31.6589C109.597 31.8025 111.532 30.941 116.884 29.0745L125.343 26.2747C134.565 24.3125 142.76 23.116 149.928 22.6853C155.376 22.3024 162.209 22.3264 170.428 22.7571C175.828 23.0442 183.259 24.9586 192.72 28.5002C198.885 30.8453 204.141 33.0947 208.49 35.2483C219.241 40.5607 229.754 49.3428 240.028 61.5948C246.766 69.6351 251.401 76.2636 253.934 81.4803L259.74 96.6277L264.901 110.411Z" fill="#5DA24D"/>
<path d="M265.761 115.724C261.651 103.041 257.9 92.9665 254.507 85.5005C248.438 72.0521 240.506 61.1641 230.71 52.8366C209.111 34.4109 186.317 24.504 162.329 23.1161C147.706 22.2547 130.575 25.0066 110.935 31.3718C107.59 32.8555 104.962 33.8605 103.05 34.387C101.76 34.7698 101.043 34.7698 100.9 34.387C100.757 34.0041 101.259 33.4537 102.405 32.7358C106.563 30.1993 114.017 27.6867 124.769 25.198C133.418 23.1879 140.825 21.8718 146.989 21.2496C165.052 19.5267 182.16 22.1829 198.311 29.2182C207.629 33.2862 218.19 39.9147 229.993 49.1036C241.127 57.7661 250.493 70.736 258.091 88.0131C261.006 94.7134 264.112 103.878 267.409 115.508C267.696 116.561 267.648 117.279 267.266 117.662C266.884 118.045 266.382 117.399 265.761 115.724Z" fill="#0D131A"/>
<path d="M55.9577 189.091C54.1896 187.56 53.0189 185.957 52.4454 184.282L59.9717 185.071C61.8831 185.071 63.2211 184.688 63.9857 183.923C64.6547 183.253 64.9892 182.271 64.9892 180.979L64.7025 179.615C66.0405 180.86 66.7095 182.343 66.7095 184.066C66.7095 185.885 66.1599 187.56 65.0609 189.091C63.8184 190.719 62.3849 191.532 60.7601 191.532C59.3266 191.532 57.7258 190.719 55.9577 189.091Z" fill="#5DA24D"/>
<path d="M60.0433 186.148L55.7426 185.574L52.4454 184.282L52.1587 182.702C52.1587 181.171 53.1144 179.951 55.0258 179.041C56.6028 178.323 58.4186 177.964 60.4734 177.964C62.0503 177.964 63.46 178.515 64.7024 179.615L64.9892 180.979C64.9892 184.425 63.3405 186.148 60.0433 186.148Z" fill="#6CBA5A"/>
<path d="M97.603 185.071C98.941 185.454 100.016 186.148 100.828 187.153C101.689 188.158 102.119 189.331 102.119 190.671C102.119 192.394 101.617 193.853 100.613 195.05C99.5144 196.294 98.1286 196.916 96.4561 196.916C94.6402 196.916 92.9439 196.366 91.3669 195.265C89.6466 194.117 88.7865 192.729 88.7865 191.102C88.7865 189.953 89.2166 188.78 90.0767 187.584L90.4351 188.302C91.3908 189.642 93.0394 190.312 95.3809 190.312C96.48 190.312 97.4357 190.025 98.2481 189.45C99.0126 188.924 99.3949 188.254 99.3949 187.44C99.3949 186.435 98.7976 185.646 97.603 185.071Z" fill="#5DA24D"/>
<path d="M95.3809 190.312C93.0394 190.312 91.3908 189.642 90.4351 188.302L90.0767 187.584C91.6058 185.717 93.4933 184.784 95.7393 184.784L97.6029 185.071C98.7976 185.646 99.3949 186.435 99.3949 187.44C99.3949 188.254 99.0126 188.924 98.248 189.45C97.4357 190.025 96.4799 190.312 95.3809 190.312Z" fill="#6CBA5A"/>
<path d="M136.811 176.457L136.739 176.169C137.886 176.887 138.603 177.94 138.89 179.328C139.272 181.243 138.651 183.061 137.026 184.784C135.449 186.459 133.753 187.297 131.937 187.297C130.217 187.297 128.759 186.698 127.565 185.502C126.322 184.305 125.701 182.87 125.701 181.195C125.701 180.668 125.773 180.118 125.916 179.544C126.25 180.118 127.206 180.525 128.783 180.764L132.51 180.477C133.753 180.046 134.78 179.448 135.593 178.682C136.405 177.916 136.811 177.174 136.811 176.457Z" fill="#5DA24D"/>
<path d="M132.51 180.477L128.783 180.764C127.206 180.525 126.251 180.118 125.916 179.544C126.298 178.251 127.039 177.199 128.138 176.385C129.237 175.524 130.503 175.093 131.937 175.093C133.944 175.093 135.545 175.452 136.739 176.17L136.811 176.457C136.811 177.175 136.405 177.916 135.593 178.682C134.78 179.448 133.753 180.046 132.51 180.477Z" fill="#6CBA5A"/>
<path d="M163.261 157.146C164.121 157.672 164.718 158.318 165.052 159.084C165.817 160.615 165.913 162.266 165.339 164.037C164.718 165.856 163.643 167.148 162.114 167.914L156.738 168.129C154.731 167.459 153.345 166.382 152.58 164.899L152.294 164.181C153.106 164.947 155.041 164.588 158.1 163.104C159.008 162.673 160.083 161.764 161.325 160.376C162.663 158.94 163.308 157.863 163.261 157.146Z" fill="#5DA24D"/>
<path d="M158.1 163.104C155.041 164.588 153.106 164.947 152.294 164.181C151.816 162.745 151.888 161.309 152.509 159.874C153.082 158.438 154.086 157.385 155.519 156.715C156.666 156.141 157.956 155.901 159.39 155.997C160.871 156.093 162.161 156.476 163.261 157.146C163.308 157.864 162.663 158.94 161.325 160.376C160.083 161.764 159.008 162.673 158.1 163.104Z" fill="#6CBA5A"/>
<path d="M75.311 266.982C75.98 260.473 75.6694 254.108 74.3791 247.886C77.9153 253.295 83.0761 258.272 89.8617 262.819C88.1414 266.887 85.8716 271.17 83.0523 275.669C79.9462 280.598 76.8879 284.594 73.8774 287.657C72.3483 287.035 70.8908 286.628 69.505 286.437C72.5633 280.598 74.4986 274.113 75.311 266.982Z" fill="#B9C897"/>
<path d="M93.3023 251.404C103.051 254.371 113.563 255.305 124.841 254.204L125.199 259.086L126.131 267.413L119.967 267.557L111.15 266.552C103.17 265.068 96.1933 262.388 90.2201 258.511C84.0558 254.443 79.2772 249.298 75.8844 243.077C80.9497 246.618 86.7556 249.394 93.3023 251.404Z" fill="#B9C897"/>
<path d="M155.304 253.917C154.157 238.985 156.57 230.657 162.544 228.934C164.885 228.264 167.179 229.03 169.425 231.231C171.719 233.577 173.295 236.855 174.156 241.067C173.104 241.258 172.555 243.842 172.507 248.82C172.316 258.535 170.882 267.245 168.206 274.951C166.008 281.364 163.189 286.581 159.748 290.601L153.942 289.524C155.949 280.67 156.403 268.801 155.304 253.917Z" fill="#B9C897"/>
<path d="M182.04 274.233C179.842 269.447 177.453 267.078 174.872 267.126C175.589 263.01 176.043 257.482 176.234 250.543C187.99 246.331 195.42 243.22 198.526 241.21C207.128 235.754 212.05 228.025 213.292 218.022C216.589 227.977 217.975 237.932 217.449 247.887C216.972 255.879 215.442 263.201 212.862 269.854C210.616 275.645 207.797 280.335 204.404 283.924C201.632 282.919 198.837 282.441 196.018 282.489C193.007 282.537 190.331 283.183 187.99 284.427C186.078 282.082 184.095 278.684 182.04 274.233Z" fill="#B9C897"/>
<path d="M65.1326 293.257C66.7573 291.247 68.2147 288.974 69.505 286.437C70.8907 286.628 72.3482 287.035 73.8774 287.657C70.5801 291.055 67.6652 292.922 65.1326 293.257Z" fill="#C8C9CA"/>
<path d="M151.864 296.272L153.942 289.524L159.748 290.601C156.881 293.951 154.253 295.841 151.864 296.272Z" fill="#C8C9CA"/>
<path d="M196.018 282.489C198.837 282.441 201.632 282.919 204.404 283.924C201.202 287.418 198.192 289.165 195.373 289.165C192.935 289.165 190.474 287.586 187.99 284.427C190.331 283.183 193.007 282.536 196.018 282.489Z" fill="#C8C9CA"/>
<path d="M54.9542 286.437C59.3983 285.049 62.8628 284.427 65.3476 284.57C67.9758 284.714 71.2253 285.743 75.0959 287.657L73.6623 289.811C68.3103 287.227 62.5044 286.868 56.2444 288.734L54.9542 286.437Z" fill="#0D131A"/>
<path d="M151.577 288.088C155.017 288.088 158.554 289.069 162.185 291.032L160.178 292.683C157.646 291.486 154.802 290.864 151.649 290.816C147.969 290.72 144.337 291.438 140.753 292.97L138.818 291.319C143.501 289.117 147.754 288.04 151.577 288.088Z" fill="#0D131A"/>
<path d="M191.144 281.914C193.294 281.196 195.42 280.909 197.523 281.053C200.629 281.244 203.783 282.345 206.984 284.355L205.264 286.078C203.209 284.834 200.629 284.092 197.523 283.852C193.318 283.709 190.021 284.523 187.631 286.293L185.624 284.929C187.249 283.589 189.089 282.584 191.144 281.914Z" fill="#0D131A"/>
<path d="M126.704 83.7776C129.715 87.0321 132.295 91.4351 134.446 96.9868C136.453 102.251 137.647 107.444 138.03 112.565C138.412 117.877 137.743 121.897 136.023 124.625C134.876 126.444 131.483 127.832 125.844 128.789L114.017 129.22C112.058 128.789 110.242 125.989 108.57 120.821C106.897 115.795 105.894 110.196 105.559 104.022C105.177 97.2261 105.75 91.6265 107.28 87.2235C109.143 82.0547 112.13 79.2789 116.239 78.896C119.823 78.5131 123.312 80.1403 126.704 83.7776Z" fill="white"/>
<path d="M64.4875 132.737C64.0096 134.221 61.023 135.274 55.5276 135.896C50.0323 136.518 46.8067 136.183 45.851 134.891C44.1307 132.498 42.7927 128.765 41.837 123.692C40.9291 118.667 40.6424 113.57 40.9769 108.401C41.7415 95.5266 45.5404 89.0178 52.3738 88.8742C57.6302 88.7306 61.5486 94.4737 64.1291 106.103C66.5661 117.063 66.6856 125.941 64.4875 132.737Z" fill="white"/>
<path d="M106.061 108.975C105.201 104.189 105.081 99.2836 105.703 94.2584C106.563 87.1752 108.952 83.5379 112.871 83.3465C116.454 83.2029 119.823 85.7873 122.977 91.0997C125.844 96.0292 127.445 101.054 127.78 106.175L127.851 115.58C127.373 120.461 126.155 124.84 124.196 128.717C118.27 129.722 114.615 129.65 113.229 128.502C110.457 126.3 108.068 119.791 106.061 108.975Z" fill="#C6000B"/>
<path d="M50.8685 126.564C49.7216 122.161 49.1243 117.279 49.0765 111.919C48.8376 98.7574 51.1074 92.0811 55.886 91.8896C58.3708 91.7939 60.4734 93.7083 62.1937 97.6327C63.7706 101.318 64.8458 106.391 65.4192 112.852C65.7059 116.202 65.8015 119.935 65.7059 124.051C65.6104 128.98 65.2281 131.9 64.5591 132.809C63.9857 133.671 62.3132 134.389 59.5416 134.963L55.5276 135.537C53.6162 134.293 52.0631 131.302 50.8685 126.564Z" fill="#C6000B"/>
<path d="M111.939 112.349C112.082 115.412 112.751 117.805 113.946 119.528C114.997 121.108 116.215 121.825 117.601 121.682C121.09 121.395 122.523 117.734 121.902 110.698L124.697 113.642L126.848 116.441C126.991 119.504 126.657 122.424 125.844 125.2C125.175 127.497 124.626 128.669 124.196 128.717C119.847 129.818 116.861 130.129 115.236 129.65C111.843 128.645 109.478 124.984 108.14 118.667C108.187 118.236 108.833 117.04 110.075 115.077L111.939 112.349Z" fill="#F09CB4"/>
<path d="M50.5101 125.415L54.2374 120.605C54.8586 125.822 56.3878 128.239 58.8248 127.856C61.2619 127.473 62.1698 124.578 61.5486 119.169L66.1361 121.897L66.2794 128.789C66.1361 131.038 65.2998 132.69 63.7707 133.743C62.9105 134.365 61.8592 134.819 60.6168 135.107L54.9542 135.753C54.6197 135.8 53.9268 134.819 52.8755 132.809C51.6331 130.368 50.8446 127.904 50.5101 125.415Z" fill="#F09CB4"/>
<path d="M118.39 95.4792C118.724 97.92 118.605 100.074 118.031 101.94C117.458 103.759 116.622 104.74 115.523 104.884C114.376 104.979 113.277 104.214 112.225 102.586C111.222 100.959 110.553 98.9251 110.218 96.4843C109.884 94.0435 110.003 91.9137 110.577 90.0951C111.15 88.2764 112.01 87.2953 113.157 87.1517C114.256 87.0082 115.331 87.75 116.383 89.3772C117.386 91.0044 118.055 93.0384 118.39 95.4792Z" fill="white"/>
<path d="M60.0434 103.088C60.2824 105.29 60.1151 107.228 59.5417 108.903C59.016 110.531 58.2754 111.392 57.3197 111.488C56.3639 111.583 55.456 110.866 54.5959 109.334C53.7835 107.85 53.2579 106.008 53.0189 103.806C52.8278 101.557 53.0189 99.6186 53.5924 97.9914C54.118 96.3642 54.8587 95.5027 55.8144 95.407C56.7701 95.3592 57.6542 96.0771 58.4665 97.5607C59.3267 99.0443 59.8523 100.887 60.0434 103.088Z" fill="white"/>
<path d="M88.5715 136.255C93.7324 135.776 97.5791 136.518 100.112 138.48C100.685 139.821 100.972 141.639 100.972 143.936L100.398 148.962C97.3402 146.617 93.2545 145.803 88.1414 146.521C83.7451 147.095 81.1647 147.981 80.4001 149.177C79.9701 148.986 79.2772 147.645 78.3215 145.157C77.3657 142.62 77.079 141.113 77.4613 140.634C79.6117 138.145 83.3151 136.686 88.5715 136.255Z" fill="#922F00"/>
<path d="M90.8652 146.234C95.5004 146.042 98.6782 146.904 100.398 148.818C100.016 150.445 99.0844 152.049 97.603 153.628C95.5482 155.829 93.0634 157.05 90.1484 157.289C87.2335 157.576 84.7248 156.428 82.6222 153.843C80.663 151.498 79.994 150.038 80.6152 149.464C82.8133 147.454 86.23 146.377 90.8652 146.234Z" fill="#ED8599"/>
<path d="M78.3931 138.05C81.977 136.47 85.1548 135.561 87.9263 135.322C90.7935 135.082 94.2579 135.465 98.3197 136.47C100.805 137.14 102.692 136.47 103.982 134.46C105.034 132.785 105.75 132.163 106.133 132.594C106.515 133.072 106.324 134.125 105.559 135.752C105.129 136.757 104.532 137.595 103.767 138.265C103.051 138.887 102.405 139.198 101.832 139.198C102.31 144.367 101.641 148.722 99.825 152.264C97.818 156.045 94.7836 158.15 90.7218 158.581C86.4689 159.012 82.8133 157.074 79.755 152.766C77.3657 149.416 75.8605 145.683 75.2392 141.567C74.1402 141.663 73.3039 141.495 72.7305 141.065C72.0137 140.586 71.2969 139.557 70.5801 137.978C70.0067 136.638 69.935 135.872 70.3651 135.68C70.7952 135.441 71.4164 135.968 72.2287 137.26C72.8977 138.217 73.5667 138.791 74.2357 138.983C75.1915 139.174 76.5772 138.863 78.3931 138.05ZM89.8617 137.403C85.1309 137.547 81.2125 138.672 78.1064 140.778C78.3453 144.941 79.6355 148.65 81.977 151.905C84.4141 155.303 87.0901 156.906 90.005 156.715C94.4013 156.475 97.3162 153.843 98.7498 148.818C99.8967 144.798 99.9683 141.471 98.9648 138.839C96.7667 137.786 93.7323 137.308 89.8617 137.403Z" fill="#0D131A"/>
<path d="M89.5749 144.511C93.3978 144.223 96.8861 145.348 100.04 147.885C100.566 148.315 100.685 148.818 100.398 149.392C100.112 149.967 99.7055 150.038 99.1799 149.608C96.6472 147.502 93.5411 146.497 89.8616 146.592C86.1344 146.736 83.1239 148.028 80.8301 150.469L79.8267 150.397C79.5399 149.967 79.5877 149.536 79.97 149.105C82.5982 146.281 85.7999 144.75 89.5749 144.511Z" fill="#0D131A"/>
<path d="M125.414 105.673C124.602 99.4992 123.073 94.4501 120.827 90.5256C118.438 86.2662 115.738 84.3279 112.727 84.7107C111.15 84.95 109.836 86.0029 108.785 87.8694C107.638 89.8795 106.826 92.6793 106.348 96.2687L106.419 93.6125L106.348 90.741C106.73 88.683 107.471 86.8165 108.57 85.1415C109.812 83.3228 111.174 82.3178 112.655 82.1263C116.144 81.6477 119.393 83.6339 122.404 88.0848C125.414 92.5357 127.373 98.1831 128.281 105.027C128.855 109.574 128.95 114.001 128.568 118.308C128.09 123.142 127.039 126.731 125.414 129.076L124.124 128.933L123.049 128.789C124.435 126.683 125.319 123.189 125.701 118.308C126.035 114.001 125.94 109.789 125.414 105.673Z" fill="#0D131A"/>
<path d="M62.9105 105.17C62.0504 101.437 61.023 98.4701 59.8284 96.2686C58.4904 93.9235 57.1524 92.7748 55.8144 92.8227C53.664 92.9663 52.0871 95.1439 51.0836 99.3555C50.1279 103.328 49.8412 108.353 50.2234 114.431C50.4624 118.643 51.1314 122.663 52.2304 126.492C53.3295 130.464 54.5958 133.192 56.0294 134.676L55.5277 135.322L54.9542 135.896C52.995 134.699 51.2747 131.948 49.7934 127.64C48.4554 123.62 47.643 119.361 47.3563 114.862C46.974 108.592 47.3802 103.232 48.5748 98.7812C49.9606 93.8038 52.0871 91.0998 54.9542 90.669C56.4356 90.4297 57.9408 91.3151 59.47 93.3252C60.8558 95.1439 61.8593 97.2257 62.4805 99.5708C62.3371 100.241 62.4088 101.174 62.6955 102.371L62.9105 105.17Z" fill="#0D131A"/>
<path d="M116.454 77.8906C123.479 77.0292 129.261 80.9775 133.801 89.7358C138.006 97.7761 139.726 106.486 138.961 115.867C138.579 120.94 137.934 123.788 137.026 124.41C136.118 125.032 135.879 122.926 136.309 118.092C136.978 108.473 135.282 99.6187 131.22 91.5305C127.111 83.2987 122.308 79.4939 116.813 80.1161C109.167 80.9297 105.727 88.5154 106.491 102.873C106.778 108.329 107.638 113.546 109.072 118.523C110.505 123.405 111.986 126.396 113.516 127.497C114.424 128.167 116.478 128.43 119.68 128.286L128.998 127.138C132.2 126.468 133.777 126.444 133.729 127.066C133.681 127.736 131.937 128.43 128.496 129.148L119.178 130.44L112.87 129.937C110.194 128.55 107.925 125.152 106.061 119.743C104.245 114.527 103.289 108.832 103.194 102.658C103.098 96.0532 104.078 90.5733 106.133 86.2181C108.426 81.2408 111.867 78.4649 116.454 77.8906Z" fill="#0D131A"/>
<path d="M40.1168 101.15C42.2672 92.0093 46.3528 87.4148 52.3738 87.3669C58.9205 87.3191 63.5557 94.2826 66.2795 108.257C67.3308 113.761 67.7608 119.05 67.5697 124.123C67.3308 129.244 66.4706 132.666 64.9893 134.389C64.2725 135.202 62.5283 135.824 59.7567 136.255L51.8004 136.758C48.4076 136.71 46.7112 136.399 46.7112 135.824C46.7112 135.25 48.2882 134.963 51.442 134.963C57.6542 134.676 61.4531 133.982 62.8389 132.881C63.7946 132.115 64.3441 129.459 64.4875 124.912C64.6786 120.366 64.368 115.508 63.5557 110.339C61.5487 96.8431 57.9648 89.9753 52.8039 89.736C47.6908 89.4967 44.3936 94.2108 42.9123 103.878C41.5265 112.541 41.9327 120.725 44.1308 128.43C45.1821 132.02 45.2777 133.695 44.4175 133.455C43.6052 133.216 42.6733 131.278 41.622 127.64C38.6115 118.691 38.1098 109.861 40.1168 101.15Z" fill="#0D131A"/>
</g>
<defs>
<radialGradient id="paint0_radial_863_129" cx="0" cy="0" r="1" gradientUnits="userSpaceOnUse" gradientTransform="translate(150 150) rotate(90) scale(200)">
<stop stop-color="#D6E6AE"/>
<stop offset="1" stop-color="#6CBA5A"/>
</radialGradient>
<clipPath id="clip0_863_129">
<rect width="300" height="300" fill="white"/>
</clipPath>
</defs>
</svg>
