<svg xmlns="http://www.w3.org/2000/svg" fill="none" viewBox="0 0 300 300"><g clip-path="url(#a)"><path fill="#fff" d="M0 0h300v300H0z"/><path fill="url(#b)" d="M-50-50h400v400H-50z"/><path fill="#EF821E" d="m248.352 100.798 20.44-10.708-13.65 36.518 30.729-7.482-15.57 34.39 26.887 1.304-43.966 41.391 23.046 3.638-30.66 12.287c-20.576 8.192-31.254 12.287-32.031 12.287l-3.361-.686c-4.527-.732-9.762-2.128-15.707-4.187-7.499-2.929-15.798-7.025-24.898-12.287-7.636-4.439-12.232-7.437-13.786-8.992a304.375 304.375 0 0 1-25.241-17.71c-15.959-12.402-25.561-23.773-28.808-34.116-1.92-6.04-5.579-14.712-10.974-26.015-5.35-10.891-8.46-17.367-9.329-19.426l15.57 9.816-1.303-51.276 14.335 12.424 5.35-59.787 24.281 52.923 23.938-31.781L169.2 83.02l29.425-21.966-2.332 23.064 15.364-13.866 2.332 10.434 59.124-46.128-24.761 66.24Z"/><path fill="#0D131A" d="m270.712 37.853-25.721 20.112-28.122 21.76c-1.783 1.235-2.858 1.853-3.223 1.853-.549 0-1.029-.824-1.441-2.471l-1.303-5.972-12.62 11.326c-1.327 1.053-2.195 1.487-2.607 1.304-.457-.183-.594-1.12-.411-2.814l1.851-18.945-25.24 18.945c-1.875 1.19-3.041 1.693-3.499 1.51-.411-.183-.777-1.19-1.097-3.02-.412-2.334-1.989-17.275-4.733-44.824l-20.371 27.526-2.606 2.54c-.275.045-.869-.847-1.784-2.677l-21.468-46.952-4.458 53.678c-.183 1.465-.458 2.289-.823 2.472-.458.183-1.487-.32-3.087-1.51l-10.7-8.375 1.303 46.883c.092 1.693-.137 2.586-.686 2.677-.365 0-1.394-.48-3.086-1.441l-6.31-4.119-3.567-2.471 6.859 13.934h-3.704l-8.368-17.641c-.823-2.15-.96-3.318-.411-3.5.548-.138 2.172.754 4.87 2.676l11.385 8.238-1.646-47.776c-.091-2.837.069-4.301.48-4.393.32-.091 1.646.847 3.979 2.815 1.783 1.556 5.441 4.988 10.974 10.296l4.115-56.287c.183-2.746.617-4.279 1.303-4.599.823-.366 1.944 1.098 3.361 4.393l21.88 49.766 20.303-28.624c2.195-3.112 3.544-4.576 4.047-4.393.594.137 1.051 2.242 1.371 6.315l3.773 45.373 25.995-20.318c2.744-2.151 4.344-3.044 4.802-2.677.365.32.343 2.265-.069 5.834l-2.675 17.71L208.501 70.8c1.738-1.876 2.904-2.814 3.498-2.814.641.046 1.166 1.121 1.578 3.226l1.029 7.55c33.883-27.456 52.174-42.077 54.872-43.862 3.429-2.242 5.418-3.226 5.967-2.952.549.275.137 2.151-1.235 5.63l-23.869 61.297 15.364-9.61c3.064-1.922 4.824-2.723 5.281-2.403.458.412-.045 2.449-1.508 6.11-6.539 16.382-10.7 27.068-12.484 32.056l25.653-7.208c3.383-.961 5.19-1.167 5.418-.617.229.503-.548 2.677-2.332 6.521l-13.443 28.692 21.4.206c3.749.092 5.715.412 5.898.961.275.686-1.303 2.586-4.732 5.697l-39.371 36.038 16.393 1.922c4.71.64 7.156 1.373 7.339 2.196.092.595-1.303 1.51-4.184 2.746-5.624 2.471-16.598 6.91-32.923 13.317l-1.509-1.099-1.097-1.304 31.414-12.973-14.404-2.06c-3.109-.457-4.824-.892-5.144-1.304-.457-.595.297-1.876 2.263-3.844l21.4-19.769 18.931-17.229-20.851-.961-4.184-.755c-.137-.275.343-1.648 1.44-4.119l12.826-28.898-24.829 6.109-4.664.824c-.366-.275-.023-1.831 1.029-4.668l11.523-30.615-13.512 7.414c-3.064 1.647-4.847 2.402-5.35 2.265-.732-.229-.458-2.013.823-5.354l22.497-59.307Z"/><path fill="#FFE33F" d="M226.403 105.191c5.122-7.093 7.911-10.525 8.368-10.296.457.183-.754 5.24-3.635 15.17l-7.202 23.338a169.492 169.492 0 0 1 8.848-9.884c3.155-3.295 4.916-4.828 5.282-4.599.32.229-2.172 6.864-7.477 19.906l4.664-3.089c3.11-2.013 4.779-2.86 5.007-2.54.458.55-4.206 9.77-13.992 27.663 12.803-11.166 19.502-16.543 20.097-16.131.183.183-1.28 3.181-4.39 8.992l-7.339 13.111 8.985-3.295c3.567-1.144 5.419-1.556 5.556-1.235.137.366-2.218 3.066-7.065 8.1l-11.729 11.806 11.043-3.02c4.207-1.007 6.402-1.167 6.585-.481.229.733-5.51 5.743-17.216 15.033-11.569 9.198-17.628 13.797-18.176 13.797-4.344 0-14.244-2.356-29.7-7.07l-23.114-7.551c-.549-.228-.892-.595-1.029-1.098l-12.415-41.323c-8.231-27.548-12.094-41.391-11.591-41.528.868-.275 5.121 4.759 12.757 15.101.229-24.986.823-37.479 1.784-37.479.594-.046 2.217 6.521 4.869 19.701l3.841 19.769 1.166-6.11c.869-4.072 1.487-6.109 1.852-6.109.366-.046 1.715 4.759 4.047 14.415l4.87 21.417c1.783-5.766 3.018-8.718 3.704-8.855.686-.138 2.766 2.562 6.242 8.1 0-5.4.137-11.693.411-18.877.274-8.466.595-12.722.96-12.768.458-.045 1.418 2.86 2.881 8.718l3.087 14.003a69.07 69.07 0 0 1 2.88-6.109c1.144-2.105 1.898-3.135 2.264-3.089.366.046.891 1.396 1.577 4.05l1.509 7.276c12.392-22.972 18.817-34.39 19.274-34.253.32.092.503 1.762.549 5.011l-.137 8.443 11.248-16.131Z"/><path fill="#008086" d="M250.067 233.278c-7.316-10.251-16.187-15.147-26.613-14.69-2.835.092-7.065.755-12.689 1.991-5.35 1.19-9.26 1.785-11.729 1.785-4.755 0-10.631-2.174-17.627-6.521-8.094-5.034-14.816-8.146-20.166-9.336-6.356-1.418-13.146-1.35-20.371.206l-8.848 2.677c4.207-4.759 7.751-11.051 10.631-18.876 3.293-8.787 4.23-16.04 2.813-21.76 7.041 1.739 13.832 6.132 20.371 13.179 3.246 3.524 5.784 6.865 7.613 10.022l9.946-5.423-1.921 7.345 19.137-12.012-5.556 9.747 5.556-.481-1.921 4.325 7.065-2.059-2.744 5.628 7.065-3.089.343 5.149c10.105.228 19.068 3.455 26.887 9.678 7.956 6.361 12.209 13.866 12.758 22.515Z"/><path fill="#008086" d="M118.718 127.706c6.676 4.347 12.254 9.632 16.736 15.856 11.523 15.879 13.032 33.246 4.526 52.1 1.509-12.585-1.783-23.522-9.876-32.811-7.957-9.107-17.948-13.66-29.974-13.66-17.33 0-29.425 7.596-36.284 22.789-4.527 10.068-6.356 21.691-5.487 34.87.228 2.7.091 4.691-.412 5.972-.457 1.236-1.554 2.54-3.292 3.913-5.716 4.53-12.575 10.045-20.577 16.543-9.19 7.23-16.461 14.003-21.811 20.318-1.967 2.334-4.024 3.249-6.173 2.746-2.195-.595-3.384-2.517-3.567-5.766 3.887-10.297 9.397-19.861 16.53-28.693l6.585-7.962c1.829-2.334 2.812-4.188 2.949-5.56l.823-23.819c.274-9.931 1.715-18.351 4.321-25.261 6.127-16.291 15.547-27.731 28.259-34.321 11.477-5.995 24.624-7.574 39.439-4.736 5.487 1.052 11.249 3.546 17.285 7.482Z"/><path fill="#FFF8B0" d="M250.753 234.857c2.56 4.576 2.72 11.189.48 19.838-2.287 8.969-6.242 16.039-11.866 21.21-6.173 5.675-13.558 9.473-22.155 11.395-7.59 1.693-12.963 1.51-16.118-.549-3.155-2.06-3.978-4.371-2.469-6.933 2.332-2.563 3.543-4.371 3.635-5.423-6.905 1.236-15.479 2.013-25.721 2.334-4.07 3.615-9.054 6.155-14.953 7.619l-12.689.481c-2.698-.687-4.184-1.762-4.458-3.227-.457-2.059 1.875-4.507 6.996-7.344-4.618-.778-10.86-2.769-18.725-5.972-7.499-3.021-12.003-5.263-13.512-6.727-2.424 0-4.253-.755-5.487-2.265-1.098-1.373-1.601-3.181-1.509-5.423l-5.968-8.1c-9.51 8.237-18.199 13.088-26.064 14.552-5.898 1.099-9.808.412-11.728-2.059-1.28-1.693-.984-5.057.891-10.09 1.875-5.034 4.459-9.313 7.75-12.837l2.744-2.539c-5.898 1.876-10.334 3.638-13.306 5.285-17.696 9.839-32.191 18.945-43.486 27.32-3.75 2.745-6.196 4.416-7.339 5.011-1.737.961-3.887 1.51-6.447 1.647-4.07.229-6.7-2.196-7.888-7.276-1.006-4.576-.617-8.946 1.166-13.111.457 2.929 1.6 4.668 3.43 5.217 1.828.503 3.68-.366 5.555-2.608 2.378-2.838 6.356-6.636 11.935-11.395l13.032-10.64 9.465-8.031 9.26-7.756c1.554-1.236 2.629-2.449 3.223-3.638.55-1.236.755-2.746.618-4.531-1.19-15.01 1.143-28.006 6.996-38.989 7.225-13.499 18.542-20.249 33.952-20.249 12.757 0 23.274 5.171 31.551 15.513 8.505 10.571 10.951 22.149 7.339 34.733-.046.458-.823 1.991-2.332 4.599l-2.949 4.736c5.487-1.739 9.351-2.791 11.591-3.157l14.816.549c5.258.961 12.026 3.913 20.302 8.855 7.911 4.713 13.352 7.207 16.324 7.482 2.515.274 6.539-.183 12.072-1.373 6.356-1.327 10.38-2.036 12.072-2.128 13.535-.641 23.526 4.691 29.974 15.994Z"/><path fill="#D2ECFA" d="M146.634 277.69c2.743-.504 5.51-.16 8.299 1.029 2.698 1.19 4.687 2.838 5.967 4.943-2.195 1.418-5.327 1.899-9.397 1.441-3.841-.457-6.104-1.35-6.79-2.677-.549-1.235-.64-2.288-.274-3.157.366-.824 1.097-1.35 2.195-1.579ZM199.859 278.651c2.515-1.373 6.379-.938 11.592 1.304 5.167 2.288 7.316 4.507 6.447 6.658l-.068.069c-1.921 1.19-4.847 1.624-8.78 1.304-4.024-.32-7.247-1.327-9.671-3.02-1.143-.824-1.715-1.876-1.715-3.158.046-1.327.778-2.379 2.195-3.157Z"/><path fill="#DDD698" d="M107.538 245.977c-5.213 4.805-12.438 8.946-21.675 12.424-10.242 3.89-16.301 3.821-18.176-.206 4.481.916 10.448-1.167 17.902-6.246 6.493-4.393 11.477-9.015 14.952-13.866l3.087 3.913c1.052 1.281 2.355 2.608 3.91 3.981Z"/><path fill="#DDD698" d="M111.036 252.292c-5.35-7.78-10.289-14.461-14.816-20.044 5.945 5.171 11.638 9.542 17.079 13.111-1.28 2.105-2.035 4.416-2.263 6.933ZM140.186 271.443l-11.729-4.805c-3.475-1.556-6.561-3.272-9.259-5.148l9.602-.412c3.796-.274 6.928-1.258 9.397-2.951 11.569 4.255 23.229 6.338 34.981 6.246 6.584-.091 13.649-.961 21.194-2.608-1.097-1.556-1.966-3.684-2.606-6.384l-.618-3.501c7.271 8.695 16.942 13.637 29.014 14.827 9.877 1.007 19.296-.435 28.259-4.325-5.305 11.67-15.433 20.044-30.386 25.124 1.235-1.877-.48-4.05-5.144-6.521-4.801-2.563-9.259-3.364-13.375-2.403l2.881-4.05-23.183 1.716c-17.239.412-30.248-1.19-39.028-4.805Z"/><path fill="#DDD698" d="M113.299 258.47c4.253.32 10.106-1.739 17.559-6.178l17.902-11.601c3.658-2.196 6.173-2.768 7.545-1.716 1.189.961 1.143 2.586-.137 4.874-3.933 7.139-11.821 12.493-23.664 16.062-4.893 1.51-9.122 2.174-12.689 1.991-3.795-.229-5.967-1.373-6.516-3.432ZM151.229 274.464l8.505.892 15.844 1.304c.138 1.373-2.24 3.043-7.133 5.011l-7.408 2.54c-.914-2.7-3.155-4.645-6.721-5.835-3.11-1.052-5.808-1.212-8.094-.48.777-.961 1.852-1.808 3.224-2.54l1.783-.892Z"/><path fill="#B6CCD9" d="m160.832 284.211-5.693.824c-4.116.32-6.928.022-8.437-.893l5.762-1.235c3.612-1.099 4.778-2.357 3.498-3.776l2.469 1.305c1.6 1.189 2.401 2.448 2.401 3.775ZM212.823 280.916c2.012.412 3.475 1.556 4.389 3.432.503.915.778 1.808.823 2.677-3.841 1.327-7.613 1.739-11.317 1.236l-4.458-1.099c6.081.367 9.671-.572 10.768-2.814.32-.686.389-1.464.206-2.334l-.411-1.098Z"/><path fill="#0D131A" d="M144.782 277.896c.686-.778 1.783-1.579 3.292-2.403l2.881-1.853 2.743.412-6.378 3.981c-2.881 1.968-2.881 3.615 0 4.942 2.926 1.373 6.996 1.442 12.209.206 3.2-.778 6.584-1.99 10.151-3.638 3.155-1.556 5.03-2.723 5.624-3.501l5.144-.48c-.868.961-3.338 2.54-7.407 4.736-4.985 2.746-9.351 4.508-13.101 5.286-5.99 1.281-10.654.984-13.992-.893-3.201-1.83-3.59-4.095-1.166-6.795Z"/><path fill="#0D131A" d="m153.287 279.2-8.505-.275 1.372-1.51c3.017-.686 6.31-.412 9.876.824 3.613 1.235 5.419 2.791 5.419 4.667l-1.372.756c-.366-1.877-2.629-3.364-6.79-4.462ZM106.166 244.535l.823.961.823.961c-6.676 7.093-15.021 11.921-25.035 14.484-9.054 2.334-14.587 2.151-16.599-.549-1.646-2.151-1.486-5.949.48-11.395 2.058-5.629 5.099-10.319 9.123-14.072 3.155-1.373 5.35-2.265 6.584-2.677-5.304 4.165-9.168 9.13-11.591 14.896-2.104 4.896-2.561 8.26-1.372 10.09 1.326 2.105 5.555 2.265 12.689.481 8.368-2.105 16.393-6.498 24.075-13.18Z"/><path fill="#0D131A" d="M95.877 230.326c3.384 3.341 6.585 7.093 9.603 11.258l6.996 10.022-1.029 3.157-9.259-12.767c-3.613-4.897-6.768-8.558-9.466-10.983l3.155-.687ZM160.42 276.866c-17.65-2.288-32.214-7.574-43.691-15.856h4.183c10.883 6.91 24.418 11.326 40.606 13.248 13.717 1.647 27.298 1.372 40.742-.824l.617 1.579c-12.62 3.294-26.773 3.912-42.457 1.853ZM101.364 150.907c-13.717 0-24.326 5.011-31.825 15.033-7.5 10.022-10.609 23.315-9.328 39.881.228 3.341-.183 5.949-1.235 7.825-1.143 2.06-3.864 4.805-8.162 8.237-10.197 8.146-15.981 12.791-17.353 13.935a252.876 252.876 0 0 0-18.382 17.023c-3.43 3.57-6.402 5.309-8.917 5.217-2.423-.092-3.59-1.876-3.498-5.354l1.097-1.853c-.411 2.333.412 3.615 2.47 3.844 2.195.274 4.732-1.19 7.613-4.394 4.801-5.354 11.066-11.28 18.794-17.778l17.902-14.415c2.789-2.197 4.48-3.707 5.075-4.53 1.143-1.648 1.623-3.936 1.44-6.865-1.28-17.801 2.104-32.101 10.152-42.901 8.093-10.983 19.548-16.36 34.363-16.131 12.026.183 22.018 4.873 29.974 14.072 8.231 9.518 11.18 20.524 8.848 33.017-.091.64-.526 1.578-1.303 2.814l-1.509 2.746c2.926-13.317.48-24.986-7.339-35.008-7.499-9.61-17.125-14.415-28.877-14.415Z"/><path fill="#0D131A" d="M86.55 120.087c-15.273.183-28.283 6.475-39.028 18.876-12.53 14.369-17.994 33.566-16.393 57.591.32 4.897.251 8.215-.206 9.953-.412 1.648-1.806 4.05-4.184 7.208-7.042 9.335-11.958 16.291-14.747 20.867-4.801 7.734-7.682 14.53-8.642 20.387-1.235 7.368-.274 12.127 2.88 14.278 3.019 2.059 7.18 1.167 12.484-2.677 7.408-5.354 15.638-10.846 24.692-16.475 10.243-6.406 18.337-10.959 24.281-13.659 6.813-3.066 14.655-5.469 23.526-7.208 8.688-1.693 16.119-4.004 22.292-6.933 3.749-1.784 5.327-2.173 4.733-1.167-.595.916-2.218 2.151-4.87 3.707-6.905 3.341-14.61 5.835-23.115 7.482-8.46 1.647-16.096 4.119-22.909 7.413-11.614 5.675-27.436 15.605-47.464 29.791-5.899 4.165-10.86 5.24-14.884 3.226-4.664-2.288-6.104-8.397-4.321-18.327 1.143-6.452 4.573-14.232 10.288-23.339 3.796-6.132 8.345-12.424 13.65-18.876 1.966-2.38 3.132-4.508 3.498-6.384.274-1.373.297-4.256.068-8.649-1.326-24.071 3.544-43.359 14.61-57.866 10.654-14.048 25.24-21.37 43.76-21.965 15.09-.504 28.351 3.798 39.782 12.905 10.334 8.328 16.805 18.442 19.411 30.34 2.103 9.564 1.509 19.54-1.783 29.928-2.835 8.923-6.814 16.062-11.935 21.416-2.149 2.243-3.498 3.112-4.047 2.609-.594-.55.435-2.334 3.087-5.354 4.481-5.08 7.979-12.013 10.494-20.799 2.835-9.793 3.269-18.488 1.303-26.084-3.246-12.402-9.694-22.446-19.342-30.134-10.334-8.237-22.658-12.265-36.97-12.081Z"/><path fill="#0D131A" d="M237.172 220.305c6.585 3.203 11.157 8.168 13.718 14.895.366 1.007.48 1.67.343 1.991-.275.594-.389 1.327-.343 2.196-2.469-7.596-7.293-13.111-14.473-16.543-7.224-3.478-15.135-3.958-23.732-1.441-8.367 2.196-15.135 2.631-20.302 1.304-2.927-.778-7.065-2.975-12.415-6.59-7.042-4.85-14.769-7.848-23.183-8.992-10.243-1.373-19.411.504-27.504 5.629l1.714-2.197c6.996-5.949 15.89-8.008 26.682-6.178 8.23 1.419 16.21 4.668 23.937 9.748 5.488 3.661 9.832 5.743 13.032 6.246 3.75.595 10.06-.046 18.931-1.922 8.688-2.196 16.553-1.579 23.595 1.854Z"/><path fill="#0D131A" d="M253.428 250.919c-.778 5.583-2.63 10.937-5.556 16.062-3.384 5.904-7.728 10.594-13.032 14.072a53.854 53.854 0 0 1-18.451 7.551c-7.682 1.556-13.603.869-17.764-2.059-1.509-1.099-2.241-2.517-2.195-4.256.091-1.785.937-3.432 2.537-4.942 1.235-1.19 1.944-2.174 2.127-2.952.183-.732-.023-1.442-.618-2.128-2.423-2.654-4.366-5.034-5.83-7.139-2.698-3.935-4.275-7.894-4.732-11.875-.412-3.798-.023-7.619 1.166-11.463 1.143-3.57 2.812-6.682 5.007-9.336 1.463-1.784 2.812-2.928 4.046-3.432 1.235-.503 1.144.046-.274 1.648a29.519 29.519 0 0 0-5.693 10.021 29.113 29.113 0 0 0-1.509 11.532c.275 3.616 1.692 7.459 4.253 11.532.869 1.419 2.538 3.661 5.007 6.727 1.92 2.426 1.897 4.645-.069 6.659-1.463 1.51-2.355 2.791-2.675 3.844-.411 1.418.115 2.631 1.578 3.638 3.384 2.333 8.048 2.974 13.992 1.922 6.63-1.144 13.489-4.233 20.577-9.267 4.344-3.02 7.773-6.91 10.288-11.669 2.378-4.348 3.887-9.198 4.527-14.553 1.601-13.911-1.532-25.535-9.396-34.87-7.591-9.015-17.468-13.591-29.631-13.728l-1.921-.138-.137-2.196.137-2.677-4.732 1.922-2.881 1.029c-.457 0-.457-.48 0-1.441l2.126-4.05-3.429.961-2.95.412c-.183-.183-.114-.687.206-1.51l1.372-2.678-3.91.618-1.166-.137c-.137-.229.069-.732.618-1.51l4.389-7.002c-.869.183-6.516 3.821-16.941 10.914l-1.921 1.167c-.32.046-.343-.526-.068-1.716l1.783-6.04c-2.469 1.785-4.573 3.134-6.31 4.05-1.235.686-1.898 1.006-1.989.961-.183 0-.663-.572-1.441-1.716-4.161-6.041-8.162-10.594-12.003-13.66-3.795-2.975-8.597-5.4-14.404-7.276-.411-.824-.663-1.625-.754-2.403-.092-.869.137-1.235.686-1.098 6.173 1.968 11.545 4.828 16.118 8.58 4.161 3.478 8.345 8.352 12.552 14.621l5.693-3.363c2.835-1.694 4.39-2.426 4.664-2.197.503.458-.069 2.723-1.715 6.796 12.941-8.649 19.754-12.745 20.44-12.287.64.457-1.44 4.278-6.242 11.463l2.401-.481c1.646-.274 2.561-.274 2.744 0 .274.458-.503 1.762-2.332 3.913l4.115-1.785c2.058-.823 3.224-1.121 3.498-.892.457.32-.572 2.311-3.087 5.972l3.018-1.579c2.058-1.052 3.27-1.464 3.636-1.235l.411 2.127v3.57c14.267.091 25.447 5.56 33.54 16.405 7.454 9.976 10.289 21.325 8.506 34.047Z"/><path fill="#0D131A" d="M199.173 278.788c2.012-2.105 5.83-2.151 11.455-.137 5.715 2.059 8.368 4.667 7.956 7.825l-1.509.412c.823-2.151-1.623-4.302-7.339-6.453-5.716-2.15-9.328-2.219-10.837-.206-.092-.228-.046-.457.137-.686l.137-.755ZM153.012 245.565c1.83-2.242 3.087-3.364 3.773-3.364.686-.045.16 1.35-1.578 4.188-4.618 7.321-12.14 12.424-22.566 15.307-4.298 1.19-8.276 1.693-11.934 1.51-3.658-.137-6.265-.938-7.819-2.402-3.11-2.975-3.384-7.871-.824-14.69 2.881-7.734 8.551-14.232 17.011-19.494 3.886-2.472 6.15-3.501 6.79-3.089.64.366-.754 1.83-4.184 4.393-6.859 4.576-11.98 10.067-15.364 16.474-3.201 6.041-3.727 10.548-1.578 13.523.869 1.189 2.767 1.876 5.693 2.059l10.22-1.098c9.466-2.289 16.919-6.727 22.36-13.317ZM15.285 258.607c.685-1.235 1.394-1.739 2.126-1.51.731.229.823 1.098.274 2.608l-1.989 4.668-.754 1.579c-.183.091-.298-.366-.343-1.373-.092-3.02.137-5.011.686-5.972ZM89.018 174.932c4.024-1.831 7.911-1.854 11.661-.069 3.886 1.831 6.859 5.217 8.916 10.159 1.235 2.929 1.601 4.714 1.098 5.354-.549.595-1.418-.572-2.607-3.5-1.646-3.936-4.092-6.705-7.339-8.306-3.292-1.648-6.676-1.762-10.151-.343-8.505 3.432-13.855 13.499-16.05 30.202-.229 1.877-.64 2.769-1.235 2.677-.64-.045-.869-1.144-.686-3.295.64-8.832 2.561-16.199 5.762-22.102 2.835-5.263 6.379-8.855 10.631-10.777Z"/></g><defs><radialGradient id="b" cx="0" cy="0" r="1" gradientTransform="rotate(90 0 150) scale(200)" gradientUnits="userSpaceOnUse"><stop stop-color="#EF821E"/><stop offset="1" stop-color="#FFE33F"/></radialGradient><clipPath id="a"><path fill="#fff" d="M0 0h300v300H0z"/></clipPath></defs></svg>