<svg width="300" height="300" viewBox="0 0 300 300" fill="none" xmlns="http://www.w3.org/2000/svg">
<g clip-path="url(#clip0_863_256)">
<rect width="300" height="300" fill="white"/>
<rect x="-50" y="-50" width="400" height="400" fill="url(#paint0_radial_863_256)"/>
<path d="M248.352 100.798L268.792 90.0899L255.142 126.608L285.871 119.126L270.301 153.516L297.188 154.82L253.222 196.211L276.268 199.849L245.608 212.136C225.032 220.328 214.354 224.423 213.577 224.423L210.216 223.737C205.689 223.005 200.454 221.609 194.509 219.55C187.01 216.621 178.711 212.525 169.611 207.263C161.975 202.824 157.379 199.826 155.825 198.271C147.091 192.779 138.677 186.876 130.584 180.561C114.625 168.159 105.023 156.788 101.776 146.445C99.8555 140.405 96.1974 131.733 90.8017 120.43C85.4517 109.539 82.3423 103.063 81.4735 101.004L97.0433 110.82L95.7401 59.544L110.075 71.9683L115.425 12.1807L139.706 65.104L163.644 33.3226L169.2 83.0197L198.625 61.0541L196.293 84.118L211.657 70.2522L213.989 80.6859L273.113 34.5581L248.352 100.798Z" fill="#EF821E"/>
<path d="M270.712 37.8528L244.991 57.965L216.869 79.7247C215.086 80.9603 214.011 81.5781 213.646 81.5781C213.097 81.5781 212.617 80.7544 212.205 79.1069L210.902 73.135L198.282 84.461C196.955 85.5136 196.087 85.9483 195.675 85.7653C195.218 85.5822 195.081 84.6441 195.264 82.9509L197.115 64.0056L171.875 82.9509C170 84.1407 168.834 84.6441 168.376 84.461C167.965 84.278 167.599 83.2712 167.279 81.4408C166.867 79.1069 165.29 64.1657 162.546 36.6172L142.175 64.1429L139.569 66.6826C139.294 66.7284 138.7 65.836 137.785 64.0056L116.317 17.0541L111.859 70.7325C111.676 72.1969 111.401 73.0206 111.036 73.2037C110.578 73.3867 109.549 72.8833 107.949 71.6935L97.249 63.3192L98.5522 110.202C98.6437 111.895 98.4151 112.788 97.8664 112.879C97.5005 112.879 96.4717 112.399 94.7798 111.438L88.4696 107.319L84.9029 104.848L91.7619 118.782H88.058L79.6901 101.141C78.867 98.9904 78.7299 97.8235 79.2786 97.6404C79.8273 97.5031 81.4506 98.3955 84.1484 100.317L95.5343 108.555L93.8882 60.7794C93.7967 57.9422 93.9567 56.4778 94.3683 56.3863C94.6884 56.2947 96.0144 57.2329 98.3465 59.2006C100.13 60.7565 103.788 64.1886 109.321 69.497L113.436 13.2101C113.619 10.4644 114.053 8.9314 114.739 8.61107C115.562 8.24497 116.683 9.70935 118.1 13.0042L139.98 62.77L160.283 34.1461C162.478 31.0343 163.827 29.5699 164.33 29.753C164.924 29.8902 165.381 31.9953 165.701 36.0681L169.474 81.4408L195.469 61.1226C198.213 58.9718 199.813 58.0794 200.271 58.4455C200.636 58.7659 200.614 60.7107 200.202 64.2801L197.527 81.9899L208.501 70.8012C210.239 68.925 211.405 67.9868 211.999 67.9868C212.64 68.0326 213.165 69.108 213.577 71.213L214.606 78.7637C248.489 51.3067 266.78 36.6859 269.478 34.9012C272.907 32.6588 274.896 31.675 275.445 31.9495C275.994 32.2241 275.582 34.1003 274.21 37.5782L250.341 98.876L265.705 89.266C268.769 87.344 270.529 86.5432 270.986 86.8635C271.444 87.2754 270.941 89.3118 269.478 92.9727C262.939 109.355 258.778 120.041 256.994 125.029L282.647 117.821C286.03 116.86 287.837 116.654 288.065 117.204C288.294 117.707 287.517 119.881 285.733 123.725L272.29 152.417L293.69 152.623C297.439 152.715 299.405 153.035 299.588 153.584C299.863 154.27 298.285 156.17 294.856 159.281L255.485 195.319L271.878 197.241C276.588 197.881 279.034 198.614 279.217 199.437C279.309 200.032 277.914 200.947 275.033 202.183C269.409 204.654 258.435 209.093 242.11 215.5L240.601 214.401L239.504 213.097L270.918 200.124L256.514 198.064C253.405 197.607 251.69 197.172 251.37 196.76C250.913 196.165 251.667 194.884 253.633 192.916L275.033 173.147L293.964 155.918L273.113 154.957L268.929 154.202C268.792 153.927 269.272 152.554 270.369 150.083L283.195 121.185L258.366 127.294L253.702 128.118C253.336 127.843 253.679 126.287 254.731 123.45L266.254 92.8354L252.742 100.249C249.678 101.896 247.895 102.651 247.392 102.514C246.66 102.285 246.934 100.501 248.215 97.1599L270.712 37.8528Z" fill="#0D131A"/>
<path d="M226.403 105.191C231.525 98.0982 234.314 94.666 234.771 94.8949C235.228 95.0779 234.017 100.135 231.136 110.065L223.934 133.403C226.815 129.925 229.764 126.631 232.782 123.519C235.937 120.224 237.698 118.691 238.064 118.92C238.384 119.149 235.892 125.784 230.587 138.826L235.251 135.737C238.361 133.724 240.03 132.877 240.258 133.197C240.716 133.747 236.052 142.967 226.266 160.86C239.069 149.694 245.768 144.317 246.363 144.729C246.546 144.912 245.083 147.91 241.973 153.721L234.634 166.832L243.619 163.537C247.186 162.393 249.038 161.981 249.175 162.302C249.312 162.668 246.957 165.368 242.11 170.402L230.381 182.208L241.424 179.188C245.631 178.181 247.826 178.021 248.009 178.707C248.238 179.44 242.499 184.45 230.793 193.74C219.224 202.938 213.165 207.537 212.617 207.537C208.273 207.537 198.373 205.181 182.917 200.467L159.803 192.916C159.254 192.688 158.911 192.321 158.774 191.818L146.359 150.495C138.128 122.947 134.265 109.104 134.768 108.967C135.636 108.692 139.889 113.726 147.525 124.068C147.754 99.082 148.348 86.5891 149.309 86.5891C149.903 86.5433 151.526 93.1101 154.178 106.29L158.019 126.059L159.185 119.949C160.054 115.877 160.672 113.84 161.037 113.84C161.403 113.794 162.752 118.599 165.084 128.255L169.954 149.672C171.737 143.906 172.972 140.954 173.658 140.817C174.344 140.679 176.424 143.379 179.9 148.917C179.9 143.517 180.037 137.224 180.311 130.04C180.585 121.574 180.906 117.318 181.271 117.272C181.729 117.227 182.689 120.132 184.152 125.99L187.239 139.993C188.153 137.796 189.113 135.76 190.119 133.884C191.263 131.779 192.017 130.749 192.383 130.795C192.749 130.841 193.274 132.191 193.96 134.845L195.469 142.121C207.861 119.149 214.286 107.731 214.743 107.868C215.063 107.96 215.246 109.63 215.292 112.879L215.155 121.322L226.403 105.191Z" fill="#FFE33F"/>
<path d="M250.067 233.278C242.751 223.027 233.88 218.131 223.454 218.588C220.619 218.68 216.389 219.343 210.765 220.579C205.415 221.769 201.505 222.364 199.036 222.364C194.281 222.364 188.405 220.19 181.409 215.843C173.315 210.809 166.593 207.697 161.243 206.507C154.887 205.089 148.097 205.157 140.872 206.713L132.024 209.39C136.231 204.631 139.775 198.339 142.655 190.514C145.948 181.727 146.885 174.474 145.468 168.754C152.509 170.493 159.3 174.886 165.839 181.933C169.085 185.457 171.623 188.798 173.452 191.955L183.398 186.532L181.477 193.877L200.614 181.865L195.058 191.612L200.614 191.131L198.693 195.456L205.758 193.397L203.014 199.025L210.079 195.936L210.422 201.085C220.527 201.313 229.49 204.54 237.309 210.763C245.265 217.124 249.518 224.629 250.067 233.278Z" fill="#008086"/>
<path d="M118.718 127.706C125.394 132.053 130.972 137.338 135.454 143.562C146.977 159.441 148.486 176.808 139.98 195.662C141.489 183.077 138.197 172.14 130.104 162.851C122.147 153.744 112.156 149.191 100.13 149.191C82.7996 149.191 70.7049 156.787 63.846 171.98C59.319 182.048 57.49 193.671 58.3588 206.85C58.5874 209.55 58.4502 211.541 57.9473 212.822C57.49 214.058 56.3926 215.362 54.655 216.735C48.9392 221.265 42.0802 226.78 34.0781 233.278C24.8871 240.508 17.6166 247.281 12.2666 253.596C10.3003 255.93 8.24266 256.845 6.09351 256.342C3.89865 255.747 2.70976 253.825 2.52686 250.576C6.4136 240.279 11.9236 230.715 19.0569 221.883L25.6416 213.921C27.4706 211.587 28.4537 209.733 28.5909 208.361L29.414 184.542C29.6883 174.611 31.1287 166.191 33.7351 159.281C39.8625 142.99 49.2821 131.55 61.994 124.96C73.4714 118.965 86.6177 117.386 101.433 120.224C106.92 121.276 112.682 123.77 118.718 127.706Z" fill="#008086"/>
<path d="M250.753 234.857C253.313 239.433 253.473 246.046 251.233 254.695C248.946 263.664 244.991 270.734 239.367 275.905C233.194 281.58 225.809 285.378 217.212 287.3C209.622 288.993 204.249 288.81 201.094 286.751C197.939 284.691 197.116 282.38 198.625 279.818C200.957 277.255 202.168 275.447 202.26 274.395C195.355 275.631 186.781 276.408 176.539 276.729C172.469 280.344 167.485 282.884 161.586 284.348L148.897 284.829C146.199 284.142 144.713 283.067 144.439 281.602C143.982 279.543 146.314 277.095 151.435 274.258C146.817 273.48 140.575 271.489 132.71 268.286C125.211 265.265 120.707 263.023 119.198 261.559C116.774 261.559 114.945 260.804 113.711 259.294C112.613 257.921 112.11 256.113 112.202 253.871L106.234 245.771C96.7233 254.008 88.0353 258.859 80.1703 260.323C74.2716 261.422 70.362 260.735 68.4415 258.264C67.1612 256.571 67.4584 253.207 69.3332 248.174C71.2079 243.14 73.7915 238.861 77.0838 235.337L79.8274 232.798C73.9287 234.674 69.4932 236.436 66.521 238.083C48.8249 247.922 34.3296 257.028 23.0352 265.403C19.2856 268.148 16.8393 269.819 15.6961 270.414C13.9585 271.375 11.8094 271.924 9.24867 272.061C5.17902 272.29 2.54976 269.865 1.36087 264.785C0.354889 260.209 0.743563 255.839 2.52689 251.674C2.98416 254.603 4.12732 256.342 5.95637 256.891C7.78543 257.394 9.63735 256.525 11.5121 254.283C13.8899 251.445 17.8681 247.647 23.4467 242.888L36.4787 232.248L45.9441 224.217L55.2037 216.461C56.7584 215.225 57.833 214.012 58.4274 212.823C58.9761 211.587 59.1819 210.077 59.0447 208.292C57.8558 193.282 60.1879 180.286 66.0409 169.303C73.2656 155.804 84.5829 149.054 99.9927 149.054C112.75 149.054 123.267 154.225 131.544 164.567C140.049 175.138 142.495 186.716 138.883 199.3C138.837 199.758 138.06 201.291 136.551 203.899L133.602 208.635C139.089 206.896 142.953 205.844 145.193 205.478L160.009 206.027C165.267 206.988 172.035 209.94 180.311 214.882C188.222 219.595 193.663 222.089 196.635 222.364C199.15 222.638 203.174 222.181 208.707 220.991C215.063 219.664 219.087 218.955 220.779 218.863C234.314 218.222 244.305 223.554 250.753 234.857Z" fill="#FFF8B0"/>
<path d="M146.634 277.69C149.377 277.186 152.144 277.53 154.933 278.719C157.631 279.909 159.62 281.557 160.9 283.662C158.705 285.08 155.573 285.561 151.503 285.103C147.662 284.646 145.399 283.753 144.713 282.426C144.164 281.191 144.073 280.138 144.439 279.269C144.805 278.445 145.536 277.919 146.634 277.69Z" fill="#D2ECFA"/>
<path d="M199.859 278.651C202.374 277.278 206.238 277.713 211.451 279.955C216.618 282.243 218.767 284.462 217.898 286.613L217.83 286.682C215.909 287.872 212.983 288.306 209.05 287.986C205.026 287.666 201.803 286.659 199.379 284.966C198.236 284.142 197.664 283.09 197.664 281.808C197.71 280.481 198.442 279.429 199.859 278.651Z" fill="#D2ECFA"/>
<path d="M107.538 245.977C102.325 250.782 95.1 254.923 85.8633 258.401C75.6205 262.291 69.5618 262.222 67.687 258.195C72.1682 259.111 78.1355 257.028 85.5889 251.949C92.0821 247.556 97.0662 242.934 100.541 238.083L103.628 241.996C104.68 243.277 105.983 244.604 107.538 245.977Z" fill="#DDD698"/>
<path d="M111.036 252.292C105.686 244.512 100.747 237.831 96.2202 232.248C102.165 237.419 107.858 241.79 113.299 245.359C112.019 247.464 111.264 249.775 111.036 252.292Z" fill="#DDD698"/>
<path d="M140.186 271.443L128.457 266.638C124.982 265.082 121.896 263.366 119.198 261.49L128.8 261.078C132.596 260.804 135.728 259.82 138.197 258.127C149.766 262.382 161.426 264.465 173.178 264.373C179.762 264.282 186.827 263.412 194.372 261.765C193.275 260.209 192.406 258.081 191.766 255.381L191.148 251.88C198.419 260.575 208.09 265.517 220.162 266.707C230.039 267.714 239.458 266.272 248.421 262.382C243.116 274.052 232.988 282.426 218.035 287.506C219.27 285.629 217.555 283.456 212.891 280.985C208.09 278.422 203.632 277.621 199.516 278.582L202.397 274.532L179.214 276.248C161.975 276.66 148.966 275.058 140.186 271.443Z" fill="#DDD698"/>
<path d="M113.299 258.47C117.552 258.79 123.405 256.731 130.858 252.292L148.76 240.691C152.418 238.495 154.933 237.923 156.305 238.975C157.494 239.936 157.448 241.561 156.168 243.849C152.235 250.988 144.347 256.342 132.504 259.911C127.611 261.421 123.382 262.085 119.815 261.902C116.02 261.673 113.848 260.529 113.299 258.47Z" fill="#DDD698"/>
<path d="M151.229 274.464L159.734 275.356L175.578 276.66C175.716 278.033 173.338 279.703 168.445 281.671L161.037 284.211C160.123 281.511 157.882 279.566 154.316 278.376C151.206 277.324 148.508 277.164 146.222 277.896C146.999 276.935 148.074 276.088 149.446 275.356L151.229 274.464Z" fill="#DDD698"/>
<path d="M160.832 284.211L155.139 285.035C151.023 285.355 148.211 285.057 146.702 284.142L152.464 282.907C156.076 281.808 157.242 280.55 155.962 279.131L158.431 280.436C160.031 281.625 160.832 282.884 160.832 284.211Z" fill="#B6CCD9"/>
<path d="M212.823 280.916C214.835 281.328 216.298 282.472 217.212 284.348C217.715 285.263 217.99 286.156 218.035 287.025C214.194 288.352 210.422 288.764 206.718 288.261L202.26 287.162C208.341 287.529 211.931 286.59 213.028 284.348C213.348 283.662 213.417 282.884 213.234 282.014L212.823 280.916Z" fill="#B6CCD9"/>
<path d="M144.782 277.896C145.468 277.118 146.565 276.317 148.074 275.493L150.955 273.64L153.698 274.052L147.32 278.033C144.439 280.001 144.439 281.648 147.32 282.975C150.246 284.348 154.316 284.417 159.529 283.181C162.729 282.403 166.113 281.191 169.68 279.543C172.835 277.987 174.71 276.82 175.304 276.042L180.448 275.562C179.58 276.523 177.11 278.102 173.041 280.298C168.056 283.044 163.69 284.806 159.94 285.584C153.95 286.865 149.286 286.568 145.948 284.691C142.747 282.861 142.358 280.596 144.782 277.896Z" fill="#0D131A"/>
<path d="M153.287 279.2L144.782 278.925L146.154 277.415C149.171 276.729 152.464 277.003 156.03 278.239C159.643 279.474 161.449 281.03 161.449 282.906L160.077 283.662C159.711 281.785 157.448 280.298 153.287 279.2Z" fill="#0D131A"/>
<path d="M106.166 244.535L106.989 245.496L107.812 246.457C101.136 253.55 92.7907 258.378 82.7766 260.941C73.7228 263.275 68.1899 263.092 66.178 260.392C64.5318 258.241 64.6918 254.443 66.6581 248.997C68.7158 243.368 71.7566 238.678 75.7805 234.925C78.9356 233.552 81.1305 232.66 82.3651 232.248C77.0608 236.413 73.197 241.378 70.7735 247.144C68.67 252.04 68.2128 255.404 69.4017 257.234C70.7277 259.339 74.9574 259.499 82.0907 257.715C90.4587 255.61 98.4837 251.217 106.166 244.535Z" fill="#0D131A"/>
<path d="M95.8773 230.326C99.261 233.667 102.462 237.419 105.48 241.584L112.476 251.606L111.447 254.763L102.188 241.996C98.5751 237.099 95.42 233.438 92.7222 231.013L95.8773 230.326Z" fill="#0D131A"/>
<path d="M160.42 276.866C142.77 274.578 128.206 269.292 116.729 261.01H120.912C131.795 267.92 145.33 272.336 161.518 274.258C175.235 275.905 188.816 275.63 202.26 273.434L202.877 275.013C190.257 278.307 176.104 278.925 160.42 276.866Z" fill="#0D131A"/>
<path d="M101.364 150.907C87.6466 150.907 77.038 155.918 69.5389 165.94C62.0398 175.962 58.9304 189.255 60.2107 205.821C60.4394 209.162 60.0278 211.77 58.9761 213.646C57.8329 215.706 55.1122 218.451 50.8139 221.883C40.617 230.029 34.8326 234.674 33.4608 235.818C26.9219 241.309 20.7946 246.984 15.0788 252.841C11.6493 256.411 8.67707 258.15 6.16212 258.058C3.73862 257.966 2.57259 256.182 2.66405 252.704L3.76148 250.851C3.34994 253.184 4.17302 254.466 6.23071 254.695C8.42557 254.969 10.9634 253.505 13.8442 250.301C18.6454 244.947 24.9099 239.021 32.6377 232.523L50.5396 218.108C53.3289 215.911 55.0208 214.401 55.6152 213.578C56.7584 211.93 57.2385 209.642 57.0556 206.713C55.7753 188.912 59.159 174.612 67.2069 163.812C75.3004 152.829 86.7549 147.452 101.57 147.681C113.596 147.864 123.588 152.554 131.544 161.753C139.775 171.271 142.724 182.277 140.392 194.77C140.301 195.41 139.866 196.348 139.089 197.584L137.58 200.33C140.506 187.013 138.06 175.344 130.241 165.322C122.742 155.712 113.116 150.907 101.364 150.907Z" fill="#0D131A"/>
<path d="M86.5491 120.087C71.2765 120.27 58.2674 126.562 47.5216 138.963C34.9926 153.332 29.5283 172.529 31.1287 196.554C31.4488 201.451 31.3802 204.769 30.923 206.507C30.5114 208.155 29.1168 210.557 26.739 213.715C19.6971 223.05 14.7815 230.006 11.9922 234.582C7.19096 242.316 4.3102 249.112 3.34995 254.969C2.11533 262.337 3.07559 267.096 6.23071 269.247C9.24865 271.306 13.4098 270.414 18.714 266.57C26.1217 261.216 34.3524 255.724 43.4063 250.095C53.649 243.689 61.7426 239.136 67.687 236.436C74.5002 233.37 82.3423 230.967 91.2132 229.228C99.9012 227.535 107.332 225.224 113.505 222.295C117.254 220.511 118.832 220.122 118.238 221.128C117.643 222.044 116.02 223.279 113.368 224.835C106.463 228.176 98.7581 230.67 90.253 232.317C81.7936 233.964 74.1573 236.436 67.344 239.73C55.7295 245.405 39.9082 255.335 19.88 269.521C13.9813 273.686 9.02002 274.761 4.9961 272.747C0.332003 270.459 -1.10838 264.35 0.674951 254.42C1.81811 247.968 5.24759 240.188 10.9634 231.081C14.7587 224.949 19.3085 218.657 24.6127 212.205C26.579 209.825 27.745 207.697 28.1108 205.821C28.3852 204.448 28.408 201.565 28.1794 197.172C26.8533 173.101 31.7232 153.813 42.789 139.306C53.4432 125.258 68.0299 117.936 86.5491 117.341C101.639 116.837 114.9 121.139 126.331 130.246C136.665 138.574 143.136 148.688 145.742 160.586C147.845 170.15 147.251 180.126 143.959 190.514C141.124 199.437 137.145 206.576 132.024 211.93C129.875 214.173 128.526 215.042 127.977 214.539C127.383 213.989 128.412 212.205 131.064 209.185C135.545 204.105 139.043 197.172 141.558 188.386C144.393 178.593 144.827 169.898 142.861 162.302C139.615 149.9 133.167 139.856 123.519 132.168C113.185 123.931 100.861 119.903 86.5491 120.087Z" fill="#0D131A"/>
<path d="M237.172 220.305C243.757 223.508 248.329 228.473 250.89 235.2C251.256 236.207 251.37 236.87 251.233 237.191C250.958 237.785 250.844 238.518 250.89 239.387C248.421 231.791 243.597 226.276 236.417 222.844C229.193 219.366 221.282 218.886 212.685 221.403C204.318 223.599 197.55 224.034 192.383 222.707C189.456 221.929 185.318 219.732 179.968 216.117C172.926 211.267 165.199 208.269 156.785 207.125C146.542 205.752 137.374 207.629 129.281 212.754L130.995 210.557C137.991 204.608 146.885 202.549 157.677 204.379C165.907 205.798 173.887 209.047 181.614 214.127C187.102 217.788 191.446 219.87 194.646 220.373C198.396 220.968 204.706 220.327 213.577 218.451C222.265 216.255 230.13 216.872 237.172 220.305Z" fill="#0D131A"/>
<path d="M253.428 250.919C252.65 256.502 250.798 261.856 247.872 266.981C244.488 272.885 240.144 277.575 234.84 281.053C229.17 284.714 223.02 287.231 216.389 288.604C208.707 290.16 202.786 289.473 198.625 286.545C197.116 285.446 196.384 284.028 196.43 282.289C196.521 280.504 197.367 278.857 198.967 277.347C200.202 276.157 200.911 275.173 201.094 274.395C201.277 273.663 201.071 272.953 200.476 272.267C198.053 269.613 196.11 267.233 194.646 265.128C191.948 261.193 190.371 257.234 189.914 253.253C189.502 249.455 189.891 245.634 191.08 241.79C192.223 238.22 193.892 235.108 196.087 232.454C197.55 230.67 198.899 229.526 200.133 229.022C201.368 228.519 201.277 229.068 199.859 230.67C197.298 233.644 195.401 236.985 194.166 240.691C192.886 244.444 192.383 248.288 192.657 252.223C192.932 255.839 194.349 259.682 196.91 263.755C197.779 265.174 199.448 267.416 201.917 270.482C203.837 272.908 203.814 275.127 201.848 277.141C200.385 278.651 199.493 279.932 199.173 280.985C198.762 282.403 199.288 283.616 200.751 284.623C204.135 286.956 208.799 287.597 214.743 286.545C221.373 285.401 228.232 282.312 235.32 277.278C239.664 274.258 243.093 270.368 245.608 265.609C247.986 261.261 249.495 256.411 250.135 251.056C251.736 237.145 248.603 225.521 240.739 216.186C233.148 207.171 223.271 202.595 211.108 202.458L209.187 202.32L209.05 200.124L209.187 197.447L204.455 199.369L201.574 200.398C201.117 200.398 201.117 199.918 201.574 198.957L203.7 194.907L200.271 195.868L197.321 196.28C197.138 196.097 197.207 195.593 197.527 194.77L198.899 192.092L194.989 192.71L193.823 192.573C193.686 192.344 193.892 191.841 194.441 191.063L198.83 184.061C197.961 184.244 192.314 187.882 181.889 194.975L179.968 196.142C179.648 196.188 179.625 195.616 179.9 194.426L181.683 188.386C179.214 190.171 177.11 191.52 175.373 192.436C174.138 193.122 173.475 193.442 173.384 193.397C173.201 193.397 172.721 192.825 171.943 191.681C167.782 185.64 163.781 181.087 159.94 178.021C156.145 175.046 151.343 172.621 145.536 170.745C145.125 169.921 144.873 169.12 144.782 168.342C144.69 167.473 144.919 167.107 145.468 167.244C151.641 169.212 157.013 172.072 161.586 175.824C165.747 179.302 169.931 184.176 174.138 190.445L179.831 187.082C182.666 185.388 184.221 184.656 184.495 184.885C184.998 185.343 184.426 187.608 182.78 191.681C195.721 183.032 202.534 178.936 203.22 179.394C203.86 179.851 201.78 183.672 196.978 190.857L199.379 190.376C201.025 190.102 201.94 190.102 202.123 190.376C202.397 190.834 201.62 192.138 199.791 194.289L203.906 192.504C205.964 191.681 207.13 191.383 207.404 191.612C207.861 191.932 206.832 193.923 204.317 197.584L207.335 196.005C209.393 194.953 210.605 194.541 210.971 194.77L211.382 196.897V200.467C225.649 200.558 236.829 206.027 244.922 216.872C252.376 226.848 255.211 238.197 253.428 250.919Z" fill="#0D131A"/>
<path d="M199.173 278.788C201.185 276.683 205.003 276.637 210.628 278.651C216.343 280.71 218.996 283.318 218.584 286.476L217.075 286.888C217.898 284.737 215.452 282.586 209.736 280.435C204.02 278.285 200.408 278.216 198.899 280.229C198.807 280.001 198.853 279.772 199.036 279.543L199.173 278.788Z" fill="#0D131A"/>
<path d="M153.012 245.565C154.842 243.323 156.099 242.201 156.785 242.201C157.471 242.156 156.945 243.551 155.207 246.389C150.589 253.71 143.067 258.813 132.641 261.696C128.343 262.886 124.365 263.389 120.707 263.206C117.049 263.069 114.442 262.268 112.888 260.804C109.778 257.829 109.504 252.933 112.064 246.114C114.945 238.38 120.615 231.882 129.075 226.62C132.961 224.148 135.225 223.119 135.865 223.531C136.505 223.897 135.111 225.361 131.681 227.924C124.822 232.5 119.701 237.991 116.317 244.398C113.116 250.439 112.59 254.946 114.739 257.921C115.608 259.11 117.506 259.797 120.432 259.98L130.652 258.882C140.118 256.593 147.571 252.155 153.012 245.565Z" fill="#0D131A"/>
<path d="M15.2846 258.607C15.9705 257.372 16.6793 256.868 17.4109 257.097C18.1425 257.326 18.2339 258.195 17.6852 259.705L15.6961 264.373L14.9416 265.952C14.7587 266.043 14.6444 265.586 14.5987 264.579C14.5072 261.559 14.7359 259.568 15.2846 258.607Z" fill="#0D131A"/>
<path d="M89.0183 174.932C93.0423 173.101 96.929 173.078 100.679 174.863C104.565 176.694 107.538 180.08 109.595 185.022C110.83 187.951 111.196 189.736 110.693 190.376C110.144 190.971 109.275 189.804 108.086 186.876C106.44 182.94 103.994 180.171 100.747 178.57C97.4549 176.922 94.0711 176.808 90.5959 178.227C82.0908 181.659 76.7408 191.726 74.5459 208.429C74.3173 210.306 73.9058 211.198 73.3113 211.106C72.6711 211.061 72.4425 209.962 72.6254 207.811C73.2656 198.979 75.1861 191.612 78.3869 185.709C81.222 180.446 84.7658 176.854 89.0183 174.932Z" fill="#0D131A"/>
</g>
<defs>
<radialGradient id="paint0_radial_863_256" cx="0" cy="0" r="1" gradientUnits="userSpaceOnUse" gradientTransform="translate(150 150) rotate(90) scale(200)">
<stop stop-color="#EF821E"/>
<stop offset="1" stop-color="#FFE33F"/>
</radialGradient>
<clipPath id="clip0_863_256">
<rect width="300" height="300" fill="white"/>
</clipPath>
</defs>
</svg>
