<svg width="300" height="300" viewBox="0 0 300 300" fill="none" xmlns="http://www.w3.org/2000/svg">
<g clip-path="url(#clip0_864_848)">
<rect width="300" height="300" fill="white"/>
<rect x="-50" y="-50" width="400" height="400" fill="url(#paint0_radial_864_848)"/>
<path d="M296.637 230.581C294.03 239.492 290.377 245.28 285.678 247.947C280.797 250.736 273.566 250.872 263.986 248.357C254.527 245.871 242.066 239.931 226.604 230.536C211.537 221.383 202.805 214.654 200.41 210.351C199.895 209.441 200.092 208.032 201.001 206.123C201.85 204.334 202.457 203.471 202.82 203.531C209.733 198.5 217.494 193.439 226.104 188.347C243.385 178.164 256.331 172.92 264.941 172.617C269.852 172.436 274.657 174.527 279.357 178.891C283.571 182.801 287.285 188.089 290.498 194.757C293.5 201.031 295.576 207.456 296.728 214.033C297.941 220.731 297.911 226.247 296.637 230.581Z" fill="#EEEEEF"/>
<path d="M127.649 244.628C122.677 235.475 122.646 228.671 127.558 224.216C131.044 221.094 139.533 218.958 153.024 217.806C166.182 216.685 173.852 217.124 176.035 219.124C177.551 220.518 180.189 223.928 183.948 229.353C188.314 235.688 192.24 242.067 195.726 248.493C205.64 266.829 208.657 279.194 204.776 285.589C203.412 287.862 200.759 289.15 196.818 289.454C193.028 289.726 188.42 289.044 182.993 287.408C170.987 283.741 159.088 277.058 147.294 267.359C138.472 260.085 131.923 252.508 127.649 244.628Z" fill="#EEEEEF"/>
<path d="M296.728 214.033C297.941 220.731 297.911 226.247 296.637 230.581C294.03 239.492 290.377 245.28 285.678 247.947C280.797 250.736 273.566 250.872 263.986 248.357C261.894 247.811 259.423 246.978 256.573 245.856C266.244 245.826 273.975 243.613 279.766 239.219C285.132 235.127 287.83 229.99 287.861 223.807C287.952 206.198 282.04 192.833 270.125 183.71C266.396 180.861 262.303 178.618 257.846 176.982L252.253 175.345C257.195 173.618 261.424 172.708 264.941 172.617C269.852 172.436 274.657 174.527 279.357 178.891C283.571 182.801 287.285 188.089 290.498 194.757C293.5 201.031 295.576 207.456 296.728 214.033Z" fill="#003F4D"/>
<path d="M128.831 226.353C129.013 229.05 129.741 231.975 131.014 235.127C135.137 245.189 144.096 255.554 157.89 266.223C170.411 275.921 181.189 281.513 190.224 282.998C198.379 284.331 203.745 282.225 206.322 276.679C206.413 278.315 206.337 279.937 206.095 281.543C205.792 283.271 205.352 284.619 204.776 285.589C203.412 287.862 200.759 289.15 196.818 289.454C193.028 289.726 188.42 289.044 182.993 287.408C170.987 283.74 159.088 277.058 147.294 267.359C138.472 260.085 131.923 252.508 127.649 244.628C122.677 235.475 122.646 228.671 127.558 224.216L128.967 223.216L128.831 226.353Z" fill="#003F4D"/>
<path d="M280.63 183.21C277.446 179.876 274.051 177.406 270.443 175.799C267.26 174.375 264.44 173.829 261.985 174.163C256.255 174.92 248.114 177.951 237.564 183.255C225.68 189.226 215.069 196.075 205.731 203.804C203.457 205.683 202.305 207.38 202.275 208.895C202.214 210.532 203.503 212.396 206.14 214.487C218.722 224.368 230.788 232.096 242.339 237.673C252.435 242.522 262.546 245.886 272.672 247.765C280.978 249.311 287.148 246.856 291.18 240.4C294.576 234.945 295.879 228.035 295.091 219.67C293.606 203.94 288.785 191.787 280.63 183.21ZM260.438 171.435C267.321 169.798 274.005 171.95 280.493 177.891C286.436 183.285 291.15 190.711 294.636 200.167C298.123 209.623 299.487 218.685 298.729 227.353C297.88 236.87 294.53 243.931 288.679 248.538C281.949 253.842 269.473 252.751 251.252 245.265C233.759 238.082 217.752 227.959 203.23 214.896C200.713 212.623 199.334 211.138 199.091 210.441C198.849 209.653 199.152 207.532 200.001 204.077C200.728 201.137 209.308 195.318 225.74 186.619C241.748 178.163 253.314 173.102 260.438 171.435Z" fill="#0D131A"/>
<path d="M147.885 219.124C137.456 220.337 131.196 222.17 129.104 224.625C125.223 229.171 125.345 235.475 129.468 243.537C133.47 251.357 140.549 259.57 150.705 268.177C159.164 275.33 168.774 280.846 179.537 284.725C190.997 288.847 198.667 289.044 202.548 285.317C205.458 282.528 205.049 276.027 201.32 265.813C198.349 257.691 193.695 248.205 187.359 237.354C183.751 231.081 181.098 226.868 179.4 224.716C177.096 221.807 174.777 220.064 172.443 219.488C166.44 218.033 158.254 217.912 147.885 219.124ZM125.921 223.716C127.255 221.746 132.424 219.943 141.428 218.306C150.19 216.7 158.982 215.896 167.804 215.896C171.836 215.896 175.247 217.078 178.036 219.442C179.491 220.655 181.31 222.898 183.493 226.171C192.043 238.93 198.5 250.402 202.866 260.585C209.051 275.012 209.612 284.165 204.549 288.044C199.364 292.015 191.391 292.242 180.628 288.726C170.714 285.514 160.664 279.952 150.478 272.042C140.079 263.98 132.484 255.721 127.694 247.265C122.358 237.809 121.767 229.959 125.921 223.716Z" fill="#0D131A"/>
<path d="M250.252 176.345L252.89 175.026C262.894 176.239 271.671 181.8 279.22 191.711C287.012 201.955 290.362 213.032 289.27 224.943C288.634 231.763 285.496 237.203 279.857 241.264C273.611 245.75 265.926 247.098 256.801 245.31L254.981 243.81C254.133 243.083 253.466 242.643 252.981 242.492C262.288 244.856 270.14 244.068 276.537 240.128C283.54 235.824 286.754 228.701 286.178 218.761C285.45 206.456 280.6 195.954 271.626 187.256C268.048 183.77 264.228 181.027 260.166 179.027C256.376 177.178 253.071 176.284 250.252 176.345Z" fill="#0D131A"/>
<path d="M127.649 224.125L128.877 223.171L130.104 222.17C128.861 227.656 131.332 234.869 137.517 243.81C142.792 251.448 148.886 257.964 155.798 263.359C165.924 271.239 176.05 276.831 186.176 280.134C197.697 283.892 203.973 282.437 205.003 275.77L205.094 276.861C205.155 277.922 205.276 278.619 205.458 278.952C203.033 285.953 194.953 286.696 181.219 281.18C176.278 279.21 171.033 276.588 165.485 273.315C160.937 270.617 157.375 268.238 154.798 266.177C147.188 260.085 140.7 252.978 135.334 244.856C129.695 236.37 127.133 229.459 127.649 224.125Z" fill="#0D131A"/>
<path d="M284.086 204.531L284.814 205.759L285.496 206.986C281.13 206.592 268.715 206.532 248.251 206.804L208.596 207.259V205.577C216.964 205.668 242.127 205.319 284.086 204.531Z" fill="#0D131A"/>
<path d="M281.858 237.855L280.721 238.764L279.538 239.537C274.688 237.93 266.684 235.021 255.527 230.808C241.187 225.383 225.407 219.23 208.187 212.351V211.987L247.296 225.716L281.858 237.855Z" fill="#0D131A"/>
<path d="M287.315 222.307L287.542 223.443L287.497 224.534L249.752 217.124L208.187 209.396V207.532L287.315 222.307Z" fill="#0D131A"/>
<path d="M147.522 258.722C146.915 258.146 146.355 257.373 145.839 256.403L162.12 244.992C170.032 239.415 175.186 235.566 177.581 233.445L179.037 234.9C176.732 236.748 170.987 240.961 161.801 247.538C154.586 252.69 149.826 256.418 147.522 258.722Z" fill="#0D131A"/>
<path d="M167.304 272.815C166.424 272.451 165.606 271.89 164.848 271.133C166.97 267.556 170.002 261.631 173.943 253.357C178.309 244.174 181.143 238.385 182.447 235.991C183.235 236.779 184.221 237.188 185.403 237.218L184.903 237.991L175.99 255.357C171.442 264.147 168.547 269.966 167.304 272.815Z" fill="#0D131A"/>
<path d="M185.812 263.95L187.404 244.583L188.177 246.311C188.45 247.129 188.708 247.735 188.95 248.129L187.632 266.496L186.495 281.634C185.494 280.755 184.767 280.195 184.312 279.952L185.812 263.95Z" fill="#0D131A"/>
<path d="M264.349 209.305C267.806 212.275 268.912 215.882 267.669 220.125C266.456 224.156 263.864 226.762 259.893 227.944C255.254 229.308 245.856 227.611 231.698 222.852C218.176 218.336 208.323 213.866 202.138 209.441C201.259 208.805 201.608 207.638 203.184 205.941C204.185 204.88 204.594 204.274 204.412 204.122L231.334 204.486C250.403 205.213 261.409 206.819 264.349 209.305Z" fill="#0D131A"/>
<path d="M262.53 210.805C263.804 211.593 264.728 212.805 265.304 214.442C265.881 216.048 265.987 217.7 265.623 219.397C264.744 223.58 261.833 225.883 256.891 226.307C253.132 226.641 243.582 224.261 228.242 219.17C215.266 214.866 207.156 211.926 203.912 210.35C202.911 209.865 202.487 209.108 202.639 208.077C202.76 207.077 203.321 206.471 204.321 206.259C206.989 205.713 215.584 205.652 230.106 206.077C247.448 206.592 258.256 208.168 262.53 210.805Z" fill="#EEEEEF"/>
<path d="M181.265 260.904C177.202 262.177 173.367 261.692 169.759 259.449C166.667 257.509 165.015 254.494 164.802 250.402C164.621 246.432 165.833 243.068 168.441 240.31C170.29 238.37 172.427 236.536 174.853 234.809C177.157 233.142 179.355 231.823 181.447 230.854C183.084 230.066 184.751 230.399 186.449 231.854C188.026 233.187 188.814 234.687 188.814 236.354L189.087 243.992C189.208 247.871 189.056 250.902 188.632 253.084C187.874 256.964 185.418 259.57 181.265 260.904Z" fill="#0D131A"/>
<path d="M183.675 257.176C180.734 259.479 177.324 259.995 173.443 258.722C169.35 257.388 167.213 254.585 167.031 250.311C166.849 246.492 168.865 242.583 173.079 238.582C176.626 235.218 180.189 232.96 183.766 231.808C185.039 231.414 185.949 231.839 186.495 233.081C186.858 233.869 187.086 235.142 187.177 236.9C187.48 241.84 187.48 245.72 187.177 248.538C186.692 252.812 185.524 255.691 183.675 257.176Z" fill="#EEEEEF"/>
<path d="M270.58 68.5099C278.947 82.7849 285.147 95.7718 289.179 107.471C295.394 125.625 295.895 139.385 290.68 148.75C282.1 164.176 267.169 178.482 245.886 191.666C238.064 196.485 230.394 200.516 222.875 203.758C216.236 206.638 211.658 208.123 209.142 208.214C205.322 208.365 200.562 205.804 194.862 200.531C190.254 196.257 187.177 192.62 185.63 189.62C179.355 179.891 174.125 165.51 169.941 146.477C164.999 124.079 163.378 102 165.075 80.239C166.349 63.9941 170.396 49.022 177.217 35.3229C185.07 19.5022 194.241 11.3191 204.73 10.7736C214.826 10.228 227.302 17.3958 242.157 32.277C253.769 43.9151 263.243 55.9928 270.58 68.5099Z" fill="#EEEEEF"/>
<path d="M4.99997 117.427C7.1525 111.85 17.8545 112.062 37.106 118.063C51.5674 122.579 65.9984 128.489 80.3992 135.793C90.8283 141.067 102.425 148.31 115.188 157.524C128.649 167.222 137.608 175.011 142.065 180.891L179.764 223.398C172.761 226.55 160.043 229.853 141.61 233.309C120.236 237.309 105.381 238.173 97.0434 235.9C86.3414 232.99 76.1851 228.293 66.5745 221.807C54.781 213.836 43.3969 202.955 32.422 189.165C21.1136 174.921 12.9583 160.827 7.95591 146.886C3.37799 134.005 2.39268 124.185 4.99997 117.427Z" fill="#EEEEEF"/>
<path d="M239.838 46.6428C236.17 42.8241 232.153 42.1421 227.787 44.5971C226.423 45.3548 225.119 46.3852 223.876 47.6885L222.375 49.416C223.558 46.6883 224.285 43.8394 224.558 40.8692C225.134 34.9289 223.209 31.4132 218.783 30.3221C214.356 29.231 210.779 29.8069 208.05 32.0496C207.171 32.7467 206.444 33.565 205.867 34.5046L205.231 35.732C205.928 30.0948 205.049 27.261 202.593 27.2307C201.805 27.2004 200.926 27.4732 199.956 28.049L198.682 28.8673C199.925 22.4118 199.122 18.3354 196.272 16.6381C195.393 16.1229 194.362 15.8653 193.18 15.8653L191.679 16.0471C195.832 12.7436 200.183 10.9857 204.731 10.7736C214.826 10.228 227.302 17.3958 242.157 32.277C253.769 43.9151 263.243 55.9928 270.58 68.5099C278.947 82.7849 285.147 95.7718 289.18 107.471C295.395 125.625 295.895 139.385 290.68 148.75L285.178 157.751C286.39 155.205 287.345 152.266 288.043 148.932C289.498 142.325 289.043 137.157 286.678 133.429C284.283 129.701 281.934 128.262 279.63 129.11C278.963 129.323 278.326 129.747 277.72 130.383C278.69 128.959 279.463 127.11 280.039 124.837C281.524 118.927 280.736 112.335 277.674 105.061C274.612 97.7873 271.368 93.923 267.942 93.4684C266.851 93.3169 265.805 93.5139 264.804 94.0594L263.758 94.8777C264.698 94.12 265.259 92.7107 265.441 90.6498C265.805 86.437 263.91 80.9058 259.757 74.0563C255.603 67.1764 251.556 63.7213 247.614 63.691C246.371 63.691 245.219 64.0395 244.158 64.7366L242.93 65.7368C243.901 64.0698 244.492 62.0241 244.704 59.5994C245.128 54.7805 243.506 50.4616 239.838 46.6428Z" fill="#003F4D"/>
<path d="M34.5139 117.427L25.4187 116.699C19.143 116.821 15.4898 118.488 14.459 121.7C13.4282 124.883 14.3225 127.762 17.1421 130.338C18.5367 131.641 20.0374 132.611 21.6442 133.247C20.3405 133.096 19.2794 133.414 18.4609 134.202C17.6423 134.99 17.2936 135.945 17.4149 137.066C17.6575 139.945 20.098 141.567 24.7366 141.931C21.6745 142.507 19.8251 143.916 19.1885 146.159C18.3396 149.129 18.855 152.144 20.7347 155.205C22.9478 158.721 26.4646 161.04 31.2851 162.161C29.1022 163.373 28.1473 165.192 28.4201 167.617C28.6626 169.799 29.8299 172.163 31.9218 174.709C33.9227 177.194 36.3784 179.33 39.2889 181.119C42.3509 182.998 45.2765 184.074 48.0657 184.346C45.5494 186.135 46.1254 189.271 49.7938 193.757C53.5532 198.394 58.5859 201.773 64.8919 203.895C63.5882 204.713 63.2092 205.926 63.755 207.532C64.2704 209.138 65.5588 210.82 67.6204 212.578C72.5015 216.761 78.7772 219.473 86.4475 220.716C83.4461 221.11 82.4759 221.989 83.537 223.353C84.4162 224.504 86.9629 226.232 91.177 228.535C94.3603 230.293 99.0898 232.218 105.365 234.309L113.824 236.9C106.548 237.294 100.954 236.961 97.0434 235.9C86.3414 232.99 76.1851 228.293 66.5745 221.807C54.781 213.836 43.3969 202.955 32.422 189.165C21.1136 174.921 12.9583 160.828 7.95591 146.886C3.37799 134.005 2.39268 124.185 4.99997 117.427C5.93981 115.032 9.56273 113.972 15.8687 114.244C21.0227 114.487 27.2377 115.548 34.5139 117.427Z" fill="#003F4D"/>
<path d="M287.542 139.703C287.209 136.43 286.041 133.853 284.04 131.974C281.979 130.035 280.266 130.05 278.902 132.02C276.567 135.263 264.698 148.204 243.294 170.844L208.869 207.168L211.279 207.213C218.282 204.94 227.211 200.788 238.064 194.757C247.917 189.271 255.512 184.452 260.848 180.3C269.943 173.178 276.628 166.616 280.903 160.615C285.996 153.463 288.209 146.492 287.542 139.703ZM198.864 33.5043C197.469 37.1412 195.862 42.3542 194.043 49.1431C192.133 56.417 190.496 63.6151 189.132 70.7374C185.888 87.6492 183.584 105.213 182.22 123.428C180.674 144.279 180.795 161.434 182.583 174.89C183.038 178.133 184.145 180.315 185.903 181.437C187.722 182.619 188.783 181.028 189.087 176.663C190.481 156.478 195.226 131.429 203.321 101.515C210.233 76.0262 216.145 58.3264 221.056 48.4158C223.512 43.415 224.058 39.2476 222.693 35.9138C221.481 33.0042 219.252 31.4131 216.008 31.1403C212.128 30.8069 209.141 32.3223 207.05 35.6865C205.746 37.7777 204.321 41.7935 202.775 47.7338C200.38 57.6445 198.182 65.9337 196.181 72.6014L194.089 71.9194L199.455 51.2344C201.244 44.3242 202.714 38.8385 203.866 34.7772C204.473 31.2918 204.154 29.2915 202.911 28.7763C201.638 28.2611 200.289 29.8371 198.864 33.5043ZM197.772 22.8663C197.53 19.4718 196.363 17.7594 194.271 17.7291C186.176 22.5784 179.719 31.2161 174.898 43.6423C170.623 54.7349 167.895 68.0552 166.712 83.6031C165.621 97.8781 165.939 112.32 167.667 126.928C169.365 141.203 172.094 153.22 175.853 162.979C176.823 165.464 177.536 166.495 177.99 166.071C178.445 165.677 178.566 164.358 178.354 162.115C176.838 146.871 178.294 124.519 182.72 95.0594C186.419 70.5101 190.117 52.28 193.816 40.369L195.862 34.2317C197.348 29.8977 197.985 26.1092 197.772 22.8663ZM271.08 96.8325C268.897 94.1957 266.881 94.0138 265.031 96.2869C253.511 110.471 242.005 127.489 230.515 147.34C219.995 165.464 211.112 183.088 203.866 200.212C202.684 203.031 202.047 205.259 201.956 206.895C198.167 204.895 194.241 201.667 190.178 197.212C186.752 193.484 184.478 190.393 183.357 187.938L178.218 177.118C176.065 172.45 174.231 167.904 172.715 163.479C168.471 151.023 165.363 135.399 163.393 116.608C160.361 87.3613 163.165 62.4634 171.806 41.9147C175.353 33.5498 179.643 26.5184 184.675 20.8205C189.223 15.6985 193.877 12.1373 198.637 10.137C206.883 6.71222 217.039 9.21261 229.105 17.6382C240.08 25.3364 251.04 36.6715 261.985 51.6435C272.687 66.3731 281.115 81.4664 287.269 96.9234C293.848 113.471 296.44 127.277 295.046 138.339C292.923 155.16 279.66 171.496 255.254 187.347C246.735 192.893 237.64 197.848 227.969 202.213C220.086 205.789 214.326 207.941 210.688 208.668C208.808 209.093 206.655 208.835 204.23 207.895L206.595 205.713C213.962 197.803 224.952 186.271 239.565 171.117C252.874 157.054 264.668 143.976 274.945 131.883C277.28 129.125 278.583 125.625 278.856 121.382C279.129 117.108 278.326 112.456 276.446 107.425C274.597 102.455 272.808 98.9237 271.08 96.8325ZM256.391 72.0558C253.784 68.9341 251.419 66.9338 249.297 66.0549C247.205 65.2063 245.704 65.6003 244.795 67.2369C233.971 86.9673 224.452 107.304 216.236 128.246C206.231 153.796 200.577 174.633 199.273 190.756C198.94 194.909 198.894 197.773 199.137 199.349C199.531 201.713 200.562 200.985 202.229 197.166C212.264 174.193 222.223 154.645 232.107 138.521C235.806 132.459 240.414 125.398 245.932 117.336L261.121 95.1049C262.94 92.3772 263.591 89.1646 263.076 85.467C262.439 81.133 260.211 76.6626 256.391 72.0558ZM225.376 35.9138C226.347 38.6112 226.559 41.5056 226.013 44.597C227.984 42.2936 230.288 41.2783 232.925 41.551C235.29 41.7632 237.594 42.9452 239.838 45.097C242.021 47.158 243.703 49.6584 244.886 52.5982C246.129 55.6896 246.523 58.6143 246.068 61.3723C247.523 60.8874 249.479 61.5542 251.934 63.3726C254.329 65.1305 256.694 67.5703 259.029 70.692C264.668 78.2386 267.169 85.1033 266.532 91.2861C268.958 91.6195 271.322 93.0743 273.626 95.6505C275.809 98.1357 277.628 101.257 279.084 105.016C282.388 113.684 282.585 121.276 279.675 127.792C283.95 127.762 286.875 129.898 288.452 134.202C289.725 137.718 290.043 142.249 289.407 147.795C292.954 136.399 292.196 122.973 287.133 107.516C282.403 93.1198 274.051 77.2839 262.076 60.0085C250.312 43.0058 239.08 30.4432 228.378 22.3207C215.645 12.6829 205.018 10.531 196.499 15.8652C198.197 16.0167 199.379 17.3806 200.046 19.9567C200.622 22.1692 200.728 24.5787 200.365 27.1851C201.304 26.6699 202.35 26.5638 203.502 26.8669C205.382 27.3518 206.276 29.2764 206.186 32.6405C208.702 30.1856 211.324 28.7763 214.053 28.4126C216.539 28.0489 218.828 28.5793 220.92 30.0038C222.921 31.3979 224.406 33.3679 225.376 35.9138ZM241.884 53.462C240.429 48.9461 238.049 46.1427 234.744 45.0516L229.788 45.2789C227.423 46.4003 225.119 49.0068 222.875 53.0983C215.205 67.3127 207.701 91.0437 200.365 124.291C197.272 138.203 194.892 151.068 193.225 162.888C191.527 174.951 190.875 183.634 191.269 188.938C191.542 192.181 192.073 194.03 192.861 194.484C193.771 194.999 194.68 193.12 195.59 188.847C201.138 162.055 208.914 136.748 218.919 112.926C222.405 104.591 226.422 95.8778 230.97 86.7854L240.975 67.055C243.127 62.7513 243.43 58.2203 241.884 53.462Z" fill="#0D131A"/>
<path d="M143.975 184.619L143.247 184.301L141.61 182.164L143.975 184.619Z" fill="#0D131A"/>
<path d="M18.5062 132.656C14.4437 130.262 12.4731 127.095 12.5944 123.155C12.7459 119.094 15.2168 116.957 20.0069 116.745C14.7317 114.987 10.8208 115.169 8.27413 117.29C5.90938 119.23 4.84827 122.715 5.09081 127.746C5.57589 137.93 10.5025 150.962 19.8705 166.844C29.8449 183.755 41.7445 198.288 55.5692 210.441C71.698 224.595 87.6752 232.808 103.501 235.082C98.4076 233.475 93.2536 231.187 88.039 228.217C81.824 224.671 79.8988 222.216 82.2636 220.852C77.0793 219.791 72.077 217.306 67.2565 213.396C62.3148 209.426 60.6473 206.365 62.2541 204.213C57.3427 202.91 52.78 199.561 48.5659 194.166C46.8681 191.984 45.7312 190.014 45.1552 188.256C44.5791 186.407 44.7762 185.256 45.7464 184.801C40.5924 184.043 35.6658 180.724 30.9667 174.845C28.9051 172.299 27.6621 169.98 27.2376 167.889C26.7829 165.555 27.4195 163.904 29.1476 162.934L29.1021 162.888C26.222 162.009 23.7814 160.479 21.7805 158.297C19.8099 156.115 18.4608 153.447 17.7331 150.295C17.339 148.538 17.4451 146.825 18.0515 145.158C18.6275 143.613 19.4158 142.612 20.4162 142.158C17.8089 141.097 16.4295 139.415 16.2779 137.112C16.096 134.96 16.8388 133.475 18.5062 132.656ZM2.4532 116.745C4.51478 113.199 9.15334 111.759 16.3689 112.426C34.7715 114.093 57.176 122.064 83.5824 136.339C107.351 149.189 125.966 162.206 139.427 175.39C139.821 176.36 139.851 177.239 139.518 178.027C139.245 178.573 139.715 179.679 140.928 181.346C136.501 175.981 129.741 169.889 120.645 163.07C111.611 156.342 101.591 149.841 90.5857 143.567C64.9979 129.05 43.3816 120.639 25.7369 118.336C23.3722 118.063 21.2196 118.29 19.2793 119.018C17.0662 119.897 15.808 121.276 15.5048 123.155C15.1713 125.125 15.8535 127.004 17.5512 128.792C19.4915 130.853 22.402 132.277 26.2826 133.065C29.8298 133.763 34.8776 135.142 41.4261 137.203C48.8236 139.536 56.3574 142.188 64.0277 145.158L59.6165 145.658C41.2139 138.96 28.4352 135.293 21.2803 134.657C20.583 134.596 19.9311 134.793 19.3248 135.248C18.7185 135.702 18.4001 136.248 18.3698 136.884C18.2182 138.521 19.7947 139.627 23.0993 140.203C33.5891 141.991 49.3844 146.598 70.4853 154.023C92.4654 161.722 111.171 169.374 126.603 176.981C111.899 170.829 93.7387 164.176 72.1224 157.024C51.5673 150.235 36.4541 145.795 26.7829 143.704C22.8113 142.825 20.6133 144.082 20.1888 147.477C19.8857 150.023 20.7497 152.72 22.781 155.569C24.9335 158.539 27.465 160.252 30.3755 160.706C48.96 163.555 67.3626 167.435 85.5833 172.344C94.2844 174.678 115.946 181.088 150.569 191.575L155.889 197.121C137.153 190.029 115.143 183.134 89.8581 176.436C67.0594 170.405 48.4598 166.283 34.059 164.07C31.3001 163.646 29.8752 164.298 29.7843 166.025C29.7236 167.571 30.6635 169.647 32.6038 172.253C34.5138 174.799 36.7724 177.057 39.3797 179.027C42.2599 181.209 44.8065 182.452 47.0197 182.755L92.0864 187.165C113.794 189.62 136.82 193.908 161.164 200.031L163.438 202.44C141.67 197.409 123.677 193.863 109.458 191.802C94.7846 189.65 75.3967 187.786 51.2944 186.21C48.7781 186.059 47.8079 186.968 48.384 188.938C48.8387 190.393 50.0211 192.196 51.9311 194.348C53.7804 196.409 56.0694 198.197 58.798 199.712C61.7691 201.41 64.6492 202.379 67.4384 202.622L117.417 206.623L169.168 211.032L171.124 213.078L122.464 209.532L67.3929 205.713C66.9079 205.683 66.4228 205.819 65.9377 206.122C65.3314 206.516 65.0888 207.062 65.2101 207.759C65.5436 209.759 68.8633 212.517 75.1693 216.033C77.8373 217.518 82.4152 218.7 88.9031 219.579L104.911 220.761C124.496 221.246 139.791 221.201 150.796 220.625C159.679 220.17 167.94 219.2 175.58 217.715L178.4 220.716L177.991 221.125C177.536 220.7 176.687 220.579 175.444 220.761L136.607 222.898C118.599 223.352 104.562 223.201 94.4966 222.443C88.8879 222.049 85.8562 222.125 85.4014 222.67C84.7951 223.428 87.4782 225.459 93.4507 228.762C97.4526 231.005 102.046 232.687 107.23 233.809C110.868 234.597 114.233 235.021 117.326 235.082C125.238 235.233 135.031 234.203 146.703 231.99C155.04 230.414 163.241 228.459 171.306 226.126C162.605 231.157 150.553 234.869 135.152 237.264C120.691 239.476 108.67 239.825 99.0897 238.309C89.6913 236.855 79.4441 232.384 68.3479 224.898C57.8581 217.867 47.7321 208.971 37.97 198.212C28.2381 187.453 20.1737 176.284 13.7767 164.707C7.01596 152.493 2.92312 141.249 1.49821 130.974C0.588689 124.155 0.907021 119.412 2.4532 116.745Z" fill="#0D131A"/>
<path d="M209.824 88.8314C211.34 96.6508 211.521 104.561 210.369 112.562L208.459 128.156C207.186 138.036 205.943 146.674 204.73 154.069C200.85 177.467 197.015 189.165 193.225 189.165C191.679 188.347 189.905 186.832 187.904 184.619C183.872 180.164 180.674 174.405 178.309 167.344C175.762 159.706 173.928 149.902 172.806 137.93C171.927 128.474 171.563 118.791 171.715 108.88C171.866 98.7875 173.534 90.3923 176.717 83.6942C180.81 75.1474 186.889 70.9801 194.953 71.1923C202.654 71.4044 207.611 77.2841 209.824 88.8314Z" fill="#EEEEEF"/>
<path d="M74.2598 145.977C78.8983 146.704 82.976 147.886 86.4928 149.523C103.925 157.584 120.221 167.859 135.38 180.346C140.685 184.71 145.172 188.801 148.84 192.62C152.024 195.863 153.524 197.727 153.343 198.212C153.039 199.091 142.11 197.121 120.554 192.302C94.9059 186.544 80.7022 183.452 77.9433 183.028C68.2721 181.512 60.3138 179.103 54.0684 175.799C45.3067 171.162 41.517 165.328 42.6994 158.297C43.9424 150.992 49.8695 146.749 60.4805 145.567L74.2598 145.977Z" fill="#EEEEEF"/>
<path d="M194.953 71.1923C202.411 71.4044 207.338 77.0871 209.733 88.2404C211.582 96.8478 211.719 105.364 210.142 113.79C209.869 109.789 208.929 105.773 207.323 101.743C204.139 93.711 199.289 89.6497 192.77 89.5588C186.222 89.4376 180.749 92.9836 176.353 100.197C174.959 102.47 173.761 104.955 172.761 107.653C172.245 109.016 171.882 110.153 171.669 111.062L171.715 108.88C171.866 98.7875 173.534 90.3923 176.717 83.6942C180.81 75.1474 186.889 70.9801 194.953 71.1923Z" fill="#003F4D"/>
<path d="M72.7136 149.977C63.4668 151.553 58.6766 155.554 58.3432 161.979C58.04 168.404 61.2233 173.845 67.8931 178.3C71.1977 180.512 74.5478 182.088 77.9433 183.028C68.2721 181.512 60.3138 179.103 54.0684 175.799C45.3067 171.162 41.517 165.328 42.6994 158.297C43.9424 150.992 49.8695 146.749 60.4805 145.567L74.2598 145.977C78.8983 146.704 82.976 147.886 86.4928 149.523L72.7136 149.977Z" fill="#003F4D"/>
<path d="M190.678 187.119L188.768 185.255L186.676 181.891C188.283 184.225 189.602 185.952 190.633 187.074L190.678 187.119C192.346 188.301 193.922 188.15 195.408 186.665C197.53 184.543 200.046 174.102 202.957 155.341C204.533 145.097 206.034 133.853 207.459 121.609C208.459 113.062 207.762 106.106 205.367 100.742C203.033 95.4684 199.395 92.4225 194.453 91.6042C189.208 90.7252 184.676 92.3315 180.856 96.4231C177.308 100.212 175.171 105.137 174.443 111.198C173.504 119.078 173.731 130.08 175.126 144.203C176.611 159.024 178.658 168.813 181.265 173.572L180.537 172.571C176.384 167.328 173.397 155.508 171.578 137.111C169.911 120.26 169.79 105.925 171.215 94.1046C171.942 87.9218 174.534 82.2088 178.991 76.9655C184.115 70.9343 189.799 68.4339 196.045 69.4643C202.078 70.4645 206.595 75.0106 209.596 83.1028C212.537 91.0132 213.371 100.454 212.098 111.425C210.976 120.881 209.142 132.838 206.595 147.295C203.108 167.146 200.001 180.512 197.272 187.392C196.029 190.544 193.831 190.453 190.678 187.119ZM192.861 87.6945C196.59 87.7248 199.925 89.2402 202.866 92.2406C205.989 95.4229 208.308 99.9691 209.824 105.879C210.127 94.7259 208.414 86.1488 204.685 80.1478C201.38 74.844 197.181 72.389 192.088 72.783C187.116 73.177 182.796 76.1169 179.127 81.6026C175.126 87.5732 173.034 95.1502 172.852 104.333C175.368 98.9993 178.445 94.8471 182.083 91.8769C185.57 89.0583 189.162 87.6641 192.861 87.6945Z" fill="#0D131A"/>
<path d="M41.0169 160.933C41.2595 154.478 44.3064 149.704 50.1576 146.613C55.1296 143.976 61.0718 142.976 67.9842 143.612C79.4745 144.673 93.9207 150.629 111.323 161.479C125.481 170.329 137.199 179.315 146.476 188.438C151.721 193.62 154.843 197.181 155.844 199.121C156.935 201.152 155.874 201.743 152.661 200.894C125.587 193.893 100.712 188.544 78.0344 184.846C66.5744 182.967 57.4034 179.724 50.5214 175.117C44.0032 170.723 40.835 165.995 41.0169 160.933ZM56.7516 160.751C57.4792 157.205 59.5711 154.372 63.0273 152.25C66.9383 149.825 72.2438 148.598 78.9439 148.568C69.394 146.476 61.4508 146.431 55.1145 148.431C49.4755 150.219 46.0344 153.205 44.7914 157.387C43.5484 161.479 44.7611 165.51 48.4295 169.48C52.4011 173.814 58.4342 176.936 66.529 178.845C62.9818 176.845 60.2988 174.147 58.4797 170.753C56.6607 167.359 56.0846 164.025 56.7516 160.751ZM66.5744 153.659C62.33 155.872 60.1168 159.388 59.9349 164.207C59.753 168.753 62.8454 172.92 69.212 176.709C75.0936 180.255 82.4607 182.74 91.3134 184.164C100.196 185.649 108.564 187.286 116.416 189.074C121.388 190.226 130.377 192.484 143.383 195.848C147.021 196.787 149.068 197.166 149.523 196.984C150.493 196.621 149.113 194.696 145.384 191.211C135.198 181.634 125.375 173.663 115.916 167.298C103.425 158.963 92.2077 153.902 82.2637 152.114C75.9577 150.992 70.7279 151.508 66.5744 153.659Z" fill="#0D131A"/>
<path d="M153.888 161.434C162.62 156.433 171.851 154.554 181.583 155.796C190.011 156.857 197.242 159.903 203.275 164.934C208.55 169.329 211.491 175.633 212.097 183.846C212.583 190.544 211.582 197.394 209.096 204.395C213.886 205.456 218.191 206.819 222.011 208.486C226.074 210.244 228.833 212.032 230.288 213.851C235.199 219.943 237.549 226.747 237.337 234.263C237.124 241.779 234.426 247.614 229.242 251.766C223.724 256.221 217.873 258.752 211.688 259.358C205.2 259.994 198.637 258.449 191.997 254.721C188.177 252.569 185.221 248.902 183.129 243.719C181.31 239.234 180.279 234.006 180.037 228.035C171.518 229.611 164.272 229.747 158.299 228.444C151.478 226.959 145.763 223.519 141.155 218.124C133.879 209.608 131.635 199.439 134.425 187.619C137.183 175.981 143.671 167.253 153.888 161.434Z" fill="#7C70A2"/>
<path d="M229.242 251.766C223.724 256.221 217.873 258.752 211.688 259.358C205.2 259.995 198.637 258.449 191.997 254.721C188.177 252.569 185.221 248.902 183.129 243.719C181.31 239.234 180.28 234.006 180.037 228.035L180.719 227.808L185.312 225.944C189.86 224.004 192.452 223.034 193.089 223.034C194.423 223.064 194.332 224.837 192.816 228.353C190.845 232.899 191.558 236.961 194.953 240.537C198.137 243.901 202.608 245.917 208.369 246.583C214.432 247.311 219.965 246.235 224.967 243.356C230.758 240.082 234.699 234.915 236.791 227.853C237.701 232.521 237.504 236.976 236.2 241.219C234.866 245.583 232.547 249.099 229.242 251.766Z" fill="#655B86"/>
<path d="M181.447 156.615C169.623 155.281 159.224 158.251 150.25 165.525C141.004 173.011 136.001 182.134 135.243 192.893C134.546 202.743 137.365 211.229 143.702 218.352C148.037 223.262 154.07 226.353 161.801 227.626C169.077 228.808 176.278 228.202 183.402 225.807C185.585 225.08 186.51 225.186 186.176 226.126C185.843 227.065 184.494 227.884 182.129 228.581C174.671 231.005 167.228 231.566 159.8 230.263C151.736 228.869 145.4 225.474 140.791 220.079C133.849 211.987 131.105 202.334 132.56 191.12C134.015 179.785 139.336 170.602 148.522 163.57C154.434 159.024 160.846 156.024 167.759 154.569C174.125 153.205 180.431 153.251 186.677 154.705C192.679 156.1 197.939 158.6 202.457 162.207C207.035 165.874 210.294 170.223 212.234 175.254C213.75 179.224 214.478 183.498 214.417 188.074C214.326 193.318 213.174 198.424 210.961 203.395C209.233 207.305 207.808 209.381 206.686 209.623C205.595 209.896 205.974 208.184 207.823 204.486C210.521 199.121 211.794 193.575 211.643 187.847C211.491 182.119 209.93 176.754 206.959 171.754C201.714 162.964 193.21 157.918 181.447 156.615Z" fill="#0D131A"/>
<path d="M234.335 224.398C232.213 218.215 228.575 213.624 223.421 210.623C220.329 208.805 215.326 207.123 208.414 205.577L209.051 204.577L209.642 203.577C216.403 204.365 222.345 206.623 227.468 210.35C232.653 214.139 236.003 218.715 237.519 224.08C239.004 229.384 239.095 234.582 237.791 239.673C236.397 245.129 233.608 249.538 229.424 252.903C224.785 256.661 219.601 259.116 213.871 260.267C208.171 261.389 202.805 261.025 197.773 259.176C192.406 257.206 188.117 253.782 184.903 248.902C181.356 243.507 179.431 236.749 179.127 228.626C179.34 228.262 179.734 228.141 180.31 228.262C180.886 228.353 181.28 228.232 181.492 227.899C181.795 235.112 183.493 241.234 186.586 246.265C189.466 250.933 193.286 254.312 198.045 256.403C202.623 258.403 207.52 258.949 212.734 258.04C218.1 257.131 223.118 254.797 227.787 251.039C231.031 248.432 233.35 244.901 234.745 240.446C236.351 235.263 236.215 229.914 234.335 224.398Z" fill="#0D131A"/>
<path d="M145.157 187.347C148.522 190.65 150.932 194.757 152.388 199.667C154.146 205.668 154.616 210.896 153.797 215.351C153.009 219.564 151.281 222.246 148.613 223.398C145.4 224.792 141.837 223.928 137.926 220.806C133.955 217.624 131.256 213.381 129.832 208.077C128.134 201.713 128.088 196.121 129.695 191.302C131.09 187.18 133.197 184.634 136.016 183.664C138.715 182.755 141.761 183.982 145.157 187.347Z" fill="#0D131A"/>
<path d="M143.52 188.483C146.4 191.393 148.598 195.424 150.114 200.576C151.63 205.668 152.115 210.32 151.569 214.533C151.054 218.624 149.765 221.125 147.704 222.034C145.612 222.943 143.035 222.17 139.973 219.715C136.183 216.685 133.515 211.911 131.969 205.395C130.817 200.485 130.787 196.045 131.878 192.075C132.878 188.468 134.394 186.316 136.426 185.619C138.487 184.892 140.852 185.847 143.52 188.483Z" fill="#ED85A7"/>
<path d="M140.382 188.12C142.08 190.726 143.05 194.5 143.292 199.44C143.444 202.592 143.08 205.35 142.201 207.714C141.382 209.866 140.306 211.305 138.972 212.033C137.608 212.79 136.304 212.639 135.061 211.578C133.697 210.426 132.666 208.365 131.969 205.395C130.817 200.485 130.787 196.045 131.878 192.075C132.878 188.468 134.394 186.316 136.426 185.619C137.699 185.165 139.018 185.998 140.382 188.12Z" fill="#F6C8D6"/>
<path d="M176.626 187.892C172.291 184.104 169.396 179.482 167.94 174.026C166.455 168.45 167.152 164.176 170.032 161.206C172.821 158.357 177.293 157.342 183.448 158.16C189.632 159.009 194.847 161.388 199.091 165.298C203.063 168.965 205.67 173.556 206.913 179.073C208.217 184.619 207.595 188.786 205.049 191.574C202.472 194.484 198.44 195.696 192.952 195.211C187.04 194.696 181.598 192.256 176.626 187.892Z" fill="#0D131A"/>
<path d="M177.081 185.028C173.352 181.482 170.911 177.375 169.759 172.708C168.638 168.101 169.198 164.722 171.442 162.57C173.746 160.327 177.126 159.388 181.583 159.751C186.585 160.176 191.391 162.222 195.999 165.889C200.971 169.798 203.972 174.587 205.003 180.255C205.973 185.346 205.2 188.983 202.684 191.165C200.471 193.075 197.227 193.787 192.952 193.302C187.465 192.696 182.174 189.938 177.081 185.028Z" fill="#ED85A7"/>
<path d="M180.537 183.664C175.899 182.755 172.715 180.3 170.987 176.299C169.775 173.511 169.199 170.874 169.259 168.389C169.32 165.843 170.047 163.903 171.442 162.57C173.019 161.054 175.247 160.13 178.127 159.797C181.189 159.463 184.403 159.918 187.768 161.161C191.194 162.433 193.392 165.176 194.362 169.389C195.362 173.753 194.483 177.436 191.724 180.436C188.905 183.497 185.176 184.573 180.537 183.664Z" fill="#F6C8D6"/>
<path d="M159.527 206.668C159.709 206.153 161.18 205.713 163.938 205.35C166.606 205.016 168.183 204.986 168.668 205.259C169.123 205.532 168.986 207.047 168.259 209.805C167.531 212.593 166.758 214.018 165.939 214.078C165.03 214.169 163.666 213.093 161.846 210.851C160.118 208.638 159.345 207.244 159.527 206.668Z" fill="#0D131A"/>
<path d="M162.529 208.85C162.65 208.517 163.287 208.168 164.439 207.805L166.531 207.441C166.803 207.562 166.834 208.441 166.621 210.078C166.409 211.714 166.121 212.593 165.757 212.714C165.424 212.805 164.772 212.23 163.802 210.987C162.892 209.775 162.468 209.062 162.529 208.85Z" fill="white"/>
<path d="M173.17 203.94C173.109 203.394 173.928 202.122 175.626 200.121C177.324 198.121 178.4 197.136 178.855 197.166C179.34 197.197 180.052 198.485 180.992 201.03C181.932 203.576 182.174 205.122 181.72 205.668L177.127 205.44C174.55 204.804 173.231 204.304 173.17 203.94Z" fill="#0D131A"/>
<path d="M175.762 202.804C175.732 202.47 176.156 201.895 177.036 201.076C177.915 200.228 178.506 199.818 178.809 199.849C179.082 199.879 179.506 200.637 180.082 202.122C180.689 203.607 180.886 204.456 180.674 204.668C180.492 204.91 179.628 204.713 178.082 204.077C176.566 203.44 175.793 203.016 175.762 202.804Z" fill="white"/>
<path d="M158.8 207.895C157.89 206.683 157.875 204.986 158.754 202.804C159.785 200.227 161.862 197.939 164.984 195.939C167.834 194.09 170.851 193.181 174.034 193.211C176.914 193.272 178.779 193.984 179.628 195.348C180.78 197.106 180.689 199.197 179.355 201.622C178.142 203.773 176.232 205.774 173.625 207.623C171.169 209.35 168.501 210.305 165.621 210.487C162.498 210.638 160.225 209.774 158.8 207.895Z" fill="#0D131A"/>
<path d="M184.857 233.081C184.948 234.384 185.024 235.066 185.085 235.127L187.359 234.991L189.541 234.945C189.754 235.218 189.799 236.097 189.678 237.582L189.541 239.9L191.77 240.628C193.104 240.931 193.831 241.219 193.953 241.492C194.165 241.886 193.968 242.568 193.361 243.537C192.755 244.507 192.028 245.371 191.179 246.129C189.208 247.826 186.843 248.402 184.084 247.856C181.72 247.371 179.931 246.341 178.718 244.765C177.142 242.643 176.551 240.385 176.945 237.991C177.308 235.809 178.324 234.112 179.992 232.899L182.356 231.399C183.357 230.884 184.054 230.747 184.448 230.99C184.63 231.081 184.767 231.778 184.857 233.081Z" fill="#0D131A"/>
<path d="M180.446 243.628C179.416 242.416 178.855 240.961 178.764 239.264C178.643 237.688 178.946 236.461 179.673 235.582C180.886 234.097 181.977 233.384 182.948 233.445C183.16 233.445 183.342 233.991 183.493 235.082L183.903 236.855L185.994 236.718L188.086 236.627C188.177 236.718 188.147 237.446 187.995 238.809C187.844 240.173 187.829 240.931 187.95 241.083L189.905 241.628C191.027 241.81 191.633 241.977 191.724 242.128C191.846 242.431 191.664 242.901 191.179 243.537C190.633 244.295 189.845 244.977 188.814 245.583C187.662 246.25 186.267 246.432 184.63 246.129C182.872 245.765 181.477 244.932 180.446 243.628Z" fill="#5DC1CF"/>
<path d="M216.099 212.714C218.222 214.26 219.54 216.427 220.056 219.215C220.571 221.973 220.192 224.474 218.919 226.716C217.858 228.626 216.509 229.899 214.872 230.535L210.324 230.717C208.414 230.414 207.368 230.005 207.186 229.49C207.034 229.126 207.201 228.444 207.686 227.444L208.414 225.762C208.384 225.64 207.701 225.398 206.367 225.034C205.034 224.671 204.306 224.322 204.185 223.989C204.063 223.655 204.412 222.928 205.231 221.807L206.413 219.943C206.383 219.821 205.685 219.564 204.321 219.17C202.957 218.745 202.214 218.351 202.093 217.988C201.85 217.23 202.623 215.912 204.412 214.033C206.352 211.972 208.217 210.911 210.006 210.85C212.219 210.79 214.25 211.411 216.099 212.714Z" fill="#0D131A"/>
<path d="M214.007 213.578C215.917 214.548 217.176 216.26 217.782 218.715C218.388 221.17 218.313 223.383 217.555 225.353C216.827 227.353 215.614 228.565 213.917 228.99L211.052 229.126C209.96 229.035 209.354 228.883 209.233 228.671C209.081 228.429 209.293 227.762 209.869 226.671C210.476 225.58 210.733 224.974 210.642 224.853C210.551 224.731 209.899 224.534 208.687 224.262C207.504 223.989 206.837 223.731 206.686 223.489C206.534 223.277 206.792 222.595 207.459 221.443C208.126 220.231 208.429 219.534 208.368 219.352C208.308 219.14 207.656 218.791 206.413 218.306C205.17 217.791 204.503 217.427 204.412 217.215C204.291 216.851 204.715 216.154 205.685 215.124C206.868 213.881 208.217 213.139 209.733 212.896C211.218 212.654 212.643 212.881 214.007 213.578Z" fill="#5DC1CF"/>
<path d="M177.536 196.439C178.506 197.681 178.445 199.348 177.354 201.44C176.293 203.531 174.656 205.243 172.443 206.577C170.108 208.001 167.698 208.744 165.212 208.804C162.938 208.865 161.453 208.395 160.755 207.395C159.906 206.183 159.846 204.667 160.573 202.849C161.422 200.697 163.211 198.803 165.939 197.166C168.244 195.772 170.593 195.045 172.988 194.984C175.201 194.923 176.717 195.408 177.536 196.439Z" fill="#5DC1CF"/>
<path d="M178.173 198.303C178.233 199.636 177.733 201.091 176.672 202.667C175.58 204.243 174.171 205.546 172.443 206.577C170.472 207.789 168.41 208.501 166.258 208.713C164.318 208.926 162.787 208.729 161.665 208.122C164.727 207.971 168.047 206.789 171.624 204.576C175.08 202.485 177.263 200.394 178.173 198.303Z" fill="#50A8B4"/>
<path d="M171.669 265.814C165.515 262.086 162.756 258.343 163.393 254.585C163.908 251.463 167.546 249.508 174.307 248.72C180.946 247.962 188.374 248.568 196.59 250.538C204.594 252.448 211.643 255.1 217.737 258.494C224.467 262.192 227.529 265.556 226.923 268.587C226.225 272.102 221.511 274.194 212.78 274.86C205.2 275.406 197.894 274.86 190.86 273.224C183.372 271.466 176.975 268.996 171.669 265.814Z" fill="#0D131A"/>
<path d="M249.524 227.717C251.828 240.234 252.238 249.811 250.752 256.449C249.57 261.752 247.326 264.814 244.022 265.632C240.99 266.359 237.594 263.904 233.835 258.267C229.53 251.872 226.271 243.234 224.058 232.354C222.299 223.777 221.784 216.351 222.512 210.078C223.3 203.349 225.407 199.303 228.833 197.939C232.38 196.515 236.23 198.636 240.384 204.304C244.719 210.244 247.766 218.049 249.524 227.717Z" fill="#0D131A"/>
<path d="M229.606 200.303C232.395 199.515 235.669 202.167 239.429 208.259C243.097 214.23 245.583 220.776 246.887 227.899C248.857 238.628 249.509 247.144 248.842 253.448C248.205 259.328 246.523 262.586 243.794 263.222C241.217 263.828 238.186 260.904 234.699 254.448C231.091 247.841 228.454 240.097 226.786 231.217C225.392 223.913 224.846 217.351 225.149 211.532C225.513 204.774 226.998 201.031 229.606 200.303Z" fill="#5DC1CF"/>
<path d="M239.52 215.988C240.975 215.836 242.415 216.912 243.84 219.215C245.204 221.458 246.22 224.353 246.887 227.899C248.676 237.597 249.373 245.462 248.979 251.493C248.857 254.069 248.494 256.358 247.887 258.358C247.372 259.995 246.568 260.767 245.477 260.677C244.416 260.616 243.279 259.722 242.066 257.994C239.156 253.872 237.14 247.28 236.018 238.218C235.23 231.854 235.245 226.504 236.063 222.17C236.791 218.2 237.943 216.139 239.52 215.988Z" fill="#50A8B4"/>
<path d="M165.894 254.948C166.621 252.736 169.896 251.417 175.717 250.993C181.962 250.538 189.041 251.357 196.954 253.448C206.261 255.903 213.356 258.555 218.237 261.404C222.481 263.889 224.543 266.147 224.421 268.178C224.27 270.329 220.935 271.648 214.417 272.133C207.777 272.648 200.471 272.072 192.497 270.405C184.827 268.799 178.294 266.45 172.897 263.359C167.44 260.207 165.106 257.403 165.894 254.948Z" fill="#5DC1CF"/>
<path d="M175.808 260.54C175.929 258.843 178.324 257.888 182.993 257.676C187.692 257.494 193.346 258.131 199.955 259.585C207.201 261.192 212.977 263.465 217.282 266.405C219.283 267.769 220.268 268.935 220.238 269.905C220.207 270.966 218.904 271.648 216.327 271.951C213.204 272.315 209.596 272.375 205.503 272.133C201.198 271.89 196.863 271.315 192.497 270.405C188.435 269.557 184.736 268.253 181.401 266.496C177.521 264.465 175.656 262.48 175.808 260.54Z" fill="#50A8B4"/>
<path d="M90.7221 114.381C86.9627 116.26 82.2332 116.851 76.5336 116.154C70.2579 115.396 67.1958 113.108 67.3474 109.289C67.499 105.622 70.4852 104.061 76.3062 104.606C80.3081 104.97 85.0679 106.213 90.5856 108.334C104.107 113.578 116.189 123.276 126.83 137.43C135.531 149.007 141.352 160.479 144.293 171.844C145.051 174.724 145.293 176.436 145.02 176.981C144.717 177.497 144.005 176.466 142.883 173.89C128.543 140.279 111.156 120.442 90.7221 114.381Z" fill="#003F4D"/>
<path d="M161.028 162.07C161.301 165.222 161.119 166.677 160.482 166.434C159.846 166.222 159.346 164.707 158.982 161.888C157.436 150.401 153.1 135.02 145.976 115.744C138.487 95.5896 132.59 84.3909 128.285 82.1481C119.554 79.6023 113.991 76.3442 111.596 72.3739C109.777 69.3734 109.883 66.7366 111.914 64.4635C113.915 62.2814 116.78 62.3571 120.509 64.6908C124.177 66.9942 127.831 70.9646 131.469 76.6018C140.079 89.9676 147.294 106.213 153.115 125.337C157.572 140.006 160.21 152.25 161.028 162.07Z" fill="#003F4D"/>
<path d="M160.255 165.48C160.285 155.66 157.663 142.37 152.387 125.61C146.567 107.092 139.518 91.4226 131.241 78.6024C128.058 73.6925 124.738 69.8283 121.282 67.0096C117.159 63.6758 114.142 63.1302 112.232 65.373C110.625 67.2824 111.201 69.8737 113.96 73.147C117.174 76.9354 122.252 79.5571 129.195 81.0118C136.228 90.68 142.64 103.637 148.431 119.882C153.737 134.793 157.678 149.992 160.255 165.48ZM161.119 158.297C161.725 163.025 161.634 165.889 160.846 166.889C160.027 167.889 159.163 166.086 158.254 161.479C155.677 148.144 151.705 134.081 146.339 119.291C140.245 102.591 134.197 90.4224 128.194 82.7848C120.645 81.3604 115.234 78.5418 111.959 74.329C108.928 70.4496 108.685 67.0551 111.232 64.1456C113.324 61.7512 116.461 61.7361 120.645 64.1001C124.859 66.5247 128.71 70.6163 132.196 76.3748C147.658 102.197 157.299 129.504 161.119 158.297Z" fill="#0D131A"/>
<path d="M68.348 108.289C67.9236 109.471 68.3177 110.653 69.5304 111.835C70.7128 113.017 72.4106 113.941 74.6237 114.608C80.0202 116.214 85.2803 115.775 90.4039 113.29C104.168 117.351 116.674 127.565 127.922 143.931C134.682 153.781 140.2 164.464 144.475 175.981C141.352 162.07 134.637 148.689 124.329 135.839C113.688 122.564 102.273 113.82 90.0856 109.607C83.9615 107.486 79.2774 106.228 76.0335 105.834C71.6678 105.288 69.106 106.107 68.348 108.289ZM72.259 116.199C70.0458 115.381 68.4087 114.229 67.3476 112.744C66.2865 111.259 65.9833 109.683 66.438 108.016C67.2566 104.955 70.3035 103.591 75.5787 103.925C80.1566 104.228 85.9169 105.758 92.8596 108.516C103.683 112.79 113.93 120.715 123.601 132.293C133.667 144.355 140.761 157.645 144.884 172.163C145.763 175.193 145.824 176.906 145.066 177.3C144.278 177.694 143.232 176.391 141.928 173.39C128.225 141.173 111.141 121.746 90.6767 115.108C83.6431 117.806 77.5039 118.169 72.259 116.199Z" fill="#0D131A"/>
</g>
<defs>
<radialGradient id="paint0_radial_864_848" cx="0" cy="0" r="1" gradientUnits="userSpaceOnUse" gradientTransform="translate(150 150) rotate(90) scale(200)">
<stop stop-color="#F6C8D6"/>
<stop offset="1" stop-color="#ED85A7"/>
</radialGradient>
<clipPath id="clip0_864_848">
<rect width="300" height="300" fill="white"/>
</clipPath>
</defs>
</svg>
