<svg xmlns="http://www.w3.org/2000/svg" fill="none" viewBox="0 0 300 300"><g clip-path="url(#a)"><path fill="#fff" d="M0 0h300v300H0z"/><path fill="url(#b)" d="M-50-50h400v400H-50z"/><path fill="#84CABF" d="M136.786 153.464c-2.848-1.582-7.832-8.096-14.952-19.541-6.118-9.863-10.179-17.088-12.184-21.677-1.846-4.114-3.85-9.757-6.012-16.93-2.585-8.228-3.428-12.684-2.532-13.37 1.371-1.002 5.485-1.609 12.342-1.82l2.373-7.99c1.846-5.38 3.402-8.07 4.668-8.07s8.043 4.984 20.332 14.953l18.038 14.952 3.797 7.674c3.745 6.224 8.571 11.946 14.478 17.168l-.95 10.917c-1.635 8.07-5.063 14.135-10.284 18.196-6.013 4.694-11.419 7.41-16.218 8.149-4.22.633-8.518-.238-12.896-2.611Z"/><path fill="#84CABF" d="M260.835 22.612c12.5 8.913 18.75 18.96 18.75 30.142 0 2.11-.58 3.85-1.741 5.221l-2.61-3.56c-3.85 7.7-5.775 14.478-5.775 20.332 0 8.597 1.344 12.896 4.034 12.896 1.213 0 2.321-.58 3.323-1.74l1.187-1.82 2.215 2.769c1.424 2.426 2.136 5.01 2.136 7.753 0 2.795-.923 5.221-2.769 7.278l-2.769 2.294c-1.688 7.806-7.331 15.032-16.93 21.677-10.549 7.279-22.284 10.918-35.205 10.918-19.62 0-36.709-7.041-51.266-21.123-14.134-13.608-21.202-28.956-21.202-46.044 0-18.09 7.068-32.938 21.202-44.54 12.975-10.602 28.033-15.902 45.174-15.902 15.612 0 29.694 4.483 42.246 13.449Z"/><path fill="#84CABF" d="M258.858 129.019a108.902 108.902 0 0 1 7.515 3.639c4.009 2.162 9.52 5.617 16.535 10.364h5.063c3.428.158 5.195.606 5.301 1.345.263 1.107-.159 3.797-1.266 8.069l2.927 1.266c2.004.949 3.085 1.793 3.244 2.532.263 1.107-1.741 3.797-6.013 8.069 1.371 2.004 1.688 3.824.949 5.459-.685 1.477-4.034 3.27-10.047 5.38-6.804 2.32-13.317 3.481-19.541 3.481-5.696 0-11.128-.792-16.297-2.374l-6.092-2.373c.791-6.646 1.055-13.238.791-19.778-.158-4.062-.949-8.439-2.373-13.133l-2.136-5.855 10.126-3.164c1.794-.633 4.563-2.031 8.307-4.193l3.007 1.266ZM117.878 195.552c2.848 0 6.145 1.662 9.889 4.984 4.378 3.851 7.859 8.887 10.443 15.111 6.171 14.979 8.175 24.841 6.013 29.588-.791 1.846-2.875 5.037-6.25 9.573-4.43 5.96-7.437 10.179-9.019 12.658l-10.126 14.636c-3.851 5.274-6.119 8.043-6.804 8.307-.844.369-4.536-2.769-11.076-9.415-10.917 4.378-16.64 6.435-17.167 6.171-.475-.211-1.029-3.956-1.662-11.234-8.544-4.536-12.869-7.489-12.974-8.861-.053-.844 1.82-2.98 5.617-6.408l5.696-4.905c.369-4.325 1.081-9.177 2.136-14.557 2.162-10.812 5.09-18.934 8.781-24.366 9.547-14.188 18.381-21.282 26.503-21.282ZM208.067 232.261c4.377-2.848 9.098-7.463 14.161-13.845l6.329-8.782 8.228 7.674c5.432 6.435 8.148 12.975 8.148 19.62 0 4.694-.369 8.518-1.107 11.472l-1.187 3.006 6.487 3.244c4.22 2.32 6.198 3.955 5.934 4.905-.211 1.054-2.268 2.9-6.171 5.537-.316.211-.079.633.712 1.266.791.686.976 1.161.554 1.424-5.433 3.27-12.764 6.54-21.994 9.81-8.755 3.165-14.214 4.615-16.376 4.352-1.371-.159-4.167-2.901-8.386-8.228-3.745-4.747-6.012-7.991-6.804-9.731-.474-1.002-3.903-4.22-10.284-9.652l-9.494-7.832c13.766-5.011 24.182-9.757 31.25-14.24Z"/><path fill="#84CABF" d="M2.531 154.176c0-14.345 4.72-26.186 14.162-35.521 8.966-8.914 19.725-13.37 32.278-13.37 11.287 0 20.305 3.982 27.056 11.946 7.015 8.227 10.522 19.62 10.522 34.177l-1.503 15.268c-1.002 8.597-1.503 15.902-1.503 21.915 0 6.592 1.477 13.053 4.43 19.382 1.424 3.112 2.875 5.591 4.352 7.437l-3.481 7.278-3.798 9.81c-3.692-.052-8.175-.712-13.449-1.978-10.548-2.637-19.778-7.093-27.69-13.37-11.55-9.229-21.07-19.145-28.56-29.746-8.543-12.131-12.816-23.207-12.816-33.228Z"/><path fill="#F2E100" d="m177.134 118.813 8.069 5.221c6.646 3.956 13.159 7.147 19.541 9.573s13.739 3.402 22.073 2.927l10.601-1.424 2.531 8.07c1.635 6.487 2.453 12.658 2.453 18.512 0 23.629-8.201 44.066-24.604 61.313-16.667 17.51-36.735 26.265-60.205 26.265-3.956 0-7.437-.448-10.443-1.345l-3.323-1.424c.58-2.373.712-5.59.396-9.652-.686-8.122-3.349-16.429-7.991-24.92-4.588-8.492-9.361-13.792-14.319-15.902-1.53-.685-2.98-1.002-4.351-.949l-1.662.237 4.668-4.193c3.639-3.903 6.857-8.518 9.652-13.845 2.848-5.326 4.799-10.785 5.854-16.376l.712-6.725 2.215 1.029a22.572 22.572 0 0 0 6.013 1.266c6.804.422 13.502-2.084 20.095-7.516 5.59-4.589 9.256-10.997 10.996-19.224l1.029-10.918Z"/><path fill="#EEEEEF" d="M130.141 147.293c1.318 1.846 3.665 4.114 7.041 6.804l-1.187 7.358c-1.266 5.801-3.112 10.944-5.538 15.427-2.373 4.536-5.59 8.992-9.651 13.37l-5.38 5.221-2.453.871-5.063 2.136c-1.424.738-3.191 2.188-5.3 4.351l-2.77 3.085c.475-3.006 1.108-6.25 1.899-9.731 1.53-6.909 3.007-11.497 4.431-13.765.949-1.477 3.19-4.141 6.724-7.991 3.376-3.744 5.907-7.067 7.595-9.968 1.899-3.27 3.165-8.28 3.797-15.031l.475-9.178 5.38 7.041Z"/><path fill="#CF7100" d="M124.208 149.192c-.475 7.279-1.715 12.553-3.719 15.823-1.688 2.848-4.456 6.329-8.307 10.443-3.744 3.955-6.039 6.698-6.882 8.227-1.899 3.376-3.798 10.47-5.697 21.282l-7.278 10.443c-1.477-1.424-2.927-3.692-4.351-6.804-2.954-6.276-4.43-13.713-4.43-22.31 0-20.147 4.272-38.871 12.816-56.17 4.272-8.65 8.544-15.269 12.816-19.857l7.199 13.923 7.912 15.032-.079 9.968Z"/><path fill="#EEEEEF" d="m142.72 80.76 8.702-6.013 4.747 18.196L142.72 80.76Z"/><path fill="#C6000B" d="M192.403 72.216c-.528-.95-.633-3.429-.317-7.437a68.796 68.796 0 0 1 2.532-13.054c3.692-11.972 9.388-17.958 17.088-17.958 3.112 0 5.406 2.162 6.883 6.487 1.793 5.116 1.398 11.603-1.187 19.462-1.371 4.114-3.111 7.885-5.221 11.313-2.057 3.323-3.798 5.274-5.222 5.854-1.265.475-3.955-.026-8.069-1.503-3.956-1.424-6.118-2.479-6.487-3.164ZM275.234 54.415c.791 0 1.767 1.133 2.927 3.401 1.582 3.06 2.373 6.804 2.373 11.234 0 5.01-.87 9.494-2.61 13.45-1.635 3.692-3.323 5.537-5.064 5.537-2.531 0-3.797-3.56-3.797-10.68 0-5.696 1.028-11.234 3.085-16.613l3.086-6.33Z"/><path fill="#fff" d="M207.513 77.12c2.796-2.637 5.037-5.485 6.725-8.544a89.188 89.188 0 0 0 4.509-9.652l-.949 8.624c-.897 5.854-1.952 9.098-3.165 9.73l-4.667.475-2.453-.633Z"/><path fill="#0D131A" d="M208.462 41.836c1.319.263 2.321 1.635 3.007 4.114.685 2.636.712 5.696.079 9.177-.58 3.111-1.662 5.696-3.244 7.753-1.635 2.162-3.323 3.059-5.063 2.69-1.688-.37-2.822-1.873-3.402-4.51-.58-2.426-.527-5.195.158-8.307.791-3.586 2.084-6.434 3.877-8.544 1.635-1.846 3.164-2.637 4.588-2.373ZM271.199 78.94c-.791-.264-1.24-1.346-1.345-3.244-.106-1.635.053-3.455.475-5.459.422-2.004 1.081-3.824 1.977-5.459 1.055-1.846 2.031-2.558 2.928-2.136.949.422 1.45 1.661 1.503 3.718.105 1.688-.106 3.692-.633 6.013-.422 1.846-1.213 3.481-2.374 4.905-1.054 1.266-1.898 1.82-2.531 1.661Z"/><path fill="#fff" d="M210.678 34.557c1.002.58 1.846 1.82 2.531 3.718.739 2.321.765 4.589.079 6.804-.738 2.426-2.083 4.22-4.034 5.38-1.741 1.107-3.376 1.397-4.906.87-1.898-.58-3.164-1.899-3.797-3.956-.633-2.11-.448-4.51.554-7.199.844-2.215 2.426-3.903 4.747-5.063 2.109-1.055 3.718-1.24 4.826-.554ZM275.076 57.184c.474.158.844.791 1.107 1.899a8.1 8.1 0 0 1 0 3.56c-.791 3.64-1.793 5.353-3.006 5.142-.738-.158-1.213-.79-1.424-1.898-.211-1.108-.132-2.427.237-3.956.95-3.481 1.978-5.063 3.086-4.747Z"/><path fill="#CBBD00" d="m177.134 118.813 9.81 5.696c8.228 4.167 16.403 7.305 24.525 9.415 5.116 1.265 10.997 1.74 17.642 1.424l8.386-.871 1.187 2.928c-1.266 1.107-3.112 2.241-5.538 3.401-4.852 2.216-10.206 3.323-16.06 3.323-6.434 0-14.346-3.27-23.734-9.81-8.439-5.907-13.845-11.076-16.218-15.506ZM204.507 234.476c-14.346 9.863-29.72 14.794-46.123 14.794l-10.284-1.345-4.272-1.424.87-3.797c.422-3.007.369-5.67-.158-7.991l-1.424-7.674-.554-3.56c10.654 3.85 23.997 5.617 40.031 5.301 17.616-.317 30.458-3.349 38.528-9.098-3.903 4.957-9.441 9.889-16.614 14.794Z"/><path fill="#72B0A6" d="M129.35 97.531c-.528 1.688-1.161 2.743-1.899 3.165-.686.422-1.187-.053-1.503-1.424-.475-2.427-.659-5.538-.554-9.336l.316-4.984c0-1.793.264-3.085.792-3.876.58-1.002 1.318-.29 2.215 2.136 1.846 4.957 2.057 9.73.633 14.32ZM136.232 153.702c-3.322-2.532-8.043-8.623-14.161-18.275-5.432-8.65-9.309-15.691-11.629-21.123-1.846-4.22-3.692-9.204-5.538-14.953-1.583-4.852-2.664-8.57-3.244-11.155-.686-2.848-.554-4.588.396-5.221 1.107-.791 3.059.95 5.854 5.221l29.43 35.601c15.981 19.251 23.075 29.378 21.281 30.38-2.9 1.635-6.276 2.558-10.126 2.769-4.905.316-8.993-.765-12.263-3.244ZM262.259 178.542c-5.854 0-11.128-.764-15.822-2.294l-5.301-2.373 1.266-12.184c3.534 2.11 10.074 4.141 19.62 6.092 11.761 2.426 22.125 3.086 31.091 1.978-1.002 1.477-3.032 2.953-6.092 4.43-6.17 2.901-14.424 4.351-24.762 4.351ZM205.535 234.238c-2.637 1.899-3.454 4.642-2.452 8.228.897 3.428 3.244 6.856 7.041 10.285 9.283 8.386 20.279 11.788 32.99 10.205l-2.373-1.028c-1.794-.686-2.585-1.055-2.374-1.108l8.545-.791 8.623-1.819c-1.108 2.215-3.27 4.456-6.487 6.724-.211.106-.08.554.395 1.345.475.738.58 1.187.317 1.345-2.216 1.424-6.804 3.85-13.766 7.278-6.909 3.323-12.895 5.485-17.959 6.488l-7.199.316c-1.213-.369-5.696-6.355-13.449-17.959l-20.965-16.455 6.171-2.215 10.601-4.272c4.061-1.846 8.175-4.035 12.341-6.567ZM69.778 267.624c-.211-1.002 2.162-.422 7.12 1.74 4.746 2.057 6.803 4.062 6.17 6.013l-7.278-2.452-6.012-5.301ZM100.394 280.678l-10.284 4.747-4.352.949-2.69.317.713-2.532c.316.475 2.478-.369 6.487-2.532 4.641-2.426 7.436-3.744 8.386-3.955 1.477-.369 2.373-.053 2.69.949.263.897-.053 1.582-.95 2.057ZM108.147 287.956c.528.264 2.163-1.239 4.905-4.509 2.743-3.27 4.8-6.197 6.171-8.782l12.817-24.762c7.014-14.346 10.258-22.837 9.73-25.474l2.216 7.99c1.265 5.96 1.213 10.654-.159 14.082-1.213 3.059-3.006 5.96-5.379 8.703-3.534 4.008-6.197 7.384-7.991 10.126-11.181 17.089-17.194 25.633-18.037 25.633l-2.611-1.503-1.662-1.504ZM89.477 220.79l-4.43 11.708c-3.534.159-8.017-.448-13.45-1.819-10.865-2.743-21.018-7.912-30.458-15.506-9.863-7.912-18.17-16.746-24.92-26.503l-7.121-12.263c10.18 5.591 16.007 8.465 17.484 8.624 1.53.21 6.593-.897 15.19-3.323 5.274 10.865 13.238 20.305 23.892 28.322 9.546 7.173 17.484 10.76 23.813 10.76Z"/><path fill="#72B0A6" d="M4.272 138.591a49.076 49.076 0 0 1 4.826-10.759l2.69-4.035c-1.688 9.282-1.082 17.642 1.82 25.079 2.531 6.487 6.487 11.603 11.866 15.348 4.958 3.481 10.127 5.142 15.506 4.984 5.486-.211 9.731-2.295 12.738-6.25l-1.029 3.876c-.897 2.901-1.978 5.301-3.243 7.2-1.688 2.584-4.404 4.984-8.15 7.199-4.271 2.531-8.332 3.797-12.183 3.797-4.06 0-8.069-1.213-12.025-3.639-3.85-2.321-6.777-5.195-8.781-8.623-6.382-10.812-7.727-22.205-4.035-34.177Z"/><path fill="#A95B00" d="M93.828 136.218c1.846-4.431 3.824-8.36 5.933-11.788l2.611-3.877c-3.744 9.968-5.116 22.89-4.114 38.766.95 14.82 3.086 23.997 6.409 27.531l-5.064 18.117-7.278 10.443c-1.582-1.055-3.138-3.112-4.668-6.171-3.059-6.118-4.351-14.267-3.876-24.446.844-18.302 4.193-34.493 10.047-48.575Z"/><path fill="#C8C9CA" d="m123.97 186.533-7.278 8.782-3.481 1.028c-2.585.897-4.615 1.82-6.092 2.769l-7.516 5.855c1.002-5.222 1.767-8.835 2.295-10.839l1.661-4.826 1.108-2.452c.474 1.476 2.426 2.373 5.854 2.689 4.166.37 8.65-.632 13.449-3.006Z"/><path fill="#0D131A" d="M272.94 32.659c4.008 5.221 6.592 10.337 7.753 15.348 1.16 4.957.659 8.65-1.504 11.075-.21.264-.501-.184-.87-1.345-.369-1.213-.474-1.977-.316-2.294 1.266-2.057 1.028-5.248-.712-9.572-1.793-4.43-4.694-8.94-8.703-13.529-10.126-11.55-22.072-18.354-35.838-20.41-19.567-2.954-36.761.316-51.581 9.81-14.821 9.493-23.602 22.89-26.345 40.189-2.637 16.771 1.925 32.067 13.687 45.885 11.708 13.713 27.293 22.178 46.755 25.395 13.66 2.268 26.582.238 38.766-6.091 11.497-6.013 18.617-13.766 21.36-23.26l1.424.079c.791.37 1.134.739 1.029 1.108-2.848 10.021-10.311 18.196-22.389 24.525-12.711 6.593-26.266 8.702-40.664 6.329-20.253-3.375-36.63-12.289-49.13-26.74-12.658-14.61-17.589-30.617-14.794-48.022 2.954-18.618 11.999-32.726 27.136-42.325 15.19-9.652 33.597-12.843 55.221-9.573 16.508 2.48 29.746 10.285 39.715 23.418Z"/><path fill="#0D131A" d="M277.133 84.24c-.158-.158.026-.474.554-.949.527-.422.923-.527 1.186-.316 3.218 3.059 4.721 7.04 4.51 11.946-.264 4.852-2.057 8.491-5.38 10.917l-1.74-.158c-.633-.633-1.398-1.213-2.295-1.74-1.266-.739-2.4-1.108-3.402-1.108l-8.544 3.56c-5.538 2.321-9.863 3.428-12.974 3.323-1.319-.053-4.589-1.635-9.81-4.747-5.855-3.481-9.467-5.459-10.839-5.933-2.215-.739-6.566-1.715-13.053-2.928l-14.557-2.215c-3.692-.369-7.252-1.872-10.68-4.51-3.27-2.478-5.749-5.405-7.437-8.78-.791-1.636-.897-2.585-.317-2.849.528-.263 1.187.422 1.978 2.057 1.424 2.9 3.719 5.433 6.883 7.595 3.217 2.162 6.514 3.428 9.889 3.797l14.794 2.216c6.699 1.265 11.182 2.32 13.45 3.164 1.371.528 4.905 2.453 10.601 5.775 5.116 3.007 8.227 4.562 9.335 4.668 2.848.211 7.015-.844 12.5-3.165l8.623-3.718c2.268-.105 4.562.844 6.883 2.848 1.899-1.688 2.954-4.483 3.165-8.386.21-4.272-.897-7.727-3.323-10.364Z"/><path fill="#0D131A" d="M241.057 90.965c.633-.316 1.583.501 2.848 2.453 1.319 1.951 1.556 3.111.712 3.48-.843.37-1.793-.448-2.848-2.452-1.054-2.057-1.292-3.217-.712-3.48ZM262.18 96.108c.317.632-.29 1.529-1.819 2.69-1.477 1.107-2.374 1.45-2.69 1.028-.317-.422.29-1.319 1.819-2.69 1.477-1.371 2.374-1.714 2.69-1.028ZM272.86 46.425l1.82-.237c.211.316-.158.79-1.108 1.423l-1.898 1.978-1.899 3.007c-.475 1.002-1.002 1.345-1.582 1.028-.58-.316-.659-.976-.238-1.978 1.214-2.584 2.849-4.325 4.905-5.221ZM217.086 29.177c-1.002-.527-1.424-1.028-1.266-1.503.211-.422.818-.422 1.82 0 1.899.844 3.481 2.057 4.747 3.64 1.371 1.74 2.162 3.665 2.373 5.775.105 1.688-.132 2.558-.712 2.61-.633 0-1.081-.79-1.345-2.373-.738-3.692-2.611-6.408-5.617-8.149ZM218.985 70.87c-1.372 4.747-2.611 7.358-3.719 7.832-2.162.95-6.566.58-13.212-1.107-6.909-1.74-10.627-3.64-11.155-5.696-.474-1.899-.474-4.958 0-9.177.475-4.747 1.424-9.257 2.849-13.529 3.902-11.656 9.678-17.22 17.325-16.692 7.859.527 11.34 8.148 10.443 22.863-.316 5.38-1.16 10.549-2.531 15.506Zm-8.07-35.68c-3.059-.21-5.854 1.214-8.386 4.273-2.532 3.111-4.668 7.753-6.408 13.923-.897 3.165-1.609 6.883-2.136 11.155-.475 3.692-.633 5.934-.475 6.725l.396.475 1.503 1.028c2.373 1.213 5.907 2.215 10.601 3.006l8.07.554c.685-.738 1.503-3.085 2.452-7.04 1.108-4.431 1.793-8.756 2.057-12.976l.158-4.825c0-6.224-.87-10.654-2.611-13.291-1.265-1.846-3.006-2.848-5.221-3.007Z"/><path fill="#0D131A" d="M217.956 42.943c-.053-.37.316-.607 1.108-.712.791-.105 1.213.026 1.265.395.792 5.17.264 10.997-1.582 17.485-2.11 7.489-5.38 13.08-9.81 16.771l-1.266-.158c-.633-.21-.817-.422-.553-.633 4.219-3.692 7.331-9.15 9.335-16.376 1.793-6.33 2.294-11.92 1.503-16.772ZM277.924 60.665c-.686-2.268-1.53-3.93-2.532-4.984-1.477 2.848-2.663 6.382-3.56 10.601-.791 3.956-1.187 7.753-1.187 11.392 0 3.218.343 5.775 1.029 7.674.369.897.712 1.345 1.028 1.345.686.053 1.345-.184 1.978-.712 1.16-.95 2.136-2.742 2.927-5.38.739-2.637 1.213-5.801 1.424-9.493l.079-1.978c0-3.059-.395-5.88-1.186-8.465Zm-1.662-9.098c.633-.686.923-.712.87-.08l-.87 2.532c1.793 1.372 3.218 3.824 4.272 7.358 1.002 3.323 1.398 6.62 1.187 9.89-.369 6.486-1.556 11.339-3.56 14.556-1.635 2.584-3.534 3.771-5.696 3.56-1.371-.105-2.453-1.134-3.244-3.085-1.529-3.745-1.608-9.362-.237-16.851 1.477-7.965 3.903-13.924 7.278-17.88ZM142.562 82.105l-1.899-1.978c2.953-3.64 6.619-5.855 10.997-6.646.527-.105.817.343.87 1.345.053 1.002-.158 1.556-.633 1.662-3.798 1.055-6.909 2.927-9.335 5.617ZM108.464 108.37l1.978 3.877c-5.538 7.436-10.338 15.506-14.399 24.208-5.854 12.342-9.362 26.16-10.522 41.455-1.319 17.142 1.266 29.351 7.753 36.63.264.263.08.685-.554 1.265-.633.581-1.08.739-1.345.475-6.909-7.7-9.994-20.49-9.256-38.37.633-16.402 3.903-30.801 9.81-43.195 4.536-9.547 10.047-18.328 16.535-26.345ZM122.23 152.752c.949-6.276 1.028-11.577.237-15.902-.106-.316.395-.026 1.503.871 1.055.896 1.609 1.529 1.661 1.898.897 4.8.818 9.995-.237 15.586-1.002 5.327-2.558 9.493-4.668 12.499l-8.227 9.415c-2.954 3.059-4.853 5.459-5.696 7.199-1.319 2.848-2.585 6.303-3.798 10.364-1.16 4.061-1.872 7.252-2.136 9.573l-1.424 2.215-1.345 1.186c.422-3.533 1.24-7.7 2.453-12.499 1.318-5.011 2.637-8.967 3.955-11.867.95-2.057 3.086-4.905 6.408-8.545l7.279-8.781c1.74-2.743 3.085-7.147 4.035-13.212Z"/><path fill="#0D131A" d="M91.85 139.382c.053-.369.501-.448 1.345-.237.844.158 1.24.395 1.187.712-1.16 5.907-.844 13.159.95 21.756 2.003 9.335 5.3 17.589 9.888 24.762.211.317-.053.712-.791 1.187l-1.345.158c-5.485-8.491-9.124-17.194-10.918-26.107-1.635-7.806-1.74-15.216-.316-22.231ZM135.204 153.701c0-.316.501-.237 1.503.237l1.503.95c-.316 15.242-7.252 28.771-20.806 40.585-.264.211-.95.211-2.057 0-1.055-.211-1.451-.422-1.187-.633 4.905-3.745 9.493-9.415 13.766-17.009 4.852-8.65 7.278-16.693 7.278-24.13ZM235.994 135.664c-.158-.369.158-.712.949-1.029.792-.369 1.24-.369 1.345 0 3.745 8.492 5.617 16.588 5.617 24.288 0 36.603-14.214 63.079-42.641 79.429-10.602 6.118-21.809 9.942-33.623 11.472-10.549 1.318-18.592.606-24.13-2.136-.316-.159-.29-.607.079-1.345.369-.791.712-1.108 1.029-.95 5.485 2.743 13.343 3.323 23.575 1.741 11.234-1.688 21.915-5.617 32.041-11.788 11.972-7.278 21.387-16.772 28.243-28.481 8.123-13.713 12.184-29.693 12.184-47.942 0-8.228-1.556-15.981-4.668-23.259Z"/><path fill="#0D131A" d="M172.15 140.806c-.106-.263.105-.817.633-1.661.58-.791.923-1.028 1.028-.712 2.163 5.169 6.066 9.81 11.709 13.924 5.696 4.061 12.473 7.094 20.332 9.098 7.12 1.846 13.898 2.531 20.332 2.057 6.435-.528 11.34-2.136 14.715-4.826.264-.211.659.026 1.187.712.527.686.659 1.134.395 1.345-3.797 3.006-9.071 4.878-15.822 5.617-6.962.791-14.161.237-21.598-1.662-7.753-2.004-14.583-5.195-20.49-9.572-5.696-4.167-9.837-8.94-12.421-14.32Z"/><path fill="#0D131A" d="M221.121 165.094c-.897 10.338-5.275 24.314-13.133 41.93-8.07 18.091-15.243 29.351-21.519 33.781l-1.187-.712c-.474-.685-.58-1.134-.316-1.345 5.116-3.639 11.867-14.846 20.253-33.623 8.175-18.354 12.632-31.777 13.37-40.268 0-.369.422-.501 1.266-.396.896.053 1.318.264 1.266.633ZM162.26 149.43l.95.316.395.87 1.345 20.728.95 18.75-.317.87-8.94 8.702c-6.803 6.118-13.159 10.654-19.066 13.608l-.949.079-.791-.633-.079-.554c0-.527.237-.923.712-1.186 8.122-4.062 17.088-11.182 26.898-21.361l-1.028-18.591-1.266-20.253v-.08c0-.843.395-1.265 1.186-1.265Z"/><path fill="#0D131A" d="m203.637 210.109 12.42.553c5.064-.158 9.098-.633 12.105-1.424.369-.052.422.317.158 1.108l-.87 1.266c-2.954 1.002-6.804 1.687-11.551 2.057-4.905.422-9.335.369-13.291-.159-7.858-1.002-15.216-3.454-22.072-7.357-6.698-3.85-11.946-8.544-15.744-14.082-.211-.317-.184-.923.079-1.82.211-.896.422-1.213.633-.949 3.376 5.01 8.729 9.441 16.06 13.291 6.804 3.533 14.161 6.039 22.073 7.516ZM144.619 238.273c-.37-.052-.475-.422-.317-1.107.106-.686.343-1.002.712-.95l20.095 1.899c9.599.58 16.429.712 20.49.396l.87.237.475.791.396 3.956c.105.369-.211.633-.95.791l-1.186-.237-.554-2.928-20.886-.633-19.145-2.215Z"/><path fill="#0D131A" d="M123.258 198.163c-2.215-1.53-4.852-1.952-7.911-1.266-2.954.58-6.039 2.189-9.256 4.826-4.589 3.744-9.046 9.282-13.37 16.614-3.27 5.485-6.119 13.343-8.545 23.575-1.16 5.116-2.03 9.731-2.61 13.845l-.475.791-7.2 6.329c-2.056 2.11-3.085 3.481-3.085 4.114.106.633 1.371 1.688 3.798 3.164 2.373 1.53 5.116 2.98 8.227 4.352.528.158.791.527.791 1.107 0 5.222.343 8.465 1.029 9.731 2.11-.422 7.437-2.373 15.981-5.854l1.503.316 5.38 5.855c1.951 1.846 3.243 2.848 3.876 3.006 1.002-.527 3.428-3.455 7.279-8.782l8.227-12.183c1.794-2.901 5.644-8.201 11.551-15.902l3.085-4.034c1.319-1.688 1.978-4.352 1.978-7.991l-.396-5.3c-1.107-6.962-3.586-14.003-7.436-21.124-3.903-7.067-8.043-12.13-12.421-15.189Zm-41.534 40.506c2.057-10.021 4.667-17.695 7.832-23.022 5.802-9.758 12.236-16.298 19.304-19.62 6.223-3.007 11.497-3.007 15.822 0 8.755 6.118 15.137 15.532 19.145 28.243 3.798 12.131 3.692 20.754-.316 25.87-6.54 8.175-11.34 14.478-14.399 18.908l-8.544 13.607c-4.061 6.435-6.777 9.784-8.148 10.048-2.057.474-5.934-3.033-11.63-10.522-3.64 2.32-7.278 4.219-10.918 5.696-3.533 1.424-5.801 1.951-6.803 1.582-.844-.316-1.398-1.398-1.662-3.244-.158-1.424-.263-4.667-.316-9.73l-8.94-3.798c-3.797-1.846-5.775-3.454-5.933-4.826-.106-1.16.87-2.848 2.927-5.063 2.32-2.532 5.643-5.169 9.968-7.911l2.61-16.218ZM241.611 229.808c-2.743-7.911-7.569-14.267-14.478-19.066-.211-.158.132-.712 1.029-1.661.844-1.003 1.424-1.398 1.74-1.187 7.701 5.38 12.817 12.711 15.348 21.993 2.268 8.281 2.004 15.295-.791 21.044 8.491 3.64 12.737 6.488 12.737 8.545 0 1.265-2.505 3.56-7.516 6.882l-2.452-2.057c4.272-2.584 6.408-4.245 6.408-4.984 0-.58-1.213-1.529-3.639-2.848-2.215-1.266-4.826-2.505-7.832-3.718l-.871-.791.317-1.187c2.69-6.276 2.69-13.265 0-20.965ZM256.405 127.515c.791-.791 1.292-1.134 1.503-1.029 3.639 1.319 8.597 4.009 14.873 8.07 6.804 4.325 11.445 8.017 13.924 11.076.58.738.659 1.345.238 1.819-.475.422-1.003.264-1.583-.474-2.373-2.954-7.331-6.619-14.873-10.997-6.856-3.956-11.814-6.329-14.873-7.12-.317-.106-.053-.554.791-1.345Z"/><path fill="#0D131A" d="M282.829 142.863c-.633-.58-.791-.897-.475-.949l7.12-.317c2.848.211 4.589.739 5.222 1.582.369.528.395 1.688.079 3.481l-1.424 4.985c4.166 1.265 6.382 2.742 6.645 4.43.053.58-.448 1.608-1.503 3.085-1.266 1.793-3.032 3.639-5.3 5.538 1.054 1.319 1.582 2.743 1.582 4.272 0 1.53-1.609 3.244-4.826 5.143-3.375 1.951-7.542 3.481-12.5 4.588-12.922 2.901-25.131 1.741-36.629-3.481-.369-.158-.422-.738-.158-1.74.211-1.055.474-1.503.791-1.345 2.953 1.318 6.593 2.426 10.917 3.323l16.377 1.582c5.379 0 10.733-1.161 16.06-3.481 4.641-2.057 6.962-3.639 6.962-4.747 0-.897-.422-2.136-1.266-3.718-.317-.528-.264-1.029.158-1.503 3.639-3.64 5.591-6.039 5.854-7.2-.474-.791-2.162-1.714-5.063-2.769l-.87-.553v-.95c.949-3.323 1.424-5.749 1.424-7.278v-.158l-3.165-.633-4.746-.238-1.266-.949ZM42.167 141.044c-1.688-.475-3.27-.475-4.747 0a6.695 6.695 0 0 0-3.48 2.769c-.633 1.054-1.187 1.45-1.662 1.186-.475-.264-.448-.923.08-1.978 1.107-2.215 2.584-3.665 4.43-4.351 1.635-.58 3.665-.606 6.091-.079 4.114.897 7.49 3.296 10.127 7.199 2.637 3.798 3.955 8.096 3.955 12.896 0 7.384-2.874 13.897-8.623 19.541-5.696 5.538-12.183 8.306-19.462 8.306-7.595 0-14.267-3.349-20.015-10.047C2.954 169.682 0 161.666 0 152.436c0-14.504 5.221-26.556 15.664-36.155 9.652-8.86 20.754-13.291 33.307-13.291 12.869 0 22.626 4.536 29.272 13.608 6.698 9.071 9.862 22.151 9.493 39.24-.053 1.476-.527 2.742-1.424 3.797-.896 1.002-1.318.976-1.266-.079 1.002-17.352-2.004-30.749-9.019-40.189-6.487-8.703-15.506-13.054-27.056-13.054-10.548 0-20.227 3.929-29.034 11.788-10.074 8.966-15.111 20.411-15.111 34.335 0 8.649 2.32 15.954 6.962 21.914 4.641 5.96 10.337 8.94 17.088 8.94 6.488 0 12.052-2.4 16.693-7.199 4.589-4.8 6.883-10.602 6.883-17.405 0-5.011-1.108-9.151-3.323-12.421-1.899-2.69-4.22-4.43-6.962-5.221Z"/><path fill="#0D131A" d="M1.82 163.037c-.106-.317.316-.396 1.265-.238.95.159 1.45.343 1.503.554 6.224 18.196 17.326 33.94 33.307 47.231C53.929 223.98 69.83 230.678 85.6 230.678c.37 0 .422.554.158 1.662-.263 1.107-.58 1.661-.949 1.661-15.928 0-32.093-6.909-48.496-20.728-16.72-14.082-28.217-30.827-34.493-50.236ZM174.761 248.083c-.264-.158.211-.527 1.424-1.107 1.16-.581 1.846-.818 2.057-.712 7.647 3.903 15.479 10.891 23.496 20.965l7.199 9.493c2.057 2.637 3.455 3.929 4.193 3.877 5.064-.317 12.368-2.427 21.915-6.329 9.124-3.745 13.713-6.25 13.765-7.516.053-.528-.685-1.213-2.215-2.057-1.529-.844-3.349-1.556-5.459-2.136-2.057-.633-2.98-1.213-2.769-1.741l3.402-.237c3.007.58 5.591 1.582 7.753 3.006 2.004 1.372 2.848 2.506 2.532 3.402-1.108 3.323-6.909 7.041-17.405 11.155-10.337 4.008-17.879 5.696-22.626 5.063-1.161-.158-5.591-4.72-13.291-13.686-8.65-10.179-16.64-17.326-23.971-21.44ZM157.751 90.965c.369.21.686 1.054.949 2.531.317 1.424.317 2.03 0 1.82-3.059-1.899-10.311-7.542-21.756-16.93-10.232-8.386-15.638-12.527-16.218-12.421-.738.105-1.793 2.162-3.164 6.17-1.266 3.85-2.057 7.147-2.374 9.89-.211 2.11-.633 3.138-1.266 3.085-.632 0-.949-1.055-.949-3.164.053-4.114.765-8.28 2.136-12.5 1.477-4.378 3.059-6.751 4.747-7.12 1.582-.317 7.357 3.665 17.326 11.946 12.13 10.126 18.987 15.69 20.569 16.692Z"/><path fill="#0D131A" d="m177.213 118.733 1.345.791c.316 3.376-.106 7.463-1.266 12.263-1.213 5.063-2.822 8.992-4.826 11.788-4.799 6.645-10.759 11.049-17.879 13.212-7.015 2.162-13.08 1.582-18.196-1.741-6.593-4.272-14.926-16.614-25-37.025-9.968-20.094-14.135-32.41-12.5-36.945.528-1.477 2.69-2.321 6.487-2.532l8.624.554c.316.052.448.5.395 1.345 0 .844-.184 1.24-.553 1.186a51.065 51.065 0 0 0-6.962 0c-2.532.211-3.982.501-4.352.87-1.371 3.904 2.479 15.401 11.551 34.494 9.388 19.725 17.299 31.671 23.734 35.838 4.483 2.954 9.81 3.323 15.981 1.108 6.17-2.216 11.471-6.409 15.901-12.579 2.057-2.848 3.745-6.62 5.064-11.314 1.265-4.694 1.661-8.438 1.186-11.234l1.266-.079Z"/><path fill="#0D131A" d="M133.068 80.047c2.584 1.688 4.351 3.244 5.3 4.668 1.002 1.582 1.134 2.61.396 3.085-.738.422-1.609-.132-2.611-1.661-.633-1.002-2.004-2.083-4.114-3.244-2.004-1.107-3.322-1.582-3.955-1.424-.528.528-.923 2.163-1.187 4.905-.264 3.112-.211 6.725.158 10.839.211 2.057-.132 3.112-1.028 3.164-.844.053-1.345-.95-1.503-3.006-1.002-11.761-.317-18.196 2.057-19.304 1.371-.633 3.533.027 6.487 1.978Z"/></g><defs><radialGradient id="b" cx="0" cy="0" r="1" gradientTransform="rotate(90 0 150) scale(200)" gradientUnits="userSpaceOnUse"><stop stop-color="#F2E100"/><stop offset="1" stop-color="#CF7100"/></radialGradient><clipPath id="a"><path fill="#fff" d="M0 0h300v300H0z"/></clipPath></defs></svg>