<svg xmlns="http://www.w3.org/2000/svg" fill="none" viewBox="0 0 300 300"><g clip-path="url(#a)"><path fill="#fff" d="M0 0h300v300H0z"/><path fill="url(#b)" d="M-50-50h400v400H-50z"/><path fill="#0D131A" d="M43.284 203.393c-.413-5.45.569-10.642 2.947-15.575 2.551-5.278 6.48-9.797 11.789-13.558 1.654-1.172 3.464-1.569 5.429-1.19 1.964.345 3.533 1.328 4.705 2.95 1.172 1.621 1.585 3.432 1.24 5.433-.379 1.966-1.378 3.536-2.998 4.709-1.517 1.035-3.085 3.156-4.705 6.365-1.93 3.829-2.81 7.399-2.637 10.711.207 3.725 2.654 7.123 7.342 10.194 4.584 3.001 8.29 3.863 11.116 2.587 2.654-1.139 5.205-3.157 7.652-6.054 2.034-2.381 3.292-4.347 3.774-5.899 0-1.449.38-2.777 1.138-3.985a7.427 7.427 0 0 1 3.102-2.639l1.706-.517c1.655-.311 3.206-.069 4.653.724 1.483.794 2.568 1.949 3.258 3.467 1.654 3.726.465 8.504-3.568 14.334-1.999 2.932-4.205 5.502-6.618 7.71-4.929 4.553-10.306 7.382-16.131 8.486-5.894 1.138-11.375.31-16.442-2.484-4.894-2.725-8.841-6.399-11.84-11.022-2.895-4.553-4.532-9.469-4.912-14.747Z"/><path fill="#4573AB" d="M57.606 203.289c.31 5.623 3.585 10.177 9.824 13.661 2.516 1.38 5.032 1.846 7.548 1.397l3.154-.983c3-1.311 5.808-3.553 8.428-6.727 2.102-2.518 3.378-4.605 3.826-6.261v-.207c0-1.207.31-2.294.93-3.26a5.084 5.084 0 0 1 2.482-2.173l1.345-.414c1.31-.242 2.55-.035 3.722.621a5.705 5.705 0 0 1 2.585 2.742c1.276 2.863.449 6.693-2.481 11.488-2.103 3.38-4.55 6.364-7.342 8.952-4.653 4.243-9.582 6.813-14.787 7.71-5.205.862-10.22-.052-15.046-2.743-5.618-3.105-9.755-6.985-12.409-11.643-2.068-3.518-3.205-7.365-3.412-11.539-.31-5.83 1.051-11.677 4.084-17.541 2.586-4.968 5.515-8.607 8.79-10.919 1.31-.931 2.758-1.259 4.343-.983 1.586.276 2.844 1.07 3.774 2.38.931 1.311 1.258 2.76.983 4.347-.276 1.587-1.069 2.846-2.379 3.777-1.689 1.173-3.395 3.45-5.118 6.831-2.103 4.07-3.05 7.9-2.844 11.487Z"/><path fill="#0D131A" d="M40.854 68.803c-.827-2.725-.655-4.76.517-6.106 1.241-1.483 3.637-1.828 7.187-1.035 3.895.863 7.204 2.88 9.927 6.054 6.653 7.659 10.323 16.128 11.013 25.407.551 7.728-2.344 15.214-8.686 22.458-2.137 2.484-3.637 4.864-4.498 7.141-.862 2.277-.983 4.26-.362 5.95.792 2.105 2.792 3.968 5.997 5.589 3.206 1.587 7.342 2.76 12.409 3.519 2 .31 3.585 1.276 4.757 2.897 1.206 1.587 1.654 3.381 1.344 5.382-.31 2.001-1.275 3.588-2.895 4.76-1.586 1.208-3.378 1.656-5.377 1.346-9.135-1.415-16.339-4.054-21.612-7.917-3.999-2.932-6.756-6.468-8.273-10.608-1.586-4.278-1.724-8.797-.414-13.557 1.31-4.726 3.964-9.401 7.963-14.023 2.93-3.415 4.222-7.417 3.877-12.005-.24-3.243-1.12-6.762-2.636-10.556-1.483-3.657-2.879-5.934-4.188-6.83-3.103-2.14-5.12-4.761-6.05-7.866Z"/><path fill="#4573AB" d="M66.758 93.072c.62 8.279-1.724 15.472-7.032 21.578-2.344 2.691-3.964 5.295-4.86 7.813-.896 2.553-.983 4.795-.259 6.727.862 2.346 3 4.399 6.412 6.158 3.412 1.759 7.79 3.053 13.132 3.881 1.62.276 2.895 1.052 3.826 2.328.965 1.346 1.31 2.777 1.034 4.295-.207 1.587-.982 2.864-2.326 3.829-1.276.966-2.706 1.311-4.292 1.035-8.824-1.345-15.752-3.846-20.785-7.503-3.825-2.759-6.462-6.106-7.91-10.038-1.482-4.036-1.603-8.314-.362-12.833 1.24-4.485 3.774-8.935 7.6-13.35 3.206-3.623 4.62-7.97 4.24-13.04-.241-3.519-1.137-7.296-2.689-11.332-1.482-3.83-2.912-6.313-4.29-7.452-3.482-2.932-5.326-5.52-5.533-7.762-.035-1 .241-1.845.827-2.535.62-.69 1.5-1.035 2.637-1.035 1.448 0 3.033.483 4.757 1.449 1.723.966 3.274 2.242 4.653 3.829 6.894 7.969 10.634 15.955 11.22 23.958Z"/><path fill="#5084C4" d="M43.491 64.87c.62-.69 1.5-1.034 2.637-1.034 1.448 0 3.033.483 4.757 1.449 1.723.966 3.274 2.242 4.653 3.829l4.292 5.588c-.104 6.037-1.827 11.23-5.17 15.576a46.167 46.167 0 0 0-2.844-9.314c-1.276-2.933-2.482-4.864-3.62-5.796-3.481-2.932-5.325-5.52-5.532-7.762-.035-1 .241-1.845.827-2.535Z"/><path fill="#0D131A" d="M95.453 73.512c5.722.793 11.133 3.346 16.235 7.658l2.275 2.174c1.758 1.759 3.309 3.518 4.653 5.278 4.24 5.692 5.601 10.435 4.085 14.23-.621 1.552-1.638 2.742-3.051 3.57-1.448.862-2.999 1.173-4.653.931l-1.758-.465a7.173 7.173 0 0 1-3.154-2.484 7.527 7.527 0 0 1-1.293-3.933c-1.585-4.864-4.705-8.365-9.358-10.504-4.446-2.07-8.307-2.104-11.581-.103-5.653 3.38-8.514 7.64-8.583 12.781-.07 3.346.896 6.847 2.895 10.504 1.655 3.036 3.24 5.054 4.757 6.054 1.689 1.104 2.74 2.622 3.154 4.554.448 1.966.12 3.794-.982 5.485-1.069 1.69-2.603 2.742-4.602 3.156-1.965.449-3.792.121-5.48-.983-4.723-3.07-8.48-7.003-11.272-11.798-2.723-4.691-4.205-9.659-4.446-14.903-.483-11.832 4.877-21.129 16.08-27.89 4.963-3.001 10.323-4.105 16.079-3.312Z"/><path fill="#4573AB" d="M86.767 88.415c-6.1 3.69-9.203 8.348-9.306 13.971-.035 3.622 1.068 7.434 3.309 11.436 1.86 3.277 3.653 5.467 5.377 6.571 1.344.897 2.188 2.122 2.533 3.674.345 1.587.07 3.053-.827 4.399-.896 1.345-2.12 2.19-3.671 2.535-1.551.311-2.999.035-4.343-.828-3.378-2.173-6.446-5.692-9.203-10.556-3.275-5.761-4.878-11.556-4.809-17.386.07-4.174 1.052-8.073 2.947-11.695 2.517-4.76 6.515-8.796 11.996-12.108 4.722-2.829 9.703-3.916 14.942-3.26 5.239.655 10.254 3.018 15.045 7.089 2.896 2.45 5.447 5.33 7.653 8.641 3.136 4.657 4.119 8.452 2.947 11.384a5.732 5.732 0 0 1-2.43 2.898c-1.172.656-2.413.897-3.723.725l-1.396-.363a5.157 5.157 0 0 1-2.534-2.069 5.928 5.928 0 0 1-1.034-3.209v-.155l-.051-.103c-.552-1.622-1.913-3.64-4.085-6.055-2.723-3.07-5.618-5.209-8.686-6.416-1.206-.448-2.258-.724-3.154-.828-2.516-.345-5.015.224-7.497 1.708Z"/><path fill="#0D131A" d="M19.966 146.939c-6.514-1.725-10.943-3.829-13.287-6.313-1.758-1.863-2.206-3.674-1.345-5.434.966-1.966 3.982-3.121 9.048-3.466 5.033-.345 9.307.293 12.823 1.914 13.064 5.899 21.836 12.816 26.317 20.75 2.516 4.485 3.981 10.97 4.395 19.456l.051.828c.173 3.795.466 6.451.88 7.969.62 2.311 1.86 4.398 3.722 6.261 2.895 2.898 6.1 3.277 9.617 1.139 3.412-2.036 5.842-5.434 7.29-10.194 1.585-5.244 1.465-10.901-.362-16.973-.552-2.001-.362-3.846.569-5.537.965-1.759 2.413-2.932 4.343-3.518 1.93-.552 3.774-.345 5.532.621 1.792.966 2.964 2.397 3.516 4.295 2.895 9.762 2.792 18.869-.31 27.321-2.758 7.417-7.118 12.902-13.081 16.455-4.688 2.794-9.565 3.95-14.632 3.467-5.136-.517-9.6-2.656-13.392-6.416-3.55-3.519-5.98-7.607-7.29-12.264-.792-2.691-1.31-6.537-1.55-11.539-.276-5.623-1.586-10.591-3.93-14.903-3.86-6.968-10.169-11.608-18.924-13.919Z"/><path fill="#4573AB" d="M26.12 136.02c12.822 5.485 21.456 11.936 25.902 19.353 2.551 4.312 4.033 10.487 4.447 18.525l.052.828c.206 3.864.517 6.606.93 8.227.69 2.622 2.051 4.934 4.085 6.934 1.654 1.656 3.464 2.605 5.429 2.846 1.999.242 3.998-.241 5.997-1.449 3.654-2.173 6.256-5.778 7.807-10.814 1.724-5.589 1.638-11.591-.258-18.008-.414-1.552-.258-3.035.465-4.45.759-1.38 1.913-2.311 3.465-2.794 1.516-.448 2.981-.276 4.394.517 1.448.759 2.396 1.898 2.844 3.416 2.792 9.417 2.706 18.179-.259 26.286-2.62 7.141-6.79 12.419-12.512 15.834-4.308 2.588-8.755 3.605-13.34 3.053-4.584-.552-8.668-2.604-12.253-6.157-3.378-3.381-5.687-7.296-6.928-11.747-.724-2.587-1.224-6.295-1.5-11.125-.24-5.519-1.706-10.625-4.394-15.316-4.102-7.279-10.634-12.454-19.596-15.524l-1.81-.569-6.514-2.277c-2.758-1.207-4.378-2.398-4.86-3.57-.241-.518-.224-1.087.052-1.708.689-1.345 3.153-2.053 7.393-2.122 4.274-.069 7.928.535 10.961 1.811Z"/><path fill="#5084C4" d="M36.977 154.908c-4.033-4.658-9.393-8.142-16.08-10.453l-1.81-.569-6.514-2.277c-2.758-1.207-4.378-2.398-4.86-3.57-.241-.518-.224-1.087.052-1.708.689-1.345 3.153-2.053 7.393-2.122 4.274-.069 7.928.535 10.961 1.811 8.48 3.623 15.098 7.642 19.854 12.057-2.171 2.967-5.17 5.244-8.996 6.831Z"/><path fill="#4573AB" d="m19.088 143.886-6.515-2.277c-2.758-1.207-4.378-2.398-4.86-3.57 8.307 2.518 13.615 4.26 15.924 5.226 6.756 2.76 12.15 6.175 16.184 10.245l-2.844 1.398c-4.033-4.658-9.393-8.142-16.08-10.453l-1.81-.569Z"/><path fill="#0D131A" d="M57.09 123.86c2.308-.759 4.79-1.069 7.444-.931 2.654.103 4.826.638 6.515 1.604 1.344.759 2.154 1.69 2.43 2.794.655 2.863-2.826 6.227-10.444 10.091l-5.636 3.259c-3.998 2.553-6.549 4.727-7.652 6.52-3.447 5.658-4.601 10.832-3.464 15.524.655 2.587 2.206 4.347 4.653 5.278 2.792 1.035 6.343 1.035 10.651 0 5.17-1.276 10.513-3.881 16.028-7.814 1.62-1.172 3.43-1.586 5.43-1.241 1.964.31 3.532 1.276 4.704 2.897 1.172 1.622 1.603 3.433 1.293 5.434-.345 1.966-1.327 3.535-2.947 4.708-10.445 7.486-20.061 11.488-28.85 12.005-7.722.449-14.047-1.742-18.976-6.571-4.584-4.519-7.118-10.384-7.6-17.594-.517-7.348 1.24-14.316 5.273-20.905 4.137-6.83 11.186-11.85 21.147-15.058Z"/><path fill="#4573AB" d="M70.326 125.775c.965.517 1.533 1.155 1.706 1.914.276 1.104-.707 2.415-2.947 3.933-1.31.897-3.585 2.173-6.825 3.829a84.19 84.19 0 0 1-3.05 1.604c-2.724 1.415-4.757 2.605-6.102 3.571-2.24 1.621-3.998 3.467-5.273 5.536-1.62 2.657-2.672 5.451-3.154 8.383-.517 2.932-.448 5.761.207 8.486.758 3.14 2.602 5.244 5.532 6.313 2.964 1.104 6.721 1.139 11.271.104 5.446-1.277 11.047-3.985 16.804-8.124 1.275-.932 2.705-1.259 4.291-.983 1.586.241 2.86 1.017 3.826 2.328.93 1.311 1.258 2.76.982 4.347-.24 1.587-1.016 2.846-2.326 3.777-6.86 4.933-13.736 8.245-20.63 9.935-6.86 1.656-12.943 1.501-18.251-.465-3.275-1.208-6.015-3.053-8.22-5.537-2.207-2.484-3.724-5.451-4.55-8.9-1.07-4.243-1.224-8.607-.466-13.092.758-4.484 2.344-8.71 4.757-12.677 2.447-3.933 5.635-7.245 9.565-9.936 3.033-2.069 6.376-3.691 10.03-4.864 2.137-.69 4.43-.983 6.877-.879 2.481.069 4.463.534 5.946 1.397Z"/><path fill="#0D131A" d="M80.046 153.252c.723-1.656 1.93-2.795 3.619-3.416l5.015.156c1.654.759 2.792 1.983 3.412 3.674.655 1.69.603 3.346-.155 4.967l-.465 1.035c-4.378 9.659-6.997 17.438-7.859 23.337-1.206 8.314.741 14.006 5.843 17.076 3.343 2.001 6.41 2.725 9.203 2.173 1.826-.345 4.86-1.742 9.099-4.191 3.895-2.311 7.084-3.915 9.566-4.812 4.101-1.518 8.186-2.053 12.253-1.604 1.793.207 3.258 1.017 4.395 2.432 1.137 1.414 1.603 3.018 1.396 4.812-.207 1.794-1.017 3.26-2.43 4.398-1.344 1.104-2.93 1.57-4.757 1.397-2.24-.241-4.567.121-6.98 1.087-1.551.621-3.843 1.811-6.876 3.571-5.55 3.277-10.065 5.226-13.547 5.847-5.928 1.104-11.96-.19-18.096-3.881-9.789-5.899-13.822-15.644-12.098-29.236.93-7.383 3.93-16.662 8.996-27.839l.466-.983Z"/><path fill="#4573AB" d="M81.338 153.821c.586-1.277 1.534-2.156 2.844-2.639l3.93.103c1.275.587 2.154 1.535 2.636 2.846.517 1.311.483 2.605-.103 3.881l-.466 1.035c-4.55 10.004-7.238 18.094-8.065 24.268-1.138 8.694 1.05 14.696 6.566 18.008 3.654 2.208 7.083 3.001 10.289 2.38 1.999-.414 5.17-1.88 9.513-4.398 3.895-2.243 6.98-3.795 9.255-4.657 3.93-1.449 7.825-1.967 11.685-1.553 1.344.173 2.482.794 3.412 1.863.897 1.173 1.259 2.432 1.086 3.778-.138 1.345-.758 2.483-1.861 3.415-1.138.862-2.378 1.224-3.723 1.086-2.447-.241-4.946.138-7.497 1.139-1.62.621-4.033 1.863-7.238 3.725-5.343 3.105-9.669 4.968-12.978 5.589-5.618 1.069-11.34-.138-17.165-3.622-9.341-5.589-13.133-14.972-11.375-28.15.93-7.141 3.86-16.161 8.79-27.062l.465-1.035Z"/><path fill="#0D131A" d="M81.028 123.601c-8.238-2.483-15.477-2.708-21.716-.672-5.825 1.932-8.565 4.847-8.22 8.745.379 4.519 2.843 8.814 7.393 12.884 4.584 4.14 9.065 6.003 13.443 5.589 2.447-.276 4.326.103 5.636 1.138 1.31 1.07 2.085 2.863 2.326 5.382.207 2.069-.396 3.915-1.81 5.536-1.378 1.518-2.964 2.312-4.756 2.381-12.133.379-21.94-3.226-29.42-10.815-6.79-6.865-9.944-14.782-9.461-23.751.517-9.28 4.843-16.024 12.978-20.233 9.41-4.864 22.025-4.898 37.846-.103 1.896.586 3.327 1.759 4.292 3.519.93 1.69 1.12 3.536.569 5.536-.587 1.932-1.776 3.364-3.568 4.295-1.758.966-3.602 1.156-5.532.569Z"/><path fill="#5084C4" d="M62.156 108.337c7.032-.621 14.58.293 22.646 2.742 1.551.414 2.706 1.346 3.464 2.795.724 1.414.88 2.897.466 4.45-.483 1.552-1.43 2.69-2.844 3.415-1.379.793-2.844.949-4.395.466-6.755-2.036-12.925-2.777-18.51-2.225-4.653.482-8.203 1.724-10.65 3.725-2.447 1.966-3.516 4.554-3.206 7.762.241 2.794 1.086 5.502 2.534 8.124 1.413 2.622 3.309 4.916 5.687 6.882 2.24 1.863 4.653 3.243 7.238 4.14 2.551.897 5.05 1.224 7.497.983 1.586-.173 3 .259 4.24 1.294 1.241 1 1.948 2.311 2.12 3.932.172 1.587-.259 3.001-1.293 4.243-1 1.208-2.31 1.898-3.93 2.07-3.998.38-8.013-.103-12.046-1.449-4.067-1.345-7.807-3.432-11.22-6.261a34.843 34.843 0 0 1-8.582-10.453c-2.172-4.001-3.447-8.175-3.826-12.522-.31-3.519.172-6.813 1.447-9.883 1.276-3.036 3.275-5.675 5.998-7.917 4.412-3.588 10.134-5.692 17.165-6.313Z"/><path fill="#4573AB" d="M41.371 144.973c-2.171-4.002-3.446-8.176-3.826-12.523v-.207c1.93 6.486 6.36 12.454 13.288 17.904 8.445 6.623 17.631 9.28 27.558 7.969a5.78 5.78 0 0 1-1.24 2.949c-1 1.208-2.31 1.898-3.93 2.07-3.999.38-8.014-.103-12.047-1.449-4.068-1.345-7.807-3.432-11.22-6.261a34.851 34.851 0 0 1-8.583-10.452Z"/><path fill="#0D131A" d="M180.919 75.479c9.203 3.69 17.372 8.883 24.507 15.575 7.135 6.692 12.65 14.385 16.545 23.078 4.067 8.97 6.101 18.37 6.101 28.202 0 9.797-2.034 19.197-6.101 28.201-3.895 8.658-9.41 16.334-16.545 23.026-7.135 6.693-15.304 11.885-24.507 15.576-9.548 3.794-19.544 5.692-29.988 5.692-10.444 0-20.44-1.898-29.988-5.692-9.238-3.691-17.424-8.883-24.56-15.576-7.1-6.692-12.615-14.368-16.544-23.026-4.033-9.004-6.05-18.404-6.05-28.201 0-9.832 2.017-19.232 6.05-28.202 3.93-8.693 9.444-16.386 16.545-23.078 7.135-6.692 15.321-11.884 24.559-15.575 9.548-3.795 19.544-5.692 29.988-5.692 10.444 0 20.44 1.897 29.988 5.692Z"/><path fill="#0D131A" d="M224.97 142.333c0 9.383-1.948 18.37-5.843 26.96-3.722 8.313-9.013 15.678-15.873 22.095-14.477 13.557-31.918 20.336-52.323 20.336-20.406 0-37.864-6.779-52.376-20.336-6.825-6.417-12.116-13.782-15.873-22.095-3.895-8.59-5.842-17.577-5.842-26.96 0-9.417 1.947-18.421 5.842-27.011 3.757-8.313 9.048-15.661 15.873-22.043 14.477-13.592 31.936-20.388 52.376-20.388 20.405 0 37.846 6.796 52.323 20.388 6.86 6.382 12.151 13.73 15.873 22.043 3.895 8.59 5.843 17.594 5.843 27.011Z"/><path fill="#0D131A" d="M86.147 142.955c0-6.796 2.12-12.592 6.359-17.387 4.24-4.795 9.376-7.193 15.408-7.193 5.997 0 11.133 2.398 15.407 7.193 4.24 4.83 6.36 10.625 6.36 17.387 0 6.761-2.12 12.539-6.36 17.334-4.274 4.795-9.41 7.193-15.407 7.193-6.032 0-11.168-2.398-15.408-7.193-4.24-4.76-6.36-10.539-6.36-17.334Z"/><path fill="#fff" d="M123.114 127.793c3.654 4.174 5.481 9.228 5.481 15.161 0 5.934-1.827 10.988-5.481 15.162-3.653 4.208-8.048 6.313-13.184 6.313-5.17 0-9.582-2.105-13.236-6.313-3.654-4.174-5.48-9.228-5.48-15.162 0-5.933 1.826-10.987 5.48-15.161 3.654-4.209 8.066-6.313 13.236-6.313 5.136 0 9.531 2.104 13.184 6.313Z"/><path fill="#0D131A" d="M182.004 121.998c4.86 5.278 7.29 11.625 7.29 19.042 0 7.417-2.43 13.747-7.29 18.99-4.894 5.278-10.788 7.917-17.682 7.917-6.86 0-12.736-2.639-17.631-7.917-4.895-5.243-7.342-11.573-7.342-18.99 0-7.417 2.447-13.764 7.342-19.042 4.86-5.244 10.737-7.866 17.631-7.866s12.788 2.622 17.682 7.866Z"/><path fill="#fff" d="M183.555 141.04c0 6.589-2.137 12.194-6.411 16.817-4.274 4.657-9.444 6.985-15.511 6.985-6.032 0-11.185-2.328-15.459-6.985-4.274-4.657-6.411-10.263-6.411-16.817 0-6.555 2.137-12.178 6.411-16.869 4.274-4.657 9.427-6.986 15.459-6.986s11.203 2.329 15.511 6.986c4.274 4.657 6.411 10.28 6.411 16.869Z"/><path fill="#0D131A" d="M163.857 141.764c0 1.242-.431 2.294-1.293 3.157-.896.862-1.965 1.293-3.205 1.293-1.241 0-2.293-.431-3.154-1.293-.897-.863-1.345-1.915-1.345-3.157s.448-2.294 1.345-3.156c.861-.897 1.913-1.346 3.154-1.346 1.24 0 2.309.449 3.205 1.346.862.862 1.293 1.914 1.293 3.156ZM114.739 144.662c0 1.242-.414 2.294-1.241 3.156-.828.863-1.827 1.294-2.999 1.294-1.172 0-2.172-.431-2.999-1.294-.827-.862-1.241-1.914-1.241-3.156 0-1.242.414-2.294 1.241-3.156.827-.897 1.827-1.346 2.999-1.346 1.172 0 2.171.449 2.999 1.346.827.862 1.241 1.914 1.241 3.156ZM32.375 180.263c-2.31 3.07-4.464 5.054-6.463 5.951-1.792.793-3.206.62-4.24-.518-1.516-1.621-1.689-4.899-.517-9.832 1.172-5.036 3.12-9.02 5.843-11.953 3.654-3.932 8.066-6.83 13.236-8.693 5.067-1.828 10.254-2.449 15.563-1.863 12.03 1.415 20.733 7.935 26.11 19.56 2.447 5.347 3.016 10.849 1.706 16.507-1.31 5.692-4.36 10.797-9.151 15.316-1.62 1.553-4.981.518-10.083-3.104-1.999-1.449-3.464-2.812-4.394-4.088-1.035-1.449-1.069-2.398-.104-2.846 3.895-1.863 6.498-4.002 7.807-6.417l1.086-2.69.259-2.277c0-1.38-.345-2.846-1.034-4.399-2.758-6.037-6.67-9.365-11.737-9.986-4.136-.518-8.566.396-13.288 2.742-4.446 2.208-7.98 5.071-10.599 8.59Z"/><path fill="#5084C4" d="M23.068 184.04c-1.068-1.138-1.085-3.536-.051-7.193 1.068-3.932 2.912-7.296 5.532-10.09 3.688-3.967 8.014-6.882 12.977-8.745 4.792-1.794 9.669-2.432 14.632-1.914 11.03 1.172 18.941 6.951 23.732 17.334 2.31 5.002 2.844 10.073 1.603 15.213-1.275 5.14-4.205 9.866-8.79 14.179-1.585 1.483-4.29.879-8.117-1.811-1.55-1.07-2.637-2.122-3.257-3.157-.655-1.138-.534-1.949.362-2.432 3.584-1.932 6.015-4.088 7.29-6.468l1.19-3.053c.62-2.484.327-5.019-.88-7.607-2.964-6.485-7.238-10.09-12.822-10.814-3.516-.449-7.566.12-12.15 1.707-3.62 1.277-6.377 2.639-8.273 4.088-1.172.897-2.964 2.915-5.377 6.054l-3.05 3.829c-1.104 1.173-2.034 1.777-2.793 1.811-.655 0-1.24-.31-1.758-.931Z"/><path fill="#4573AB" d="M36.046 173.277c-1.24.897-2.895 2.742-4.963 5.537 2.516-4.209 5.635-7.693 9.358-10.453 4.412-3.277 8.979-4.916 13.701-4.916l11.323.932c4.757.655 8.98 1.449 12.667 2.38 1.38 1.725 2.637 3.777 3.775 6.158 2.068 4.484 2.327 9.314.775 14.488-1.378 4.726-4.119 9.28-8.22 13.661l-11.479-1.293c-1-.932-1.637-1.777-1.913-2.536-.31-.828-.103-1.432.62-1.811 3.586-1.932 6.016-4.088 7.291-6.468l1.19-3.053c.62-2.484.327-5.02-.88-7.607-2.964-6.485-7.238-10.09-12.822-10.815-3.516-.448-7.566.121-12.15 1.708-3.62 1.276-6.377 2.639-8.273 4.088Z"/><path fill="#0D131A" d="M255.32 96.85c6.652 1.69 12.477 1.827 17.475.413 1.482-.483 3.533-.828 6.153-1.035 3.481-.31 5.963-.069 7.445.725.759.413 1.207.983 1.344 1.707.552 1.966-.792 4.226-4.032 6.779-2.965 2.346-6.239 4.019-9.824 5.019-8.445 2.415-17.252 2.139-26.42-.828-10.858-3.519-20.01-10.349-27.455-20.491-4.688-6.382-11.702-10.142-21.043-11.28-6.446-.794-13.615-.328-21.509 1.397l-.672.155c-1.93.414-3.74.086-5.429-.983-1.689-1.104-2.74-2.622-3.153-4.554-.449-1.966-.121-3.794.982-5.485 1.103-1.69 2.637-2.76 4.602-3.208l.517-.104c12.787-2.828 24.11-2.915 33.969-.258 9.892 2.69 17.699 7.934 23.421 15.73 6.205 8.452 14.081 13.885 23.629 16.3Z"/><path fill="#4573AB" d="M282.619 104.145c-2.758 1.897-5.808 3.329-9.152 4.295-8.272 2.38-16.803 2.208-25.593-.518-10.582-3.242-19.492-9.78-26.731-19.611-4.894-6.658-12.15-10.608-21.767-11.85-6.687-.862-14.097-.396-22.232 1.398l-.672.155c-1.551.345-2.999.069-4.343-.828-1.344-.863-2.189-2.07-2.534-3.622-.31-1.622-.034-3.088.828-4.399.896-1.38 2.119-2.225 3.671-2.535l.517-.155c12.477-2.726 23.525-2.812 33.141-.26 9.617 2.553 17.2 7.607 22.75 15.162 6.445 8.762 14.597 14.472 24.455 17.128 6.998 1.897 13.03 2.139 18.097.724a43.75 43.75 0 0 1 6.773-1.397c2.826-.31 4.774-.172 5.842.414.414.242.638.5.672.776.414 1.38-.827 3.088-3.722 5.123Z"/><path fill="#0D131A" d="m194.051 192.32-.258-1.087c-.379-1.759-.086-3.398.879-4.916.999-1.518 2.378-2.466 4.136-2.846 1.758-.379 3.395-.086 4.912.88 1.551.966 2.499 2.328 2.843 4.088l.259 1.086c2.24 10.315 4.791 18.077 7.652 23.286 3.998 7.279 8.962 10.607 14.891 9.987 3.895-.38 6.79-1.57 8.686-3.571 1.31-1.38 2.895-4.26 4.756-8.641 1.448-3.416 3.034-6.382 4.757-8.901 2.413-3.518 5.36-6.606 8.841-9.262 2.861-2.173 6.05-3.45 9.565-3.829 3.344-.345 5.74.19 7.187 1.604 1 1 1.448 2.053 1.345 3.156-.104 1.242-.931 2.536-2.482 3.881l-4.809 3.519-3.981 2.794c-1.723 1.518-3.257 3.346-4.601 5.485-1.103 1.794-2.275 4.174-3.516 7.141-2.551 6.003-5.033 10.332-7.445 12.988-4.171 4.554-9.824 7.193-16.959 7.917-11.375 1.139-20.44-4.398-27.196-16.61-3.619-6.52-6.773-15.903-9.462-28.149Z"/><path fill="#4573AB" d="M205.426 189.836c2.344 10.728 5.033 18.818 8.066 24.268 4.274 7.659 9.617 11.16 16.028 10.505 4.205-.449 7.411-1.881 9.617-4.295 1.378-1.518 3.05-4.571 5.015-9.159 3.068-7.383 7.445-13.247 13.132-17.594 2.62-2 5.533-3.173 8.738-3.518 2.93-.311 4.964.086 6.101 1.19.69.69 1 1.362.931 2.018-.103.897-.862 1.949-2.275 3.156l-4.395 3.105c-2.102 1.414-3.464 2.398-4.084 2.95-1.931 1.655-3.585 3.466-4.964 5.433-1.344 1.966-2.619 4.364-3.826 7.192-2.413 5.692-4.757 9.78-7.032 12.264-3.86 4.209-9.168 6.658-15.924 7.348-10.823 1.104-19.475-4.14-25.955-15.731-3.516-6.278-6.566-15.265-9.152-26.959l-.206-1.087c-.311-1.38-.087-2.656.672-3.829.758-1.173 1.827-1.914 3.205-2.225 1.379-.31 2.654-.086 3.826.673 1.172.759 1.913 1.828 2.224 3.208l.258 1.087Z"/><path fill="#0D131A" d="M214.577 146.68c.483-1.932 1.603-3.415 3.361-4.45 1.793-1.035 3.688-1.311 5.687-.828l1.655.362c13.27 3.036 23.37 7.883 30.298 14.541 7.032 6.726 11.978 16.42 14.839 29.08 1.413 6.313.172 12.212-3.723 17.697-1.585 2.243-3.257 3.778-5.015 4.606-1.827.862-3.292.759-4.395-.311-.724-.69-1.085-1.845-1.085-3.467 0-1.035.241-3.036.723-6.002.483-2.967.724-5.123.724-6.468l-.258-2.225c-2.999-10.729-7.997-18.853-14.994-24.372-5.102-4.002-11.875-6.969-20.32-8.901l-2.378-.569c-1.586-.379-2.878-1.207-3.878-2.484-.965-1.276-1.447-2.742-1.447-4.398l.206-1.811Z"/><path fill="#4573AB" d="M224.918 143.213c12.891 2.898 22.491 7.434 28.799 13.609 6.307 6.14 10.875 15.403 13.701 27.787.448 2.139.362 5.071-.258 8.797-.69 4.105-1.827 7.382-3.413 9.832-1.206 1.897-2.533 3.001-3.981 3.311l-1.499-.207c-.483-.448-.673-1.518-.569-3.208l.672-4.968.672-5.071c.138-1.793.052-3.208-.258-4.243-3.103-11.073-8.256-19.456-15.46-25.148-5.239-4.14-12.219-7.192-20.939-9.159l-2.379-.569c-1.516-.379-2.654-1.225-3.412-2.536-.759-1.345-.948-2.811-.569-4.398.379-1.518 1.275-2.708 2.689-3.57 1.447-.828 2.964-1.052 4.549-.673l1.655.414Z"/><path fill="#0D131A" d="M16.14 202.72c1.241-2.483 3.154-4.777 5.74-6.882 6.618-5.312 15.58-7.951 26.885-7.917 7.894.035 15.166 2.191 21.819 6.468 6.17 3.968 12.512 10.263 19.027 18.887l1.034 1.346 4.55 4.191 6.773 6.21c1.758 1.897 2.637 3.346 2.637 4.346v.052a1.83 1.83 0 0 1-.672 1.345c-1.551 1.208-5.74.759-12.564-1.345-6.618-2.035-10.565-3.846-11.84-5.433-6.998-10.28-15.89-16.921-26.68-19.922-10.753-2.967-20.474-1.535-29.16 4.295l-3.93 2.483c-1.275.587-2.291.725-3.05.414-.827-.345-1.396-1.173-1.706-2.483-.38-1.76 0-3.778 1.137-6.055Z"/><path fill="#4573AB" d="M29.686 193.82c5.688-2.45 12.53-3.605 20.526-3.467 7.48.138 14.288 2.156 20.423 6.054 5.757 3.691 11.703 9.607 17.838 17.749l1.034 1.345 4.705 4.398c5.963 5.14 8.945 8.314 8.945 9.522l-.104.155c-1.172.897-4.963.362-11.374-1.604-6.308-1.932-9.98-3.571-11.013-4.916-6.24-10.763-14.408-17.852-24.508-21.267-11.202-3.795-22.284-2.001-33.245 5.381l-3.36 2.122c-1.104.586-1.88.793-2.327.621-.38-.173-.638-.656-.776-1.449-.344-1.415.104-3.088 1.345-5.02 2.688-4.139 6.652-7.347 11.891-9.624Z"/><path fill="#5084C4" d="M17.795 203.444c2.688-4.139 6.652-7.347 11.891-9.624 5.688-2.45 12.53-3.605 20.526-3.467 7.48.138 14.288 2.156 20.423 6.054 5.757 3.691 11.703 9.607 17.838 17.749l1.034 1.345 4.705 4.398c5.963 5.14 8.945 8.314 8.945 9.522l-.104.155c-1.137.897-4.825.397-11.064-1.501a65.658 65.658 0 0 0-9.565-15.006c-6.308-7.417-13.495-12.333-21.56-14.747-10.307-3.071-19.182-3.295-26.628-.673-5.653 1.966-11.323 6.054-17.01 12.264-.38-.173-.638-.656-.776-1.449-.344-1.415.104-3.088 1.345-5.02Z"/><path fill="#0D131A" d="M81.907 171.414c-6.273 1.38-10.72 4.519-13.34 9.418-2.447 4.553-2.481 8.538-.103 11.953 1.034 1.483 3.033 2.398 5.998 2.743 2.137.241 5.842.189 11.116-.156 7.514-.448 13.167-.362 16.959.259 6.583 1.069 11.874 3.726 15.873 7.969 1.24 1.345 2.947 3.812 5.118 7.399 3.24 5.554 5.998 9.142 8.273 10.763 3.24 2.277 7.514 2.743 12.822 1.398 3.895-1.001 6.377-2.881 7.445-5.641.448-1.242.672-2.708.672-4.398 0-2.38-.43-5.002-1.292-7.865-.724-2.415-1.448-4.14-2.172-5.175l.052-.103c-1-1.38-1.499-2.829-1.499-4.347 0-2.208.81-4.019 2.43-5.433 1.516-1.311 3.24-1.932 5.17-1.863 1.93.069 3.533.811 4.808 2.225 2.034 2.208 3.844 6.054 5.429 11.539 1.999 7.003 2.172 13.299.517 18.887-1.068 3.691-2.843 6.951-5.325 9.78-3.378 3.795-7.704 6.365-12.978 7.71-9.823 2.518-18.182.966-25.076-4.657-3.481-2.829-7.428-7.969-11.84-15.42-1.447-2.518-2.482-4.122-3.102-4.812-1.965-2.036-5.084-3.191-9.358-3.467l-12.512.465c-8.307.483-13.926.518-16.856.104-6.307-.897-11.012-3.553-14.115-7.969-6.514-9.383-7.204-19.042-2.068-28.977 2.24-4.347 5.429-8.09 9.565-11.229 4.206-3.174 8.859-5.312 13.96-6.416l5.429 15.316Z"/><path fill="#4573AB" d="M172.491 203.962c-3.516 8.003-5.705 13.454-6.566 16.352-.931 3.208-2.758 6.123-5.481 8.745-3.309 3.208-7.514 5.467-12.616 6.778-9.409 2.415-17.441 1.121-24.093-3.881-3.723-2.794-7.549-7.554-11.478-14.281-1.586-2.691-2.706-4.381-3.361-5.071-2.172-2.312-5.394-3.726-9.669-4.244-2.585-.31-6.859-.293-12.822.052-7.549.449-12.891.431-16.028-.052-5.929-.931-10.34-3.484-13.236-7.658-5.412-7.831-6.136-16.231-2.172-25.2 3.964-8.969 10.91-14.661 20.837-17.076.413 2.691 1.74 6.537 3.981 11.539a26.107 26.107 0 0 0-8.273 3.933c-2.826 2.035-4.739 4.312-5.739 6.831a13.804 13.804 0 0 0-.982 5.122c0 4.485 1.103 7.572 3.31 9.263 2.998 2.311 8.806 3.208 17.423 2.69 8.204-.483 13.701-.569 16.493-.258 6.446.724 11.565 3.087 15.356 7.089 1.207 1.311 2.827 3.674 4.86 7.089 3.344 5.692 6.308 9.435 8.893 11.229 3.585 2.483 8.204 3.018 13.857 1.604 4.412-1.104 7.221-3.277 8.427-6.52a188.853 188.853 0 0 1 3.775-11.539c2.619-7.279 4.929-11.678 6.928-13.195 1.241-.966 3.016-1.277 5.325-.932 2.206.345 3.861 1.104 4.964 2.277.965 1.069.327 4.174-1.913 9.314Z"/><path fill="#5084C4" d="M78.08 165.722c-5.135 2.864-9.478 6.262-13.028 10.194-5.309 5.865-8.72 12.73-10.238 20.595-3.412-7.624-3.016-15.317 1.19-23.079 4.24-7.83 10.84-12.832 19.802-15.006.31 1.863 1.069 4.295 2.275 7.296Z"/><path fill="#0D131A" d="M223.315 174.157c.965 1.793 1.155 3.639.569 5.536-1.827 6.072-1.948 11.729-.362 16.973 1.448 4.76 3.878 8.158 7.29 10.194 3.516 2.138 6.739 1.759 9.669-1.139 1.861-1.863 3.085-3.95 3.671-6.261.413-1.483.706-4.14.879-7.969.413-8.072 1.947-14.316 4.601-18.732 4.516-7.52 13.409-14.609 26.679-21.267 3.447-1.725 7.238-2.708 11.375-2.949 4.239-.242 6.721.465 7.445 2.121.827 1.76.121 3.709-2.12 5.847-2.102 2.001-5.205 3.864-9.306 5.589-6.101 2.587-11.547 6.813-16.339 12.678-4.929 6.037-7.531 11.849-7.807 17.438-.241 4.967-.758 8.796-1.551 11.487-1.31 4.657-3.74 8.762-7.29 12.316-3.826 3.794-8.238 5.985-13.236 6.571-4.998.587-9.824-.5-14.477-3.26-5.963-3.553-10.255-9.038-12.874-16.455-2.999-8.417-3.051-17.524-.155-27.321.586-1.932 1.758-3.364 3.516-4.295 1.757-.966 3.584-1.173 5.48-.621 1.93.586 3.378 1.759 4.343 3.519Z"/><path fill="#4573AB" d="M250.925 173.432c4.412-7.279 13.081-14.161 26.006-20.646 1.586-.794 4.051-1.466 7.394-2.018 3.619-.587 6.222-.604 7.807-.052.552.207.896.466 1.034.776.69 1.552-.362 3.346-3.154 5.382l-6.928 3.932c-7.135 3.45-12.891 7.762-17.269 12.937-4.825 5.692-7.393 11.815-7.704 18.369-.551 11.488-4.48 19.801-11.788 24.941-7.1 5.002-14.511 5.192-22.232.57-5.722-3.416-9.876-8.607-12.461-15.576-2.964-8.003-3.067-16.696-.31-26.079.483-1.518 1.43-2.657 2.844-3.416 1.413-.793 2.878-.966 4.394-.517 1.552.483 2.706 1.432 3.465 2.846.792 1.414.948 2.88.465 4.398-1.896 6.417-1.982 12.419-.259 18.008 1.552 5.036 4.154 8.641 7.808 10.814 2.033 1.208 4.032 1.691 5.997 1.449 1.965-.241 3.775-1.19 5.429-2.846 2.034-2.001 3.395-4.312 4.085-6.934.413-1.621.723-4.363.93-8.227.379-7.762 1.862-13.799 4.447-18.111Z"/><path fill="#0D131A" d="M242.135 189.318c-1.62-1.173-2.602-2.743-2.947-4.709-.31-2.001.121-3.812 1.293-5.433 1.172-1.622 2.74-2.605 4.705-2.95 1.999-.345 3.809.069 5.429 1.242 6.066 4.381 12.305 6.951 18.716 7.71 6.825.828 10.772-.948 11.84-5.33 1.138-4.726.586-9.245-1.654-13.557-2.275-4.381-5.998-7.934-11.168-10.659l-2.999-1.553c-3.757-1.897-6.325-3.363-7.704-4.398-2.309-1.725-3.274-3.398-2.895-5.019.241-1.07 1.051-2.018 2.43-2.846 1.689-.932 3.86-1.449 6.515-1.553 2.654-.138 5.135.173 7.445.932 10.34 3.346 17.837 8.814 22.491 16.403 4.722 7.693 5.877 16.455 3.464 26.287-2.551 10.349-9.065 16.144-19.544 17.386-10.72 1.276-22.525-2.708-35.417-11.953Z"/><path fill="#5084C4" d="M249.736 178.659c5.756 4.105 11.357 6.796 16.803 8.072 4.55 1.069 8.307 1.052 11.272-.052 2.93-1.069 4.774-3.173 5.532-6.313.689-2.725.775-5.571.258-8.538-.517-2.932-1.585-5.726-3.205-8.382-1.241-2.036-2.999-3.864-5.274-5.485-1.241-.897-3.274-2.105-6.101-3.623l-3.05-1.552c-3.344-1.725-5.619-3.001-6.825-3.829-2.241-1.552-3.223-2.881-2.947-3.984.172-.725.741-1.346 1.706-1.863 1.517-.863 3.499-1.346 5.946-1.449 2.447-.104 4.739.19 6.876.88 8.755 2.863 15.287 7.813 19.596 14.85 2.413 3.968 3.998 8.193 4.757 12.678.758 4.485.603 8.831-.466 13.04-.827 3.45-2.344 6.434-4.55 8.952-2.206 2.484-4.946 4.329-8.22 5.537-5.309 1.966-11.392 2.104-18.252.414-6.859-1.656-13.736-4.951-20.629-9.884-1.31-.931-2.086-2.19-2.327-3.777-.276-1.622.052-3.07.982-4.347.931-1.311 2.189-2.087 3.775-2.328 1.62-.276 3.067.051 4.343.983Z"/><path fill="#4573AB" d="M242.962 188.128c-1.206-.862-1.964-2.018-2.274-3.467-.276-1.449-.069-2.811.62-4.088 14.236 10.142 26.696 14.178 37.381 12.109 8.032-1.553 13.547-5.744 16.545-12.575l-.62 3.002c-.827 3.449-2.344 6.433-4.55 8.952-2.206 2.483-4.946 4.329-8.221 5.536-5.308 1.967-11.392 2.105-18.251.414-6.859-1.656-13.736-4.95-20.63-9.883Z"/><path fill="#0D131A" d="M260.645 78.945c1.585-1.863 3.74-3.45 6.463-4.76 2.619-1.242 4.929-1.863 6.928-1.863 1.517.069 2.602.5 3.257 1.293 1.724 2.001.345 5.744-4.136 11.23l-1.913 2.431c-1.413 1.967-2.757 4.537-4.033 7.71-1.482 3.726-2.326 7.124-2.533 10.194-.345 4.416 1.017 8.4 4.084 11.953 3.93 4.519 6.463 9.194 7.601 14.023 1.068 4.623.792 9.142-.828 13.557-1.551 4.14-4.308 7.659-8.272 10.557-5.274 3.863-12.478 6.502-21.612 7.917-1.999.31-3.792-.138-5.377-1.346-1.62-1.173-2.585-2.742-2.896-4.709-.31-1.966.138-3.777 1.345-5.433 1.172-1.621 2.757-2.587 4.756-2.898 5.067-.759 9.204-1.931 12.409-3.518 3.24-1.622 5.239-3.485 5.998-5.589.62-1.69.5-3.674-.362-5.951-.827-2.276-2.327-4.657-4.498-7.14-2.792-3.209-4.878-6.727-6.256-10.556-1.448-4.037-2.017-8.142-1.707-12.316.586-8.28 4.447-16.541 11.582-24.786Z"/><path fill="#5084C4" d="m276.208 74.547.31.983c0 .932-.569 2.26-1.706 3.985l-3.309 4.294-1.965 2.484c-1.482 2.07-2.878 4.744-4.188 8.02-1.551 3.899-2.447 7.452-2.689 10.66l-.051 1.501c0 4.416 1.43 8.262 4.291 11.539 5.653 6.486 8.48 12.954 8.48 19.405a18.9 18.9 0 0 1-1.241 6.778c-1.448 3.933-4.085 7.279-7.911 10.039-5.032 3.657-11.961 6.158-20.785 7.503-1.585.276-3.016-.069-4.291-1.035-1.275-.931-2.051-2.208-2.327-3.829-.275-1.518.069-2.95 1.034-4.295.931-1.276 2.206-2.053 3.826-2.329 5.343-.827 9.721-2.121 13.133-3.88 3.412-1.76 5.55-3.812 6.411-6.158.724-1.932.638-4.174-.258-6.727-.896-2.518-2.517-5.123-4.86-7.814-5.309-6.105-7.652-13.298-7.032-21.577.586-8.004 4.326-15.99 11.22-23.958 1.516-1.76 3.429-3.26 5.739-4.502 2.275-1.242 4.274-1.846 5.997-1.811 1.034 0 1.758.241 2.172.724Z"/><path fill="#0D131A" d="M236.706 134.52c-1.93.586-3.774.414-5.532-.517-1.758-.966-2.93-2.415-3.516-4.347-.586-1.897-.396-3.743.569-5.537.896-1.759 2.327-2.932 4.291-3.519 11.306-3.415 21.285-4.105 29.937-2.069 7.858 1.828 13.632 5.588 17.32 11.28 3.55 5.52 4.481 11.712 2.792 18.577-1.792 7.244-6.256 13.833-13.391 19.766-3.585 2.967-7.428 5.158-11.53 6.572-4.171 1.414-8.324 1.915-12.46 1.501-.931-.069-1.965-.449-3.103-1.139-1.068-.655-1.93-1.38-2.585-2.173-1.275-1.552-1.809-3.329-1.603-5.33.173-1.966 1.035-3.605 2.586-4.916 1.62-1.276 3.395-1.811 5.325-1.604 2.241.207 4.55-.103 6.928-.931 2.379-.828 4.619-2.104 6.722-3.829 2.24-1.829 4.033-3.967 5.377-6.417 1.344-2.449 2.137-4.984 2.378-7.606.207-2.691-.689-4.864-2.688-6.52-2.31-1.863-5.67-3.001-10.082-3.415-5.309-.518-11.22.207-17.735 2.173Z"/><path fill="#4573AB" d="M229.054 129.242c-.482-1.518-.344-2.984.414-4.399.724-1.414 1.879-2.363 3.464-2.846 8.1-2.414 15.666-3.311 22.698-2.69 7.032.655 12.736 2.759 17.114 6.313 2.723 2.207 4.722 4.846 5.997 7.917 1.31 3.035 1.81 6.33 1.5 9.883-.38 4.347-1.655 8.521-3.826 12.522-2.172 4.002-5.033 7.486-8.583 10.453-3.413 2.829-7.152 4.916-11.22 6.261-4.067 1.346-8.083 1.828-12.047 1.449-1.62-.172-2.929-.88-3.929-2.122-1.034-1.241-1.465-2.656-1.293-4.243.104-1.552.793-2.863 2.069-3.932 1.24-1.035 2.654-1.466 4.239-1.294 2.447.242 4.964-.086 7.549-.983 2.551-.897 4.946-2.26 7.187-4.088 2.378-2.001 4.291-4.312 5.739-6.934 1.447-2.622 2.292-5.33 2.533-8.124.276-3.243-.793-5.83-3.205-7.762-2.482-2-6.05-3.225-10.703-3.674-5.55-.586-11.702.138-18.458 2.174-1.517.483-2.982.345-4.395-.414-1.448-.759-2.395-1.915-2.844-3.467Z"/><path fill="#5084C4" d="m229.21 129.656-.156-.414c-.482-1.518-.344-2.984.414-4.399.724-1.414 1.879-2.363 3.464-2.846 8.1-2.414 15.666-3.311 22.698-2.69 7.032.655 12.736 2.759 17.114 6.313 2.723 2.207 4.722 4.846 5.997 7.917 1.31 3.035 1.81 6.33 1.5 9.883-.345 3.864-1.396 7.589-3.154 11.177a34.478 34.478 0 0 1-6.98 9.676c3.722-5.657 5.86-10.952 6.411-15.885.552-5.106-.672-9.332-3.671-12.678-6.894-7.762-21.44-9.78-43.637-6.054Z"/><path fill="#0D131A" d="M242.239 109.889c1.999-.172 3.774.414 5.325 1.76 2.792 2.414 5.274 5.743 7.445 9.986 2.448 4.83 3.844 9.798 4.188 14.903.621 8.728-1.844 16.265-7.393 22.613-2.172 2.484-3.671 4.864-4.498 7.141-.862 2.276-.983 4.26-.362 5.95.724 2.036 2.792 3.743 6.204 5.123 3.033 1.242 7.256 2.294 12.667 3.157 2.137.31 4.929 1.466 8.376 3.467 4.033 2.38 5.894 4.553 5.584 6.519-.31 2.07-2.482 3.571-6.514 4.502l-11.013.518c-9.548-1.07-17.286-4.364-23.215-9.884-5.308-4.967-7.962-10.349-7.962-16.144 0-6.417 3.136-13.23 9.41-20.44 1.413-1.621 2.447-3.156 3.102-4.605a12.858 12.858 0 0 0 1.189-5.433l-.052-1.397c-.241-3.07-1.103-6.141-2.585-9.211-1.31-2.622-2.654-4.536-4.033-5.744-1.516-1.276-2.361-2.932-2.533-4.967v-.569c0-1.794.569-3.364 1.706-4.709 1.379-1.518 3.033-2.363 4.964-2.536Z"/><path fill="#4573AB" d="M246.582 112.735c2.688 2.277 5.067 5.468 7.135 9.573 2.309 4.657 3.654 9.435 4.033 14.333.62 8.211-1.724 15.403-7.032 21.578-2.344 2.656-3.964 5.261-4.86 7.814-.896 2.518-.982 4.743-.259 6.675.862 2.38 2.999 4.45 6.412 6.209 3.412 1.76 7.79 3.053 13.132 3.881 2.275.345 5.015 1.328 8.221 2.95 3.516 1.759 5.17 3.26 4.964 4.501-.173 1.311-1.844 2.277-5.016 2.898-3.171.621-6.842.69-11.012.207-14.994-1.759-24.215-7.296-27.662-16.61-1.482-4.071-1.585-8.348-.31-12.833 1.241-4.485 3.774-8.935 7.601-13.35 3.171-3.726 4.584-8.072 4.239-13.04-.241-3.277-1.172-6.554-2.792-9.832-1.379-2.794-2.826-4.829-4.343-6.106-1.241-1.069-1.913-2.397-2.016-3.984-.104-1.621.362-3.036 1.396-4.243.965-1.173 2.292-1.846 3.981-2.018 1.585-.104 2.981.362 4.188 1.397Z"/><path fill="#5084C4" d="M278.327 190.25c-.137 1.035-1.309 1.88-3.515 2.535-2.172.621-4.86.897-8.066.828-3.792-1.794-6.946-3.812-9.462-6.054-3.24-2.829-5.222-5.83-5.946-9.004 3.447 1.932 8.049 3.346 13.805 4.243 2.275.345 5.015 1.328 8.221 2.95 3.516 1.759 5.17 3.26 4.963 4.502Z"/><path fill="#0D131A" d="M219.799 17.938c.862-.207 1.81.017 2.844.672 3.93 2.588 6.325 6.71 7.187 12.368.965 6.381-.638 12.522-4.809 18.42-2.412 3.382-5.584 6.28-9.513 8.694-5.17 3.174-11.254 5.21-18.251 6.106-5.205.656-10.341 2.122-15.408 4.398-4.481 2.036-7.152 3.812-8.014 5.33l-.724 1.19-.568-1.19-3.361-6.882c-1.241-2.415-2.137-3.64-2.689-3.674-.103 0-.172.035-.206.104l-.311.414-1.189-.777.052-.155c1.93-3.277 4.688-5.95 8.272-8.02 5.24-3.07 12.65-5.227 22.233-6.468 7.376-.932 13.15-3.778 17.32-8.539 4.102-4.691 5.757-10.228 4.964-16.61-.207-1.621-.224-2.76-.052-3.415.276-1.07 1.017-1.725 2.223-1.966Z"/><path fill="#4573AB" d="m219.076 23.112-.207-2.07c0-.552.086-.948.258-1.19.173-.241.483-.414.931-.517.551-.104 1.137.069 1.758.517 1.206.794 2.447 2.294 3.723 4.502 1.137 2 1.861 3.777 2.171 5.33l.465 4.243c0 5.14-1.602 9.987-4.808 14.54-2.275 3.209-5.257 5.917-8.945 8.124-4.825 2.898-10.633 4.778-17.424 5.64a57.935 57.935 0 0 0-14.115 3.675c-4.274 1.69-7.238 3.415-8.893 5.174-2.826-5.312-5.101-8.296-6.824-8.952 1.895-2.587 4.687-4.726 8.375-6.416 4.861-2.277 11.513-3.95 19.958-5.02 8.789-1.103 14.925-4.105 18.406-9.003 2.62-3.691 4.343-7.78 5.171-12.264l.258-2.742-.258-3.57Z"/><path fill="#5084C4" d="M221.816 19.852c1.206.794 2.447 2.294 3.722 4.502 1.138 2 1.862 3.777 2.172 5.33l.465 4.243c0 2.829-.551 5.692-1.654 8.59-3.654 4.346-7.497 7.365-11.53 9.055-4.998 2.104-8.635 1.139-10.909-2.898 4.377-1.621 7.652-3.95 9.823-6.985 2.62-3.691 4.343-7.78 5.17-12.264l.259-2.742-.259-3.57-.206-2.07c0-.553.086-.95.258-1.19.173-.242.483-.415.931-.518.551-.104 1.137.069 1.758.517Z"/><path fill="#0D131A" d="M219.179 117.133c5.239 2.657 11.116 7.624 17.631 14.903 5.653 6.278 11.254 9.452 16.804 9.521l5.739-.621c1.826-.448 3.067-1 3.722-1.656 1.689-1.794 3.706-3.208 6.05-4.243 2.86-1.276 4.98-1.259 6.359.052 1.413 1.345 1.879 3.26 1.396 5.744-.448 2.449-1.706 4.881-3.774 7.296-5.136 6.002-11.978 8.934-20.527 8.796-3.826-.069-7.772-1.138-11.84-3.208-4.963-2.587-9.875-6.571-14.735-11.953-3.55-3.967-7.497-7.313-11.84-10.039-3.964-2.483-6.79-3.656-8.479-3.518l-1.345.103.621-1.19c1.275-2.311 2.309-4.502 3.102-6.572.827-2.276 1.086-3.691.776-4.243l-.259-.103h-.465l-.052-1.449h.155c3.619-.31 7.273.483 10.961 2.38Z"/><path fill="#4573AB" d="M216.077 131.26c-3.861-2.553-6.963-4.002-9.307-4.347 2.413-4.622 3.619-7.951 3.619-9.986l-.155-.777c3.171.104 6.515 1.191 10.031 3.26 4.618 2.726 9.789 7.262 15.511 13.609 5.928 6.589 11.857 9.918 17.785 9.987l6.101-.621c2.138-.483 3.62-1.173 4.447-2.07 1.482-1.552 3.257-2.811 5.325-3.777 2.413-1.173 4.102-1.311 5.067-.414.483.483.724 1.19.724 2.122.035 1.414-.379 3.087-1.241 5.019-.793 1.863-1.671 3.312-2.637 4.347-2.171 2.242-4.842 3.984-8.014 5.226a24.984 24.984 0 0 1-9.927 1.811c-3.929-.035-7.841-.932-11.736-2.691-5.102-2.311-9.962-6.037-14.581-11.177a57.121 57.121 0 0 0-11.012-9.521Z"/><path fill="#0D131A" d="M254.027 79.773c5.308 2.174 9.91 5.675 13.805 10.505 4.067 5.07 5.98 10.642 5.739 16.713-.207 5.209-1.948 10.349-5.222 15.42-2.896 4.519-6.412 8.142-10.548 10.867-4.067 2.656-7.48 3.639-10.237 2.949a7.214 7.214 0 0 1-3.981-2.587 7.147 7.147 0 0 1-1.5-4.45l.207-1.759c.138-.552 1-1.604 2.585-3.157l5.119-5.019c4.791-5.071 7.187-9.538 7.187-13.402 0-3.243-1.862-6.348-5.584-9.314-3.55-2.864-6.704-4.123-9.462-3.778-3.309.38-6.67 1.863-10.082 4.45-2.826 2.14-4.653 4.054-5.481 5.744-.861 1.828-2.223 3.07-4.084 3.726l-5.584-.259c-1.792-.862-3.033-2.242-3.723-4.14-.689-1.862-.603-3.708.259-5.536 2.55-5.416 6.101-9.797 10.651-13.144 4.343-3.208 9.151-5.157 14.425-5.847 5.343-.69 10.513-.017 15.511 2.018Z"/><path fill="#5084C4" d="M266.126 91.364c3.446 4.278 5.187 9.073 5.222 14.385.034 5.278-1.638 10.574-5.016 15.886-2.033 3.174-4.532 6.089-7.497 8.745-4.205 3.726-7.841 5.209-10.909 4.45a5.925 5.925 0 0 1-3.154-2.069c-.827-1.07-1.241-2.26-1.241-3.571l.155-1.449a5.383 5.383 0 0 1 1.707-2.794 5.886 5.886 0 0 1 3.102-1.449h.103l.052-.052c1.551-.759 3.395-2.38 5.532-4.864 2.654-3.104 4.378-6.261 5.17-9.469.276-1.207.414-2.294.414-3.26 0-2.553-.896-4.95-2.688-7.193-4.516-5.554-9.566-8.003-15.15-7.347-3.584.448-7.186 2.052-10.806 4.812-3.033 2.277-4.98 4.346-5.842 6.209-.655 1.449-1.758 2.45-3.309 3.002l-4.446-.259c-1.448-.656-2.448-1.742-2.999-3.26-.517-1.518-.448-3.001.207-4.45 1.723-3.657 4.825-7.176 9.306-10.556 5.239-4.002 10.754-6.348 16.545-7.038 4.136-.517 8.118-.069 11.944 1.346 5.032 1.862 9.565 5.278 13.598 10.245Z"/><path fill="#4573AB" d="M241.928 91.312c-3.584.449-7.186 2.053-10.806 4.813-3.033 2.276-4.98 4.346-5.842 6.209-.655 1.449-1.758 2.449-3.309 3.001l-4.446-.258c-1.448-.656-2.448-1.742-2.999-3.26-.517-1.518-.448-3.001.207-4.45 1.137-2.38 2.998-4.847 5.584-7.4a38.679 38.679 0 0 1 9.771-6.986c12.03 2.105 20.285 5.33 24.766 9.677 3.171 3.035 4.809 7.279 4.912 12.729-.103-2.38-1-4.622-2.688-6.727-4.516-5.554-9.566-8.003-15.15-7.348ZM247.926 134.83a5.921 5.921 0 0 1-3.154-2.07c-.827-1.069-1.241-2.259-1.241-3.57l.155-1.449a5.383 5.383 0 0 1 1.707-2.794 5.886 5.886 0 0 1 3.102-1.449h.103l.052-.052c1.62-.759 3.567-2.518 5.842-5.278.655.621 1.741.983 3.258 1.087 1.689.103 3.378-.155 5.067-.776 4.515-1.725 7.341-5.416 8.479-11.074-.31 4.726-1.965 9.47-4.964 14.23-2.033 3.174-4.532 6.089-7.497 8.745-4.205 3.726-7.841 5.209-10.909 4.45Z"/><path fill="#0D131A" d="m237.017 180.832 2.171 4.295c3.999 8.175 7.962 13.85 11.892 17.024 6.48 5.209 15.459 7.313 26.937 6.313 6.239-.552 10.789-.552 13.65 0 2.585.483 3.964 1.466 4.136 2.949.276 2.518-1.017 4.933-3.878 7.244-3.274 2.691-7.721 4.192-13.339 4.502-12.891.725-23.542-1.621-31.953-7.037-8.134-5.244-15.304-14.127-21.508-26.649l-.776-1.552c-.93-1.829-1.085-3.726-.465-5.692.586-1.967 1.758-3.398 3.516-4.295 1.827-.932 3.653-1.121 5.48-.569 1.862.552 3.24 1.707 4.137 3.467Z"/><path fill="#5084C4" d="M237.896 185.748c4.101 8.451 8.117 14.316 12.046 17.593 6.756 5.623 16.063 7.917 27.92 6.882l1.138-.103 10.599-.569c3.033.103 4.619.776 4.757 2.018.103 1.207-.397 2.466-1.5 3.777-.999 1.173-2.361 2.191-4.084 3.053-2.655 1.311-5.877 2.07-9.669 2.277-12.753.69-23.232-1.432-31.436-6.365-8.238-4.967-15.321-13.471-21.25-25.51l-.775-1.501c-.758-1.483-.896-3.018-.414-4.605.483-1.622 1.431-2.777 2.844-3.467 1.448-.759 2.913-.932 4.395-.518 1.447.449 2.533 1.363 3.257 2.743l2.172 4.295Z"/><path fill="#4573AB" d="m235.724 181.453 2.172 4.295c1.93 3.967 3.567 7.037 4.911 9.21 2.034 7.107 6.963 13.04 14.788 17.801 6.376 3.863 11.995 5.795 16.855 5.795l10.03-.724c3.447-.587 6.377-1.604 8.79-3.053l-.414.569c-.999 1.173-2.361 2.191-4.084 3.053-2.655 1.311-5.877 2.07-9.669 2.277-12.753.69-23.232-1.432-31.436-6.365-8.238-4.967-15.321-13.471-21.25-25.51l-.775-1.501c-.758-1.483-.896-3.018-.414-4.605.483-1.622 1.431-2.777 2.844-3.467 1.448-.759 2.913-.932 4.395-.518 1.447.449 2.533 1.363 3.257 2.743Z"/><path fill="#0D131A" d="M122.287 77.807c-1.93-.138-3.533-.949-4.808-2.432l-1.603-1.863c-5.619-6.761-11.496-11.453-17.631-14.075-8.652-3.656-18.251-3.605-28.799.155-3.447 1.208-6.29 1.587-8.53 1.139-2.345-.449-3.913-1.777-4.706-3.985-.69-1.966.104-4.312 2.379-7.037 2.24-2.725 5.067-4.778 8.479-6.158 11.237-4.484 21.836-5.036 31.797-1.656 9.824 3.312 19.389 10.591 28.696 21.837l1.085 1.294c1.31 1.517 1.827 3.415 1.552 5.692-.276 2.242-1.172 4.001-2.689 5.278-1.551 1.31-3.292 1.914-5.222 1.81Z"/><path fill="#4573AB" d="M98.659 57.42c-9.066-4.21-19.045-4.365-29.937-.466-2.068.758-4.067 1.138-5.997 1.138-2.24-.035-3.568-.655-3.981-1.863-.517-1.483-.018-3.174 1.499-5.07 1.654-2.07 4.05-3.727 7.187-4.968 10.995-4.382 21.25-5.037 30.763-1.967 9.514 3.105 18.768 10.09 27.765 20.957l1.086 1.294c.965 1.104 1.447 2.449 1.447 4.036 0 1.794-.637 3.243-1.913 4.347-1.275 1.069-2.671 1.57-4.188 1.5-1.551-.069-2.826-.707-3.826-1.915l-1.603-1.862c-5.963-7.245-12.064-12.299-18.302-15.162Z"/><path fill="#5084C4" d="M87.956 42.361c6.549.31 12.874 2.26 18.975 5.847-.103 4.037-1.672 7.728-4.705 11.074-9.996-5.968-21.164-6.744-33.504-2.329-2.068.76-4.067 1.139-5.997 1.139-2.24-.035-3.568-.656-3.981-1.863-.517-1.483-.018-3.174 1.499-5.071 1.654-2.07 4.05-3.726 7.187-4.968 7.204-2.897 14.046-4.174 20.526-3.829Z"/><path fill="#4573AB" d="m104.036 57.005-1.81 2.277c-9.996-5.968-21.164-6.744-33.504-2.328-1.861.655-3.67 1.017-5.429 1.086-2.068.07-3.464-.327-4.188-1.19 7.067-3.208 13.874-5.485 20.423-6.83 7.894-1.622 14.115-1.553 18.665.207 3.171 1.242 5.119 3.501 5.843 6.779Z"/><path fill="#0D131A" d="M72.135 193.147c-8.445 1.691-14.667 6.348-18.665 13.972-4.309 8.21-9.824 14.092-16.545 17.645-5.722 3.036-11.737 4.139-18.044 3.312-5.688-.725-10.376-2.743-14.064-6.055-3.688-3.311-5.153-6.83-4.394-10.556.965-4.898 5.756-5.312 14.373-1.242 10.203 4.899 18.492 1.277 24.87-10.866 5.48-11.246 14.321-18.473 26.523-21.681 10.41-2.76 20.216-2.243 29.42 1.552 1.895.483 3.394 1.587 4.497 3.312.69 1.173 1.034 2.414 1.034 3.725l-.206 1.811c-.552 2.001-1.655 3.485-3.31 4.451-1.102.655-2.016 1.103-2.74 1.345l-2.895.259c-7.307-1.829-13.925-2.156-19.854-.984Z"/><path fill="#5084C4" d="M51.764 205.256c-4.033 7.658-9.152 13.195-15.356 16.61-5.274 2.898-10.858 4.088-16.752 3.57-5.205-.483-9.565-2.104-13.081-4.864-3.447-2.725-4.86-5.606-4.24-8.641.242-1.208.776-2.018 1.603-2.432 1.069-.552 2.74-.449 5.015.31 1.241.414 3.016 1.19 5.326 2.329l2.275 1.086c4.24 1.656 8.065 1.88 11.478.673 4.929-1.725 9.41-6.416 13.443-14.075 5.963-11.315 15.2-18.128 27.713-20.439 8.065-1.483 16.769-1.069 26.11 1.242 1.55.414 2.74 1.311 3.567 2.691.828 1.414 1.034 2.88.62 4.398-.378 1.518-1.257 2.708-2.636 3.57-1.413.828-2.878 1.053-4.395.673-7.72-1.932-14.7-2.328-20.94-1.19-8.996 1.69-15.58 6.52-19.75 14.489Z"/><path fill="#4573AB" d="M71.515 190.767c-8.997 1.69-15.58 6.52-19.751 14.489-6.032 11.453-14.236 18.076-24.61 19.87-4.171.724-8.256.552-12.254-.518-3.689-1-6.722-2.57-9.1-4.708 7.445 2.794 14.804 3.277 22.077 1.448 7.583-1.897 13.53-5.968 17.838-12.211 7.445-10.729 14.683-17.421 21.715-20.078 7.514-2.828 17.424-2.173 29.73 1.967l-.31.258c-1.414.828-2.879 1.053-4.395.673-7.722-1.932-14.701-2.328-20.94-1.19Z"/><path fill="#0D131A" d="M190.535 186.679c3.585-1.587 8.48-2.121 14.684-1.604 6.17.552 11.943 2.018 17.321 4.398 4.825 2.139 8.858 4.83 12.098 8.073 3.206 3.242 5.498 6.899 6.877 10.97 2.137 6.416 5.222 11.142 9.255 14.178 3.722 2.794 8.531 4.347 14.425 4.657l7.083.569c2.275.414 3.757 1.121 4.447 2.122 1.654 2.311 1.103 4.415-1.655 6.313-3.275 2.277-9.048 3.415-17.321 3.415-14.063 0-24.076-8.883-30.039-26.649-1.413-4.243-5.084-7.693-11.013-10.349-3.964-1.725-8.186-2.794-12.667-3.208l-7.601.414c-1.826.793-3.671.828-5.532.103-1.896-.724-3.24-2.001-4.033-3.829-.861-1.828-.913-3.674-.155-5.537.69-1.862 1.965-3.208 3.826-4.036Z"/><path fill="#4573AB" d="M205.219 186.576c5.929.517 11.513 1.932 16.752 4.243 4.619 2.035 8.479 4.605 11.582 7.71 3.102 3.105 5.291 6.589 6.566 10.452 2.447 7.279 5.601 12.368 9.462 15.265 3.55 2.691 8.738 4.209 15.562 4.554l6.412.517c2.137.311 3.464.828 3.981 1.553 1.034 1.414-.155 2.88-3.568 4.398-3.722 1.656-8.651 2.484-14.787 2.484-4.826 0-9.737-1.88-14.735-5.64-6.136-4.623-10.582-11.108-13.34-19.457-1.516-4.657-5.463-8.382-11.84-11.177-4.136-1.828-8.531-2.949-13.184-3.363-3.895-.345-6.635-.173-8.221.517l-4.446.104c-1.483-.552-2.568-1.57-3.258-3.053a6.234 6.234 0 0 1-.465-2.38c0-.759.121-1.449.362-2.07.586-1.484 1.603-2.553 3.05-3.208 3.447-1.518 8.152-2.001 14.115-1.449Z"/><path fill="#0D131A" d="M90.852 187.817c3.55-1.586 8.427-2.121 14.632-1.604 6.17.552 11.96 2.018 17.372 4.399 4.826 2.138 8.858 4.829 12.098 8.072 3.206 3.243 5.498 6.899 6.877 10.97 1.965 5.899 4.981 10.453 9.048 13.661 2.758 2.173 5.033 3.26 6.825 3.26 6.066.241 9.996 1.5 11.788 3.777.931 1.207 1.241 2.605.931 4.191-.414 1.863-2.275 3.485-5.584 4.865-2.792 1.138-5.274 1.707-7.445 1.707-4.998 0-10.151-2.087-15.46-6.261-6.376-5.002-11.012-11.867-13.908-20.595-1.413-4.243-5.101-7.693-11.064-10.349-4.274-1.897-8.686-3.036-13.236-3.415-4.309-.379-8.066-.052-11.272.983-1.689.552-2.843.483-3.464-.207l-1.861-3.881c-.793-1.828-.827-3.674-.104-5.536.724-1.898 2-3.243 3.827-4.037Z"/><path fill="#4573AB" d="m92.247 199.667-2.481.155-1.293-3.001a5.467 5.467 0 0 1-.517-2.38c0-1.139.31-2.173.93-3.105.621-1 1.466-1.725 2.534-2.173 3.413-1.518 8.1-2.001 14.063-1.449 5.929.517 11.513 1.932 16.752 4.243 4.654 2.035 8.531 4.605 11.634 7.71 3.067 3.07 5.256 6.555 6.566 10.453 2.068 6.244 5.308 11.056 9.72 14.437 2.999 2.276 5.498 3.449 7.497 3.518l6.204.776c2.172.552 3.671 1.346 4.499 2.381.655.828.861 1.828.62 3.001-.276 1.311-1.81 2.449-4.602 3.415-2.412.828-4.705 1.242-6.876 1.242-4.826 0-9.738-1.88-14.735-5.64-6.136-4.623-10.582-11.108-13.34-19.456-.896-2.657-2.551-5.106-4.963-7.348a24.61 24.61 0 0 0-6.774-4.399c-4.343-1.931-9.099-3.087-14.27-3.467-4.756-.345-8.479.018-11.168 1.087Z"/><path fill="#0D131A" d="M180.505 97.884c3.413-2.104 8.255-3.415 14.529-3.933 6.48-.517 12.495 0 18.044 1.553 4.929 1.38 9.221 3.57 12.874 6.571 3.413 2.829 6.119 6.244 8.118 10.246 2.757 5.588 6.376 9.676 10.857 12.264 2.999 1.724 5.412 2.483 7.239 2.276 5.136-.586 8.824.19 11.064 2.329 1.103 1.069 1.586 2.415 1.448 4.036-.103 1.863-1.517 3.536-4.24 5.019-2.137 1.173-4.325 1.915-6.566 2.225-5.032.725-10.409-.483-16.131-3.622-7.066-3.863-12.633-9.866-16.7-18.007-2-4.036-6.119-6.934-12.358-8.693-4.17-1.139-8.513-1.604-13.029-1.397-3.722.207-6.204.689-7.445 1.448-1.689 1.07-3.516 1.38-5.481.932-1.964-.449-3.481-1.518-4.549-3.208a7.157 7.157 0 0 1-1.086-3.83l.207-1.655c.413-1.967 1.482-3.485 3.205-4.554Z"/><path fill="#4573AB" d="M194.982 95.71c5.963-.31 11.702.311 17.217 1.864 4.895 1.38 9.083 3.38 12.564 6.002 3.516 2.622 6.17 5.761 7.962 9.418 2.93 5.864 6.825 10.159 11.685 12.884 3.275 1.829 5.912 2.639 7.911 2.432 2.24-.276 4.326-.31 6.256-.103 2.24.276 3.843.862 4.808 1.759.759.69 1.103 1.639 1.034 2.846-.103 1.346-1.465 2.691-4.084 4.036-2.275 1.139-4.498 1.863-6.67 2.174-4.791.69-9.91-.466-15.356-3.467-6.721-3.726-12.047-9.521-15.976-17.387-2.172-4.381-6.601-7.52-13.288-9.417-4.343-1.208-8.841-1.691-13.494-1.449-3.93.207-6.636.759-8.118 1.656-1.344.862-2.809 1.104-4.395.724-1.551-.345-2.757-1.19-3.619-2.535-.862-1.38-1.103-2.846-.724-4.399.379-1.587 1.241-2.794 2.585-3.622 3.172-2 7.739-3.14 13.702-3.415Z"/><path fill="#0D131A" d="M251.494 46.45c2.895.862 4.86 2.138 5.894 3.829 1.068 1.655.879 3.173-.569 4.553-1.551 1.484-4.343 2.398-8.376 2.743-3.585.276-6.153.776-7.704 1.5l-1.189.57c-3.481 1.655-5.98 3.294-7.497 4.915-2.447 2.553-4.653 6.762-6.618 12.626-3.378 10.108-11.099 17.387-23.163 21.837-5.136 1.897-10.22 2.846-15.252 2.846-5.102 0-9.307-.983-12.616-2.95-1.827-.828-3.085-2.173-3.774-4.036-.724-1.897-.672-3.76.155-5.588.793-1.829 2.137-3.105 4.033-3.83l5.532.156 7.6.414c4.481-.38 8.704-1.432 12.668-3.157 5.963-2.656 9.651-6.106 11.064-10.349 2.93-8.693 7.308-15.351 13.133-19.974 4.55-3.622 9.823-5.864 15.821-6.727 4.033-.586 7.652-.379 10.858.621Z"/><path fill="#4573AB" d="M254.595 54.16c-1.103 1.069-3.188 1.724-6.256 1.966-3.757.276-6.497.827-8.22 1.655l-1.19.57c-3.619 1.69-6.238 3.398-7.858 5.122-2.62 2.76-4.947 7.176-6.98 13.247-1.31 3.898-3.516 7.382-6.618 10.453-3.103 3.104-6.98 5.657-11.634 7.658-5.204 2.311-10.788 3.726-16.752 4.243-5.963.517-10.65.017-14.063-1.5a5.764 5.764 0 0 1-2.533-2.174 5.723 5.723 0 0 1-.931-3.156c0-.76.172-1.535.517-2.329.689-1.483 1.775-2.5 3.257-3.053l4.447.104c1.585.69 4.326.88 8.221.569 4.653-.414 9.048-1.535 13.184-3.364 6.308-2.725 10.272-6.45 11.892-11.177 2.723-8.175 7.204-14.505 13.443-18.99 4.584-3.346 9.479-5.347 14.683-6.002l8.635.413c2.309.587 3.929 1.467 4.86 2.64.931 1.138.896 2.173-.104 3.104Z"/><path fill="#5084C4" d="M252.218 49.295c2.757 1.277 3.722 2.691 2.895 4.243-5.929-.413-11.547.242-16.855 1.967-5.929 1.932-12.702 5.554-20.32 10.866l-2.895 1.76c3.068-6.486 7.394-11.54 12.977-15.162 4.206-2.76 8.6-4.415 13.185-4.967 4.412-.518 8.083-.087 11.013 1.293Z"/><path fill="#0D131A" d="M214.112 4.329c2.137 1.104 3.499 2.621 4.085 4.553.758 2.622-1.741 4.347-7.497 5.175-5.584.793-10.048 3.001-13.391 6.623-3.275 3.588-5.705 8.831-7.29 15.73-.966 4.244-2.93 8.177-5.895 11.799-2.964 3.622-6.756 6.726-11.374 9.314-5.033 2.828-10.755 4.726-17.166 5.692l-14.994-.466c-1.896-.62-3.292-1.828-4.188-3.622-.896-1.794-1.034-3.657-.413-5.589.655-1.897 1.878-3.294 3.671-4.191 1.792-.897 3.636-1.018 5.532-.362l7.6-.362c4.447-.828 8.548-2.294 12.306-4.399 5.101-2.863 8.203-6.64 9.306-11.332 2.103-9.28 5.86-16.61 11.271-21.992 4.757-4.76 10.134-7.451 16.132-8.072 5.274-.552 9.375-.052 12.305 1.5Z"/><path fill="#5084C4" d="m210.028 12.194-4.344.776c-1.551.345-2.757.776-3.619 1.293-3.205 1.863-5.67 3.847-7.393 5.951-2.999 3.691-5.274 8.9-6.825 15.627-.931 4.002-2.775 7.676-5.532 11.022-2.792 3.38-6.412 6.313-10.858 8.797-4.998 2.794-10.427 4.743-16.287 5.847-5.859 1.104-10.564 1.07-14.115-.103a5.705 5.705 0 0 1-2.895-2.174 5.6 5.6 0 0 1-1.086-3.363c0-.621.104-1.242.31-1.863.517-1.518 1.483-2.622 2.896-3.312 1.448-.724 2.93-.845 4.446-.362 1.655.552 4.412.483 8.273-.207 4.584-.862 8.841-2.398 12.771-4.605 6.066-3.416 9.651-7.52 10.754-12.316 1.999-8.693 5.618-15.523 10.857-20.49 4.378-4.175 9.273-6.555 14.684-7.142l10.134.31c2.585.656 4.119 1.795 4.602 3.416.103.38.086.69-.052.931-.31.518-1.155.932-2.534 1.242l-4.187.725Z"/><path fill="#4573AB" d="M185.003 34.393c4.033-10.35 9.479-16.921 16.338-19.715-2.964 1.725-5.325 3.743-7.083 6.054-2.827 3.657-4.964 8.693-6.411 15.11-.931 4.001-2.775 7.675-5.533 11.021-2.792 3.381-6.411 6.313-10.857 8.797-4.55 2.587-9.634 4.467-15.253 5.64-.482-2.897-.586-5.243-.31-7.037.379-2.484 1.448-3.726 3.206-3.726 5.653 0 9.875-.535 12.667-1.604 5.929-2.311 10.341-7.158 13.236-14.54Z"/><path fill="#0D131A" d="M131.438 22.44c8.411 5.622 14.305 14.73 17.683 27.321.517 1.932.241 3.76-.827 5.485-1 1.725-2.482 2.829-4.447 3.312-1.93.483-3.757.207-5.48-.828-1.758-1.035-2.879-2.518-3.361-4.45-.931-3.76-2.723-7.21-5.377-10.35-2.413-2.897-5.153-5.07-8.221-6.52-3.033-1.483-5.722-1.914-8.066-1.293-2.55.656-4.205 2.432-4.963 5.33-.621 2.415-.5 4.657.362 6.727.517 1.31 1.723 3.553 3.619 6.727 3.516 6.692 5.119 12.85 4.808 18.473-.517 8.624-4.825 19.249-12.926 31.875-.999 1.518-2.636 3.26-4.911 5.226-2.654 2.311-4.878 3.657-6.67 4.036-1.034.207-1.879.086-2.534-.362-1.62-1.069-2.567-2.398-2.843-3.984-.242-1.449.155-3.105 1.189-4.968.62-1.069 1.672-2.518 3.154-4.347l1.448-1.914c5.963-9.245 8.841-16.783 8.634-22.613-.069-2.311-.62-4.674-1.654-7.089l-3.258-6.416c-5.722-10.901-7.1-20.578-4.136-29.03 2.689-7.554 7.945-12.418 15.769-14.592 7.894-2.173 15.563-.759 23.008 4.243Z"/><path fill="#5084C4" d="M127.561 37.342c-3.895-3.553-7.997-5.347-12.306-5.381-2.344 0-4.308.603-5.894 1.81-1.585 1.208-2.654 2.95-3.205 5.227-.724 2.76-.724 5.433 0 8.02.448 1.656 1.568 4.175 3.36 7.555 3.619 6.9 5.412 12.85 5.377 17.852-.069 8.487-4.032 18.836-11.891 31.048-.931 1.449-2.499 3.104-4.705 4.967-2.448 2.105-4.43 3.329-5.946 3.674l-1.396-.155c-1.276-.828-2.017-1.828-2.223-3.001-.173-1.173.224-2.588 1.189-4.243l2.843-3.933 1.552-2.07c6.238-9.659 9.409-17.662 9.513-24.01.069-3.932-1.465-8.83-4.602-14.695-2.24-4.243-3.705-7.676-4.395-10.298-1.171-4.484-1.154-9.038.052-13.66 1.276-4.864 3.74-8.71 7.394-11.54 3.654-2.828 7.997-4.226 13.029-4.191 6.687.034 12.96 2.466 18.82 7.296 6.687 5.485 11.22 12.988 13.598 22.51.379 1.552.155 3.018-.672 4.398-.827 1.38-2.017 2.26-3.568 2.639-1.551.38-3.016.155-4.394-.673-1.379-.828-2.258-2.018-2.637-3.57-1.655-6.486-4.619-11.678-8.893-15.576Z"/><path fill="#4573AB" d="M136.454 52.917c-1.655-6.485-4.619-11.677-8.893-15.575-3.895-3.553-7.997-5.347-12.305-5.381-2.344 0-4.309.603-5.895 1.81-1.585 1.208-2.654 2.95-3.205 5.227a15.008 15.008 0 0 0-.569 4.088c-1.069-3.967-1.051-7.193.052-9.676 1.378-3.14 4.394-4.71 9.048-4.71 5.859 0 11.685 2.933 17.475 8.797 4.24 4.313 8.704 10.54 13.392 18.68-.517.414-1.207.742-2.068.984-1.552.38-3.017.155-4.395-.673-1.379-.828-2.258-2.018-2.637-3.57ZM99.227 60.007l-2.792-5.744c-1-2.311-1.689-4.554-2.068-6.727 1.344 2.277 4.567 6.848 9.669 13.713 4.86 7.037 8.134 13.367 9.823 18.99-1.654 6.796-5.273 14.54-10.857 23.234-.931 1.449-2.499 3.105-4.705 4.967-2.448 2.105-4.43 3.329-5.946 3.674l-1.396-.155c-1.276-.828-2.017-1.828-2.223-3.001-.173-1.173.224-2.587 1.189-4.243l2.843-3.933 1.552-2.07c6.238-9.659 9.409-17.662 9.513-24.01.069-3.932-1.465-8.83-4.602-14.695Z"/><path fill="#0D131A" d="M255.94 59.8c3.998 2.104 6.773 4.45 8.324 7.037 1.448 2.346 1.654 4.38.62 6.106-1.068 1.759-3.033 2.656-5.894 2.69-3.24.07-6.945-1-11.116-3.208-4.377-2.277-10.013-3.156-16.907-2.639-9.651.725-18.406 4.571-26.265 11.54-7.549 6.692-16.114 10.193-25.697 10.504-9.479.276-20.698-2.553-33.658-8.486l-.518-.207c-1.861-.863-3.136-2.225-3.826-4.088-.689-1.863-.637-3.709.156-5.537.861-1.863 2.223-3.14 4.084-3.83l5.481.156.62.31c7.135 3.278 14.046 5.14 20.733 5.589 9.307.62 16.942-1.708 22.905-6.986 9.203-8.21 19.699-12.953 31.487-14.23 10.72-1.207 20.543.552 29.471 5.278Z"/><path fill="#5084C4" d="M257.491 73.098c-2.62-.138-5.446-1-8.479-2.587-4.654-2.45-10.599-3.467-17.838-3.053-10.203.552-19.354 4.433-27.454 11.643-6.998 6.244-15.477 9.607-25.438 10.09-9.927.517-20.716-1.863-32.367-7.14l-.465-.26c-1.448-.62-2.482-1.707-3.102-3.26-.552-1.586-.5-3.07.155-4.45.62-1.414 1.706-2.432 3.257-3.053l4.395.156.621.258c7.548 3.45 14.7 5.45 21.456 6.003 9.686.828 17.614-1.518 23.784-7.037 9.341-8.314 20.199-12.885 32.573-13.713 10.065-.655 18.889 1.018 26.472 5.02 3.55 1.862 5.946 3.742 7.187 5.64 1.137 1.724 1.223 3.139.258 4.243-.965 1.104-2.637 1.604-5.015 1.5Z"/><path fill="#4573AB" d="M176.317 77.6c3.998 2.242 8.479 2.95 13.443 2.122 3.619-.621 8.203-2.26 13.753-4.916l13.908-6.727c5.343-2.242 9.996-3.364 13.96-3.364 8.238 0 17.751 2.743 28.54 8.228-2.999.62-6.635-.19-10.909-2.432-4.654-2.45-10.599-3.467-17.838-3.053-10.203.552-19.354 4.433-27.454 11.642-6.998 6.245-15.477 9.608-25.438 10.09-9.927.518-20.716-1.862-32.367-7.14l-.465-.259c-1.448-.62-2.482-1.707-3.102-3.26-.552-1.587-.5-3.07.155-4.45.62-1.414 1.706-2.432 3.257-3.053l4.395.155.621.26c9.203 4.242 17.717 6.295 25.541 6.157Z"/><path fill="#0D131A" d="M168.975 56.54c3.585 6.037 5.205 14.04 4.86 24.01-.241 7.382 1.224 13.315 4.395 17.8 2.723 3.794 6.394 6.226 11.013 7.296 4.101.966 8.048.724 11.84-.725 3.757-1.414 6.049-3.535 6.876-6.364 1.172-3.795 2.275-6.762 3.309-8.9 1.517-3.243 3.12-5.21 4.809-5.9l3.36.208c1.62.897 2.499 3.208 2.637 6.933.069 2.726-.276 6.555-1.034 11.488-.482 3.07-1.706 5.933-3.671 8.59-1.999 2.656-4.584 4.846-7.755 6.571-4.412 2.45-9.393 3.709-14.942 3.778-5.55.103-11.151-1.018-16.804-3.364-8.273-3.415-13.736-9.072-16.39-16.972-1.517-4.554-2.24-11.419-2.172-20.595l-.155-8.227c-.206-2.864-.741-4.778-1.602-5.744-2.586-3.105-4.912-4.45-6.98-4.036-1.138.207-2.258.914-3.361 2.121-1.103 1.208-1.93 2.622-2.482 4.243-.241.656-.293 1.777-.155 3.364.172 1.863.62 3.726 1.344 5.588.586 1.45 2.206 3.968 4.86 7.555 2 2.726 3.275 4.606 3.826 5.64 1.035 1.829 1.362 3.278.983 4.347-.379.966-1.207 1.621-2.482 1.966-3.033.794-6.808-.483-11.323-3.829-2.344-1.725-4.619-3.794-6.825-6.21-2.688-3-4.395-6.536-5.118-10.607-.69-4.105-.328-8.262 1.085-12.47 2.069-6.141 5.567-10.815 10.496-14.024 4.757-3.104 9.669-4.14 14.736-3.104 5.377 1.07 9.651 4.26 12.822 9.573Z"/><path fill="#5084C4" d="M177.299 99.902c2.896 4.209 6.756 6.882 11.582 8.021 4.377 1 8.582.638 12.615-1.087 4.068-1.759 6.687-4.381 7.859-7.865l2.689-7.503c1.551-3.623 3.085-5.744 4.601-6.365l2.068.155c2.241 1.242 2.534 6.882.879 16.921-.413 2.829-1.551 5.485-3.412 7.969-1.861 2.449-4.274 4.502-7.238 6.157-4.24 2.312-9.014 3.502-14.322 3.571-5.343.069-10.737-1.018-16.183-3.26-7.859-3.243-13.064-8.676-15.615-16.3-1.447-4.416-2.137-11.056-2.068-19.922.069-3.967.017-6.882-.155-8.745-.276-2.932-.913-4.985-1.913-6.157-2.93-3.554-5.739-5.072-8.428-4.554-1.378.276-2.723 1.087-4.033 2.432-1.275 1.38-2.24 3.018-2.895 4.916-.31.862-.379 2.156-.207 3.88a21.25 21.25 0 0 0 1.448 6.055c.62 1.552 2.292 4.191 5.015 7.917l3.413 4.916c1.034 1.724 1.43 2.966 1.189 3.725-.138.449-.638.794-1.5 1.035-2.275.587-5.256-.362-8.944-2.846-2.758-1.863-5.326-4.122-7.704-6.778-2.516-2.795-4.102-6.106-4.757-9.936-.655-3.829-.31-7.727 1.034-11.694 1.345-3.967 3.43-7.296 6.256-9.987 2.827-2.69 6.015-4.38 9.566-5.07 7.617-1.45 13.649.827 18.096 6.83 4.274 5.726 6.325 13.798 6.152 24.216-.103 8.038 1.534 14.489 4.912 19.353Z"/><path fill="#4573AB" d="m220.265 97.108-.673 5.071c-.413 2.829-1.551 5.485-3.412 7.969-1.861 2.449-4.274 4.502-7.238 6.158-4.24 2.311-9.014 3.501-14.322 3.57-5.343.069-10.737-1.018-16.183-3.26-7.859-3.243-13.064-8.676-15.615-16.3-1.447-4.415-2.137-11.056-2.068-19.922.069-3.967.017-6.882-.155-8.745-.276-2.932-.913-4.984-1.913-6.157-2.93-3.554-5.739-5.071-8.428-4.554-1.378.276-2.723 1.087-4.033 2.432-1.275 1.38-2.24 3.018-2.895 4.916-.31.862-.379 2.156-.207 3.88a21.251 21.251 0 0 0 1.448 6.055c.62 1.552 2.292 4.191 5.015 7.917l3.413 4.916c1.034 1.725 1.43 2.966 1.189 3.725-.138.449-.638.794-1.5 1.035-2.275.587-5.256-.362-8.944-2.846-2.758-1.862-5.326-4.122-7.704-6.778-2.516-2.794-4.102-6.106-4.757-9.935-.655-3.83-.31-7.728 1.034-11.695 1.655-4.83 4.343-8.676 8.066-11.539 2.516 2.622 6.497 3.933 11.943 3.933 5.309 0 8.756 3.035 10.341 9.107.586 2.208 1.051 5.312 1.396 9.314l.879 10.711c.931 9.038 3.033 15.714 6.308 20.026 4.584 6.071 12.081 9.107 22.491 9.107 6.549 0 11.926-1.363 16.131-4.088 4.619-2.932 8.083-7.607 10.393-14.023Z"/><path fill="#0D131A" d="M175.748 26.993c10.1.966 17.476 5.192 22.129 12.678 2.413 3.898 4.43 10.038 6.05 18.421.586 3.07 1.016 4.916 1.292 5.537 1.172 2.622 3.757 4.812 7.756 6.571 1.827.828 5.842 2.14 12.047 3.933 6.962 2.035 12.029 4.019 15.2 5.95 5.171 3.106 8.462 7.314 9.876 12.627 1.172 4.346 1.172 8.779 0 13.298-1.138 4.45-3.223 8.417-6.256 11.902-3.275 3.725-7.394 6.399-12.358 8.02-4.86 1.552-10.013 1.966-15.459 1.242-1.999-.242-3.602-1.156-4.808-2.743-1.207-1.586-1.689-3.38-1.448-5.381.276-2.035 1.189-3.639 2.74-4.812 1.62-1.242 3.413-1.725 5.378-1.449 2.929.379 5.721.138 8.375-.725 2.586-.897 4.74-2.311 6.463-4.243 1.414-1.621 2.344-3.398 2.792-5.33.448-1.966.379-3.967-.206-6.002-.449-1.656-2.017-3.036-4.705-4.14l-10.548-3.208c-5.17-1.518-9.082-2.811-11.737-3.88-4.412-1.795-8.151-3.933-11.219-6.417-2.654-2.104-4.688-5.399-6.101-9.883l-2.947-12.109c-1.103-4.726-2.499-8.141-4.188-10.245-2.31-2.898-5.653-4.347-10.031-4.347-5.859 0-10.116 3.26-12.77 9.78-2.413 5.899-2.741 11.608-.983 17.127l.31 14.903-1.034-.517c-2.102-1.035-4.274-3.053-6.514-6.055-2.516-3.311-4.102-6.64-4.757-9.986-.793-4.037-1.189-7.797-1.189-11.28 0-10.488 2.844-18.301 8.531-23.441 5.17-4.623 11.943-6.555 20.319-5.796Z"/><path fill="#5084C4" d="M174.197 40.291c-6.239-.586-10.875 2.45-13.908 9.108-2.895 6.382-3.274 13.591-1.137 21.63l-.207 10.607c-1.896-1.345-3.706-3.208-5.429-5.588-2.103-2.933-3.43-5.865-3.981-8.797-.793-3.967-1.189-7.624-1.189-10.97 0-7.175 1.861-13.316 5.584-18.422 2.033-2.794 4.532-4.933 7.497-6.416 3.929-1.966 8.479-2.708 13.649-2.225 9.652.931 16.769 4.864 21.354 11.798 2.585 3.898 4.601 9.676 6.049 17.335.552 3.035 1.017 4.984 1.396 5.847 1.275 2.932 3.861 5.364 7.755 7.296 2.31 1.138 6.343 2.553 12.099 4.243 6.859 2 11.754 3.864 14.684 5.589 5.032 2.897 8.203 6.813 9.513 11.746 1.138 4.174 1.241 8.296.31 12.367-.93 4.071-2.826 7.727-5.687 10.97-3.171 3.588-7.066 6.209-11.685 7.865-4.688 1.691-9.582 2.191-14.684 1.501-1.585-.242-2.861-1.001-3.826-2.277-.999-1.276-1.378-2.708-1.137-4.295.172-1.552.913-2.829 2.223-3.829 1.241-.966 2.671-1.345 4.291-1.138 3.172.414 6.188.138 9.049-.828 2.826-.966 5.17-2.519 7.031-4.657 1.551-1.794 2.585-3.778 3.102-5.951.483-2.173.414-4.398-.206-6.675-.552-2.105-2.241-3.864-5.067-5.278-2.068-1.07-5.791-2.38-11.168-3.933-6.997-2.035-12.133-3.95-15.408-5.744-5.618-3.104-9.548-7.192-11.788-12.263-.758-1.69-1.5-4.485-2.223-8.383-1.276-6.692-2.758-11.298-4.447-13.816-2.516-3.726-6.652-5.864-12.409-6.416Z"/><path fill="#4573AB" d="M186.606 46.708c-2.516-3.726-6.653-5.864-12.409-6.416-3.378-.31-6.342.517-8.893 2.483 1.896-1.966 4.171-3.363 6.825-4.191l8.117-.207c6.412 1.863 10.341 7.83 11.789 17.904.862 5.933 2.861 11.004 5.997 15.213 4.171 5.623 10.134 9.297 17.89 11.022a43.813 43.813 0 0 1 10.857 4.036c4.033 2.139 6.929 4.519 8.687 7.14-1.103-1.345-2.965-2.57-5.584-3.673-1.965-.828-5.102-1.863-9.41-3.105-6.998-2.035-12.133-3.95-15.408-5.744-5.618-3.104-9.548-7.192-11.788-12.263-.759-1.69-1.5-4.485-2.224-8.383-1.275-6.692-2.757-11.298-4.446-13.816ZM158.945 81.636c-1.896-1.346-3.706-3.208-5.429-5.589-2.103-2.932-3.43-5.864-3.981-8.796l-.931-6.055c1.172 1.208 2.533 1.467 4.085.777 1.861-.76 3.739-2.743 5.635-5.951-.793 4.83-.517 9.832.827 15.006l-.206 10.608Z"/><path fill="#0D131A" d="M191.259 194.182c3.964 3.864 6.48 8.055 7.549 12.574.827 3.416.81 6.917-.052 10.505-1.379 5.657-4.688 11.021-9.927 16.092-4.102 3.968-7.583 6.4-10.444 7.297-2.068.655-4.964 1.172-8.686 1.552-4.688.448-7.652.172-8.893-.828-.586-.414-.845-.966-.776-1.656.104-1.069 4.412-4.812 12.926-11.229 1.586-.724 3.723-2.656 6.411-5.795 3.137-3.657 4.929-6.831 5.377-9.521.483-2.864-.723-5.727-3.619-8.59-4.067-3.967-7.945-5.882-11.633-5.744-3.171.138-7.411 2.036-12.719 5.692-2.413 1.656-5.119 2.95-8.118 3.881-5.618 1.656-11.529 1.311-17.734-1.035-3.688-1.414-8.617-4.174-14.787-8.279-4.412-2.932-7.617-4.83-9.617-5.692-2.688-1.207-4.86-1.432-6.514-.673-1.93.897-3.482 2.156-4.654 3.778-1.206 1.621-1.964 3.484-2.275 5.588-.379 2.553-.051 5.106.983 7.659 1.034 2.587 2.637 4.864 4.808 6.83 1.482 1.345 2.275 3.018 2.379 5.019.103 2.001-.517 3.743-1.862 5.226-1.344 1.484-3.016 2.277-5.015 2.381-2 .103-3.74-.518-5.222-1.863-9.1-8.21-12.995-17.455-11.685-27.736.552-4.519 2.172-8.624 4.86-12.315 2.689-3.726 6.153-6.589 10.393-8.59 4.929-2.311 10.444-2.328 16.545-.051 3.481 1.311 8.444 4.087 14.89 8.331 4.722 3.139 8.238 5.209 10.548 6.209 3.757 1.656 7.031 2.07 9.823 1.242.724-.207 2.43-1.069 5.119-2.587 7.032-4.002 12.96-6.279 17.786-6.831 8.583-1 16.528 2.053 23.835 9.159Z"/><path fill="#5084C4" d="M169.233 196.976c-1.757.207-6.152 2.294-13.184 6.261-3.412 1.967-6.015 3.226-7.807 3.778-5.308 1.587-10.961 1.225-16.959-1.087-3.447-1.311-8.238-3.984-14.373-8.02-4.688-3.14-8.169-5.192-10.444-6.158-3.137-1.345-5.67-1.57-7.6-.673-2.138 1.001-3.879 2.415-5.223 4.243-1.31 1.794-2.154 3.864-2.533 6.21-.414 2.725.017 5.571 1.292 8.538 1.241 2.863 3.068 5.399 5.48 7.606 1.207 1.07 1.845 2.415 1.914 4.037.069 1.621-.43 3.018-1.5 4.191-1.068 1.173-2.395 1.811-3.98 1.914-1.62.069-3.017-.448-4.189-1.552-3.826-3.45-6.618-7.486-8.376-12.108-1.757-4.623-2.292-9.297-1.602-14.023.655-4.278 2.223-8.09 4.705-11.436 2.516-3.346 5.722-5.933 9.617-7.762 4.618-2.208 9.651-2.328 15.097-.362 3.171 1.138 7.755 3.674 13.753 7.607 4.998 3.277 8.686 5.433 11.064 6.468 3.964 1.725 7.48 2.121 10.548 1.19.896-.276 2.671-1.156 5.325-2.639 6.791-3.864 12.513-6.089 17.166-6.675 8.272-1.001 15.873 1.897 22.801 8.693 3.723 3.657 6.101 7.607 7.135 11.85.793 3.208.776 6.485-.052 9.831-1.275 5.416-4.412 10.539-9.41 15.369-3.895 3.794-7.204 6.123-9.927 6.985-2.171.656-5.084 1.156-8.738 1.501-4.136.379-6.652.207-7.548-.518l-.207-.414c.207-.379 1.585-1.621 4.136-3.725a220.88 220.88 0 0 1 8.118-6.365c1.723-.793 3.981-2.811 6.773-6.054 3.274-3.829 5.17-7.244 5.687-10.246.552-3.38-.81-6.675-4.084-9.883-4.93-4.83-9.221-7.02-12.875-6.572Z"/><path fill="#4573AB" d="M190.225 195.217c3.723 3.657 6.101 7.607 7.135 11.85.793 3.208.776 6.485-.052 9.831-1.275 5.416-4.412 10.539-9.41 15.369-3.895 3.794-7.204 6.123-9.927 6.985-2.171.656-5.084 1.156-8.738 1.501-4.136.379-6.652.207-7.548-.518l-.207-.414c.207-.379 1.585-1.621 4.136-3.725a220.88 220.88 0 0 1 8.118-6.365c1.723-.793 3.981-2.811 6.773-6.054 3.274-3.829 5.17-7.244 5.687-10.246.552-3.38-.81-6.675-4.084-9.883-4.93-4.83-9.221-7.02-12.875-6.572-1.757.207-6.152 2.294-13.184 6.262-3.412 1.966-6.015 3.225-7.807 3.777-5.308 1.587-10.961 1.225-16.959-1.087-3.447-1.311-8.238-3.984-14.373-8.02-4.688-3.139-8.169-5.192-10.444-6.158-3.137-1.345-5.67-1.57-7.6-.673l-1.345.725v-.052c2.24-1.483 5.618-2.363 10.134-2.639 4.584-.31 7.376-.776 8.376-1.397.999-.655 2.292-1.242 3.878-1.759l3.412 2.225c4.998 3.277 8.686 5.433 11.064 6.468 3.964 1.725 7.48 2.121 10.548 1.19.896-.276 2.671-1.156 5.325-2.639 6.791-3.864 12.513-6.089 17.166-6.675 8.272-1.001 15.873 1.897 22.801 8.693ZM84.802 214.156c3.378 4.485 7.704 8.538 12.978 12.16-1.103.966-2.378 1.449-3.826 1.449-1.482 0-2.758-.5-3.826-1.501-3.171-2.828-5.636-6.088-7.394-9.779-1.758-3.657-2.706-7.469-2.843-11.436.724 2.656 2.36 5.692 4.911 9.107Z"/><path fill="#0D131A" d="M175.076 171.518c5.136-1.346 10.427-1.38 15.873-.104 5.377 1.207 10.048 3.519 14.012 6.934 4.205 3.657 6.997 8.038 8.376 13.143 1.516 5.692 1.137 11.815-1.138 18.37-.655 1.897-1.878 3.277-3.671 4.139-1.792.897-3.636 1.018-5.532.363-1.896-.656-3.292-1.898-4.188-3.726-.862-1.794-.965-3.639-.31-5.537 1.689-4.933-.018-9.745-5.119-14.437-4.998-4.588-9.875-6.278-14.632-5.071-2.757.725-5.394 2.363-7.911 4.916-.758.759-2.947 3.363-6.566 7.814-3.378 4.174-6.497 7.399-9.358 9.676-4.067 3.243-8.652 5.554-13.753 6.934-5.963 1.621-11.616 1.863-16.959.724-5.549-1.207-9.789-3.674-12.719-7.399-2.309-2.933-3.688-6.399-4.136-10.401-.621-5.692.81-11.764 4.291-18.214.448-.794 1.172-1.553 2.172-2.277a10.366 10.366 0 0 1 2.843-1.397c1.931-.552 3.775-.345 5.533.621 1.758.896 2.93 2.328 3.516 4.294.689 2.415.689 4.244 0 5.485-3.034 5.623-3.568 9.677-1.603 12.161 1.137 1.448 2.912 2.397 5.325 2.846l7.962-.466c2.965-.794 5.774-2.501 8.428-5.123l6.773-8.124c3.344-4.105 6.394-7.262 9.152-9.469 3.998-3.174 8.445-5.399 13.339-6.675Z"/><path fill="#4573AB" d="M169.854 188.956c-1.62 1.449-3.929 4.019-6.928 7.71-3.619 4.484-6.601 7.762-8.945 9.831-3.998 3.416-8.393 5.761-13.184 7.038-5.55 1.518-10.841 1.656-15.873.414-4.998-1.242-8.893-3.657-11.685-7.245-2.171-2.725-3.447-5.899-3.826-9.521-.551-5.209.845-10.884 4.188-17.024.793-1.38 1.947-2.311 3.464-2.794 1.551-.414 3.033-.259 4.447.466 1.378.793 2.309 1.949 2.792 3.466.413 1.553.258 3.036-.466 4.451-1.31 2.311-2.171 4.536-2.585 6.675-.62 2.966-.258 5.312 1.086 7.037 1.31 1.69 3.429 2.794 6.359 3.312l9.1-.466c3.206-.862 6.187-2.518 8.945-4.968 1.723-1.552 4.102-4.208 7.135-7.968 3.619-4.45 6.566-7.641 8.841-9.573 3.861-3.381 8.1-5.658 12.719-6.831 4.895-1.276 10.255-.983 16.08.88 5.791 1.863 10.582 4.847 14.373 8.952 3.309 3.588 5.395 7.676 6.256 12.264.862 4.588.431 9.366-1.292 14.333-.552 1.518-1.534 2.622-2.947 3.312l-4.447.259c-1.516-.518-2.637-1.501-3.36-2.95-.69-1.449-.776-2.932-.259-4.45 2.068-5.864 1.224-10.832-2.533-14.903-2.379-2.587-5.533-4.502-9.462-5.743-3.688-1.173-6.842-1.415-9.462-.725-3.033.794-5.877 2.38-8.531 4.761Z"/><path fill="#5084C4" d="M113.239 206.705c-2.171-2.726-3.447-5.899-3.826-9.522-.551-5.209.845-10.883 4.188-17.024.793-1.38 1.947-2.311 3.464-2.794 1.551-.414 3.033-.259 4.447.466 1.378.793 2.309 1.949 2.792 3.467.413 1.552.258 3.035-.466 4.45-1.31 2.311-2.171 4.536-2.585 6.675-.62 2.967-.258 5.312 1.086 7.037.931 1.208 2.344 2.139 4.24 2.794 1.826.587 3.877.846 6.152.777 1.379 4.001 3.619 7.606 6.722 10.814-5.343 1.208-10.375 1.173-15.098-.103-4.722-1.276-8.427-3.622-11.116-7.037Z"/><path fill="#4573AB" d="M124.303 207.429c.138-2.691-.448-5.278-1.758-7.762.966 1.138 2.362 2.018 4.188 2.639l5.998.724c1.379 4.002 3.619 7.607 6.721 10.815-2.964.69-5.894.983-8.789.88-2.861-.138-5.532-.638-8.014-1.501.965-1.69 1.516-3.622 1.654-5.795Z"/><path fill="#0D131A" d="m211.992 143.938 7.445 9.676c6.446 8.141 10.513 14.247 12.202 18.318 2.999 7.313 2.655 14.437-1.034 21.371-2.137 4.001-5.067 6.968-8.789 8.9-3.309 1.725-6.015 2.156-8.118 1.293-.586-.207-1.016-.638-1.292-1.293-.414-1.07.017-3.829 1.292-8.28l2.069-6.364c1.723-4.278 1.844-8.348.361-12.212-1.206-3.174-4.343-7.986-9.41-14.437l-6.462-8.383c-3.172-4.381-4.568-9.486-4.188-15.316.344-5.934 2.447-10.884 6.307-14.851 4.275-4.347 9.755-6.572 16.442-6.675 8.1-.104 16.786 3.07 26.058 9.521 4.275 3.001 7.618 5.881 10.031 8.641 4.033 4.657 4.998 8.469 2.895 11.436-.655.931-2.688.673-6.101-.776-3.55-1.518-8.41-4.261-14.58-8.228-4.964-3.242-9.565-5.174-13.805-5.795-4.343-.621-7.669.241-9.979 2.587-1.447 1.483-2.292 3.294-2.533 5.433-.276 2.139.121 3.95 1.189 5.434Z"/><path fill="#4573AB" d="M218.3 154.493c5.998 7.624 9.824 13.506 11.478 17.645 2.723 6.934 2.344 13.696-1.137 20.285-1.931 3.622-4.464 6.382-7.601 8.279-2.792 1.656-5.067 2.139-6.825 1.449a.991.991 0 0 1-.465-.518 3.448 3.448 0 0 1-.155-1.086c0-1.829 1.137-5.347 3.412-10.556l.828-1.863c.999-2.519 1.499-4.813 1.499-6.882 0-2.898-1-6.072-2.999-9.522-1.413-2.414-4.239-6.312-8.479-11.694l-6.411-8.383c-2.516-3.449-3.775-7.451-3.775-12.005 0-2.897.535-5.692 1.603-8.382 1.103-2.795 2.672-5.244 4.705-7.348 3.344-3.415 7.514-5.485 12.512-6.21 8.307-1.207 17.493 1.691 27.558 8.694 5.033 3.484 8.652 6.744 10.858 9.779 2.413 3.243 2.913 5.882 1.499 7.917-.207.276-2.154-.431-5.842-2.121-4.171-1.966-8.376-4.278-12.616-6.934-5.446-3.415-10.409-5.468-14.89-6.158-4.723-.759-8.342.138-10.858 2.691-1.654 1.69-2.62 3.881-2.895 6.572-.276 2.691.241 4.916 1.551 6.675l7.445 9.676Z"/><path fill="#0D131A" d="M203.719 205.049c.38-1.104 1.241-2.001 2.586-2.691 1.551-.759 3.309-1.259 5.273-1.501l4.912.311c2.482.828 4.843 1.173 7.084 1.035 2.24-.104 4.136-.69 5.687-1.76 2.413-1.621 3.723-4.208 3.929-7.762.586-8.934-2.447-15.989-9.099-21.163-2.586-2.036-5.412-3.433-8.48-4.192-4.067-1-8.341-.793-12.822.621-3.206 1.035-5.653 3.346-7.342 6.934-1.206 2.553-2.499 7.193-3.878 13.92-.896 4.415-1.827 7.951-2.792 10.607-1.344 3.657-3.067 6.675-5.17 9.056-3.861 4.45-8.29 7.52-13.288 9.21-5.136 1.76-10.392 1.881-15.769.363-5.343-1.484-10.1-4.278-14.27-8.383-4.137-4.036-6.584-8.245-7.342-12.626a18.06 18.06 0 0 1 .103-6.934c.586-3.001 1.844-4.657 3.774-4.967l1.293-.259 4.136.207c1.276.793 2.482 2.794 3.62 6.002.586 1.725 1.999 3.795 4.239 6.21 2.689 3.001 5.343 4.864 7.962 5.588 5.619 1.553 10.393.052 14.322-4.502.931-1.069 1.793-2.949 2.585-5.64l1.81-7.969c1.689-8.21 3.602-14.402 5.739-18.576 3.654-7.003 8.928-11.591 15.821-13.764 5.895-1.863 11.927-2.312 18.096-1.346 6.205 1.001 11.789 3.277 16.752 6.831 11.41 8.244 16.597 20.336 15.563 36.273-.62 9.832-4.567 16.783-11.84 20.853-6.894 3.864-14.977 4.244-24.249 1.139-1.379-.449-2.947-1.449-4.705-3.001-1.827-1.587-3.102-3.105-3.826-4.554-.62-1.311-.758-2.501-.414-3.57Z"/><path fill="#5084C4" d="M182.522 207.481c-3.62 4.174-7.842 7.002-12.668 8.486-4.825 1.483-9.841 1.5-15.045.052-5.102-1.415-9.617-3.968-13.547-7.659-3.895-3.656-6.204-7.503-6.928-11.539-.345-2.07-.327-4.14.052-6.209.482-2.484 1.379-3.829 2.688-4.036l1.345-.311 3.205.104c.896.621 1.844 2.345 2.844 5.174.655 1.863 2.171 4.157 4.55 6.882 3.033 3.45 6.015 5.589 8.944 6.417 6.101 1.69 11.375.034 15.822-4.968 1.034-1.173 1.964-3.174 2.792-6.002l1.913-8.28c1.62-8.003 3.412-13.936 5.377-17.8 3.343-6.623 8.29-10.953 14.839-12.988 6.032-1.897 11.891-2.38 17.579-1.449 5.687.931 10.875 3.243 15.562 6.934 4.929 3.898 8.721 8.866 11.375 14.903 2.62 6.037 3.723 12.298 3.309 18.783-.241 3.795-1.206 7.227-2.895 10.297-1.655 3.071-3.912 5.572-6.773 7.504-3.275 2.207-7.032 3.501-11.272 3.88-4.205.38-8.531-.172-12.977-1.655-1.241-.414-2.551-1.191-3.93-2.329-1.516-1.242-2.585-2.484-3.205-3.726-.483-.897-.621-1.707-.414-2.432.276-.724.914-1.345 1.913-1.863 1.276-.62 2.878-.983 4.809-1.086l4.498.414c2.723.897 5.308 1.276 7.755 1.138 2.448-.172 4.55-.845 6.308-2.018 2.792-1.863 4.309-4.812 4.55-8.848.31-4.623-.448-9.073-2.275-13.351-1.827-4.243-4.481-7.727-7.962-10.452-2.689-2.139-5.653-3.588-8.893-4.347-4.274-.966-8.79-.707-13.547.776-3.584 1.139-6.307 3.623-8.169 7.452-1.344 2.759-2.74 7.624-4.188 14.592-1.034 4.898-1.895 8.434-2.585 10.608-1.241 3.76-2.826 6.744-4.756 8.952Z"/><path fill="#4573AB" d="M246.272 195.941c-.449 3.381-1.465 6.417-3.051 9.108a20.813 20.813 0 0 1-6.359 6.726c-3.275 2.208-7.032 3.502-11.272 3.881-4.205.38-8.531-.172-12.977-1.655-1.241-.414-2.551-1.191-3.93-2.329-1.516-1.242-2.585-2.484-3.205-3.726a2.759 2.759 0 0 1-.362-.983c7.514 4.036 15.114 5.416 22.801 4.14 8.962-1.484 15.08-6.537 18.355-15.162ZM177.196 191.543c3.481 4.761 5.222 10.056 5.222 15.886l-.052.207c-3.585 4.105-7.79 6.899-12.616 8.382-4.791 1.449-9.771 1.449-14.942 0-5.101-1.414-9.617-3.967-13.546-7.658-3.895-3.657-6.204-7.503-6.928-11.539a18.768 18.768 0 0 1 .051-6.054c1.31-1.656 2.861-3.191 4.654-4.606 1.206-.276 2.137-.138 2.792.414.861.725 1.74 2.381 2.637 4.968.654 1.863 2.171 4.157 4.549 6.882 3.034 3.45 6.015 5.589 8.945 6.416 6.101 1.691 11.375.035 15.821-4.967 1.241-1.483 2.379-4.26 3.413-8.331Z"/><path fill="#0D131A" d="m96.85 99.695-.26-.259c-1.826-1.587-3.412-3.794-4.756-6.623-1.551-3.312-1.706-5.692-.465-7.141 1.31-1.552 3.412-2.19 6.308-1.915 3.033.276 5.963 1.484 8.789 3.623 3.792 3.208 6.911 4.915 9.358 5.122 1.655.104 4.102-.638 7.342-2.225 5.24-2.621 7.997-7.347 8.273-14.178-.035-3.346.017-5.692.155-7.037.207-2.242.896-3.674 2.068-4.295 1.827-.966 3.619-1.363 5.377-1.19 1.827.207 3.292 1.035 4.395 2.484 3.619 4.691 4.395 10.78 2.327 18.266-2.241 8.072-7.101 14.35-14.581 18.835-4.584 2.76-9.427 4.191-14.528 4.295-7.101.172-13.702-2.415-19.803-7.762Z"/><path fill="#4573AB" d="M123.89 91.52c5.756-3.347 8.876-8.331 9.358-14.955v-6.727c.069-2.07.483-3.363 1.241-3.88 1.344-.897 2.758-1.242 4.24-1.035 1.482.172 2.671.845 3.567 2.017 1.207 1.587 2 3.588 2.379 6.003s.293 5.037-.259 7.865c-.793 4.278-2.464 8.228-5.015 11.85-2.516 3.588-5.687 6.537-9.513 8.848-4.412 2.657-8.928 4.088-13.547 4.295-6.583.242-12.753-2.156-18.51-7.192l-.31-.26c-1.55-1.379-2.964-3.362-4.24-5.95-1.413-2.863-1.688-4.795-.827-5.795 1-1.173 2.655-1.518 4.964-1.035 2.31.483 4.722 1.673 7.238 3.57l6.308 3.105c4.964 1.621 9.272 1.38 12.926-.724Z"/><path fill="#0D131A" d="M134.541 220.831c4.067 4.588 6.359 9.832 6.876 15.731.448 5.105-.431 10.107-2.637 15.006-2.033 4.484-4.653 7.848-7.859 10.09-3.274 2.312-6.17 2.691-8.686 1.139-1.654-1.035-2.413-2.967-2.275-5.796.138-2.829 1.086-5.847 2.844-9.055l.62-.983c1.724-2.657 2.655-5.106 2.792-7.348.173-3.07-1.034-6.21-3.619-9.418-2.757-3.381-6.221-5.657-10.392-6.83-3.275-.932-5.481-1.07-6.618-.414l-1.293.569-1.913 1.863-3.154 2.949c-1.137.863-2.137 1.277-2.999 1.242-.723-.069-1.326-.431-1.81-1.087-1.723-2.38-2.36-5.295-1.912-8.744.413-3.002 1.361-5.261 2.844-6.779 4.377-4.45 10.53-5.899 18.458-4.347 7.996 1.587 14.907 5.658 20.733 12.212Z"/><path fill="#5084C4" d="M134.179 254.414c-1.138 1.724-2.896 3.415-5.274 5.071-2.654 1.793-4.533 2.328-5.636 1.604-1.171-.759-1.757-2.122-1.757-4.088 0-2.484.861-5.261 2.585-8.331l.568-.932c2-3.139 2.999-6.037 2.999-8.693 0-3.242-1.31-6.502-3.929-9.78-2.965-3.622-6.67-6.071-11.116-7.347l-7.652-.259-1.345.569-.155.052-2.12 2.07-2.637 2.535c-1.034.863-1.826 1.276-2.378 1.242l-.724-.466c-1.482-2.07-1.965-4.553-1.448-7.451.449-2.449 1.328-4.347 2.637-5.692 1.38-1.449 3.258-2.518 5.636-3.208 2.309-.725 4.912-1.018 7.807-.88 4.343.207 8.48 1.311 12.409 3.312a31.449 31.449 0 0 1 10.082 8.227c3.275 3.967 5.326 8.228 6.153 12.781 1.172 6.486-.328 12.937-4.498 19.353l-.207.311Z"/><path fill="#4573AB" d="M123.735 229.266c-2.965-3.622-6.67-6.072-11.116-7.348l-7.653-.259-1.344.569-.155.052-2.12 2.07c-1.689 1.794-2.964 2.915-3.826 3.363l-.31-.414c0-2.69 1.103-4.984 3.309-6.882 2.206-1.932 4.912-2.897 8.117-2.897 2.482 0 5.171.845 8.066 2.535 2.827 1.69 5.325 3.864 7.497 6.52 5.205 6.382 6.428 12.367 3.671 17.956-.965 1.966-2.223 3.346-3.774 4.139l.568-.931c2-3.139 2.999-6.037 2.999-8.693 0-3.243-1.31-6.503-3.929-9.78Z"/><path fill="#0D131A" d="M88.68 44.069c5.963-3.553 13.288-4.52 21.974-2.898C120.34 43 130.818 47.95 142.09 56.022c2.757 1.966 5.532 5.123 8.324 9.47 2.93 4.553 4.222 7.968 3.878 10.245-.724 4.588-6.567 2.363-17.528-6.675-5.308-3.795-11.047-7.09-17.217-9.883-12.271-5.589-20.457-5.83-24.56-.725-2.377 2.967-3.48 5.95-3.308 8.952.103 1.863 1.034 5.175 2.792 9.935 1.482 3.967 2.43 7.33 2.843 10.09.587 4.175.31 8.245-.827 12.212-.517 1.725-2.137 3.623-4.86 5.692-2.86 2.208-5.153 3.053-6.876 2.536-1.517-.414-2.758-1.087-3.723-2.018-1.448-1.449-1.448-3.105 0-4.968 1.93-2.449 2.654-5.485 2.171-9.107-.379-2.725-1.55-6.192-3.515-10.4-2.93-7.9-3.55-15.266-1.862-22.096 1.655-6.796 5.274-11.867 10.858-15.213Z"/><path fill="#5084C4" d="M115.514 45.052c8.066 2.45 16.39 6.624 24.973 12.523 2.688 1.862 5.48 4.83 8.376 8.9 2.929 4.208 4.256 7.227 3.981 9.055-.104.552-.397.897-.879 1.035-1.31.38-5.843-2.622-13.598-9.004l-3.309-2.639a85.09 85.09 0 0 0-16.907-8.951c-12.03-4.761-20.302-4.33-24.818 1.293-2.688 3.38-3.998 6.692-3.93 9.935.035 2.035.88 5.33 2.534 9.883 1.551 4.106 2.551 7.4 3 9.884.723 4.14.55 8.09-.518 11.85-.448 1.483-1.775 3.208-3.981 5.174-2.31 2.035-4.067 2.863-5.274 2.484-1.137-.311-1.913-1.001-2.326-2.07-.138-.345.103-1.138.723-2.38.896-1.76 1.517-3.174 1.862-4.243 1.447-4.623.758-9.522-2.069-14.696l-.93-2.484c-2.137-5.76-3.24-10.332-3.31-13.712-.068-5.761 2.12-11.212 6.567-16.352 6.653-7.658 16.597-9.486 29.833-5.485Z"/><path fill="#4573AB" d="M94.16 52.245c5.343-2.76 12.237-2.605 20.682.466 9.168 3.311 18.647 9.572 28.437 18.783l-4.912-3.933-3.309-2.639a85.129 85.129 0 0 0-16.907-8.952c-12.03-4.76-20.302-4.329-24.818 1.294-2.654 3.346-3.964 6.606-3.93 9.78 0 2.104.81 5.33 2.43 9.676-2.653-5.45-3.929-10.21-3.825-14.281.103-4.727 2.154-8.124 6.153-10.194Z"/><path fill="#0D131A" d="M226.883 96.28c.999-1.138 2.085-2 3.257-2.587 1.172-.621 2.189-.828 3.051-.621 1.93.448 3.102 1.483 3.515 3.105.242 1 .207 2.76-.103 5.277-.379 3.209-.396 5.623-.052 7.245.345 1.725 1.396 3.225 3.154 4.502 1.103.793 3.016 1.776 5.739 2.949l2.896 1.346c6.239 2.966 10.582 5.605 13.029 7.917 4.584 4.312 6.997 9.986 7.238 17.024.311 8.727-3.188 15.558-10.495 20.491-6.412 4.347-18.907 9.09-37.485 14.23l-15.821 4.398c-5.584 1.346-8.497 1.553-8.738.621-.621-2.553.603-5.519 3.671-8.9 4.101-4.623 10.582-7.969 19.44-10.039 9.858-2.345 16.855-4.381 20.992-6.106 9.237-3.863 13.718-8.52 13.442-13.971-.206-4.001-1.206-6.934-2.998-8.796-1.448-1.484-4.275-3.002-8.48-4.554-10.375-3.795-16.631-9.435-18.768-16.921-1.827-6.313-.655-11.849 3.516-16.61Z"/><path fill="#5084C4" d="M234.845 104.973c-.069 1.484.017 2.829.259 4.036.448 2.036 1.654 3.795 3.619 5.278 1.206.863 3.257 1.932 6.152 3.209l2.844 1.293c5.619 2.726 9.583 5.261 11.892 7.607 3.998 4.071 6.118 9.452 6.359 16.144.311 8.556-3.688 15.421-11.995 20.595-5.205 3.277-13.443 6.365-24.714 9.262l-19.595 5.589c-7.17 2.07-10.979 3.001-11.427 2.794l-.103-.052c.207-3.587 2.516-6.813 6.928-9.676 3.826-2.449 8.738-4.381 14.735-5.795l.931-.259c9.548-2.242 16.7-4.433 21.457-6.572 9.41-4.243 13.96-9.348 13.65-15.316-.242-4.243-1.517-7.503-3.826-9.78-1.448-1.484-4.43-3.312-8.945-5.485l-1.965-.932c-3.826-1.759-6.635-3.311-8.427-4.657-3.103-2.277-5.24-5.019-6.412-8.227-1.516-4.071-1.878-7.797-1.085-11.177.517-2.208 1.447-4.07 2.792-5.589.896-1.035 1.844-1.81 2.843-2.328.862-.414 1.551-.57 2.068-.466 1.345.31 2.155 1.018 2.43 2.122.207.793.155 2.345-.155 4.657l-.31 3.725Z"/><path fill="#4573AB" d="M235.311 100.058c-1.276-.932-3.068-1.104-5.378-.518-2.343.587-3.929 1.673-4.756 3.26.482-2.139 1.413-3.984 2.792-5.537.896-1.035 1.844-1.81 2.843-2.328.862-.414 1.552-.57 2.069-.466 1.24.276 2.016.88 2.326 1.811.276.725.31 1.984.104 3.778ZM241.101 126.913c-3.412-1.552-5.98-2.915-7.704-4.088-2.826-1.966-4.929-4.26-6.308-6.882 2.448 2.208 8.152 5.554 17.114 10.039 7.756 4.864 11.633 10.573 11.633 17.128-.241-4.243-1.516-7.503-3.826-9.78-1.447-1.484-4.429-3.312-8.944-5.485l-1.965-.932ZM198.239 180.78l-.103-.052.051-.207c4.24-2.38 10.238-4.691 17.993-6.934l17.579-4.864c8.997-2.829 15.597-5.399 19.803-7.71 4.687-2.622 8.393-5.985 11.116-10.09-2.103 5.726-6.894 10.487-14.374 14.282-4.791 2.414-11.805 4.812-21.043 7.192l-19.595 5.589c-7.17 2.069-10.979 3.001-11.427 2.794Z"/><path fill="#0D131A" d="M89.766 69.787c5.273 3.104 10.22 4.64 14.838 4.605l7.032-1.035c4.274-.414 6.98 0 8.117 1.242.828.931 1.19 2.018 1.086 3.26-.138 2.07-1.585 4.191-4.343 6.365-2.93 2.31-6.153 3.587-9.668 3.829-4.344.31-8.6-.07-12.771-1.139-2.965-.724-6.118-1.897-9.462-3.518-4.791-2.312-7.91-3.588-9.358-3.83-2.895-.517-5.894.328-8.996 2.536-4.86 3.45-6.36 9.28-4.499 17.49 1.345 5.83 4.585 13.367 9.72 22.613l.57.983c.861 1.587 1.033 3.243.516 4.967-.482 1.76-1.516 3.071-3.102 3.933-1.585.897-3.24 1.087-4.963.569-1.724-.483-3.034-1.518-3.93-3.105l-.517-.983c-7.72-11.349-12.081-21.94-13.08-31.771-.828-8.694.964-15.955 5.376-21.785 4.102-5.416 9.634-8.642 16.597-9.676 7.1-1.035 14.046.448 20.837 4.45Z"/><path fill="#5084C4" d="M114.997 74.806c1.861-.034 3.119.259 3.774.88.483.483.69 1.172.621 2.07-.104 1.586-1.362 3.225-3.775 4.915-2.619 1.863-5.584 2.915-8.893 3.157a38.096 38.096 0 0 1-12.357-1.087c-2.826-.724-5.877-1.863-9.151-3.415-4.515-2.173-7.79-3.364-9.824-3.57-3.24-.38-6.583.672-10.03 3.156-5.24 3.76-6.946 9.918-5.119 18.473 1.31 6.071 4.636 13.919 9.979 23.544l.517.983c.69 1.208.827 2.501.414 3.881-.38 1.346-1.172 2.363-2.379 3.053-1.24.656-2.533.794-3.877.414-1.345-.414-2.362-1.225-3.051-2.432l-.517-.983c-5.79-10.418-9.444-19.163-10.961-26.235-2.792-13.005.241-22.664 9.1-28.977 5.515-3.968 11.133-5.64 16.855-5.02 3.309.345 7.755 1.863 13.34 4.554 2.757 1.31 5.29 2.26 7.6 2.846l7.342.828 5.015-.518 5.377-.517Z"/><path fill="#4573AB" d="M93.126 81.532c2.448 1.07 5.929 1.674 10.444 1.812l12.306-.828c-2.689 1.966-5.739 3.07-9.152 3.311a38.1 38.1 0 0 1-12.357-1.086c-2.826-.725-5.877-1.863-9.151-3.416-4.516-2.173-7.79-3.363-9.824-3.57-3.24-.38-6.584.673-10.03 3.157-2.689 1.931-4.447 4.518-5.274 7.761.69-3.484 2.81-6.83 6.36-10.038 3.308-3.002 6.152-4.502 8.53-4.502 1.93 0 4.878.931 8.842 2.794l9.306 4.605ZM70.74 123.912c.689 1.207.826 2.501.413 3.881-.38 1.345-1.172 2.363-2.379 3.053-1.24.655-2.533.793-3.877.414-1.345-.414-2.361-1.225-3.05-2.432l-.518-.984c-4.584-8.106-7.807-15.23-9.668-21.37 1.861 3.173 4.308 4.915 7.341 5.226 2.93.31 4.36-.638 4.292-2.846 1.827 4.416 4.136 9.107 6.928 14.075l.517.983Z"/><path fill="#0D131A" d="M122.132 69.424c0-2.622.345-5.174 1.034-7.658 1.034-3.553 2.516-5.33 4.447-5.33 1.999 0 3.774 1.742 5.325 5.226 1.344 2.967 2.017 5.589 2.017 7.866 0 11.901-2.706 21.284-8.118 28.149-5.308 6.692-13.322 11.108-24.042 13.247-10.168 2.035-17.355 4.605-21.56 7.71-3.585 2.656-5.567 6.244-5.946 10.763l-.052 5.795c.138 5.554 0 9.711-.413 12.471l-.104.621h-.62c-5.067-.276-8.98-2.898-11.737-7.865-2.757-4.864-3.533-10.401-2.326-16.611 1.31-6.864 4.808-12.729 10.495-17.593 6.653-5.657 15.546-9.176 26.68-10.556 9.099-1.138 15.889-5.192 20.37-12.16 3.034-4.692 4.55-9.383 4.55-14.075Z"/><path fill="#5084C4" d="M124.511 62.8c.792-2.655 1.826-3.984 3.102-3.984 1.413 0 2.774 1.363 4.084 4.088 1.207 2.484 1.81 4.692 1.81 6.624 0 10.521-2.74 19.232-8.221 26.131-5.48 6.865-13.201 11.298-23.163 13.299-10.444 2.069-17.7 4.881-21.767 8.434-3.309 2.898-4.998 6.899-5.067 12.005l.259 3.156-.104 6.779-.362 7.71c-4.274-.345-7.497-2.88-9.668-7.606-2.172-4.692-2.568-9.936-1.19-15.731 1.517-6.451 4.981-11.936 10.393-16.455 6.377-5.278 14.787-8.52 25.231-9.728 9.548-1.104 16.287-5.416 20.216-12.936 2.344-4.485 3.516-9.539 3.516-15.162 0-2.277.31-4.484.931-6.623Z"/><path fill="#4573AB" d="M108.999 102.852c7.273-1.76 12.357-3.778 15.253-6.055-5.378 6.21-12.754 10.263-22.129 12.161-10.445 2.069-17.7 4.881-21.767 8.434-3.31 2.898-4.998 6.899-5.067 12.005l.258 3.156-.103 6.313a55.844 55.844 0 0 1-1.707-5.278c-1.964-7.417-1.206-13.316 2.276-17.697 2.722-3.484 7.496-6.313 14.321-8.486L109 102.852Z"/><path fill="#0D131A" d="M183.142 191.44c.62.793 1.12 1.811 1.499 3.053.379 1.276.5 2.397.362 3.363-.138.966-.482 1.932-1.034 2.898-.586.966-1.258 1.725-2.016 2.277-1.586 1.207-3.482 1.656-5.688 1.345-2.171-.276-3.86-1.225-5.067-2.846-3.895-5.105-8.22-8.59-12.977-10.452-4.378-1.725-8.359-1.829-11.944-.311-3.378 1.414-4.86 4.14-4.446 8.176.414 4.277 2.93 8.296 7.549 12.056 6.549 5.279 10.875 10.212 12.977 14.8 3.723 8.175 4.36 19.559 1.913 34.152-.689 4.139-2.189 7.658-4.498 10.556-2.137 2.69-4.05 3.88-5.739 3.57-4.481-.828-5.946-6.037-4.395-15.627 1.861-11.005 1.689-19.267-.517-24.786-1.344-3.45-4.464-7.141-9.358-11.074-10.41-8.451-15.253-17.386-14.529-26.804.31-4.139 1.758-7.865 4.343-11.177 2.551-3.277 5.929-5.812 10.134-7.606 6.48-2.76 13.512-3.139 21.095-1.139 8.755 2.312 16.2 7.503 22.336 15.576Z"/><path fill="#5084C4" d="M172.543 199.926c-4.068-5.313-8.842-8.918-14.322-10.815-4.998-1.725-9.462-1.742-13.391-.052-2.172.897-3.74 2.208-4.705 3.933-.965 1.759-1.276 3.795-.931 6.106.414 2.829 1.482 5.295 3.206 7.4 1.068 1.345 3.102 3.208 6.101 5.588 6.032 4.933 10.013 9.694 11.943 14.282 3.309 7.865 3.757 18.939 1.344 33.22-.551 3.381-1.723 6.417-3.516 9.107-1.654 2.519-3.05 3.674-4.187 3.467-2.758-.483-3.413-5.381-1.965-14.695 1.723-10.867 1.379-19.163-1.034-24.89-1.517-3.518-4.826-7.33-9.927-11.436-3.723-3.001-6.429-5.571-8.118-7.71-2.826-3.656-4.601-7.848-5.325-12.574-.758-4.967-.017-9.469 2.223-13.505 2.241-4.036 5.687-7.038 10.341-9.004 6.135-2.622 12.839-2.88 20.112-.776 8.307 2.415 15.442 7.52 21.405 15.317.966 1.276 1.345 2.708 1.138 4.294-.207 1.587-.965 2.864-2.275 3.83-1.275.965-2.706 1.345-4.291 1.138-1.586-.207-2.861-.949-3.826-2.225Z"/><path fill="#4573AB" d="m179.367 201.737-3.67.259c-1.276-.311-2.327-1.001-3.154-2.07-4.068-5.312-8.842-8.917-14.322-10.815-4.998-1.725-9.462-1.742-13.391-.051-2.172.896-3.74 2.207-4.705 3.932-.965 1.76-1.276 3.795-.931 6.106.379 2.415 1.172 4.519 2.378 6.313-3.757-3.933-4.636-8.314-2.636-13.143 1.999-4.864 5.876-7.296 11.633-7.296 4.825 0 9.875 1.621 15.149 4.864 4.757 2.897 9.306 6.865 13.649 11.901Z"/><path fill="#0D131A" d="M170.836 206.084c6.446-8.659 14.081-12.988 22.905-12.988 8.79 0 16.373 4.433 22.749 13.298 6.412 8.831 9.617 19.353 9.617 31.565 0 12.108-3.205 22.371-9.617 30.788-6.307 8.28-13.891 12.419-22.749 12.419-8.824 0-16.459-4.243-22.905-12.729-6.48-8.624-9.72-18.991-9.72-31.099 0-12.143 3.24-22.561 9.72-31.254Z"/><path fill="#C94850" d="M222.384 237.752c0 11.349-2.792 21.043-8.376 29.081-5.618 8.037-12.374 12.056-20.267 12.056-7.894 0-14.632-4.019-20.216-12.056-5.619-8.073-8.428-17.766-8.428-29.081 0-11.315 2.809-21.009 8.428-29.081 5.584-8.038 12.322-12.057 20.216-12.057 7.893 0 14.649 4.019 20.267 12.057 5.584 8.038 8.376 17.731 8.376 29.081Z"/><path fill="#E9545D" d="M193.741 196.614c6.135 0 11.685 2.553 16.648 7.659 4.86 5.036 8.307 11.573 10.341 19.611-2.689-4.554-5.791-8.072-9.307-10.556-3.619-2.587-7.428-3.881-11.426-3.881-7.997 0-14.804 4.674-20.423 14.023-5.653 9.314-8.479 20.577-8.479 33.79l.207 6.002c-4.137-7.451-6.205-15.955-6.205-25.51 0-11.315 2.809-21.009 8.428-29.081 5.584-8.038 12.322-12.057 20.216-12.057Z"/><path fill="#0D131A" d="M127.975 237.7c.689 2.484.741 4.622.155 6.416l-.259.414c-1.827 2.277-5.515 10.66-11.064 25.148l-4.24 12.161c-1.93 5.002-4.998 8.796-9.203 11.384-4.068 2.518-8.738 3.673-14.012 3.466-11.754-.482-22.405-6.554-31.952-18.214-6.205-7.555-10.479-15.265-12.823-23.13-2.413-7.934-2.516-14.885-.31-20.853 1.31-3.623 3.654-6.71 7.032-9.263 3.24-2.449 6.945-4.053 11.116-4.812 9.03-1.69 20.026 1.018 32.986 8.124l3.516-3.364c2.137-2.069 3.757-3.311 4.86-3.725 2.034-.794 4.981-.569 8.842.673 4.963 1.552 8.979 4.484 12.047 8.796 1.551 2.174 2.654 4.433 3.309 6.779Z"/><path fill="#E9545D" d="M114.738 225.54c3.482 1.69 6.291 3.95 8.428 6.779 1.206 1.621 1.948 3.794 2.223 6.519.242 1.967.242 3.381 0 4.244-.999 1.379-2.481 4.484-4.446 9.314-1.276 3.035-3.602 8.986-6.98 17.852l-2.275 7.037c-2.137-8.314-5.998-16.248-11.582-23.803-5.101-6.899-11.012-12.712-17.734-17.438-6.549-4.553-12.736-7.313-18.561-8.279-6.136-1.035-10.858.121-14.167 3.467 1.448-2.001 3.326-3.674 5.636-5.019a23.256 23.256 0 0 1 7.29-2.743c5.17-.966 11.013-.638 17.527.983 5.894 1.484 11.03 3.64 15.408 6.468 3.102 2.036 4.722 2.622 4.86 1.76.138-.828-.465-1.794-1.81-2.898l3.051-3.467c1.275-1.449 2.464-2.346 3.567-2.691 2.827-.483 6.015.156 9.565 1.915Z"/><path fill="#C94850" d="M114.739 225.54c3.481 1.69 6.29 3.95 8.427 6.778 1.207 1.622 1.948 3.795 2.223 6.52.242 1.967.242 3.381 0 4.244-.999 1.379-2.481 4.484-4.446 9.314-1.275 3.035-3.602 8.986-6.98 17.852l-2.275 7.037-1.292-4.295c.275-1.69.499-4.277.672-7.762.103-3.208.258-5.191.465-5.95.103-.38 1.327-2.346 3.671-5.899 2.275-3.45 3.74-6.762 4.395-9.935.758-3.553-.741-7.417-4.498-11.591-3.62-4.036-7.497-6.468-11.634-7.296l1.706-.932c2.827-.483 6.015.155 9.566 1.915ZM95.35 293.688c-5.722 1.104-11.702.138-17.941-2.897-6.205-3.036-11.944-7.779-17.217-14.23-4.412-5.382-7.808-10.832-10.186-16.352-2.344-5.485-3.516-10.642-3.516-15.472 0-2.621.362-5.105 1.086-7.451 2.758-3.588 6.36-5.761 10.806-6.52 4.447-.793 9.169-.034 14.167 2.277 9.582 4.45 18.647 12.591 27.196 24.424 3.619 5.002 6.342 9.676 8.169 14.023 1.861 4.484 2.447 7.796 1.758 9.935-1.069 3.242-2.844 5.933-5.326 8.072-2.516 2.139-5.515 3.536-8.996 4.191Z"/><path fill="#E9545D" d="M73.376 237.545c-6.067-1.863-11.116-1.898-15.15-.104-4.239 1.863-6.669 5.485-7.29 10.867-.689 5.899.914 13.35 4.81 22.354-6.17-9.142-9.256-17.783-9.256-25.925 0-2.621.362-5.105 1.086-7.451 2.758-3.588 6.36-5.761 10.806-6.52 4.447-.793 9.169-.034 14.167 2.277 6.41 2.932 12.943 7.969 19.595 15.109-6.308-5.14-12.564-8.675-18.768-10.607Z"/><path fill="#0D131A" d="M76.84 142.333c0 12.592 3.43 24.338 10.289 35.239l-3.723-.155c-6.41-10.832-9.616-22.527-9.616-35.084 0-6.899 1-13.591 2.998-20.077l4.809-4.398c-3.171 7.9-4.757 16.058-4.757 24.475Z"/></g><defs><radialGradient id="b" cx="0" cy="0" r="1" gradientTransform="rotate(90 0 150) scale(200)" gradientUnits="userSpaceOnUse"><stop stop-color="#fff"/><stop offset="1" stop-color="#4573AB"/></radialGradient><clipPath id="a"><path fill="#fff" d="M0 0h300v300H0z"/></clipPath></defs></svg>