<svg xmlns="http://www.w3.org/2000/svg" fill="none" viewBox="0 0 300 300"><g clip-path="url(#a)"><path fill="#fff" d="M0 0h300v300H0z"/><path fill="url(#b)" d="M-75-75h450v450H-75z"/><g clip-path="url(#c)"><path fill="#4C410E" d="M208.911 196.466c-4.637-3.993-8.365-8.879-12.761-13.093-2.055-1.979-1.244-3.065.674-4.419 5.547-3.931 10.979-7.998 16.494-12.008 1.265-.924 2.504-1.889 3.816-2.75 1.537-1.002 2.123-2.099 1.103-3.894-1.108-1.968-1.95-4.088-2.901-6.145a1076.77 1076.77 0 0 1-13.263-29.615c-2.415-5.631-1.412-9.525 2.091-14.201 13.414-17.802 28.852-33.656 45.272-48.582 9.813-8.921 19.866-17.554 29.835-26.303.899-.792 1.872-1.496 2.52-2.015 1.312-.079 1.689.608 1.877 1.217 6.08 19.733 10.455 39.802 11.992 60.458.345 4.529-.836 7.242-4.893 9.709-16.379 9.971-32.506 20.315-48.723 30.538-4.281 2.703-4.182 2.708-3.481 7.495 1.244 8.638 2.305 17.318 3.565 25.935.34 2.32-.868 3.559-2.415 4.818-4.705 3.852-9.41 7.767-14.157 11.619-4.323 3.511-4.491 3.207-1.046 7.678 2.672 3.443 5.192 7.001 7.779 10.496-2.263 1.407-3.44-.477-4.584-1.742-1.804-1.994-3.451-4.141-5.186-6.208-4.705-6.76-4.606-7.531 1.599-12.937 3.555-3.091 7.319-5.941 10.979-8.922 3.053-2.492 4.02-5.473 3.366-9.273-1.071-6.198-1.474-12.496-2.614-18.683-1.186-6.376.685-10.774 6.661-14.285 15.766-9.284 30.969-19.523 46.574-29.09 3.56-2.183 4.794-4.797 3.46-8.696-1.333-16.957-4.705-33.54-9.263-49.904-1.568-5.726-2.332-5.999-6.608-2.157-14.528 13.041-29.349 25.747-43.03 39.738-10.387 10.643-20.273 21.617-29.003 33.688-2.06 2.624-1.046 5.248 0 7.908 4.041 10.407 8.693 20.541 13.592 30.56 4.585 9.362 4.297 10.564-4.245 16.741-3.524 2.551-6.974 5.211-10.565 7.652-3.445 2.335-4.224 4.277-1.124 7.804 2.582 2.928 6.006 5.389 7.146 9.478-.04.505-.225.988-.533 1.39Z"/><path fill="#000" d="M230.815 204.181c-1.255 0-2.128-1.024-2.875-1.89-.131-.152-.256-.299-.387-.44-1.187-1.312-2.321-2.714-3.419-4.062a161.171 161.171 0 0 0-1.772-2.157c-4.804-6.923-4.705-7.794 1.631-13.304 2.331-2.031 4.794-3.994 7.172-5.883a349.873 349.873 0 0 0 3.791-3.039c2.885-2.356 3.926-5.222 3.267-9.027-.523-2.917-.863-5.898-1.213-8.79-.392-3.249-.8-6.613-1.411-9.887-1.229-6.587.862-11.079 6.796-14.558 9.242-5.437 18.438-11.305 27.33-16.973 6.274-4.009 12.782-8.155 19.244-12.117 3.607-2.21 4.605-4.724 3.345-8.397v-.069c-1.218-15.502-4.245-31.813-9.253-49.856-.737-2.66-1.328-4.251-2.154-4.492-.826-.242-2.091.718-4.03 2.46a1596.818 1596.818 0 0 1-8.987 8.015c-11.386 10.128-23.164 20.603-34.027 31.714-12.108 12.38-21.319 23.065-28.983 33.629-1.976 2.519-1.009 5.012 0 7.647 3.571 9.194 7.894 18.893 13.592 30.549 4.664 9.525 4.339 10.8-4.328 17.072a389.834 389.834 0 0 0-3.534 2.597c-2.285 1.69-4.648 3.433-7.037 5.054-1.887 1.281-2.791 2.346-2.932 3.453-.142 1.108.449 2.357 1.861 3.957.643.735 1.359 1.459 2.049 2.157 2.091 2.1 4.276 4.304 5.149 7.426v.09a2.894 2.894 0 0 1-.585 1.574l-.168.226-.214-.184a89.059 89.059 0 0 1-7.402-7.484c-1.72-1.884-3.498-3.831-5.364-5.62-.931-.893-1.338-1.648-1.281-2.378.068-.913.842-1.637 1.981-2.445 3.942-2.792 7.9-5.7 11.731-8.513a1944.83 1944.83 0 0 1 4.758-3.49l1.045-.766c.905-.672 1.84-1.364 2.797-1.994 1.605-1.05 1.882-2.01 1.014-3.543-.779-1.385-1.432-2.86-2.065-4.287a83.043 83.043 0 0 0-.847-1.879c-4.919-10.58-9.258-20.268-13.262-29.62-2.285-5.332-1.684-9.384 2.143-14.464 12.128-16.1 26.526-31.546 45.309-48.618 6.963-6.334 14.172-12.595 21.146-18.71 2.9-2.529 5.796-5.062 8.689-7.598.643-.567 1.307-1.076 1.892-1.527l.638-.494.068-.052h.078c1.506-.095 1.94.755 2.139 1.401 6.628 21.517 10.554 41.292 12.023 60.515.366 4.813-.998 7.51-5.023 9.972-12.207 7.415-24.482 15.219-36.354 22.719-4.12 2.61-8.239 5.214-12.359 7.814-4.041 2.55-4.041 2.55-3.408 6.922l.042.31c.601 4.161 1.165 8.397 1.714 12.495.591 4.409 1.203 8.969 1.856 13.446.361 2.487-.983 3.81-2.509 5.054-2.29 1.868-4.571 3.742-6.843 5.62-2.436 2.005-4.867 4.015-7.319 6.004l-.695.562c-1.736 1.401-2.614 2.099-2.656 2.86-.042.761.732 1.774 2.274 3.763l.099.126c1.851 2.388 3.66 4.87 5.406 7.268a467.127 467.127 0 0 0 2.373 3.249l.173.225-.246.153a3.128 3.128 0 0 1-1.673.509Zm61.991-110.65c1.317 3.878.214 6.644-3.581 8.974-6.456 3.957-12.955 8.098-19.238 12.107-8.887 5.673-18.094 11.546-27.341 16.983-5.777 3.401-7.732 7.589-6.53 14.012.612 3.285 1.019 6.66 1.412 9.919.35 2.881.711 5.862 1.212 8.764.69 4.01-.407 7.033-3.455 9.52-1.255 1.05-2.525 2.036-3.79 3.044-2.379 1.889-4.836 3.847-7.162 5.873-6.117 5.326-6.185 5.914-1.569 12.595.586.698 1.177 1.422 1.762 2.141 1.098 1.349 2.227 2.74 3.403 4.046.131.142.262.294.392.447 1.004 1.165 1.95 2.272 3.613 1.39-.732-1.002-1.469-2.004-2.201-3.012-1.746-2.393-3.55-4.876-5.395-7.253l-.099-.126c-3.268-4.198-3.263-4.35.465-7.347l.695-.567c2.44-1.991 4.879-3.99 7.319-5.998 2.279-1.879 4.562-3.753 6.848-5.621 1.459-1.191 2.64-2.357 2.321-4.571-.653-4.482-1.265-9.043-1.855-13.456-.549-4.094-1.114-8.329-1.715-12.485l-.042-.315c-.669-4.619-.601-4.76 3.66-7.437l12.353-7.819c11.877-7.526 24.152-15.304 36.369-22.724 3.822-2.325 5.118-4.886 4.773-9.447-1.453-19.187-5.374-38.946-11.987-60.4a1.319 1.319 0 0 0-1.527-1.05l-.58.452c-.58.446-1.239.95-1.866 1.5-2.893 2.54-5.791 5.076-8.694 7.605-6.974 6.056-14.183 12.354-21.141 18.678-18.757 17.046-33.133 32.475-45.241 48.545-3.743 4.97-4.308 8.748-2.091 13.944 3.999 9.347 8.338 19.029 13.258 29.604.287.625.569 1.254.846 1.884.633 1.417 1.281 2.881 2.044 4.246 1.004 1.774.649 3.044-1.181 4.24-.946.619-1.877 1.307-2.771 1.973-.345.258-.69.525-1.045.767l-4.758 3.49c-3.831 2.818-7.794 5.725-11.736 8.517-.883.63-1.709 1.307-1.767 2.057-.036.557.33 1.197 1.124 1.958 1.877 1.805 3.66 3.758 5.39 5.647a89.382 89.382 0 0 0 7.136 7.247c.182-.299.291-.637.319-.986-.842-2.971-2.954-5.096-4.998-7.159a58.075 58.075 0 0 1-2.091-2.172c-1.516-1.727-2.149-3.112-1.987-4.377.162-1.265 1.109-2.43 3.137-3.821 2.379-1.611 4.736-3.358 7.016-5.043 1.181-.871 2.357-1.742 3.544-2.624 8.417-6.093 8.689-7.164 4.182-16.416-5.714-11.661-10.037-21.381-13.592-30.58-1.045-2.666-2.091-5.416.052-8.166 7.675-10.575 16.902-21.281 29.025-33.682 10.889-11.095 22.673-21.575 34.074-31.715 3.001-2.666 5.995-5.337 8.982-8.013 2.174-1.947 3.471-2.881 4.527-2.572 1.056.31 1.683 1.884 2.509 4.86 5.008 18.064 8.03 34.396 9.264 49.925Z"/><path fill="#0B0C09" d="M197.384 46.283c9.838-1.197 19.63-1.391 29.301.923.136 2.819-1.406 4.414-2.781 5.878-9.844 10.496-21.434 18.767-33.865 25.847-.136-.231-.272-.462-.413-.688.036-3.642 2.216-6.544 3.534-9.703 2.802-6.702 4.354-13.54 3.591-20.825a2.101 2.101 0 0 1 .633-1.432Z"/><path fill="#000" d="m189.95 79.288-.136-.22a30.341 30.341 0 0 0-.413-.688l-.037-.063v-.079c.026-2.677 1.187-4.965 2.306-7.18.434-.855.878-1.736 1.249-2.623 3.137-7.49 4.266-14.07 3.571-20.693.01-.622.266-1.215.711-1.648l.062-.063h.089c11.527-1.422 20.864-1.118 29.396.923l.193.042v.2c.142 2.876-1.411 4.529-2.781 5.988l-.073.079c-8.887 9.509-20.001 17.98-33.923 25.893l-.214.132Zm-.063-1.118c.084.136.162.273.246.404 13.77-7.872 24.758-16.269 33.578-25.668l.078-.079c1.323-1.417 2.692-2.876 2.64-5.41-8.39-1.98-17.586-2.258-28.92-.883-.308.324-.485.75-.497 1.197.701 6.676-.444 13.335-3.612 20.914-.376.897-.826 1.79-1.26 2.624-1.087 2.167-2.206 4.376-2.253 6.927v-.026Z"/><path fill="#0C0C09" d="M49.71 44.01C54.295 28.22 60.359 13.204 72.132.41 74.307 3.3 74.474 6.218 74.97 9c1.391 7.81.633 15.619-.167 23.417a.918.918 0 0 1-1.27-.063c-.826-2.844-1.83-3.857-4.946-1.837-6.273 4.088-11.658 9.274-17.518 13.876a1.746 1.746 0 0 1-1.359-.383Z"/><path fill="#000" d="M50.824 44.672a1.987 1.987 0 0 1-1.297-.452l-.136-.11.047-.173C53.48 30.014 59.313 13.928 71.918.23L72.127 0l.188.252c1.892 2.514 2.29 5.022 2.676 7.452.068.42.136.835.21 1.25 1.427 8.013.58 16.237-.162 23.49v.115l-.095.068a1.163 1.163 0 0 1-1.568-.073l-.058-.053v-.073c-.465-1.575-.935-2.383-1.568-2.624-.632-.242-1.61.047-2.974.934-4.094 2.655-7.842 5.836-11.501 8.922-1.997 1.637-4 3.337-6.044 4.949l-.057.047h-.079c-.09.01-.18.015-.271.016Zm-.81-.761c.283.183.62.262.956.225 2.013-1.574 4.004-3.259 5.928-4.886 3.66-3.086 7.429-6.297 11.548-8.953 1.511-.981 2.614-1.296 3.44-.987 1.004.378 1.495 1.606 1.877 2.897a.626.626 0 0 0 .79.058c.742-7.184 1.568-15.324.156-23.223a48.034 48.034 0 0 1-.204-1.254c-.366-2.283-.742-4.64-2.394-6.97-12.332 13.51-18.099 29.343-22.098 43.093Z"/><path fill="#68110F" d="M223.392 195.039a13.402 13.402 0 0 1 4.333 4.445c1.119 1.753 2.295 3.537 4.606 3.931l5.866 7.42c-7.685 3.616-15.046 6.823-22.61 9.562-1.103.41-2.191.913-3.393.378-2.353-3.883-5.542-7.536-3.409-12.637 1.83-1.91 4.648-2.099 6.911-3.989l-6.796-7.688c0-.525.026-1.05.037-1.543 2.509.425 4.789 2.655 7.455-.756 1.348-1.721 4.506 1.176 7 .877Z"/><path fill="#000" d="M213.286 221.274a2.833 2.833 0 0 1-1.197-.263l-.073-.031-.047-.068a64.497 64.497 0 0 0-.983-1.575c-2.133-3.327-4.339-6.77-2.441-11.309l.052-.079c.999-1.05 2.248-1.574 3.565-2.141a13.825 13.825 0 0 0 3.137-1.695l-6.67-7.558v-.105c0-.524.026-1.049.036-1.542v-.305l.298.047c.636.121 1.26.297 1.866.525 1.851.656 3.445 1.223 5.343-1.202.889-1.133 2.358-.566 3.916.032 1.103.425 2.248.871 3.251.75h.089l.079.048a13.614 13.614 0 0 1 4.417 4.529c1.046 1.606 2.191 3.432 4.428 3.815h.099l6.133 7.762-.298.142c-8.82 4.146-15.799 7.095-22.637 9.572l-.277.105a6.02 6.02 0 0 1-2.086.546Zm-.914-.709c.977.399 1.882.058 2.833-.304l.288-.105c6.743-2.44 13.628-5.348 22.291-9.415l-5.594-7.085c-2.405-.457-3.618-2.356-4.705-4.03a13.095 13.095 0 0 0-4.182-4.314c-1.103.099-2.274-.352-3.409-.788-1.432-.556-2.666-1.049-3.314-.199-2.128 2.719-4.062 2.036-5.934 1.37a13.109 13.109 0 0 0-1.474-.462c0 .378 0 .756-.026 1.134l6.895 7.814-.203.173a13.47 13.47 0 0 1-3.498 1.942c-1.254.525-2.441 1.049-3.361 1.989-1.757 4.256.272 7.426 2.42 10.774.345.504.669 1.003.973 1.506Z"/><path fill="#4F3F0E" d="M101.088 273.697c-11.61-1.26-20.67-9.447-24.047-21.57-1.046-3.763-1.088-7.568-1.156-11.414-.146-8.366.748-16.794-.91-25.081-.203-1.023-.37-2.057-.58-3.08-.392-1.863-1.479-2.362-3.392-2.257-15.631.819-30.792-1.779-45.68-6.429-5.929-1.853-11.638-4.592-18.162-4.44 0-2.508 1.197-4.98-1.735-6.214-.868-.362-.947-1.616-.372-2.303 1.637-1.968.91-3.464-.658-4.944-1.7-1.611-1.375-3.149.496-4.225 2.092-1.202 2.489-2.524 1.292-4.676-1.197-2.151 0-3.437 2.159-3.385 5.15.121 9.221-2.624 13.592-4.697 6.435-3.038 13.289-4.907 20.341-7.022-.486-1.821-1.845-2.697-2.839-3.794-4.124-4.545-7.784-9.41-10.246-15.078-.753-1.737-1.647-3.495-1.401-5.515l.622-.342c2.865 1.816 3.027 5.821 6.049 7.505.444 4.319 3.272 7.263 6.048 10.124 4.365 4.497 8.626 9.121 13.566 13.036 1.26.997 3.179 2.466 1.626 4.225-1.218 1.375-2.865-.163-4.182-.877a2.464 2.464 0 0 1-.852-.603c-5.228-7.07-11.559-4.949-18.26-2.682-7.262 2.456-13.698 6.749-21.116 8.958-2.342.698-2.535 5.275-2.98 8.056-.308 1.905.126 4.519.873 6.592 1.046 2.918 2.546 5.248 6.274 6.108 8.275 1.968 16.112 5.595 24.57 7.111 8.642 1.575 17.294 2.955 26.139 2.541 4.548-.216 4.904-.777 2.98-4.892a31.542 31.542 0 0 0-3.409-5.799 45.444 45.444 0 0 1-2.734-4.455c-.685-1.344-2.002-3.086-.277-4.173 1.568-.986 2.865.714 3.816 1.884 7.366 9.064 11.642 19.392 12.055 31.137.23 6.628-.12 13.267.09 19.896.297 9.388 2.864 17.901 10.277 24.288 2.347 2.624 5.458 3.899 8.678 4.975 1.412.472 3.058.488 3.89 2.062a1.741 1.741 0 0 1-.445 1.449Z"/><path fill="#000" d="M101.203 273.949h-.141c-11.752-1.27-20.838-9.405-24.298-21.759-1.046-3.673-1.093-7.442-1.156-11.094v-.383c-.041-2.43 0-4.902.047-7.29.11-5.836.22-11.871-.951-17.744a65.595 65.595 0 0 1-.261-1.401c-.105-.561-.204-1.118-.32-1.674-.334-1.601-1.176-2.157-3.136-2.052-14.486.761-29.458-1.349-45.77-6.444-1.384-.431-2.775-.919-4.124-1.391-4.422-1.548-8.997-3.149-13.953-3.034h-.266v-.257a15.41 15.41 0 0 1 .12-1.789c.204-1.853.36-3.317-1.699-4.199a1.437 1.437 0 0 1-.842-1.049 1.983 1.983 0 0 1 .371-1.68c1.569-1.852.863-3.149-.632-4.587-.878-.797-1.276-1.637-1.192-2.44.084-.803.69-1.574 1.72-2.152 1.986-1.138 2.31-2.309 1.197-4.319-.737-1.328-.523-2.188-.246-2.682.445-.734 1.391-1.123 2.614-1.091 4.125.068 7.57-1.695 10.921-3.401.842-.43 1.71-.871 2.577-1.28 5.62-2.656 11.47-4.393 17.66-6.23l2.467-.735a6.538 6.538 0 0 0-1.929-2.624c-.261-.252-.523-.524-.779-.787-4.862-5.358-8.129-10.176-10.293-15.151l-.21-.483c-.71-1.606-1.442-3.264-1.212-5.169v-.131l.878-.483.13.084c1.444.918 2.228 2.367 2.986 3.773.758 1.407 1.568 2.892 3.053 3.721l.12.068v.137c.44 4.261 3.252 7.163 5.975 9.971l1.84 1.905c3.66 3.81 7.466 7.757 11.7 11.11l.063.053c.9.708 2.128 1.684 2.237 2.876a2.228 2.228 0 0 1-.642 1.674c-1.13 1.275-2.567.378-3.728-.347-.272-.168-.523-.335-.795-.472l-.073-.037a2.517 2.517 0 0 1-.868-.64c-5.107-6.938-11.354-4.828-17.967-2.592a88.348 88.348 0 0 0-9.782 4.229c-3.622 1.743-7.365 3.548-11.344 4.724-1.814.525-2.248 3.799-2.614 6.418-.062.525-.13.987-.198 1.428-.277 1.705.062 4.24.862 6.46 1.046 2.949 2.51 5.091 6.09 5.941 3.582.85 7.257 2.073 10.749 3.238 4.464 1.485 9.075 3.023 13.796 3.868 8.25 1.516 17.063 2.965 26.066 2.54 2.09-.1 3.356-.273 3.711-.866.356-.593-.078-1.785-.951-3.674a30.754 30.754 0 0 0-3.336-5.752l-.12-.178a44.593 44.593 0 0 1-2.614-4.325 7.481 7.481 0 0 0-.292-.524c-.675-1.218-1.569-2.892.115-3.963 1.683-1.07 3.136.667 4.056 1.816l.1.126c7.638 9.394 11.71 19.943 12.112 31.294.115 3.385.084 6.823.053 10.155-.032 3.191-.063 6.497.036 9.735.34 10.748 3.576 18.405 10.19 24.099 2.195 2.446 5.018 3.737 8.588 4.928.309.105.643.189.962.268 1.171.294 2.374.598 3.074 1.916l.026.078a1.982 1.982 0 0 1-.413 1.659l-.115.063Zm-29.798-63.953c1.919 0 2.86.74 3.226 2.482.115.562.214 1.128.319 1.69.083.467.167.929.261 1.391 1.181 5.93 1.046 11.997.962 17.843-.042 2.383-.089 4.849-.047 7.269v.388c.063 3.784.125 7.347 1.134 10.958 3.388 12.071 12.244 20.063 23.703 21.365a1.46 1.46 0 0 0 .224-.52c.039-.187.041-.379.006-.566-.591-1.082-1.626-1.344-2.718-1.617-.33-.084-.67-.168-.999-.278-2.943-.981-6.273-2.267-8.793-5.049-6.613-5.694-10.006-13.702-10.346-24.456-.1-3.253-.068-6.565-.036-9.761.03-3.322.062-6.759-.053-10.134-.397-11.252-4.433-21.674-11.997-30.964l-.1-.12c-1.124-1.391-2.154-2.472-3.372-1.706s-.752 1.779.063 3.264c.11.195.21.378.303.562a43.683 43.683 0 0 0 2.614 4.267l.11.168a30.65 30.65 0 0 1 3.43 5.83c.993 2.099 1.41 3.348.93 4.146-.481.798-1.772 1.003-4.135 1.118-9.06.425-17.905-1.023-26.186-2.545-4.757-.856-9.41-2.399-13.864-3.889-3.482-1.165-7.084-2.367-10.707-3.222-4.035-.961-5.489-3.585-6.461-6.298-.659-1.826-1.239-4.555-.889-6.723.068-.435.136-.913.199-1.412.371-2.771.831-6.213 2.97-6.854 3.936-1.17 7.663-2.97 11.265-4.723a87.686 87.686 0 0 1 9.854-4.193c6.797-2.299 13.221-4.466 18.554 2.781.196.207.433.372.695.483l.068.037c.267.142.523.315.831.493 1.344.84 2.285 1.323 3.058.441a1.672 1.672 0 0 0 .523-1.275c-.084-.966-1.213-1.863-2.039-2.514l-.062-.052c-4.261-3.375-8.072-7.348-11.752-11.153l-1.84-1.905c-2.756-2.839-5.605-5.772-6.101-10.144-1.569-.913-2.358-2.414-3.137-3.868-.732-1.359-1.427-2.624-2.677-3.495l-.366.205c-.162 1.705.523 3.259 1.182 4.76l.214.482c2.107 4.923 5.348 9.694 10.168 14.984.236.262.486.524.758.766.858.829 1.752 1.69 2.138 3.149l.068.246-.245.074-2.719.818c-6.169 1.832-12.024 3.564-17.586 6.198-.857.41-1.725.851-2.561 1.276-3.409 1.742-6.932 3.537-11.136 3.448-1.045-.032-1.84.278-2.174.839-.335.562-.236 1.281.25 2.157 1.25 2.252.832 3.753-1.39 5.028-.883.525-1.385 1.113-1.464 1.753-.078.64.277 1.354 1.035 2.062 1.328 1.255 2.614 2.992.68 5.306a1.43 1.43 0 0 0-.267 1.223.946.946 0 0 0 .523.672c2.42 1.018 2.217 2.902 2.018 4.723-.052.477-.11.971-.12 1.464 4.956-.058 9.483 1.533 13.869 3.07 1.343.467 2.734.955 4.109 1.386 16.248 5.075 31.163 7.174 45.586 6.418l.44-.047Z"/><path fill="#4F3F0E" d="m49.71 44.01 1.218.053c1.49 2.062.235 4.046-.256 6.003-2.415 9.699-4.057 19.466-3.382 29.579 12.546-3.632 18.715-12.35 20.796-24.624.423-2.509.428-5.322 2.917-7.028 1.61.384 1.416 1.428.94 2.577-.982 7.306-3.716 14.102-6.194 21.37 4.13.063 7.784-1.574 11.61-2.099 13.66-1.837 27.075-1.144 40.082 3.58 3.272 1.185 5.651 1.049 8.599-.993 12.652-8.79 26.552-15.082 41.2-19.737a17.069 17.069 0 0 1 2.552-.43c1.087-.526 1.463.062 1.604 1.023-1.124 1.82-3.136 2.099-4.898 2.702a169.561 169.561 0 0 0-41.848 20.956c-2.53 1.742-4.956 3.674-7.387-.131a3 3 0 0 0-1.772-1.05c-22.155-6.235-43.662-6.298-63.47 7.374-8.245 5.694-12.427 13.917-13.253 23.862-.204 2.478-.523 4.902-1.83 7.017a11.714 11.714 0 0 0-1.657 7.935c-4.067 2.141-5.75 5.652-5.88 10.118-.064 1.848.187 3.847-1.391 5.327l-.257.179c-2.018-5.033-1.045-9.914.941-14.658a45.447 45.447 0 0 1 3.414-6.466 25.699 25.699 0 0 0 4.01-12.254 27.353 27.353 0 0 1 5.452-14.51c1.773-2.42 2.259-4.855 2.19-7.773a114.195 114.195 0 0 1 4.967-36.138c.21-.677.36-1.339.983-1.764Z"/><path fill="#000" d="m27.633 137.977-.125-.305c-1.762-4.408-1.464-9.126.946-14.857a45.996 45.996 0 0 1 3.43-6.502 25.417 25.417 0 0 0 3.972-12.134 27.474 27.474 0 0 1 5.505-14.647c1.569-2.147 2.212-4.424 2.138-7.615a114.977 114.977 0 0 1 4.977-36.212l.053-.168a2.836 2.836 0 0 1 1.045-1.731l.073-.048 1.433.058.073.105c1.25 1.727.695 3.374.167 4.97-.136.415-.282.84-.382 1.249-2.88 11.546-3.93 20.567-3.398 29.169 11.465-3.433 18.104-11.394 20.295-24.325.068-.373.12-.75.172-1.128.319-2.241.648-4.556 2.86-6.067l.094-.068h.11a1.851 1.851 0 0 1 1.333.87c.308.61.078 1.365-.194 2.032-.81 6.004-2.776 11.588-4.851 17.497-.415 1.168-.826 2.35-1.234 3.542a28.592 28.592 0 0 0 6.754-1.128 39.6 39.6 0 0 1 4.46-.945c14.883-2.004 28.031-.829 40.201 3.59 3.341 1.212 5.604.95 8.365-.966 11.887-8.255 25.385-14.694 41.273-19.77a9.822 9.822 0 0 1 1.777-.33c.261-.031.523-.063.774-.105a1.359 1.359 0 0 1 1.249-.089 1.71 1.71 0 0 1 .69 1.333v.094l-.052.08c-.978 1.574-2.556 2.062-4.088 2.518-.319.095-.633.19-.946.294a170.404 170.404 0 0 0-41.775 20.94l-.33.23c-1.526 1.05-3.1 2.147-4.678 1.827-1.004-.204-1.903-.945-2.745-2.262a2.86 2.86 0 0 0-1.621-.934c-25.49-7.174-45.59-4.844-63.256 7.347-7.883 5.437-12.306 13.393-13.142 23.617-.183 2.262-.491 4.865-1.866 7.132a11.46 11.46 0 0 0-1.616 7.762v.183l-.162.09c-3.701 1.941-5.578 5.179-5.75 9.892v.819c0 1.648-.032 3.353-1.459 4.686l-.549.41Zm22.155-93.7a2.505 2.505 0 0 0-.784 1.381l-.047.168a114.387 114.387 0 0 0-4.956 36.054c.074 3.317-.596 5.694-2.242 7.94a26.959 26.959 0 0 0-5.4 14.37 25.977 25.977 0 0 1-4.052 12.38 44.928 44.928 0 0 0-3.393 6.429c-2.295 5.458-2.614 9.971-1.046 14.169 1.224-1.159 1.234-2.671 1.25-4.271v-.835c.167-4.854 2.09-8.208 5.86-10.26a11.97 11.97 0 0 1 1.736-7.919c1.181-1.947 1.568-4.167 1.793-6.901.847-10.418 5.343-18.51 13.367-24.063 17.8-12.27 38.037-14.626 63.69-7.405a3.248 3.248 0 0 1 1.924 1.155c.758 1.191 1.568 1.852 2.405 2.03 1.359.274 2.776-.708 4.276-1.742l.334-.23a170.533 170.533 0 0 1 41.911-20.993c.319-.11.643-.204.968-.304 1.469-.44 2.864-.86 3.737-2.21-.078-.461-.214-.75-.402-.85a.932.932 0 0 0-.81.121h-.074c-.275.042-.552.079-.831.11a9.463 9.463 0 0 0-1.683.31c-15.835 5.033-29.276 11.477-41.132 19.706-2.881 2-5.359 2.283-8.835 1.024-12.087-4.393-25.156-5.558-39.956-3.564-1.483.23-2.953.542-4.402.934-2.305.583-4.705 1.187-7.25 1.145h-.361l.12-.342c.444-1.312.9-2.624 1.354-3.894 2.091-5.893 4.025-11.467 4.825-17.428v-.063c.23-.567.44-1.197.225-1.622a1.293 1.293 0 0 0-.852-.525c-1.934 1.386-2.243 3.548-2.54 5.642-.053.383-.11.766-.173 1.144-2.248 13.267-9.112 21.391-20.98 24.834l-.313.089v-.326c-.585-8.759.46-17.9 3.393-29.656.104-.43.25-.866.392-1.291.523-1.501.972-2.918 0-4.393l-1.046-.047Z"/><path fill="#4F4010" d="M208.785 208.138c-.298 2.314.811 4.23 1.626 6.272.743 1.863 1.6 3.741 1.652 5.82l-.638.362c-4.13-2.787-3.659-8.371-7.156-11.546-.738 1.092-.34 3.779-3.137 2.823-1.903-2.923 2.091-6.497-1.307-9.31-.35 3.149 1.919 6.534-.376 9.578-2.719-.142-2.965-2.592-2.923-4.167.382-14.91-10.309-23.553-18.532-33.587-1.532-1.207-1.898-3.28-3.278-4.603-1.093.64-.674 3.642-3.137 1.916-.632-6.881-4.396-12.27-7.967-17.886-6.21-9.772-11.135-20.142-13.069-31.761a155.484 155.484 0 0 0-4.747-20.945 10.835 10.835 0 0 0-2.927-4.865c-2.782-2.855-2.311-4.382 1.908-5.117a146.863 146.863 0 0 0 17.774-4.015c7.392-2.004 14.345-5.174 21.434-8.05 1.871-.761 3.748-2.1 5.824-.446l.271.057-.031.284c-1.192 1.658-3.137 2.062-4.836 2.84a159.335 159.335 0 0 1-38.241 12.07c-.475 1.427.387 2.582.858 3.815 2.671 7.048 4.286 14.385 5.405 21.795 1.652 10.9 5.751 20.772 11.324 30.155 5.264 8.885 11.621 16.978 18.03 25.028 8.249 10.365 16.865 20.468 23.776 31.835.57.934 1.234 1.632 2.42 1.648Z"/><path fill="#000" d="m211.415 220.901-.131-.089c-2.29-1.543-3.204-3.92-4.088-6.219-.706-1.831-1.432-3.721-2.859-5.132a6.474 6.474 0 0 0-.257.792c-.198.719-.428 1.533-1.108 1.889a2.412 2.412 0 0 1-1.913-.031l-.089-.032-.047-.073a3.542 3.542 0 0 1-.486-1.144 5.264 5.264 0 0 1-.769 1.422l-.083.11h-.142c-2.174-.11-3.241-1.6-3.168-4.434.309-12.071-6.864-20.179-13.801-28.009a179.33 179.33 0 0 1-4.653-5.39 7.696 7.696 0 0 1-1.835-2.498 9.391 9.391 0 0 0-1.28-1.942c-.228.28-.405.598-.523.94-.235.587-.481 1.196-1.046 1.369-.454.137-.998-.031-1.709-.524l-.099-.074v-.121c-.581-6.297-3.749-11.23-7.1-16.473l-.826-1.291c-7.209-11.341-11.381-21.465-13.121-31.861-.973-5.81-2.395-13.435-4.742-20.908a10.497 10.497 0 0 0-2.865-4.766c-1.485-1.522-2.039-2.655-1.746-3.568.293-.914 1.516-1.575 3.801-1.984 6-.971 11.936-2.309 17.774-4.004 5.881-1.601 11.574-3.973 17.084-6.267 1.433-.598 2.865-1.196 4.303-1.779.287-.115.575-.246.862-.378 1.569-.703 3.31-1.5 5.176-.073l.439.105v.226l-.037.32-.041.089c-.957 1.328-2.369 1.884-3.733 2.42-.403.157-.821.325-1.208.524a159.814 159.814 0 0 1-38.162 12.07c-.251.945.125 1.77.523 2.625.13.283.261.567.365.855 2.405 6.345 4.13 13.288 5.427 21.848 1.5 9.934 5.196 19.769 11.287 30.061 5.081 8.58 11.161 16.4 18.009 25.001a1557.91 1557.91 0 0 0 4.344 5.411c6.755 8.397 13.739 17.046 19.448 26.45.559.919 1.15 1.533 2.211 1.575h.298l-.042.294c-.23 1.826.439 3.385 1.15 5.038.157.367.314.735.46 1.102l.241.598c.679 1.68 1.38 3.411 1.432 5.316v.158l-.925.456Zm-7.193-12.264.224.204c1.678 1.517 2.468 3.574 3.236 5.563.879 2.278 1.71 4.43 3.759 5.878l.356-.199c-.084-1.753-.743-3.39-1.386-4.975l-.246-.599a40.182 40.182 0 0 0-.454-1.097c-.675-1.574-1.37-3.18-1.213-5.032-1.203-.126-1.872-.966-2.368-1.779-5.693-9.374-12.667-18.028-19.411-26.393a2059.76 2059.76 0 0 1-4.344-5.416c-6.859-8.617-12.955-16.447-18.052-25.059-6.127-10.35-9.844-20.247-11.354-30.25-1.292-8.523-3.006-15.43-5.395-21.738-.105-.278-.23-.55-.356-.824-.444-.97-.904-1.973-.523-3.149l.053-.146.151-.027a159.672 159.672 0 0 0 38.163-12.07c.402-.184.826-.352 1.239-.525 1.322-.525 2.572-1.013 3.44-2.162l-.136-.058c-1.631-1.28-3.111-.609-4.705.1-.293.136-.586.267-.879.388-1.437.583-2.87 1.18-4.297 1.774-5.525 2.304-11.239 4.681-17.147 6.298a150.084 150.084 0 0 1-17.811 4.02c-2.044.351-3.136.887-3.387 1.621-.251.735.303 1.695 1.62 3.05a10.987 10.987 0 0 1 2.991 4.98c2.352 7.494 3.779 15.14 4.757 20.992 1.73 10.323 5.876 20.384 13.043 31.662l.826 1.291c3.22 5.027 6.545 10.228 7.167 16.589a1.553 1.553 0 0 0 1.161.388c.34-.1.523-.567.727-1.05.14-.522.447-.985.873-1.317l.167-.099.146.136a8.848 8.848 0 0 1 1.532 2.23c.406.897.994 1.7 1.725 2.357l.042.042c1.495 1.826 3.105 3.642 4.658 5.395 7.005 7.903 14.246 16.08 13.932 28.371-.068 2.461.763 3.736 2.535 3.889 1.292-1.811.931-3.716.56-5.737a12.279 12.279 0 0 1-.319-3.6l.057-.477.371.304c2.029 1.669 1.6 3.579 1.187 5.427-.308 1.38-.601 2.687.126 3.873a1.85 1.85 0 0 0 1.411.036c.481-.257.669-.923.852-1.574.094-.43.255-.843.476-1.223l.22-.283Zm-4.136-5.537c.018.98.133 1.956.345 2.913.1.525.204 1.097.272 1.648.34-1.633.685-3.175-.617-4.561Z"/><path fill="#48400E" d="m212.063 220.229 3.518.174c-1.814 1.254-1.902 2.456-.256 4.098 3.017 3.008 5.845 6.204 8.846 9.447-.717 1.307-2.227 1.322-3.785 1.207-1.229-1.784-1.772-4.062-3.764-5.369-.936 3.453 2.31 3.763 3.785 5.369-3.921 1.05-4.92 3.831-5.348 7.631a50.396 50.396 0 0 1-4.998 16.856 15.908 15.908 0 0 0-1.537 8.093c.376 7.83.523 15.697 2.258 23.364.753 3.354-1.625 5.416-2.305 8.145-.194.798-1.14.525-1.778.205-7.428-3.621-7.972-4.199-11.124-12.296-.941-2.43-1.751-4.912-2.541-7.395-1.762-5.547-.664-4.765-6.137-4.723a46.313 46.313 0 0 1-19.144-4.094 2.67 2.67 0 0 1 1.275-1.049c4.982-.877 9.541 1.422 14.335 2.015 10.393 1.291 19.907-3.952 23.974-13.519 4.611-10.837 7.089-21.869 3.634-33.587-.267-1.433-.34-2.845.569-4.115.185-.14.36-.292.523-.457Z"/><path fill="#000" d="M207.792 300a2.995 2.995 0 0 1-1.208-.341c-7.548-3.674-8.076-4.262-11.25-12.438-.988-2.535-1.835-5.154-2.551-7.41a77.62 77.62 0 0 1-.585-1.947c-.795-2.714-.795-2.714-3.513-2.624-.523 0-1.093.026-1.788.026a47.183 47.183 0 0 1-19.223-4.136l-.282-.12.167-.263a2.96 2.96 0 0 1 1.401-1.159h.053c3.293-.578 6.435.215 9.472.986 1.623.448 3.271.799 4.935 1.05 10.393 1.275 19.678-3.973 23.677-13.419 5.505-12.942 6.623-23.244 3.623-33.389-.272-1.453-.382-2.965.606-4.35l.068-.063c.173-.118.337-.247.491-.389l.084-.073 4.402.215-.638.441c-.836.577-1.265 1.123-1.317 1.679-.053.557.308 1.239 1.092 2.021 2.128 2.099 4.12 4.287 6.226 6.586.868.94 1.741 1.889 2.614 2.839l.131.142-.094.163c-.784 1.438-2.389 1.464-3.973 1.343-3.66 1.003-4.674 3.574-5.102 7.4a50.754 50.754 0 0 1-5.024 16.946 15.464 15.464 0 0 0-1.511 7.961c.047.961.089 1.921.131 2.881.303 6.755.616 13.735 2.122 20.436.523 2.273-.355 3.973-1.197 5.616-.466.83-.838 1.71-1.108 2.624a.895.895 0 0 1-.481.624 1.124 1.124 0 0 1-.45.142Zm-18.161-25.322c2.128 0 2.305.373 3.084 3.039.157.525.345 1.175.586 1.936.711 2.246 1.568 4.86 2.535 7.379 3.105 7.993 3.618 8.56 10.978 12.155.358.235.793.321 1.213.241a.36.36 0 0 0 .199-.273 13.13 13.13 0 0 1 1.15-2.76c.831-1.633 1.621-3.149 1.15-5.248-1.511-6.749-1.83-13.75-2.133-20.526-.042-.96-.083-1.92-.13-2.886a16.065 16.065 0 0 1 1.568-8.218 50.253 50.253 0 0 0 4.977-16.794c.423-3.8 1.469-6.581 5.097-7.731a9.4 9.4 0 0 0-1.239-.845c-1.406-.86-3.006-1.842-2.29-4.466l.094-.351.298.199c1.406.924 2.091 2.299 2.802 3.627.289.584.61 1.152.962 1.7 1.37.094 2.645.073 3.309-.919-.841-.902-1.667-1.805-2.488-2.702-2.091-2.288-4.093-4.456-6.216-6.566-.915-.913-1.307-1.689-1.239-2.44a2.487 2.487 0 0 1 .962-1.622l-2.703-.131a6.3 6.3 0 0 1-.428.336c-.853 1.212-.743 2.582-.523 3.878 3.032 10.25 1.908 20.657-3.66 33.719-4.093 9.63-13.592 15.004-24.246 13.682a40.639 40.639 0 0 1-5.003-1.05c-2.975-.75-6.048-1.527-9.227-.976a2.345 2.345 0 0 0-.946.698 46.436 46.436 0 0 0 18.741 3.936c.69 0 1.276 0 1.778-.026l.988.005Zm27.184-44.477c-.376 1.963.8 2.682 2.149 3.506.162.099.324.199.481.304l-.314-.604c-.659-1.217-1.27-2.372-2.347-3.206h.031Z"/><path fill="#4A3E0E" d="m169.363 270.606-1.61.283c-5.991-1.123-11.606-3.479-17.299-5.526a19.217 19.217 0 0 0-14.151.115 121.216 121.216 0 0 1-12.887 4.068c-2.159.577-3.137 1.663-3.623 3.804a116.917 116.917 0 0 0-2.148 13.388c-.492 4.199-1.882 5.773-4.846 6.203-2.677.368-6.483-1.989-7.471-4.922-.946-2.792-1.49-5.715-2.347-8.539-.591-1.942-.178-4.198-1.893-5.773 0-.325.032-.645.037-.965 3.733-2.672 8.323-2.157 12.458-3.333 7.533-2.136 14.862-4.954 22.385-6.623.842.084.235-.913.376-.231.032.147-.13.168-.491.152-1.73-.084-3.524 0-4.428-2.046 1.84-2.309 4.417-2.1 6.718-1.575a166.992 166.992 0 0 1 28.846 9.032c1.124.446 2.222 1.045 2.374 2.488Z"/><path fill="#000" d="M112.208 293.246c-2.813 0-6.2-2.378-7.131-5.143-.523-1.575-.936-3.202-1.333-4.781-.314-1.239-.638-2.525-1.014-3.768a12.088 12.088 0 0 1-.371-1.979c-.178-1.38-.351-2.687-1.443-3.674l-.094-.084v-.125c0-.321.031-.641.036-.956v-.131l.105-.079c2.488-1.779 5.374-2.177 8.16-2.561a31.592 31.592 0 0 0 4.381-.808c2.86-.808 5.751-1.737 8.522-2.624 4.03-1.296 8.186-2.624 12.353-3.642-1.292-.131-2.494-.525-3.205-2.099l-.068-.147.105-.121c1.918-2.409 4.605-2.204 6.979-1.684a168.09 168.09 0 0 1 28.888 9.047c1.135.478 2.363 1.118 2.536 2.729v.247l-1.898.33h-.047c-4.836-.907-9.488-2.624-13.989-4.308-1.119-.415-2.233-.829-3.346-1.233a18.927 18.927 0 0 0-13.974.115 124.758 124.758 0 0 1-12.912 4.078c-2.018.525-2.949 1.511-3.44 3.605a118.923 118.923 0 0 0-2.144 13.362c-.481 4.198-1.903 5.998-5.065 6.434a4.856 4.856 0 0 1-.591 0Zm-10.853-19.659c1.155 1.117 1.344 2.54 1.521 3.92.067.64.186 1.274.356 1.894.381 1.255.706 2.546 1.045 3.795.392 1.574.8 3.191 1.323 4.723.915 2.713 4.543 5.112 7.188 4.749 2.949-.404 4.156-1.968 4.621-5.977a119.482 119.482 0 0 1 2.154-13.419c.523-2.288 1.605-3.406 3.811-3.994a124.474 124.474 0 0 0 12.861-4.057 19.38 19.38 0 0 1 14.334-.121 371 371 0 0 1 3.351 1.234c4.47 1.658 9.086 3.374 13.859 4.277l1.312-.231c-.235-1.155-1.202-1.653-2.175-2.062a167.226 167.226 0 0 0-28.799-9.017c-2.285-.498-4.632-.677-6.363 1.37.805 1.606 2.259 1.669 3.801 1.732h.533a.361.361 0 0 1 .147-.362l.167-.095.162.137a.56.56 0 0 1 .105.598.603.603 0 0 1-.659.32c-4.632 1.05-9.29 2.53-13.791 3.978-2.786.898-5.667 1.821-8.537 2.624-1.462.376-2.949.65-4.449.819-2.687.373-5.463.75-7.841 2.393-.016.294-.027.53-.037.772Z"/><path fill="#55470F" d="m171.14 53.19-1.348-.909a111.41 111.41 0 0 1 27.592-5.998c.004.341-.026.682-.089 1.018.115 1.364-.873 1.884-1.877 2.1-7.319 1.358-14.57 3.148-21.889 4.533a2.531 2.531 0 0 1-2.389-.745Z"/><path fill="#000" d="M172.96 54.223a2.705 2.705 0 0 1-1.992-.835l-1.725-1.18.486-.174a112.016 112.016 0 0 1 27.655-6.009h.282v.279c.007.351-.021.703-.084 1.05.084 1.243-.638 2.04-2.091 2.313-3.769.662-7.585 1.486-11.26 2.289-3.487.76-7.089 1.543-10.655 2.214-.203.038-.41.056-.616.053Zm-2.588-1.868.962.65a2.289 2.289 0 0 0 2.148.646c3.56-.672 7.162-1.454 10.644-2.21 3.659-.803 7.481-1.627 11.25-2.33 1.203-.22 1.746-.803 1.668-1.784v-.095c.042-.225.068-.453.078-.682-9.119.83-18.103 2.78-26.75 5.805Z"/><path fill="#605B0F" d="M71.944 50.57c-.168-.824-.22-1.7-.936-2.298-.884-5.595-1.38-11.116 2.844-15.781.313-.064.632-.089.951-.074a66.359 66.359 0 0 1-2.86 18.153Z"/><path fill="#000" d="m71.891 51.646-.204-1.05c0-.126-.047-.246-.073-.372a2.728 2.728 0 0 0-.773-1.78l-.079-.062v-.1c-.91-5.73-1.37-11.273 2.907-15.99l.057-.064h.084a4.11 4.11 0 0 1 1.014-.078h.251v.257a66.81 66.81 0 0 1-2.87 18.22l-.314 1.019Zm-.643-3.511c.384.358.648.825.758 1.338a65.97 65.97 0 0 0 2.546-16.794 3.904 3.904 0 0 0-.549.058c-4.051 4.524-3.623 9.85-2.755 15.398Z"/><path fill="#FED523" d="M203.599 114.581c6.943-10.737 15.438-20.184 24.194-29.42 16.421-17.372 34.608-32.832 52.628-48.466a14.844 14.844 0 0 1 1.84-1.05c5.751 18.987 10.388 37.964 11.381 57.697.643 5.904.277 6.644-5.52 7.61a5669.345 5669.345 0 0 0-30.844 5.248c-15.422 2.708-30.729 5.972-45.957 9.635-2.557.609-5.751 2.651-7.722-1.254Z"/><path fill="#000" d="M206.909 117.168c-1.313 0-2.583-.562-3.545-2.467l-.068-.136.084-.126c7.235-11.215 16.284-21.087 24.199-29.463 15.061-15.933 31.889-30.49 48.137-44.571l4.507-3.91c.307-.24.64-.447.993-.614.246-.132.523-.284.889-.488l.287-.163.094.315c4.705 15.566 10.304 36.212 11.391 57.76.664 6.103.079 6.912-5.75 7.872a4200.29 4200.29 0 0 0-30.844 5.248c-14.747 2.593-29.798 5.742-45.941 9.636a16.45 16.45 0 0 0-1.391.419 10.2 10.2 0 0 1-3.042.688Zm-3.012-2.572c1.516 2.85 3.738 2.1 5.892 1.417.497-.168.967-.32 1.432-.43 16.175-3.894 31.215-7.048 45.973-9.641a3084.864 3084.864 0 0 1 30.844-5.248c5.547-.929 5.939-1.474 5.301-7.347-1.077-21.37-6.571-41.832-11.271-57.335-.235.131-.444.236-.622.33a4.917 4.917 0 0 0-.899.525l-4.507 3.905c-16.247 14.075-33.055 28.628-48.095 44.54-7.857 8.35-16.844 18.158-24.048 29.284Z"/><path fill="#E19A26" d="M203.599 114.581c1.569 1.354 3.242.855 4.93.394 12.709-3.48 25.616-6.104 38.534-8.612 13.242-2.577 26.609-4.514 39.919-6.728.345-.058.695-.063 1.046-.126 5.123-.95 5.123-.95 5.599-6.193 1.401 6.602 1.249 6.933-3.968 10.213-16.238 10.197-32.412 20.467-48.728 30.549-3.257 2.004-4.632 4.198-4.046 8.024 1.045 6.723 1.756 13.487 2.613 20.236.199 1.575.288 3.149.612 4.666.617 2.944-.523 4.87-2.86 6.66-4.705 3.61-9.195 7.489-13.749 11.288-4.119 3.448-4.082 3.453-1.123 7.736.424.747.774 1.535 1.045 2.351-2.274 2.724-4.255.876-6.336-.845-.951 1.937-1.385 3.831-3.137 4.96-2.174-.725-3.032-3.149-4.966-4.236-3.382-3.736-6.681-7.557-10.189-11.168-1.851-1.905-1.594-3.054.45-4.508 6.09-4.335 12.118-8.764 18.13-13.214 3.837-2.834 3.889-2.913 1.902-7.227-5.598-12.175-11.595-24.172-16.315-36.736-.994-2.535-2.484-5.259.637-7.484Z"/><path fill="#000" d="m213.945 199.426-.12-.042c-1.276-.425-2.091-1.396-2.928-2.335a8.297 8.297 0 0 0-2.091-1.921l-.062-.053c-.994-1.091-1.971-2.188-2.954-3.29-2.337-2.624-4.752-5.317-7.23-7.872-.967-.992-1.386-1.811-1.318-2.577.068-.766.628-1.491 1.804-2.33 6.362-4.524 12.693-9.19 18.13-13.21 3.727-2.755 3.727-2.755 1.819-6.906-1.333-2.902-2.718-5.846-4.051-8.691-4.266-9.084-8.678-18.483-12.275-28.061a21.886 21.886 0 0 0-.282-.73c-.905-2.309-1.935-4.928 1.045-7.058l.167-.121.152.136c1.412 1.234 2.954.809 4.59.363l.105-.032c13.069-3.569 26.196-6.214 38.554-8.612 9.243-1.8 18.7-3.312 27.843-4.776 3.963-.63 8.056-1.286 12.082-1.957.167 0 .339-.042.522-.058s.351-.032.523-.063c4.93-.913 4.93-.913 5.385-5.957l.157-1.726.36 1.695c1.412 6.66 1.218 7.153-4.088 10.496a6722.042 6722.042 0 0 0-14.177 8.922c-11.303 7.127-23.003 14.495-34.551 21.622-3.361 2.068-4.464 4.245-3.926 7.756.727 4.75 1.312 9.599 1.882 14.291.241 1.984.485 3.969.732 5.956.063.489.115.982.167 1.475.095 1.057.243 2.108.445 3.149.59 2.808-.293 4.881-2.954 6.922-3.712 2.85-7.361 5.92-10.884 8.885l-2.86 2.399c-3.915 3.274-3.915 3.274-1.118 7.321l.041.063c.324.512.58 1.064.764 1.642.089.252.183.525.287.756l.063.147-.105.121c-2.342 2.812-4.428 1.081-6.44-.599-.162.347-.314.693-.46 1.05-.628 1.454-1.224 2.829-2.64 3.736l-.105.074Zm-4.836-4.723a8.874 8.874 0 0 1 2.18 2.015c.774.892 1.511 1.742 2.583 2.136 1.208-.819 1.736-2.031 2.337-3.432.193-.441.387-.892.617-1.349l.146-.299.523.425c1.95 1.622 3.659 3.028 5.609.787-.083-.205-.162-.42-.235-.63a6.564 6.564 0 0 0-.701-1.522l-.041-.063c-3.017-4.361-2.991-4.508 1.212-8.024.957-.798 1.903-1.574 2.855-2.398 3.534-2.971 7.183-6.041 10.905-8.922 2.478-1.905 3.304-3.815 2.76-6.403a30.8 30.8 0 0 1-.449-3.217c-.053-.493-.105-.981-.168-1.469a834.804 834.804 0 0 1-.732-5.957c-.569-4.686-1.155-9.53-1.882-14.274-.564-3.711.643-6.109 4.183-8.287 11.563-7.122 23.242-14.49 34.539-21.617l14.183-8.921c4.674-2.934 5.17-3.364 4.182-8.25-.418 3.673-1.045 3.862-5.646 4.723-.188.037-.376.052-.569.073-.194.021-.314 0-.471.053-4.025.672-8.124 1.322-12.081 1.957-9.144 1.465-18.595 2.976-27.828 4.771-12.347 2.398-25.49 5.038-38.518 8.607l-.104.026c-1.636.451-3.33.913-4.904-.336-2.457 1.868-1.61 4.03-.711 6.298.1.246.194.493.288.734 3.586 9.562 7.993 18.951 12.254 28.03 1.338 2.845 2.718 5.773 4.056 8.691 2.029 4.414 1.971 4.624-1.986 7.552-5.437 4.02-11.773 8.686-18.135 13.215-1.046.74-1.532 1.338-1.569 1.947-.036.608.319 1.285 1.166 2.162 2.489 2.556 4.909 5.248 7.246 7.872a82.374 82.374 0 0 0 2.906 3.296Z"/><path fill="#FED523" d="M171.14 53.19c8.213-2.006 16.4-4.136 24.822-5.16.465-.058.888-.477 1.333-.73 1.62.809 1.26 2.326 1.286 3.674.12 6.246-1.569 12.071-4.046 17.723-1.48 3.343-3.137 6.597-4.737 9.893-3.319.304-6.022 2.267-9.039 3.395-5.907 2.215-11.642 4.933-17.889 6.161-9.588 1.937-19.222 3.595-29.39 3.674 3.46 5.033 9.446 5.437 13.409 8.922 2.457 6.019 3.539 12.39 4.522 18.751 2.091 13.577 7.69 25.684 15.511 36.736 3.434 4.855 5.923 9.762 5.588 15.823 1.506 2.409 3.095 4.409 5.818 1.291 1.642-.367 1.987 1.15 2.672 1.984 3.319 4.041 6.242 8.444 9.854 12.181 4.548 4.723 6.273 10.171 6.446 16.5.078 3.112.486 6.25 2.379 8.922a.864.864 0 0 1 1.448.031c1.683-1.506 1.997-3.789 3.089-6.187 3.66 4.376 4.961 9.404 7.319 13.86l.596 3.815c.946 7.583-2.671 13.456-7.078 19.024-10.252 12.963-24.095 16.479-39.695 14.863-8.479-.877-16.974-1.575-25.433-2.656-6.21-.792-12.112.672-17.821 3.049-7.878 3.275-15.605 6.938-24.048 8.639-3.346.677-6.545.829-9.671-.735-8.02-6.098-10.722-14.695-11.052-24.267-.235-6.796.084-13.614-.12-20.41-.37-12.317-5.034-23.002-12.76-32.438a24.182 24.182 0 0 0-1.972-1.774c.879 3.721 3.493 5.563 4.428 8.297.246 2.535-1.495 3.784-3.32 4.802-7.553 4.23-15.468 6.781-24.256 4.855-7.125-.903-13.801-3.443-20.56-5.684-1.81-.598-3.624-1.359-5.49-1.574-2.41-.284-5.081.22-3.66-3.789.283-.814-.899-1.328-1.698-1.711-.8-.383-1.788-1.039-.941-1.911 2.75-2.771.277-4.24-1.276-5.993a8.708 8.708 0 0 1-.695-1.175c3.35-1.764 5.468-4.157 1.845-8.796 6.315.992 10.513-1.979 14.988-4.199 5.95-2.933 12.332-4.723 18.61-6.749 2.75-.897 4.972-.336 7.027 1.905a23.193 23.193 0 0 0 8.02 5.82c-.597-1.926-2.254-2.954-3.66-4.161-6.535-5.516-12.615-11.488-17.628-18.521-1.825-2.555-.758-3.579 1.354-4.628 0-1.097.56-2.021.957-2.992.414-.989.741-2.013.977-3.059.088-.44.2-.874.335-1.302-.032-4.088 1.338-8.323-1.38-12.07-.737-.961-1.658-1.848-1.323-3.244-.382-1.537-2.2-.792-2.98-1.968.878-1.616 1.746-3.317 2.708-4.964a19.744 19.744 0 0 0 2.614-8.859c.67-9.546 5.144-17.245 12.547-23.239 7.402-5.993 15.887-9.278 25.056-10.979a82.196 82.196 0 0 1 41.164 2.803c1.699.556 3.821.782 2.844 4.54a167.223 167.223 0 0 1 52.052-26.01Z"/><path fill="#000" d="M93.811 268.134c-1.92.026-3.82-.406-5.541-1.26-7.267-5.515-10.811-13.288-11.198-24.487-.12-3.501-.094-7.059-.073-10.496 0-3.254.052-6.613-.047-9.914-.356-11.708-4.507-22.267-12.704-32.275a7.337 7.337 0 0 0-.956-.893l-.32-.272a15.155 15.155 0 0 0 2.285 4.114 13.373 13.373 0 0 1 1.898 3.322v.058c.267 2.739-1.636 4.046-3.445 5.059-8.966 5.017-16.729 6.565-24.445 4.881-6.007-.772-11.815-2.735-17.445-4.64l-3.137-1.049-1.223-.42a20.302 20.302 0 0 0-4.219-1.155 23.869 23.869 0 0 0-1.045-.084c-1.245-.089-2.426-.173-2.97-1.007-.423-.646-.387-1.611.115-3.044.173-.499-.575-.908-1.427-1.323l-.141-.063c-.868-.425-1.307-.845-1.39-1.333a1.135 1.135 0 0 1 .397-1.002c2.133-2.157.91-3.385-.523-4.812-.272-.273-.523-.525-.784-.819a3.538 3.538 0 0 1-.382-.693 9.114 9.114 0 0 0-.293-.525l-.136-.236.24-.126c2.123-1.118 3.242-2.257 3.524-3.574.283-1.317-.287-2.933-1.761-4.828l-.413-.525.658.105c5.27.824 9.097-1.181 12.793-3.117.68-.352 1.354-.709 2.038-1.05 4.862-2.398 10.09-4.051 15.161-5.647a98.137 98.137 0 0 0 3.503-1.118c2.89-.934 5.227-.309 7.318 1.979a22.969 22.969 0 0 0 7.356 5.5c-.554-1.186-1.568-1.989-2.614-2.839-.261-.205-.523-.41-.763-.625-7.648-6.502-13.263-12.411-17.665-18.583-.826-1.155-1.119-2.063-.925-2.845.225-.902 1.045-1.501 2.237-2.099a6.66 6.66 0 0 1 .711-2.319c.09-.2.178-.405.262-.604.408-.975.728-1.985.956-3.018.09-.472.225-.929.33-1.285 0-1.05.078-2.1.162-3.123.245-3.107.475-6.046-1.49-8.775l-.282-.357c-.68-.85-1.386-1.726-1.103-3.033-.173-.604-.612-.745-1.302-.913a2.451 2.451 0 0 1-1.626-.913l-.084-.132.073-.141c.272-.494.523-.997.81-1.506.607-1.139 1.235-2.32 1.904-3.464a19.472 19.472 0 0 0 2.614-8.749c.653-9.273 4.898-17.156 12.625-23.422 6.848-5.547 15.082-9.158 25.176-11.02a82.747 82.747 0 0 1 41.3 2.807l.476.152c1.448.436 3.23.976 2.692 4.02a166.905 166.905 0 0 1 51.566-25.62l2.51-.615c7.256-1.784 14.763-3.626 22.343-4.55.294-.075.567-.215.8-.41.146-.099.293-.199.439-.283l.12-.068.126.063c1.5.745 1.464 2.1 1.432 3.244v.655c.11 5.647-1.186 11.31-4.072 17.844a231.214 231.214 0 0 1-3.257 6.854c-.523 1.013-.993 2.026-1.48 3.038l-.062.137h-.152c-2.159.194-4.104 1.139-5.991 2.052-.962.462-1.955.945-2.975 1.328-1.489.556-3 1.16-4.454 1.742-4.318 1.721-8.787 3.506-13.477 4.43-10.455 2.099-19.426 3.552-28.935 3.673 1.991 2.624 4.762 3.92 7.449 5.164 1.955.908 3.979 1.847 5.625 3.296l.047.037v.057c2.421 5.946 3.524 12.291 4.533 18.809 1.965 12.711 7.021 24.698 15.469 36.642 2.974 4.199 5.97 9.394 5.64 15.902.826 1.322 1.731 2.624 2.839 2.692.763.063 1.568-.43 2.52-1.501l.052-.063h.084c1.437-.325 2.028.646 2.504 1.428.127.225.27.441.429.645 1.197 1.454 2.357 2.976 3.481 4.451a85.141 85.141 0 0 0 6.336 7.704c4.282 4.429 6.357 9.724 6.519 16.673.068 2.729.382 5.862 2.165 8.544.197-.155.44-.239.69-.242.267.013.521.121.716.305.988-.982 1.453-2.267 1.986-3.747.257-.704.523-1.438.858-2.189l.178-.378.261.32c2.457 2.955 3.868 6.204 5.228 9.347.69 1.575 1.338 3.091 2.117 4.556v.083l.601 3.816c.967 7.756-2.859 13.823-7.136 19.229-9.41 11.876-22.453 16.793-39.924 14.962-2.708-.278-5.416-.525-8.124-.803-5.683-.551-11.553-1.118-17.32-1.853-5.431-.698-11.051.268-17.685 3.029-1.297.524-2.588 1.091-3.879 1.637-6.456 2.75-13.137 5.589-20.221 7.022a22.03 22.03 0 0 1-4.26.467Zm-31.774-81.125.622.551c.387.352.706.62.973.84.375.291.725.614 1.045.966 8.155 9.971 12.468 20.924 12.819 32.59.099 3.312.073 6.676.047 9.93 0 3.437-.047 6.995.073 10.496.376 11.021 3.858 18.678 10.952 24.067 3.252 1.627 6.608 1.265 9.457.688 7.036-1.417 13.686-4.246 20.122-6.985 1.293-.55 2.586-1.095 3.879-1.638 6.728-2.802 12.431-3.773 17.957-3.07 5.75.74 11.626 1.307 17.304 1.858 2.708.257 5.416.525 8.124.803 17.283 1.789 30.19-3.044 39.464-14.768 4.862-6.146 7.915-11.698 7.021-18.83l-.586-3.763c-.779-1.475-1.458-3.039-2.117-4.555-1.302-2.992-2.64-6.083-4.888-8.891a30.13 30.13 0 0 0-.674 1.759c-.565 1.574-1.098 3.043-2.311 4.13l-.193.173-.178-.194a.758.758 0 0 0-.523-.32.798.798 0 0 0-.523.294l-.219.225-.183-.257c-2.013-2.85-2.353-6.187-2.426-9.074-.162-6.822-2.185-11.997-6.372-16.327a85.523 85.523 0 0 1-6.399-7.751c-1.119-1.469-2.28-2.991-3.466-4.44a6.154 6.154 0 0 1-.471-.703c-.46-.745-.852-1.401-1.861-1.207-1.045 1.16-1.976 1.69-2.896 1.611-1.37-.11-2.373-1.548-3.283-3.007l-.047-.068v-.084c.355-6.392-2.614-11.499-5.541-15.655-8.49-12.013-13.593-24.073-15.558-36.863-.999-6.47-2.091-12.758-4.475-18.635-1.569-1.376-3.466-2.247-5.458-3.15-2.886-1.332-5.866-2.718-7.951-5.772l-.283-.404h.523c9.656-.074 18.715-1.522 29.343-3.674 4.643-.913 9.086-2.687 13.383-4.403 1.459-.583 2.97-1.186 4.465-1.748.998-.372 1.981-.85 2.933-1.312 1.882-.908 3.826-1.847 6.022-2.099.471-.972.945-1.943 1.422-2.913 1.093-2.23 2.227-4.534 3.247-6.822 2.854-6.45 4.135-12.07 4.025-17.613v-.676c.031-1.124.057-2.1-1.02-2.698l-.277.184a2.4 2.4 0 0 1-1.045.525c-7.549.918-15.04 2.76-22.281 4.539l-2.504.614a166.514 166.514 0 0 0-51.964 25.947l-.596.435.188-.714c.821-3.148-.569-3.584-2.185-4.072l-.491-.152a82.249 82.249 0 0 0-41.059-2.83c-10.006 1.854-18.166 5.427-24.942 10.922-7.622 6.198-11.81 13.928-12.447 23.05a19.97 19.97 0 0 1-2.671 8.974 98.115 98.115 0 0 0-1.893 3.448c-.245.456-.486.913-.732 1.364.337.313.763.513 1.218.572.685.168 1.459.357 1.705 1.354v.126c-.262 1.092.345 1.848.988 2.624.094.126.193.252.292.373 2.092 2.892 1.835 6.061 1.569 9.126-.079 1.05-.162 2.099-.157 3.123v.084c-.134.418-.244.844-.33 1.275a18.554 18.554 0 0 1-.987 3.112c-.084.2-.178.41-.267.614a5.695 5.695 0 0 0-.67 2.278v.157l-.14.074c-.978.483-1.908 1.049-2.091 1.826-.152.614.125 1.407.841 2.414 4.381 6.135 9.964 12.013 17.581 18.489.246.21.523.409.748.614 1.223.982 2.483 2 3 3.674l.168.525-.523-.221a23.231 23.231 0 0 1-8.114-5.883c-1.965-2.146-4.046-2.713-6.754-1.837-1.165.383-2.336.751-3.508 1.118-5.034 1.575-10.236 3.238-15.066 5.621-.68.33-1.354.687-2.028 1.049-3.628 1.9-7.371 3.863-12.49 3.254 1.297 1.806 1.783 3.364 1.485 4.755-.392 1.842-2.154 3.039-3.555 3.8l.173.314c.096.209.217.404.36.583.241.273.523.525.759.798 1.411 1.422 3.006 3.028.522 5.552a.67.67 0 0 0-.25.525c.036.205.256.525 1.108.945l.136.068c.81.393 2.039.981 1.693 1.973-.439 1.244-.49 2.099-.172 2.577.408.619 1.459.693 2.572.771.35 0 .706.048 1.046.09 1.479.246 2.927.654 4.318 1.217l1.212.42c1.046.346 2.092.703 3.137 1.05 5.583 1.899 11.386 3.846 17.377 4.623 7.601 1.658 15.255.126 24.1-4.823 1.73-.971 3.404-2.099 3.184-4.524a12.974 12.974 0 0 0-1.82-3.149c-.977-1.39-2.09-2.965-2.613-5.132l-.178-.814Z"/><path fill="#FDD424" d="M73.852 32.49c-1.804 3.507-.962 7.51-2.091 11.158-.455 1.48-.523 3.08-.758 4.624-1.569 7.347-3.487 14.526-6.425 21.454-.936 2.215-2.091 3.674-4.355 4.76a52.012 52.012 0 0 0-14.439 9.745c-.842-14.348 1.255-27.368 5.144-40.168 5.515-7.08 15.28-14.506 22.584-17.146.92 1.811.063 3.737.34 5.574Z"/><path fill="#000" d="m45.554 84.814-.032-.567c-.778-13.33.858-26.125 5.16-40.263l.042-.084c5.6-7.164 15.333-14.569 22.7-17.23l.219-.078.104.21c.59 1.165.481 2.361.382 3.521a8.775 8.775 0 0 0 0 2.1v.089l-.037.073c-1.014 1.968-1.181 4.157-1.338 6.298a21.94 21.94 0 0 1-.732 4.844 18.183 18.183 0 0 0-.538 3.117c-.058.488-.115.981-.194 1.464-1.296 6.01-3.194 13.866-6.44 21.517-1.046 2.477-2.348 3.894-4.486 4.891a51.372 51.372 0 0 0-14.376 9.704l-.434.394Zm5.614-40.63c-4.213 13.86-5.855 26.423-5.154 39.47a52.001 52.001 0 0 1 14.115-9.41c2.034-.945 3.22-2.24 4.224-4.618 3.225-7.615 5.118-15.445 6.41-21.412.072-.467.13-.95.187-1.433.095-1.084.288-2.157.575-3.206.413-1.543.652-3.128.711-4.724.162-2.14.33-4.356 1.354-6.392a9.726 9.726 0 0 1 .026-2.173c.095-1.05.183-2.062-.23-3.028-7.25 2.682-16.75 9.92-22.217 16.925Z"/><path fill="#DF9927" d="M88.385 266.643c9.624.284 18.365-3.012 27.001-6.722 2.87-1.234 5.688-2.624 8.621-3.674 6.477-2.33 13.069-3.149 19.912-1.501 3.2.777 6.545.425 9.818.735 9.243.871 18.417 2.624 27.874.745 13.525-2.682 22.046-11.021 27.823-22.824a26.967 26.967 0 0 0 2.702-8.958c2.87 8.008 2.295 16.059.215 24.099-1.046 4.046-2.734 7.872-4.245 11.761-3.519 9.079-15.297 14.327-23.964 13.052-4.956-.724-9.855-1.827-14.779-2.761-11.904-4.676-23.786-9.415-36.767-10.113 1.94 1.139 4.433.483 6.529 2.561-12.75 3.558-24.737 9.064-38 9.688-4.444-1.611-9.342-2.262-12.74-6.088Z"/><path fill="#000" d="M186.766 273.818a18.433 18.433 0 0 1-2.666-.184c-3.43-.525-6.885-1.197-10.231-1.868a457.317 457.317 0 0 0-4.553-.898l-.596-.225c-10.942-4.304-22.234-8.738-34.268-9.757.24.058.491.105.742.153 1.38.262 2.802.524 4.109 1.831l.324.32-.434.121c-3.748 1.05-7.48 2.272-11.093 3.458-8.636 2.84-17.565 5.773-26.97 6.225h-.099a65.668 65.668 0 0 0-3.137-1.013c-3.471-1.05-7.057-2.157-9.713-5.149l-.403-.456h.607c9.75.294 18.632-3.149 26.886-6.702.879-.378 1.746-.766 2.614-1.154 1.955-.872 3.973-1.774 6.017-2.509 7.141-2.53 13.702-3.054 20.075-1.48 2.012.394 4.061.57 6.111.525 1.208 0 2.452.047 3.66.162 1.793.168 3.612.373 5.374.573 7.292.823 14.836 1.679 22.422.173 12.321-2.441 21.365-9.861 27.644-22.677a26.697 26.697 0 0 0 2.671-8.869l.121-1.139.386 1.049c2.578 7.19 2.646 14.894.22 24.252a77.452 77.452 0 0 1-3.246 9.242l-1.009 2.55c-3.247 8.46-13.342 13.446-21.565 13.446Zm-55.231-13.645 1.077.057c12.823.688 24.758 5.38 36.301 9.914l.523.215c1.474.273 2.996.583 4.517.887 3.335.667 6.796 1.359 10.204 1.863 8.365 1.223 20.148-3.763 23.682-12.889.335-.85.675-1.706 1.014-2.556a76.963 76.963 0 0 0 3.257-9.174c2.28-8.79 2.337-16.101.157-22.886a27.95 27.95 0 0 1-2.598 7.935c-6.352 12.973-15.516 20.467-28.005 22.965-7.664 1.517-15.25.662-22.584-.168-1.762-.199-3.576-.404-5.364-.572-1.202-.115-2.441-.141-3.659-.162a29.001 29.001 0 0 1-6.221-.578c-6.274-1.522-12.74-1.049-19.761 1.491-2.029.729-4.036 1.627-5.981 2.493-.871.395-1.742.782-2.614 1.159-8.134 3.496-16.885 6.886-26.489 6.755 2.515 2.55 5.835 3.563 9.055 4.544 1.045.31 2.091.635 3.11 1.003 9.311-.446 18.188-3.369 26.777-6.193 3.471-1.144 7.052-2.32 10.659-3.338-1.108-.918-2.321-1.154-3.502-1.38a7.923 7.923 0 0 1-2.614-.829l-.941-.556Z"/><path fill="#EB2123" d="M37.294 142.186a3.674 3.674 0 0 1-1.74 2.351c-3.137.882-4.847-.451-5.898-3.411-.45-1.255-.376-2.824-1.646-3.732-.068-3.936-.251-7.872 1.118-11.687 1.313-3.642 1.5-3.816 6.002-3.863l1.782 1.89c3.169 4.67 2.008 9.777 1.47 14.815v-.068c-.968 1.049-.293 2.597-1.088 3.705Z"/><path fill="#000" d="M33.802 145.072c-2.055 0-3.471-1.26-4.391-3.857a8.896 8.896 0 0 1-.309-1.15c-.214-.96-.413-1.863-1.244-2.461l-.105-.074v-.929c-.067-3.631-.146-7.384 1.15-10.984 1.365-3.799 1.658-3.988 6.242-4.035h.115l1.862 1.978c2.854 4.199 2.3 8.738 1.761 13.12-.041.357-.089.719-.13 1.076l.48-.499-1.134 2.672c0 .173-.036.346-.052.525a3.565 3.565 0 0 1-.486 1.836 3.962 3.962 0 0 1-1.846 2.462l-.068.036c-.599.179-1.22.274-1.845.284Zm-5.531-7.815c.9.709 1.124 1.717 1.343 2.693.074.367.17.73.288 1.086 1.046 3.018 2.781 4.025 5.541 3.259a3.447 3.447 0 0 0 1.6-2.162l.042-.1c.284-.49.43-1.049.423-1.616a3.248 3.248 0 0 1 .628-2.021c.063-.593.136-1.18.209-1.774.523-4.492 1.045-8.738-1.647-12.742l-1.683-1.774c-4.329.048-4.392.216-5.641 3.674-1.25 3.458-1.187 7.211-1.119 10.795l.016.682Z"/><path fill="#DF9926" d="M39.333 205.724c8.14.189 15.683-2.026 22.877-5.679 1.892-.96 3.57-2.13 4.705-3.978a34.204 34.204 0 0 1 6.022 12.527c-11.621.541-22.715.279-33.604-2.87Z"/><path fill="#000" d="M64.165 209.072c-7.879 0-16.42-.661-24.895-3.107l-1.945-.561 2.024.042c7.491.178 14.93-1.675 22.756-5.653 1.5-.761 3.382-1.894 4.59-3.878l.199-.331.23.31a34.537 34.537 0 0 1 6.07 12.622l.078.309h-.32c-2.812.153-5.755.247-8.787.247Zm-22.872-3.102c10.926 2.824 21.9 2.803 31.31 2.362a33.841 33.841 0 0 0-5.673-11.824 11.586 11.586 0 0 1-4.59 3.752c-7.235 3.674-14.14 5.548-21.057 5.71h.01Z"/><path fill="#DF9A26" d="M146.889 100.731c-6.932-.83-12.087-4.77-16.76-9.3.109-.96.58-1.18 1.103-1.175 9.41.147 18.699-.787 27.989-2.068a27.28 27.28 0 0 1 3.659-.042c-6.796 3.086-14.365 3.15-21.622 5.526 4.282.646 4.925 3.879 5.631 7.059Z"/><path fill="#000" d="m147.229 101.036-.372-.042c-7.277-.871-12.63-5.248-16.911-9.373l-.095-.09v-.13c.11-.935.56-1.407 1.339-1.407h.031c10.325.168 20.362-1.018 27.948-2.068a15.16 15.16 0 0 1 2.535-.063h2.379l-1.119.525c-3.942 1.79-8.223 2.624-12.364 3.374a83.09 83.09 0 0 0-8.327 1.869c3.507.981 4.182 3.973 4.814 6.87l.142.535Zm-16.823-9.72c4.124 3.984 9.263 8.145 16.148 9.09-.679-3.054-1.39-5.899-5.348-6.497l-1.098-.168 1.046-.341a75.008 75.008 0 0 1 9.358-2.178c3.889-.735 7.58-1.427 11.124-2.86a15.105 15.105 0 0 0-2.389.063c-7.606 1.05-17.664 2.24-28.031 2.073-.34.01-.69.115-.81.818Z"/><path fill="#A24D22" d="M178.328 173.349c-.935 1.863-.522 5.248-3.413 4.969-2.374-.23-1.657-3.421-2.426-5.248a2.646 2.646 0 0 1 0-1.049c1.333-1.575.12-3.674 1.166-5.568 2.65 1.648 3.309 4.529 4.673 6.896Z"/><path fill="#000" d="M175.249 178.602c-.12.007-.24.007-.36 0-1.814-.179-2.029-1.9-2.222-3.422a7.918 7.918 0 0 0-.418-1.984 1.579 1.579 0 0 1-.032-.824c0-.105.026-.21.032-.309v-.089l.057-.069c.643-.766.638-1.69.627-2.671a5.479 5.479 0 0 1 .523-2.86l.131-.236.235.141c1.987 1.223 2.881 3.149 3.748 4.991.309.656.628 1.344.994 1.968l.068.126-.063.126a8.846 8.846 0 0 0-.565 1.827c-.397 1.542-.789 3.285-2.755 3.285Zm-2.483-6.466c0 .089 0 .179-.031.268a1.223 1.223 0 0 0 0 .525c.24.677.393 1.383.455 2.099.224 1.763.449 2.839 1.756 2.97 1.825.184 2.159-1.243 2.546-2.886.124-.622.308-1.23.549-1.816-.345-.609-.648-1.259-.941-1.889-.8-1.701-1.621-3.459-3.314-4.608-.271.75-.38 1.55-.319 2.346.005 1.07.01 2.11-.701 2.991Z"/><path fill="#B14C25" d="M201.132 212.972a1.1 1.1 0 0 1-1.453-.037c-.089-4.571-2.091-9.027-1.009-14.422 3.136 3.516 5.609 6.419 3.215 10.906-.554 1.028-.523 2.361-.753 3.553Z"/><path fill="#000" d="M200.405 213.491a1.407 1.407 0 0 1-.894-.352l-.094-.079v-.12a32.837 32.837 0 0 0-.632-5.086c-.523-2.933-1.046-5.967-.377-9.394l.105-.524.35.388c2.975 3.311 5.792 6.439 3.252 11.199a6.704 6.704 0 0 0-.554 2.309c-.047.389-.1.793-.173 1.176v.105l-.089.063c-.257.197-.57.307-.894.315Zm-.47-.688a.813.813 0 0 0 .956 0c.058-.336.105-.687.147-1.049a7.095 7.095 0 0 1 .617-2.462c2.269-4.256 0-7.058-2.829-10.207-.522 3.122 0 5.941.471 8.675.338 1.663.551 3.348.638 5.043Z"/><path fill="#E7B325" d="M203.704 284.445c-.894 5.374 4.182 8.192 3.889 13.262-4.302-3.186-5.29-7.872-7.752-12.512-.91 4.272 2.472 6.713 2.671 10.129-2.091-.525-2.483-2.152-3.168-3.464-2.431-4.66-3.973-9.635-5.285-14.694-.523-2.026-.157-2.766 1.751-3.427 3.822-1.323 7.073-3.674 10.492-7.185.957 9.027 1.835 17.319 2.787 26.33-3.252-2.141-3.466-5.29-5.385-8.439Z"/><path fill="#000" d="m207.829 298.205-.392-.288c-3.174-2.352-4.564-5.49-6.038-8.812a64.79 64.79 0 0 0-1.422-3.075c-.194 2.041.622 3.673 1.416 5.248.638 1.265 1.292 2.571 1.38 4.036v.356l-.345-.089c-1.871-.488-2.483-1.789-3.021-2.939-.105-.22-.204-.441-.314-.65-2.614-4.997-4.146-10.276-5.306-14.784-.559-2.162-.11-3.039 1.919-3.742 3.628-1.254 6.832-3.448 10.387-7.111l.392-.404 2.922 27.416-.46-.3c-2.248-1.443-3.084-3.39-3.967-5.447-.335-.777-.675-1.575-1.109-2.367-.146 2.362.879 4.198 1.966 6.135 1.087 1.937 2.154 3.852 2.018 6.298l-.026.519Zm-8.093-13.76.335.635c.685 1.275 1.254 2.566 1.808 3.815 1.375 3.112 2.682 6.056 5.464 8.292-.032-2.099-.973-3.757-1.966-5.526-1.187-2.099-2.421-4.324-1.929-7.253l.115-.687.366.593a24.269 24.269 0 0 1 1.532 3.112c.784 1.831 1.531 3.568 3.309 4.896l-2.666-25.191c-3.466 3.49-6.629 5.611-10.205 6.823-1.762.609-2.091 1.223-1.568 3.112 1.155 4.477 2.681 9.719 5.259 14.668.115.221.219.446.329.672.491 1.05.962 2.063 2.311 2.545a10.942 10.942 0 0 0-1.286-3.448c-.931-1.852-1.898-3.768-1.344-6.365l.136-.693Z"/><path fill="#68110F" d="M220.407 235.113c-.863 0-1.731-.074-2.614-.063-1.652 0-2.708-.64-2.666-2.414.036-1.68-.523-3.417.569-5.568 2.018 2.655 6.566 3.248 4.674 8.045h.037Z"/><path fill="#000" d="M220.386 235.391H219.581c-.581 0-1.187-.042-1.773-.037a3.127 3.127 0 0 1-2.284-.724 2.58 2.58 0 0 1-.648-1.958c0-.425 0-.85-.047-1.296-.084-1.275-.183-2.724.643-4.382l.188-.378.251.336a10.602 10.602 0 0 0 2.248 1.979c1.892 1.375 3.853 2.797 2.462 6.297l-.209-.084v.247h-.026Zm-2.3-.588c.522 0 1.045 0 1.521.037h.601c1.114-3.012-.497-4.199-2.352-5.526a12.804 12.804 0 0 1-2.092-1.753 7.681 7.681 0 0 0-.423 3.736c.031.462.063.898.052 1.344a2.122 2.122 0 0 0 .497 1.574 2.51 2.51 0 0 0 1.903.572l.293.016Z"/><path fill="#E0A824" d="M107.89 279.055c-1.438 4.429.69 7.562.721 11.021-3.163-4.387-4.339-9.378-4.344-14.721 0-.84.674-1.202 1.406-1.217 4.135-.09 8.009-1.732 12.479-2.514-.889 6.171-1.694 11.776-2.567 17.843-3.247-2.734-1.297-6.864-3.508-9.677-1.422 3.82 1.286 7.274.309 11.299-3.44-3.238-3.336-7.505-4.496-12.034Z"/><path fill="#000" d="m112.537 291.598-.329-.31c-2.661-2.508-3.252-5.62-3.879-8.922a92.135 92.135 0 0 0-.455-2.256c-.523 2.33-.042 4.303.408 6.219a16.83 16.83 0 0 1 .591 3.726v.824l-.476-.667c-2.954-4.098-4.392-8.963-4.397-14.873 0-.876.654-1.453 1.663-1.48 2.509-.052 4.914-.687 7.46-1.354 1.594-.419 3.246-.85 4.977-1.154l.355-.063-2.687 18.688-.371-.283c-1.882-1.575-2.091-3.595-2.295-5.542-.141-1.359-.277-2.624-.957-3.758-.523 1.758-.152 3.448.214 5.248.366 1.8.738 3.595.262 5.563l-.084.394Zm-4.621-13.482.225.876c.287 1.113.496 2.215.7 3.28.58 3.065 1.135 5.962 3.388 8.302.292-1.684-.037-3.301-.361-4.87-.397-1.926-.805-3.92-.031-5.998l.162-.436.287.368c1.046 1.312 1.197 2.902 1.359 4.445.183 1.784.361 3.479 1.752 4.865l2.446-17.009c-1.568.293-3.105.692-4.579 1.081-2.583.677-5.019 1.312-7.586 1.369-.271 0-1.15.095-1.15.956 0 5.431 1.234 9.971 3.764 13.797a22.095 22.095 0 0 0-.523-2.687c-.522-2.252-1.076-4.577-.135-7.479l.282-.86Z"/><path fill="#EB2123" d="M126.73 114.408c5.003 6.145 5.003 13.492 0 18.793-4.657 4.933-12.583 5.81-18.02 1.999-6.273-4.418-7.841-11.577-3.978-18.709 7.528-7.274 12.505-7.746 21.998-2.083Z"/><path fill="#000" d="M116.442 137.814a13.622 13.622 0 0 1-7.841-2.42c-6.404-4.497-7.962-11.797-4.062-19.05l.047-.063c7.554-7.3 12.766-7.793 22.312-2.099l.073.058c5.076 6.24 5.071 13.749 0 19.139a14.496 14.496 0 0 1-4.811 3.302 14.45 14.45 0 0 1-5.718 1.133Zm-11.501-21.187c-3.738 6.991-2.237 14.013 3.921 18.337 5.338 3.742 13.101 2.881 17.68-1.968 4.883-5.174 4.888-12.396 0-18.405-9.347-5.558-14.204-5.096-21.601 2.036Z"/><path fill="#4F1410" d="M61.363 139.131c-3.268-4.088-5.427-8.832-7.884-13.398-.889-1.653-1.438-3.574-4.219-4.576 3.1-.525 5.306-1.506 7.037-3.307 1.495-1.574 3.304-1.815 5.228-1.249 6.498 1.905 12.897 1.932 19.342-1.233l.523 9.63c-8.775.133-14.866 4.258-18.27 12.375a3.235 3.235 0 0 1-1.757 1.758Z"/><path fill="#000" d="m61.279 139.446-.12-.152c-2.614-3.238-4.512-6.933-6.368-10.496-.505-.983-1.02-1.96-1.542-2.929-.13-.252-.261-.524-.387-.766-.7-1.412-1.422-2.876-3.69-3.674l-.936-.335.983-.168c3.136-.525 5.259-1.538 6.89-3.233 1.458-1.517 3.314-1.963 5.51-1.317 7.026 2.057 13.294 1.658 19.165-1.218l.35-.173.56 10.297h-.278c-8.615.126-14.684 4.235-18.03 12.212a3.511 3.511 0 0 1-1.93 1.9l-.177.052ZM50.154 121.23c1.846.929 2.551 2.341 3.179 3.611.12.252.245.525.376.745.523.976 1.046 1.952 1.569 2.934 1.814 3.495 3.69 7.105 6.184 10.265a2.943 2.943 0 0 0 1.469-1.538c3.398-8.098 9.53-12.312 18.234-12.527l-.486-8.969c-5.886 2.787-12.17 3.149-19.186 1.081-2.023-.593-3.66-.205-4.987 1.181-1.579 1.643-3.555 2.65-6.352 3.217Z"/><path fill="#E19A26" d="M72.655 177.469c4.067-.21 7.883 1.364 11.898.991 4.987-.461 10.027.431 15.02-.955 2.812-.787 3.769.373 3.617 3.369-.345 6.723-8.558 14.658-16.373 11.231-5.991-2.65-10.916-7.111-14.162-14.636Z"/><path fill="#000" d="M90.711 193.192a9.962 9.962 0 0 1-3.999-.845c-6.577-2.887-11.255-7.72-14.298-14.774l-.151-.346h.376a27.352 27.352 0 0 1 5.787.525 23.94 23.94 0 0 0 6.1.477c1.869-.141 3.743-.188 5.615-.141 3.08 0 6.274.052 9.358-.814 1.391-.383 2.379-.315 3.032.21.654.525 1.009 1.664.92 3.432-.198 3.894-2.901 8.103-6.728 10.497a11.423 11.423 0 0 1-6.012 1.779Zm-17.66-15.477c2.996 6.739 7.534 11.367 13.875 14.17 3.027 1.328 6.41.997 9.525-.94 3.628-2.251 6.274-6.392 6.483-10.06.078-1.574-.157-2.545-.722-2.997-.564-.451-1.354-.451-2.567-.11-3.167.882-6.388.855-9.504.829-1.824 0-3.717-.031-5.557.137a24.682 24.682 0 0 1-6.236-.478 28.12 28.12 0 0 0-5.296-.551Z"/><path fill="#090806" d="M94.538 86.845c.314-2.283 2.133-2.55 3.853-2.76 7.319-.898 14.7 7.704 12.766 14.851-1.046 3.931-3.942 6.099-8.056 6.078-7.46-.048-13.592-8.334-11.46-15.44.424-1.407.994-2.624 2.745-2.624.936 1.312.685 3.033 1.49 4.398.554.939 1.25 1.7 2.368 1.826a1.47 1.47 0 0 0 1.569-1.05c.455-1.343-.215-2.33-1.135-3.212-1.155-1.149-2.87-1.144-4.14-2.067Z"/><path fill="#000" d="M103.169 105.276h-.073c-3.607 0-7.183-1.978-9.577-5.248-2.395-3.27-3.137-7.153-2.128-10.549.408-1.343.998-2.776 2.912-2.823.402-2.398 2.425-2.65 4.056-2.85 3.519-.43 7.283 1.244 10.069 4.477 2.787 3.233 3.916 7.253 2.98 10.706-1.093 4.062-4.02 6.287-8.239 6.287Zm-8.918-18.08c-1.37.058-1.903.95-2.358 2.451-.978 3.238-.215 7.007 2.049 10.087 2.264 3.081 5.714 4.996 9.159 5.017h.068c3.963 0 6.707-2.099 7.737-5.883.889-3.285-.188-7.106-2.875-10.223-2.687-3.117-6.273-4.723-9.609-4.298-1.897.23-3.278.525-3.602 2.372a7.25 7.25 0 0 0 1.705.75c.865.228 1.67.648 2.352 1.229.842.797 1.736 1.92 1.202 3.484a1.729 1.729 0 0 1-1.866 1.233c-1.354-.146-2.091-1.18-2.561-1.947a6.744 6.744 0 0 1-.701-2.167 5.815 5.815 0 0 0-.7-2.104Zm.705.21c.245.576.42 1.178.523 1.795.1.698.316 1.374.638 2 .638 1.076 1.307 1.6 2.17 1.695a1.21 1.21 0 0 0 1.317-.882c.345-1.05.036-1.879-1.046-2.939a5.576 5.576 0 0 0-2.159-1.112 9.595 9.595 0 0 1-1.443-.556Z"/><path fill="#9F2234" d="M61.363 139.131c1.944-7.347 6.106-12.622 13.628-14.836 2.285-.677 4.402-.614 6.43.698 1.621 3.626.837 7.489 1.046 11.241.178 3.28 0 6.581-.13 9.877-.079 2.225-.184 4.482-2.139 6.061-1.97-2.414-.418-5.059-.423-7.583 0-5.484-1.846-7.116-7.35-6.565-3.498.351-5.835 3.007-8.94 4.083a4.24 4.24 0 0 1-2.122-2.976Z"/><path fill="#000" d="m80.146 152.54-.162-.2c-1.443-1.773-1.098-3.647-.763-5.458.16-.753.254-1.518.282-2.288 0-2.75-.47-4.398-1.51-5.337-1.041-.939-2.761-1.249-5.553-.971-2.023.2-3.696 1.228-5.311 2.22a18.488 18.488 0 0 1-3.57 1.853l-.116.036-.104-.063a4.488 4.488 0 0 1-2.232-3.148v-.111c2.09-7.992 6.628-12.905 13.806-15.02 2.614-.766 4.705-.524 6.645.73l.062.042.032.073c1.176 2.624 1.113 5.395 1.045 8.067 0 1.049-.052 2.188 0 3.264.141 2.671.037 5.395-.063 8.029-.026.625-.047 1.244-.068 1.869-.073 2.146-.156 4.581-2.237 6.261l-.183.152Zm-5.902-14.878c1.903 0 3.2.388 4.098 1.207 1.156 1.049 1.673 2.813 1.684 5.72a13.622 13.622 0 0 1-.293 2.388c-.314 1.695-.606 3.301.491 4.818 1.7-1.517 1.767-3.643 1.84-5.695 0-.624.042-1.249.069-1.873.099-2.624.203-5.332.062-7.982-.057-1.097-.031-2.215 0-3.301.058-2.593.115-5.248-.977-7.773-1.788-1.133-3.749-1.333-6.148-.624-6.969 2.052-11.365 6.822-13.435 14.595a3.955 3.955 0 0 0 1.877 2.676 18.702 18.702 0 0 0 3.35-1.758c1.668-1.023 3.388-2.099 5.531-2.299a18.453 18.453 0 0 1 1.85-.099Z"/><path fill="#ED548D" d="M63.475 142.107a12.622 12.622 0 0 1 6.952-5.326 12.57 12.57 0 0 1 8.73.493c1.758.787 2.092 1.973 2.191 3.642.257 3.831-.617 7.525-1.176 11.257l.032-.037a7.263 7.263 0 0 1-2.139 2.131l.042-.026a2.531 2.531 0 0 1-3.136 0 16.617 16.617 0 0 0-3.602-2.1c-2.975-3.096-5.991-6.114-7.894-10.034Z"/><path fill="#000" d="M76.544 155.049a2.961 2.961 0 0 1-1.72-.604l-.261-.178a14.792 14.792 0 0 0-3.288-1.89l-.095-.068-.366-.373c-2.817-2.912-5.75-5.919-7.575-9.714l-.062-.131.078-.121a12.911 12.911 0 0 1 7.104-5.435c2.938-.905 6.1-.729 8.92.497 1.986.892 2.242 2.335 2.346 3.863.2 3.028-.303 6.003-.784 8.879-.136.814-.277 1.622-.397 2.441l-.167-.027.156.1a7.58 7.58 0 0 1-2.164 2.167 3.03 3.03 0 0 1-1.725.594Zm-5.029-3.149a15.742 15.742 0 0 1 3.346 1.926l.256.178a2.27 2.27 0 0 0 2.828.037 6.892 6.892 0 0 0 1.992-1.958c.12-.797.25-1.574.387-2.393.48-2.849.977-5.773.779-8.759-.115-1.716-.46-2.713-2.04-3.416a12.338 12.338 0 0 0-8.484-.498 12.39 12.39 0 0 0-6.806 5.111c1.814 3.673 4.663 6.597 7.418 9.446l.324.326Z"/><path fill="#E19A26" d="M130.406 188.841c6.916 1.873 13.947 2.44 21.115 2.225 3.701-.11 7.182-.892 10.706-1.826 2.091-.567 2.959.524 2.19 2.566a10.41 10.41 0 0 1-4.705 5.426c-1.354.782-2.781 1.438-4.182 2.152-9.41 1.685-17.523-.75-24.089-7.872-.649-.74-1.616-1.412-1.035-2.671Z"/><path fill="#000" d="M150.067 200.15c-7.319 0-13.592-2.834-18.794-8.47a7.631 7.631 0 0 0-.292-.304c-.617-.625-1.386-1.402-.816-2.624l.094-.2.215.058c6.372 1.721 13.257 2.446 21.036 2.215a46.977 46.977 0 0 0 10.654-1.821c1.391-.368 2.091 0 2.405.351.314.352.633 1.123.089 2.561a10.626 10.626 0 0 1-4.794 5.568 52.35 52.35 0 0 1-2.891 1.507c-.434.215-.868.425-1.296.645l-.074.026c-1.827.327-3.68.49-5.536.488Zm-19.51-10.994c-.261.792.23 1.286.79 1.847l.308.32c6.32 6.865 14.329 9.489 23.812 7.809l1.271-.635c.951-.472 1.934-.955 2.859-1.49a10.104 10.104 0 0 0 4.569-5.295c.345-.929.351-1.648 0-2.026-.35-.378-.998-.431-1.887-.194a47.19 47.19 0 0 1-10.769 1.836c-7.727.226-14.591-.477-20.953-2.172Z"/><path fill="#4D4111" d="M130.406 188.841c5.227 7.841 12.802 10.58 21.831 10.181 1.139-.047 2.337-.939 3.319.362-8.364 3.029-15.761.557-22.218-4.723-7.559-6.187-10.507-14.962-12.023-24.314-.236-1.485.386-2.624 1.96-2.168 1.997.609 3.084-.042 3.45-1.878 1.522-7.605 8.093-9.599 13.875-11.73 4.48-1.658 9.577-1.097 14.146 1.396-3.801.499-7.538-1.254-11.334-.483-3.795.772-7.319 1.753-10.1 5.548 2.51.21 3.691-2.735 5.505-1.711 2.316 1.307 4.37 2.508 7.094 1.107.774-.399 1.61.436 2.117 1.197.305.514.719.954 1.214 1.289a4.004 4.004 0 0 0 1.646.642c3.858.687 3.837.813 3.137 6.376-1.046-2.918-1.266-6.04-5.045-4.949-.753.221-1.333-.981-1.799-1.705-.397-.614-1.28-1.428-1.531-1.176-3.2 3.249-5.981-1.957-8.077-.703-2.379 1.427-3.811 2.304-6.174.425-.742-.593-1.506.556-1.825 1.365-.569 1.459-.993 2.975-1.568 4.434-.366.934-.523 2.409-1.715 2.372-4.438-.12-2.932 2.472-2.389 4.787 1.218 5.143 2.881 10.05 6.504 14.059Z"/><path fill="#000" d="M148.4 200.948c-5.176 0-10.268-2.031-15.224-6.082-8.364-6.823-10.852-16.668-12.102-24.477-.157-.976.042-1.785.523-2.226a1.758 1.758 0 0 1 1.751-.236c.952.294 1.663.284 2.175 0a2.323 2.323 0 0 0 .946-1.658c1.469-7.347 7.648-9.594 13.101-11.583l.941-.341c4.459-1.648 9.697-1.133 14.361 1.412l.705.383-.8.105c-1.81.155-3.633.056-5.416-.294-1.934-.288-3.936-.588-5.896-.189-3.555.725-6.969 1.659-9.625 5.023a4.766 4.766 0 0 0 2.238-1.05c.873-.614 1.782-1.244 2.87-.63l.083.048c2.254 1.27 4.183 2.372 6.76 1.049.753-.388 1.647.084 2.452 1.286a3.758 3.758 0 0 0 2.692 1.821c4.099.729 4.052 1.05 3.341 6.644l-.142 1.092-.371-1.013c-.157-.446-.293-.892-.428-1.333-.774-2.498-1.328-4.309-4.292-3.453-.832.241-1.417-.709-1.882-1.475l-.21-.336a3.137 3.137 0 0 0-1.16-1.102c-2.013 2.01-3.916.892-5.447 0-1.046-.609-1.919-1.128-2.646-.693-2.415 1.449-3.983 2.388-6.472.404a.402.402 0 0 0-.366-.094c-.381.105-.82.761-1.045 1.349-.282.718-.523 1.464-.774 2.188-.251.724-.523 1.506-.794 2.246a7.921 7.921 0 0 0-.199.604c-.267.876-.596 1.957-1.767 1.936-1.338-.037-2.201.184-2.567.656-.465.609-.162 1.659.162 2.771.099.347.199.693.282 1.05 1.046 4.55 2.667 9.772 6.431 13.939v.031c4.793 7.206 11.861 10.496 21.601 10.066.309-.023.616-.078.915-.163.852-.21 1.814-.451 2.613.63l.215.283-.335.121a21.228 21.228 0 0 1-7.198 1.291Zm-25.779-32.617a.988.988 0 0 0-.663.226 1.936 1.936 0 0 0-.372 1.748c1.239 7.72 3.712 17.439 11.92 24.141 6.989 5.715 14.251 7.347 21.596 4.812-.523-.483-1.124-.341-1.846-.162a5.4 5.4 0 0 1-1.009.178c-9.933.441-17.147-2.923-22.05-10.281-3.822-4.261-5.458-9.509-6.54-14.149a15.192 15.192 0 0 0-.272-1.013c-.345-1.191-.701-2.419-.073-3.238.475-.619 1.463-.897 2.995-.86.695.042.957-.604 1.249-1.575.074-.225.142-.446.215-.64.287-.73.523-1.491.784-2.225.261-.735.523-1.48.784-2.21.094-.241.601-1.448 1.401-1.663a.898.898 0 0 1 .826.189c2.206 1.752 3.498.981 5.834-.42 1.046-.619 2.091 0 3.221.661 1.526.897 3.105 1.826 4.846.058a.443.443 0 0 1 .371-.121c.523.053 1.281.897 1.568 1.338.068.111.141.226.215.352.376.614.841 1.375 1.296 1.244 3.45-.997 4.182 1.333 4.935 3.805l.063.209c.523-4.292.272-4.34-3.058-4.933a4.229 4.229 0 0 1-1.746-.68 4.276 4.276 0 0 1-1.287-1.366c-.235-.352-1.045-1.475-1.777-1.108-2.812 1.449-4.972.231-7.256-1.049l-.084-.048c-.763-.43-1.38-.052-2.316.604-.836.582-1.788 1.244-3.084 1.139l-.465-.042.277-.378c2.807-3.863 6.456-4.876 10.257-5.647 2.054-.42 4.098-.11 6.08.184a23.06 23.06 0 0 0 4.38.372c-4.323-2.099-9.065-2.472-13.132-.971l-.941.347c-5.583 2.036-11.354 4.146-12.766 11.194a2.822 2.822 0 0 1-1.187 2.005c-.648.383-1.495.409-2.613.073a2.013 2.013 0 0 0-.576-.1Z"/><path fill="#0D0C08" d="M52.224 102.694c-.052 4.534-1.6 8.507-5.227 11.414-3.299 2.624-6.556 1.438-7.32-2.755-.835-4.576.728-8.622 3.603-12.139 1.61-1.968 3.66-3.553 6.325-2.398 2.431 1.05 2.593 3.469 2.62 5.878Z"/><path fill="#000" d="M43.578 115.767a3.664 3.664 0 0 1-1.302-.236c-1.464-.525-2.483-2.016-2.87-4.131-.784-4.272.45-8.428 3.66-12.354 1.385-1.69 3.575-3.784 6.628-2.472 2.536 1.087 2.766 3.511 2.797 6.115-.057 4.927-1.85 8.832-5.337 11.619a5.852 5.852 0 0 1-3.576 1.459Zm4.219-19.082c-1.454 0-2.839.876-4.329 2.697-3.137 3.795-4.302 7.809-3.55 11.924.356 1.926 1.255 3.254 2.541 3.736 1.286.483 2.839.079 4.365-1.144 3.357-2.676 5.087-6.449 5.14-11.204-.032-2.514-.236-4.676-2.479-5.637a4.292 4.292 0 0 0-1.688-.372Z"/><path fill="#F1F3F1" d="M94.538 86.845c3.989-.86 6.754.609 7.403 3.93.282 1.47 0 2.798-1.25 3.722a3.374 3.374 0 0 1-3.424.378C93.9 93.594 93 91.2 94.387 86.935l.151-.09Z"/><path fill="#000" d="M98.736 95.436a4.365 4.365 0 0 1-1.569-.315c-3.518-1.338-4.454-3.889-3.037-8.27l.032-.095.324-.163c2.237-.483 4.15-.252 5.536.667a5.265 5.265 0 0 1 2.175 3.474c.334 1.726-.121 3.07-1.354 3.978a3.494 3.494 0 0 1-2.107.724Zm-4.13-8.318c-1.291 4.046-.46 6.298 2.755 7.526a3.078 3.078 0 0 0 3.173-.352c1.046-.777 1.443-1.942 1.15-3.453a4.656 4.656 0 0 0-1.95-3.149c-1.254-.834-3.016-1.05-5.102-.598l-.026.026Z"/><path fill="#803318" d="M126.73 114.408c-1.097.141-1.965-.389-2.88-.908-6.273-3.569-10.837-3.149-16.509 1.474-.8.651-1.474 1.47-2.614 1.517 5.51-8.182 14.852-9.063 22.003-2.083Z"/><path fill="#000" d="m104.225 116.754.288-.431c2.681-3.973 6.393-6.392 10.455-6.822 4.14-.431 8.364 1.233 11.951 4.692l.392.377-.523.074c-1.145.142-2.054-.378-2.938-.882l-.099-.058c-6.211-3.537-10.602-3.148-16.206 1.444l-.434.378c-.648.572-1.312 1.159-2.327 1.201l-.559.027Zm12.024-6.791c-.414.001-.828.024-1.239.068-3.722.388-7.146 2.535-9.703 6.067a4.452 4.452 0 0 0 1.412-.961l.449-.388c5.751-4.692 10.456-5.112 16.807-1.496l.105.058a5.369 5.369 0 0 0 1.987.819c-2.98-2.714-6.41-4.167-9.813-4.167h-.005Z"/><path fill="#625413" d="M17.8 187.277c-2.562.063-4.512-1.165-4.23-3.364.283-2.199 2.463-2.55 4.523-2.398.282 2.099-2.546 1.516-2.295 2.918.182 1.034 1.317 1.905 2.002 2.844Z"/><path fill="#000" d="M17.638 187.545c-1.569 0-2.86-.473-3.613-1.312a2.858 2.858 0 0 1-.684-2.351c.245-1.911 1.95-2.84 4.799-2.624h.209l.031.215c.178 1.333-.774 1.758-1.474 2.067-.7.31-.894.441-.826.835.115.64.648 1.233 1.213 1.858.25.283.522.577.742.876l.298.409h-.523l-.172.027Zm-.246-5.773c-1.448 0-3.299.367-3.534 2.199a2.321 2.321 0 0 0 .554 1.931 4.1 4.1 0 0 0 2.854 1.128c-.114-.136-.24-.278-.365-.414-.586-.651-1.198-1.328-1.339-2.099-.14-.772.565-1.155 1.135-1.412.57-.257 1.197-.525 1.181-1.307l-.486-.026Z"/><path fill="#753814" d="M38.381 138.549c-.209-4.965.607-10.035-1.463-14.816.418.231 1.082.357 1.223.704 1.898 4.665 2.614 9.388.24 14.112Z"/><path fill="#000" d="m38.162 139.598-.042-1.049a57.486 57.486 0 0 1 0-3.915c.042-3.601.084-7.348-1.422-10.806l-.303-.698.67.362c.134.07.274.132.417.184.387.157.784.315.92.65 2.264 5.569 2.342 10.124.236 14.333l-.476.939Zm-.763-15.371c1.307 3.406 1.26 6.969 1.223 10.422v2.761c1.542-3.784 1.307-7.909-.711-12.874-.058-.11-.288-.215-.512-.309Z"/><path fill="#675115" d="M60.934 108.362a1.88 1.88 0 0 1-1.568 1.748 1.738 1.738 0 0 1-1.976-1.276c-.288-.771.183-1.322.956-1.453 1.014-.168 2.055-.221 2.588.981Z"/><path fill="#000" d="M59.005 110.404a2.018 2.018 0 0 1-1.882-1.48 1.288 1.288 0 0 1 .052-1.113 1.52 1.52 0 0 1 1.108-.688c.774-.125 2.222-.367 2.892 1.134v.137a2.118 2.118 0 0 1-1.798 1.973 2.01 2.01 0 0 1-.372.037Zm.225-2.845c-.29.005-.578.033-.863.084a1.006 1.006 0 0 0-.737.43.741.741 0 0 0 0 .667 1.515 1.515 0 0 0 1.683 1.112 1.602 1.602 0 0 0 1.365-1.448 1.41 1.41 0 0 0-1.448-.819v-.026Z"/><path fill="#9F2234" d="M71.369 152.131c1.641-.069 2.901.525 3.602 2.099-1.668.105-2.614-1.034-3.602-2.099Z"/><path fill="#000" d="M74.751 154.498c-1.568 0-2.504-1.024-3.414-2.016l-.549-.593h.57c1.85-.078 3.137.683 3.848 2.252l.157.346h-.377l-.235.011Zm-2.776-2.1c.737.793 1.48 1.486 2.567 1.575a3.026 3.026 0 0 0-2.567-1.575Z"/><path fill="#9F2234" d="M78.081 154.293a4.122 4.122 0 0 1 2.138-2.131c.073 1.48-.648 2.178-2.138 2.131Z"/><path fill="#000" d="M78.28 154.534h-.612l.167-.356a4.393 4.393 0 0 1 2.27-2.257l.344-.147v.378a2.385 2.385 0 0 1-.549 1.847 2.23 2.23 0 0 1-1.62.535Zm1.662-1.978a3.805 3.805 0 0 0-1.438 1.443 1.56 1.56 0 0 0 1.046-.399c.257-.287.4-.658.403-1.044h-.01Z"/><path fill="#9F2234" d="M74.976 154.23h3.136c-1.045 1.317-2.09 1.281-3.136 0Z"/><path fill="#000" d="M76.56 155.468a2.377 2.377 0 0 1-1.783-1.049l-.35-.431h4.24l-.34.425a2.366 2.366 0 0 1-1.762 1.05l-.005.005Zm-.973-.971c.258.265.605.424.973.446.362-.023.703-.18.956-.44l-1.929-.006Z"/><path fill="#753814" d="M37.294 142.186c-.162-1.396-.22-2.761 1.114-3.706a3.892 3.892 0 0 1-1.114 3.706Z"/><path fill="#000" d="m37.1 142.747-.062-.525c-.178-1.506-.214-2.939 1.223-3.952l.33-.23.073.398a4.157 4.157 0 0 1-1.16 3.936l-.403.373Zm1.12-3.773c-.717.692-.8 1.574-.722 2.587a3.485 3.485 0 0 0 .721-2.582v-.005Z"/><path fill="#F1F4F0" d="M50.222 100.595c0 2.535-1.265 4.356-3.037 4.351-2.055 0-2.567-1.465-2.535-3.149.036-2.063.789-3.91 3.053-4.12 2.033-.2 2.383 1.511 2.52 2.918Z"/><path fill="#000" d="M47.19 105.208a2.69 2.69 0 0 1-1.997-.725c-.56-.572-.82-1.458-.8-2.697.047-2.624 1.213-4.198 3.289-4.377 2.472-.226 2.708 2.146 2.802 3.149a5.259 5.259 0 0 1-1.281 3.752 2.804 2.804 0 0 1-2.013.898Zm.805-7.29h-.271c-2.275.21-2.787 2.215-2.813 3.863 0 1.091.193 1.852.653 2.319a2.125 2.125 0 0 0 1.621.567c.307-.002.611-.066.893-.188.282-.123.537-.302.748-.526a4.733 4.733 0 0 0 1.13-3.358c-.136-1.407-.476-2.677-1.96-2.677Z"/></g></g><defs><clipPath id="a"><path fill="#fff" d="M0 0h300v300H0z"/></clipPath><clipPath id="c"><path fill="#fff" d="M3 0h293v300H3z"/></clipPath><radialGradient id="b" cx="0" cy="0" r="1" gradientTransform="rotate(90 0 150) scale(225)" gradientUnits="userSpaceOnUse"><stop stop-color="#FED523"/><stop offset="1" stop-color="#E19A26"/></radialGradient></defs></svg>