<svg xmlns="http://www.w3.org/2000/svg" fill="none" viewBox="0 0 300 300"><g clip-path="url(#a)"><path fill="#fff" d="M0 0h300v300H0z"/><path fill="url(#b)" d="M-50-50h400v400H-50z"/><g clip-path="url(#c)"><path fill="#0D131A" d="M42.264 98.583c6.769-10.37 16.405-17.656 28.91-21.857 9.57-3.168 18.84-4.168 27.809-3.001l35.462 42.464-2.401 84.678-18.606 38.963-11.204-5.851.85 25.958c-8.203-6.102-18.506-17.839-30.91-35.212-13.872-19.439-24.208-37.846-31.01-55.218-6.436-16.406-8.82-31.794-7.153-46.166 1.134-9.836 3.885-18.089 8.253-24.758Z"/><path fill="#F09CB4" d="M72.724 78.026c4.802-1.9 10.17-2.901 16.105-3.001l7.403.45 35.312 42.314-3.251 81.478-16.856 34.211-13.054 16.706c-5.836-5.435-12.421-12.755-19.757-21.958-14.672-18.473-25.742-37.195-33.211-56.169-11.504-29.376-11.77-53.067-.8-71.073 6.368-10.437 15.738-18.09 28.11-22.958Z"/><path fill="#D0879D" d="M38.913 114.238c.8 5.369 3.4 11.921 7.802 19.657 4.702 8.303 10.687 16.522 17.956 24.658 18.006 20.174 38.63 34.445 61.871 42.815l.6.25-15.705 31.86-13.054 16.706c-5.836-5.435-12.421-12.754-19.757-21.957-14.672-18.473-25.742-37.196-33.211-56.169-8.836-22.575-11.004-41.848-6.502-57.82Z"/><path fill="#0D131A" d="m71.023 198.767 56.469 1.15 7.853 31.811c5.402 22.34 8.553 36.245 9.453 41.714.767 4.735 1.017 8.236.751 10.503-.301 2.501-1.301 4.652-3.002 6.452-3.634 3.802-13.687 5.919-30.16 6.352-28.009.834-47.516 1.251-58.52 1.251-4.6 0-8.219-.584-10.853-1.751-2.434-1.1-3.651-2.517-3.651-4.251 0-2.501 1.8-5.369 5.402-8.603 3.934-3.468 8.636-6.052 14.104-7.753-1.967-2.867-3.934-6.468-5.902-10.803-3.968-8.636-5.952-16.589-5.952-23.858 0-9.037 2.218-17.139 6.653-24.308 3.768-6.102 9.553-12.071 17.355-17.906Z"/><path fill="#F09CB4" d="m127.092 291.998-8.052.55-20.907.9-11.804.451c1.333-4.869.2-9.304-3.401-13.305-4.435-4.902-11.421-6.869-20.957-5.902-3.268-3.468-6.536-8.936-9.804-16.405-3.434-7.77-5.152-13.955-5.152-18.557 0-8.002 3.468-16.038 10.404-24.108 2.6-3.034 8.253-8.269 16.956-15.705l50.617 3.701 12.654 56.119 4.401 18.556c1.134 4.302-.05 7.67-3.551 10.104-2.701 1.867-6.502 3.067-11.404 3.601Z"/><path fill="#D0879D" d="m127.092 291.998-8.052.55-20.907.9-11.804.45c1.333-4.868.2-9.303-3.401-13.304-4.435-4.902-11.421-6.869-20.958-5.902-1.9-2.034-3.95-5.019-6.152-8.953a90.488 90.488 0 0 1-5.551-12.104c10.103 3.134 22.04.9 35.812-6.703 12.837-7.069 26.508-18.339 41.013-33.811l10.554 46.616 4.401 18.556c1.134 4.301-.05 7.669-3.551 10.103-2.701 1.868-6.502 3.068-11.404 3.602Z"/><path fill="#C8C9CA" d="M42.914 292.448c-.133-.434-.1-1 .1-1.701.7-2.167 3.001-4.651 6.902-7.452 3.568-2.601 6.97-4.452 10.204-5.552l8.353-.25c3.968.6 7.469 1.951 10.503 4.051 1.667 1.134 2.818 2.301 3.451 3.501.6 1.101.834 2.418.7 3.952-.166 1.9-.583 3.601-1.25 5.101l-23.208.701c-9.97 0-15.221-.784-15.755-2.351Z"/><path fill="#EEEEEF" d="M43.564 289.547c.767-1.334 2.051-2.768 3.852-4.302 1.667-1.433 3.567-2.8 5.702-4.101l8.602-.65c2.735 0 5.636.867 8.703 2.601 3.001 1.667 4.502 3.168 4.502 4.501 0 1.167-3.668 2.001-11.004 2.501-7.502.5-14.288.317-20.357-.55Z"/><path fill="#0D131A" d="M57.419 219.523c5.168 0 9.52 2.351 13.054 7.053 3.535 4.735 5.302 10.57 5.302 17.506 0 6.969-1.75 12.771-5.252 17.406-3.5 4.601-7.869 6.902-13.104 6.902-5.135 0-9.403-2.334-12.804-7.003-3.335-4.634-5.002-10.453-5.002-17.455 0-6.469 1.7-12.104 5.102-16.906 3.5-5.002 7.736-7.503 12.704-7.503Z"/><path fill="#FDEABE" d="M68.172 228.677c2.968 4.501 4.452 9.72 4.452 15.655 0 5.835-1.534 10.92-4.602 15.255-3.1 4.368-6.752 6.569-10.953 6.602-4.135 0-7.653-2.184-10.554-6.552-2.867-4.301-4.301-9.403-4.301-15.305 0-5.935 1.484-11.154 4.451-15.655 3.001-4.602 6.57-6.903 10.704-6.903 4.135-.033 7.736 2.268 10.803 6.903Z"/><path fill="#DACAA5" d="M57.069 266.189c-3.401 0-6.436-1.55-9.103-4.651-2.601-3.001-4.335-6.819-5.202-11.454 7.936 5.235 17.406 6.285 28.41 3.151-1.268 3.801-3.168 6.885-5.702 9.253-2.568 2.434-5.369 3.668-8.403 3.701Z"/><path fill="#0D131A" d="M40.763 242.481c0-3.434.817-6.169 2.451-8.203 1.634-2.067 3.901-3.101 6.802-3.101s5.202 1.051 6.903 3.151c1.7 2.034 2.55 4.769 2.55 8.203.034 3.401-.85 6.169-2.65 8.303-1.768 2.134-4.102 3.218-7.003 3.251-2.867 0-5.101-1.084-6.702-3.251-1.567-2.068-2.35-4.852-2.35-8.353Z"/><path fill="#F09CB4" d="M44.565 248.883c-1.134-1.7-1.701-3.834-1.701-6.402-.033-2.534.534-4.668 1.7-6.402 1.201-1.767 2.718-2.651 4.552-2.651 1.9 0 3.601.884 5.102 2.651 1.5 1.801 2.25 3.935 2.25 6.402 0 2.468-.75 4.602-2.25 6.402-1.5 1.768-3.201 2.651-5.102 2.651-1.834 0-3.351-.883-4.551-2.651ZM71.224 111.437c1.967-1.734 5.385-1.884 10.253-.45 5.902 1.734 10.62 5.602 14.155 11.604 3.434 5.869 1.133 16.306-6.903 31.311a146.584 146.584 0 0 1-9.603 15.605c-3.1 4.435-5.302 7.169-6.602 8.203l-11.904 9.503-9.653 9.303c-5.102 5.135-8.47 8.236-10.104 9.303a24.464 24.464 0 0 1-6.402 3.001l-4.201.75c-2.634 0-5.052-2.034-7.253-6.102-2.367-4.368-3.55-9.603-3.55-15.705 0-5.902 1.2-11.821 3.6-17.756 2.168-5.335 5.869-11.954 11.104-19.857 3.035-4.535 9.337-11.654 18.907-21.357 7.702-7.769 13.754-13.554 18.156-17.356ZM187.963 77.326c3.201 0 8.102.65 14.705 1.95 6.935 1.368 11.72 2.701 14.354 4.002 4.869 2.434 10.037 5.285 15.506 8.553 8.036 4.834 13.788 8.936 17.255 12.304 3.535 3.434 7.486 6.885 11.854 10.353 3.402 2.734 5.786 4.502 7.153 5.302 1.334.8 3.084 2.301 5.252 4.501 2.634 2.668 4.234 4.902 4.801 6.703 3.301 10.303 3.251 17.872-.15 22.707-2.234 3.101-6.135 4.719-11.704 4.852-4.468.067-8.019-.567-10.653-1.901-1.234-.6-3.468-2.334-6.703-5.201-3.401-3.001-5.952-4.985-7.652-5.952-3.235-1.868-7.353-3.885-12.354-6.052l-7.753-3.252c-2.501-1.133-7.652-4.851-15.455-11.153-9.703-7.87-15.222-13.955-16.556-18.256-2.034-6.503-3.401-12.688-4.101-18.557-.867-7.269-.133-10.903 2.201-10.903Z"/><path fill="#F09CB4" d="M186.662 76.525c2.601 1.3 8.053 7.986 16.356 20.057 4.701 6.836 11.82 17.556 21.357 32.161 5.769 8.603 11.237 19.09 16.405 31.461 4.535 10.77 6.803 17.505 6.803 20.206 0 11.571-2.418 22.925-7.253 34.062-4.835 11.137-11.654 21.074-20.457 29.81-9.169 9.07-19.773 16.105-31.81 21.107-12.905 5.368-26.676 8.053-41.314 8.053-23.741 0-42.731-8.353-56.97-25.059-6.201-7.269-10.953-15.622-14.254-25.058-3.168-9.037-4.752-18.306-4.752-27.81 0-12.637 2.885-24.091 8.653-34.361.967-1.701 1.567-9.587 1.8-23.658.234-14.205.468-21.591.701-22.157.7-1.601 17.523-8.77 50.467-21.508 33.411-12.937 51.501-18.706 54.268-17.306Z"/><path fill="#F09CB4" d="M186.062 192.814c5.068-11.67 11.787-20.423 20.157-26.258 4.868-3.435 11.587-5.552 20.157-6.353 7.736-.767 13.071-.333 16.005 1.301 6.369 3.534 12.671 9.136 18.906 16.806 7.169 8.802 11.604 17.472 13.305 26.008 2.034 10.27 2.667 18.84 1.9 25.709-.9 7.969-3.768 15.305-8.602 22.007-4.635 6.369-12.755 11.037-24.359 14.005-12.571 3.201-24.308 2.818-35.211-1.15-6.136-2.201-11.854-6.636-17.156-13.305-5.502-6.869-8.92-14.171-10.254-21.907-2.067-11.938-.35-24.225 5.152-36.863Z"/><path fill="#FDEABE" d="M214.372 145.599c1.1 8.969.3 17.772-2.401 26.409-8.47 4.534-15.839 11.77-22.108 21.707-6.635 10.503-9.753 20.64-9.353 30.41-4.535 1.567-10.437 3.018-17.706 4.352-8.969 1.667-16.939 2.5-23.908 2.5-13.171 0-23.891-3.117-32.161-9.353-7.069-5.302-12.77-13.271-17.105-23.908-1.367-3.268-2.568-8.536-3.602-15.805-1.1-7.603-1.35-13.171-.75-16.706 6.37 9.604 13.455 16.456 21.257 20.557 12.438 6.569 28.36 8.003 47.766 4.302 15.072-2.901 27.743-10.737 38.013-23.508 7.836-9.737 13.821-21.641 17.956-35.712 1.934 3.201 3.301 8.119 4.102 14.755Z"/><path fill="#D0879D" d="M104.435 261.738c-11.538-7.136-19.69-16.156-24.459-27.059-2.4-5.502-4.518-12.238-6.352-20.207l-2.05-10.304c1.467 4.735 4.835 9.404 10.103 14.005 5.869 5.169 13.121 9.287 21.757 12.354 22.008 7.836 47.616 7.336 76.826-1.5 1.134 5.102 3.268 10.37 6.402 15.805 3.735 6.502 8.02 11.504 12.855 15.005-7.236 3.735-13.722 6.536-19.457 8.403a103.64 103.64 0 0 1-32.511 5.202c-16.105 0-30.477-3.902-43.114-11.704Z"/><path fill="#DACAA5" d="M102.134 241.281c8.97 3.934 19.456 5.902 31.46 5.902 7.27 0 16.423-1.668 27.46-5.002 8.936-2.734 15.755-5.352 20.457-7.853.066 1.434.967 3.968 2.7 7.603 1.668 3.534 3.185 6.169 4.552 7.903-4.535 2.7-11.921 5.168-22.157 7.402-10.204 2.234-19.107 3.351-26.709 3.351-17.006 0-31.728-4.568-44.165-13.704-10.237-7.503-17.306-16.539-21.207-27.11 8.436 10.004 17.639 17.173 27.609 21.508Z"/><path fill="#D0879D" d="M258.486 175.108c7.903 9.203 13.271 18.707 16.106 28.51 3.101 10.704 3.618 20.957 1.55 30.76-2.2 10.537-7.002 18.34-14.405 23.408-4.268 2.901-12.037 5.502-23.307 7.803-12.905 2.667-22.274 2.667-28.11 0-7.035-3.168-12.487-6.436-16.355-9.804-3.768-3.234-6.753-7.169-8.953-11.803-.867-1.768-1.868-4.935-3.001-9.504l-1.401-6.002c.734 2.201 6.336 3.451 16.806 3.752 11.937.333 23.725-1.117 35.362-4.352 12.671-3.501 21.24-11.42 25.708-23.758 1.801-5.002 2.668-10.203 2.601-15.605-.066-5.102-.933-9.57-2.601-13.405ZM72.724 177.059l-8.403 7.453c-6.102 5.468-10.387 9.453-12.854 11.954-2.834 2.901-6.436 5.752-10.804 8.553-4.168 2.701-7.269 4.234-9.303 4.601-3 .534-5.652-1.467-7.953-6.002.9.2 2.785-.383 5.652-1.75 3.068-1.468 6.302-3.402 9.704-5.802 1.6-1.134 8.202-6.953 19.806-17.456 10.604-9.637 17.506-15.272 20.707-16.906-1.267 1.467-2.734 4.468-4.401 9.003a120.298 120.298 0 0 0-2.151 6.352ZM225.375 128.443l9.453 4.501c6.969 3.402 12.054 6.136 15.256 8.203 4.168 2.734 9.219 5.419 15.155 8.053 6.402 2.801 10.853 4.168 13.354 4.101-1.367 1.501-3.418 2.751-6.152 3.751-2.868 1.001-5.385 1.334-7.552 1.001-2.101-.334-4.719-1.267-7.853-2.801-2.834-1.401-5.385-2.934-7.653-4.602-1.667-1.233-4.234-2.934-7.702-5.101l-5.852-3.702c-.7-.466-1.717-.933-3.051-1.4l-1.801-.55-5.602-11.454ZM186.862 77.326l6.503.55c-.234 13.204-3.118 23.808-8.653 31.811-8.336 12.07-23.191 20.34-44.565 24.808-21.074 4.401-38.263 3.751-51.568-1.951-8.37-3.568-15.271-9.303-20.707-17.206l5.202-4.301c8.303 4.635 16.74 6.919 25.309 6.852 7.369-.066 19.239-2.1 35.612-6.102 14.705-3.601 26.475-8.386 35.311-14.355 8.137-5.501 13.989-12.204 17.556-20.106Z"/><path fill="#0D131A" d="M101.934 252.285c-9.003-4.802-15.855-11.154-20.557-19.057-1.2-2.034-2.417-4.751-3.651-8.153l-1.45-4.551c15.505 15.739 31.877 24.275 49.116 25.609 15.238 1.2 33.644-3.268 55.218-13.405l.751 3.251c-18.307 10.104-36.746 14.355-55.319 12.754-18.94-1.633-34.578-9.086-46.916-22.357 10.47 16.672 25.142 26.842 44.015 30.51 18.106 3.568 39.38 1.034 63.821-7.602l1.651 2.5c-8.069 3.968-17.222 6.769-27.459 8.403-10.437 1.634-20.691 1.851-30.761.65-10.77-1.333-20.256-4.184-28.459-8.552ZM194.065 90.88c5.902 21.041 6.085 38.097.55 51.168-6.569 15.538-21.374 26.125-44.415 31.76-22.341 5.469-39.863 1.934-52.568-10.603-9.37-9.237-16.372-23.892-21.007-43.965-.233-.967.084-1.584.95-1.851.768-.266 1.618-.166 2.551.301 18.44 9.336 40.648 9.286 66.623-.151 10.003-3.634 19.123-8.202 27.359-13.704 7.603-5.102 12.638-9.703 15.105-13.805.934-1.567 1.817-2.317 2.651-2.25.934.033 1.667 1.067 2.201 3.1Z"/><path fill="#FDEABE" d="m191.714 90.48 1.951 9.553c3.568 19.84 1.767 35.545-5.402 47.116l-.05-.35-.2.3.25.05c-7.569 11.604-20.657 19.657-39.263 24.158-16.172 3.935-29.894 2.384-41.164-4.651-9.737-6.136-17.406-16.206-23.008-30.211-1.8-4.468-3.451-9.836-4.952-16.105 4.935 4.235 12.838 6.486 23.708 6.752 10.104.2 21.241-1.3 33.412-4.501 12.204-3.235 23.141-7.586 32.811-13.055 10.436-5.935 17.739-12.287 21.907-19.056Z"/><path fill="#DACAA5" d="m191.714 90.48.3 1.4c-1.934 9.87-6.319 18.107-13.154 24.709-8.737 8.403-21.641 14.371-38.713 17.906-24.609 5.101-43.882 3.368-57.82-5.202l-2.45-8.953c4.934 4.235 12.837 6.486 23.707 6.752 10.104.2 21.241-1.3 33.412-4.501 12.204-3.235 23.141-7.586 32.811-13.055 10.436-5.935 17.739-12.287 21.907-19.056Z"/><path fill="#0D131A" d="M230.577 88.78c6.469 3.867 14.372 9.636 23.708 17.305l16.155 12.755c4.769 3.968 7.953 7.636 9.554 11.003 1.734 3.735 2.634 7.87 2.701 12.405.033 4.768-.917 8.736-2.851 11.903-1.101 1.801-3.452 3.252-7.053 4.352-4.034 1.234-7.836 1.317-11.404.25-3.234-.967-7.469-3.368-12.704-7.202-6.035-4.435-11.204-7.62-15.505-9.554l11.654 19.207 4.001 3.201a97.355 97.355 0 0 1 9.303 8.903c9.37 10.17 15.339 20.54 17.906 31.11 4.435 18.14 3.385 32.528-3.151 43.165-5.968 9.703-16.739 16.555-32.311 20.557-6.935 1.767-14.104 1.984-21.507.65-6.635-1.2-12.737-3.485-18.306-6.852-8.936 4.101-18.023 7.269-27.259 9.503-9.203 2.267-17.623 3.368-25.259 3.301-30.31-.1-52.434-11.537-66.372-34.312-5.535-9.069-9.27-19.273-11.204-30.61-1.734-10.103-1.85-19.723-.35-28.86l-5.301 4.602c-4.502 4.068-9.154 8.636-13.955 13.705-5.269 5.568-10.337 9.169-15.205 10.803-3.935 1.334-7.103 1.267-9.504-.2-2.767-1.7-4.968-4.301-6.602-7.802-2.367-5.035-3.268-11.471-2.7-19.307.6-8.936 6.118-20.457 16.555-34.561 10.47-14.172 22.758-26.709 36.862-37.613 5.702-4.402 13.838-9.287 24.409-14.655 12.037-6.169 22.424-10.32 31.16-12.454 33.178-8.103 59.453-9.87 78.826-5.302 8.77 2.067 17.34 5.602 25.709 10.604Zm-24.608-7.353c-9.904-2.534-21.107-3.451-33.612-2.75-12.837.766-28.076 3.3-45.715 7.602-10.47 2.567-21.69 7.252-33.661 14.054-11.67 6.636-22.691 14.522-33.061 23.658-10.67 9.404-19.39 19.007-26.159 28.81-7.27 10.57-11.604 20.424-13.004 29.56-.834 5.568-.384 10.987 1.35 16.255 1.6 4.902 3.618 7.92 6.052 9.053 3.168 1.468 7.07.517 11.704-2.85 2.434-1.768 6.135-5.236 11.104-10.404 2.7-2.801 6.902-6.736 12.604-11.804l7.753-6.802c1.867-5.335 3.817-9.67 5.852-13.005 1.467-2.4 2.467-3.367 3-2.901.567.434.317 1.684-.75 3.752-5.001 9.603-7.135 21.324-6.402 35.161.8 14.505 4.668 27.66 11.604 39.464 7.87 13.371 18.64 22.824 32.311 28.359 15.839 6.402 34.478 6.986 55.919 1.751 3.901-.934 8.653-2.434 14.254-4.502 4.502-1.667 7.903-3.067 10.204-4.201-5.535-3.935-9.887-8.703-13.055-14.305-3.367-5.902-5.168-12.271-5.401-19.106-31.678 7.636-55.502 6.535-71.474-3.301-16.406-10.037-24.275-29.127-23.608-57.27.033-1.734.517-2.5 1.45-2.3.8.2 1.618.983 2.451 2.35 5.002 8.47 11.82 14.922 20.457 19.357 12.871 6.569 28.343 7.652 46.416 3.251 17.339-4.235 30.927-13.621 40.763-28.159 3.301-4.935 6.252-10.587 8.853-16.956l4.602-12.554c.433-1.167 1.017-1.684 1.75-1.551.634.1 1.101.55 1.401 1.351 3.067 7.869 4.451 16.088 4.151 24.658-.2 5.435-1.034 10.603-2.501 15.505 4.368-1.067 8.37-1.434 12.004-1.1 3.135.3 4.702.85 4.702 1.65l-6.252.15c-4.868.067-8.62.717-11.254 1.951-7.903 3.668-14.905 10.47-21.007 20.407-6.035 9.87-9.136 19.456-9.303 28.759-.1 6.403 1.184 12.638 3.851 18.707 2.734 6.168 6.602 11.437 11.604 15.805 11.537 10.07 25.625 13.038 42.264 8.903 14.472-3.601 24.458-10.103 29.96-19.507 5.902-10.07 6.769-23.657 2.601-40.763-2.734-11.237-8.686-21.774-17.856-31.611a89.542 89.542 0 0 0-9.003-8.503l-3.901-2.901c-9.903-18.506-15.489-29.176-16.756-32.01-.933-2.068-1.15-3.168-.65-3.302.433-.1 1.2.701 2.301 2.401l5.452 9.253c3.267 1.468 8.536 4.535 15.805 9.203 6.435 4.135 10.954 6.603 13.554 7.403l10.554.35c2.734-.733 4.568-1.784 5.502-3.151 1.034-1.467 1.65-4.251 1.85-8.353.234-4.935-.516-9.17-2.25-12.704-1.401-2.834-4.068-5.919-8.003-9.253-4.768-3.701-8.253-6.536-10.453-8.503-10.004-8.97-18.623-15.789-25.859-20.457-8.87-5.668-17.889-9.686-27.059-12.054Zm6.852 76.176c.6-10.304-.167-18.557-2.301-24.759-1.1 7.803-4.268 16.122-9.503 24.959-10.537 17.639-26.209 28.993-47.016 34.061-17.939 4.368-33.594 2.984-46.965-4.151-9.504-5.069-16.523-11.921-21.058-20.557-.166 23.875 7.17 41.114 22.008 51.717 16.472 11.771 40.097 13.271 70.874 4.502.4-12.504 4.268-23.992 11.604-34.462 6.368-9.036 13.304-14.938 20.807-17.706.733-3.901 1.25-8.436 1.55-13.604Z"/><path fill="#0D131A" d="M225.976 194.115c7.335-1.801 13.988-1.284 19.956 1.55 6.102 2.901 9.937 7.536 11.504 13.905 1.567 6.369.367 12.254-3.601 17.656-3.935 5.302-9.553 8.853-16.856 10.653-7.336 1.768-13.904 1.217-19.706-1.65-5.902-2.934-9.637-7.603-11.204-14.005-1.567-6.435-.45-12.287 3.351-17.556 3.735-5.268 9.253-8.786 16.556-10.553Z"/><path fill="#FDEABE" d="M226.326 196.065c6.102-1.467 11.92-.7 17.455 2.301 5.469 2.968 8.853 7.119 10.154 12.454 1.267 5.269.183 10.304-3.251 15.105-3.435 4.769-8.236 7.903-14.405 9.404-6.135 1.5-11.837.917-17.106-1.751-5.268-2.668-8.553-6.636-9.853-11.904-1.301-5.335-.317-10.537 2.951-15.605 3.334-5.202 8.019-8.536 14.055-10.004Z"/><path fill="#DACAA5" d="M236.279 235.329c-3.801.934-7.569 1.017-11.304.25-3.601-.734-6.735-2.167-9.403-4.301 5.935-.734 11.671-1.868 17.206-3.402 9.27-2.534 16.422-7.635 21.457-15.305.667 5.002-.7 9.687-4.101 14.055-3.435 4.401-8.053 7.302-13.855 8.703Z"/><path fill="#0D131A" d="M233.778 227.076c-3.668.9-6.902.6-9.703-.9-2.934-1.567-4.852-4.185-5.752-7.853-.834-3.468-.317-6.686 1.55-9.653 1.834-2.934 4.419-4.818 7.753-5.652 3.234-.767 6.302-.25 9.203 1.55 3.001 1.801 4.902 4.402 5.702 7.803.8 3.268.317 6.369-1.45 9.303-1.768 2.834-4.202 4.635-7.303 5.402Z"/><path fill="#F09CB4" d="M232.478 223.875c-2.801.7-5.169.433-7.103-.8-1.834-1.167-3.067-3.068-3.701-5.702-.567-2.268-.133-4.585 1.3-6.953 1.434-2.4 3.302-3.868 5.602-4.401 2.635-.634 5.102-.133 7.403 1.5 2.101 1.501 3.418 3.352 3.951 5.552.6 2.535.033 4.885-1.7 7.053-1.534 1.934-3.452 3.184-5.752 3.751Z"/><path fill="#0D131A" d="M36.812 194.115c1.967-1.834 4.452-2.634 7.453-2.401 2.867.2 4.801 1.184 5.801 2.951 1.2 2.068 1.701 4.052 1.501 5.952-.267 2.234-1.45 4.202-3.551 5.902-1.9 1.534-4.152 2.284-6.752 2.251-2.635-.033-4.635-.917-6.003-2.651-1.5-1.867-2.067-3.934-1.7-6.202.3-2.167 1.384-4.101 3.251-5.802Z"/><path fill="#EEEEEF" d="M48.616 199.917c.033 1.534-.5 2.801-1.6 3.801-1.401 1.234-2.668 2.018-3.802 2.351-1.534.467-2.968.183-4.301-.85-3.235-2.534-3.468-5.252-.7-8.153 1.2-1.267 2.634-2.084 4.3-2.451 1.835-.4 3.285-.017 4.352 1.151 1.134 1.267 1.718 2.65 1.751 4.151Z"/><path fill="#C8C9CA" d="M36.912 203.068c1.767.8 3.768.934 6.002.4 2.2-.567 4.085-1.634 5.652-3.201-.067 1.401-.584 2.551-1.55 3.451-1.401 1.234-2.668 2.018-3.802 2.351-1.534.467-2.968.183-4.301-.85-.9-.7-1.567-1.417-2.001-2.151Z"/><path fill="#0D131A" d="M251.784 149.55c.434-2.268 1.884-3.968 4.352-5.102l7.652-.2c2.068.867 3.535 2.051 4.402 3.551.933 1.634 1.233 3.701.9 6.202-.267 1.868-1.401 3.368-3.401 4.502-2.201 1.267-4.835 1.584-7.903.95-2.267-.467-3.968-1.717-5.102-3.751-1.033-1.901-1.333-3.951-.9-6.152Z"/><path fill="#EEEEEF" d="M254.535 149.4c.367-1.534 1.467-2.551 3.301-3.051l4.952.2c3.801 1.301 4.851 3.818 3.151 7.553-.7 1.567-1.851 2.501-3.451 2.801l-4.452-.35c-1.434-.367-2.484-1.251-3.151-2.651-.633-1.367-.75-2.868-.35-4.502Z"/><path fill="#C8C9CA" d="M258.036 156.552c-1.234-.333-2.184-1.033-2.851-2.1-.633-1.034-.917-2.251-.85-3.652 1.334 1.267 3.051 2.284 5.152 3.051 2.034.701 4.034 1.051 6.002 1.051-1.301 2-3.785 2.551-7.453 1.65Z"/><path fill="#0D131A" d="M218.623 260.187c4.468-5.235 9.937-8.636 16.406-10.203 7.335-1.801 14.154-1.351 20.456 1.35 6.303 2.668 9.07 6.219 8.303 10.654-.367 2.167-2.317 4.134-5.852 5.902-3.634 1.834-9.536 3.718-17.706 5.652-9.903 2.367-16.855 3.334-20.857 2.901-3.034-.334-4.868-1.634-5.502-3.902-.967-3.368.617-7.486 4.752-12.354Z"/><path fill="#C8C9CA" d="m260.387 259.687.15.5c.434 1.734-1.834 3.668-6.802 5.802-3.735 1.601-8.353 3.084-13.855 4.452-7.669 1.867-13.288 2.834-16.855 2.901-3.735.033-5.836-.901-6.303-2.801l-.05-.551c6.703-.7 14.055-1.984 22.058-3.851 8.203-1.934 15.422-4.085 21.657-6.452Z"/><path fill="#EEEEEF" d="M236.879 252.485c5.269-1.301 10.437-.951 15.505 1.05 4.335 1.7 7.003 3.751 8.003 6.152-6.235 2.367-13.455 4.518-21.657 6.452-8.003 1.867-15.355 3.151-22.058 3.851-.066-2.467 1.851-5.568 5.752-9.303 4.302-4.168 9.12-6.902 14.455-8.202Z"/><path fill="#0D131A" d="M181.611 88.48c-9.537 11.87-25.159 20.44-46.866 25.708-22.408 5.469-40.097 6.152-53.068 2.051-10.804-3.435-17.39-9.72-19.757-18.857-1.167-4.401-.767-10.27 1.2-17.605 2.202-8.103 3.102-14.038 2.702-17.806-1.4-14.038 2.267-26.426 11.003-37.163 8.103-9.903 18.773-16.505 32.011-19.807 13.438-3.334 26.109-2.35 38.013 2.951 13.204 5.902 22.924 16.273 29.16 31.11.8 1.902 3.101 5.57 6.902 11.005 3.435 4.935 5.552 8.77 6.352 11.503 1.034 3.668 1.001 7.736-.1 12.205-1.234 5.101-3.751 10.003-7.552 14.704Z"/><path fill="#F09CB4" d="M181.31 52.817c2.735 4.002 4.469 7.503 5.202 10.504 2.401 9.803-2.267 19.606-14.004 29.41-10.837 9.003-24.159 15.438-39.964 19.306-21.907 5.335-38.846 5.869-50.817 1.601-9.236-3.268-14.772-8.937-16.606-17.006-.933-4.068-.6-9.27 1-15.605 1.835-7.27 2.585-13.388 2.252-18.356-.9-13.638 2.717-25.526 10.853-35.662 7.536-9.37 17.44-15.589 29.71-18.657 12.404-3.134 24.292-2.25 35.662 2.651 12.538 5.402 22.141 14.889 28.81 28.46l3.651 6.552 4.251 6.802Z"/><path fill="#0D131A" d="M88.13 67.973c-1.601.3-3.152.033-4.652-.8-1.534-.867-2.484-2.068-2.851-3.602-.534-2.234-.4-4.234.4-6.002.9-1.867 2.417-3.067 4.551-3.6 1.734-.401 3.318.066 4.752 1.4 1.4 1.3 2.2 2.95 2.4 4.951.2 1.8-.1 3.418-.9 4.852-.867 1.567-2.1 2.5-3.7 2.8Z"/><path fill="#fff" d="M86.529 59.87a2.162 2.162 0 0 1-1.85-.35c-.601-.4-.985-.95-1.151-1.65-.167-.6-.084-1.201.25-1.801.367-.634.883-1.034 1.55-1.2.634-.134 1.217.016 1.75.45.468.4.784.933.951 1.6.167.7.1 1.334-.2 1.9-.3.567-.733.918-1.3 1.051Z"/><path fill="#0D131A" d="m151.951 51.667-4.702-.15c-1.667-.667-2.884-1.817-3.651-3.451-.834-1.8-1.017-3.635-.55-5.502.466-2 1.567-3.351 3.301-4.051 1.767-.7 3.534-.6 5.302.3 1.667.834 2.917 2.167 3.751 4.001.767 1.6.817 3.301.15 5.102-.667 1.9-1.867 3.151-3.601 3.751Z"/><path fill="#fff" d="M148.7 44.014c-.501.134-1.034.017-1.601-.35-.6-.366-.967-.85-1.1-1.45-.167-.667-.117-1.284.15-1.85.266-.6.717-.984 1.35-1.151.667-.133 1.251-.033 1.751.3.533.334.867.834 1 1.5.167.667.117 1.301-.15 1.901-.3.6-.767.967-1.4 1.1Z"/><path fill="#0D131A" d="M121.14 75.175c-.166.3-1.033.05-2.601-.75-1.567-.767-2.167-1.368-1.8-1.801.4-.5 1.284-.267 2.651.7 1.333.934 1.917 1.55 1.75 1.85Z"/><path fill="#922F00" d="M109.787 82.477c7.402.5 12.57.384 15.505-.35 3.234-.8 7.536-3.284 12.904-7.452 5.402-4.168 9.687-6.67 12.854-7.503 2.601-.7 5.352-.967 8.253-.8 2.634.1 4.902.517 6.802 1.25 5.602 11.404 4.969 20.39-1.9 26.96-4.768 4.534-14.538 9.002-29.31 13.404-13.871 4.168-25.158 5.402-33.861 3.701-11.538-2.301-17.69-9.687-18.457-22.157 1.067-1.2 2.385-2.385 3.952-3.552 1.867-1.4 3.45-2.25 4.751-2.55 4.835-1.1 11.004-1.418 18.507-.95Z"/><path fill="#0D131A" d="M127.392 73.675c-.4-.267-.183-1.15.651-2.651.833-1.467 1.533-2.018 2.1-1.65.567.366.334 1.216-.7 2.55-1.067 1.367-1.75 1.95-2.051 1.75Z"/><path fill="#0D131A" d="M125.892 83.378c-3.535.8-9.42.967-17.656.5-7.436-.4-12.554-.033-15.355 1.1-3.802 1.534-6.686 3.201-8.653 5.002-1.634 1.5-2.834 3.318-3.601 5.452-.467 1.334-1.05 1.834-1.75 1.5-.701-.3-.868-1-.501-2.1 2.067-6.47 6.535-10.837 13.404-13.105 3.668-1.2 9.037-1.434 16.106-.7 7.536.767 13.371.667 17.506-.3 4.335-1 8.503-3.418 12.504-7.252 4.035-3.868 8.686-6.453 13.955-7.753 5.601-1.367 11.403-.7 17.405 2 1.201.534 1.801 1.068 1.801 1.601l-2.251.05c-3.134-1.1-5.968-1.717-8.503-1.85-2.334-.1-4.835.166-7.502.8-4.201 1.033-8.686 3.584-13.455 7.652-4.701 4.002-9.186 6.47-13.454 7.403Z"/><path fill="#0D131A" d="m164.655 67.623 1.35-.15c1.034.166 1.618.366 1.751.6 5.168 9.703 4.885 17.923-.85 24.658-5.702 6.702-17.023 12.271-33.962 16.706-15.272 3.968-27.492 4.401-36.662 1.3-9.503-3.234-14.371-9.82-14.605-19.756-.033-.267.3-.767 1-1.501.667-.734 1.017-.967 1.05-.7.634 10.17 5.286 16.822 13.955 19.957 8.37 3.034 19.957 2.617 34.762-1.251 16.539-4.335 27.493-10.037 32.861-17.106 5.069-6.735 4.852-14.321-.65-22.757Z"/><path fill="#0D131A" d="m117.589 89.73 9.353-.4c2.701-.7 5.585-2.251 8.653-4.652 3.068-2.4 6.736-4.135 11.004-5.202 6.135-1.5 11.287-1.6 15.455-.3 3.868 1.234 6.202 3.418 7.002 6.552.634 2.501.734 5.436.3 8.803-.466 3.668-.566 6.319-.3 7.953 1.734 10.337 8.403 29.86 20.007 58.57 12.037 29.776 19.056 49.35 21.057 58.719 2.801 12.971.667 24.742-6.402 35.312-6.569 9.837-15.505 16.139-26.809 18.907-12.904 3.167-24.225 2.417-33.961-2.251-10.704-5.135-18.473-14.622-23.308-28.46-2.868-8.203-6.402-28.443-10.604-60.72-4.335-33.245-8.219-55.419-11.654-66.522-.633-2.068-2.117-4.302-4.451-6.703-2.3-2.3-3.518-3.734-3.651-4.301-.967-3.668 1.45-7.22 7.252-10.654 6.135-3.634 13.154-5.185 21.057-4.651Z"/><path fill="#EB6D65" d="m119.14 92.18 8.352-.4c2.901-.866 6.136-2.667 9.704-5.401 3.167-2.334 6.535-3.935 10.103-4.802 5.335-1.3 9.837-1.483 13.505-.55 3.334.834 5.368 2.401 6.102 4.702.566 2.4.533 5.151-.1 8.252-.701 3.135-.751 6.119-.15 8.954 2.767 13.504 9.486 33.761 20.156 60.77 10.971 27.676 17.49 46.099 19.557 55.268 2.701 11.938 1.25 22.808-4.352 32.611-5.635 9.904-14.238 16.406-25.808 19.507-12.771 3.434-24.042 2.251-33.812-3.551-9.569-5.702-16.438-15.055-20.607-28.06-1.233-3.768-4.234-21.94-9.003-54.518-4.901-33.478-9.053-56.169-12.454-68.073-1.033-3.668-2.817-6.652-5.352-8.953-2.4-2.201-3.65-3.568-3.75-4.101-.3-1.567 1.033-3.485 4-5.752 3.335-2.534 7.503-4.418 12.505-5.652 3.501-.834 7.302-.917 11.404-.25Z"/><path fill="#CB5D57" d="m128.393 95.582-10.204.65c-3.901-.233-7.452-.016-10.653.65a37.886 37.886 0 0 0-9.504 3.352c-2 1.033-4.2 2.434-6.602 4.201l-.2-.6c-.3-1.567 1.034-3.485 4.002-5.752 3.334-2.534 7.502-4.418 12.504-5.652 3.501-.834 7.302-.917 11.404-.25l8.352-.4c2.901-.867 6.136-2.668 9.704-5.402 3.167-2.334 6.535-3.935 10.103-4.802 5.335-1.3 9.837-1.483 13.505-.55 3.334.834 5.368 2.401 6.102 4.702l.4 2.35c-3.501-1.367-6.169-2.25-8.003-2.65-3.501-.8-6.786-.884-9.853-.25-2.234.433-5.369 2.067-9.403 4.901-4.102 2.868-7.986 4.702-11.654 5.502ZM121.791 239.48c-.801-2.467-1.934-8.052-3.402-16.755 5.135 11.604 11.588 21.323 19.357 29.159 10.703 10.804 21.557 14.889 32.561 12.255 10.503-2.535 19.106-6.869 25.808-13.005 5.402-4.968 9.187-10.687 11.354-17.156-.8 8.903-3.918 16.673-9.353 23.308-5.602 6.802-12.904 11.404-21.907 13.805-12.771 3.434-24.042 2.251-33.812-3.551-9.569-5.702-16.438-15.055-20.606-28.06Z"/><path fill="#0D131A" d="M131.294 106.336c-.634-2.901-.701-4.435-.2-4.602.5-.2 1.167 1.2 2 4.201 3.301 11.771 9.32 35.112 18.056 70.024l13.755 54.668c.834 3.035.9 4.519.2 4.452-.667-.067-1.45-1.317-2.351-3.751-.4-1.101-4.735-18.273-13.004-51.518l-18.456-73.474Z"/></g></g><defs><clipPath id="a"><path fill="#fff" d="M0 0h300v300H0z"/></clipPath><clipPath id="c"><path fill="#fff" d="M16 0h268v298H16z"/></clipPath><radialGradient id="b" cx="0" cy="0" r="1" gradientTransform="rotate(90 0 150) scale(200)" gradientUnits="userSpaceOnUse"><stop stop-color="#FDEABE"/><stop offset="1" stop-color="#F09CB4"/></radialGradient></defs></svg>