<svg xmlns="http://www.w3.org/2000/svg" fill="none" viewBox="0 0 300 300"><g clip-path="url(#a)"><path fill="#fff" d="M0 0h300v300H0z"/><path fill="url(#b)" d="M-50-50h400v400H-50z"/><path fill="#BA5400" d="M245.79 74.73c7.536 9.596 12.405 19.392 14.606 29.388 5.669 26.457 4.001 50.214-5.002 71.272-4.069 9.53-9.571 17.094-16.507 22.691-5.336 4.332-12.039 7.797-20.109 10.396-4.668 1.533-11.038 2.099-19.108 1.7-7.469-.334-13.872-1.267-19.208-2.799-4.268-1.2-8.136-3.965-11.604-8.297-3.335-4.265-5.803-9.296-7.403-15.094-1.401-5.265-2.068-11.196-2.001-17.793.066-5.465.533-9.996 1.4-13.595.934-3.932 2.668-7.83 5.202-11.695 2.335-3.466 5.636-7.331 9.905-11.596l10.504-11.095 8.704-9.297 10.904-11.495c4.535-5.398 7.336-9.93 8.404-13.595 1.333-4.598 2.1-8.396 2.3-11.395.201-3.466-.233-6.731-1.3-9.796l-2.501-6.698-2.301-3.798c6.803.8 13.339 3.265 19.608 7.397 4.869 3.198 10.038 8.263 15.507 15.194ZM74.719 76.529c-1.067 10.196-2.935 18.493-5.603 24.89-2.334 4.398-5.002 8.463-8.003 12.195-3.602 4.399-5.902 5.831-6.903 4.299-2.734-3.999-5.269-9.93-7.603-17.793-2.535-8.864-3.702-16.927-3.502-24.19.267-8.198 1.234-16.594 2.902-25.191 1.8-9.196 4.068-16.793 6.803-22.791 4.935-10.93 10.07-18.96 15.406-24.09-.133 6.463.167 11.861.9 16.193l4.802 25.99c1.6 9.33 1.868 19.492.8 30.488Z"/><path fill="#0D131A" d="M64.714 98.92c-.333 2.532-1.867 4.998-4.602 7.397-2.667 2.399-4.301 2.766-4.902 1.1-1.467-4.065-2.7-9.697-3.701-16.894-.934-7.197-1.267-13.128-1-17.793 1.333-23.057 5.435-39.384 12.305-48.98l1.2 6.797c.4 2.599.767 4.431 1.1 5.498l1.701 12.395c.667 7.264.9 13.095.7 17.493l-1.2 18.193-1.6 14.794Z"/><path fill="#BA5400" d="m210.475 96.72 2.101-.599c.333.133.333.8 0 2-.934 3.931-2.335 7.53-4.202 10.795 4.335-1.466 8.604-3.565 12.805-6.297 1.601-1 2.501-.734 2.701.799.867 6.864 1.201 12.329 1.001 16.394 2.734-2.333 5.202-5.198 7.403-8.597l1.1-1.199c.334-.067.601.466.801 1.599l1.5 8.896c.734 3.799 1.401 6.565 2.001 8.297 1.668-2.732 3.402-7.097 5.202-13.095l1.001-1.599 1.2 1.399 4.602 8.397c.867-1.932 1.567-5.531 2.101-10.796.133-1.132.334-1.766.6-1.899l1.501 1.1 5.102 7.197c.467-.933.8-2.532 1-4.798l.1-5.698c-.066-.933.334-.333 1.201 1.799.734 1.933 1 3.499.8 4.698-.2 2.066-.667 3.732-1.4 4.998l-1.401 1.9-1.801-1.9-3.601-4.598c-.534 3.999-1.267 7.031-2.201 9.097l-1.401 2.099c-.266.067-.8-.333-1.6-1.2-1.001-1.133-2.435-3.332-4.302-6.597-1.601 5.131-3.235 9.096-4.902 11.895-1.067 1.866-1.868 2.666-2.401 2.399-.534-.266-1.067-1.499-1.601-3.698l-3.101-14.494c-1.534 2.065-3.802 4.165-6.803 6.297-1.134.8-1.867 1.1-2.201.9-.333-.2-.5-.967-.5-2.299 0-4.065-.367-9.23-1.1-15.494l-8.504 4.598-6.203 2.499c-1.133.266-1.8.266-2 0-.2-.333-.067-1.033.4-2.099l4.702-10.496c-4.135 2.665-7.27 4.198-9.404 4.598l1.2-1.999c1.001-1.4 1.668-2.166 2.001-2.3l6.503-2.898Z"/><path fill="#FFF1AC" d="m205.773 100.02-2.501.599c2.868-2.932 5.402-6.23 7.603-9.896 2.334-3.798 3.868-7.263 4.602-10.396 1.601-6.93 1.367-13.261-.7-18.992-1.801-4.998-3.235-8.23-4.302-9.696 2.734 0 6.236.9 10.504 2.699a52.345 52.345 0 0 1 12.806 7.697c7.803 6.197 14.139 14.027 19.007 23.49 3.735 7.397 6.87 16.394 9.404 26.99-.6 3.598-1.534 6.531-2.801 8.796l-6.202-7.897c-.534 5.132-1.634 9.23-3.302 12.296-1.4-1.6-3.368-4.765-5.902-9.497-1.734 5.931-3.902 10.929-6.503 14.994-1.601-4.798-3.068-11.262-4.402-19.392l-4.302 5.498-4.702 4.198-.4-9.996-1.1-8.297-8.504 4.599-7.703 3.298 2.901-6.197c1.268-2.932 2.001-5.298 2.201-7.098l-5.702 2.2Z"/><path fill="#933F00" d="M261.896 114.014c2.535 16.794 2.168 31.854-1.1 45.182-3.402 14.062-8.437 24.991-15.107 32.788-8.67 10.129-20.641 16.093-35.914 17.892l-20.609-.599c-6.403-1-11.105-2.299-14.106-3.899-1.2-.6-2.768-2.765-4.702-6.497l-2.501-5.398c26.011 1.999 46.886-3.599 62.626-16.793 15.407-12.862 24.644-31.821 27.712-56.878l1.2 1.499c1.001-1.799 1.834-4.231 2.501-7.297Z"/><path fill="#DCD096" d="M261.896 114.014c-.667 3.065-1.5 5.498-2.501 7.297l-1.2-1.499.2-1 .4-8.996-.1-9.796 1.701 5.497 1.5 8.397v.1Z"/><path fill="#0D131A" d="m209.775 52.338-.401-1.599 1.601-.2c16.474 2.532 30.146 12.495 41.017 29.888 12.672 20.192 16.607 44.683 11.805 73.471-3.935 24.124-14.306 40.818-31.113 50.081-15.673 8.73-34.681 9.929-57.024 3.598-2.067-.599-3.034-1.233-2.901-1.899l3.202-.2c21.609 5.598 39.783 4.232 54.522-4.098 15.873-8.997 25.711-24.957 29.512-47.881 4.536-27.523 1.001-51.147-10.604-70.873-9.871-16.793-22.142-26.622-36.815-29.488 5.535 10.33 6.869 19.892 4.001 28.689-2.334 7.264-7.669 15.26-16.006 23.99l-15.207 15.594c-8.803 9.197-14.739 15.961-17.807 20.292-3.668 5.198-5.869 11.129-6.603 17.793-.733 6.731.134 13.562 2.601 20.492.801 2.266.901 3.465.301 3.599-.601.2-1.401-1-2.401-3.599-2.868-7.53-3.969-14.794-3.302-21.791.667-6.798 2.935-12.929 6.803-18.393 3.068-4.332 8.77-10.862 17.107-19.592l15.607-15.994 9.103-10.296c2.935-3.798 5.236-7.73 6.903-11.795 3.402-8.53 2.101-18.46-3.901-29.789ZM66.915 3.558c1.134-1.333 1.901-1.866 2.301-1.6.4.2.534 1.133.4 2.8-.2 4.864.034 9.962.7 15.293.468 3.665 1.368 8.563 2.702 14.694 2.734 12.595 3.968 23.624 3.701 33.087-.266 10.33-2.3 20.859-6.102 31.588-.6 1.733-1.2 2.532-1.8 2.399-.534-.2-.534-1.2 0-2.999 3.334-10.596 5.035-21.591 5.101-32.987 0-9.196-1.067-19.426-3.201-30.688-2.268-11.195-3.401-20.025-3.401-26.49l.1-2.498c-11.072 13.86-18.108 31.254-21.11 52.18-3.134 22.124-.533 41.183 7.804 57.177.734 1.399.767 2.299.1 2.699-.6.333-1.267-.2-2-1.6-9.871-18.86-12.673-39.85-8.404-62.975 3.735-20.059 11.438-36.752 23.11-50.08Z"/><path fill="#0D131A" d="M61.313 23.35c.934-1.466 1.6-2.166 2-2.1.401.067.734 1.067 1.001 3l1.801 11.195c1.734 9.063 2.601 18.992 2.601 29.788 0 11.729-1.067 23.091-3.201 34.087l-1.5.4-.701-.5c2.134-10.596 3.201-21.725 3.201-33.387.067-10.93-.8-20.925-2.6-29.988l-1.602-9.996c-5.802 9.063-9.17 22.857-10.104 41.383-.867 16.994.367 29.689 3.702 38.085.267.667.1 1.233-.5 1.7-.6.466-1.068.3-1.401-.5-3.535-9.197-4.902-22.158-4.102-38.885.934-19.059 4.736-33.82 11.405-44.282Z"/><path fill="#FFF1AC" d="M64.114 184.587c8.07-5.332 19.575-11.029 34.514-17.094l35.715-13.394c7.403-3.932 14.973-4.799 22.71-2.599l-2.401 2.799c-1.267 1.666-2.168 3.165-2.701 4.498 2.867-.333 6.336.133 10.404 1.399 3.401 1.066 5.869 2.133 7.403 3.199-3.268.333-6.669 1.666-10.204 3.998l2.601 2.399 3.001 3.799c-1.067-.2-2.701-.2-4.902 0l-5.302 1c.8 1.266 1.367 4.031 1.701 8.296l2.2 4.399 2.802 6.297-3.302-1.499c-1.334-.6-2.501-.967-3.501-1.1.8 1.133 1.934 3.832 3.401 8.097 1.601 4.598 2.668 8.397 3.202 11.395.466 3.066.466 6.265 0 9.597-.401 2.999-1.034 4.964-1.901 5.897.267 6.131-1.001 11.329-3.802 15.594l-3.601-6.297-2.001 7.097c-1.267 3.998-2.268 6.531-3.001 7.597l-3.802-3.998-4.802-5.498c-.533 2.066-.567 4.731-.1 7.997-3.401-.6-7.136-2.566-11.205-5.898-3.001-2.399-5.769-5.165-8.303-8.297l-.9 2.699-1.001 3.899-3.701-3.299-.501 2.599-1.7 5.498c-.334-1.333-1.468-3.632-3.402-6.898-.733 4.998-2.868 9.863-6.402 14.595 0-1.6-.867-3.932-2.602-6.998-1.333 3.599-4.535 10.33-9.603 20.192-.8-2.065-3.402-5.431-7.804-10.096l-6.302-6.397.2 4.798c-4.535-2.532-8.87-6.597-13.006-12.195-4.468-6.064-6.97-11.796-7.503-17.193l-1.5 1.899c-1.134 1.599-1.968 3.132-2.501 4.598-1.2-2.999-1.368-7.73-.5-14.194.6-4.732 1.433-8.764 2.5-12.096l-1.9.8c-1.134.4-2.034.933-2.701 1.599.2-3.865 2.367-8.463 6.502-13.794 3.268-4.265 6.436-7.497 9.504-9.696Z"/><path fill="#BA5400" d="m66.915 261.056 2.501-10.196 5.703 3.799.2-4.298c1.267.799 3.468 3.032 6.603 6.697 3.2 3.665 5.135 6.231 5.802 7.697.667 1.466 1.5 1.733 2.501.8-.534 2.332-2.2 6.397-5.002 12.195-.867 1.866-1.867 3.299-3.001 4.298-1.134 1.066-2.735 1.966-4.802 2.699-4.202 1.599-7.637 1.599-10.305 0l-4.802.1c-1.067-.4-1.7-1.033-1.9-1.899l-3.202-.4c-.533-.333-.967-.966-1.3-1.899-.667-1.6-.1-3.132 1.7-4.599l6.503-5.497c.4-.533 1.334-3.699 2.801-9.497ZM113.335 237.566l3.901 3.098c.267-2.132.901-4.198 1.901-6.197l5.102 5.198 5.202 4.498-3.701 15.194-5.002 20.292c-2.468 8.863-5.236 14.261-8.304 16.194-1.334.933-2.734 1.466-4.202 1.599l-3.901-.3c-1.801.866-3.535 1.1-5.202.7-1.4-.333-2.468-1-3.202-1.999-4.535 0-6.602-1.8-6.202-5.398.066-.467.733-1.633 2-3.499l2.302-3.498 1-8.897 1.1-20.892a84.227 84.227 0 0 1 2.602-7.297l2.701 6.797c1.4-1.466 2.867-4.265 4.401-8.396l2.001-5.798 1.401 2.299 1.901 4.398 2.201-8.096Z"/><path fill="#BA5400" d="m154.952 190.984 6.503 2.599c-.734-3.332-2.335-6.931-4.802-10.796.133-2.665-.501-5.464-1.901-8.396.8-.4 2.501-.7 5.102-.9l6.202-.2c3.669 1.933 6.603 4.098 8.804 6.497 2.334 2.533 4.669 6.065 7.003 10.596 1.334 2.599 2.468 5.665 3.401 9.197l2.501 10.596 1.201 10.295c.4 5.065.834 8.73 1.301 10.996.933 4.465 3.501 11.829 7.703 22.091l.8 4.299.1 8.297c-.067 7.53-1 13.561-2.801 18.092-.6 1.533-1.868 2.833-3.802 3.899l-4.902 2.099-6.702.4-8.404-.4c-1.267-.2-2.301-.7-3.101-1.499l-1.201-2.2c-.133-.999 1.067-2.998 3.602-5.997.667-.866 1-3.066 1-6.598l-.3-3.898c-.4-1.733-1.134-3.099-2.201-4.098l-13.205-14.695-2.501 7.597-4.902 11.996c-1.601 3.332-3.402 6.331-5.403 8.996-1.734 2.266-3.068 3.665-4.001 4.198l-6.703.2c-2.468.8-4.735.767-6.803-.1l-3.701-.699c-1.001-.533-1.601-1.133-1.801-1.8-.134-.599.1-1.599.7-2.998a17.68 17.68 0 0 1 2.401-3.999c1.534-1.866 2.768-4.865 3.702-8.996.266-1 .2-2.599-.2-4.798l-1.501-5.598 1.3-4.398 1.801-6.598c4.602 2.799 7.67 4.432 9.204 4.898v-9.196c.867 1.666 3.935 4.831 9.204 9.496 1.6-2.199 3.101-6.931 4.502-14.194l3.801 6.397c.801-1.199 1.601-3.532 2.401-6.997.801-3.465 1.234-6.598 1.301-9.396 1.267-1.666 1.934-4.632 2.001-8.897.066-3.598-.234-6.964-.901-10.096-.933-4.265-2.868-9.363-5.802-15.294ZM116.036 99.02c2.067 3.399 3.401 5.231 4.001 5.498l.601-3.299 4.602 5.198c3.468 4.398 6.069 8.996 7.803 13.795 4.668 12.795 5.769 24.657 3.301 35.586-3.268 14.927-9.337 25.323-18.207 31.187-5.803 3.865-12.239 6.664-19.308 8.397l-24.71.8c-8.137-1.4-15.84-5.032-23.11-10.896-6.136-4.865-10.805-10.196-14.006-15.994-4.669-8.596-5.402-15.294-2.201-20.092l4.602-8.097c1.4-3.132 2.901-7.863 4.502-14.194.8-3.332 2.234-6.831 4.302-10.496 1.934-3.599 4.235-6.831 6.902-9.696.467-5.998 1.134-9.363 2.001-10.096l3.202 5.098 1.4-5.398 4.002 2.999-1.1-4.598c2.734 1.532 5.402 2.299 8.003 2.299l-1.701-3.1 6.703 1.5 1.3-5.997 3.702 2.699 2.901 2.698-.7-8.396 9.204 7.397.9-7.197 3.601 4.298 5.103 4.998 2-5.098 2.301 3.899 3.702 4.498.9-3.599.6-1.5 2.902 4.899Z"/><path fill="#933F00" d="M162.355 217.174c1.4 8.796 1.901 16.827 1.501 24.09-.334 5.065-1.134 10.196-2.401 15.394l-6.503-7.697c-2.334-2.998-3.768-5.131-4.302-6.397l1.801-6.997c1.934 2.998 3.068 4.998 3.401 5.997 2.868-4.531 4.102-9.796 3.702-15.794l2.801-8.596Z"/><path fill="#933F00" d="M129.141 243.563c4.002 2.599 7.07 4.299 9.204 5.098-.333-1.866-.4-5.031-.2-9.496.533 1.399 2.001 3.299 4.402 5.698l5.202 4.398c1-.533 1.901-2.832 2.701-6.897l2.401 3.199 4.002 5.897c-1.668 5.798-4.969 13.795-9.904 23.991-3.335-3.332-7.07-5.565-11.205-6.698-3.668-1.066-6.603-1.066-8.804 0 .534-.999.767-2.898.701-5.697 0-2.866-.267-5.598-.801-8.197l1.001-4.398 1.3-6.898Z"/><path fill="#933F00" d="m112.634 240.564.2-3.398 4.702 3.898c0-1.266.501-3.832 1.501-7.697.4 1.133 3.835 4.698 10.304 10.696l-3.801 15.494-3.802 17.593c-4.468-4.398-9.437-7.131-14.906-8.197-4.535-.866-8.337-.533-11.405 1l.5-15.594c.467-.533 1.334-3.499 2.601-8.897l2.902 7.298c1.8-1.467 3.401-4.332 4.802-8.597l1.5-5.898 1.301 2.599 2.601 4.498c.467-.799.8-2.399 1-4.798ZM66.115 264.255c1.134-2.732 2.234-7.397 3.301-13.994l5.803 4.198c-.267-1.2-.334-2.866-.2-4.998l4.401 4.898 5.003 5.298 2.4 3.698 2.702 4.099c-.867 2.865-1.868 5.364-3.002 7.497-3.067-4.665-6.736-7.83-11.004-9.496-3.068-1.2-6.203-1.6-9.404-1.2Z"/><path fill="#DCD096" d="M112.934 215.974c-.533-.599-.9-1.499-1.1-2.699l-.9-3.798 3.601 2.599.3-2.399c0-1.6.1-2.433.3-2.499.867 2.399 1.368 4.798 1.501 7.197.133 1.932 0 3.265-.4 3.998-.134.267-.567.134-1.301-.4l-2.001-1.999ZM113.835 231.368c-.067 5.998-.801 10.596-2.201 13.795l-4.102-6.997-2.201 8.396c-1.067 3.332-2.501 5.698-4.302 7.098l-2.3-6.898-2.101 5.098-2.902 5.898c-2.6 3.865-4.168 6.431-4.701 7.697l-7.804-8.797-6.102-6.797v4.898c-2.001-1.333-4.436-3.332-7.303-5.998-3.002-2.732-5.07-4.898-6.203-6.497-1.534-2.066-3.035-5.131-4.502-9.196-1.267-3.399-2.067-6.098-2.4-8.097l-2.102 3.398c-.867 1.4-1.367 2.466-1.5 3.199-.267-.799-.334-2.565-.2-5.298.133-1.466.667-3.232 1.6-5.298.867-2.132 1.768-3.632 2.702-4.498 1.467 4.532 3.534 8.397 6.202 11.596l8.303 8.696c.8-3.932 1.601-6.997 2.402-9.196 2.067 4.198 4.201 7.297 6.402 9.296 2.868 2.666 5.369 5.465 7.503 8.397l4.802-8.397c2.468-4.531 3.735-8.397 3.802-11.595l4.302 6.597c2.201 3.265 3.501 5.531 3.901 6.797l2.501-5.697c.867-2.933 1.334-5.731 1.401-8.397.733.866 1.767 3.532 3.101 7.997 1.734-2.932 2.701-7.864 2.901-14.794.801 4.065 1.167 8.596 1.101 13.594ZM144.347 169.992l5.403-.6 7.603-.2c-1.134-1.133-3.502-2.232-7.103-3.298 1.401-1 4.602-2.333 9.604-3.999-1.934-1.066-4.602-1.966-8.003-2.699l10.004.8c3.601 1 6.002 2.132 7.203 3.399-1.267.2-3.268.899-6.003 2.099l-3.601 1.699 2.501 2.499c1.801 1.799 2.934 3.132 3.401 3.999l-4.202-.2-6.402.699c.8.534 1.534 3.599 2.201 9.197-3.068-5.998-7.27-10.463-12.606-13.395Z"/><path fill="#DCD096" d="M154.152 223.471c.733-5.198.7-11.328-.1-18.392 1.467 1.532 2.767 3.298 3.901 5.298.2-1.267.033-3.799-.5-7.597-.6-3.999-1.301-7.264-2.101-9.797a38.407 38.407 0 0 1 4.402 9.297l1.901 8.896c.467 2.666.5 5.265.1 7.797-.334 2.533-1.034 4.632-2.101 6.298.267 2.932 0 5.964-.801 9.096-.8 2.799-1.8 4.965-3.001 6.498l-2.401-3.299-1.4-1.599c-1.001 7.33-2.435 11.795-4.302 13.394-4.068-2.799-7.203-5.831-9.404-9.096-.2 5.198-.2 8.197 0 8.996-2.734-1.199-6.169-3.332-10.304-6.397-4.669-3.399-7.737-6.264-9.204-8.597-.867 1.933-1.301 4.032-1.301 6.298l-2.201-1-2.2-1.599c.6-5.265.733-10.529.4-15.794l1.2 4.098c.6 1.8 1.267 3.199 2.001 4.199l.7-4.199.901-5.098 7.003 7.098c3.068 2.532 6.069 4.564 9.003 6.097.667-4.998 1.434-8.53 2.301-10.596 2.801 4.399 5.936 7.631 9.404 9.696l2.801-6.097c1.001-2.466 1.734-5.365 2.201-8.697l3.102 4.798ZM153.151 189.585l2.501-.2 4.502.999c1.067 1.8 1.434 2.866 1.1 3.199l-4.201-1.699c-2.735-1.133-4.035-1.899-3.902-2.299Z"/><path fill="#933F00" d="m98.829 195.382-24.71.8c-6.27-1.133-12.406-3.599-18.408-7.397 10.67 3.665 21.142 4.964 31.413 3.898 9.27-.933 17.407-3.665 24.41-8.197 6.269-3.998 11.371-8.963 15.306-14.894 3.668-5.531 5.836-11.129 6.503-16.793V150.3l3.902.1-.901 5.398c-3.268 14.927-9.337 25.323-18.207 31.187-5.803 3.866-12.239 6.664-19.308 8.397Z"/><path fill="#DCD096" d="M63.714 192.983c6.27 3.266 14.306 4.532 24.11 3.799 8.804-.6 16.674-2.533 23.61-5.798 4.268-1.999 7.87-4.398 10.804-7.197 2.935-2.732 5.536-6.131 7.804-10.196-.534 5.798-3.402 11.262-8.604 16.393-4.602 4.532-10.171 7.997-16.707 10.396-10.004 3.599-19.608 4.165-28.812 1.7-8.337-2.133-12.405-5.165-12.205-9.097Z"/><path fill="#0D131A" d="m56.811 189.685 2.101-.3c.867.333 1.034.733.5 1.199-4.602 4.598-7.603 9.597-9.004 14.994l2.201-1.599c1.067-.733 1.701-1 1.901-.8.334.2.167 1.033-.5 2.499-1.667 3.799-2.668 8.097-3.001 12.895-.2 3.666 0 6.831.6 9.497l1.8-3.199c.734-1.133 1.301-1.7 1.701-1.7.4-.066.7.634.9 2.1.668 4.931 2.635 9.829 5.903 14.694 3.202 4.865 7.27 9.03 12.205 12.495l.1-2.999.3-1.299 1.501 1.399 5.902 6.198c2.935 2.665 5.17 5.331 6.703 7.997l3.302-5.398c3-4.599 4.868-8.464 5.602-11.596.334-1.466.634-2.232.9-2.299.267-.067.7.5 1.3 1.699l1.602 4.599c2.601-2.533 4.368-6.798 5.302-12.795.2-1.4.433-2.1.7-2.1l1.201 1.7 2.2 4.998c1.201-3.532 1.801-8.497 1.801-14.894-.066-7.064-.967-13.028-2.701-17.893-.533-1.6-.667-2.466-.4-2.599.2-.134.867.266 2.001 1.199l2.301 1.9c-.134-2.066-.767-4.665-1.901-7.797l-4.302-9.397c-.4-.666-.267-1.133.4-1.399.601-.2 1.101.033 1.501.7 2.268 3.665 4.035 7.363 5.302 11.095 1.401 3.799 1.968 6.831 1.701 9.097-.2 1.866-.534 2.732-1.001 2.599-.4-.067-1.367-1.067-2.901-2.999 1.334 5.264 2.068 11.195 2.201 17.793.134 7.197-.567 12.395-2.101 15.594l-1.5 1.899c-.267 0-.701-.666-1.301-1.999l-1.901-4.399c-1.067 4.799-2.834 8.964-5.302 12.496l-1.801 1.599c-.266 0-.5-.533-.7-1.599l-1.3-5.098c-1.268 4.131-2.902 7.763-4.902 10.895l-2.001 3.799-1.801 3.798c-.534 1.2-1 1.733-1.4 1.6-.267-.067-.701-.667-1.301-1.8-2.201-4.131-4.402-7.263-6.603-9.396l-4.902-5.098.1 2.899c0 .733-.2 1.066-.6 1l-2.001-1.2c-5.069-3.332-9.304-7.43-12.705-12.295-3.335-4.798-5.536-9.763-6.603-14.894l-1.6 3.898c-.6 1.333-1.101 1.966-1.501 1.899-.4-.133-.867-.899-1.4-2.299-.868-2.599-1.168-6.131-.901-10.596.267-4.398.967-8.629 2.1-12.695l-1.8 2.3c-.934 1.332-1.634 1.799-2.101 1.399-.467-.4-.5-1.733-.1-3.998 1.267-6.598 4.602-12.595 10.004-17.993ZM133.743 166.293c-.467-.199-.6-.666-.4-1.399.2-.666.533-.933 1-.8 8.004 2.866 14.74 7.397 20.209 13.595 4.068 4.598 6.602 8.897 7.603 12.895.667 2.532.834 3.932.5 4.198-.333.333-1.467 0-3.401-.999l-2.501-1.2c3.668 6.997 5.735 13.828 6.202 20.492.4 6.264-.667 11.662-3.201 16.194-.2.333-.2-1.933 0-6.798 1.2-3.265 1.367-7.663.5-13.194a50.015 50.015 0 0 0-6.403-17.793c-.6-1-.8-1.633-.6-1.9l1.901.1 4.202 1.8c-1.134-3.732-3.502-7.764-7.103-12.096-5.136-6.064-11.305-10.429-18.508-13.095Z"/><path fill="#0D131A" d="M158.253 211.376c.467-.067.867.833 1.201 2.699 1 5.464 1.334 10.662 1 15.594-.333 4.931-1.334 8.863-3.001 11.795l-1.701 1.999c-.333 0-.834-.733-1.5-2.199l-2.101-4.798c-.134-.2-.034-.7.3-1.499.267-.8.467-1 .6-.6.2.866 1 2.332 2.401 4.398 1.801-3.065 2.835-6.93 3.101-11.595l-.5-12.795c-.267-1.866-.2-2.866.2-2.999Z"/><path fill="#0D131A" d="M153.051 230.368c.334.134.434 1.3.3 3.499l-1.5 7.897-2.201 6.597c-.867 1.733-1.568 2.666-2.101 2.799-.4.067-1.234-.466-2.501-1.599l-3.602-3.999-2.201-2.998.3 4.998c.401 2.132-.3 2.865-2.1 2.199-2.935-1-6.17-2.832-9.704-5.498-3.802-2.799-6.637-5.565-8.504-8.297l-.8 4.199-.601 2.199-1.6-.9c-1.401-1.133-2.568-2.399-3.502-3.798-.133-.2-.066-.567.2-1.1.267-.466.501-.6.701-.4l3.001 2.899 1.401-6.098.7-1.199 1.3 1.599c1.801 2.733 4.436 5.465 7.904 8.197 3.268 2.599 6.402 4.532 9.404 5.798-.267-2.466-.267-4.732 0-6.798.133-1.532.3-2.332.5-2.399l1.901 1.7c3.401 4.398 5.969 6.897 7.703 7.497 1.734-3.266 3.168-7.797 4.302-13.595.466-2.399.9-3.532 1.3-3.399ZM136.444 152.799l.4-1.1a42.117 42.117 0 0 1 10.605-2.399l8.403.4c1.868.467 2.868.966 3.001 1.5.134.599-.6 1.532-2.2 2.798l-3.302 3.499c6.67.267 12.005 1.633 16.007 4.098 1.267.8 1.901 1.433 1.901 1.9-.067.466-.734.866-2.001 1.199-4.402 1.066-7.17 1.999-8.304 2.799 2.668 2.066 4.402 3.732 5.202 4.998.601 1 .734 1.633.401 1.899l-2.902.3-7.503.5c.801 1.466 1.368 3.166 1.701 5.098.4 1.999.434 3.565.1 4.698-.067.4-.867-.733-2.401-3.398.334-2.333-.2-4.465-1.601-6.398l-.7-1.399c.067-.2.467-.4 1.201-.6l8.803-.8c-.667-1.333-1.934-2.632-3.801-3.898l-1.301-1.2c-.067-.333.3-.733 1.101-1.199 2.401-1.466 4.802-2.499 7.203-3.099-4.736-2.266-9.604-3.399-14.606-3.399-.867 0-1.368-.133-1.501-.4-.133-.266.033-.866.5-1.799.934-1.599 2.234-3.199 3.902-4.798-1.468-.6-3.735-.9-6.803-.9-3.935-.066-7.603.533-11.005 1.8-.333.133-.5-.1-.5-.7ZM68.216 249.861c.067-.267.533-.067 1.4.6l1.301 1.299c-1.8 7.797-3.768 14.294-5.903 19.492l-3.3 3.199c-3.269 2.199-4.903 3.965-4.903 5.298-.066.8.267 1.466 1 1.999.734.6 1.635.833 2.702.7.333 0 .5.3.5.9.067.533-.067.799-.4.799-1.734 0-3.168-.399-4.302-1.199-1.2-.866-1.8-1.933-1.8-3.199.066-1.333.733-2.632 2-3.898l3.802-2.899 2.7-2.699 3.102-10.596 2.1-9.796Z"/><path fill="#0D131A" d="M62.213 277.75c1.134-.6 1.768-.8 1.901-.6.2.133-.1.533-.9 1.2-2.068 1.732-2.668 3.198-1.8 4.398.332.533 1.133.933 2.4 1.2l2.901-.3c.267-.134.534.1.8.699.2.533.167.833-.1.9-3.468 1-6.002.566-7.603-1.299-.733-.867-.9-1.9-.5-3.099.467-1.266 1.434-2.299 2.901-3.099Z"/><path fill="#0D131A" d="M70.317 279.649c-2.134 1.666-3.001 2.999-2.601 3.999.333.933 1.767 1.232 4.302.899l5.602-1.199c2.067-.8 3.501-1.7 4.302-2.699 2.534-3.266 4.935-8.663 7.203-16.194l5.702-8.497c-.934 4.132-2.534 8.864-4.802 14.195-2.268 5.331-4.369 9.296-6.303 11.895-1.2 1.6-3.234 2.832-6.102 3.699l-6.903.999c-2.668 0-4.269-.599-4.802-1.799-.867-2.199.4-4.265 3.801-6.197 1-.6 1.568-.8 1.701-.6l-1.1 1.499Z"/><path fill="#0D131A" d="M94.527 256.058c-.067-.2.333-1.033 1.2-2.499.867-1.466 1.334-2.066 1.4-1.799.2 2.932.034 8.163-.5 15.694-.466 7.663-1.033 13.095-1.7 16.293l-1.6 2.899c-1.535 1.999-2.335 3.566-2.402 4.698 0 1.133.434 2.066 1.3 2.799.934.667 1.968.9 3.102.7.334-.067.534.167.6.7.134.533.034.833-.3.899-1.667.267-3.168 0-4.502-.799-1.6-.933-2.434-2.333-2.5-4.199-.067-1.532.9-3.432 2.9-5.697l1.301-2.499c.534-2.733.967-7.164 1.3-13.295l.4-13.895Z"/><path fill="#0D131A" d="M96.528 290.345c.867-.866 1.433-1.233 1.7-1.1l-.5 1.8c-1.2 1.799-1.634 3.165-1.3 4.098.333.6 1.333 1.1 3 1.499l3.602-.399c1.134-.933 1.934-2.133 2.401-3.599.4-1.266.801-1.899 1.201-1.899.333 0 .367.633.1 1.899-.6 2.866-1.401 4.632-2.401 5.298-1.401 1-3.201 1.266-5.402.8-2.135-.467-3.502-1.366-4.102-2.699-.8-1.733-.233-3.632 1.7-5.698Z"/><path fill="#0D131A" d="m127.941 243.563 1.4.4 1.201 1.1c-3.602 13.794-5.836 22.824-6.703 27.089-2.401 11.329-4.869 18.459-7.403 21.392-1.801 1.999-3.835 3.398-6.103 4.198l-6.702.2c-.467-.133-.534-.433-.201-.9.334-.533.701-.766 1.101-.7 3.668.667 6.869-.666 9.604-3.998 2.601-3.132 5.035-9.963 7.303-20.492l3.101-14.194 3.402-14.095Z"/><path fill="#0D131A" d="M126.04 258.557c-.134-.399.067-1.366.6-2.898.467-1.466.767-1.933.9-1.4.801 2.532 1.301 5.531 1.501 8.997.133 2.998-1.067 6.83-3.601 11.495l-1.401 2.199-1.301 2.199c-.333 1.067-.3 1.966.101 2.699.466.8 1.433 1.2 2.901 1.2.867 1.066 1.1 1.599.7 1.599-3.001.2-4.935-.4-5.802-1.799-.667-1.066-.667-2.333 0-3.799l3.101-5.098c2.334-4.464 3.335-8.063 3.001-10.795l-.7-4.599Z"/><path fill="#0D131A" d="M126.84 278.65c.934-.867 1.534-1.2 1.801-1l-.8 1.599c-.801 1-1.201 1.933-1.201 2.799-.067.733.5 1.233 1.701 1.5l5.002-.2.6.6-.2.899-6.303.5c-1.867-.333-2.767-1.266-2.701-2.799.134-1.399.834-2.699 2.101-3.898Z"/><path fill="#0D131A" d="M134.043 279.749c.934-.933 1.534-1.333 1.801-1.2.333.134.133.7-.6 1.7-1.201 1.599-1.501 2.632-.901 3.099l2.301.399 2.901-.699c2.135-1.067 4.769-4.732 7.904-10.996 3.334-6.597 6.002-13.828 8.003-21.691.133-.6.567-.434 1.301.499.733.867 1.033 1.566.9 2.1-1.867 6.397-4.502 12.894-7.903 19.492-3.668 7.13-6.803 11.295-9.404 12.495-1.267.666-2.735.966-4.402.9-1.601-.134-2.701-.534-3.301-1.2-1.134-1.133-.667-2.765 1.4-4.898Z"/><path fill="#0D131A" d="M150.15 244.463c-.267-.333-.167-1.1.3-2.299.467-1.133.834-1.466 1.1-1 3.669 6.398 8.604 12.695 14.807 18.893 3.334 3.265 5.368 5.664 6.102 7.197.467.866.767 2.799.9 5.798l-.2 6.397-2 3.299c-1.268 1.733-1.935 2.965-2.001 3.699-.067 1.599.8 2.565 2.601 2.898.667.933.8 1.4.4 1.4-1.467 0-2.701-.433-3.702-1.3-1-.799-1.467-1.832-1.4-3.098.067-1.067.7-2.433 1.901-4.099l2.301-3.498c.333-1.067.4-2.866.2-5.398l-.801-4.599-6.202-7.197-5.603-5.797c-3.067-3.399-5.969-7.164-8.703-11.296Z"/><path fill="#0D131A" d="M172.659 287.446c-.2.933-.133 1.566.2 1.899.4.467 1.334.733 2.801.8l4.102-.5.801.7.1.9-5.103.799c-2.067-.066-3.468-.5-4.201-1.299-.801-.867-1.001-1.933-.601-3.199.334-1.2 1.134-2.332 2.401-3.399 1.068-.933 1.701-1.266 1.901-.999.267.266-.033.833-.9 1.699-.734.8-1.234 1.666-1.501 2.599Z"/><path fill="#0D131A" d="M164.156 173.691c-.267-.133-.434-.733-.501-1.799 0-1.067.134-1.567.401-1.5 8.07 3.332 14.339 9.696 18.807 19.093 4.536 9.463 7.103 21.624 7.704 36.485.133 3.999 1.9 10.263 5.302 18.793 2.267 5.598 3.501 9.23 3.701 10.896.801 5.864.801 12.028 0 18.492-.867 7.131-2.367 11.529-4.502 13.195-2.4 1.866-5.368 3.266-8.903 4.198-3.535.867-5.836.867-6.903 0-.734-.599-.867-1.566-.4-2.898.467-1.4 1.467-2.633 3.001-3.699 1.067-.733 1.701-.966 1.901-.7.267.267-.067.8-1.001 1.6l-1.6 2.099c-.4.8-.434 1.333-.1 1.599l5.102-.2c2.868-.799 5.369-2.032 7.503-3.698 1.534-1.266 2.668-4.998 3.401-11.196a83.374 83.374 0 0 0 .1-18.692c-.066-.867-1.067-3.899-3.001-9.097-3.735-9.729-5.702-16.593-5.902-20.592-.734-13.794-3.202-25.257-7.403-34.386-4.202-9.13-9.771-15.128-16.707-17.993ZM65.915 96.421l.8 2.8.2 1.199-1-.1-3.802-2.4-1.1 3.599-.7 1.3c-.267 0-.634-.333-1.1-1L57.51 99.22c-.8 1.933-1.334 4.765-1.6 8.497l-.5 1.899c-.334.333-.6.2-.8-.4-2.802 3.332-5.203 7.131-7.204 11.396-.867 1.866-1.9 4.731-3.101 8.596l-2.801 8.597-1.801 4.698-1.8 3.899c-2.335 3.598-3.436 6.764-3.302 9.496.2 7.33 3.535 14.628 10.004 21.891 6.536 7.397 14.473 12.595 23.81 15.594 9.004 2.866 18.808 3.132 29.412.8 11.071-2.399 19.608-6.997 25.611-13.795 5.335-6.064 9.037-13.961 11.104-23.69 1.801-8.464 2.068-16.527.801-24.191-1.801-10.662-6.436-20.392-13.906-29.188l-.9 2.099-1.901-1.4a37.191 37.191 0 0 1-5.603-7.197l-.8 2.5-.5.899c-.2.133-.567-.067-1.101-.6-1.867-1.733-3.501-3.932-4.902-6.597l-1 3.198-.6.9-.901-.4c-2.334-1.532-4.968-4.165-7.903-7.897l-.3 4.898-.4 1.6-1.4-.9-7.704-6.397.6 5.997-.3 1.6-1.5-.9-5.002-3.998-.5 4.298-.4.9-.801.1-5.002-1 .9 1.7.3.899-1.2.2c-2.068 0-4.302-.467-6.703-1.4Zm53.922 3.799.3-1.1 1.301.9c8.737 10.263 14.106 20.858 16.107 31.787 1.534 8.064 1.367 16.694-.501 25.89-2 10.063-5.635 18.16-10.904 24.291-6.269 7.263-15.273 12.162-27.011 14.694-11.138 2.399-21.476 2.066-31.013-1-10.138-3.198-18.775-8.63-25.91-16.293-7.137-7.731-10.739-15.561-10.805-23.491-.067-3.066 1.133-6.597 3.601-10.596l4.002-8.497 3.101-8.496 3.201-8.597c2.401-5.331 5.403-9.863 9.004-13.594.067-3.799.734-7.198 2-10.197.534-1.332 1.101-1.366 1.702-.1l2 4.199c.2-2.066.467-3.699.8-4.898.268-.8.734-.8 1.401 0l2.501 2.999-1-3.3c-.2-.865-.2-1.365 0-1.498l1.3.3c3.135 1.599 5.303 2.532 6.503 2.798-.8-.666-1.5-1.699-2.1-3.099-.334-1.066.1-1.332 1.3-.8 2.868 1.067 5.035 1.733 6.503 2l.6-5.498c0-.933.133-1.466.4-1.6.267-.066.734.167 1.4.7l5.003 4.999-1-7.098c-.134-1.066-.034-1.632.3-1.699.266 0 .8.333 1.6 1l7.803 6.997c-.2-2.799-.133-5.065.2-6.797.2-1.6.834-1.7 1.901-.3 3.602 4.998 6.236 8.163 7.903 9.496l1.201-4.398.8-1.3 1.101 1.2 4.602 7.497.8-4.398c.4-1.4.967-1.4 1.701 0 2.467 4.531 4.535 7.697 6.202 9.496l.1-2.599Z"/><path fill="#BA5400" d="M209.575 121.611c-11.072 10.663-21.509 17.726-31.313 21.192-5.536 1.999-14.24 3.898-26.111 5.698l-18.508 1.999c-1.334-.134-2.834-3.665-4.502-10.596-1.734-6.997-1.967-11.262-.7-12.795 2.468-3.132 5.502-6.064 9.104-8.797 4.135-3.198 8.503-5.764 13.105-7.697 11.205-4.598 23.21-7.13 36.015-7.597 8.67-.333 21.642.034 38.916 1.1-6.002 7.197-11.338 13.028-16.006 17.493Z"/><path fill="#0D131A" d="M197.069 123.511c-11.138 7.663-21.142 12.628-30.012 14.894l-17.807 3.298-11.005.8c-1.667-.067-2.735-1.433-3.201-4.098-.467-2.666-.134-4.765 1-6.298 2.001-2.799 5.269-5.731 9.804-8.796 5.736-3.999 11.905-6.931 18.508-8.797 7.736-2.199 16.507-3.532 26.311-3.998l19.608.699c-4.535 5.198-8.937 9.297-13.206 12.296Z"/><path fill="#BA5400" d="m133.143 132.707 10.104-.2-5.602 5.698 5.602-.3-4.002 2.999-2.801 1.799c-1.467.933-2.668-.467-3.601-4.199-.934-3.865-.834-5.797.3-5.797Z"/><path fill="#ED8599" d="M54.71 170.992c.134-1.4.7-2.899 1.701-4.499 1.134-1.866 2.534-3.232 4.202-4.098l2.9 1.399 3.402 2.3c2.401 1.999 5.203 3.865 8.404 5.597-1.267 2.933-3.402 5.465-6.403 7.597-3.001 2.2-5.635 3.132-7.903 2.799-1.734-.266-3.168-1.432-4.302-3.498-1.2-2-1.867-4.532-2-7.597Z"/><path fill="#922F00" d="m54.51 161.396 3.302-.2 3.3 1.099c-1.533.467-2.967 1.666-4.3 3.599-1.001 1.466-1.802 3.099-2.402 4.898-.2-.733-.3-2.066-.3-3.998l.4-5.398Z"/><path fill="#0D131A" d="m225.181 102.719 1.801.599c.2.4-.1 1.067-.901 2-14.939 17.726-28.645 29.755-41.117 36.085-12.271 6.198-28.578 9.497-48.92 9.897-1.867.066-2.768-.267-2.701-1 0-.733.934-1.133 2.801-1.2 18.408-.399 34.248-3.965 47.52-10.695 13.272-6.731 26.577-17.927 39.916-33.587-25.944-1.266-45.452-.4-58.524 2.599-12.805 2.932-24.177 9.096-34.114 18.493-1.067 1.066-1.734 1.299-2.001.699-.333-.6 0-1.466 1-2.599 8.804-9.729 20.009-16.16 33.614-19.292 13.94-3.132 34.481-3.799 61.626-1.999Z"/><path fill="#0D131A" d="M142.947 131.308c2.401.066 2.701.833.9 2.299-1.801 1.666-3.468 2.965-5.002 3.898l4.702-.5c1 0 1.467.2 1.401.6l-1.301 1.6c-1.134.866-3.168 1.999-6.102 3.398l-1.301-.1c-.734-.133-1-.266-.8-.4l2.401-1.199 3.601-2.299-3.801.4-1.601-.2c-.067-.267.3-.833 1.1-1.7l3.902-3.698h-6.203c-1.2-.067-1.8-.267-1.8-.6.066-.267.667-.533 1.8-.8l8.104-.699Z"/><path fill="#0D131A" d="M209.174 109.916c1.401.133 2.168.433 2.301.899.067.467-.4 1.167-1.4 2.1-11.072 10.995-21.943 18.692-32.614 23.091-10.671 4.398-24.143 6.764-40.417 7.097-1.267.066-1.9-.134-1.9-.6-.067-.4.533-.666 1.8-.8 16.007-1.133 29.279-3.865 39.817-8.197 10.738-4.464 21.209-11.628 31.413-21.491-17.541-1.733-33.381-.033-47.52 5.098-11.071 3.998-19.008 9.03-23.81 15.094l-2.201.1c14.073-17.593 38.917-25.057 74.531-22.391ZM47.107 133.806c1.534-3.598 3.368-6.364 5.502-8.297 2.135-2.065 4.069-2.765 5.803-2.099 1.534.6 2.3 2.566 2.3 5.898 0 2.999-.633 6.231-1.9 9.696-1.467 4.199-3.235 7.197-5.302 8.997-1.801 1.599-3.568 2.099-5.302 1.499-1.801-.6-2.835-2.366-3.102-5.298-.333-2.999.334-6.464 2.001-10.396ZM101.73 135.906c2.601.4 4.468 2.399 5.602 5.997 1.201 3.799.967 8.131-.7 12.995-1.534 4.599-3.602 7.897-6.203 9.896-2.467 1.933-5.069 2.4-7.803 1.4-2.468-.933-4.168-2.899-5.102-5.898-1-3.132-.9-6.664.3-10.596 1.467-4.931 3.735-8.663 6.803-11.195 2.534-2.066 4.902-2.932 7.103-2.599Z"/><path fill="#fff" d="M57.011 125.61c.534.2.9.733 1.1 1.599.2 1.066.034 2.332-.5 3.798-.866 2.866-2.3 3.966-4.301 3.299-.6-.2-1-.766-1.2-1.699-.2-1-.1-2.066.3-3.199.666-1.533 1.467-2.632 2.4-3.299.8-.533 1.534-.699 2.201-.499Z"/><path fill="#0D131A" d="M60.313 120.012c-.734-.866-.934-1.533-.6-1.999.4-.467 1-.333 1.8.4 1.467 1.332 2.134 3.465 2 6.397-.066 1.466-.232 2.199-.5 2.199-.333.067-.6-.599-.8-1.999-.266-2.332-.9-3.998-1.9-4.998Z"/><path fill="#fff" d="M101.029 138.505c.934.2 1.568.833 1.901 1.899.4 1.133.3 2.599-.3 4.398-.533 1.6-1.3 2.766-2.301 3.499-.934.733-1.9.933-2.901.6-1.067-.334-1.734-1.033-2-2.1-.334-1.199-.201-2.565.4-4.098.6-1.599 1.433-2.765 2.5-3.499.867-.666 1.768-.899 2.701-.699Z"/><path fill="#0D131A" d="M98.829 129.808c1.534-.333 2.367-.2 2.501.4.133.599-.601 1.099-2.201 1.499-2.535.733-4.535 1.966-6.003 3.699-1.067 1.199-1.734 1.666-2 1.399-.334-.2-.034-.933.9-2.199 1.934-2.732 4.202-4.332 6.803-4.798ZM59.012 151.5c.267-.334 1.334-.067 3.201.799 1.934.867 2.835 1.5 2.702 1.9-.067.399-.668.733-1.801.999-1.134.267-1.901.267-2.301 0l-1.5-1.799c-.468-1-.568-1.633-.301-1.899ZM68.216 168.293c-5.336-4.132-8.87-6.197-10.604-6.197l-2.802.099-2.7.2c-1.068 0-1.902-.333-2.502-.999-.733-.8-.967-1.833-.7-3.099.2-.866.5-1.266.9-1.2.334 0 .534.434.6 1.3 0 1.599.634 2.366 1.901 2.299l5.403-.4c1.267.067 3.1.833 5.502 2.299l6.202 4.199c4.002 2.998 6.37 4.531 7.103 4.598l1.701-.7c.6-.733 1.067-.999 1.4-.8.334.134.334.634 0 1.5-.533 1.533-1.667 2.132-3.4 1.799l-8.004-4.898Z"/><path fill="#0D131A" d="M53.51 161.496c0-.267.367-.4 1.1-.4.667.066 1 .233 1 .5-.333 5.931-.066 10.462.801 13.594.8 3.132 2.234 5.065 4.302 5.798 1.667.666 3.735.2 6.202-1.4 2.735-1.799 5.17-4.564 7.303-8.296l1.2.2c.601.333.834.633.701.899-2.4 3.999-5.302 6.964-8.704 8.897-2.867 1.599-5.268 2.066-7.203 1.399-2.2-.733-3.901-2.665-5.102-5.797-1.4-3.732-1.934-8.864-1.6-15.394Z"/><path fill="#0D131A" d="M60.112 161.995c.4-.133.834.033 1.301.5.467.466.434.733-.1.8-1.4.266-2.735 1.366-4.002 3.298-1.2 1.8-1.767 3.432-1.7 4.898.066.867-.1.933-.5.2-.334-.733-.467-1.532-.4-2.399a10.62 10.62 0 0 1 1.8-4.398c1.067-1.466 2.268-2.432 3.601-2.899Z"/></g><defs><radialGradient id="b" cx="0" cy="0" r="1" gradientTransform="rotate(90 0 150) scale(200)" gradientUnits="userSpaceOnUse"><stop stop-color="#FFF1AC"/><stop offset="1" stop-color="#BA5400"/></radialGradient><clipPath id="a"><path fill="#fff" d="M0 0h300v300H0z"/></clipPath></defs></svg>