<svg xmlns="http://www.w3.org/2000/svg" fill="none" viewBox="0 0 300 300"><g clip-path="url(#a)"><path fill="#fff" d="M0 0h300v300H0z"/><path fill="url(#b)" d="M-50-50h400v400H-50z"/><path fill="#0D131A" d="M216.446 186.65c6.547-.382 10.513.551 11.899 2.8.716 1.149.836 3.685.358 7.61-.478 4.116-1.481 8.399-3.011 12.85-3.966 11.678-9.174 18.713-15.625 21.106-5.974 2.201-11.851-.12-17.633-6.964a49.402 49.402 0 0 1-9.032-15.578c-2.915-8.471 1.314-14.429 12.687-17.875 7.646-2.297 14.432-3.614 20.357-3.949Z"/><path fill="#D6E6AE" d="M225.764 191.03c1.147 2.01.215 7.418-2.795 16.224-3.297 9.572-7.144 15.171-11.54 16.798-14.384-6.604-22.173-11.821-23.368-15.649-.955-3.255-.764-6.007.574-8.256 1.672-2.776 5.065-4.906 10.178-6.389 6.164-1.819 11.827-3.039 16.988-3.662 5.83-.765 9.151-.454 9.963.934Z"/><path fill="#0D131A" d="M172.865 132.666c.622 1.435.048 3.9-1.72 7.394-1.863 3.637-4.157 6.604-6.881 8.902-2.055 1.771-4.11-1.412-6.164-9.548-2.103-8.088-1.792-12.18.931-12.276 3.107-.096 6.045.407 8.817 1.508 2.676 1.1 4.348 2.44 5.017 4.02Z"/><path fill="#6CBA5A" d="M170.428 133.096c.478 1.005.072 2.752-1.218 5.241-1.482 2.728-3.441 4.929-5.878 6.604-1.433.957-2.819-1.244-4.157-6.604-1.386-5.313-1.219-8.017.502-8.112l5.017.502c3.297.527 5.209 1.316 5.734 2.369Z"/><path fill="#0D131A" d="M45.35 166.263c0 1.962.262 4.738.788 8.327.095 2.441-.837 3.374-2.796 2.8-4.11-1.245-7.478-2.92-10.106-5.025-2.294-1.771-3.584-3.446-3.871-5.026-.239-1.388.478-3.254 2.15-5.599 1.72-2.441 3.68-4.26 5.878-5.456 2.055-1.149 3.918-.527 5.59 1.866 1.578 2.25 2.366 4.954 2.366 8.113Z"/><path fill="#6CBA5A" d="M38.396 159.156c2.007-.91 3.847-.575 5.52 1.005 1.433 1.34 2.46 3.278 3.082 5.815.621 2.488.669 4.594.143 6.317-.621 1.866-1.792 2.608-3.512 2.225-2.246-.478-4.635-1.435-7.168-2.871-2.724-1.58-4.181-3.015-4.372-4.307-.144-1.197.74-2.848 2.652-4.954 1.625-1.819 2.843-2.895 3.655-3.23Z"/><path fill="#5DA24D" d="M45.923 163.104c1.338 2.728 1.816 5.384 1.433 7.969-.382 2.775-1.625 3.924-3.727 3.445-1.911-.382-3.99-1.172-6.236-2.369-2.485-1.292-4.11-2.56-4.874-3.804 1.338.909 3.727.765 7.168-.431 3.584-1.197 5.662-2.8 6.236-4.81ZM170.428 135.178c-.382 1.532-1.146 3.159-2.293 4.882-1.386 2.01-2.987 3.637-4.803 4.881-.717.479-1.529-.119-2.437-1.794-.812-1.532-1.481-3.446-2.007-5.743.813.813 2.461 1.029 4.946.646 2.58-.479 4.779-1.436 6.594-2.872Z"/><path fill="#B9C897" d="M225.979 194.188c-.43 5.026-1.911 10.601-4.444 16.727-3.058 7.371-6.427 11.75-10.107 13.138-14.383-6.605-22.172-11.822-23.367-15.65 8.411 1.435 16.343.526 23.798-2.728 6.498-2.824 11.205-6.653 14.12-11.487Z"/><path fill="#0D131A" d="M163.332 129.794c2.915 13.975 4.922 22.135 6.021 24.48 2.581 5.647 5.734 10.601 9.462 14.86 2.246 2.584 5.83 6.006 10.752 10.266 10.321 8.997 18.158 18.354 23.51 28.069 6.26 11.247 9.008 24.241 8.243 38.981-.621 13.114-3.847 24.265-9.676 33.454-5.209 8.375-10.537 12.491-15.985 12.348-2.963-.096-5.901-1.508-8.816-4.236-2.533-2.393-4.827-5.528-6.881-9.404-1.864-3.494-3.178-5.624-3.943-6.389-.955-.958-2.365-1.412-4.229-1.364-12.854.43-27.166-.623-42.935-3.159-16.773-2.728-28.337-4.092-34.693-4.092-3.01 7.131-7.645 14.358-13.905 21.68-7.168 8.375-12.879 12.085-17.131 11.127-5.496-1.244-10.442-8.925-14.838-23.044-4.444-14.118-6.164-27.758-5.16-40.919.812-10.769.334-22.375-1.434-34.818-.956-6.748-3.035-17.54-6.236-32.377-2.867-13.496-4.707-23.977-5.52-31.443-1.29-11.582-1.146-22.302.43-32.161C32.614 87.726 38.922 76 49.293 66.476 60.378 56.282 73.734 51.042 89.36 50.754c30.153-.526 51.441 14.167 63.866 44.079 3.727 8.901 7.096 20.555 10.106 34.961Z"/><path fill="#0D131A" d="M66.781 217.664c1.004.143 1.72 1.196 2.15 3.158 6.26-4.02 23.057-3.852 50.391.503 26.186 4.211 43.891 8.973 53.113 14.286l.144-1.005c.191-.718.454-1.125.788-1.221.43-.095.86.168 1.29.79.431.622.765 1.507 1.004 2.656 2.724 13.831 1.171 27.758-4.659 41.781-2.533 6.03-5.496 10.864-8.888 14.501-3.489 3.781-6.905 5.696-10.25 5.744-5.878.095-11.445-3.351-16.701-10.338-4.206-5.6-6.953-11.247-8.243-16.942-12.759 0-24.013-2.417-33.761-7.251-16.438-8.184-25.637-22.206-27.596-42.068a10.24 10.24 0 0 1 .143-2.943c.191-1.149.55-1.699 1.075-1.651Z"/><path fill="#EEEEEF" d="M57.535 286.868c6.403-1.34 11.85-1.077 16.342.789-4.157 4.212-7.574 6.078-10.25 5.6-1.72-.239-3.75-2.369-6.092-6.389ZM159.748 290.601c-3.106 3.685-5.901 5.599-8.386 5.743-1.099.048-2.413-.287-3.942-1.005-1.816-.91-3.608-2.202-5.376-3.877 5.877-2.536 11.779-2.824 17.704-.861ZM196.018 282.489c2.819-.048 5.614.43 8.386 1.435-3.202 3.494-6.212 5.241-9.031 5.241-2.438 0-4.899-1.579-7.383-4.738 2.341-1.244 5.017-1.891 8.028-1.938Z"/><path fill="#D6E6AE" d="M151.72 100.289c3.297 8.375 5.997 17.947 8.1 28.715 2.294 11.726 4.324 20.149 6.093 25.27 2.628 7.61 9.557 16.799 20.786 27.567 12.09 11.582 19.64 20.412 22.651 26.49 2.819 5.743 4.946 11.893 6.379 18.45 1.529 7.083 2.103 14.118 1.72 21.106-.477 7.992-2.007 15.314-4.587 21.967-2.246 5.791-5.065 10.481-8.458 14.07-2.772-1.005-5.567-1.483-8.386-1.435-3.011.048-5.687.694-8.028 1.938-1.912-2.345-3.895-5.743-5.95-10.194-2.198-4.786-4.587-7.155-7.168-7.107l1.004-9.692.358-9.763c-.191-4.211-.836-6.413-1.935-6.604-1.099-.24-1.696 2.345-1.792 7.753-.191 9.715-1.625 18.426-4.301 26.131-2.198 6.413-5.017 11.63-8.458 15.65-5.925-1.962-11.827-1.675-17.704.861-3.154-3.015-5.83-6.915-8.028-11.701-2.629-5.887-4.373-12.827-5.233-20.819-.812-7.801-1.816-11.654-3.01-11.558-1.147.048-1.338 3.948-.574 11.702l.932 8.327-6.164.144-8.817-1.005c-10.704-2.01-19.496-6.102-26.378-12.276-7.263-6.509-11.803-14.884-13.619-25.126-.477-2.872-1.099-4.068-1.863-3.59-.717.479-.717 3.374 0 8.687 1.577 10.912 8.434 20.436 20.572 28.572-1.72 4.068-3.99 8.351-6.81 12.85-3.106 4.929-6.164 8.926-9.175 11.988-4.492-1.866-9.94-2.129-16.342-.789-3.345-5.695-6.07-13.592-8.172-23.69-2.246-10.864-3.154-21.346-2.724-31.444.526-12.73-.071-25.293-1.792-37.689-1.003-7.035-2.962-17.11-5.877-30.223-2.724-12.061-4.444-21.417-5.161-28.069-1.147-10.434-1.003-20.771.43-31.013 1.768-12.874 6.666-23.786 14.694-32.736 9.223-10.242 21.217-16.08 35.983-17.516 17.681-1.723 32.422 2.297 44.225 12.06 9.271 7.61 16.797 18.857 22.579 33.741Z"/><path fill="#0D131A" d="M271.997 118.092c0 7.897-.215 13.904-.645 18.019-.86 7.706-2.485 11.534-4.874 11.487-1.482-.048-3.25-2.322-5.305-6.82-3.249-7.036-6.044-12.324-8.386-15.866-11.086-16.463-29.316-27.806-54.691-34.028-14.813-3.637-29.794-9.667-44.942-18.09-12.042-6.653-25.876-15.842-41.502-27.567-2.628-1.962-4.683-3.135-6.164-3.518-2.055-.526-4.564-.191-7.527 1.005-4.874 1.962-7.43 4.619-7.67 7.969-.095 1.148.526 3.494 1.864 7.035.526 1.484-.31 4.02-2.508 7.61-2.246 3.59-4.11 5.384-5.591 5.384-1.29 0-3.058-1.388-5.304-4.164-2.438-2.92-3.656-5.528-3.656-7.825 0-3.063 1.362-7.06 4.086-11.989 3.631-6.556 8.505-11.51 14.622-14.86 1.72-.957 4.994-3.422 9.82-7.394 5.639-4.642 10.25-8.208 13.834-10.697C130.838 4.594 143.86 0 156.523 0c15.435 0 30.248 2.967 44.44 8.902 13.858 5.79 26.115 14.022 36.772 24.695C248.486 44.365 256.825 56.833 262.75 71c6.165 14.788 9.247 30.486 9.247 47.093ZM104.484 190.743c0 2.345-.717 4.331-2.15 5.958-1.434 1.627-3.297 2.489-5.591 2.584-2.533.144-4.946-.526-7.24-2.01-2.485-1.627-3.727-3.541-3.727-5.743 0-2.297.98-4.403 2.939-6.317 2.007-1.962 4.372-2.944 7.096-2.944 2.341 0 4.372.838 6.093 2.513 1.72 1.675 2.58 3.661 2.58 5.959ZM69.29 184.784c0 2.345-.836 4.403-2.509 6.174-1.72 1.771-3.75 2.656-6.092 2.656-2.342 0-4.898-1.292-7.67-3.876-2.82-2.633-4.23-5.097-4.23-7.395 0-1.579 1.41-3.158 4.23-4.738 3.01-1.723 5.997-2.273 8.96-1.651 2.341.527 4.133 1.532 5.376 3.015 1.29 1.532 1.935 3.47 1.935 5.815ZM141.112 177.677c.908 2.058.693 4.259-.645 6.605-1.29 2.153-3.059 3.709-5.304 4.666l-6.667.215c-2.293-.813-3.894-2.273-4.802-4.379-.908-2.154-.932-4.283-.072-6.389.908-2.058 2.437-3.566 4.588-4.523l7.383-.359c2.819.718 4.659 2.106 5.519 4.164ZM167.274 157.218c1.195 1.914 1.315 4.259.359 7.035-.908 2.68-2.389 4.666-4.444 5.958-2.055 1.292-4.42 1.532-7.096.718-2.39-.718-4.11-1.938-5.161-3.661-1.243-1.962-1.553-4.14-.932-6.533.621-2.393 1.935-4.211 3.942-5.456 2.103-1.292 4.516-1.794 7.24-1.507 2.867.335 4.898 1.483 6.092 3.446Z"/><path fill="#6CBA5A" d="M268.771 111.344c.717 7.849.837 14.837.359 20.963-.478 5.695-1.314 8.902-2.509 9.619l-2.222-5.312c-6.786-12.97-13.953-22.996-21.504-30.079-8.075-7.514-18.302-13.401-30.678-17.66l-13.547-4.81-23.081-8.4c-9.079-3.254-21.718-10.002-37.918-20.244l-25.087-16.44c-2.055-1.196-4.158-1.89-6.308-2.081l-6.164.646c-1.912.43-4.014 1.34-6.308 2.728-2.341 1.435-4.3 3.015-5.878 4.738-2.532 2.871-3.918 7.274-4.157 13.209-.143 3.11-.072 6.557.215 10.337-.956-.383-2.079-1.46-3.369-3.23-1.529-2.154-2.365-4.308-2.509-6.461-.143-2.106.454-4.81 1.792-8.112 1.434-3.542 3.226-6.461 5.376-8.759 2.007-2.105 4.086-3.9 6.236-5.384l4.874-3.23 14.336-10.553c5.639-4.164 10.37-7.394 14.192-9.692 10.896-6.604 21.337-9.835 31.324-9.691 18.589.191 36.508 5.097 53.759 14.717 18.254 10.098 32.733 23.905 43.437 41.422 8.363 13.592 13.476 30.845 15.339 51.759Z"/><path fill="#BFDDAD" d="M209.35 16.655c17.68 9.524 32.375 23.834 44.082 42.93 5.495 8.902 9.701 20.005 12.616 33.31-8.936-26.227-23.392-47.165-43.366-62.815-20.07-15.746-42.529-23.619-67.378-23.619-4.396 0-9.772.933-16.128 2.8-7.454 2.201-15.052 5.36-22.793 9.476 7.024-4.93 13.308-8.567 18.851-10.912 7.072-2.967 14.073-4.427 21.002-4.379 19.449.191 37.153 4.594 53.114 13.21Z"/><path fill="#5DA24D" d="M263.037 136.686c-2.389-5.791-4.946-10.673-7.67-14.645-10.704-15.746-28.289-26.825-52.755-33.238-17.872-4.69-36.747-12.683-56.626-23.978-13.237-7.562-25.661-15.817-37.273-24.767-1.481-1.196-3.512-1.627-6.093-1.292-2.676.335-5.614 1.46-8.816 3.374-1.673 1.005-3.154 2.417-4.444 4.236-1.195 1.579-1.983 3.11-2.365 4.594-.335 1.149 0 2.728 1.003 4.738 1.051 2.106 1.553 3.35 1.505 3.733-2.055 6.126-3.894 9.165-5.519 9.117-.287-3.78-.358-7.227-.215-10.337.239-5.935 1.625-10.338 4.157-13.21 1.577-1.722 3.536-3.302 5.878-4.738 2.294-1.387 4.396-2.297 6.308-2.728l6.164-.646c2.15.192 4.253.886 6.308 2.082l28.958 15.722 34.907 18.45c3.967 2.01 15.053 6.604 33.259 13.783 15.531 6.126 25.709 10.84 30.535 14.143 7.694 5.264 14.193 13.041 19.497 23.331 2.724 5.36 5.017 11.199 6.881 17.516l-.072.072c-.764.335-1.935-1.436-3.512-5.312ZM264.901 110.411c-.239.335-.55.455-.932.359-.765-.096-1.577-1.077-2.437-2.943l-7.813-16.296c-4.444-8.902-7.526-14.597-9.247-17.086-8.267-11.965-16.892-21.082-25.876-27.351-7.072-4.978-16.868-9.62-29.388-13.928-11.23-3.876-27.19-5.312-47.881-4.307l-30.248 2.8c-1.482.143.453-.718 5.805-2.584l8.459-2.8c9.222-1.962 17.417-3.159 24.585-3.59 5.448-.383 12.281-.359 20.5.072 5.4.287 12.831 2.202 22.292 5.743 6.165 2.345 11.421 4.595 15.77 6.748 10.751 5.313 21.264 14.095 31.538 26.347 6.738 8.04 11.373 14.669 13.906 19.885l5.806 15.148 5.161 13.783Z"/><path fill="#0D131A" d="M265.761 115.724c-4.11-12.683-7.861-22.758-11.254-30.224-6.069-13.448-14.001-24.336-23.797-32.663-21.599-18.426-44.393-28.333-68.381-29.72-14.623-.862-31.754 1.89-51.394 8.255-3.345 1.483-5.973 2.489-7.885 3.015-1.29.383-2.007.383-2.15 0-.143-.383.359-.933 1.505-1.651 4.158-2.537 11.612-5.05 22.364-7.538 8.649-2.01 16.056-3.326 22.22-3.948 18.063-1.723 35.171.933 51.322 7.968 9.318 4.068 19.879 10.697 31.682 19.886 11.134 8.662 20.5 21.632 28.098 38.91 2.915 6.7 6.021 15.864 9.318 27.494.287 1.053.239 1.771-.143 2.154s-.884-.263-1.505-1.938Z"/><path fill="#5DA24D" d="M55.958 189.091c-1.768-1.531-2.94-3.134-3.513-4.809l7.527.789c1.911 0 3.25-.383 4.014-1.148.669-.67 1.003-1.652 1.003-2.944l-.287-1.364c1.338 1.245 2.008 2.728 2.008 4.451 0 1.819-.55 3.494-1.65 5.025-1.242 1.628-2.675 2.441-4.3 2.441-1.433 0-3.034-.813-4.802-2.441Z"/><path fill="#6CBA5A" d="m60.043 186.148-4.3-.574-3.298-1.292-.286-1.58c0-1.531.955-2.751 2.867-3.661 1.577-.718 3.393-1.077 5.447-1.077 1.577 0 2.987.551 4.23 1.651l.286 1.364c0 3.446-1.649 5.169-4.946 5.169Z"/><path fill="#5DA24D" d="M97.603 185.071c1.338.383 2.413 1.077 3.225 2.082.861 1.005 1.291 2.178 1.291 3.518 0 1.723-.502 3.182-1.506 4.379-1.099 1.244-2.484 1.866-4.157 1.866-1.816 0-3.512-.55-5.09-1.651-1.72-1.148-2.58-2.536-2.58-4.163 0-1.149.43-2.322 1.29-3.518l.36.718c.955 1.34 2.603 2.01 4.945 2.01 1.099 0 2.055-.287 2.867-.862.765-.526 1.147-1.196 1.147-2.01 0-1.005-.597-1.794-1.792-2.369Z"/><path fill="#6CBA5A" d="M95.38 190.312c-2.34 0-3.99-.67-4.945-2.01l-.358-.718c1.529-1.867 3.416-2.8 5.662-2.8l1.864.287c1.195.575 1.792 1.364 1.792 2.369 0 .814-.382 1.484-1.147 2.01-.812.575-1.768.862-2.867.862Z"/><path fill="#5DA24D" d="m136.811 176.457-.072-.288c1.147.718 1.864 1.771 2.151 3.159.382 1.915-.239 3.733-1.864 5.456-1.577 1.675-3.273 2.513-5.089 2.513-1.72 0-3.178-.599-4.372-1.795-1.243-1.197-1.864-2.632-1.864-4.307 0-.527.072-1.077.215-1.651.334.574 1.29.981 2.867 1.22l3.727-.287c1.243-.431 2.27-1.029 3.083-1.795.812-.766 1.218-1.508 1.218-2.225Z"/><path fill="#6CBA5A" d="m132.51 180.477-3.727.287c-1.577-.239-2.532-.646-2.867-1.22.382-1.293 1.123-2.345 2.222-3.159 1.099-.861 2.365-1.292 3.799-1.292 2.007 0 3.608.359 4.802 1.077l.072.287c0 .718-.406 1.459-1.218 2.225-.813.766-1.84 1.364-3.083 1.795Z"/><path fill="#5DA24D" d="M163.261 157.146c.86.526 1.457 1.172 1.791 1.938.765 1.531.861 3.182.287 4.953-.621 1.819-1.696 3.111-3.225 3.877l-5.376.215c-2.007-.67-3.393-1.747-4.158-3.23l-.286-.718c.812.766 2.747.407 5.806-1.077.908-.431 1.983-1.34 3.225-2.728 1.338-1.436 1.983-2.513 1.936-3.23Z"/><path fill="#6CBA5A" d="M158.1 163.104c-3.059 1.484-4.994 1.843-5.806 1.077-.478-1.436-.406-2.872.215-4.307.573-1.436 1.577-2.489 3.01-3.159 1.147-.574 2.437-.814 3.871-.718 1.481.096 2.771.479 3.871 1.149.047.718-.598 1.794-1.936 3.23-1.242 1.388-2.317 2.297-3.225 2.728Z"/><path fill="#B9C897" d="M75.311 266.982c.669-6.509.358-12.874-.932-19.096 3.536 5.409 8.697 10.386 15.483 14.933-1.72 4.068-3.99 8.351-6.81 12.85-3.106 4.929-6.164 8.925-9.175 11.988-1.529-.622-2.986-1.029-4.372-1.22 3.058-5.839 4.994-12.324 5.806-19.455ZM93.302 251.404c9.749 2.967 20.261 3.901 31.539 2.8l.358 4.882.932 8.327-6.164.144-8.817-1.005c-7.98-1.484-14.957-4.164-20.93-8.041-6.164-4.068-10.943-9.213-14.336-15.434 5.066 3.541 10.872 6.317 17.418 8.327ZM155.304 253.917c-1.147-14.932 1.266-23.26 7.24-24.983 2.341-.67 4.635.096 6.881 2.297 2.294 2.346 3.87 5.624 4.731 9.836-1.052.191-1.601 2.775-1.649 7.753-.191 9.715-1.625 18.425-4.301 26.131-2.198 6.413-5.017 11.63-8.458 15.65l-5.806-1.077c2.007-8.854 2.461-20.723 1.362-35.607ZM182.04 274.233c-2.198-4.786-4.587-7.155-7.168-7.107.717-4.116 1.171-9.644 1.362-16.583 11.756-4.212 19.186-7.323 22.292-9.333 8.602-5.456 13.524-13.185 14.766-23.188 3.297 9.955 4.683 19.91 4.157 29.865-.477 7.992-2.007 15.314-4.587 21.967-2.246 5.791-5.065 10.481-8.458 14.07-2.772-1.005-5.567-1.483-8.386-1.435-3.011.048-5.687.694-8.028 1.938-1.912-2.345-3.895-5.743-5.95-10.194Z"/><path fill="#C8C9CA" d="M65.133 293.257c1.624-2.01 3.082-4.283 4.372-6.82 1.386.191 2.843.598 4.372 1.22-3.297 3.398-6.212 5.265-8.744 5.6ZM151.864 296.272l2.078-6.748 5.806 1.077c-2.867 3.35-5.495 5.24-7.884 5.671ZM196.018 282.489c2.819-.048 5.614.43 8.386 1.435-3.202 3.494-6.212 5.241-9.031 5.241-2.438 0-4.899-1.579-7.383-4.738 2.341-1.244 5.017-1.891 8.028-1.938Z"/><path fill="#0D131A" d="M54.954 286.437c4.444-1.388 7.909-2.01 10.394-1.867 2.628.144 5.877 1.173 9.748 3.087l-1.434 2.154c-5.352-2.584-11.158-2.943-17.418-1.077l-1.29-2.297ZM151.577 288.088c3.44 0 6.977.981 10.608 2.944l-2.007 1.651c-2.532-1.197-5.376-1.819-8.529-1.867-3.68-.096-7.312.622-10.896 2.154l-1.935-1.651c4.683-2.202 8.936-3.279 12.759-3.231ZM191.144 281.914c2.15-.718 4.276-1.005 6.379-.861 3.106.191 6.26 1.292 9.461 3.302l-1.72 1.723c-2.055-1.244-4.635-1.986-7.741-2.226-4.205-.143-7.502.671-9.892 2.441l-2.007-1.364a16.754 16.754 0 0 1 5.52-3.015Z"/><path fill="#fff" d="M126.704 83.778c3.011 3.254 5.591 7.657 7.742 13.209 2.007 5.264 3.201 10.457 3.584 15.578.382 5.312-.287 9.332-2.007 12.06-1.147 1.819-4.54 3.207-10.179 4.164l-11.827.431c-1.959-.431-3.775-3.231-5.447-8.399-1.673-5.026-2.676-10.625-3.011-16.799-.382-6.796.191-12.396 1.721-16.799 1.863-5.168 4.85-7.944 8.959-8.327 3.584-.383 7.073 1.244 10.465 4.882ZM64.487 132.737c-.477 1.484-3.464 2.537-8.96 3.159-5.495.622-8.72.287-9.676-1.005-1.72-2.393-3.058-6.126-4.014-11.199a62.855 62.855 0 0 1-.86-15.291c.765-12.874 4.563-19.383 11.397-19.527 5.256-.143 9.175 5.6 11.755 17.229 2.437 10.96 2.557 19.838.358 26.634Z"/><path fill="#C6000B" d="M106.061 108.975c-.86-4.786-.98-9.691-.358-14.717.86-7.083 3.249-10.72 7.168-10.911 3.583-.144 6.952 2.44 10.106 7.753 2.867 4.93 4.468 9.954 4.803 15.075l.071 9.405c-.478 4.881-1.696 9.26-3.655 13.137-5.926 1.005-9.581.933-10.967-.215-2.772-2.202-5.161-8.711-7.168-19.527ZM50.868 126.564c-1.146-4.403-1.744-9.285-1.791-14.645-.24-13.162 2.03-19.838 6.809-20.03 2.485-.095 4.587 1.82 6.308 5.744 1.577 3.685 2.652 8.758 3.225 15.219.287 3.35.383 7.083.287 11.199-.096 4.929-.478 7.849-1.147 8.758-.573.862-2.246 1.58-5.017 2.154l-4.014.574c-1.912-1.244-3.465-4.235-4.66-8.973Z"/><path fill="#F09CB4" d="M111.939 112.349c.143 3.063.812 5.456 2.007 7.179 1.051 1.58 2.269 2.297 3.655 2.154 3.489-.287 4.922-3.948 4.301-10.984l2.795 2.944 2.151 2.799c.143 3.063-.191 5.983-1.004 8.759-.669 2.297-1.218 3.469-1.648 3.517-4.349 1.101-7.335 1.412-8.96.933-3.393-1.005-5.758-4.666-7.096-10.983.047-.431.693-1.627 1.935-3.59l1.864-2.728ZM50.51 125.415l3.727-4.81c.622 5.217 2.15 7.634 4.588 7.251 2.437-.383 3.345-3.278 2.724-8.687l4.587 2.728.143 6.892c-.143 2.249-.98 3.901-2.508 4.954-.86.622-1.912 1.076-3.154 1.364l-5.663.646c-.334.047-1.027-.934-2.078-2.944-1.243-2.441-2.031-4.905-2.366-7.394Z"/><path fill="#fff" d="M118.39 95.48c.334 2.44.215 4.594-.359 6.46-.573 1.819-1.409 2.8-2.508 2.944-1.147.095-2.246-.67-3.298-2.298-1.003-1.627-1.672-3.66-2.007-6.102-.334-2.44-.215-4.57.359-6.389.573-1.819 1.433-2.8 2.58-2.943 1.099-.144 2.174.598 3.226 2.225 1.003 1.627 1.672 3.661 2.007 6.102ZM60.043 103.088c.24 2.202.072 4.14-.501 5.815-.526 1.628-1.267 2.489-2.222 2.585-.956.095-1.864-.622-2.724-2.154-.813-1.484-1.338-3.326-1.577-5.528-.191-2.249 0-4.187.573-5.815.526-1.627 1.267-2.488 2.222-2.584.956-.048 1.84.67 2.653 2.154.86 1.483 1.385 3.326 1.576 5.527Z"/><path fill="#922F00" d="M88.572 136.255c5.16-.479 9.007.263 11.54 2.225.573 1.341.86 3.159.86 5.456l-.574 5.026c-3.058-2.345-7.144-3.159-12.257-2.441-4.396.574-6.976 1.46-7.74 2.656-.43-.191-1.124-1.532-2.08-4.02-.955-2.537-1.242-4.044-.86-4.523 2.15-2.489 5.854-3.948 11.11-4.379Z"/><path fill="#ED8599" d="M90.865 146.234c4.635-.192 7.813.67 9.533 2.584-.382 1.627-1.314 3.231-2.795 4.81-2.055 2.201-4.54 3.422-7.455 3.661-2.914.287-5.423-.861-7.526-3.446-1.959-2.345-2.628-3.805-2.007-4.379 2.198-2.01 5.615-3.087 10.25-3.23Z"/><path fill="#0D131A" d="M78.393 138.05c3.584-1.58 6.762-2.489 9.533-2.728 2.867-.24 6.332.143 10.394 1.148 2.485.67 4.372 0 5.662-2.01 1.052-1.675 1.768-2.297 2.151-1.866.382.478.191 1.531-.574 3.158-.43 1.005-1.027 1.843-1.792 2.513-.716.622-1.362.933-1.935.933.478 5.169-.191 9.524-2.007 13.066-2.007 3.781-5.041 5.886-9.103 6.317-4.253.431-7.909-1.507-10.967-5.815-2.39-3.35-3.894-7.083-4.516-11.199-1.099.096-1.935-.072-2.508-.502-.717-.479-1.434-1.508-2.15-3.087-.574-1.34-.646-2.106-.216-2.298.43-.239 1.051.288 1.864 1.58.669.957 1.338 1.531 2.007 1.723.956.191 2.341-.12 4.157-.933Zm11.469-.647c-4.731.144-8.65 1.269-11.756 3.375.24 4.163 1.53 7.872 3.871 11.127 2.437 3.398 5.113 5.001 8.028 4.81 4.396-.24 7.311-2.872 8.745-7.897 1.147-4.02 1.218-7.347.215-9.979-2.198-1.053-5.233-1.531-9.103-1.436Z"/><path fill="#0D131A" d="M89.575 144.511c3.823-.288 7.311.837 10.465 3.374.526.43.645.933.358 1.507-.286.575-.692.646-1.218.216-2.533-2.106-5.639-3.111-9.318-3.016-3.728.144-6.738 1.436-9.032 3.877l-1.003-.072c-.287-.43-.24-.861.143-1.292 2.628-2.824 5.83-4.355 9.605-4.594ZM125.414 105.673c-.812-6.174-2.341-11.223-4.587-15.147-2.389-4.26-5.089-6.198-8.1-5.815-1.577.239-2.891 1.292-3.942 3.158-1.147 2.01-1.959 4.81-2.437 8.4l.071-2.657-.071-2.871c.382-2.058 1.123-3.924 2.222-5.6 1.242-1.818 2.604-2.823 4.085-3.015 3.489-.478 6.738 1.508 9.749 5.959 3.01 4.45 4.969 10.098 5.877 16.942.574 4.547.669 8.974.287 13.281-.478 4.834-1.529 8.423-3.154 10.768l-1.29-.143-1.075-.144c1.386-2.106 2.27-5.6 2.652-10.481.334-4.307.239-8.519-.287-12.635ZM62.91 105.17c-.86-3.733-1.887-6.7-3.082-8.901-1.338-2.346-2.676-3.494-4.014-3.446-2.15.143-3.727 2.32-4.73 6.533-.956 3.972-1.243 8.997-.86 15.075.238 4.212.907 8.232 2.006 12.061 1.1 3.972 2.366 6.7 3.8 8.184l-.502.646-.574.574c-1.959-1.197-3.68-3.948-5.16-8.256-1.339-4.02-2.151-8.279-2.438-12.778-.382-6.27.024-11.63 1.219-16.08 1.386-4.978 3.512-7.682 6.38-8.113 1.48-.24 2.986.646 4.515 2.656 1.386 1.819 2.39 3.9 3.01 6.246-.143.67-.071 1.603.216 2.8l.215 2.799Z"/><path fill="#0D131A" d="M116.454 77.89c7.025-.86 12.807 3.088 17.347 11.846 4.205 8.04 5.925 16.75 5.16 26.131-.382 5.073-1.027 7.921-1.935 8.543-.908.622-1.147-1.484-.717-6.318.669-9.619-1.027-18.473-5.089-26.561-4.109-8.232-8.912-12.037-14.407-11.415-7.646.814-11.086 8.4-10.322 22.757.287 5.456 1.147 10.673 2.581 15.65 1.433 4.882 2.914 7.873 4.444 8.974.908.67 2.962.933 6.164.789l9.318-1.148c3.202-.67 4.779-.694 4.731-.072-.048.67-1.792 1.364-5.233 2.082l-9.318 1.292-6.308-.503c-2.676-1.387-4.945-4.785-6.809-10.194-1.816-5.216-2.772-10.911-2.867-17.085-.096-6.605.884-12.085 2.939-16.44 2.293-4.977 5.734-7.753 10.321-8.327ZM40.117 101.15c2.15-9.14 6.236-13.735 12.257-13.783 6.546-.048 11.182 6.916 13.905 20.89 1.052 5.504 1.482 10.793 1.29 15.866-.238 5.121-1.098 8.543-2.58 10.266-.717.813-2.46 1.435-5.232 1.866l-7.957.503c-3.392-.048-5.089-.359-5.089-.934 0-.574 1.577-.861 4.731-.861 6.212-.287 10.011-.981 11.397-2.082.956-.766 1.505-3.422 1.648-7.969.192-4.546-.119-9.404-.931-14.573-2.007-13.496-5.591-20.364-10.752-20.603-5.113-.24-8.41 4.475-9.892 14.142-1.386 8.663-.98 16.847 1.219 24.552 1.051 3.59 1.147 5.265.286 5.025-.812-.239-1.744-2.177-2.795-5.815-3.01-8.949-3.512-17.779-1.505-26.49Z"/></g><defs><radialGradient id="b" cx="0" cy="0" r="1" gradientTransform="rotate(90 0 150) scale(200)" gradientUnits="userSpaceOnUse"><stop stop-color="#D6E6AE"/><stop offset="1" stop-color="#6CBA5A"/></radialGradient><clipPath id="a"><path fill="#fff" d="M0 0h300v300H0z"/></clipPath></defs></svg>