<svg xmlns="http://www.w3.org/2000/svg" fill="none" viewBox="0 0 300 300"><g clip-path="url(#a)"><path fill="#fff" d="M0 0h300v300H0z"/><path fill="url(#b)" d="M-50-50h400v400H-50z"/><path fill="#EEEEEF" d="M296.637 230.581c-2.607 8.911-6.26 14.699-10.959 17.366-4.881 2.789-12.112 2.925-21.692.41-9.459-2.486-21.92-8.426-37.382-17.821-15.067-9.153-23.799-15.882-26.194-20.185-.515-.91-.318-2.319.591-4.228.849-1.789 1.456-2.652 1.819-2.592 6.913-5.031 14.674-10.092 23.284-15.184 17.281-10.183 30.227-15.427 38.837-15.73 4.911-.181 9.716 1.91 14.416 6.274 4.214 3.91 7.928 9.198 11.141 15.866 3.002 6.274 5.078 12.699 6.23 19.276 1.213 6.698 1.183 12.214-.091 16.548ZM127.649 244.628c-4.972-9.153-5.003-15.957-.091-20.412 3.486-3.122 11.975-5.258 25.466-6.41 13.158-1.121 20.828-.682 23.011 1.318 1.516 1.394 4.154 4.804 7.913 10.229 4.366 6.335 8.292 12.714 11.778 19.14 9.914 18.336 12.931 30.701 9.05 37.096-1.364 2.273-4.017 3.561-7.958 3.865-3.79.272-8.398-.41-13.825-2.046-12.006-3.667-23.905-10.35-35.699-20.049-8.822-7.274-15.371-14.851-19.645-22.731Z"/><path fill="#003F4D" d="M296.728 214.033c1.213 6.698 1.183 12.214-.091 16.548-2.607 8.911-6.26 14.699-10.959 17.366-4.881 2.789-12.112 2.925-21.692.41-2.092-.546-4.563-1.379-7.413-2.501 9.671-.03 17.402-2.243 23.193-6.637 5.366-4.092 8.064-9.229 8.095-15.412.091-17.609-5.821-30.974-17.736-40.097a46.492 46.492 0 0 0-12.279-6.728l-5.593-1.637c4.942-1.727 9.171-2.637 12.688-2.728 4.911-.181 9.716 1.91 14.416 6.274 4.214 3.91 7.928 9.198 11.141 15.866 3.002 6.274 5.078 12.699 6.23 19.276ZM128.831 226.353c.182 2.697.91 5.622 2.183 8.774 4.123 10.062 13.082 20.427 26.876 31.096 12.521 9.698 23.299 15.29 32.334 16.775 8.155 1.333 13.521-.773 16.098-6.319a23.723 23.723 0 0 1-.227 4.864c-.303 1.728-.743 3.076-1.319 4.046-1.364 2.273-4.017 3.561-7.958 3.865-3.79.272-8.398-.41-13.825-2.046-12.006-3.668-23.905-10.35-35.699-20.049-8.822-7.274-15.371-14.851-19.645-22.731-4.972-9.153-5.003-15.957-.091-20.412l1.409-1-.136 3.137Z"/><path fill="#0D131A" d="M280.63 183.21c-3.184-3.334-6.579-5.804-10.187-7.411-3.183-1.424-6.003-1.97-8.458-1.636-5.73.757-13.871 3.788-24.421 9.092-11.884 5.971-22.495 12.82-31.833 20.549-2.274 1.879-3.426 3.576-3.456 5.091-.061 1.637 1.228 3.501 3.865 5.592 12.582 9.881 24.648 17.609 36.199 23.186 10.096 4.849 20.207 8.213 30.333 10.092 8.306 1.546 14.476-.909 18.508-7.365 3.396-5.455 4.699-12.365 3.911-20.73-1.485-15.73-6.306-27.883-14.461-36.46Zm-20.192-11.775c6.883-1.637 13.567.515 20.055 6.456 5.943 5.394 10.657 12.82 14.143 22.276 3.487 9.456 4.851 18.518 4.093 27.186-.849 9.517-4.199 16.578-10.05 21.185-6.73 5.304-19.206 4.213-37.427-3.273-17.493-7.183-33.5-17.306-48.022-30.369-2.517-2.273-3.896-3.758-4.139-4.455-.242-.788.061-2.909.91-6.364.727-2.94 9.307-8.759 25.739-17.458 16.008-8.456 27.574-13.517 34.698-15.184ZM147.885 219.124c-10.429 1.213-16.689 3.046-18.781 5.501-3.881 4.546-3.759 10.85.364 18.912 4.002 7.82 11.081 16.033 21.237 24.64 8.459 7.153 18.069 12.669 28.832 16.548 11.46 4.122 19.13 4.319 23.011.592 2.91-2.789 2.501-9.29-1.228-19.504-2.971-8.122-7.625-17.608-13.961-28.459-3.608-6.273-6.261-10.486-7.959-12.638-2.304-2.909-4.623-4.652-6.957-5.228-6.003-1.455-14.189-1.576-24.558-.364Zm-21.964 4.592c1.334-1.97 6.503-3.773 15.507-5.41a146.01 146.01 0 0 1 26.376-2.41c4.032 0 7.443 1.182 10.232 3.546 1.455 1.213 3.274 3.456 5.457 6.729 8.55 12.759 15.007 24.231 19.373 34.414 6.185 14.427 6.746 23.58 1.683 27.459-5.185 3.971-13.158 4.198-23.921.682-9.914-3.212-19.964-8.774-30.15-16.684-10.399-8.062-17.994-16.321-22.784-24.777-5.336-9.456-5.927-17.306-1.773-23.549Z"/><path fill="#0D131A" d="m250.252 176.345 2.638-1.319c10.004 1.213 18.781 6.774 26.33 16.685 7.792 10.244 11.142 21.321 10.05 33.232-.636 6.82-3.774 12.26-9.413 16.321-6.246 4.486-13.931 5.834-23.056 4.046l-1.82-1.5c-.848-.727-1.515-1.167-2-1.318 9.307 2.364 17.159 1.576 23.556-2.364 7.003-4.304 10.217-11.427 9.641-21.367-.728-12.305-5.578-22.807-14.552-31.505-3.578-3.486-7.398-6.229-11.46-8.229-3.79-1.849-7.095-2.743-9.914-2.682ZM127.649 224.125l1.228-.954 1.227-1.001c-1.243 5.486 1.228 12.699 7.413 21.64 5.275 7.638 11.369 14.154 18.281 19.549 10.126 7.88 20.252 13.472 30.378 16.775 11.521 3.758 17.797 2.303 18.827-4.364l.091 1.091c.061 1.061.182 1.758.364 2.091-2.425 7.001-10.505 7.744-24.239 2.228-4.941-1.97-10.186-4.592-15.734-7.865-4.548-2.698-8.11-5.077-10.687-7.138a92.377 92.377 0 0 1-19.464-21.321c-5.639-8.486-8.201-15.397-7.685-20.731Z"/><path fill="#0D131A" d="m284.086 204.531.728 1.228.682 1.227c-4.366-.394-16.781-.454-37.245-.182l-39.655.455v-1.682c8.368.091 33.531-.258 75.49-1.046ZM281.858 237.855l-1.137.909-1.183.773c-4.85-1.607-12.854-4.516-24.011-8.729-14.34-5.425-30.12-11.578-47.34-18.457v-.364l39.109 13.729 34.562 12.139ZM287.315 222.307l.227 1.136-.045 1.091-37.745-7.41-41.565-7.728v-1.864l79.128 14.775ZM147.522 258.722c-.607-.576-1.167-1.349-1.683-2.319l16.281-11.411c7.912-5.577 13.066-9.426 15.461-11.547l1.456 1.455c-2.305 1.848-8.05 6.061-17.236 12.638-7.215 5.152-11.975 8.88-14.279 11.184ZM167.304 272.815c-.88-.364-1.698-.925-2.456-1.682 2.122-3.577 5.154-9.502 9.095-17.776 4.366-9.183 7.2-14.972 8.504-17.366.788.788 1.774 1.197 2.956 1.227l-.5.773-8.913 17.366c-4.548 8.79-7.443 14.609-8.686 17.458ZM185.812 263.95l1.592-19.367.773 1.728c.273.818.531 1.424.773 1.818l-1.318 18.367-1.137 15.138c-1.001-.879-1.728-1.439-2.183-1.682l1.5-16.002Z"/><path fill="#0D131A" d="M264.349 209.305c3.457 2.97 4.563 6.577 3.32 10.82-1.213 4.031-3.805 6.637-7.776 7.819-4.639 1.364-14.037-.333-28.195-5.092-13.522-4.516-23.375-8.986-29.56-13.411-.879-.636-.53-1.803 1.046-3.5 1.001-1.061 1.41-1.667 1.228-1.819l26.922.364c19.069.727 30.075 2.333 33.015 4.819Z"/><path fill="#EEEEEF" d="M262.53 210.805c1.274.788 2.198 2 2.774 3.637.577 1.606.683 3.258.319 4.955-.879 4.183-3.79 6.486-8.732 6.91-3.759.334-13.309-2.046-28.649-7.137-12.976-4.304-21.086-7.244-24.33-8.82-1.001-.485-1.425-1.242-1.273-2.273.121-1 .682-1.606 1.682-1.818 2.668-.546 11.263-.607 25.785-.182 17.342.515 28.15 2.091 32.424 4.728Z"/><path fill="#0D131A" d="M181.265 260.904c-4.063 1.273-7.898.788-11.506-1.455-3.092-1.94-4.744-4.955-4.957-9.047-.181-3.97 1.031-7.334 3.639-10.092 1.849-1.94 3.986-3.774 6.412-5.501 2.304-1.667 4.502-2.986 6.594-3.955 1.637-.788 3.304-.455 5.002 1 1.577 1.333 2.365 2.833 2.365 4.5l.273 7.638c.121 3.879-.031 6.91-.455 9.092-.758 3.88-3.214 6.486-7.367 7.82Z"/><path fill="#EEEEEF" d="M183.675 257.176c-2.941 2.303-6.351 2.819-10.232 1.546-4.093-1.334-6.23-4.137-6.412-8.411-.182-3.819 1.834-7.728 6.048-11.729 3.547-3.364 7.11-5.622 10.687-6.774 1.273-.394 2.183.031 2.729 1.273.363.788.591 2.061.682 3.819.303 4.94.303 8.82 0 11.638-.485 4.274-1.653 7.153-3.502 8.638ZM270.58 68.51c8.367 14.275 14.567 27.262 18.599 38.961 6.215 18.154 6.716 31.914 1.501 41.279-8.58 15.426-23.511 29.732-44.794 42.916-7.822 4.819-15.492 8.85-23.011 12.092-6.639 2.88-11.217 4.365-13.733 4.456-3.82.151-8.58-2.41-14.28-7.683-4.608-4.274-7.685-7.911-9.232-10.911-6.275-9.729-11.505-24.11-15.689-43.143-4.942-22.398-6.563-44.477-4.866-66.238 1.274-16.245 5.321-31.217 12.142-44.916 7.853-15.82 17.024-24.004 27.513-24.55 10.096-.545 22.572 6.623 37.427 21.504 11.612 11.638 21.086 23.716 28.423 36.233ZM5 117.427c2.152-5.577 12.855-5.365 32.106.636 14.461 4.516 28.892 10.426 43.293 17.73 10.43 5.274 22.026 12.517 34.789 21.731 13.461 9.698 22.42 17.487 26.877 23.367l37.699 42.507c-7.003 3.152-19.721 6.455-38.154 9.911-21.374 4-36.229 4.864-44.567 2.591-10.702-2.91-20.858-7.607-30.469-14.093-11.793-7.971-23.177-18.852-34.152-32.642-11.308-14.244-19.464-28.338-24.466-42.279C3.378 134.005 2.393 124.185 5 117.427Z"/><path fill="#003F4D" d="M239.838 46.643c-3.668-3.819-7.685-4.5-12.051-2.046-1.364.758-2.668 1.788-3.911 3.091l-1.501 1.728a27.72 27.72 0 0 0 2.183-8.547c.576-5.94-1.349-9.456-5.775-10.547-4.427-1.091-8.004-.515-10.733 1.728a9.372 9.372 0 0 0-2.183 2.455l-.636 1.227c.697-5.637-.182-8.471-2.638-8.501-.788-.03-1.667.242-2.637.818l-1.274.818c1.243-6.455.44-10.532-2.41-12.229-.879-.515-1.91-.773-3.092-.773l-1.501.182c4.153-3.303 8.504-5.061 13.052-5.273 10.095-.546 22.571 6.622 37.426 21.503 11.612 11.638 21.086 23.716 28.423 36.233 8.367 14.275 14.567 27.262 18.6 38.961 6.215 18.154 6.715 31.914 1.5 41.279l-5.502 9.001c1.212-2.546 2.167-5.485 2.865-8.819 1.455-6.607 1-11.775-1.365-15.503-2.395-3.728-4.744-5.167-7.048-4.319-.667.213-1.304.637-1.91 1.273.97-1.424 1.743-3.273 2.319-5.546 1.485-5.91.697-12.502-2.365-19.776-3.062-7.274-6.306-11.138-9.732-11.593-1.091-.151-2.137.046-3.138.591l-1.046.819c.94-.758 1.501-2.167 1.683-4.228.364-4.213-1.531-9.744-5.684-16.594-4.154-6.88-8.201-10.335-12.143-10.365a6.171 6.171 0 0 0-3.456 1.046l-1.228 1c.971-1.667 1.562-3.713 1.774-6.138.424-4.818-1.198-9.137-4.866-12.956ZM34.514 117.427l-9.095-.728c-6.276.122-9.93 1.789-10.96 5.001-1.03 3.183-.136 6.062 2.683 8.638 1.395 1.303 2.895 2.273 4.502 2.909-1.303-.151-2.365.167-3.183.955-.819.788-1.167 1.743-1.046 2.864.242 2.879 2.683 4.501 7.322 4.865-3.063.576-4.912 1.985-5.548 4.228-.85 2.97-.334 5.985 1.546 9.046 2.213 3.516 5.73 5.835 10.55 6.956-2.183 1.212-3.138 3.031-2.865 5.456.243 2.182 1.41 4.546 3.502 7.092 2 2.485 4.456 4.621 7.367 6.41 3.062 1.879 5.987 2.955 8.777 3.227-2.517 1.789-1.94 4.925 1.728 9.411 3.76 4.637 8.792 8.016 15.098 10.138-1.304.818-1.683 2.031-1.137 3.637.515 1.606 1.804 3.288 3.865 5.046 4.881 4.183 11.157 6.895 18.828 8.138-3.002.394-3.972 1.273-2.911 2.637.88 1.151 3.426 2.879 7.64 5.182 3.183 1.758 7.913 3.683 14.188 5.774l8.459 2.591c-7.276.394-12.87.061-16.78-1-10.703-2.91-20.859-7.607-30.47-14.093-11.793-7.971-23.177-18.852-34.152-32.642-11.308-14.244-19.464-28.337-24.466-42.279C3.378 134.005 2.393 124.185 5 117.427c.94-2.395 4.563-3.455 10.869-3.183 5.154.243 11.369 1.304 18.645 3.183Z"/><path fill="#0D131A" d="M287.542 139.703c-.333-3.273-1.501-5.85-3.502-7.729-2.061-1.939-3.774-1.924-5.138.046-2.335 3.243-14.204 16.184-35.608 38.824l-34.425 36.324 2.41.045c7.003-2.273 15.932-6.425 26.785-12.456 9.853-5.486 17.448-10.305 22.784-14.457 9.095-7.122 15.78-13.684 20.055-19.685 5.093-7.152 7.306-14.123 6.639-20.912ZM198.864 33.504c-1.395 3.637-3.002 8.85-4.821 15.64a327.816 327.816 0 0 0-4.911 21.593c-3.244 16.912-5.548 34.476-6.912 52.691-1.546 20.851-1.425 38.006.363 51.462.455 3.243 1.562 5.425 3.32 6.547 1.819 1.182 2.88-.409 3.184-4.774 1.394-20.185 6.139-45.234 14.234-75.148 6.912-25.489 12.824-43.189 17.735-53.1 2.456-5 3.002-9.167 1.637-12.501-1.212-2.91-3.441-4.5-6.685-4.774-3.88-.333-6.867 1.182-8.958 4.547-1.304 2.09-2.729 6.107-4.275 12.047-2.395 9.91-4.593 18.2-6.594 24.867l-2.092-.682 5.366-20.685c1.789-6.91 3.259-12.395 4.411-16.457.607-3.485.288-5.486-.955-6-1.273-.516-2.622 1.06-4.047 4.727Zm-1.092-10.638c-.242-3.394-1.409-5.107-3.501-5.137-8.095 4.85-14.552 13.487-19.373 25.913-4.275 11.093-7.003 24.413-8.186 39.961-1.091 14.275-.773 28.717.955 43.325 1.698 14.275 4.427 26.292 8.186 36.051.97 2.485 1.683 3.516 2.137 3.092.455-.394.576-1.713.364-3.956-1.516-15.244-.06-37.596 4.366-67.056 3.699-24.549 7.397-42.779 11.096-54.69l2.046-6.137c1.486-4.334 2.123-8.123 1.91-11.366Zm73.308 73.966c-2.183-2.636-4.199-2.818-6.049-.545-11.52 14.184-23.026 31.202-34.516 51.053-10.52 18.124-19.403 35.748-26.649 52.872-1.182 2.819-1.819 5.047-1.91 6.683-3.789-2-7.715-5.228-11.778-9.683-3.426-3.728-5.7-6.819-6.821-9.274l-5.139-10.82c-2.153-4.668-3.987-9.214-5.503-13.639-4.244-12.456-7.352-28.08-9.322-46.871-3.032-29.247-.228-54.145 8.413-74.693 3.547-8.365 7.837-15.397 12.869-21.095 4.548-5.122 9.202-8.683 13.962-10.683 8.246-3.425 18.402-.924 30.468 7.501 10.975 7.698 21.935 19.034 32.88 34.006 10.702 14.73 19.13 29.822 25.284 45.28 6.579 16.547 9.171 30.353 7.777 41.415-2.123 16.821-15.386 33.157-39.792 49.008-8.519 5.546-17.614 10.501-27.285 14.866-7.883 3.576-13.643 5.728-17.281 6.455-1.88.425-4.033.167-6.458-.773l2.365-2.182c7.367-7.91 18.357-19.442 32.97-34.596 13.309-14.063 25.103-27.141 35.38-39.234 2.335-2.758 3.638-6.258 3.911-10.501.273-4.274-.53-8.926-2.41-13.957-1.849-4.97-3.638-8.501-5.366-10.593Zm-14.689-24.776c-2.607-3.122-4.972-5.122-7.094-6.001-2.092-.849-3.593-.455-4.502 1.182a526.527 526.527 0 0 0-28.559 61.009c-10.005 25.55-15.659 46.387-16.963 62.51-.333 4.153-.379 7.017-.136 8.593.394 2.364 1.425 1.636 3.092-2.183 10.035-22.973 19.994-42.521 29.878-58.645 3.699-6.062 8.307-13.123 13.825-21.185l15.189-22.231c1.819-2.728 2.47-5.94 1.955-9.638-.637-4.334-2.865-8.804-6.685-13.411Zm-31.015-36.142c.971 2.697 1.183 5.592.637 8.683 1.971-2.303 4.275-3.319 6.912-3.046 2.365.212 4.669 1.394 6.913 3.546 2.183 2.061 3.865 4.561 5.048 7.501 1.243 3.092 1.637 6.016 1.182 8.774 1.455-.485 3.411.182 5.866 2 2.395 1.758 4.76 4.198 7.095 7.32 5.639 7.547 8.14 14.411 7.503 20.594 2.426.334 4.79 1.788 7.094 4.364 2.183 2.486 4.002 5.607 5.458 9.366 3.304 8.668 3.501 16.26.591 22.776 4.275-.03 7.2 2.106 8.777 6.41 1.273 3.516 1.591 8.047.955 13.593 3.547-11.396 2.789-24.822-2.274-40.279-4.73-14.396-13.082-30.232-25.057-47.508-11.764-17.002-22.996-29.565-33.698-37.687-12.733-9.638-23.36-11.79-31.879-6.456 1.698.152 2.88 1.516 3.547 4.092.576 2.212.682 4.622.319 7.228.939-.515 1.985-.621 3.137-.318 1.88.485 2.774 2.41 2.684 5.774 2.516-2.455 5.138-3.865 7.867-4.228 2.486-.364 4.775.166 6.867 1.59 2.001 1.395 3.486 3.365 4.456 5.91Zm16.508 17.548c-1.455-4.516-3.835-7.32-7.14-8.41l-4.956.227c-2.365 1.121-4.669 3.728-6.913 7.82-7.67 14.214-15.174 37.945-22.51 71.192-3.093 13.912-5.473 26.777-7.14 38.597-1.698 12.063-2.35 20.746-1.956 26.05.273 3.243.804 5.092 1.592 5.546.91.515 1.819-1.364 2.729-5.637 5.548-26.792 13.324-52.099 23.329-75.921 3.486-8.335 7.503-17.048 12.051-26.14l10.005-19.731c2.152-4.304 2.455-8.835.909-13.593ZM143.975 184.619l-.728-.318-1.637-2.137 2.365 2.455Z"/><path fill="#0D131A" d="M18.506 132.656c-4.062-2.394-6.033-5.561-5.912-9.501.152-4.061 2.623-6.198 7.413-6.41-5.275-1.758-9.186-1.576-11.733.545-2.365 1.94-3.426 5.425-3.183 10.456.485 10.184 5.411 23.216 14.78 39.098 9.974 16.911 21.874 31.444 35.698 43.597 16.129 14.154 32.106 22.367 47.932 24.641-5.093-1.607-10.247-3.895-15.462-6.865-6.215-3.546-8.14-6.001-5.775-7.365-5.185-1.061-10.187-3.546-15.007-7.456-4.942-3.97-6.61-7.031-5.003-9.183-4.911-1.303-9.474-4.652-13.688-10.047-1.698-2.182-2.835-4.152-3.41-5.91-.577-1.849-.38-3 .59-3.455-5.154-.758-10.08-4.077-14.78-9.956-2.06-2.546-3.304-4.865-3.728-6.956-.455-2.334.181-3.985 1.91-4.955l-.046-.046c-2.88-.879-5.32-2.409-7.322-4.591-1.97-2.182-3.32-4.85-4.047-8.002-.394-1.757-.288-3.47.319-5.137.576-1.545 1.364-2.546 2.364-3-2.607-1.061-3.986-2.743-4.138-5.046-.182-2.152.56-3.637 2.228-4.456ZM2.453 116.745c2.062-3.546 6.7-4.986 13.916-4.319 18.403 1.667 40.807 9.638 67.213 23.913 23.769 12.85 42.384 25.867 55.845 39.051.394.97.424 1.849.091 2.637-.273.546.197 1.652 1.41 3.319-4.427-5.365-11.187-11.457-20.283-18.276-9.034-6.728-19.054-13.229-30.06-19.503-25.587-14.517-47.203-22.928-64.848-25.231-2.365-.273-4.517-.046-6.458.682-2.213.879-3.471 2.258-3.774 4.137-.334 1.97.348 3.849 2.046 5.637 1.94 2.061 4.851 3.485 8.732 4.273 3.547.698 8.595 2.077 15.143 4.138a375.034 375.034 0 0 1 22.602 7.955l-4.412.5c-18.402-6.698-31.18-10.365-38.336-11.001-.697-.061-1.349.136-1.955.591-.607.454-.925 1-.955 1.636-.152 1.637 1.425 2.743 4.73 3.319 10.49 1.788 26.284 6.395 47.385 13.82 21.98 7.699 40.686 15.351 56.118 22.958-14.704-6.152-32.864-12.805-54.48-19.957-20.556-6.789-35.669-11.229-45.34-13.32-3.972-.879-6.17.378-6.594 3.773-.303 2.546.56 5.243 2.592 8.092 2.152 2.97 4.684 4.683 7.595 5.137a507.922 507.922 0 0 1 55.207 11.638c8.701 2.334 30.363 8.744 64.986 19.231l5.32 5.546c-18.736-7.092-40.746-13.987-66.03-20.685-22.8-6.031-41.4-10.153-55.8-12.366-2.759-.424-4.184.228-4.275 1.955-.06 1.546.88 3.622 2.82 6.228a34.154 34.154 0 0 0 6.776 6.774c2.88 2.182 5.426 3.425 7.64 3.728l45.066 4.41c21.708 2.455 44.734 6.743 69.078 12.866l2.274 2.409c-21.768-5.031-39.761-8.577-53.98-10.638-14.673-2.152-34.061-4.016-58.164-5.592-2.516-.151-3.486.758-2.91 2.728.455 1.455 1.637 3.258 3.547 5.41 1.85 2.061 4.138 3.849 6.867 5.364 2.971 1.698 5.851 2.667 8.64 2.91l49.979 4.001 51.751 4.409 1.956 2.046-48.66-3.546-55.071-3.819c-.485-.03-.97.106-1.455.409-.607.394-.85.94-.728 1.637.334 2 3.653 4.758 9.96 8.274 2.667 1.485 7.245 2.667 13.733 3.546l16.008 1.182c19.585.485 34.88.44 45.885-.136 8.883-.455 17.144-1.425 24.784-2.91l2.82 3.001-.409.409c-.455-.425-1.304-.546-2.547-.364l-38.837 2.137c-18.008.454-32.045.303-42.11-.455-5.61-.394-8.64-.318-9.096.227-.606.758 2.077 2.789 8.05 6.092 4.002 2.243 8.595 3.925 13.779 5.047 3.638.788 7.003 1.212 10.096 1.273 7.912.151 17.705-.879 29.377-3.092a266.875 266.875 0 0 0 24.603-5.864c-8.701 5.031-20.753 8.743-36.154 11.138-14.461 2.212-26.482 2.561-36.062 1.045-9.399-1.454-19.646-5.925-30.742-13.411-10.49-7.031-20.616-15.927-30.378-26.686-9.732-10.759-17.796-21.928-24.193-33.505-6.761-12.214-10.854-23.458-12.279-33.733-.91-6.819-.591-11.562.955-14.229Z"/><path fill="#EEEEEF" d="M209.824 88.831c1.516 7.82 1.697 15.73.545 23.731l-1.91 15.594c-1.273 9.88-2.516 18.518-3.729 25.913-3.88 23.398-7.715 35.096-11.505 35.096-1.546-.818-3.32-2.333-5.321-4.546-4.032-4.455-7.23-10.214-9.595-17.275-2.547-7.638-4.381-17.442-5.503-29.414-.879-9.456-1.243-19.139-1.091-29.05.151-10.093 1.819-18.488 5.002-25.186 4.093-8.547 10.172-12.714 18.236-12.502 7.701.212 12.658 6.092 14.871 17.64ZM74.26 145.977c4.638.727 8.716 1.909 12.233 3.546 17.432 8.061 33.728 18.336 48.887 30.823 5.305 4.364 9.792 8.455 13.46 12.274 3.184 3.243 4.684 5.107 4.503 5.592-.304.879-11.233-1.091-32.789-5.91-25.648-5.758-39.852-8.85-42.61-9.274-9.672-1.516-17.63-3.925-23.876-7.229-8.761-4.637-12.551-10.471-11.369-17.502 1.243-7.305 7.17-11.548 17.782-12.73l13.779.41Z"/><path fill="#003F4D" d="M194.953 71.192c7.458.212 12.385 5.895 14.78 17.048 1.849 8.608 1.986 17.124.409 25.55-.273-4.001-1.213-8.017-2.819-12.047-3.184-8.032-8.034-12.093-14.553-12.184-6.548-.121-12.021 3.425-16.417 10.638-1.394 2.273-2.592 4.758-3.592 7.456-.516 1.363-.879 2.5-1.092 3.409l.046-2.182c.151-10.093 1.819-18.488 5.002-25.186 4.093-8.547 10.172-12.714 18.236-12.502ZM72.714 149.977c-9.247 1.576-14.037 5.577-14.37 12.002-.304 6.425 2.88 11.866 9.55 16.321 3.304 2.212 6.654 3.788 10.05 4.728-9.672-1.516-17.63-3.925-23.876-7.229-8.761-4.637-12.551-10.471-11.369-17.502 1.243-7.305 7.17-11.548 17.782-12.73l13.779.41c4.638.727 8.716 1.909 12.233 3.546l-13.78.454Z"/><path fill="#0D131A" d="m190.678 187.119-1.91-1.864-2.092-3.364c1.607 2.334 2.926 4.061 3.957 5.183l.045.045c1.668 1.182 3.244 1.031 4.73-.454 2.122-2.122 4.638-12.563 7.549-31.324 1.576-10.244 3.077-21.488 4.502-33.732 1-8.547.303-15.503-2.092-20.867-2.334-5.274-5.972-8.32-10.914-9.138-5.245-.879-9.777.728-13.597 4.82-3.548 3.788-5.685 8.713-6.413 14.774-.939 7.88-.712 18.882.683 33.005 1.485 14.821 3.532 24.61 6.139 29.369l-.728-1.001c-4.153-5.243-7.14-17.063-8.959-35.46-1.667-16.851-1.788-31.186-.363-43.006.727-6.183 3.319-11.896 7.776-17.14 5.124-6.03 10.808-8.531 17.054-7.5 6.033 1 10.55 5.546 13.551 13.638 2.941 7.91 3.775 17.351 2.502 28.322-1.122 9.456-2.956 21.413-5.503 35.87-3.487 19.851-6.594 33.217-9.323 40.097-1.243 3.152-3.441 3.061-6.594-.273Zm2.183-99.424c3.729.03 7.064 1.545 10.005 4.546 3.123 3.182 5.442 7.728 6.958 13.638.303-11.153-1.41-19.73-5.139-25.731-3.305-5.304-7.504-7.759-12.597-7.365-4.972.394-9.292 3.334-12.961 8.82-4.001 5.97-6.093 13.547-6.275 22.73 2.516-5.334 5.593-9.486 9.231-12.456 3.487-2.819 7.079-4.213 10.778-4.182ZM41.017 160.933c.242-6.455 3.29-11.229 9.14-14.32 4.973-2.637 10.915-3.637 17.827-3.001 11.49 1.061 25.937 7.017 43.339 17.867 14.158 8.85 25.876 17.836 35.153 26.959 5.245 5.182 8.367 8.743 9.368 10.683 1.091 2.031.03 2.622-3.183 1.773-27.074-7.001-51.949-12.35-74.627-16.048-11.46-1.879-20.63-5.122-27.513-9.729-6.518-4.394-9.686-9.122-9.504-14.184Zm15.735-.182c.727-3.546 2.82-6.379 6.275-8.501 3.911-2.425 9.217-3.652 15.917-3.682-9.55-2.092-17.493-2.137-23.83-.137-5.639 1.788-9.08 4.774-10.323 8.956-1.243 4.092-.03 8.123 3.639 12.093 3.971 4.334 10.004 7.456 18.099 9.365-3.547-2-6.23-4.698-8.05-8.092-1.818-3.394-2.394-6.728-1.727-10.002Zm9.822-7.092c-4.244 2.213-6.457 5.729-6.64 10.548-.181 4.546 2.911 8.713 9.278 12.502 5.882 3.546 13.249 6.031 22.101 7.455 8.883 1.485 17.251 3.122 25.103 4.91 4.972 1.152 13.961 3.41 26.967 6.774 3.638.939 5.685 1.318 6.14 1.136.97-.363-.41-2.288-4.139-5.773-10.186-9.577-20.009-17.548-29.468-23.913-12.491-8.335-23.708-13.396-33.652-15.184-6.306-1.122-11.536-.606-15.69 1.545Z"/><path fill="#7C70A2" d="M153.888 161.434c8.732-5.001 17.963-6.88 27.695-5.638 8.428 1.061 15.659 4.107 21.692 9.138 5.275 4.395 8.216 10.699 8.822 18.912.486 6.698-.515 13.548-3.001 20.549 4.79 1.061 9.095 2.424 12.915 4.091 4.063 1.758 6.822 3.546 8.277 5.365 4.911 6.092 7.261 12.896 7.049 20.412-.213 7.516-2.911 13.351-8.095 17.503-5.518 4.455-11.369 6.986-17.554 7.592-6.488.636-13.051-.909-19.691-4.637-3.82-2.152-6.776-5.819-8.868-11.002-1.819-4.485-2.85-9.713-3.092-15.684-8.519 1.576-15.765 1.712-21.738.409-6.821-1.485-12.536-4.925-17.144-10.32-7.276-8.516-9.52-18.685-6.73-30.505 2.758-11.638 9.246-20.366 19.463-26.185Z"/><path fill="#655B86" d="M229.242 251.766c-5.518 4.455-11.369 6.986-17.554 7.592-6.488.637-13.051-.909-19.691-4.637-3.82-2.152-6.776-5.819-8.868-11.002-1.819-4.485-2.849-9.713-3.092-15.684l.682-.227 4.593-1.864c4.548-1.94 7.14-2.91 7.777-2.91 1.334.03 1.243 1.803-.273 5.319-1.971 4.546-1.258 8.608 2.137 12.184 3.184 3.364 7.655 5.38 13.416 6.046 6.063.728 11.596-.348 16.598-3.227 5.791-3.274 9.732-8.441 11.824-15.503.91 4.668.713 9.123-.591 13.366-1.334 4.364-3.653 7.88-6.958 10.547Z"/><path fill="#0D131A" d="M181.447 156.615c-11.824-1.334-22.223 1.636-31.197 8.91-9.246 7.486-14.249 16.609-15.007 27.368-.697 9.85 2.122 18.336 8.459 25.459 4.335 4.91 10.368 8.001 18.099 9.274 7.276 1.182 14.477.576 21.601-1.819 2.183-.727 3.108-.621 2.774.319-.333.939-1.682 1.758-4.047 2.455-7.458 2.424-14.901 2.985-22.329 1.682-8.064-1.394-14.4-4.789-19.009-10.184-6.942-8.092-9.686-17.745-8.231-28.959 1.455-11.335 6.776-20.518 15.962-27.55 5.912-4.546 12.324-7.546 19.237-9.001 6.366-1.364 12.672-1.318 18.918.136 6.002 1.395 11.262 3.895 15.78 7.502 4.578 3.667 7.837 8.016 9.777 13.047 1.516 3.97 2.244 8.244 2.183 12.82-.091 5.244-1.243 10.35-3.456 15.321-1.728 3.91-3.153 5.986-4.275 6.228-1.091.273-.712-1.439 1.137-5.137 2.698-5.365 3.971-10.911 3.82-16.639-.152-5.728-1.713-11.093-4.684-16.093-5.245-8.79-13.749-13.836-25.512-15.139Z"/><path fill="#0D131A" d="M234.335 224.398c-2.122-6.183-5.76-10.774-10.914-13.775-3.092-1.818-8.095-3.5-15.007-5.046l.637-1 .591-1c6.761.788 12.703 3.046 17.826 6.773 5.185 3.789 8.535 8.365 10.051 13.73 1.485 5.304 1.576 10.502.272 15.593-1.394 5.456-4.183 9.865-8.367 13.23-4.639 3.758-9.823 6.213-15.553 7.364-5.7 1.122-11.066.758-16.098-1.091-5.367-1.97-9.656-5.394-12.87-10.274-3.547-5.395-5.472-12.153-5.776-20.276.213-.364.607-.485 1.183-.364.576.091.97-.03 1.182-.363.303 7.213 2.001 13.335 5.094 18.366 2.88 4.668 6.7 8.047 11.459 10.138 4.578 2 9.475 2.546 14.689 1.637 5.366-.909 10.384-3.243 15.053-7.001 3.244-2.607 5.563-6.138 6.958-10.593 1.606-5.183 1.47-10.532-.41-16.048ZM145.157 187.347c3.365 3.303 5.775 7.41 7.231 12.32 1.758 6.001 2.228 11.229 1.409 15.684-.788 4.213-2.516 6.895-5.184 8.047-3.213 1.394-6.776.53-10.687-2.592-3.971-3.182-6.67-7.425-8.094-12.729-1.698-6.364-1.744-11.956-.137-16.775 1.395-4.122 3.502-6.668 6.321-7.638 2.699-.909 5.745.318 9.141 3.683Z"/><path fill="#ED85A7" d="M143.52 188.483c2.88 2.91 5.078 6.941 6.594 12.093 1.516 5.092 2.001 9.744 1.455 13.957-.515 4.091-1.804 6.592-3.865 7.501-2.092.909-4.669.136-7.731-2.319-3.79-3.03-6.458-7.804-8.004-14.32-1.152-4.91-1.182-9.35-.091-13.32 1-3.607 2.516-5.759 4.548-6.456 2.061-.727 4.426.228 7.094 2.864Z"/><path fill="#F6C8D6" d="M140.382 188.12c1.698 2.606 2.668 6.38 2.91 11.32.152 3.152-.212 5.91-1.091 8.274-.819 2.152-1.895 3.591-3.229 4.319-1.364.757-2.668.606-3.911-.455-1.364-1.152-2.395-3.213-3.092-6.183-1.152-4.91-1.182-9.35-.091-13.32 1-3.607 2.516-5.759 4.548-6.456 1.273-.454 2.592.379 3.956 2.501Z"/><path fill="#0D131A" d="M176.626 187.892c-4.335-3.788-7.23-8.41-8.686-13.866-1.485-5.576-.788-9.85 2.092-12.82 2.789-2.849 7.261-3.864 13.416-3.046 6.184.849 11.399 3.228 15.643 7.138 3.972 3.667 6.579 8.258 7.822 13.775 1.304 5.546.682 9.713-1.864 12.501-2.577 2.91-6.609 4.122-12.097 3.637-5.912-.515-11.354-2.955-16.326-7.319Z"/><path fill="#ED85A7" d="M177.081 185.028c-3.729-3.546-6.17-7.653-7.322-12.32-1.121-4.607-.561-7.986 1.683-10.138 2.304-2.243 5.684-3.182 10.141-2.819 5.002.425 9.808 2.471 14.416 6.138 4.972 3.909 7.973 8.698 9.004 14.366.97 5.091.197 8.728-2.319 10.91-2.213 1.91-5.457 2.622-9.732 2.137-5.487-.606-10.778-3.364-15.871-8.274Z"/><path fill="#F6C8D6" d="M180.537 183.664c-4.638-.909-7.822-3.364-9.55-7.365-1.212-2.788-1.788-5.425-1.728-7.91.061-2.546.788-4.486 2.183-5.819 1.577-1.516 3.805-2.44 6.685-2.773 3.062-.334 6.276.121 9.641 1.364 3.426 1.272 5.624 4.015 6.594 8.228 1 4.364.121 8.047-2.638 11.047-2.819 3.061-6.548 4.137-11.187 3.228Z"/><path fill="#0D131A" d="M159.527 206.668c.182-.515 1.653-.955 4.411-1.318 2.668-.334 4.245-.364 4.73-.091.455.273.318 1.788-.409 4.546-.728 2.788-1.501 4.213-2.32 4.273-.909.091-2.273-.985-4.093-3.227-1.728-2.213-2.501-3.607-2.319-4.183Z"/><path fill="#fff" d="M162.529 208.85c.121-.333.758-.682 1.91-1.045l2.092-.364c.272.121.303 1 .09 2.637-.212 1.636-.5 2.515-.864 2.636-.333.091-.985-.484-1.955-1.727-.91-1.212-1.334-1.925-1.273-2.137Z"/><path fill="#0D131A" d="M173.17 203.94c-.061-.546.758-1.818 2.456-3.819 1.698-2 2.774-2.985 3.229-2.955.485.031 1.197 1.319 2.137 3.864.94 2.546 1.182 4.092.728 4.638l-4.593-.228c-2.577-.636-3.896-1.136-3.957-1.5Z"/><path fill="#fff" d="M175.762 202.804c-.03-.334.394-.909 1.274-1.728.879-.848 1.47-1.258 1.773-1.227.273.03.697.788 1.273 2.273.607 1.485.804 2.334.592 2.546-.182.242-1.046.045-2.592-.591-1.516-.637-2.289-1.061-2.32-1.273Z"/><path fill="#0D131A" d="M158.8 207.895c-.91-1.212-.925-2.909-.046-5.091 1.031-2.577 3.108-4.865 6.23-6.865 2.85-1.849 5.867-2.758 9.05-2.728 2.88.061 4.745.773 5.594 2.137 1.152 1.758 1.061 3.849-.273 6.274-1.213 2.151-3.123 4.152-5.73 6.001-2.456 1.727-5.124 2.682-8.004 2.864-3.123.151-5.396-.713-6.821-2.592ZM184.857 233.081c.091 1.303.167 1.985.228 2.046l2.274-.136 2.182-.046c.213.273.258 1.152.137 2.637l-.137 2.318 2.229.728c1.334.303 2.061.591 2.183.864.212.394.015 1.076-.592 2.045a11.928 11.928 0 0 1-2.182 2.592c-1.971 1.697-4.336 2.273-7.095 1.727-2.364-.485-4.153-1.515-5.366-3.091-1.576-2.122-2.167-4.38-1.773-6.774.363-2.182 1.379-3.879 3.047-5.092l2.364-1.5c1.001-.515 1.698-.652 2.092-.409.182.091.319.788.409 2.091Z"/><path fill="#5DC1CF" d="M180.446 243.628c-1.03-1.212-1.591-2.667-1.682-4.364-.121-1.576.182-2.803.909-3.682 1.213-1.485 2.304-2.198 3.275-2.137.212 0 .394.546.545 1.637l.41 1.773 2.091-.137 2.092-.091c.091.091.061.819-.091 2.182-.151 1.364-.166 2.122-.045 2.274l1.955.545c1.122.182 1.728.349 1.819.5.122.303-.06.773-.545 1.409-.546.758-1.334 1.44-2.365 2.046-1.152.667-2.547.849-4.184.546-1.758-.364-3.153-1.197-4.184-2.501Z"/><path fill="#0D131A" d="M216.099 212.714c2.123 1.546 3.441 3.713 3.957 6.501.515 2.758.136 5.259-1.137 7.501-1.061 1.91-2.41 3.183-4.047 3.819l-4.548.182c-1.91-.303-2.956-.712-3.138-1.227-.152-.364.015-1.046.5-2.046l.728-1.682c-.03-.122-.713-.364-2.047-.728-1.333-.363-2.061-.712-2.182-1.045-.122-.334.227-1.061 1.046-2.182l1.182-1.864c-.03-.122-.728-.379-2.092-.773-1.364-.425-2.107-.819-2.228-1.182-.243-.758.53-2.076 2.319-3.955 1.94-2.061 3.805-3.122 5.594-3.183 2.213-.06 4.244.561 6.093 1.864Z"/><path fill="#5DC1CF" d="M214.007 213.578c1.91.97 3.169 2.682 3.775 5.137.606 2.455.531 4.668-.227 6.638-.728 2-1.941 3.212-3.638 3.637l-2.865.136c-1.092-.091-1.698-.243-1.819-.455-.152-.242.06-.909.636-2 .607-1.091.864-1.697.773-1.818-.091-.122-.743-.319-1.955-.591-1.183-.273-1.85-.531-2.001-.773-.152-.212.106-.894.773-2.046.667-1.212.97-1.909.909-2.091-.06-.212-.712-.561-1.955-1.046-1.243-.515-1.91-.879-2.001-1.091-.121-.364.303-1.061 1.273-2.091 1.183-1.243 2.532-1.985 4.048-2.228 1.485-.242 2.91-.015 4.274.682ZM177.536 196.439c.97 1.242.909 2.909-.182 5.001-1.061 2.091-2.698 3.803-4.911 5.137-2.335 1.424-4.745 2.167-7.231 2.227-2.274.061-3.759-.409-4.457-1.409-.849-1.212-.909-2.728-.182-4.546.849-2.152 2.638-4.046 5.366-5.683 2.305-1.394 4.654-2.121 7.049-2.182 2.213-.061 3.729.424 4.548 1.455Z"/><path fill="#50A8B4" d="M178.173 198.303c.06 1.333-.44 2.788-1.501 4.364-1.092 1.576-2.501 2.879-4.229 3.91-1.971 1.212-4.033 1.924-6.185 2.136-1.94.213-3.471.016-4.593-.591 3.062-.151 6.382-1.333 9.959-3.546 3.456-2.091 5.639-4.182 6.549-6.273Z"/><path fill="#0D131A" d="M171.669 265.814c-6.154-3.728-8.913-7.471-8.276-11.229.515-3.122 4.153-5.077 10.914-5.865 6.639-.758 14.067-.152 22.283 1.818 8.004 1.91 15.053 4.562 21.147 7.956 6.73 3.698 9.792 7.062 9.186 10.093-.698 3.515-5.412 5.607-14.143 6.273-7.58.546-14.886 0-21.92-1.636-7.488-1.758-13.885-4.228-19.191-7.41ZM249.524 227.717c2.304 12.517 2.714 22.094 1.228 28.732-1.182 5.303-3.426 8.365-6.73 9.183-3.032.727-6.428-1.728-10.187-7.365-4.305-6.395-7.564-15.033-9.777-25.913-1.759-8.577-2.274-16.003-1.546-22.276.788-6.729 2.895-10.775 6.321-12.139 3.547-1.424 7.397.697 11.551 6.365 4.335 5.94 7.382 13.745 9.14 23.413Z"/><path fill="#5DC1CF" d="M229.606 200.303c2.789-.788 6.063 1.864 9.823 7.956 3.668 5.971 6.154 12.517 7.458 19.64 1.97 10.729 2.622 19.245 1.955 25.549-.637 5.88-2.319 9.138-5.048 9.774-2.577.606-5.608-2.318-9.095-8.774-3.608-6.607-6.245-14.351-7.913-23.231-1.394-7.304-1.94-13.866-1.637-19.685.364-6.758 1.849-10.501 4.457-11.229Z"/><path fill="#50A8B4" d="M239.52 215.988c1.455-.152 2.895.924 4.32 3.227 1.364 2.243 2.38 5.138 3.047 8.684 1.789 9.698 2.486 17.563 2.092 23.594-.122 2.576-.485 4.865-1.092 6.865-.515 1.637-1.319 2.409-2.41 2.319-1.061-.061-2.198-.955-3.411-2.683-2.91-4.122-4.926-10.714-6.048-19.776-.788-6.364-.773-11.714.045-16.048.728-3.97 1.88-6.031 3.457-6.182Z"/><path fill="#5DC1CF" d="M165.894 254.948c.727-2.212 4.002-3.531 9.823-3.955 6.245-.455 13.324.364 21.237 2.455 9.307 2.455 16.402 5.107 21.283 7.956 4.244 2.485 6.306 4.743 6.184 6.774-.151 2.151-3.486 3.47-10.004 3.955-6.64.515-13.946-.061-21.92-1.728-7.67-1.606-14.203-3.955-19.6-7.046-5.457-3.152-7.791-5.956-7.003-8.411Z"/><path fill="#50A8B4" d="M175.808 260.54c.121-1.697 2.516-2.652 7.185-2.864 4.699-.182 10.353.455 16.962 1.909 7.246 1.607 13.022 3.88 17.327 6.82 2.001 1.364 2.986 2.53 2.956 3.5-.031 1.061-1.334 1.743-3.911 2.046-3.123.364-6.731.424-10.824.182a87.968 87.968 0 0 1-13.006-1.728c-4.062-.848-7.761-2.152-11.096-3.909-3.88-2.031-5.745-4.016-5.593-5.956Z"/><path fill="#003F4D" d="M90.722 114.381c-3.76 1.879-8.489 2.47-14.188 1.773-6.276-.758-9.338-3.046-9.187-6.865.152-3.667 3.138-5.228 8.96-4.683 4.001.364 8.76 1.607 14.279 3.728 13.521 5.244 25.603 14.942 36.244 29.096 8.701 11.577 14.522 23.049 17.463 34.414.758 2.88 1 4.592.727 5.137-.303.516-1.015-.515-2.137-3.091-14.34-33.611-31.727-53.448-52.16-59.509ZM161.028 162.07c.273 3.152.091 4.607-.546 4.364-.636-.212-1.136-1.727-1.5-4.546-1.546-11.487-5.882-26.868-13.006-46.144-7.489-20.154-13.386-31.353-17.691-33.596-8.731-2.546-14.294-5.804-16.689-9.774-1.819-3-1.713-5.637.318-7.91 2.001-2.183 4.866-2.107 8.595.227 3.668 2.303 7.322 6.274 10.96 11.91 8.61 13.367 15.825 29.612 21.646 48.736 4.457 14.669 7.095 26.913 7.913 36.733Z"/><path fill="#0D131A" d="M160.255 165.48c.03-9.82-2.592-23.11-7.868-39.87-5.82-18.518-12.869-34.187-21.146-47.008-3.183-4.91-6.503-8.774-9.959-11.592-4.123-3.334-7.14-3.88-9.05-1.637-1.607 1.91-1.031 4.5 1.728 7.774 3.214 3.788 8.292 6.41 15.235 7.865 7.033 9.668 13.445 22.625 19.236 38.87a265.97 265.97 0 0 1 11.824 45.598Zm.864-7.183c.606 4.728.515 7.592-.273 8.592-.819 1-1.683-.803-2.592-5.41-2.577-13.335-6.549-27.398-11.915-42.188-6.094-16.7-12.142-28.869-18.145-36.506-7.549-1.425-12.96-4.243-16.235-8.456-3.031-3.88-3.274-7.274-.727-10.183 2.092-2.395 5.229-2.41 9.413-.046 4.214 2.425 8.065 6.516 11.551 12.275 15.462 25.822 25.103 53.129 28.923 81.922ZM68.348 108.289c-.424 1.182-.03 2.364 1.182 3.546 1.183 1.182 2.88 2.106 5.094 2.773 5.396 1.606 10.656 1.167 15.78-1.318 13.764 4.061 26.27 14.275 37.518 30.641 6.76 9.85 12.278 20.533 16.553 32.05-3.123-13.911-9.838-27.292-20.146-40.142-10.641-13.275-22.056-22.019-34.243-26.232-6.124-2.121-10.809-3.379-14.052-3.773-4.366-.546-6.928.273-7.686 2.455Zm3.911 7.91c-2.213-.818-3.85-1.97-4.911-3.455-1.061-1.485-1.365-3.061-.91-4.728.819-3.061 3.865-4.425 9.14-4.091 4.579.303 10.339 1.833 17.282 4.591 10.823 4.274 21.07 12.199 30.741 23.777 10.066 12.062 17.16 25.352 21.283 39.87.879 3.03.94 4.743.182 5.137-.788.394-1.834-.909-3.138-3.91-13.703-32.217-30.787-51.644-51.251-58.282-7.034 2.698-13.173 3.061-18.418 1.091Z"/></g><defs><radialGradient id="b" cx="0" cy="0" r="1" gradientTransform="rotate(90 0 150) scale(200)" gradientUnits="userSpaceOnUse"><stop stop-color="#F6C8D6"/><stop offset="1" stop-color="#ED85A7"/></radialGradient><clipPath id="a"><path fill="#fff" d="M0 0h300v300H0z"/></clipPath></defs></svg>