<svg width="300" height="300" viewBox="0 0 300 300" fill="none" xmlns="http://www.w3.org/2000/svg">
<g clip-path="url(#clip0_861_630)">
<rect width="300" height="300" fill="white"/>
<rect x="-50" y="-50" width="400" height="400" fill="url(#paint0_radial_861_630)"/>
<g clip-path="url(#clip1_861_630)">
<path d="M42.2638 98.5831C49.0328 88.2129 58.6693 80.9271 71.1735 76.7257C80.7434 73.558 90.0132 72.5577 98.9829 73.7247L134.445 116.189L132.044 200.867L113.438 239.83L102.234 233.979L103.084 259.937C94.8815 253.835 84.578 242.098 72.1739 224.725C58.3026 205.286 47.9657 186.879 41.1635 169.507C34.728 153.101 32.3438 137.713 34.0111 123.341C35.1448 113.505 37.8957 105.252 42.2638 98.5831Z" fill="#0D131A"/>
<path d="M72.7241 78.0259C77.5257 76.1253 82.8941 75.1249 88.8295 75.0249L96.232 75.4751L131.544 117.789L128.293 199.267L111.437 233.478L98.3827 250.184C92.5474 244.749 85.9618 237.429 78.626 228.226C63.9544 209.753 52.8841 191.031 45.4149 172.057C33.911 142.681 33.6443 118.99 44.6146 100.984C50.9834 90.5468 60.3532 82.8942 72.7241 78.0259Z" fill="#F09CB4"/>
<path d="M38.9127 114.238C39.713 119.607 42.3138 126.159 46.7153 133.895C51.4169 142.198 57.4022 150.417 64.6714 158.553C82.6774 178.727 103.301 192.998 126.542 201.368L127.142 201.618L111.437 233.478L98.3827 250.184C92.5474 244.749 85.9618 237.43 78.626 228.227C63.9544 209.754 52.8841 191.031 45.4149 172.058C36.5786 149.483 34.4112 130.21 38.9127 114.238Z" fill="#D0879D"/>
<path d="M71.0235 198.767L127.492 199.917L135.345 231.728C140.747 254.068 143.898 267.973 144.798 273.442C145.565 278.177 145.815 281.678 145.548 283.945C145.248 286.446 144.248 288.597 142.547 290.397C138.913 294.199 128.86 296.316 112.387 296.749C84.378 297.583 64.8714 298 53.8677 298C49.2662 298 45.6483 297.416 43.0141 296.249C40.5799 295.149 39.3629 293.732 39.3629 291.998C39.3629 289.497 41.1635 286.629 44.7647 283.395C48.6993 279.927 53.4009 277.343 58.8694 275.642C56.9021 272.775 54.9347 269.174 52.9674 264.839C48.9994 256.203 47.0154 248.25 47.0154 240.981C47.0154 231.944 49.2328 223.842 53.6677 216.673C57.4356 210.571 63.2209 204.602 71.0235 198.767Z" fill="#0D131A"/>
<path d="M127.092 291.998L119.04 292.548L98.1326 293.448L86.3286 293.899C87.6624 289.03 86.5287 284.595 82.9275 280.594C78.4927 275.692 71.507 273.725 61.9705 274.692C58.7027 271.224 55.4349 265.756 52.1672 258.287C48.7327 250.517 47.0154 244.332 47.0154 239.73C47.0154 231.728 50.4833 223.692 57.4189 215.622C60.0198 212.588 65.6717 207.353 74.3746 199.917L124.992 203.618L137.646 259.737L142.047 278.293C143.181 282.595 141.997 285.963 138.496 288.397C135.795 290.264 131.994 291.464 127.092 291.998Z" fill="#F09CB4"/>
<path d="M127.092 291.998L119.04 292.548L98.1326 293.448L86.3286 293.898C87.6624 289.03 86.5287 284.595 82.9275 280.594C78.4927 275.692 71.507 273.725 61.9704 274.692C60.0698 272.658 58.0191 269.673 55.8184 265.739C53.6843 261.871 51.8337 257.836 50.2665 253.635C60.3699 256.769 72.3072 254.535 86.0785 246.932C98.9162 239.863 112.587 228.593 127.092 213.121L137.646 259.737L142.047 278.293C143.181 282.594 141.997 285.962 138.496 288.396C135.795 290.264 131.994 291.464 127.092 291.998Z" fill="#D0879D"/>
<path d="M42.914 292.448C42.7807 292.014 42.814 291.448 43.0141 290.747C43.7143 288.58 46.0151 286.096 49.9164 283.295C53.4843 280.694 56.8854 278.843 60.1198 277.743L68.4726 277.493C72.4406 278.093 75.9418 279.444 78.9761 281.544C80.6434 282.678 81.7938 283.845 82.4273 285.045C83.0275 286.146 83.2609 287.463 83.1275 288.997C82.9608 290.897 82.544 292.598 81.8771 294.098L58.6693 294.799C48.6993 294.799 43.4476 294.015 42.914 292.448Z" fill="#C8C9CA"/>
<path d="M43.5643 289.547C44.3312 288.213 45.615 286.779 47.4156 285.245C49.0828 283.812 50.9834 282.445 53.1175 281.144L61.7204 280.494C64.4546 280.494 67.3556 281.361 70.4233 283.095C73.4243 284.762 74.9248 286.263 74.9248 287.596C74.9248 288.763 71.2569 289.597 63.9211 290.097C56.4186 290.597 49.633 290.414 43.5643 289.547Z" fill="#EEEEEF"/>
<path d="M57.4189 219.523C62.5873 219.523 66.9388 221.874 70.4733 226.576C74.0078 231.311 75.7751 237.146 75.7751 244.082C75.7751 251.051 74.0245 256.853 70.5233 261.488C67.0221 266.089 62.654 268.39 57.4189 268.39C52.2839 268.39 48.0158 266.056 44.6146 261.387C41.2802 256.753 39.6129 250.934 39.6129 243.932C39.6129 237.463 41.3135 231.828 44.7147 227.026C48.2158 222.024 52.4506 219.523 57.4189 219.523Z" fill="#0D131A"/>
<path d="M68.1725 228.677C71.1402 233.178 72.624 238.397 72.624 244.332C72.624 250.167 71.0902 255.252 68.0225 259.587C64.9214 263.955 61.2702 266.156 57.0688 266.189C52.9341 266.189 49.4162 264.005 46.5153 259.637C43.6476 255.336 42.2138 250.234 42.2138 244.332C42.2138 238.397 43.6976 233.178 46.6653 228.677C49.6663 224.075 53.2342 221.774 57.3689 221.774C61.5036 221.741 65.1048 224.042 68.1725 228.677Z" fill="#FDEABE"/>
<path d="M57.0688 266.189C53.6677 266.189 50.6333 264.639 47.9658 261.538C45.3649 258.537 43.631 254.719 42.764 250.084C50.7 255.319 60.1698 256.369 71.1735 253.235C69.9064 257.036 68.0058 260.12 65.4716 262.488C62.9041 264.922 60.1032 266.156 57.0688 266.189Z" fill="#DACAA5"/>
<path d="M40.7633 242.481C40.7633 239.047 41.5803 236.312 43.2142 234.278C44.848 232.211 47.1155 231.177 50.0164 231.177C52.9174 231.177 55.2182 232.228 56.9188 234.328C58.6193 236.362 59.4696 239.097 59.4696 242.531C59.503 245.932 58.6193 248.7 56.8187 250.834C55.0515 252.968 52.7173 254.052 49.8164 254.085C46.9487 254.085 44.7147 253.001 43.1141 250.834C41.5469 248.766 40.7633 245.982 40.7633 242.481Z" fill="#0D131A"/>
<path d="M44.5646 248.883C43.4309 247.183 42.864 245.049 42.864 242.481C42.8307 239.947 43.3975 237.813 44.5646 236.079C45.765 234.312 47.2822 233.428 49.1161 233.428C51.0168 233.428 52.7173 234.312 54.2178 236.079C55.7183 237.88 56.4686 240.014 56.4686 242.481C56.4686 244.949 55.7183 247.083 54.2178 248.883C52.7173 250.651 51.0168 251.534 49.1161 251.534C47.2822 251.534 45.765 250.651 44.5646 248.883Z" fill="#F09CB4"/>
<path d="M71.2235 111.437C73.1909 109.703 76.6087 109.553 81.477 110.987C87.379 112.721 92.0972 116.589 95.6317 122.591C99.0662 128.46 96.7655 138.897 88.7294 153.902C85.8951 159.237 82.6941 164.438 79.1262 169.507C76.0252 173.942 73.8244 176.676 72.524 177.71L60.62 187.213L50.9668 196.516C45.865 201.651 42.4972 204.752 40.8634 205.819C38.896 207.119 36.762 208.12 34.4612 208.82L30.2598 209.57C27.6256 209.57 25.2081 207.536 23.0074 203.468C20.6399 199.1 19.4562 193.865 19.4562 187.763C19.4562 181.861 20.6566 175.942 23.0574 170.007C25.2248 164.672 28.926 158.053 34.1611 150.15C37.1955 145.615 43.4976 138.496 53.0675 128.793C60.77 121.024 66.8221 115.239 71.2235 111.437Z" fill="#F09CB4"/>
<path d="M187.963 77.3257C191.164 77.3257 196.065 77.9759 202.668 79.2763C209.603 80.6435 214.388 81.9772 217.022 83.2777C221.891 85.7118 227.059 88.5628 232.528 91.8306C240.564 96.6655 246.316 100.767 249.783 104.135C253.318 107.569 257.269 111.02 261.637 114.488C265.039 117.222 267.423 118.99 268.79 119.79C270.124 120.59 271.874 122.091 274.042 124.291C276.676 126.959 278.276 129.193 278.843 130.994C282.144 141.297 282.094 148.866 278.693 153.701C276.459 156.802 272.558 158.42 266.989 158.553C262.521 158.62 258.97 157.986 256.336 156.652C255.102 156.052 252.868 154.318 249.633 151.451C246.232 148.45 243.681 146.466 241.981 145.499C238.746 143.631 234.628 141.614 229.627 139.447L221.874 136.195C219.373 135.062 214.222 131.344 206.419 125.042C196.716 117.172 191.197 111.087 189.863 106.786C187.829 100.283 186.462 94.098 185.762 88.2293C184.895 80.9602 185.629 77.3257 187.963 77.3257Z" fill="#F09CB4"/>
<path d="M186.662 76.5255C189.263 77.8259 194.715 84.5115 203.018 96.5822C207.719 103.418 214.838 114.138 224.375 128.743C230.144 137.346 235.612 147.833 240.78 160.204C245.315 170.974 247.583 177.709 247.583 180.41C247.583 191.981 245.165 203.335 240.33 214.472C235.495 225.609 228.676 235.546 219.873 244.282C210.704 253.352 200.1 260.387 188.063 265.389C175.158 270.757 161.387 273.442 146.749 273.442C123.008 273.442 104.018 265.089 89.7798 248.383C83.5777 241.114 78.8261 232.761 75.525 223.325C72.3572 214.288 70.7734 205.019 70.7734 195.515C70.7734 182.878 73.6577 171.424 79.4263 161.154C80.3933 159.453 80.9935 151.567 81.2269 137.496C81.4603 123.291 81.6937 115.905 81.9271 115.339C82.6274 113.738 99.4497 106.569 132.394 93.8313C165.805 80.8936 183.895 75.125 186.662 76.5255Z" fill="#F09CB4"/>
<path d="M186.062 192.814C191.13 181.144 197.849 172.391 206.219 166.556C211.087 163.121 217.806 161.004 226.376 160.203C234.112 159.436 239.447 159.87 242.381 161.504C248.75 165.038 255.052 170.64 261.287 178.31C268.456 187.112 272.891 195.782 274.592 204.318C276.626 214.588 277.259 223.158 276.492 230.027C275.592 237.996 272.724 245.332 267.89 252.034C263.255 258.403 255.135 263.071 243.531 266.039C230.96 269.24 219.223 268.857 208.32 264.889C202.184 262.688 196.466 258.253 191.164 251.584C185.662 244.715 182.244 237.413 180.91 229.677C178.843 217.739 180.56 205.452 186.062 192.814Z" fill="#F09CB4"/>
<path d="M214.372 145.599C215.472 154.568 214.672 163.371 211.971 172.008C203.501 176.542 196.132 183.778 189.863 193.715C183.228 204.218 180.11 214.355 180.51 224.125C175.975 225.692 170.073 227.143 162.804 228.477C153.835 230.144 145.865 230.977 138.896 230.977C125.725 230.977 115.005 227.86 106.735 221.624C99.6664 216.322 93.9645 208.353 89.6297 197.716C88.2626 194.448 87.0622 189.18 86.0285 181.911C84.9281 174.308 84.6781 168.74 85.2783 165.205C91.6471 174.809 98.7328 181.661 106.535 185.762C118.973 192.331 134.895 193.765 154.301 190.064C169.373 187.163 182.044 179.327 192.314 166.556C200.15 156.819 206.135 144.915 210.27 130.844C212.204 134.045 213.571 138.963 214.372 145.599Z" fill="#FDEABE"/>
<path d="M104.435 261.738C92.8975 254.602 84.7448 245.582 79.9765 234.679C77.5757 229.177 75.4583 222.441 73.6244 214.472L71.5737 204.168C73.0408 208.903 76.4086 213.572 81.6771 218.173C87.5457 223.342 94.7981 227.46 103.434 230.527C125.442 238.363 151.05 237.863 180.26 229.027C181.394 234.129 183.528 239.397 186.662 244.832C190.397 251.334 194.682 256.336 199.517 259.837C192.281 263.572 185.795 266.373 180.06 268.24C169.49 271.708 158.653 273.442 147.549 273.442C131.444 273.442 117.072 269.54 104.435 261.738Z" fill="#D0879D"/>
<path d="M102.134 241.281C111.104 245.215 121.59 247.183 133.594 247.183C140.864 247.183 150.017 245.515 161.054 242.181C169.99 239.447 176.809 236.829 181.511 234.328C181.577 235.762 182.478 238.296 184.211 241.931C185.879 245.465 187.396 248.1 188.763 249.834C184.228 252.534 176.842 255.002 166.606 257.236C156.402 259.47 147.499 260.587 139.897 260.587C122.891 260.587 108.169 256.019 95.7318 246.883C85.495 239.38 78.426 230.344 74.5247 219.773C82.9608 229.777 92.1639 236.946 102.134 241.281Z" fill="#DACAA5"/>
<path d="M258.486 175.108C266.389 184.311 271.757 193.815 274.592 203.618C277.693 214.322 278.21 224.575 276.142 234.378C273.942 244.915 269.14 252.718 261.737 257.786C257.469 260.687 249.7 263.288 238.43 265.589C225.525 268.256 216.156 268.256 210.32 265.589C203.285 262.421 197.833 259.153 193.965 255.785C190.197 252.551 187.212 248.616 185.012 243.982C184.145 242.214 183.144 239.047 182.011 234.478L180.61 228.476C181.344 230.677 186.946 231.927 197.416 232.228C209.353 232.561 221.141 231.111 232.778 227.876C245.449 224.375 254.018 216.456 258.486 204.118C260.287 199.116 261.154 193.915 261.087 188.513C261.021 183.411 260.154 178.943 258.486 175.108Z" fill="#D0879D"/>
<path d="M72.7241 177.059L64.3212 184.512C58.2192 189.98 53.9344 193.965 51.4669 196.466C48.6326 199.367 45.0314 202.218 40.6633 205.019C36.4952 207.72 33.3942 209.253 31.3602 209.62C28.3592 210.154 25.7083 208.153 23.4075 203.618C24.3078 203.818 26.1918 203.235 29.0594 201.868C32.1271 200.4 35.3615 198.466 38.7627 196.066C40.3632 194.932 46.9654 189.113 58.5693 178.61C69.1729 168.973 76.0752 163.338 79.2762 161.704C78.0092 163.171 76.542 166.172 74.8748 170.707C74.0412 172.975 73.3243 175.092 72.7241 177.059Z" fill="#D0879D"/>
<path d="M225.375 128.443L234.828 132.944C241.797 136.346 246.882 139.08 250.084 141.147C254.252 143.881 259.303 146.566 265.239 149.2C271.641 152.001 276.092 153.368 278.593 153.301C277.226 154.802 275.175 156.052 272.441 157.052C269.573 158.053 267.056 158.386 264.889 158.053C262.788 157.719 260.17 156.786 257.036 155.252C254.202 153.851 251.651 152.318 249.383 150.65C247.716 149.417 245.149 147.716 241.681 145.549L235.829 141.847C235.129 141.381 234.112 140.914 232.778 140.447L230.977 139.897L225.375 128.443Z" fill="#D0879D"/>
<path d="M186.862 77.3257L193.365 77.8759C193.131 91.0803 190.247 101.684 184.712 109.687C176.376 121.757 161.521 130.027 140.147 134.495C119.073 138.896 101.884 138.246 88.5794 132.544C80.2099 128.976 73.3076 123.241 67.8724 115.338L73.0742 111.037C81.377 115.672 89.8131 117.956 98.3827 117.889C105.752 117.823 117.622 115.789 133.995 111.787C148.7 108.186 160.47 103.401 169.306 97.4324C177.443 91.9306 183.295 85.2283 186.862 77.3257Z" fill="#D0879D"/>
<path d="M101.934 252.285C92.9309 247.483 86.0786 241.131 81.377 233.228C80.1766 231.194 78.9595 228.477 77.7258 225.075L76.2753 220.524C91.7805 236.263 108.153 244.799 125.392 246.133C140.63 247.333 159.036 242.865 180.61 232.728L181.361 235.979C163.054 246.083 144.615 250.334 126.042 248.733C107.102 247.1 91.4637 239.647 79.1262 226.376C89.5964 243.048 104.268 253.218 123.141 256.886C141.247 260.454 162.521 257.92 186.962 249.284L188.613 251.784C180.544 255.752 171.391 258.553 161.154 260.187C150.717 261.821 140.463 262.038 130.393 260.837C119.623 259.504 110.137 256.653 101.934 252.285Z" fill="#0D131A"/>
<path d="M194.065 90.8805C199.967 111.921 200.15 128.977 194.615 142.048C188.046 157.586 173.241 168.173 150.2 173.808C127.859 179.277 110.337 175.742 97.6324 163.205C88.2626 153.968 81.2602 139.313 76.6254 119.24C76.3919 118.273 76.7087 117.656 77.5757 117.389C78.3426 117.123 79.1929 117.223 80.1265 117.69C98.566 127.026 120.774 126.976 146.749 117.539C156.752 113.905 165.872 109.337 174.108 103.835C181.711 98.7332 186.746 94.1316 189.213 90.0302C190.147 88.463 191.03 87.7128 191.864 87.7795C192.798 87.8128 193.531 88.8465 194.065 90.8805Z" fill="#0D131A"/>
<path d="M191.714 90.48L193.665 100.033C197.233 119.873 195.432 135.578 188.263 147.149L188.213 146.799L188.013 147.099L188.263 147.149C180.694 158.753 167.606 166.806 149 171.307C132.828 175.242 119.106 173.691 107.836 166.656C98.0992 160.52 90.43 150.45 84.8281 136.445C83.0275 131.977 81.377 126.609 79.8765 120.34C84.8115 124.575 92.7141 126.826 103.584 127.092C113.688 127.292 124.825 125.792 136.996 122.591C149.2 119.356 160.137 115.005 169.807 109.536C180.243 103.601 187.546 97.2489 191.714 90.48Z" fill="#FDEABE"/>
<path d="M191.714 90.48L192.014 91.8804C190.08 101.75 185.695 109.987 178.86 116.589C170.123 124.992 157.219 130.96 140.147 134.495C115.538 139.596 96.2653 137.863 82.3273 129.293L79.8765 120.34C84.8115 124.575 92.7141 126.826 103.584 127.092C113.688 127.292 124.825 125.792 136.996 122.591C149.2 119.356 160.137 115.005 169.807 109.536C180.243 103.601 187.546 97.2489 191.714 90.48Z" fill="#DACAA5"/>
<path d="M230.577 88.7796C237.046 92.6475 244.949 98.4161 254.285 106.085L270.44 118.84C275.209 122.808 278.393 126.476 279.994 129.843C281.728 133.578 282.628 137.713 282.695 142.248C282.728 147.016 281.778 150.984 279.844 154.151C278.743 155.952 276.392 157.403 272.791 158.503C268.757 159.737 264.955 159.82 261.387 158.753C258.153 157.786 253.918 155.385 248.683 151.551C242.648 147.116 237.479 143.931 233.178 141.997L244.832 161.204L248.833 164.405C252.101 167.139 255.202 170.107 258.136 173.308C267.506 183.478 273.475 193.848 276.042 204.418C280.477 222.558 279.427 236.946 272.891 247.583C266.923 257.286 256.152 264.138 240.58 268.14C233.645 269.907 226.476 270.124 219.073 268.79C212.438 267.59 206.336 265.305 200.767 261.938C191.831 266.039 182.744 269.207 173.508 271.441C164.305 273.708 155.885 274.809 148.249 274.742C117.939 274.642 95.8151 263.205 81.8771 240.43C76.3419 231.361 72.6073 221.157 70.6734 209.82C68.9395 199.717 68.8227 190.097 70.3233 180.96L65.0215 185.562C60.52 189.63 55.8684 194.198 51.0668 199.267C45.7984 204.835 40.73 208.436 35.8617 210.07C31.927 211.404 28.7593 211.337 26.3585 209.87C23.5909 208.17 21.3902 205.569 19.7563 202.068C17.3888 197.033 16.4885 190.597 17.0554 182.761C17.6556 173.825 23.1741 162.304 33.6109 148.199C44.0811 134.028 56.3686 121.491 70.4733 110.587C76.1752 106.185 84.3113 101.3 94.8815 95.932C106.919 89.7632 117.306 85.6118 126.042 83.4778C159.22 75.3751 185.495 73.6078 204.868 78.176C213.638 80.2434 222.208 83.7779 230.577 88.7796ZM205.969 81.4271C196.065 78.8929 184.862 77.9759 172.357 78.6762C159.52 79.4431 144.281 81.9773 126.642 86.2787C116.172 88.8462 104.952 93.5312 92.9809 100.333C81.3103 106.969 70.2899 114.855 59.9198 123.991C49.2495 133.395 40.5299 142.998 33.761 152.801C26.4919 163.371 22.1571 173.225 20.7566 182.361C19.923 187.929 20.3732 193.348 22.1071 198.616C23.7076 203.518 25.7249 206.536 28.1591 207.669C31.3268 209.137 35.2281 208.186 39.863 204.819C42.2972 203.051 45.9984 199.583 50.9668 194.415C53.6677 191.614 57.8691 187.679 63.571 182.611L71.3236 175.809C73.1909 170.474 75.1415 166.139 77.1755 162.804C78.6427 160.404 79.643 159.437 80.1766 159.903C80.7434 160.337 80.4933 161.587 79.4263 163.655C74.4246 173.258 72.2906 184.979 73.0242 198.816C73.8244 213.321 77.6924 226.476 84.628 238.28C92.4974 251.651 103.268 261.104 116.939 266.639C132.778 273.041 151.417 273.625 172.858 268.39C176.759 267.456 181.511 265.956 187.112 263.888C191.614 262.221 195.015 260.821 197.316 259.687C191.781 255.752 187.429 250.984 184.261 245.382C180.894 239.48 179.093 233.111 178.86 226.276C147.182 233.912 123.358 232.811 107.386 222.975C90.9802 212.938 83.1109 193.848 83.7778 165.705C83.8111 163.971 84.2946 163.205 85.2283 163.405C86.0285 163.605 86.8455 164.388 87.6791 165.755C92.6808 174.225 99.4997 180.677 108.136 185.112C121.007 191.681 136.479 192.764 154.552 188.363C171.891 184.128 185.479 174.742 195.315 160.204C198.616 155.269 201.567 149.617 204.168 143.248L208.77 130.694C209.203 129.527 209.787 129.01 210.52 129.143C211.154 129.243 211.621 129.693 211.921 130.494C214.988 138.363 216.372 146.582 216.072 155.152C215.872 160.587 215.038 165.755 213.571 170.657C217.939 169.59 221.941 169.223 225.575 169.557C228.71 169.857 230.277 170.407 230.277 171.207L224.025 171.357C219.157 171.424 215.405 172.074 212.771 173.308C204.868 176.976 197.866 183.778 191.764 193.715C185.729 203.585 182.628 213.171 182.461 222.474C182.361 228.877 183.645 235.112 186.312 241.181C189.046 247.349 192.914 252.618 197.916 256.986C209.453 267.056 223.541 270.024 240.18 265.889C254.652 262.288 264.638 255.786 270.14 246.382C276.042 236.312 276.909 222.725 272.741 205.619C270.007 194.382 264.055 183.845 254.885 174.008C252.018 170.907 249.017 168.073 245.882 165.505L241.981 162.604C232.078 144.098 226.492 133.428 225.225 130.594C224.292 128.526 224.075 127.426 224.575 127.292C225.008 127.192 225.775 127.993 226.876 129.693L232.328 138.946C235.595 140.414 240.864 143.481 248.133 148.149C254.568 152.284 259.087 154.752 261.687 155.552L272.241 155.902C274.975 155.169 276.809 154.118 277.743 152.751C278.777 151.284 279.393 148.5 279.593 144.398C279.827 139.463 279.077 135.228 277.343 131.694C275.942 128.86 273.275 125.775 269.34 122.441C264.572 118.74 261.087 115.905 258.887 113.938C248.883 104.968 240.264 98.1494 233.028 93.4811C224.158 87.8126 215.139 83.7946 205.969 81.4271ZM212.821 157.603C213.421 147.299 212.654 139.046 210.52 132.844C209.42 140.647 206.252 148.966 201.017 157.803C190.48 175.442 174.808 186.796 154.001 191.864C136.062 196.232 120.407 194.848 107.036 187.713C97.5324 182.644 90.5134 175.792 85.9785 167.156C85.8118 191.031 93.1476 208.27 107.986 218.873C124.458 230.644 148.083 232.144 178.86 223.375C179.26 210.871 183.128 199.383 190.464 188.913C196.832 179.877 203.768 173.975 211.271 171.207C212.004 167.306 212.521 162.771 212.821 157.603Z" fill="#0D131A"/>
<path d="M225.976 194.115C233.311 192.314 239.964 192.831 245.932 195.665C252.034 198.566 255.869 203.201 257.436 209.57C259.003 215.939 257.803 221.824 253.835 227.226C249.9 232.528 244.282 236.079 236.979 237.879C229.643 239.647 223.075 239.096 217.273 236.229C211.371 233.295 207.636 228.626 206.069 222.224C204.502 215.789 205.619 209.937 209.42 204.668C213.155 199.4 218.673 195.882 225.976 194.115Z" fill="#0D131A"/>
<path d="M226.326 196.065C232.428 194.598 238.246 195.365 243.781 198.366C249.25 201.334 252.634 205.485 253.935 210.82C255.202 216.089 254.118 221.124 250.684 225.925C247.249 230.694 242.448 233.828 236.279 235.329C230.144 236.829 224.442 236.246 219.173 233.578C213.905 230.91 210.62 226.942 209.32 221.674C208.019 216.339 209.003 211.137 212.271 206.069C215.605 200.867 220.29 197.533 226.326 196.065Z" fill="#FDEABE"/>
<path d="M236.279 235.329C232.478 236.263 228.71 236.346 224.975 235.579C221.374 234.845 218.24 233.412 215.572 231.278C221.507 230.544 227.243 229.41 232.778 227.876C242.048 225.342 249.2 220.241 254.235 212.571C254.902 217.573 253.535 222.258 250.134 226.626C246.699 231.027 242.081 233.928 236.279 235.329Z" fill="#DACAA5"/>
<path d="M233.778 227.076C230.11 227.976 226.876 227.676 224.075 226.176C221.141 224.609 219.223 221.991 218.323 218.323C217.489 214.855 218.006 211.637 219.873 208.67C221.707 205.736 224.292 203.852 227.626 203.018C230.86 202.251 233.928 202.768 236.829 204.568C239.83 206.369 241.731 208.97 242.531 212.371C243.331 215.639 242.848 218.74 241.081 221.674C239.313 224.508 236.879 226.309 233.778 227.076Z" fill="#0D131A"/>
<path d="M232.478 223.875C229.677 224.575 227.309 224.308 225.375 223.075C223.541 221.908 222.308 220.007 221.674 217.373C221.107 215.105 221.541 212.788 222.974 210.42C224.408 208.02 226.276 206.552 228.576 206.019C231.211 205.385 233.678 205.886 235.979 207.519C238.08 209.02 239.397 210.871 239.93 213.071C240.53 215.606 239.963 217.956 238.23 220.124C236.696 222.058 234.778 223.308 232.478 223.875Z" fill="#F09CB4"/>
<path d="M36.812 194.115C38.7793 192.281 41.2635 191.481 44.2645 191.714C47.1321 191.914 49.0661 192.898 50.0665 194.665C51.2669 196.733 51.767 198.717 51.567 200.617C51.3002 202.851 50.1165 204.819 48.0158 206.519C46.1151 208.053 43.8644 208.803 41.2635 208.77C38.6293 208.737 36.6286 207.853 35.2615 206.119C33.761 204.252 33.1941 202.185 33.5609 199.917C33.861 197.75 34.9447 195.816 36.812 194.115Z" fill="#0D131A"/>
<path d="M48.616 199.917C48.6493 201.451 48.1158 202.718 47.0154 203.718C45.615 204.952 44.3479 205.736 43.2141 206.069C41.6803 206.536 40.2465 206.252 38.9127 205.219C35.6783 202.685 35.4449 199.967 38.2125 197.066C39.4129 195.799 40.8467 194.982 42.5139 194.615C44.3479 194.215 45.7984 194.598 46.8654 195.766C47.9991 197.033 48.5826 198.416 48.616 199.917Z" fill="#EEEEEF"/>
<path d="M36.912 203.068C38.6793 203.868 40.68 204.002 42.9141 203.468C45.1148 202.901 46.9988 201.834 48.566 200.267C48.4993 201.668 47.9824 202.818 47.0154 203.718C45.615 204.952 44.3479 205.736 43.2142 206.069C41.6803 206.536 40.2465 206.252 38.9127 205.219C38.0124 204.519 37.3455 203.802 36.912 203.068Z" fill="#C8C9CA"/>
<path d="M251.784 149.55C252.218 147.282 253.668 145.582 256.136 144.448L263.788 144.248C265.856 145.115 267.323 146.299 268.19 147.799C269.123 149.433 269.423 151.5 269.09 154.001C268.823 155.869 267.689 157.369 265.689 158.503C263.488 159.77 260.854 160.087 257.786 159.453C255.519 158.986 253.818 157.736 252.684 155.702C251.651 153.801 251.351 151.751 251.784 149.55Z" fill="#0D131A"/>
<path d="M254.535 149.4C254.902 147.866 256.002 146.849 257.836 146.349L262.788 146.549C266.589 147.85 267.639 150.367 265.939 154.102C265.239 155.669 264.088 156.603 262.488 156.903L258.036 156.553C256.602 156.186 255.552 155.302 254.885 153.902C254.252 152.535 254.135 151.034 254.535 149.4Z" fill="#EEEEEF"/>
<path d="M258.036 156.552C256.802 156.219 255.852 155.519 255.185 154.452C254.552 153.418 254.268 152.201 254.335 150.8C255.669 152.067 257.386 153.084 259.487 153.851C261.521 154.552 263.521 154.902 265.489 154.902C264.188 156.902 261.704 157.453 258.036 156.552Z" fill="#C8C9CA"/>
<path d="M218.623 260.187C223.091 254.952 228.56 251.551 235.029 249.984C242.364 248.183 249.183 248.633 255.485 251.334C261.788 254.002 264.555 257.553 263.788 261.988C263.421 264.155 261.471 266.122 257.936 267.89C254.302 269.724 248.4 271.608 240.23 273.542C230.327 275.909 223.375 276.876 219.373 276.443C216.339 276.109 214.505 274.809 213.871 272.541C212.904 269.173 214.488 265.055 218.623 260.187Z" fill="#0D131A"/>
<path d="M260.387 259.687L260.537 260.187C260.971 261.921 258.703 263.855 253.735 265.989C250 267.59 245.382 269.073 239.88 270.441C232.211 272.308 226.592 273.275 223.025 273.342C219.29 273.375 217.189 272.441 216.722 270.541L216.672 269.99C223.375 269.29 230.727 268.006 238.73 266.139C246.933 264.205 254.152 262.054 260.387 259.687Z" fill="#C8C9CA"/>
<path d="M236.879 252.485C242.148 251.184 247.316 251.534 252.384 253.535C256.719 255.235 259.387 257.286 260.387 259.687C254.152 262.054 246.932 264.205 238.73 266.139C230.727 268.006 223.375 269.29 216.672 269.99C216.606 267.523 218.523 264.422 222.424 260.687C226.726 256.519 231.544 253.785 236.879 252.485Z" fill="#EEEEEF"/>
<path d="M181.611 88.4795C172.074 100.35 156.452 108.92 134.745 114.188C112.337 119.657 94.6481 120.34 81.6771 116.239C70.8734 112.804 64.2879 106.519 61.9204 97.3825C60.7534 92.981 61.1535 87.1124 63.1208 79.7766C65.3216 71.6738 66.2219 65.7385 65.8217 61.9706C64.4213 47.9325 68.0892 35.545 76.8254 24.8081C84.9282 14.9048 95.5984 8.30257 108.836 5.00146C122.274 1.66701 134.945 2.65067 146.849 7.95245C160.053 13.8544 169.773 24.2246 176.009 39.0629C176.809 40.9635 179.11 44.6314 182.911 50.0666C186.346 55.0016 188.463 58.8362 189.263 61.5704C190.297 65.2383 190.263 69.3064 189.163 73.7745C187.929 78.8763 185.412 83.7779 181.611 88.4795Z" fill="#0D131A"/>
<path d="M181.31 52.8173C184.045 56.8186 185.779 60.3198 186.512 63.3208C188.913 73.1241 184.245 82.9274 172.508 92.7307C161.671 101.734 148.349 108.169 132.544 112.037C110.637 117.372 93.6978 117.906 81.7271 113.638C72.4906 110.37 66.9554 104.701 65.1215 96.632C64.1878 92.564 64.5213 87.3622 66.1218 81.0268C67.9558 73.7576 68.706 67.6389 68.3726 62.6706C67.4723 49.0327 71.0902 37.1454 79.2262 27.0086C86.7621 17.6388 96.6654 11.4201 108.936 8.35237C121.34 5.21798 133.228 6.10161 144.598 11.0033C157.136 16.4051 166.739 25.8916 173.408 39.4628L177.059 46.015L181.31 52.8173Z" fill="#F09CB4"/>
<path d="M88.1292 67.9728C86.5287 68.2729 84.9782 68.0061 83.4776 67.1725C81.9438 66.3056 80.9935 65.1052 80.6267 63.5713C80.0932 61.3372 80.2266 59.3366 81.0268 57.5693C81.9271 55.702 83.4443 54.5016 85.5784 53.9681C87.3123 53.568 88.8961 54.0348 90.3299 55.3686C91.7304 56.669 92.5307 58.3196 92.7308 60.3202C92.9308 62.1208 92.6307 63.738 91.8304 65.1719C90.9635 66.7391 89.7297 67.6727 88.1292 67.9728Z" fill="#0D131A"/>
<path d="M86.5287 59.87C85.8618 60.0368 85.2449 59.9201 84.6781 59.5199C84.0779 59.1198 83.6944 58.5696 83.5277 57.8694C83.361 57.2692 83.4443 56.669 83.7778 56.0688C84.1446 55.4352 84.6614 55.0351 85.3283 54.8684C85.9619 54.735 86.5454 54.885 87.0789 55.3185C87.5457 55.7186 87.8625 56.2522 88.0292 56.9191C88.1959 57.6193 88.1292 58.2528 87.8291 58.8197C87.529 59.3865 87.0956 59.7367 86.5287 59.87Z" fill="white"/>
<path d="M151.951 51.6672L147.249 51.5171C145.582 50.8502 144.365 49.6998 143.598 48.066C142.764 46.2654 142.581 44.4314 143.048 42.5641C143.514 40.5634 144.615 39.213 146.349 38.5128C148.116 37.8125 149.883 37.9126 151.651 38.8129C153.318 39.6465 154.568 40.9802 155.402 42.8142C156.169 44.4147 156.219 46.1153 155.552 47.9159C154.885 49.8165 153.685 51.067 151.951 51.6672Z" fill="#0D131A"/>
<path d="M148.7 44.0145C148.199 44.1479 147.666 44.0312 147.099 43.6644C146.499 43.2976 146.132 42.8141 145.999 42.2139C145.832 41.547 145.882 40.9302 146.149 40.3633C146.415 39.7631 146.866 39.3796 147.499 39.2129C148.166 39.0795 148.75 39.1796 149.25 39.513C149.783 39.8465 150.117 40.3466 150.25 41.0135C150.417 41.6804 150.367 42.314 150.1 42.9142C149.8 43.5144 149.333 43.8812 148.7 44.0145Z" fill="white"/>
<path d="M121.14 75.1748C120.974 75.4749 120.107 75.2248 118.539 74.4245C116.972 73.6576 116.372 73.0574 116.739 72.6239C117.139 72.1238 118.023 72.3572 119.39 73.3242C120.723 74.2578 121.307 74.8747 121.14 75.1748Z" fill="#0D131A"/>
<path d="M109.787 82.4772C117.189 82.9774 122.357 82.8607 125.292 82.1271C128.526 81.3268 132.828 78.8427 138.196 74.6746C143.598 70.5065 147.883 68.0057 151.05 67.1721C153.651 66.4719 156.402 66.2051 159.303 66.3718C161.937 66.4719 164.205 66.8887 166.105 67.6222C171.707 79.0261 171.074 88.0124 164.205 94.5813C159.437 99.1161 149.667 103.584 134.895 107.986C121.024 112.154 109.737 113.388 101.034 111.687C89.4964 109.386 83.3443 102 82.5774 89.5296C83.6444 88.3292 84.9615 87.1455 86.5287 85.9784C88.396 84.5779 89.9799 83.7276 91.2803 83.4275C96.1153 82.3272 102.284 82.0104 109.787 82.4772Z" fill="#922F00"/>
<path d="M127.392 73.6747C126.992 73.4079 127.209 72.5243 128.043 71.0238C128.876 69.5566 129.576 69.0064 130.143 69.3732C130.71 69.74 130.477 70.5903 129.443 71.9241C128.376 73.2912 127.693 73.8747 127.392 73.6747Z" fill="#0D131A"/>
<path d="M125.892 83.3778C122.357 84.1781 116.472 84.3448 108.236 83.878C100.8 83.4778 95.6818 83.8446 92.8808 84.9783C89.0795 86.5122 86.1952 88.1794 84.2279 89.98C82.594 91.4805 81.3936 93.2978 80.6267 95.4319C80.1599 96.7656 79.5764 97.2658 78.8761 96.9324C78.1759 96.6323 78.0092 95.932 78.376 94.8317C80.4433 88.3628 84.9115 83.9947 91.7805 81.7273C95.4483 80.5269 100.817 80.2934 107.886 81.027C115.422 81.7939 121.257 81.6939 125.392 80.7269C129.727 79.7266 133.895 77.3091 137.896 73.4745C141.931 69.6065 146.582 67.0223 151.851 65.7219C157.452 64.3548 163.254 65.0216 169.256 67.7226C170.457 68.2561 171.057 68.7896 171.057 69.3231L168.806 69.3731C165.672 68.2727 162.838 67.6559 160.303 67.5225C157.969 67.4224 155.468 67.6892 152.801 68.3228C148.6 69.3564 144.115 71.9073 139.346 75.9753C134.645 79.9767 130.16 82.4442 125.892 83.3778Z" fill="#0D131A"/>
<path d="M164.655 67.6227L166.005 67.4727C167.039 67.6394 167.623 67.8394 167.756 68.0729C172.924 77.7761 172.641 85.9955 166.906 92.7311C161.204 99.4334 149.883 105.002 132.944 109.437C117.672 113.405 105.452 113.838 96.282 110.737C86.7788 107.503 81.9105 100.917 81.6771 90.9805C81.6437 90.7138 81.9772 90.2136 82.6774 89.48C83.3443 88.7465 83.6944 88.513 83.7278 88.7798C84.3613 98.9499 89.0129 105.602 97.6825 108.737C106.052 111.771 117.639 111.354 132.444 107.486C148.983 103.151 159.937 97.4494 165.305 90.3803C170.374 83.6447 170.157 76.0589 164.655 67.6227Z" fill="#0D131A"/>
<path d="M117.589 89.7297L126.942 89.3296C129.643 88.6293 132.527 87.0788 135.595 84.678C138.663 82.2772 142.331 80.5433 146.599 79.4763C152.734 77.9758 157.886 77.8757 162.054 79.1762C165.922 80.4099 168.256 82.594 169.056 85.7284C169.69 88.2292 169.79 91.1635 169.356 94.5313C168.89 98.1992 168.79 100.85 169.056 102.484C170.79 112.821 177.459 132.344 189.063 161.054C201.1 190.83 208.119 210.404 210.12 219.773C212.921 232.744 210.787 244.515 203.718 255.085C197.149 264.922 188.213 271.224 176.909 273.992C164.005 277.159 152.684 276.409 142.948 271.741C132.244 266.606 124.475 257.119 119.64 243.281C116.772 235.078 113.238 214.838 109.036 182.561C104.701 149.316 100.817 127.142 97.3823 116.039C96.7488 113.971 95.2649 111.737 92.9308 109.336C90.6301 107.036 89.413 105.602 89.2796 105.035C88.3126 101.367 90.7301 97.8158 96.532 94.3813C102.667 90.7467 109.686 89.1962 117.589 89.7297Z" fill="#0D131A"/>
<path d="M119.14 92.1809L127.492 91.7808C130.393 90.9138 133.628 89.1132 137.196 86.379C140.363 84.0448 143.731 82.4443 147.299 81.5774C152.634 80.2769 157.136 80.0935 160.804 81.0272C164.138 81.8608 166.172 83.428 166.906 85.7287C167.472 88.1296 167.439 90.8805 166.806 93.9815C166.105 97.1159 166.055 100.1 166.656 102.935C169.423 116.439 176.142 136.696 186.812 163.705C197.783 191.381 204.302 209.804 206.369 218.973C209.07 230.911 207.619 241.781 202.017 251.584C196.382 261.488 187.779 267.99 176.209 271.091C163.438 274.525 152.167 273.342 142.397 267.54C132.828 261.838 125.959 252.485 121.79 239.48C120.557 235.712 117.556 217.54 112.787 184.962C107.886 151.484 103.734 128.793 100.333 116.889C99.2996 113.221 97.5157 110.237 94.9815 107.936C92.5807 105.735 91.3303 104.368 91.2302 103.835C90.9301 102.268 92.2639 100.35 95.2316 98.0829C98.566 95.5487 102.734 93.6647 107.736 92.431C111.237 91.5974 115.038 91.514 119.14 92.1809Z" fill="#EB6D65"/>
<path d="M128.393 95.5821L118.189 96.2323C114.288 95.9989 110.737 96.2156 107.536 96.8825C104.201 97.5827 101.034 98.6998 98.0325 100.234C96.0319 101.267 93.8311 102.668 91.4303 104.435L91.2302 103.835C90.9301 102.268 92.2639 100.35 95.2316 98.0829C98.566 95.5487 102.734 93.6647 107.736 92.431C111.237 91.5974 115.038 91.514 119.14 92.1809L127.492 91.7808C130.393 90.9138 133.628 89.1132 137.196 86.379C140.363 84.0448 143.731 82.4443 147.299 81.5774C152.634 80.2769 157.136 80.0935 160.804 81.0272C164.138 81.8608 166.172 83.428 166.906 85.7287L167.306 88.0795C163.805 86.7124 161.137 85.8288 159.303 85.4286C155.802 84.6284 152.517 84.545 149.45 85.1786C147.216 85.612 144.081 87.2459 140.047 90.0802C135.945 92.9478 132.061 94.7818 128.393 95.5821Z" fill="#CB5D57"/>
<path d="M121.791 239.48C120.99 237.013 119.857 231.428 118.389 222.725C123.524 234.329 129.977 244.048 137.746 251.884C148.449 262.688 159.303 266.773 170.307 264.139C180.81 261.604 189.413 257.27 196.115 251.134C201.517 246.166 205.302 240.447 207.469 233.978C206.669 242.881 203.551 250.651 198.116 257.286C192.514 264.088 185.212 268.69 176.209 271.091C163.438 274.525 152.167 273.342 142.397 267.54C132.828 261.838 125.959 252.485 121.791 239.48Z" fill="#CB5D57"/>
<path d="M131.294 106.336C130.66 103.435 130.593 101.901 131.094 101.734C131.594 101.534 132.261 102.934 133.094 105.935C136.395 117.706 142.414 141.047 151.15 175.959L164.905 230.627C165.739 233.662 165.805 235.146 165.105 235.079C164.438 235.012 163.655 233.762 162.754 231.328C162.354 230.227 158.019 213.055 149.75 179.81L131.294 106.336Z" fill="#0D131A"/>
</g>
</g>
<defs>
<radialGradient id="paint0_radial_861_630" cx="0" cy="0" r="1" gradientUnits="userSpaceOnUse" gradientTransform="translate(150 150) rotate(90) scale(200)">
<stop stop-color="#FDEABE"/>
<stop offset="1" stop-color="#F09CB4"/>
</radialGradient>
<clipPath id="clip0_861_630">
<rect width="300" height="300" fill="white"/>
</clipPath>
<clipPath id="clip1_861_630">
<rect width="268" height="298" fill="white" transform="translate(16)"/>
</clipPath>
</defs>
</svg>
